<?xml version="1.0" encoding="UTF-8"?>
<svg id="Layer_2" xmlns="http://www.w3.org/2000/svg" viewBox="0 0 607.75 857.83">
  <defs>
    <style>
      .cls-1 {
        fill: #fff;
      }

      .cls-2 {
        fill: #e44d26;
      }

      .cls-3 {
        fill: #f16529;
      }

      .cls-4 {
        fill: #ebebeb;
      }
    </style>
  </defs>
  <g id="logo_set">
    <g id="html">
      <path class="cls-2" d="M607.75,168.59l-55.37,620.25-248.88,69-248.19-68.9L0,168.59h607.75,0Z"/>
      <path class="cls-3" d="M303.87,805.09l201.11-55.75,47.31-530.04h-248.42v585.79Z"/>
      <path class="cls-4" d="M196.24,371.48h107.63v-76.08H113.09l1.82,20.41,18.7,209.67h170.26v-76.08h-100.68l-6.95-77.91ZM213.39,563.51h-76.38l10.66,119.46,155.85,43.26.35-.1v-79.16l-.33.09-84.73-22.88-5.42-60.68h0Z"/>
      <path d="M56.54,0h38.66v38.2h35.37V0h38.67v115.68h-38.66v-38.74h-35.37v38.74h-38.66V0h0ZM220.09,38.36h-34.03V0h106.76v38.36h-34.05v77.32h-38.66V38.36h0ZM309.76,0h40.32l24.8,40.65L399.65,0h40.33v115.68h-38.51v-57.34l-26.6,41.13h-.67l-26.62-41.13v57.34h-37.83V0ZM459.22,0h38.68v77.44h54.37v38.24h-93.05V0h0Z"/>
      <path class="cls-1" d="M303.61,525.47h93.69l-8.83,98.67-84.86,22.9v79.15l155.98-43.23,1.14-12.85,17.88-200.3,1.86-20.43h-176.85v76.08h0ZM303.61,371.29v.19h183.78l1.52-17.1,3.47-38.57,1.82-20.41h-190.59v75.9h0Z"/>
    </g>
  </g>
</svg>