<?xml version="1.0" encoding="UTF-8"?>
<svg id="Layer_2" xmlns="http://www.w3.org/2000/svg" viewBox="0 0 510.38 949.26">
  <defs>
    <style>
      .cls-1 {
        fill: #ca3132;
      }

      .cls-2 {
        fill: #3174b9;
      }
    </style>
  </defs>
  <g id="logo_set">
    <g id="java">
      <path class="cls-2" d="M168.74,503.53s-24.87,14.47,17.72,19.36c51.6,5.89,77.96,5.04,134.81-5.71,0,0,14.97,9.37,35.86,17.48-127.47,54.62-288.5-3.16-188.38-31.13ZM153.15,432.25s-27.9,20.65,14.72,25.06c55.13,5.69,98.64,6.16,173.98-8.34,0,0,10.4,10.56,26.77,16.33-154.1,45.07-325.73,3.55-215.48-33.04Z"/>
      <path class="cls-1" d="M284.46,311.32c31.42,36.17-8.24,68.7-8.24,68.7,0,0,79.75-41.16,43.12-92.73-34.2-48.07-60.43-71.94,81.57-154.29,0,0-222.91,55.65-116.46,178.32Z"/>
      <path class="cls-2" d="M453.05,556.26s18.41,15.18-20.28,26.91c-73.56,22.28-306.22,29-370.84.89-23.21-10.11,20.34-24.13,34.04-27.09,14.29-3.09,22.45-2.53,22.45-2.53-25.83-18.19-166.99,35.73-71.69,51.2,259.86,42.14,473.71-18.97,406.31-49.38h0ZM180.7,358.39s-118.33,28.11-41.9,38.33c32.28,4.32,96.59,3.32,156.54-1.71,48.98-4.11,98.14-12.9,98.14-12.9,0,0-17.26,7.41-29.76,15.93-120.18,31.61-352.32,16.89-285.48-15.43,56.51-27.34,102.46-24.22,102.46-24.22h0ZM392.99,477.04c122.16-63.46,65.68-124.47,26.24-116.25-9.64,2.01-13.97,3.75-13.97,3.75,0,0,3.6-5.63,10.44-8.05,78-27.41,137.97,80.87-25.15,123.75,0,0,1.87-1.7,2.44-3.21Z"/>
      <path class="cls-1" d="M319.34,0s67.64,67.68-64.17,171.73c-105.71,83.49-24.1,131.08-.03,185.48-61.71-55.67-106.98-104.69-76.62-150.3C223.1,139.96,346.64,107.5,319.34,0h0Z"/>
      <path class="cls-2" d="M192.72,649.07c117.24,7.5,297.31-4.16,301.58-59.65,0,0-8.2,21.03-96.9,37.72-100.08,18.84-223.54,16.65-296.73,4.56,0,0,15,12.41,92.05,17.37Z"/>
      <path class="cls-1" d="M488.88,748.57h-3.56v-2h9.62v2h-3.56v9.98h-2.49v-9.98ZM508.08,749.07h-.04l-3.54,9.48h-1.63l-3.52-9.48h-.04v9.48h-2.37v-11.98h3.47l3.26,8.47,3.26-8.47h3.44v11.98h-2.29v-9.48h0ZM173.5,861.05c-11.06,9.58-22.74,14.97-33.24,14.97-14.95,0-23.06-8.98-23.06-23.36,0-15.56,8.69-26.95,43.45-26.95h12.85v35.33h0ZM204.02,895.48v-106.58c0-27.24-15.53-45.21-52.98-45.21-21.85,0-41,5.4-56.57,12.27l4.48,18.88c12.27-4.5,28.12-8.68,43.69-8.68,21.57,0,30.86,8.68,30.86,26.65v13.48h-10.78c-52.4,0-76.05,20.33-76.05,50.9,0,26.34,15.58,41.31,44.92,41.31,18.86,0,32.94-7.78,46.09-19.17l2.39,16.17h23.95ZM305.87,895.48h-38.05l-45.82-149.08h33.24l28.44,91.61,6.33,27.52c14.35-39.81,24.53-80.23,29.62-119.14h32.32c-8.65,49.09-24.24,102.98-46.08,149.08ZM451.91,861.05c-11.09,9.58-22.78,14.97-33.25,14.97-14.95,0-23.05-8.98-23.05-23.36,0-15.56,8.69-26.95,43.43-26.95h12.87v35.33ZM482.43,895.48v-106.58c0-27.24-15.58-45.21-52.99-45.21-21.87,0-41.02,5.4-56.59,12.27l4.48,18.88c12.27-4.5,28.16-8.68,43.73-8.68,21.54,0,30.84,8.68,30.84,26.65v13.48h-10.78c-52.41,0-76.04,20.33-76.04,50.9,0,26.34,15.55,41.31,44.89,41.31,18.87,0,32.94-7.78,46.12-19.17l2.4,16.17h23.94ZM53.21,920.81c-8.7,12.71-22.76,22.77-38.14,28.45l-15.07-17.75c11.72-6.01,21.75-15.72,26.42-24.75,4.02-8.05,5.7-18.4,5.7-43.17v-170.22h32.43v167.87c0,33.13-2.65,46.52-11.35,59.56Z"/>
    </g>
  </g>
</svg>