<?xml version="1.0" encoding="UTF-8"?>
<svg id="Layer_2" xmlns="http://www.w3.org/2000/svg" viewBox="0 0 818.05 901.47">
  <defs>
    <style>
      .cls-1 {
        fill: #8cc84b;
      }
    </style>
  </defs>
  <g id="logo_set">
    <g id="nodejs">
      <path class="cls-1" d="M372.11,9.62c22.35-12.79,51.47-12.85,73.8,0,112.36,63.49,224.75,126.87,337.08,190.4,21.13,11.9,35.26,35.42,35.05,59.76v381.96c.16,25.35-15.37,49.43-37.66,61.06-111.99,63.14-223.92,126.35-335.88,189.49-22.81,13.04-52.51,12.04-74.61-2.07-33.57-19.46-67.2-38.83-100.78-58.27-6.86-4.09-14.6-7.35-19.44-14,4.28-5.77,11.94-6.49,18.16-9.01,14.01-4.46,26.89-11.61,39.76-18.55,3.26-2.23,7.23-1.37,10.35.62,28.71,16.46,57.17,33.4,85.97,49.7,6.15,3.55,12.37-1.16,17.62-4.09,109.89-62.11,219.92-123.98,329.8-186.11,4.07-1.96,6.32-6.28,5.99-10.74.08-126,.02-252.02.04-378.03.47-5.06-2.46-9.71-7.04-11.78-111.6-62.85-223.14-125.79-334.72-188.66-3.96-2.72-9.18-2.73-13.14-.02-111.58,62.88-223.1,125.89-334.68,188.73-4.56,2.07-7.62,6.65-7.08,11.73.02,126,0,252.02,0,378.04-.4,4.46,2.03,8.69,6.07,10.6,29.78,16.88,59.59,33.65,89.38,50.48,16.79,9.03,37.39,14.4,55.89,7.48,16.32-5.85,27.76-22.51,27.45-39.83.15-125.27-.08-250.55.12-375.8-.41-5.56,4.87-10.16,10.27-9.63,14.31-.1,28.63-.19,42.94.04,5.97-.13,10.08,5.85,9.34,11.46-.06,126.06.15,252.12-.1,378.18.04,33.6-13.76,70.15-44.84,86.59-38.28,19.83-85.6,15.63-123.42-3.39-32.74-16.34-63.99-35.63-96.15-53.14C15.3,691.25-.15,667.08,0,641.74v-381.96c-.23-24.85,14.46-48.79,36.25-60.52,111.97-63.19,223.92-126.42,335.86-189.64Z"/>
      <path class="cls-1" d="M469.79,274.2c48.83-3.14,101.11-1.86,145.06,22.2,34.02,18.44,52.89,57.13,53.49,94.93-.95,5.1-6.28,7.91-11.15,7.56-14.17-.02-28.34.19-42.51-.1-6.01.23-9.5-5.31-10.26-10.62-4.07-18.09-13.93-36-30.96-44.72-26.13-13.08-56.43-12.43-84.92-12.15-20.8,1.1-43.17,2.91-60.79,15.14-13.53,9.27-17.64,27.97-12.81,43.04,4.55,10.82,17.04,14.31,27.25,17.52,58.85,15.39,121.21,13.86,178.94,34.12,23.9,8.26,47.28,24.31,55.46,49.33,10.7,33.54,6.01,73.63-17.85,100.55-19.35,22.16-47.53,34.22-75.64,40.77-37.39,8.34-76.2,8.55-114.18,4.85-35.71-4.07-72.87-13.45-100.43-37.78-23.57-20.47-35.09-52.36-33.94-83.14.27-5.2,5.45-8.82,10.43-8.4,14.27-.12,28.54-.15,42.8.02,5.7-.41,9.92,4.52,10.22,9.89,2.63,17.23,9.11,35.32,24.13,45.53,29,18.71,65.38,17.43,98.59,17.95,27.51-1.22,58.39-1.59,80.84-19.77,11.84-10.37,15.35-27.72,12.15-42.65-3.47-12.6-16.65-18.47-27.97-22.31-58.1-18.38-121.16-11.71-178.69-32.49-23.36-8.25-45.94-23.86-54.92-47.86-12.52-33.96-6.78-75.97,19.58-101.99,25.7-25.88,62.81-35.84,98.09-39.41h0Z"/>
    </g>
  </g>
</svg>