<?xml version="1.0" encoding="UTF-8"?>
<svg id="Layer_1" data-name="Layer 1" xmlns="http://www.w3.org/2000/svg" viewBox="0 0 162.59 171.18">
  <defs>
    <style>
      .cls-1, .cls-2 {
        fill: #82c822;
      }

      .cls-3 {
        fill: #e1f6c6;
      }

      .cls-4 {
        fill: #94dd2f;
      }

      .cls-5, .cls-6 {
        fill: #fff;
      }

      .cls-6, .cls-2, .cls-7, .cls-8 {
        fill-rule: evenodd;
      }

      .cls-9 {
        fill: #a5e24d;
      }

      .cls-10 {
        fill: #c0eb85;
      }

      .cls-7 {
        fill: #e5e5e5;
      }

      .cls-8 {
        fill: #606060;
      }

      .cls-11 {
        fill: #e6e6e6;
      }
    </style>
  </defs>
  <g id="g1852">
    <g id="g1840">
      <path d="M17.46,24.11c-23.23,23.11-23.3,106.76-.11,129.9,22.92,22.89,104.96,22.89,127.89,0,23.18-23.14,23.11-106.79-.11-129.9C121.69.78,40.9.78,17.46,24.11Z"/>
      <path class="cls-5" d="M17.46,17.5c-23.23,23.11-23.3,106.76-.11,129.9,22.92,22.89,104.96,22.89,127.89,0,23.18-23.14,23.11-106.79-.11-129.9-23.44-23.33-104.23-23.33-127.67,0Z"/>
      <path class="cls-9" d="M23.46,19.49c-21.05,20.94-21.11,96.73-.1,117.7,20.77,20.73,95.1,20.73,115.87,0,21-20.97,20.94-96.76-.1-117.7C117.89-1.64,44.7-1.64,23.46,19.49Z"/>
      <path class="cls-1" d="M139.23,121.34c-20.77,20.74-95.1,20.74-115.87,0-9.34-9.32-14.51-29.45-15.53-50.8-1.28,26.61,3.89,55.04,15.53,66.65,20.77,20.73,95.1,20.73,115.87,0,11.63-11.61,16.8-40.04,15.53-66.65-1.02,21.35-6.2,41.48-15.53,50.8Z"/>
      <path class="cls-4" d="M16.73,111.66c1.91,3.89,4.12,7.18,6.63,9.68,20.77,20.74,95.1,20.74,115.87,0,8.01-8,12.96-23.98,14.85-41.86-38.98,28.63-84.86,39.12-137.35,32.18Z"/>
      <path class="cls-10" d="M23.46,19.49c-6.31,6.28-10.73,17.48-13.27,30.66C46.61,12.3,119.62,6.25,150.53,42.08c-2.63-9.63-6.43-17.64-11.4-22.59C117.89-1.64,44.7-1.64,23.46,19.49Z"/>
      <path class="cls-3" d="M40.04,14.43c-8.94,2.54-16.18,8.7-16.18,13.78s7.24,7.12,16.18,4.58c8.94-2.53,16.18-8.69,16.18-13.76s-7.24-7.13-16.18-4.6Z"/>
      <path class="cls-3" d="M66.86,7.58c-5.04.31-9.59,2.75-10.18,5.44-.58,2.69,3.02,4.62,8.06,4.31,5.04-.32,9.59-2.75,10.18-5.45.59-2.69-3.02-4.61-8.06-4.3Z"/>
      <path class="cls-3" d="M128.54,109.96c-5.64,2.74-9.73,7.7-9.14,11.07.6,3.37,5.66,3.88,11.31,1.14,5.64-2.74,9.73-7.69,9.14-11.06-.6-3.38-5.66-3.89-11.31-1.15Z"/>
      <path class="cls-10" d="M154.08,79.48c-1.89,17.88-6.84,33.86-14.85,41.86-20.77,20.74-95.1,20.74-115.87,0-2.51-2.5-4.72-5.79-6.63-9.68-5.19-10.55-8.16-25.51-8.9-41.12-.15,3.11-.21,6.24-.19,9.36.02-2.15.08-4.31.19-6.45,1.02,21.34,6.19,41.48,15.53,50.8,20.77,20.73,95.1,20.73,115.87,0,9.33-9.32,14.51-29.46,15.53-50.8.1,2.14.16,4.3.18,6.46.03-3.12-.03-6.26-.18-9.37-.15,3.02-.37,6-.68,8.94Z"/>
      <path class="cls-11" d="M145.24,143.84c-22.93,22.88-104.97,22.88-127.89,0C6.04,132.55.26,106.85.01,80.81c-.27,27.23,5.51,54.79,17.34,66.6,22.93,22.88,104.96,22.88,127.89,0,11.82-11.81,17.6-39.37,17.34-66.6-.25,26.04-6.03,51.74-17.34,63.03Z"/>
    </g>
    <g>
      <g>
        <path class="cls-6" d="M119.12,65.18h-28.42v-28.42c0-1.94-1.59-3.53-3.53-3.53h-11.54c-1.94,0-3.53,1.58-3.53,3.53v28.42h-28.42c-1.94,0-3.53,1.58-3.53,3.52v11.54c0,1.94,1.59,3.53,3.53,3.53h28.42v28.42c0,1.94,1.59,3.53,3.53,3.53h11.54c1.94,0,3.53-1.59,3.53-3.53v-28.42h28.42c1.94,0,3.53-1.59,3.53-3.53v-11.54c0-1.94-1.59-3.52-3.53-3.52Z"/>
        <path class="cls-2" d="M119.12,65.18h-28.42v-28.42c0-1.94-1.59-3.53-3.53-3.53h-11.54c-1.94,0-3.53,1.58-3.53,3.53v28.42h-28.42c-1.94,0-3.53,1.58-3.53,3.52v11.54c0,1.94,1.59,3.53,3.53,3.53h28.42v28.42c0,1.94,1.59,3.53,3.53,3.53h11.54c1.94,0,3.53-1.59,3.53-3.53v-28.42h28.42c1.94,0,3.53-1.59,3.53-3.53v-11.54c0-1.94-1.59-3.52-3.53-3.52Z"/>
      </g>
      <g>
        <g>
          <path class="cls-8" d="M119.12,60.05h-28.42v-28.42c0-1.94-1.59-3.53-3.53-3.53h-11.54c-1.94,0-3.53,1.58-3.53,3.53v28.42h-28.42c-1.94,0-3.53,1.58-3.53,3.52v11.54c0,1.94,1.59,3.53,3.53,3.53h28.42v28.42c0,1.94,1.59,3.53,3.53,3.53h11.54c1.94,0,3.53-1.59,3.53-3.53v-28.42h28.42c1.94,0,3.53-1.59,3.53-3.53v-11.54c0-1.94-1.59-3.52-3.53-3.52Z"/>
          <path class="cls-7" d="M119.12,60.05h-28.42v-28.42c0-1.94-1.59-3.53-3.53-3.53h-11.54c-1.94,0-3.53,1.58-3.53,3.53v28.42h-28.42c-1.94,0-3.53,1.58-3.53,3.52v11.54c0,1.94,1.59,3.53,3.53,3.53h28.42v28.42c0,1.94,1.59,3.53,3.53,3.53h11.54c1.94,0,3.53-1.59,3.53-3.53v-28.42h28.42c1.94,0,3.53-1.59,3.53-3.53v-11.54c0-1.94-1.59-3.52-3.53-3.52Z"/>
        </g>
        <path class="cls-6" d="M119.12,60.05h-28.42v-28.42c0-1.94-1.59-3.53-3.53-3.53h-11.54c-1.94,0-3.53,1.58-3.53,3.53v28.42h-28.42c-1.94,0-3.53,1.58-3.53,3.52v5.77h82.48v-5.77c0-1.94-1.59-3.52-3.53-3.52Z"/>
      </g>
    </g>
  </g>
</svg>