<?xml version="1.0" encoding="UTF-8"?>
<svg id="Layer_2" data-name="Layer 2" xmlns="http://www.w3.org/2000/svg" viewBox="0 0 92.17 68.39">
  <defs>
    <style>
      .cls-1 {
        fill: #fff;
      }

      .cls-2 {
        fill: none;
        stroke: #82c822;
        stroke-miterlimit: 22.93;
        stroke-width: 6px;
      }
    </style>
  </defs>
  <g id="svg7069">
    <g id="g3360">
      <g id="g3358">
        <g id="g3354">
          <path class="cls-2" d="M78.54,4.35c-1.78-2.04-4.09-1.7-6.51.55-11,10.26-21.99,20.52-32.99,30.78-1.88,1.76-2.85,1.42-4.49-.19l-15.52-15.09c-1.63-1.58-3.5-1.92-5.04-.2l-9.88,10.97c-1.64,1.82-1.32,3.11-.01,4.49l25.57,27.11c2.88,3.05,7.49,3.66,10.84.62l46.6-42.23c2.04-1.85,2.9-3.35,1.01-5.81-2.97-3.85-6.39-7.33-9.58-11Z"/>
          <path class="cls-1" d="M78.54,4.35c-1.78-2.04-4.09-1.7-6.51.55-11,10.26-21.99,20.52-32.99,30.78-1.88,1.76-2.85,1.42-4.49-.19l-15.52-15.09c-1.63-1.58-3.5-1.92-5.04-.2l-9.88,10.97c-1.64,1.82-1.32,3.11-.01,4.49l25.57,27.11c2.88,3.05,7.49,3.66,10.84.62l46.6-42.23c2.04-1.85,2.9-3.35,1.01-5.81-2.97-3.85-6.39-7.33-9.58-11Z"/>
        </g>
        <path d="M86.74,13.63l-46.23,41.89c-3.35,3.04-7.96,2.43-10.84-.62L5.66,29.45l-1.55,1.72c-1.64,1.82-1.32,3.11-.01,4.49l25.57,27.11c2.88,3.05,7.49,3.66,10.84.62l46.6-42.23c2.04-1.85,2.91-3.34,1.01-5.81-.45-.58-.91-1.16-1.38-1.72Z"/>
      </g>
    </g>
  </g>
</svg>