<?xml version="1.0" encoding="UTF-8"?>
<svg id="Layer_2" data-name="Layer 2" xmlns="http://www.w3.org/2000/svg" viewBox="0 0 463.52 106.65">
  <defs>
    <style>
      .cls-1 {
        fill: #ffb700;
      }

      .cls-2 {
        fill: #00b1dd;
      }

      .cls-3 {
        fill: #fff;
      }

      .cls-4 {
        fill: #205b75;
      }

      .cls-5 {
        fill: #fec230;
      }

      .cls-6 {
        fill: #abbbcc;
      }

      .cls-7 {
        fill: #e1eaf4;
      }

      .cls-8 {
        fill: #007b9a;
      }

      .cls-9 {
        fill: #e5bb33;
      }

      .cls-10 {
        fill: #00c9fc;
      }

      .cls-11 {
        fill: #eb6374;
      }

      .cls-12 {
        fill: #d49800;
      }

      .cls-13 {
        fill: #114559;
      }

      .cls-14 {
        fill: #cadbea;
      }

      .cls-15 {
        fill: #00aad4;
      }

      .cls-16 {
        fill: #82ecff;
      }

      .cls-17 {
        fill: #ffe558;
      }

      .cls-18 {
        fill: #e6e6e6;
      }
    </style>
  </defs>
  <g id="Code">
    <g>
      <g id="g6422">
        <path d="M435.99,12.15H77.72c-22.58,0-27.61,22.36-27.54,44.6.08,21.99,3.08,43.85,27.54,43.85h358.27c24.46,0,27.46-21.86,27.53-43.85.08-22.23-4.95-44.6-27.53-44.6Z"/>
        <path class="cls-3" d="M435.99,7.77H77.72c-22.58,0-27.61,22.37-27.54,44.61.08,21.98,3.08,43.84,27.54,43.84h358.27c24.46,0,27.46-21.86,27.53-43.84.08-22.24-4.95-44.61-27.53-44.61Z"/>
        <path class="cls-5" d="M428.18,14.08H85.53c-20.9,0-25.56,17.88-25.49,35.65.07,17.56,2.84,35.04,25.49,35.04h342.65c22.65,0,25.42-17.48,25.49-35.04.07-17.77-4.59-35.65-25.49-35.65Z"/>
        <path class="cls-18" d="M435.99,93.04H77.72c-24.01,0-27.34-21.07-27.53-42.64v.02c-.01.65-.01,1.31-.01,1.96.08,21.98,3.08,43.84,27.54,43.84h358.27c24.46,0,27.46-21.86,27.53-43.84,0-.66,0-1.33,0-1.98-.19,21.57-3.52,42.64-27.53,42.64Z"/>
        <path class="cls-17" d="M428.17,77.54H85.53c-21.11,0-24.96-15.18-25.44-31.48-.04,1.22-.06,2.45-.05,3.67.06,17.57,2.84,35.04,25.49,35.04h342.64c22.66,0,25.44-17.47,25.5-35.04,0-1.22-.01-2.45-.06-3.67-.48,16.3-4.32,31.48-25.44,31.48Z"/>
        <path class="cls-12" d="M428.17,78.2H85.53c-21.11,0-24.96-15.18-25.44-31.48-.03.95-.05,1.91-.05,2.86v.15c0,17.56,2.84,35.04,25.49,35.04h342.64c22.66,0,25.43-17.47,25.5-35.04v-.15c0-.95-.02-1.9-.06-2.86-.48,16.3-4.32,31.48-25.44,31.48Z"/>
        <path class="cls-1" d="M62.05,60.93c2.76,9.61,9.14,16.61,23.48,16.61h342.64c14.9,0,21.2-7.55,23.79-17.72-102.49,10.35-332.22,11.26-389.91,1.11Z"/>
        <path class="cls-17" d="M432.19,14.32c-1.27-.16-2.61-.24-4.02-.24H85.53c-1.4,0-2.74.08-4.01.24-16.21,2.01-20.88,16.45-21.43,31.74.02.53.04,1.06.06,1.59.84-15.98,6.44-30.65,25.38-30.65h342.64c18.95,0,24.55,14.67,25.39,30.65.02-.53.04-1.06.05-1.59-.54-15.29-5.22-29.73-21.42-31.74Z"/>
        <path class="cls-12" d="M429.72,22.15H137.86c-12.84,0-15.7,12.73-15.65,25.38.04,12.51,1.74,24.95,15.65,24.95h291.86c13.9,0,15.61-12.44,15.65-24.95.04-12.65-2.82-25.38-15.65-25.38Z"/>
        <path class="cls-17" d="M429.72,25.01H137.86c-12.84,0-15.7,12-15.65,23.94.04,11.79,1.74,23.53,15.65,23.53h291.86c13.9,0,15.61-11.74,15.65-23.53.04-11.93-2.82-23.94-15.65-23.94Z"/>
        <path class="cls-1" d="M429.72,25.01H137.86c-12.84,0-15.7,11.34-15.65,22.62.04,11.15,1.74,22.24,15.65,22.24h291.86c13.9,0,15.61-11.09,15.65-22.24.04-11.27-2.82-22.62-15.65-22.62Z"/>
      </g>
      <g id="g6482">
        <path class="cls-8" d="M341.95,27.93h-202.81c-10.82,0-12.02,8.11-12.02,19.59,0,10.78,1.43,19.6,12.02,19.6h202.81c10.58,0,12.02-8.82,12.02-19.6,0-11.48-1.19-19.59-12.02-19.59Z"/>
        <path class="cls-10" d="M341.95,29.04h-202.81c-9.76,0-11.69,6.59-11.97,16.31.3,9.4,2.37,16.67,11.97,16.67h202.81c9.6,0,11.67-7.27,11.97-16.67-.28-9.72-2.22-16.31-11.97-16.31Z"/>
        <path class="cls-15" d="M341.95,27.93h-202.81c-9.76,0-11.69,6.59-11.97,16.31.3,9.4,2.37,16.67,11.97,16.67h202.81c9.6,0,11.67-7.27,11.97-16.67-.28-9.72-2.22-16.31-11.97-16.31Z"/>
        <path class="cls-2" d="M341.95,33.35h-202.81c-9.76,0-11.69,4.43-11.97,10.95.3,6.31,2.37,11.18,11.97,11.18h202.81c9.6,0,11.67-4.87,11.97-11.18-.28-6.52-2.22-10.95-11.97-10.95Z"/>
        <path class="cls-10" d="M341.95,27.93h-202.81c-9.76,0-11.69,6.59-11.97,16.31.04-.72.09-1.42.17-2.09.66-5.32,3.16-8.8,11.81-8.8h202.81c8.64,0,11.15,3.48,11.81,8.8.08.67.13,1.37.17,2.09-.28-9.72-2.22-16.31-11.97-16.31Z"/>
      </g>
    </g>
    <g>
      <path class="cls-18" d="M107.1,75.36V14.43c-.01-5.18-4.24-9.42-9.45-9.43H18.33c-5.19.02-9.42,4.25-9.43,9.45v60.91l-6.9,17.24v6.33c0,4.26,3.46,7.72,7.72,7.72h96.55c4.26,0,7.72-3.46,7.72-7.72v-6.33l-6.9-17.24Z"/>
      <path class="cls-3" d="M105.1,70.36V9.43c-.01-5.18-4.24-9.42-9.45-9.43H16.33C11.14.02,6.91,4.25,6.9,9.45v60.91L0,87.6v6.33c0,4.26,3.46,7.72,7.72,7.72h96.55c4.26,0,7.72-3.46,7.72-7.72v-6.33l-6.9-17.24Z"/>
      <path class="cls-4" d="M12.9,74.97V9.45c0-1.9,1.55-3.44,3.45-3.45h79.31c1.9,0,3.44,1.55,3.45,3.45v65.52H12.9Z"/>
      <path class="cls-14" d="M106,88.76v5.17c0,.95-.77,1.72-1.72,1.72H7.72c-.95,0-1.72-.77-1.72-1.72v-5.17l6.9-17.24h86.21l6.9,17.24Z"/>
      <path class="cls-6" d="M106,88.76v5.17c0,.95-.77,1.72-1.72,1.72H7.72c-.95,0-1.72-.77-1.72-1.72v-5.17h100Z"/>
      <path class="cls-13" d="M82.33,12.9h8.16c.95,0,1.72.77,1.72,1.72v48.28c0,.95-.77,1.72-1.72,1.72H21.52c-.95,0-1.72-.77-1.72-1.72V14.62c0-.95.77-1.72,1.72-1.72h60.81Z"/>
      <path class="cls-7" d="M37.03,88.76l3.02-7.54c.26-.65.9-1.08,1.6-1.08h28.7c.7,0,1.34.43,1.6,1.08l3.02,7.54h-37.93Z"/>
      <g>
        <path class="cls-3" d="M30.14,30.14c.95,0,1.72-.77,1.72-1.72,0-.46-.18-.9-.5-1.22l-2.23-2.23,2.23-2.23c.66-.68.64-1.78-.04-2.44-.67-.65-1.73-.65-2.4,0l-3.45,3.45c-.67.67-.67,1.76,0,2.44l3.45,3.45c.32.32.76.51,1.22.51h0Z"/>
        <path class="cls-3" d="M46.16,29.63c.67.67,1.76.67,2.44,0l3.45-3.45c.67-.67.67-1.76,0-2.44l-3.45-3.45c-.68-.66-1.78-.64-2.44.04-.65.67-.65,1.73,0,2.4l2.23,2.23-2.23,2.23c-.67.67-.67,1.76,0,2.44Z"/>
        <path class="cls-3" d="M36.26,29.97c.85.43,1.89.08,2.31-.77,0,0,0,0,0,0l3.45-6.9c.43-.85.08-1.89-.77-2.31-.85-.43-1.89-.08-2.31.77l-3.45,6.9c-.43.85-.08,1.89.77,2.31,0,0,0,0,0,0h0Z"/>
      </g>
      <path class="cls-9" d="M35.31,35.31c0-.95-.77-1.72-1.72-1.72h-5.17c-.95,0-1.72.77-1.72,1.72s.77,1.72,1.72,1.72h5.17c.95,0,1.72-.77,1.72-1.72Z"/>
      <path class="cls-11" d="M38.76,35.31c0,.95.77,1.72,1.72,1.72h13.79c.95,0,1.72-.77,1.72-1.72s-.77-1.72-1.72-1.72h-13.79c-.95,0-1.72.77-1.72,1.72Z"/>
      <path class="cls-9" d="M47.38,42.21c0-.95-.77-1.72-1.72-1.72h-13.79c-.95,0-1.72.77-1.72,1.72s.77,1.72,1.72,1.72h13.79c.95,0,1.72-.77,1.72-1.72Z"/>
      <path class="cls-9" d="M31.86,47.38c-.95,0-1.72.77-1.72,1.72s.77,1.72,1.72,1.72h8.62c.95,0,1.72-.77,1.72-1.72s-.77-1.72-1.72-1.72h-8.62Z"/>
      <path class="cls-16" d="M74.97,50.83h5.17c.95,0,1.72-.77,1.72-1.72s-.77-1.72-1.72-1.72h-5.17c-.95,0-1.72.77-1.72,1.72s.77,1.72,1.72,1.72Z"/>
      <path class="cls-11" d="M45.65,49.1c0,.95.77,1.72,1.72,1.72h20.69c.95,0,1.72-.77,1.72-1.72s-.77-1.72-1.72-1.72h-20.69c-.95,0-1.72.77-1.72,1.72Z"/>
      <path class="cls-9" d="M35.31,54.28h-3.45c-.95,0-1.72.77-1.72,1.72s.77,1.72,1.72,1.72h3.45c.95,0,1.72-.77,1.72-1.72s-.77-1.72-1.72-1.72Z"/>
      <path class="cls-16" d="M80.14,54.28h-18.97c-.95,0-1.72.77-1.72,1.72s.77,1.72,1.72,1.72h18.97c.95,0,1.72-.77,1.72-1.72s-.77-1.72-1.72-1.72Z"/>
      <path class="cls-11" d="M54.28,54.28h-12.07c-.95,0-1.72.77-1.72,1.72s.77,1.72,1.72,1.72h12.07c.95,0,1.72-.77,1.72-1.72s-.77-1.72-1.72-1.72Z"/>
    </g>
  </g>
</svg>