<?xml version="1.0" encoding="UTF-8"?>
<svg id="Layer_2" data-name="Layer 2" xmlns="http://www.w3.org/2000/svg" viewBox="0 0 462.52 116.14">
  <defs>
    <style>
      .cls-1 {
        fill: #ffb700;
      }

      .cls-2 {
        fill: #00b1dd;
      }

      .cls-3 {
        fill: #fff2c8;
      }

      .cls-4 {
        fill: #e56353;
      }

      .cls-5 {
        fill: #bfb100;
      }

      .cls-6 {
        fill: #fff;
      }

      .cls-7 {
        fill: #fec230;
      }

      .cls-8 {
        fill: #fcd462;
      }

      .cls-9 {
        fill: #64e0c4;
      }

      .cls-10 {
        fill: #7f7600;
      }

      .cls-11 {
        fill: #d49800;
      }

      .cls-12 {
        fill: #f2da3c;
      }

      .cls-13 {
        fill: #ffe558;
      }

      .cls-14 {
        fill: #e6e6e6;
      }
    </style>
  </defs>
  <g id="Contribute">
    <g>
      <g id="g6356">
        <path d="M434.99,22.21H76.72c-22.58,0-27.61,22.36-27.54,44.6.08,21.99,3.08,43.85,27.54,43.85h358.27c24.46,0,27.46-21.87,27.53-43.85.08-22.24-4.95-44.6-27.53-44.6Z"/>
        <path class="cls-6" d="M434.99,17.83H76.72c-22.58,0-27.61,22.37-27.54,44.61.08,21.98,3.08,43.84,27.54,43.84h358.27c24.46,0,27.46-21.86,27.53-43.84.08-22.24-4.95-44.61-27.53-44.61Z"/>
        <path class="cls-7" d="M427.18,24.14H84.53c-20.9,0-25.56,17.87-25.49,35.64.07,17.57,2.84,35.04,25.49,35.04h342.65c22.65,0,25.42-17.47,25.49-35.04.07-17.76-4.59-35.64-25.49-35.64Z"/>
        <path class="cls-14" d="M434.99,103.1H76.72c-24.01,0-27.34-21.07-27.53-42.65v.02c-.01.66-.01,1.32-.01,1.97.08,21.98,3.08,43.84,27.54,43.84h358.27c24.46,0,27.46-21.86,27.53-43.84,0-.66,0-1.33,0-1.99-.19,21.58-3.52,42.65-27.53,42.65Z"/>
        <path class="cls-13" d="M427.17,87.6H84.53c-21.11,0-24.96-15.19-25.44-31.48-.04,1.22-.06,2.45-.05,3.66.06,17.58,2.84,35.04,25.49,35.04h342.64c22.66,0,25.44-17.46,25.5-35.04,0-1.21-.01-2.44-.06-3.66-.48,16.29-4.32,31.48-25.44,31.48Z"/>
        <path class="cls-11" d="M427.17,88.26H84.53c-21.11,0-24.96-15.19-25.44-31.48-.03.95-.05,1.91-.05,2.86v.14c0,17.57,2.84,35.04,25.49,35.04h342.64c22.66,0,25.43-17.46,25.5-35.04v-.14c0-.95-.02-1.91-.06-2.86-.48,16.29-4.32,31.48-25.44,31.48Z"/>
        <path class="cls-1" d="M61.05,70.99c2.76,9.6,9.14,16.61,23.48,16.61h342.64c14.9,0,21.2-7.56,23.79-17.72-102.49,10.35-332.22,11.25-389.91,1.11Z"/>
        <path class="cls-13" d="M431.19,24.38c-1.27-.16-2.61-.24-4.02-.24H84.53c-1.4,0-2.74.08-4.01.24-16.21,2.01-20.88,16.45-21.43,31.74.02.53.04,1.06.06,1.59.84-15.98,6.44-30.65,25.38-30.65h342.64c18.95,0,24.55,14.67,25.39,30.65.02-.53.04-1.06.05-1.59-.54-15.29-5.22-29.73-21.42-31.74Z"/>
        <path class="cls-11" d="M428.72,32.21H136.86c-12.84,0-15.7,12.73-15.65,25.38.04,12.51,1.74,24.95,15.65,24.95h291.86c13.9,0,15.61-12.44,15.65-24.95.04-12.65-2.82-25.38-15.65-25.38Z"/>
        <path class="cls-13" d="M428.72,35.07H136.86c-12.84,0-15.7,12-15.65,23.93.04,11.8,1.74,23.54,15.65,23.54h291.86c13.9,0,15.61-11.74,15.65-23.54.04-11.93-2.82-23.93-15.65-23.93Z"/>
        <path class="cls-1" d="M428.72,35.07H136.86c-12.84,0-15.7,11.34-15.65,22.62.04,11.15,1.74,22.24,15.65,22.24h291.86c13.9,0,15.61-11.09,15.65-22.24.04-11.28-2.82-22.62-15.65-22.62Z"/>
      </g>
      <g id="g6470">
        <path class="cls-10" d="M422.85,36.89H142.72c-14.95,0-16.6,8.12-16.6,19.6,0,10.78,1.98,19.6,16.6,19.6h280.13c14.62,0,16.6-8.82,16.6-19.6,0-11.48-1.65-19.6-16.6-19.6Z"/>
        <path class="cls-3" d="M422.85,38H142.72c-13.48,0-16.15,6.6-16.54,16.32.41,9.4,3.27,16.66,16.54,16.66h280.13c13.26,0,16.12-7.26,16.54-16.66-.39-9.72-3.06-16.32-16.54-16.32Z"/>
        <path class="cls-5" d="M422.85,36.89H142.72c-13.48,0-16.15,6.6-16.54,16.32.41,9.4,3.27,16.66,16.54,16.66h280.13c13.26,0,16.12-7.26,16.54-16.66-.39-9.72-3.06-16.32-16.54-16.32Z"/>
        <path class="cls-12" d="M422.85,42.32H142.72c-13.48,0-16.15,4.42-16.54,10.94.41,6.31,3.27,11.19,16.54,11.19h280.13c13.26,0,16.12-4.88,16.54-11.19-.39-6.52-3.06-10.94-16.54-10.94Z"/>
        <path class="cls-3" d="M422.85,36.89H142.72c-13.48,0-16.15,6.6-16.54,16.32.05-.73.12-1.42.23-2.09.91-5.33,4.37-8.8,16.31-8.8h280.13c11.94,0,15.4,3.47,16.31,8.8.11.67.18,1.36.23,2.09-.39-9.72-3.06-16.32-16.54-16.32Z"/>
      </g>
    </g>
    <g>
      <g>
        <path class="cls-14" d="M89.32,70.02c-4.1,0-7.93-2.29-9.82-5.85l-15.01,4.58-11.12-36.98.04.02-4.37-14.54,42.32-12.9c.86-.25,1.74-.37,2.63-.37,4.13,0,7.66,2.66,8.79,6.62l12.68,42.65-15.03,4.59c.2,2.6-.51,5.22-2.05,7.42-1.93,2.76-4.96,4.48-8.3,4.73-.29.02-.52.03-.75.03h0Z"/>
        <path class="cls-14" d="M2,74.26V29.76c0-5.19,4.01-9.25,9.12-9.25h44.12v15.85c2.46.5,4.7,1.83,6.34,3.81,2.17,2.61,3.06,6.05,2.43,9.43l-.03.18-.04.18c-1.07,4.28-4.35,7.44-8.57,8.29v16.01H2Z"/>
        <path class="cls-14" d="M43.25,116.14v-15.98c-2.52-.51-4.78-1.89-6.43-3.94-2.14-2.67-2.93-6.13-2.18-9.51l.04-.15c1.07-4.28,4.35-7.44,8.57-8.29v-16.01h53.25v44.62c0,5.19-4.01,9.25-9.12,9.25h-44.12Z"/>
        <path class="cls-14" d="M11.12,116.01c-5.03,0-9.12-4.15-9.12-9.25v-44.5h15.6c1.05-5.06,5.56-8.88,10.94-8.88.8,0,1.61.09,2.41.26,4.32.85,7.65,4.22,8.54,8.63h15.76v53.75s-44.12,0-44.12,0Z"/>
      </g>
      <g>
        <path class="cls-6" d="M87.32,66.02c-4.1,0-7.93-2.29-9.82-5.85l-15.01,4.58-11.12-36.98.04.02-4.37-14.54L89.35.37c.86-.25,1.74-.37,2.63-.37,4.13,0,7.66,2.66,8.79,6.62l12.68,42.65-15.03,4.59c.2,2.6-.51,5.22-2.05,7.42-1.93,2.76-4.96,4.48-8.3,4.73-.29.02-.52.03-.75.03h0Z"/>
        <path class="cls-6" d="M0,70.26V25.76c0-5.19,4.01-9.25,9.12-9.25h44.12v15.85c2.46.5,4.7,1.83,6.34,3.81,2.17,2.61,3.06,6.05,2.43,9.43l-.03.18-.04.18c-1.07,4.28-4.35,7.44-8.57,8.29v16.01H0Z"/>
        <path class="cls-6" d="M41.25,112.14v-15.98c-2.52-.51-4.78-1.89-6.43-3.94-2.14-2.67-2.93-6.13-2.18-9.51l.04-.15c1.07-4.28,4.35-7.44,8.57-8.29v-16.01h53.25v44.62c0,5.19-4.01,9.25-9.12,9.25h-44.12Z"/>
        <path class="cls-6" d="M9.12,112.01c-5.03,0-9.12-4.15-9.12-9.25v-44.5h15.6c1.05-5.06,5.56-8.88,10.94-8.88.8,0,1.61.09,2.41.26,4.32.85,7.65,4.22,8.54,8.63h15.76v53.75s-44.12,0-44.12,0Z"/>
      </g>
      <g>
        <path class="cls-8" d="M89.62,50.26l16.37-5-11-37c-.5-1.75-2.25-2.62-4-2.13l-36.5,11.13,5,16.63c.63-1.25,1.75-2.25,3.13-2.62,3.13-1,6.38,1.25,6.63,4.62.12,2-1,4-2.75,4.88-1.75.87-3.5.75-5-.12l5,16.63,16.37-5c-.87,1.5-1,3.38-.12,5,.87,1.75,2.87,2.87,4.88,2.75,3.38-.25,5.5-3.62,4.62-6.75-.37-1.38-1.38-2.5-2.63-3Z"/>
        <path class="cls-9" d="M51,38.14c-1.5,0-2.75.63-3.75,1.63v-17.25H9.12c-1.75,0-3.13,1.38-3.13,3.25v38.5h17.12c-1-1-1.63-2.25-1.63-3.75,0-3.25,3-5.88,6.38-5,1.87.5,3.5,2.13,3.88,4,.37,1.87-.25,3.62-1.5,4.75h17.12v-17.37c1.12,1.25,2.87,1.87,4.75,1.5,2-.37,3.5-1.87,4-3.88.63-3.37-1.87-6.37-5.12-6.37Z"/>
        <path class="cls-4" d="M71.37,64.26c1.25,1.12,1.87,2.87,1.5,4.75-.37,2-1.87,3.62-3.88,4-3.38.75-6.38-1.75-6.38-5,0-1.5.63-2.87,1.63-3.75h-17v17.37c-1.12-1.25-2.87-1.87-4.75-1.5-2,.37-3.5,1.87-4,3.88-.75,3.38,1.75,6.38,5,6.38,1.5,0,2.75-.63,3.75-1.63v17.37h38.12c1.75,0,3.13-1.38,3.13-3.25v-38.62h-17.12Z"/>
        <path class="cls-2" d="M42.5,80.01c1.87-.37,3.62.37,4.75,1.5v-17.25h-17.12c1.25-1.12,1.87-2.87,1.5-4.75-.37-2-1.87-3.62-3.88-4-3.38-.75-6.38,1.75-6.38,5,0,1.5.63,2.87,1.63,3.75H6v38.5c0,1.75,1.38,3.25,3.13,3.25h38.13v-17.37c-.87,1-2.25,1.63-3.75,1.63-3.25,0-5.75-3-5-6.38.5-1.88,2.12-3.5,4-3.88Z"/>
      </g>
    </g>
  </g>
</svg>