<?xml version="1.0" encoding="UTF-8"?>
<svg id="Layer_2" data-name="Layer 2" xmlns="http://www.w3.org/2000/svg" viewBox="0 0 34.49 41">
  <defs>
    <style>
      .cls-1 {
        fill: #82c822;
      }

      .cls-2 {
        fill: #fff;
      }

      .cls-3 {
        fill: #f2f2f2;
        opacity: .5;
      }
    </style>
  </defs>
  <g id="Layer_6" data-name="Layer 6">
    <g>
      <path class="cls-1" d="M34.49,8.98v18.04c0,2.94-1.75,5.41-4.16,6.35v-17.17c0-5.21-3.93-9.47-8.73-9.47h-12.51c.87-2.62,3.14-4.51,5.86-4.51h13.31c3.44,0,6.24,3.03,6.24,6.76ZM13.27,14.84h3.33c1.15,0,2.08-1.01,2.08-2.25v-3.16h-7.49v3.16c0,1.24.93,2.25,2.08,2.25ZM27.83,16.2v18.04c0,3.73-2.8,6.76-6.24,6.76h-13.31c-3.44,0-6.24-3.03-6.24-6.76v-18.04c0-3.73,2.8-6.76,6.24-6.76h.42v3.16c0,2.74,2.05,4.96,4.58,4.96h3.33c2.53,0,4.58-2.22,4.58-4.96v-3.16h.42c3.44,0,6.24,3.03,6.24,6.76ZM21.18,32.43c0-.74-.57-1.35-1.25-1.35h-9.98c-.68,0-1.25.61-1.25,1.35s.57,1.35,1.25,1.35h9.98c.68,0,1.25-.61,1.25-1.35ZM21.18,25.22c0-.74-.57-1.35-1.25-1.35h-9.98c-.68,0-1.25.61-1.25,1.35s.57,1.35,1.25,1.35h9.98c.68,0,1.25-.61,1.25-1.35Z"/>
      <path class="cls-3" d="M32.44,6.76v18.04c0,2.94-1.75,5.41-4.16,6.35V13.98c0-5.21-3.93-9.47-8.73-9.47H7.04C7.9,1.89,10.18,0,12.89,0h13.31c3.44,0,6.24,3.03,6.24,6.76ZM11.23,12.63h3.33c1.15,0,2.08-1.01,2.08-2.25v-3.16h-7.49v3.16c0,1.24.93,2.25,2.08,2.25ZM25.79,13.98v18.04c0,3.73-2.8,6.76-6.24,6.76H6.24c-3.44,0-6.24-3.03-6.24-6.76V13.98c0-3.73,2.8-6.76,6.24-6.76h.42v3.16c0,2.74,2.05,4.96,4.58,4.96h3.33c2.53,0,4.58-2.22,4.58-4.96v-3.16h.42c3.44,0,6.24,3.03,6.24,6.76ZM19.13,30.22c0-.74-.57-1.35-1.25-1.35H7.9c-.68,0-1.25.61-1.25,1.35s.57,1.35,1.25,1.35h9.98c.68,0,1.25-.61,1.25-1.35ZM19.13,23c0-.74-.57-1.35-1.25-1.35H7.9c-.68,0-1.25.61-1.25,1.35s.57,1.35,1.25,1.35h9.98c.68,0,1.25-.61,1.25-1.35Z"/>
      <path class="cls-2" d="M33.46,7.87v18.04c0,2.94-1.75,5.41-4.16,6.35V15.09c0-5.21-3.93-9.47-8.73-9.47h-12.51c.87-2.62,3.14-4.51,5.86-4.51h13.31c3.44,0,6.24,3.03,6.24,6.76ZM12.25,13.74h3.33c1.15,0,2.08-1.01,2.08-2.25v-3.16h-7.49v3.16c0,1.24.93,2.25,2.08,2.25ZM26.81,15.09v18.04c0,3.73-2.8,6.76-6.24,6.76H7.26c-3.44,0-6.24-3.03-6.24-6.76V15.09c0-3.73,2.8-6.76,6.24-6.76h.42v3.16c0,2.74,2.05,4.96,4.58,4.96h3.33c2.53,0,4.58-2.22,4.58-4.96v-3.16h.42c3.44,0,6.24,3.03,6.24,6.76ZM20.15,31.32c0-.74-.57-1.35-1.25-1.35h-9.98c-.68,0-1.25.61-1.25,1.35s.57,1.35,1.25,1.35h9.98c.68,0,1.25-.61,1.25-1.35ZM20.15,24.11c0-.74-.57-1.35-1.25-1.35h-9.98c-.68,0-1.25.61-1.25,1.35s.57,1.35,1.25,1.35h9.98c.68,0,1.25-.61,1.25-1.35Z"/>
    </g>
  </g>
</svg>