<?xml version="1.0" encoding="UTF-8"?>
<svg id="Layer_2" data-name="Layer 2" xmlns="http://www.w3.org/2000/svg" viewBox="0 0 162.59 171.18">
  <defs>
    <style>
      .cls-1 {
        fill: #82c822;
      }

      .cls-2 {
        fill: #e1f6c6;
      }

      .cls-3 {
        fill: #94dd2f;
      }

      .cls-4 {
        fill: #fff;
      }

      .cls-5 {
        fill: #a5e24d;
      }

      .cls-6 {
        fill: #c0eb85;
      }

      .cls-7 {
        fill: #e6e6e6;
      }
    </style>
  </defs>
  <g id="Layer_6" data-name="Layer 6">
    <g id="g1852">
      <g id="g1840">
        <path d="M17.46,24.11c-23.23,23.11-23.3,106.76-.11,129.9,22.92,22.89,104.96,22.89,127.89,0,23.18-23.14,23.11-106.79-.11-129.9C121.69.78,40.9.78,17.46,24.11Z"/>
        <path class="cls-4" d="M17.46,17.5c-23.23,23.11-23.3,106.76-.11,129.9,22.92,22.89,104.96,22.89,127.89,0,23.18-23.14,23.11-106.79-.11-129.9-23.44-23.33-104.23-23.33-127.67,0Z"/>
        <path class="cls-5" d="M23.46,19.49c-21.05,20.94-21.11,96.73-.1,117.7,20.77,20.73,95.1,20.73,115.87,0,21-20.97,20.94-96.76-.1-117.7C117.89-1.64,44.7-1.64,23.46,19.49Z"/>
        <path class="cls-1" d="M139.23,121.34c-20.77,20.74-95.1,20.74-115.87,0-9.34-9.32-14.51-29.45-15.53-50.8-1.28,26.61,3.89,55.04,15.53,66.65,20.77,20.73,95.1,20.73,115.87,0,11.63-11.61,16.8-40.04,15.53-66.65-1.02,21.35-6.2,41.48-15.53,50.8Z"/>
        <path class="cls-3" d="M16.73,111.66c1.91,3.89,4.12,7.18,6.63,9.68,20.77,20.74,95.1,20.74,115.87,0,8.01-8,12.96-23.98,14.85-41.86-38.98,28.63-84.86,39.12-137.35,32.18Z"/>
        <path class="cls-6" d="M23.46,19.49c-6.31,6.28-10.73,17.48-13.27,30.66C46.61,12.3,119.62,6.25,150.53,42.08c-2.63-9.63-6.43-17.64-11.4-22.59C117.89-1.64,44.7-1.64,23.46,19.49Z"/>
        <path class="cls-2" d="M40.04,14.43c-8.94,2.54-16.18,8.7-16.18,13.78s7.24,7.12,16.18,4.58c8.94-2.53,16.18-8.69,16.18-13.76s-7.24-7.13-16.18-4.6Z"/>
        <path class="cls-2" d="M66.86,7.58c-5.04.31-9.59,2.75-10.18,5.44-.58,2.69,3.02,4.62,8.06,4.31,5.04-.32,9.59-2.75,10.18-5.45.59-2.69-3.02-4.61-8.06-4.3Z"/>
        <path class="cls-2" d="M128.54,109.96c-5.64,2.74-9.73,7.7-9.14,11.07.6,3.37,5.66,3.88,11.31,1.14,5.64-2.74,9.73-7.69,9.14-11.06-.6-3.38-5.66-3.89-11.31-1.15Z"/>
        <path class="cls-6" d="M154.08,79.48c-1.89,17.88-6.84,33.86-14.85,41.86-20.77,20.74-95.1,20.74-115.87,0-2.51-2.5-4.72-5.79-6.63-9.68-5.19-10.55-8.16-25.51-8.9-41.12-.15,3.11-.21,6.24-.19,9.36.02-2.15.08-4.31.19-6.45,1.02,21.34,6.19,41.48,15.53,50.8,20.77,20.73,95.1,20.73,115.87,0,9.33-9.32,14.51-29.46,15.53-50.8.1,2.14.16,4.3.18,6.46.03-3.12-.03-6.26-.18-9.37-.15,3.02-.37,6-.68,8.94Z"/>
        <path class="cls-7" d="M145.24,143.84c-22.93,22.88-104.97,22.88-127.89,0C6.04,132.55.26,106.85.01,80.81c-.27,27.23,5.51,54.79,17.34,66.6,22.93,22.88,104.96,22.88,127.89,0,11.82-11.81,17.6-39.37,17.34-66.6-.25,26.04-6.03,51.74-17.34,63.03Z"/>
      </g>
      <g>
        <g>
          <path class="cls-1" d="M43.73,114.19c-2.45,0-4.44-2.04-4.44-4.54v-43.5c0-2.5,1.99-4.54,4.44-4.54h49.14l1.96.76,6.98,19.36c.78,2.17,2.78,3.62,4.97,3.62.55,0,1.04-.08,1.51-.24l2.6-.83v25.35c0,2.5-1.99,4.54-4.44,4.54h-62.73ZM54.19,79.21c-.24,0-.44.25-.44.54v16.31c0,.29.2.54.44.54h7.84c5.65-.22,8.22-4.53,8.22-8.7,0-4.17-2.57-8.47-8.29-8.69h-7.77ZM95.57,96.06c.01.34.15.52.44.52s.43-.18.44-.59v-16.24c0-.23-.12-.43-.3-.51-.05-.02-.09-.03-.14-.03-.1,0-.2.05-.28.13l-7.56,7.86-7.56-7.86c-.08-.08-.18-.13-.28-.13-.05,0-.1.01-.14.03-.18.08-.3.28-.3.51v16.31c.01.34.15.52.44.52s.43-.18.44-.59v-15.08s7.12,7.4,7.12,7.4c.11.12.25.12.28.12s.18,0,.26-.09l7.15-7.43v15.15Z"/>
          <path class="cls-1" d="M54.63,95.52v-15.24h7.4c4.86.18,7.36,3.96,7.36,7.61,0,3.65-2.5,7.44-7.29,7.62h-.04s-7.44,0-7.44,0Z"/>
          <path class="cls-1" d="M76.45,54.08c-1.75-.68-2.87-2.36-2.85-4.29.02-1.92,1.17-3.58,2.93-4.23l43.91-16.12,2.13,3.26-27.52,28.63-18.61-7.26Z"/>
          <path class="cls-1" d="M106.79,84.29c-1.85,0-3.53-1.19-4.17-2.97l-6.93-19.23,27.46-28.56,3.33,2.03-15.5,45.67c-.61,1.8-2.28,3.03-4.15,3.05h-.04Z"/>
        </g>
        <path class="cls-4" d="M106.79,87.36c-3.03,0-5.79-1.99-6.85-4.94l-6.67-18.51-.76-.3h-48.77c-1.35,0-2.44,1.14-2.44,2.54v43.5c0,1.4,1.09,2.54,2.44,2.54h62.73c1.35,0,2.44-1.14,2.44-2.54v-22.62c-.65.21-1.33.32-2.04.33-.03,0-.05,0-.08,0h0ZM62.03,98.6h-7.84c-1.35,0-2.44-1.14-2.44-2.54v-16.31c0-1.4,1.09-2.54,2.44-2.54h7.84c13.62.51,13.62,20.87,0,21.39h0ZM98.45,96.06c-.12,3.36-4.76,3.36-4.88,0v-10.18l-3.68,3.82c-.91.98-2.54.98-3.45,0l-3.68-3.82v10.18c-.12,3.36-4.76,3.36-4.88,0v-16.31c0-1.03.59-1.95,1.51-2.34.91-.39,1.96-.18,2.66.55l6.12,6.36,6.12-6.36c.7-.73,1.75-.94,2.66-.55.91.39,1.51,1.32,1.51,2.34v16.31h0Z"/>
        <path class="cls-4" d="M62.03,82.29h-5.4v11.24h5.4c7.16-.28,7.15-10.97,0-11.24Z"/>
        <path class="cls-4" d="M77.18,52.22l17.36,6.77,26.6-27.66-43.91,16.12c-2.13.78-2.16,3.95-.04,4.77h0Z"/>
        <path class="cls-4" d="M97.99,62.58l6.51,18.06c.36,1,1.28,1.66,2.31,1.65,1.03-.01,1.94-.69,2.28-1.69l15.5-45.67-26.6,27.66Z"/>
      </g>
    </g>
  </g>
</svg>