<?xml version="1.0" encoding="UTF-8"?>
<svg id="Layer_2" data-name="Layer 2" xmlns="http://www.w3.org/2000/svg" viewBox="0 0 162.59 171.18">
  <defs>
    <style>
      .cls-1 {
        fill: #82c822;
      }

      .cls-2 {
        fill: #e1f6c6;
      }

      .cls-3 {
        fill: #94dd2f;
      }

      .cls-4 {
        fill: #fff;
      }

      .cls-5 {
        fill: #a5e24d;
      }

      .cls-6 {
        fill: #c0eb85;
      }

      .cls-7 {
        fill: #e6e6e6;
      }
    </style>
  </defs>
  <g id="Layer_6" data-name="Layer 6">
    <g id="g1852">
      <g id="g1840">
        <path d="M17.46,24.11c-23.23,23.11-23.3,106.76-.11,129.9,22.92,22.89,104.96,22.89,127.89,0,23.18-23.14,23.11-106.79-.11-129.9C121.69.78,40.9.78,17.46,24.11Z"/>
        <path class="cls-4" d="M17.46,17.5c-23.23,23.11-23.3,106.76-.11,129.9,22.92,22.89,104.96,22.89,127.89,0,23.18-23.14,23.11-106.79-.11-129.9-23.44-23.33-104.23-23.33-127.67,0Z"/>
        <path class="cls-5" d="M23.46,19.49c-21.05,20.94-21.11,96.73-.1,117.7,20.77,20.73,95.1,20.73,115.87,0,21-20.97,20.94-96.76-.1-117.7C117.89-1.64,44.7-1.64,23.46,19.49Z"/>
        <path class="cls-1" d="M139.23,121.34c-20.77,20.74-95.1,20.74-115.87,0-9.34-9.32-14.51-29.45-15.53-50.8-1.28,26.61,3.89,55.04,15.53,66.65,20.77,20.73,95.1,20.73,115.87,0,11.63-11.61,16.8-40.04,15.53-66.65-1.02,21.35-6.2,41.48-15.53,50.8Z"/>
        <path class="cls-3" d="M16.73,111.66c1.91,3.89,4.12,7.18,6.63,9.68,20.77,20.74,95.1,20.74,115.87,0,8.01-8,12.96-23.98,14.85-41.86-38.98,28.63-84.86,39.12-137.35,32.18Z"/>
        <path class="cls-6" d="M23.46,19.49c-6.31,6.28-10.73,17.48-13.27,30.66C46.61,12.3,119.62,6.25,150.53,42.08c-2.63-9.63-6.43-17.64-11.4-22.59C117.89-1.64,44.7-1.64,23.46,19.49Z"/>
        <path class="cls-2" d="M40.04,14.43c-8.94,2.54-16.18,8.7-16.18,13.78s7.24,7.12,16.18,4.58c8.94-2.53,16.18-8.69,16.18-13.76s-7.24-7.13-16.18-4.6Z"/>
        <path class="cls-2" d="M66.86,7.58c-5.04.31-9.59,2.75-10.18,5.44-.58,2.69,3.02,4.62,8.06,4.31,5.04-.32,9.59-2.75,10.18-5.45.59-2.69-3.02-4.61-8.06-4.3Z"/>
        <path class="cls-2" d="M128.54,109.96c-5.64,2.74-9.73,7.7-9.14,11.07.6,3.37,5.66,3.88,11.31,1.14,5.64-2.74,9.73-7.69,9.14-11.06-.6-3.38-5.66-3.89-11.31-1.15Z"/>
        <path class="cls-6" d="M154.08,79.48c-1.89,17.88-6.84,33.86-14.85,41.86-20.77,20.74-95.1,20.74-115.87,0-2.51-2.5-4.72-5.79-6.63-9.68-5.19-10.55-8.16-25.51-8.9-41.12-.15,3.11-.21,6.24-.19,9.36.02-2.15.08-4.31.19-6.45,1.02,21.34,6.19,41.48,15.53,50.8,20.77,20.73,95.1,20.73,115.87,0,9.33-9.32,14.51-29.46,15.53-50.8.1,2.14.16,4.3.18,6.46.03-3.12-.03-6.26-.18-9.37-.15,3.02-.37,6-.68,8.94Z"/>
        <path class="cls-7" d="M145.24,143.84c-22.93,22.88-104.97,22.88-127.89,0C6.04,132.55.26,106.85.01,80.81c-.27,27.23,5.51,54.79,17.34,66.6,22.93,22.88,104.96,22.88,127.89,0,11.82-11.81,17.6-39.37,17.34-66.6-.25,26.04-6.03,51.74-17.34,63.03Z"/>
      </g>
      <g>
        <g>
          <path class="cls-1" d="M79.23,51.3c-2.52,0-4.56-2.05-4.56-4.56v-10.97c0-2.52,2.05-4.56,4.56-4.56s4.56,2.05,4.56,4.56v10.97c0,2.52-2.05,4.56-4.56,4.56Z"/>
          <path class="cls-1" d="M68.26,54.04c-1.22,0-2.36-.47-3.23-1.34l-5.49-5.49c-.86-.86-1.34-2.01-1.34-3.23s.48-2.36,1.34-3.23,2.01-1.34,3.23-1.34,2.36.47,3.23,1.34l5.49,5.49c1.78,1.78,1.78,4.67,0,6.45-.86.86-2.01,1.34-3.23,1.34Z"/>
          <path class="cls-1" d="M90.21,54.04c-1.22,0-2.36-.47-3.23-1.34-.86-.86-1.34-2.01-1.34-3.23s.48-2.36,1.34-3.23l5.49-5.49c.86-.86,2.01-1.34,3.23-1.34s2.36.47,3.23,1.33c1.78,1.78,1.78,4.67,0,6.45l-5.49,5.49c-.86.86-2.01,1.34-3.23,1.34Z"/>
          <path class="cls-1" d="M38.08,111.66c-2.52,0-4.56-2.05-4.56-4.56v-24.7c0-8.57,6.97-15.53,15.53-15.53h7.93c.88,0,1.72-.31,2.39-.88l11.17-9.57c.92-.74,1.99-1.13,3.12-1.13,2.76,0,5.01,2.25,5.01,5.01v9.83c0,1.46-.64,2.85-1.75,3.8l-12.34,10.57v22.6c0,2.52-2.05,4.56-4.56,4.56h-21.95Z"/>
          <path class="cls-1" d="M98.44,111.66c-2.52,0-4.56-2.05-4.56-4.56v-22.6l-12.34-10.57c-1.11-.95-1.75-2.34-1.75-3.8v-9.83c0-2.76,2.25-5.01,5.01-5.01,1.13,0,2.2.38,3.1,1.11l11.19,9.59c.66.57,1.51.88,2.39.88h7.93c8.57,0,15.53,6.97,15.53,15.53v24.7c0,2.52-2.05,4.56-4.56,4.56h-21.95Z"/>
          <path class="cls-1" d="M49.05,70.87c-7.05,0-12.79-5.74-12.79-12.79s5.74-12.79,12.79-12.79,12.79,5.74,12.79,12.79-5.74,12.79-12.79,12.79Z"/>
          <path class="cls-1" d="M109.41,70.87c-7.05,0-12.79-5.74-12.79-12.79s5.74-12.79,12.79-12.79,12.79,5.74,12.79,12.79-5.74,12.79-12.79,12.79Z"/>
        </g>
        <path class="cls-4" d="M81.79,35.76c0-1.41-1.15-2.56-2.56-2.56s-2.56,1.15-2.56,2.56v10.97c0,1.41,1.15,2.56,2.56,2.56s2.56-1.15,2.56-2.56v-10.97Z"/>
        <path class="cls-4" d="M66.45,51.29c.5.5,1.16.75,1.81.75s1.31-.25,1.81-.75c1-1,1-2.62,0-3.62l-5.49-5.49c-1-1-2.62-1-3.62,0s-1,2.62,0,3.62l5.49,5.49Z"/>
        <path class="cls-4" d="M90.21,52.04c.66,0,1.31-.25,1.81-.75l5.49-5.49c1-1,1-2.62,0-3.62s-2.62-1-3.62,0l-5.49,5.49c-1,1-1,2.62,0,3.62.5.5,1.16.75,1.81.75Z"/>
        <path class="cls-4" d="M71.82,57.95s-.05.04-.08.06l-11.07,9.49c-1.03.88-2.34,1.36-3.69,1.36h-7.93c-7.47,0-13.53,6.05-13.53,13.53v24.7c0,1.41,1.15,2.56,2.56,2.56h21.95c1.42,0,2.56-1.15,2.56-2.56v-23.52l13.03-11.17c.67-.57,1.05-1.4,1.05-2.28v-9.83c0-2.5-2.91-3.92-4.85-2.35Z"/>
        <path class="cls-4" d="M109.41,68.87h-7.93c-1.35,0-2.66-.48-3.69-1.36l-11.07-9.49s-.05-.04-.08-.06c-1.94-1.58-4.85-.15-4.85,2.35v9.83c0,.88.38,1.71,1.05,2.28l13.03,11.17v23.52c0,1.41,1.15,2.56,2.56,2.56h21.95c1.41,0,2.56-1.15,2.56-2.56v-24.7c0-7.49-6.06-13.53-13.53-13.53Z"/>
        <path class="cls-4" d="M59.84,58.07c0-5.95-4.84-10.79-10.79-10.79s-10.79,4.84-10.79,10.79,4.84,10.79,10.79,10.79,10.79-4.84,10.79-10.79Z"/>
        <path class="cls-4" d="M120.2,58.07c0-5.95-4.84-10.79-10.79-10.79s-10.79,4.84-10.79,10.79,4.84,10.79,10.79,10.79,10.79-4.84,10.79-10.79Z"/>
      </g>
    </g>
  </g>
</svg>