<?xml version="1.0" encoding="UTF-8"?>
<svg id="Layer_2" data-name="Layer 2" xmlns="http://www.w3.org/2000/svg" viewBox="0 0 74.31 75.02">
  <defs>
    <style>
      .cls-1 {
        fill: #ffae0e;
      }

      .cls-1, .cls-2, .cls-3, .cls-4, .cls-5, .cls-6, .cls-7, .cls-8, .cls-9, .cls-10, .cls-11, .cls-12, .cls-13, .cls-14, .cls-15, .cls-16 {
        fill-rule: evenodd;
      }

      .cls-2 {
        fill: #333;
        opacity: .2;
      }

      .cls-3 {
        fill: #fff;
      }

      .cls-4 {
        fill: #ffa900;
      }

      .cls-5 {
        fill: #ffb729;
      }

      .cls-6 {
        fill: #ffc24c;
      }

      .cls-7 {
        fill: none;
        stroke: #ffa900;
        stroke-miterlimit: 22.93;
        stroke-width: 1.05px;
      }

      .cls-8 {
        fill: #ffb930;
      }

      .cls-9 {
        fill: #ffc045;
      }

      .cls-10 {
        fill: #ffb015;
      }

      .cls-11 {
        fill: #e5e5e5;
      }

      .cls-12 {
        fill: #ffb423;
      }

      .cls-13 {
        fill: #ffab07;
      }

      .cls-14 {
        fill: #ffbd3e;
      }

      .cls-15 {
        fill: #ffb21c;
      }

      .cls-16 {
        fill: #ffbb37;
      }
    </style>
  </defs>
  <g id="Layer_1-2" data-name="Layer 1">
    <g>
      <g>
        <path class="cls-2" d="M42.61,1.32c-5.52-.76-9.77-.62-15.1,1.4-3.1,1.18-6.02,2.6-8.71,4.29C7.83,13.89.91,25.06.07,37.96c-.65,10.15,3.06,19.35,10.39,26.4,7.02,6.74,16.61,10.54,26.39,10.66,6.98,0,13.77-1.9,19.71-5.53,17.91-10.97,23.45-34.39,11.1-51.53-6.53-9.06-13.6-14.77-25.05-16.64Z"/>
        <path class="cls-3" d="M42.4.41c-5.3-.74-9.4-.6-14.51,1.36-2.98,1.15-5.78,2.53-8.37,4.17C8.96,12.63,2.31,23.48,1.51,36.02c-.63,9.86,2.94,18.8,9.99,25.66,6.74,6.56,15.97,10.24,25.37,10.37,6.71,0,13.24-1.85,18.95-5.38,17.22-10.67,22.54-33.42,10.67-50.08C60.21,7.78,53.41,2.23,42.4.41Z"/>
        <path class="cls-11" d="M41.5,6.65c-4.39-.65-7.78-.53-12.02,1.19-2.47,1.01-4.79,2.22-6.93,3.67-8.74,5.88-14.25,15.42-14.91,26.45-.52,8.67,2.43,16.53,8.27,22.56,5.59,5.76,13.23,9.01,21.01,9.11,5.56,0,10.96-1.62,15.69-4.73,14.26-9.38,18.67-29.38,8.84-44.03-5.2-7.74-10.83-12.62-19.95-14.22Z"/>
        <g>
          <path class="cls-4" d="M41.3,7.84c-4.19-.59-7.44-.48-11.48,1.08-7.2,2.76-13.09,7.3-16.98,14.03-3.7,6.31-5.11,15.14-2.9,22.2,1.33,4.27,3.72,8.07,6.91,11.18,5.34,5.19,12.64,8.11,20.08,8.2,15.73,0,28.51-12.75,28.51-28.52-.14-5.74-1.76-10.73-5.07-15.38-4.97-6.97-10.35-11.36-19.06-12.8Z"/>
          <g>
            <path class="cls-13" d="M41.83,11.21c-3.9-.45-7.3-.31-11.41,1.1-6.98,2.52-12.76,6.62-16.34,12.7-3.44,5.67-4.84,14.24-2.75,20.89,1.26,4.01,3.52,7.59,6.55,10.52,5.06,4.88,11.99,7.63,19.04,7.72,14.61,0,26.51-11.69,26.72-26.19.07-5.38-1.28-10.14-4.29-14.62-4.53-6.52-9.44-10.98-17.53-12.12Z"/>
            <path class="cls-1" d="M42.37,14.58c-3.6-.31-7.16-.15-11.34,1.13-6.76,2.27-12.43,5.93-15.69,11.38-3.17,5.04-4.58,13.34-2.6,19.57,1.19,3.76,3.33,7.12,6.2,9.86,4.79,4.57,11.34,7.15,18,7.23,13.49,0,24.51-10.63,24.92-23.86.29-5.02-.79-9.56-3.49-13.86-4.08-6.07-8.53-10.61-15.99-11.44Z"/>
            <path class="cls-10" d="M42.91,17.95c-3.3-.17-7.01.01-11.26,1.15-6.55,2.02-12.1,5.25-15.05,10.05-2.91,4.4-4.32,12.45-2.45,18.26,1.12,3.51,3.14,6.64,5.84,9.19,4.51,4.27,10.68,6.67,16.97,6.74,12.37,0,22.51-9.57,23.12-21.53.5-4.66-.3-8.97-2.7-13.1-3.63-5.61-7.62-10.23-14.46-10.77Z"/>
            <path class="cls-15" d="M43.44,21.32c-3-.03-6.87.18-11.19,1.18-6.33,1.78-11.77,4.57-14.4,8.72-2.64,3.76-4.05,11.55-2.3,16.94,1.06,3.25,2.95,6.16,5.48,8.53,4.24,3.96,10.03,6.19,15.93,6.26,11.25,0,20.5-8.52,21.32-19.2.72-4.31.19-8.38-1.91-12.34-3.19-5.16-6.71-9.86-12.93-10.09Z"/>
            <path class="cls-12" d="M43.98,24.68c-2.71.11-6.72.34-11.12,1.21-6.11,1.53-11.45,3.88-13.75,7.39-2.38,3.13-3.79,10.65-2.15,15.62.99,3,2.76,5.68,5.13,7.87,3.96,3.65,9.38,5.7,14.9,5.77,10.13,0,18.5-7.46,19.51-16.87.94-3.95.68-7.8-1.12-11.58-2.74-4.71-5.8-9.49-11.39-9.41Z"/>
            <path class="cls-5" d="M44.51,28.05c-2.41.25-6.58.5-11.04,1.24-5.89,1.28-11.12,3.2-13.11,6.07-2.11,2.49-3.53,9.75-2,14.31.92,2.75,2.56,5.2,4.77,7.21,3.69,3.34,8.73,5.22,13.86,5.29,9,0,16.5-6.4,17.72-14.54,1.15-3.59,1.17-7.21-.34-10.82-2.29-4.26-4.89-9.11-9.86-8.74Z"/>
            <path class="cls-8" d="M45.05,31.42c-2.11.39-6.44.67-10.97,1.26-5.68,1.04-10.79,2.51-12.46,4.74-1.85,1.85-3.26,8.86-1.85,12.99.85,2.5,2.37,4.72,4.42,6.54,3.41,3.03,8.07,4.74,12.82,4.8,7.88,0,14.5-5.34,15.92-12.22,1.37-3.23,1.66-6.62.45-10.06-1.85-3.8-3.98-8.74-8.33-8.06Z"/>
            <path class="cls-16" d="M45.58,34.79c-1.82.53-6.3.83-10.89,1.29-5.46.79-10.47,1.83-11.82,3.41-1.58,1.21-3,7.96-1.7,11.67.78,2.24,2.18,4.25,4.06,5.88,3.14,2.73,7.42,4.26,11.79,4.31,6.76,0,12.49-4.28,14.12-9.89,1.58-2.87,2.15-6.04,1.24-9.3-1.4-3.35-3.07-8.36-6.79-7.38Z"/>
            <path class="cls-14" d="M46.12,38.16c-1.52.67-6.15.99-10.82,1.32-5.24.54-10.14,1.15-11.17,2.09-1.32.58-2.73,7.06-1.55,10.36.71,1.99,1.99,3.77,3.7,5.22,2.86,2.42,6.77,3.78,10.75,3.83,5.64,0,10.49-3.23,12.32-7.56,1.8-2.51,2.64-5.45,2.03-8.54-.96-2.9-2.16-7.99-5.26-6.7Z"/>
            <path class="cls-9" d="M46.65,41.53c-1.22.8-6.01,1.15-10.75,1.34-5.03.3-9.81.46-10.52.76-1.06-.06-2.47,6.16-1.41,9.04.64,1.74,1.8,3.29,3.35,4.55,2.58,2.11,6.12,3.3,9.72,3.34,4.52,0,8.49-2.17,10.52-5.23,2.02-2.15,3.12-4.86,2.83-7.78-.51-2.45-1.26-7.61-3.73-6.03Z"/>
          </g>
          <path class="cls-6" d="M47.19,44.9c-1.85,1.89-19.76,1.5-20.55.8-.79-.7-2.21,5.27-1.25,7.73.58,1.48,1.61,2.81,2.99,3.89,2.31,1.8,5.47,2.82,8.68,2.85,6.8,0,12.33-4.44,12.33-9.92-.06-2-.35-7.24-2.2-5.35Z"/>
        </g>
        <path class="cls-6" d="M36.93,9.46c-25.96-.09-29.87,34.11-17.86,27.59,8.33-4.52,29.05-3.57,36.92,0,10.52,4.78,9.13-27.5-19.07-27.59Z"/>
        <path class="cls-6" d="M36.93,56.46c-11.14-.14-21.38-6.45-25.84-16.76-1.04-2.4-1.42-4.77-1.52-7.37-1.59,10.02,1.26,18.66,9.08,25.28,5.24,4.44,11.44,6.61,18.27,6.69,15.62,0,28.29-12.66,28.29-28.29-.01-1.37-.09-2.56-.27-3.92-2.09,14.16-13.72,24.18-28.01,24.36Z"/>
        <path class="cls-3" d="M21.64,14.65c-.54.42-1.04.81-1.56,1.26-2.18,1.88-4.47,4.26-3.75,6.59,1.38,1.43,4.44.14,5.65-.94,2.39-2.13,2.84-2.41,5.66-3.9,1.47-.78,4.06-3.89,3.1-5.69-1.04-1.43-5.12-.23-9.09,2.68Z"/>
        <path class="cls-3" d="M15.13,23.77c-1.58,0-2.85,1.26-2.85,2.82s1.28,2.83,2.85,2.83,2.86-1.27,2.86-2.83-1.28-2.82-2.86-2.82Z"/>
        <path class="cls-3" d="M52.02,52.87c-1.58,0-2.85,1.26-2.85,2.82s1.28,2.83,2.85,2.83,2.86-1.26,2.86-2.83-1.28-2.82-2.86-2.82Z"/>
      </g>
      <g>
        <g>
          <path class="cls-7" d="M37.18,37.22c3.81,0,6.9-3.09,6.9-6.9s-3.09-6.9-6.9-6.9-6.9,3.09-6.9,6.9,3.09,6.9,6.9,6.9Z"/>
          <path class="cls-7" d="M43.66,35.98h0s-.13.13-.13.13c1.01.79,2.28,1.26,3.67,1.26,3.29,0,5.96-2.67,5.96-5.96s-2.67-5.96-5.96-5.96c-.88,0-1.72.19-2.47.53.81,1.25,1.28,2.74,1.28,4.34,0,2.21-.9,4.21-2.35,5.66Z"/>
          <path class="cls-7" d="M27.11,37.37c1.39,0,2.66-.47,3.67-1.26l-.13-.13h0c-1.45-1.45-2.35-3.46-2.35-5.66,0-1.6.47-3.09,1.28-4.34-.75-.34-1.59-.53-2.47-.53-3.29,0-5.96,2.67-5.96,5.96s2.67,5.96,5.96,5.96Z"/>
          <path class="cls-7" d="M45.31,51.81c-.04-1.12-.12-2.22-.25-3.27-.69-5.72-2.78-10.41-7.76-10.41-6.58,0-8.37,6.72-8.56,14.34-.01.49-.02,1.47.83,1.47h15.02c.73,0,.76-1.03.75-1.44l-.02-.68h0Z"/>
          <path class="cls-7" d="M47.1,38.15c-1.37,0-2.49.41-3.4,1.13.73.74,1.35,1.64,1.85,2.66,1.3,2.65,1.84,6.14,1.98,9.86h6.26c.73,0,.72-.85.71-1.27-.17-6.58-1.71-12.39-7.4-12.39Z"/>
          <path class="cls-7" d="M30.61,39.29c-.91-.72-2.02-1.13-3.4-1.13-5.68,0-7.23,5.8-7.4,12.39,0,.42-.02,1.27.71,1.27h6.26c.14-3.72.68-7.21,1.98-9.86.5-1.02,1.12-1.92,1.85-2.66Z"/>
          <path class="cls-4" d="M37.18,37.22c3.14,0,5.78-2.09,6.62-4.96v-3.88c-.84-2.87-3.49-4.96-6.62-4.96s-5.85,2.14-6.65,5.06v3.69c.81,2.92,3.48,5.06,6.65,5.06Z"/>
          <path class="cls-4" d="M30.78,36.11l-.13-.13h0s-.12-.13-.12-.13v.44c.08-.06.17-.12.25-.18Z"/>
          <path class="cls-4" d="M30.53,28.48c-.16.59-.25,1.21-.25,1.84s.09,1.26.25,1.84v-3.69Z"/>
          <path class="cls-4" d="M27.11,37.37c.92,0,1.78-.21,2.56-.58v-2.01c-.86-1.28-1.37-2.82-1.37-4.47s.47-3.09,1.28-4.34c-.75-.34-1.59-.53-2.47-.53-3.29,0-5.96,2.67-5.96,5.96s2.67,5.96,5.96,5.96Z"/>
          <path class="cls-4" d="M30.53,36.3v-.44c-.32-.33-.6-.69-.86-1.07v2.01c.3-.14.59-.31.86-.5Z"/>
          <path class="cls-4" d="M44.08,30.32c0-.67-.1-1.33-.28-1.94v3.88c.18-.62.28-1.27.28-1.94Z"/>
          <path class="cls-4" d="M43.66,35.98h0s-.13.13-.13.13c.09.07.18.14.28.2v-.49l-.15.15Z"/>
          <path class="cls-4" d="M43.81,35.83v.49c.23.16.46.3.71.42v-1.77c-.22.3-.45.59-.71.86Z"/>
          <polygon class="cls-4" points="30.61 39.29 30.53 39.22 30.53 39.36 30.61 39.29"/>
          <path class="cls-4" d="M44.52,36.74c.81.41,1.72.64,2.68.64,3.29,0,5.96-2.67,5.96-5.96s-2.67-5.96-5.96-5.96c-.88,0-1.72.19-2.47.53.81,1.25,1.28,2.74,1.28,4.34,0,1.73-.55,3.34-1.49,4.65v1.77Z"/>
          <path class="cls-4" d="M43.81,39.2v.19c.25.26.49.54.71.84v-1.48c-.25.13-.49.28-.71.45Z"/>
          <polygon class="cls-4" points="43.7 39.29 43.81 39.39 43.81 39.2 43.7 39.29"/>
          <path class="cls-4" d="M30.53,39.36v-.14c-.27-.21-.56-.38-.86-.53v1.72c.27-.37.55-.72.86-1.04Z"/>
          <path class="cls-4" d="M43.81,43.19v10.74h.71v-8.47c-.19-.8-.43-1.56-.71-2.27Z"/>
          <path class="cls-4" d="M47.1,38.15c-.99,0-1.84.21-2.58.6v1.48c.39.52.73,1.09,1.03,1.71,1.3,2.65,1.84,6.14,1.98,9.86h6.26c.73,0,.72-.85.71-1.27-.17-6.58-1.71-12.39-7.4-12.39Z"/>
          <path class="cls-4" d="M45.31,51.81c-.04-1.12-.12-2.22-.25-3.27-.13-1.07-.31-2.11-.54-3.08v8.47h.06c.73,0,.76-1.03.75-1.44l-.02-.68h0Z"/>
          <path class="cls-4" d="M29.67,40.41v-1.72c-.71-.35-1.53-.54-2.46-.54-5.68,0-7.23,5.8-7.4,12.39,0,.42-.02,1.27.71,1.27h6.26c.14-3.72.68-7.21,1.98-9.86.27-.55.58-1.07.91-1.54Z"/>
          <path class="cls-4" d="M28.73,52.46c-.01.49-.02,1.47.83,1.47h.11v-8.92c-.6,2.2-.87,4.77-.94,7.46Z"/>
          <path class="cls-4" d="M37.3,38.12c-3.37,0-5.48,1.76-6.76,4.5v11.31h13.27v-10.74c-1.2-3.03-3.22-5.06-6.51-5.06Z"/>
          <path class="cls-4" d="M29.67,45v8.92h.86v-11.31c-.34.73-.63,1.53-.86,2.39Z"/>
        </g>
        <g>
          <g>
            <path class="cls-7" d="M27.11,35.05c1.39,0,2.66-.47,3.67-1.26l-.13-.13h0c-1.45-1.45-2.35-3.46-2.35-5.66,0-1.6.47-3.09,1.28-4.34-.75-.34-1.59-.53-2.47-.53-3.29,0-5.96,2.67-5.96,5.96s2.67,5.96,5.96,5.96Z"/>
            <path class="cls-7" d="M43.66,33.66h0s-.13.13-.13.13c1.01.79,2.28,1.26,3.67,1.26,3.29,0,5.96-2.67,5.96-5.96s-2.67-5.96-5.96-5.96c-.88,0-1.72.19-2.47.53.81,1.25,1.28,2.74,1.28,4.34,0,2.21-.9,4.21-2.35,5.66Z"/>
            <path class="cls-7" d="M37.18,34.9c3.81,0,6.9-3.09,6.9-6.9s-3.09-6.9-6.9-6.9-6.9,3.09-6.9,6.9,3.09,6.9,6.9,6.9Z"/>
            <path class="cls-7" d="M47.1,35.83c-1.37,0-2.49.41-3.4,1.13.73.74,1.35,1.64,1.85,2.66,1.3,2.65,1.84,6.14,1.98,9.86h6.26c.73,0,.72-.85.71-1.27-.17-6.58-1.71-12.39-7.4-12.39Z"/>
            <path class="cls-7" d="M30.61,36.96c-.91-.72-2.02-1.13-3.4-1.13-5.68,0-7.23,5.8-7.4,12.39,0,.42-.02,1.27.71,1.27h6.26c.14-3.72.68-7.21,1.98-9.86.5-1.02,1.12-1.92,1.85-2.66Z"/>
            <path class="cls-7" d="M45.31,49.48c-.04-1.12-.12-2.22-.25-3.27-.69-5.72-2.78-10.41-7.76-10.41-6.58,0-8.37,6.72-8.56,14.34-.01.48-.02,1.47.83,1.47h15.02c.73,0,.76-1.03.75-1.44l-.02-.68h0Z"/>
            <path class="cls-11" d="M30.78,33.79l-.13-.13h0s-.12-.13-.12-.13v.44c.08-.06.17-.12.25-.18Z"/>
            <path class="cls-11" d="M30.53,26.15c-.16.59-.25,1.21-.25,1.85s.09,1.26.25,1.84v-3.69Z"/>
            <path class="cls-11" d="M30.53,33.98v-.44c-.32-.33-.6-.69-.86-1.07v2.01c.3-.14.59-.31.86-.5Z"/>
            <polygon class="cls-11" points="30.61 36.96 30.53 36.9 30.53 37.04 30.61 36.96"/>
            <path class="cls-11" d="M27.11,35.05c.92,0,1.78-.21,2.56-.58v-2.01c-.86-1.28-1.37-2.82-1.37-4.47s.47-3.09,1.28-4.34c-.75-.34-1.59-.53-2.47-.53-3.29,0-5.96,2.67-5.96,5.96s2.67,5.96,5.96,5.96Z"/>
            <path class="cls-11" d="M43.66,33.66h0s-.13.13-.13.13c.09.07.18.14.28.2v-.49l-.15.15Z"/>
            <path class="cls-11" d="M43.81,33.51v.49c.23.16.46.3.71.42v-1.77c-.22.3-.45.59-.71.86Z"/>
            <path class="cls-11" d="M44.08,28c0-.67-.1-1.33-.28-1.94v3.88c.18-.62.28-1.27.28-1.94Z"/>
            <path class="cls-11" d="M37.18,34.9c3.14,0,5.78-2.09,6.62-4.96v-3.88c-.84-2.87-3.49-4.96-6.62-4.96s-5.85,2.14-6.65,5.06v3.69c.81,2.92,3.48,5.06,6.65,5.06Z"/>
            <path class="cls-11" d="M44.52,34.42c.81.41,1.72.64,2.68.64,3.29,0,5.96-2.67,5.96-5.96s-2.67-5.96-5.96-5.96c-.88,0-1.72.19-2.47.53.81,1.25,1.28,2.74,1.28,4.34,0,1.73-.55,3.34-1.49,4.65v1.77Z"/>
            <path class="cls-11" d="M29.67,42.68v8.92h.86v-11.31c-.34.73-.63,1.53-.86,2.39Z"/>
            <path class="cls-11" d="M45.31,49.48c-.04-1.12-.12-2.22-.25-3.27-.13-1.07-.31-2.11-.54-3.08v8.47h.06c.73,0,.76-1.03.75-1.44l-.02-.68h0Z"/>
            <polygon class="cls-11" points="43.7 36.96 43.81 37.07 43.81 36.88 43.7 36.96"/>
            <path class="cls-11" d="M43.81,36.88v.19c.25.26.49.54.71.84v-1.48c-.25.13-.49.28-.71.45Z"/>
            <path class="cls-11" d="M47.1,35.83c-.99,0-1.84.21-2.58.6v1.48c.39.52.73,1.09,1.03,1.71,1.3,2.65,1.84,6.14,1.98,9.86h6.26c.73,0,.72-.85.71-1.27-.17-6.58-1.71-12.39-7.4-12.39Z"/>
            <path class="cls-11" d="M43.81,40.86v10.74h.71v-8.47c-.19-.8-.43-1.56-.71-2.27Z"/>
            <path class="cls-11" d="M29.67,38.08v-1.72c-.71-.35-1.53-.54-2.46-.54-5.68,0-7.23,5.8-7.4,12.39,0,.42-.02,1.27.71,1.27h6.26c.14-3.72.68-7.21,1.98-9.86.27-.55.58-1.07.91-1.54Z"/>
            <path class="cls-11" d="M28.73,50.14c-.01.48-.02,1.47.83,1.47h.11v-8.92c-.6,2.2-.87,4.77-.94,7.46Z"/>
            <path class="cls-11" d="M37.3,35.8c-3.37,0-5.48,1.76-6.76,4.5v11.31h13.27v-10.74c-1.2-3.03-3.22-5.06-6.51-5.06Z"/>
            <path class="cls-11" d="M30.53,37.04v-.14c-.27-.21-.56-.39-.86-.53v1.72c.27-.37.55-.72.86-1.04Z"/>
          </g>
          <path class="cls-3" d="M27.11,35.05c.92,0,1.78-.21,2.56-.58v-2c-.86-1.28-1.37-2.82-1.37-4.47s.47-3.09,1.28-4.34c-.75-.34-1.59-.54-2.47-.54-3.29,0-5.96,2.67-5.96,5.96s2.67,5.96,5.96,5.96Z"/>
          <polygon class="cls-3" points="30.61 36.96 30.53 36.9 30.53 37.04 30.61 36.96"/>
          <path class="cls-3" d="M30.53,33.98v-.44c-.32-.33-.6-.69-.86-1.07v2c.3-.14.59-.31.86-.5Z"/>
          <path class="cls-3" d="M30.53,37.04v-.14c-.27-.2-.56-.38-.86-.53v1.71c.27-.37.55-.72.86-1.04Z"/>
          <path class="cls-3" d="M30.78,33.79l-.13-.13h0s-.12-.13-.12-.13v.44c.08-.06.17-.12.25-.19Z"/>
          <path class="cls-3" d="M28.73,50.14c-.01.48-.02,1.47.83,1.47h.11v-8.92c-.6,2.21-.87,4.78-.94,7.46Z"/>
          <path class="cls-3" d="M30.28,28c0,.64.09,1.26.25,1.84v-3.69c-.16.59-.25,1.2-.25,1.84Z"/>
          <path class="cls-3" d="M30.53,26.16v3.69c.79,2.88,3.41,5.01,6.54,5.06v-13.8c-3.12.05-5.74,2.18-6.54,5.06Z"/>
          <path class="cls-3" d="M29.67,38.08v-1.71c-.71-.35-1.53-.54-2.46-.54-5.68,0-7.23,5.8-7.4,12.39,0,.42-.02,1.27.71,1.27h6.26c.13-3.72.68-7.21,1.98-9.86.27-.55.58-1.07.91-1.54Z"/>
          <path class="cls-3" d="M29.67,42.68v8.92h.86v-11.3c-.34.73-.63,1.53-.86,2.38Z"/>
          <path class="cls-3" d="M30.53,40.3v11.3h6.54v-15.8c-3.24.08-5.28,1.82-6.54,4.5Z"/>
        </g>
      </g>
    </g>
  </g>
</svg>