<?xml version="1.0" encoding="UTF-8"?>
<svg id="Layer_2" data-name="Layer 2" xmlns="http://www.w3.org/2000/svg" viewBox="0 0 71.17 71.86">
  <defs>
    <style>
      .cls-1 {
        fill: #a6e54e;
      }

      .cls-1, .cls-2, .cls-3, .cls-4, .cls-5, .cls-6, .cls-7, .cls-8, .cls-9, .cls-10, .cls-11, .cls-12, .cls-13, .cls-14, .cls-15, .cls-16 {
        fill-rule: evenodd;
      }

      .cls-2 {
        fill: #92d832;
      }

      .cls-3 {
        fill: #8dd52b;
      }

      .cls-4 {
        fill: #333;
        opacity: .2;
      }

      .cls-5 {
        fill: #fff;
      }

      .cls-6 {
        fill: #a1e247;
      }

      .cls-7 {
        fill: #97db39;
      }

      .cls-8 {
        fill: #a4e34b;
      }

      .cls-9 {
        fill: #e5e5e5;
      }

      .cls-10 {
        fill: #95da36;
      }

      .cls-11 {
        fill: #90d62f;
      }

      .cls-12 {
        fill: #8bd328;
      }

      .cls-13 {
        fill: #9cde40;
      }

      .cls-14 {
        fill: none;
        stroke: #8bd328;
        stroke-miterlimit: 22.93;
        stroke-width: 1.05px;
      }

      .cls-15 {
        fill: #9add3d;
      }

      .cls-16 {
        fill: #9fe044;
      }
    </style>
  </defs>
  <g id="Layer_1-2" data-name="Layer 1">
    <g>
      <g>
        <path class="cls-4" d="M40.82,1.27c-5.28-.73-9.36-.59-14.46,1.34-2.97,1.13-5.76,2.49-8.34,4.11C7.5,13.3.87,24,.07,36.36c-.63,9.72,2.93,18.53,9.96,25.28,6.72,6.46,15.91,10.09,25.27,10.21,6.69,0,13.19-1.82,18.88-5.3,17.15-10.51,22.46-32.94,10.63-49.35-6.26-8.68-13.03-14.14-24-15.94Z"/>
        <path class="cls-5" d="M40.61.4c-5.08-.71-9-.58-13.9,1.3-2.86,1.1-5.54,2.42-8.02,3.99C8.59,12.1,2.21,22.49,1.45,34.5c-.6,9.45,2.81,18.01,9.57,24.57,6.46,6.28,15.3,9.81,24.29,9.93,6.43,0,12.68-1.77,18.15-5.15,16.49-10.22,21.59-32.01,10.22-47.97C57.67,7.45,51.16,2.14,40.61.4Z"/>
        <path class="cls-9" d="M39.75,6.37c-4.21-.62-7.45-.51-11.51,1.14-2.37.97-4.59,2.13-6.64,3.51-8.37,5.63-13.65,14.77-14.28,25.33-.5,8.3,2.33,15.83,7.92,21.61,5.35,5.52,12.67,8.63,20.12,8.73,5.32,0,10.5-1.55,15.03-4.53,13.66-8.98,17.88-28.14,8.47-42.17-4.98-7.42-10.37-12.09-19.1-13.62Z"/>
        <g>
          <path class="cls-12" d="M39.55,7.51c-4.02-.56-7.13-.46-11,1.03-6.89,2.65-12.53,6.99-16.27,13.44-3.54,6.05-4.89,14.5-2.78,21.27,1.27,4.09,3.56,7.73,6.62,10.71,5.11,4.97,12.11,7.77,19.23,7.86,15.07,0,27.31-12.21,27.31-27.31-.14-5.49-1.69-10.28-4.86-14.73-4.76-6.68-9.91-10.88-18.26-12.26Z"/>
          <g>
            <path class="cls-3" d="M40.07,10.73c-3.73-.43-6.99-.3-10.93,1.06-6.69,2.41-12.22,6.34-15.65,12.17-3.29,5.44-4.64,13.64-2.63,20.01,1.21,3.84,3.37,7.27,6.28,10.07,4.85,4.67,11.48,7.31,18.24,7.39,13.99,0,25.39-11.2,25.59-25.08.07-5.15-1.22-9.72-4.1-14-4.33-6.24-9.04-10.52-16.79-11.61Z"/>
            <path class="cls-11" d="M40.58,13.96c-3.45-.3-6.85-.14-10.86,1.08-6.48,2.17-11.9,5.68-15.03,10.89-3.04,4.83-4.39,12.78-2.49,18.75,1.14,3.6,3.19,6.82,5.94,9.44,4.59,4.38,10.86,6.84,17.24,6.93,12.92,0,23.47-10.18,23.86-22.85.27-4.81-.75-9.15-3.35-13.27-3.91-5.81-8.17-10.16-15.32-10.96Z"/>
            <path class="cls-2" d="M41.09,17.19c-3.16-.16-6.71.01-10.79,1.11-6.27,1.94-11.59,5.03-14.41,9.62-2.78,4.22-4.14,11.92-2.35,17.49,1.08,3.36,3.01,6.36,5.6,8.81,4.32,4.09,10.23,6.38,16.25,6.46,11.84,0,21.56-9.17,22.14-20.62.48-4.46-.28-8.59-2.59-12.55-3.48-5.38-7.3-9.8-13.85-10.31Z"/>
            <path class="cls-10" d="M41.61,20.42c-2.88-.03-6.58.17-10.72,1.13-6.06,1.7-11.28,4.37-13.79,8.35-2.53,3.61-3.88,11.06-2.21,16.22,1.01,3.12,2.82,5.9,5.25,8.17,4.06,3.79,9.61,5.93,15.26,5.99,10.77,0,19.64-8.16,20.42-18.39.69-4.12.18-8.03-1.84-11.82-3.05-4.94-6.42-9.44-12.38-9.66Z"/>
            <path class="cls-7" d="M42.12,23.64c-2.59.1-6.44.33-10.64,1.16-5.85,1.47-10.96,3.72-13.17,7.08-2.28,2.99-3.63,10.2-2.06,14.96.95,2.87,2.64,5.44,4.91,7.54,3.79,3.5,8.98,5.46,14.27,5.53,9.7,0,17.72-7.14,18.69-16.16.9-3.78.65-7.47-1.08-11.09-2.63-4.51-5.56-9.08-10.92-9.02Z"/>
            <path class="cls-15" d="M42.63,26.87c-2.31.24-6.3.48-10.58,1.18-5.65,1.23-10.65,3.06-12.55,5.81-2.02,2.38-3.38,9.34-1.92,13.7.88,2.63,2.46,4.98,4.57,6.9,3.53,3.2,8.36,5,13.28,5.06,8.62,0,15.8-6.13,16.97-13.93,1.1-3.44,1.12-6.91-.32-10.36-2.2-4.08-4.68-8.73-9.44-8.37Z"/>
            <path class="cls-13" d="M43.15,30.1c-2.02.37-6.17.64-10.5,1.21-5.44.99-10.34,2.41-11.94,4.54-1.77,1.77-3.13,8.48-1.77,12.44.81,2.39,2.27,4.52,4.23,6.27,3.27,2.91,7.73,4.54,12.28,4.6,7.55,0,13.88-5.12,15.24-11.7,1.31-3.09,1.59-6.34.44-9.63-1.77-3.64-3.81-8.37-7.98-7.72Z"/>
            <path class="cls-16" d="M43.66,33.32c-1.74.5-6.03.79-10.43,1.24-5.23.76-10.02,1.75-11.32,3.27-1.52,1.16-2.87,7.62-1.63,11.18.75,2.15,2.09,4.07,3.89,5.63,3,2.61,7.11,4.08,11.29,4.13,6.48,0,11.97-4.1,13.52-9.47,1.52-2.75,2.06-5.78,1.19-8.91-1.34-3.21-2.94-8.01-6.51-7.07Z"/>
            <path class="cls-6" d="M44.17,36.55c-1.45.64-5.89.95-10.36,1.26-5.02.52-9.71,1.1-10.7,2-1.26.55-2.62,6.76-1.49,9.92.68,1.91,1.91,3.61,3.54,5,2.74,2.32,6.48,3.62,10.3,3.67,5.41,0,10.05-3.09,11.8-7.24,1.73-2.41,2.53-5.22,1.95-8.18-.92-2.78-2.07-7.65-5.04-6.42Z"/>
            <path class="cls-8" d="M44.68,39.78c-1.17.77-5.75,1.11-10.29,1.29-4.81.29-9.4.44-10.08.73-1.01-.06-2.37,5.9-1.34,8.66.62,1.66,1.72,3.15,3.2,4.36,2.47,2.02,5.86,3.16,9.31,3.2,4.33,0,8.13-2.08,10.07-5.01,1.93-2.06,2.99-4.66,2.7-7.45-.49-2.34-1.2-7.29-3.57-5.77Z"/>
          </g>
          <path class="cls-1" d="M45.2,43.01c-1.77,1.81-18.93,1.43-19.68.77-.76-.67-2.12,5.05-1.2,7.4.55,1.42,1.54,2.69,2.86,3.73,2.21,1.73,5.23,2.7,8.31,2.73,6.51,0,11.81-4.25,11.81-9.5-.06-1.91-.33-6.93-2.1-5.13Z"/>
        </g>
        <path class="cls-1" d="M35.37,9.06c-24.87-.08-28.61,32.67-17.1,26.43,7.98-4.33,27.83-3.42,35.36,0,10.08,4.58,8.75-26.34-18.26-26.43Z"/>
        <path class="cls-1" d="M35.37,54.08c-10.67-.14-20.47-6.18-24.75-16.06-1-2.3-1.36-4.57-1.45-7.06-1.53,9.6,1.21,17.87,8.7,24.22,5.02,4.25,10.95,6.33,17.5,6.41,14.96,0,27.09-12.13,27.09-27.09-.01-1.31-.08-2.45-.26-3.75-2,13.57-13.14,23.16-26.83,23.33Z"/>
        <path class="cls-5" d="M20.73,14.03c-.52.4-1,.78-1.5,1.21-2.09,1.8-4.28,4.08-3.59,6.31,1.33,1.37,4.26.13,5.41-.9,2.29-2.04,2.72-2.31,5.42-3.74,1.41-.75,3.89-3.73,2.97-5.45-1-1.37-4.9-.22-8.71,2.56Z"/>
        <path class="cls-5" d="M14.49,22.76c-1.51,0-2.74,1.21-2.74,2.71s1.22,2.71,2.74,2.71,2.73-1.21,2.73-2.71-1.22-2.71-2.73-2.71Z"/>
        <path class="cls-5" d="M49.82,50.64c-1.51,0-2.74,1.21-2.74,2.71s1.22,2.71,2.74,2.71,2.73-1.21,2.73-2.71-1.22-2.71-2.73-2.71Z"/>
      </g>
      <g>
        <g>
          <path class="cls-14" d="M35.61,35.65c3.65,0,6.61-2.96,6.61-6.61s-2.96-6.61-6.61-6.61-6.61,2.96-6.61,6.61,2.96,6.61,6.61,6.61Z"/>
          <path class="cls-14" d="M25.97,35.8c1.33,0,2.55-.45,3.51-1.21l-.12-.12h0c-1.39-1.39-2.25-3.31-2.25-5.43,0-1.53.45-2.96,1.22-4.16-.72-.33-1.52-.51-2.37-.51-3.15,0-5.71,2.56-5.71,5.71s2.56,5.71,5.71,5.71Z"/>
          <path class="cls-14" d="M41.82,34.46h0s-.12.13-.12.13c.97.76,2.19,1.21,3.51,1.21,3.15,0,5.71-2.56,5.71-5.71s-2.56-5.71-5.71-5.71c-.85,0-1.65.18-2.37.51.77,1.2,1.22,2.63,1.22,4.16,0,2.12-.86,4.03-2.25,5.42Z"/>
          <path class="cls-14" d="M29.32,37.63c-.87-.69-1.94-1.09-3.26-1.09-5.45,0-6.93,5.56-7.09,11.86,0,.4-.01,1.21.68,1.21h5.99c.13-3.56.65-6.91,1.89-9.44.48-.98,1.07-1.84,1.77-2.55Z"/>
          <path class="cls-14" d="M45.11,36.54c-1.32,0-2.39.4-3.26,1.09.7.71,1.29,1.57,1.77,2.55,1.24,2.53,1.76,5.88,1.89,9.44h5.99c.7,0,.69-.81.68-1.21-.16-6.31-1.64-11.86-7.09-11.86Z"/>
          <path class="cls-14" d="M43.4,49.62c-.04-1.08-.12-2.13-.24-3.13-.66-5.48-2.66-9.98-7.44-9.98-6.3,0-8.02,6.43-8.2,13.73-.01.47-.02,1.41.79,1.41h14.38c.7,0,.73-.98.72-1.38l-.02-.65h0Z"/>
          <path class="cls-12" d="M29.24,27.27c-.16.56-.24,1.15-.24,1.77s.08,1.2.24,1.77v-3.53Z"/>
          <path class="cls-12" d="M29.24,34.77v-.42c-.3-.32-.58-.66-.82-1.02v1.92c.29-.14.56-.3.82-.48Z"/>
          <path class="cls-12" d="M29.48,34.59l-.12-.12h0s-.11-.12-.11-.12v.42c.08-.06.16-.12.24-.18Z"/>
          <path class="cls-12" d="M25.97,35.8c.88,0,1.71-.2,2.45-.55v-1.92c-.83-1.22-1.31-2.7-1.31-4.28s.45-2.96,1.22-4.16c-.72-.33-1.52-.51-2.37-.51-3.15,0-5.71,2.56-5.71,5.71s2.56,5.71,5.71,5.71Z"/>
          <path class="cls-12" d="M42.64,35.19c.77.39,1.64.61,2.57.61,3.15,0,5.71-2.56,5.71-5.71s-2.56-5.71-5.71-5.71c-.85,0-1.65.18-2.37.51.77,1.2,1.22,2.63,1.22,4.16,0,1.66-.53,3.2-1.43,4.45v1.69Z"/>
          <path class="cls-12" d="M35.61,35.65c3,0,5.54-2.01,6.35-4.75v-3.72c-.81-2.75-3.34-4.75-6.35-4.75s-5.6,2.05-6.37,4.84v3.53c.77,2.79,3.33,4.84,6.37,4.84Z"/>
          <path class="cls-12" d="M41.96,34.32v.47c.21.15.44.28.68.4v-1.69c-.21.29-.43.56-.68.82Z"/>
          <polygon class="cls-12" points="29.32 37.63 29.24 37.57 29.24 37.7 29.32 37.63"/>
          <path class="cls-12" d="M42.22,29.04c0-.65-.09-1.27-.26-1.86v3.72c.17-.59.26-1.21.26-1.86Z"/>
          <path class="cls-12" d="M41.82,34.46h0s-.12.13-.12.13c.08.07.17.13.27.19v-.47l-.14.14Z"/>
          <path class="cls-12" d="M41.96,41.36v10.29h.68v-8.12c-.19-.77-.41-1.5-.68-2.17Z"/>
          <path class="cls-12" d="M43.4,49.62c-.04-1.08-.12-2.13-.24-3.13-.12-1.03-.29-2.02-.52-2.95v8.12h.06c.7,0,.73-.98.72-1.38l-.02-.65h0Z"/>
          <polygon class="cls-12" points="41.86 37.63 41.96 37.73 41.96 37.55 41.86 37.63"/>
          <path class="cls-12" d="M41.96,37.55v.18c.24.25.47.52.68.81v-1.42c-.24.12-.46.27-.68.43Z"/>
          <path class="cls-12" d="M29.24,37.7v-.13c-.26-.2-.53-.37-.82-.51v1.64c.25-.36.53-.69.82-1Z"/>
          <path class="cls-12" d="M45.11,36.54c-.95,0-1.77.2-2.48.58v1.42c.37.5.7,1.05.99,1.64,1.24,2.53,1.76,5.88,1.89,9.44h5.99c.7,0,.69-.81.68-1.21-.16-6.31-1.64-11.86-7.09-11.86Z"/>
          <path class="cls-12" d="M27.52,50.25c-.01.47-.02,1.41.79,1.41h.11v-8.55c-.58,2.11-.83,4.57-.9,7.14Z"/>
          <path class="cls-12" d="M35.72,36.51c-3.22,0-5.25,1.68-6.48,4.31v10.83h12.72v-10.29c-1.15-2.9-3.09-4.85-6.24-4.85Z"/>
          <path class="cls-12" d="M28.42,38.7v-1.64c-.68-.33-1.46-.52-2.36-.52-5.45,0-6.93,5.56-7.09,11.86,0,.4-.01,1.21.68,1.21h5.99c.13-3.56.65-6.91,1.89-9.44.26-.53.55-1.02.87-1.48Z"/>
          <path class="cls-12" d="M28.42,43.1v8.55h.82v-10.83c-.33.7-.6,1.46-.82,2.28Z"/>
        </g>
        <g>
          <g>
            <path class="cls-14" d="M41.82,32.24h0s-.12.13-.12.13c.97.76,2.19,1.21,3.51,1.21,3.15,0,5.71-2.56,5.71-5.71s-2.56-5.71-5.71-5.71c-.85,0-1.65.18-2.37.51.77,1.2,1.22,2.63,1.22,4.16,0,2.12-.86,4.03-2.25,5.42Z"/>
            <path class="cls-14" d="M25.97,33.57c1.33,0,2.55-.45,3.51-1.21l-.12-.12h0c-1.39-1.39-2.25-3.31-2.25-5.43,0-1.53.45-2.96,1.22-4.16-.72-.33-1.52-.51-2.37-.51-3.15,0-5.71,2.56-5.71,5.71s2.56,5.71,5.71,5.71Z"/>
            <path class="cls-14" d="M35.61,33.43c3.65,0,6.61-2.96,6.61-6.61s-2.96-6.61-6.61-6.61-6.61,2.96-6.61,6.61,2.96,6.61,6.61,6.61Z"/>
            <path class="cls-14" d="M45.11,34.32c-1.32,0-2.39.4-3.26,1.09.7.71,1.29,1.57,1.77,2.55,1.24,2.53,1.76,5.88,1.89,9.44h5.99c.7,0,.69-.81.68-1.21-.16-6.31-1.64-11.86-7.09-11.86Z"/>
            <path class="cls-14" d="M29.32,35.4c-.87-.69-1.94-1.09-3.26-1.09-5.45,0-6.93,5.56-7.09,11.86,0,.4-.01,1.21.68,1.21h5.99c.13-3.56.65-6.91,1.89-9.44.48-.98,1.07-1.84,1.77-2.55Z"/>
            <path class="cls-14" d="M43.4,47.39c-.04-1.08-.12-2.13-.24-3.13-.66-5.48-2.66-9.98-7.44-9.98-6.3,0-8.02,6.43-8.2,13.73-.01.46-.02,1.4.79,1.4h14.38c.7,0,.73-.98.72-1.38l-.02-.65h0Z"/>
            <path class="cls-9" d="M29.48,32.36l-.12-.12h0s-.11-.12-.11-.12v.42c.08-.06.16-.12.24-.18Z"/>
            <path class="cls-9" d="M29.24,25.05c-.16.56-.24,1.16-.24,1.77s.08,1.2.24,1.77v-3.53Z"/>
            <path class="cls-9" d="M29.24,32.54v-.42c-.3-.32-.58-.66-.82-1.02v1.92c.29-.14.56-.3.82-.48Z"/>
            <polygon class="cls-9" points="29.32 35.4 29.24 35.34 29.24 35.48 29.32 35.4"/>
            <path class="cls-9" d="M35.61,33.43c3,0,5.54-2,6.35-4.75v-3.72c-.81-2.75-3.34-4.75-6.35-4.75s-5.6,2.05-6.37,4.84v3.53c.77,2.79,3.33,4.85,6.37,4.85Z"/>
            <path class="cls-9" d="M25.97,33.57c.88,0,1.71-.2,2.45-.55v-1.92c-.83-1.22-1.31-2.7-1.31-4.28s.45-2.96,1.22-4.16c-.72-.33-1.52-.51-2.37-.51-3.15,0-5.71,2.56-5.71,5.71s2.56,5.71,5.71,5.71Z"/>
            <path class="cls-9" d="M42.22,26.82c0-.65-.09-1.27-.26-1.86v3.72c.17-.59.26-1.21.26-1.86Z"/>
            <path class="cls-9" d="M41.96,32.09v.47c.21.15.44.28.68.4v-1.69c-.21.29-.43.56-.68.82Z"/>
            <path class="cls-9" d="M41.82,32.24h0s-.12.13-.12.13c.08.07.17.13.27.19v-.47l-.14.14Z"/>
            <path class="cls-9" d="M42.64,32.96c.77.39,1.64.61,2.57.61,3.15,0,5.71-2.56,5.71-5.71s-2.56-5.71-5.71-5.71c-.85,0-1.65.18-2.37.51.77,1.2,1.22,2.63,1.22,4.16,0,1.66-.53,3.2-1.43,4.45v1.69Z"/>
            <path class="cls-9" d="M41.96,35.32v.18c.24.25.47.52.68.81v-1.42c-.24.13-.46.27-.68.43Z"/>
            <polygon class="cls-9" points="41.86 35.4 41.96 35.51 41.96 35.32 41.86 35.4"/>
            <path class="cls-9" d="M43.4,47.39c-.04-1.08-.12-2.13-.24-3.13-.12-1.03-.29-2.02-.52-2.95v8.11h.06c.7,0,.73-.98.72-1.38l-.02-.65h0Z"/>
            <path class="cls-9" d="M41.96,39.14v10.29h.68v-8.11c-.19-.77-.41-1.5-.68-2.17Z"/>
            <path class="cls-9" d="M45.11,34.32c-.95,0-1.77.2-2.48.58v1.42c.37.5.7,1.05.99,1.64,1.24,2.53,1.76,5.88,1.89,9.44h5.99c.7,0,.69-.81.68-1.21-.16-6.31-1.64-11.86-7.09-11.86Z"/>
            <path class="cls-9" d="M27.52,48.02c-.01.46-.02,1.4.79,1.4h.11v-8.55c-.58,2.11-.83,4.57-.9,7.14Z"/>
            <path class="cls-9" d="M29.24,35.48v-.13c-.26-.2-.53-.37-.82-.51v1.64c.25-.36.53-.69.82-1Z"/>
            <path class="cls-9" d="M28.42,36.48v-1.64c-.68-.33-1.46-.52-2.36-.52-5.45,0-6.93,5.56-7.09,11.86,0,.4-.01,1.21.68,1.21h5.99c.13-3.56.65-6.91,1.89-9.44.26-.53.55-1.02.87-1.48Z"/>
            <path class="cls-9" d="M28.42,40.88v8.55h.82v-10.83c-.33.7-.6,1.46-.82,2.28Z"/>
            <path class="cls-9" d="M35.72,34.29c-3.22,0-5.25,1.68-6.48,4.31v10.83h12.72v-10.29c-1.15-2.9-3.09-4.85-6.24-4.85Z"/>
          </g>
          <polygon class="cls-5" points="29.32 35.4 29.24 35.34 29.24 35.48 29.32 35.4"/>
          <path class="cls-5" d="M25.97,33.57c.88,0,1.71-.2,2.45-.55v-1.92c-.83-1.22-1.31-2.7-1.31-4.28s.45-2.96,1.22-4.16c-.72-.33-1.52-.51-2.37-.51-3.15,0-5.71,2.56-5.71,5.71s2.56,5.71,5.71,5.71Z"/>
          <path class="cls-5" d="M29.24,35.48v-.14c-.26-.2-.53-.37-.82-.51v1.64c.25-.36.53-.69.82-1Z"/>
          <path class="cls-5" d="M29.48,32.36l-.12-.12h0s-.11-.12-.11-.12v.42c.08-.06.16-.12.24-.18Z"/>
          <path class="cls-5" d="M29.24,32.54v-.42c-.3-.32-.58-.66-.82-1.02v1.92c.29-.14.56-.3.82-.48Z"/>
          <path class="cls-5" d="M29,26.82c0,.61.08,1.2.24,1.77v-3.54c-.16.56-.24,1.16-.24,1.77Z"/>
          <path class="cls-5" d="M29.24,25.05v3.54c.76,2.76,3.27,4.79,6.26,4.84v-13.22c-2.99.05-5.5,2.08-6.26,4.84Z"/>
          <path class="cls-5" d="M28.42,36.48v-1.64c-.68-.33-1.46-.52-2.36-.52-5.45,0-6.93,5.56-7.09,11.86,0,.4-.01,1.22.68,1.22h5.99c.13-3.56.65-6.91,1.89-9.44.26-.53.55-1.02.87-1.48Z"/>
          <path class="cls-5" d="M29.24,38.6v10.83h6.26v-15.13c-3.1.08-5.06,1.74-6.26,4.31Z"/>
          <path class="cls-5" d="M28.42,40.88v8.55h.82v-10.83c-.33.7-.6,1.46-.82,2.28Z"/>
          <path class="cls-5" d="M27.52,48.02c0,.46-.02,1.41.79,1.41h.11v-8.55c-.58,2.11-.83,4.57-.9,7.14Z"/>
        </g>
      </g>
    </g>
  </g>
</svg>