<?xml version="1.0" encoding="UTF-8"?>
<svg id="Layer_2" data-name="Layer 2" xmlns="http://www.w3.org/2000/svg" viewBox="0 0 469.11 122.78">
  <defs>
    <style>
      .cls-1 {
        fill: #94dd2f;
      }

      .cls-2 {
        fill: #497214;
      }

      .cls-3 {
        fill: #fff;
      }

      .cls-4 {
        fill: #a5e24d;
      }

      .cls-5 {
        fill: #c0eb85;
      }

      .cls-6 {
        fill: #ccc;
      }

      .cls-7 {
        fill: #e6e6e6;
      }
    </style>
  </defs>
  <g id="Layer_6" data-name="Layer 6">
    <g id="g2136">
      <path class="cls-2" d="M456.98,0H11.63C-2.58,0,.23,55.53.23,83.3h468.16c0-27.77,5.02-83.3-11.41-83.3Z"/>
      <path class="cls-6" d="M0,51.92c3.1-.14,6.25-.27,9.43-.4.11-21.2,1.29-42.94,7.14-49.52-1.41-1.29-3.05-2-4.95-2C1.83,0,.12,26.42,0,51.92Z"/>
      <path class="cls-6" d="M456.98,0c-1.76,0-3.3.61-4.64,1.73,6.74,6.15,7.57,27.72,7.29,48.96,3.18.11,6.32.22,9.43.34.35-25.22-.88-51.03-12.08-51.03Z"/>
    </g>
    <g id="g2182">
      <path d="M20.95,49.49c-.21,15.59-1.25,46.09-1.25,53.36,0,10.96,9.38,19.93,20.85,19.93h387.52c11.46,0,20.84-8.97,20.84-19.93,0-7.39-1.12-37.64-1.31-53.5-128.52-4.03-304.15-4.41-426.65.14Z"/>
      <path class="cls-3" d="M11.63,0c19.15,0,11.99,72.13,11.99,91.46,0,11.25,9.21,20.46,20.47,20.46h380.44c11.25,0,20.46-9.21,20.46-20.46,0-19.33-7.16-91.46,11.99-91.46H11.63Z"/>
      <path class="cls-4" d="M24.87,0c18.01,0,11.28,63.45,11.28,80.45,0,9.9,8.66,18,19.25,18h357.82c10.58,0,19.24-8.1,19.24-18,0-17-6.73-80.45,11.28-80.45H24.87Z"/>
      <path class="cls-7" d="M424.53,108.37H44.09c-10.89,0-19.86-8.61-20.44-19.36-.02.89-.03,1.71-.03,2.45,0,11.25,9.21,20.46,20.47,20.46h380.44c11.25,0,20.46-9.21,20.46-20.46,0-.74,0-1.56-.03-2.45-.58,10.75-9.55,19.36-20.43,19.36Z"/>
      <path class="cls-1" d="M216.78,83.3c-60.53-3.35-117.4-9.63-170.16-19.19-3.27-.6-6.53-1.2-9.77-1.82-.03.67-.06,1.34-.09,1.99-.3,6.8-.61,12.54-.61,16.17,0,.97.08,1.92.24,2.85,1.47,8.56,9.45,15.15,19.01,15.15h357.82c9.28,0,17.09-6.23,18.87-14.44-75.91,3.09-147.89,3.01-215.31-.71Z"/>
      <path class="cls-5" d="M34.99,13c134.09-6.74,267.28-7.5,399.89-4.32,1.91-5.34,4.73-8.68,8.86-8.68H24.87c5.15,0,8.28,5.19,10.12,13Z"/>
    </g>
  </g>
</svg>