<?xml version="1.0" encoding="UTF-8"?>
<svg id="Layer_2" data-name="Layer 2" xmlns="http://www.w3.org/2000/svg" viewBox="0 0 443.08 89.2">
  <defs>
    <style>
      .cls-1 {
        fill: #94dd2f;
      }

      .cls-2 {
        fill: #497214;
      }

      .cls-3 {
        fill: #fff;
      }

      .cls-4 {
        fill: #a5e24d;
      }

      .cls-5 {
        fill: #c0eb85;
      }

      .cls-6 {
        fill: #ccc;
      }

      .cls-7 {
        fill: #e6e6e6;
      }
    </style>
  </defs>
  <g id="Layer_1-2" data-name="Layer 1">
    <g id="g4842">
      <path class="cls-2" d="M431.63,0H10.98C1.76,0,.12,19.03,0,37.49h443.03C443.39,19.03,442.29,0,431.63,0Z"/>
      <path class="cls-6" d="M7.16,37.49H0c0,.08,0,.16,0,.23,2.35-.08,4.74-.16,7.15-.23Z"/>
      <path class="cls-6" d="M8.91,37.43c.1-15.41,1.21-31.2,6.73-35.97C14.32.51,12.77,0,10.98,0,1.76,0,.13,19.03,0,37.49h7.15c.59-.02,1.17-.04,1.76-.06Z"/>
      <path class="cls-6" d="M431.63,0c-1.66,0-3.12.44-4.38,1.26,6.36,4.47,7.14,20.14,6.88,35.57,3,.08,5.97.16,8.91.24.34-18.32-.83-37.07-11.4-37.07Z"/>
    </g>
    <g id="g4886">
      <path d="M422.39,33.87c-104.78-10.66-286.31-7.99-401.81-.89-.02,1.33-.07,2.85-.13,4.51h402.02c-.04-1.3-.07-2.51-.08-3.62Z"/>
      <path d="M20.45,37.49c-.46,12.45-1.85,32.57-1.85,37.23,0,7.96,8.87,14.48,19.68,14.48h366.03c10.83,0,19.7-6.52,19.7-14.48,0-4.86-1.19-24.92-1.54-37.23H20.45Z"/>
      <path class="cls-3" d="M431.63,0H10.98C21.93,0,23.77,19.21,23.52,37.49h395.57C418.84,19.21,420.68,0,431.63,0Z"/>
      <path class="cls-3" d="M23.52,37.49c-.16,11.91-1.22,23.42-1.22,28.95,0,8.18,8.7,14.87,19.33,14.87h359.34c10.63,0,19.33-6.69,19.33-14.87,0-5.54-1.05-17.05-1.22-28.95H23.52Z"/>
      <path class="cls-4" d="M419.12,0H23.49C34.76,0,35.76,20.23,35.16,37.49h372.28C406.84,20.23,407.85,0,419.12,0Z"/>
      <path class="cls-4" d="M35.16,37.49c-.31,8.78-1.03,16.79-1.03,20.96,0,7.19,8.18,13.07,18.18,13.07h337.98c10,0,18.19-5.88,18.19-13.07,0-4.17-.72-12.18-1.03-20.96H35.16Z"/>
      <path class="cls-7" d="M400.97,78.73H41.64c-10.28,0-18.76-6.26-19.31-14.07-.01.65-.03,1.25-.03,1.78,0,8.18,8.7,14.87,19.33,14.87h359.34c10.63,0,19.33-6.69,19.33-14.87,0-.53-.01-1.13-.04-1.78-.55,7.81-9.01,14.07-19.29,14.07Z"/>
      <path class="cls-1" d="M204.75,60.51c-57.18-2.42-110.89-6.99-160.72-13.94-3.09-.43-6.18-.87-9.23-1.32-.03.49-.05.98-.08,1.45-.3,4.94-.59,9.11-.59,11.75,0,.7.08,1.39.23,2.06,1.38,6.22,8.92,11.01,17.94,11.01h337.98c8.78,0,16.15-4.52,17.82-10.49-71.7,2.25-139.68,2.19-203.36-.52Z"/>
      <path class="cls-5" d="M33.04,9.44c126.66-4.89,252.45-5.45,377.71-3.13,1.81-3.89,4.47-6.31,8.37-6.31H23.49c4.86,0,7.81,3.77,9.56,9.44Z"/>
    </g>
  </g>
</svg>