<?xml version="1.0" encoding="UTF-8"?>
<svg id="Layer_2" data-name="Layer 2" xmlns="http://www.w3.org/2000/svg" viewBox="0 0 74.31 75.02">
  <defs>
    <style>
      .cls-1, .cls-2, .cls-3, .cls-4, .cls-5, .cls-6, .cls-7, .cls-8, .cls-9, .cls-10, .cls-11, .cls-12, .cls-13, .cls-14, .cls-15, .cls-16 {
        fill-rule: evenodd;
      }

      .cls-1, .cls-17 {
        fill: none;
        stroke: #ffa900;
        stroke-miterlimit: 22.93;
        stroke-width: 1.06px;
      }

      .cls-2 {
        fill: #ffae0e;
      }

      .cls-3 {
        fill: #333;
        opacity: .2;
      }

      .cls-4 {
        fill: #fff;
      }

      .cls-5 {
        fill: #ffa900;
      }

      .cls-6 {
        fill: #ffb729;
      }

      .cls-7 {
        fill: #ffc24c;
      }

      .cls-8 {
        fill: #ffb930;
      }

      .cls-9 {
        fill: #ffc045;
      }

      .cls-10 {
        fill: #ffb015;
      }

      .cls-11 {
        fill: #e5e5e5;
      }

      .cls-12 {
        fill: #ffb423;
      }

      .cls-13 {
        fill: #ffab07;
      }

      .cls-14 {
        fill: #ffbd3e;
      }

      .cls-15 {
        fill: #ffb21c;
      }

      .cls-16 {
        fill: #ffbb37;
      }
    </style>
  </defs>
  <g id="Layer_1-2" data-name="Layer 1">
    <g>
      <g>
        <path class="cls-3" d="M42.61,1.32c-5.52-.76-9.77-.62-15.1,1.4-3.1,1.18-6.02,2.6-8.71,4.29C7.83,13.89.91,25.06.07,37.96c-.65,10.15,3.06,19.35,10.39,26.4,7.02,6.74,16.61,10.54,26.39,10.66,6.98,0,13.77-1.9,19.71-5.53,17.91-10.97,23.45-34.39,11.1-51.53-6.53-9.06-13.6-14.76-25.05-16.64Z"/>
        <path class="cls-4" d="M42.4.41c-5.3-.74-9.4-.6-14.51,1.36-2.98,1.15-5.78,2.53-8.37,4.17C8.96,12.63,2.31,23.48,1.51,36.02c-.63,9.86,2.94,18.8,9.99,25.66,6.74,6.56,15.97,10.24,25.37,10.36,6.71,0,13.24-1.84,18.95-5.38,17.22-10.67,22.54-33.42,10.67-50.08C60.21,7.78,53.41,2.23,42.4.41Z"/>
        <path class="cls-11" d="M41.5,6.65c-4.39-.65-7.78-.53-12.02,1.19-2.47,1.01-4.79,2.22-6.93,3.66-8.74,5.88-14.25,15.42-14.91,26.45-.52,8.67,2.43,16.53,8.27,22.56,5.59,5.76,13.23,9.01,21.01,9.11,5.56,0,10.96-1.62,15.69-4.73,14.26-9.38,18.67-29.38,8.84-44.03-5.2-7.74-10.83-12.62-19.95-14.22Z"/>
        <g>
          <path class="cls-5" d="M41.3,7.84c-4.19-.59-7.44-.48-11.48,1.08-7.2,2.76-13.09,7.3-16.98,14.03-3.7,6.31-5.11,15.14-2.9,22.2,1.33,4.27,3.72,8.07,6.91,11.18,5.34,5.19,12.64,8.11,20.08,8.2,15.73,0,28.51-12.75,28.51-28.52-.14-5.74-1.76-10.73-5.07-15.38-4.97-6.97-10.35-11.36-19.06-12.8Z"/>
          <g>
            <path class="cls-13" d="M41.83,11.21c-3.9-.45-7.3-.31-11.41,1.1-6.98,2.52-12.76,6.62-16.34,12.7-3.44,5.68-4.84,14.24-2.75,20.89,1.26,4.01,3.52,7.59,6.55,10.52,5.06,4.88,11.99,7.63,19.04,7.72,14.61,0,26.51-11.69,26.72-26.19.07-5.38-1.28-10.14-4.29-14.62-4.53-6.52-9.44-10.98-17.53-12.12Z"/>
            <path class="cls-2" d="M42.37,14.58c-3.6-.31-7.16-.15-11.34,1.13-6.76,2.27-12.43,5.93-15.69,11.38-3.17,5.04-4.58,13.34-2.6,19.57,1.19,3.76,3.33,7.12,6.2,9.86,4.79,4.57,11.34,7.15,18,7.23,13.49,0,24.51-10.63,24.92-23.86.29-5.02-.79-9.56-3.49-13.86-4.08-6.07-8.53-10.61-15.99-11.44Z"/>
            <path class="cls-10" d="M42.91,17.94c-3.3-.17-7.01.01-11.26,1.16-6.55,2.02-12.1,5.25-15.05,10.05-2.91,4.4-4.32,12.45-2.45,18.25,1.12,3.51,3.14,6.64,5.84,9.19,4.51,4.26,10.68,6.66,16.97,6.74,12.37,0,22.51-9.57,23.12-21.53.5-4.66-.3-8.97-2.7-13.1-3.63-5.61-7.62-10.23-14.46-10.77Z"/>
            <path class="cls-15" d="M43.44,21.32c-3-.03-6.87.18-11.19,1.18-6.33,1.78-11.77,4.57-14.4,8.72-2.64,3.76-4.05,11.55-2.3,16.94,1.06,3.25,2.95,6.16,5.48,8.53,4.24,3.96,10.03,6.19,15.93,6.26,11.25,0,20.5-8.52,21.32-19.2.72-4.3.19-8.38-1.91-12.34-3.19-5.16-6.71-9.86-12.93-10.09Z"/>
            <path class="cls-12" d="M43.98,24.68c-2.71.11-6.72.34-11.12,1.21-6.11,1.53-11.45,3.88-13.75,7.39-2.38,3.13-3.79,10.65-2.15,15.62.99,3,2.76,5.68,5.13,7.87,3.96,3.65,9.38,5.7,14.9,5.77,10.13,0,18.5-7.46,19.51-16.87.94-3.94.68-7.8-1.12-11.58-2.74-4.71-5.8-9.49-11.39-9.41Z"/>
            <path class="cls-6" d="M44.51,28.05c-2.41.25-6.58.5-11.04,1.24-5.89,1.28-11.12,3.2-13.11,6.07-2.11,2.49-3.53,9.75-2,14.31.92,2.75,2.56,5.2,4.77,7.2,3.69,3.34,8.73,5.23,13.86,5.29,9,0,16.5-6.4,17.72-14.54,1.15-3.59,1.17-7.21-.34-10.82-2.29-4.26-4.89-9.11-9.86-8.74Z"/>
            <path class="cls-8" d="M45.05,31.42c-2.11.39-6.44.67-10.97,1.26-5.68,1.04-10.79,2.51-12.46,4.74-1.85,1.85-3.26,8.86-1.85,12.99.85,2.5,2.37,4.72,4.42,6.54,3.41,3.03,8.07,4.74,12.82,4.8,7.88,0,14.5-5.34,15.92-12.22,1.37-3.23,1.66-6.62.45-10.06-1.85-3.81-3.98-8.74-8.33-8.06Z"/>
            <path class="cls-16" d="M45.58,34.79c-1.82.53-6.3.83-10.89,1.29-5.46.79-10.47,1.83-11.82,3.41-1.58,1.22-3,7.96-1.7,11.67.78,2.24,2.18,4.24,4.06,5.88,3.14,2.73,7.42,4.26,11.79,4.31,6.76,0,12.49-4.28,14.12-9.89,1.58-2.87,2.15-6.04,1.24-9.3-1.4-3.35-3.07-8.36-6.79-7.38Z"/>
            <path class="cls-14" d="M46.12,38.16c-1.52.66-6.15.99-10.82,1.32-5.24.54-10.14,1.15-11.17,2.09-1.32.58-2.73,7.06-1.55,10.36.71,1.99,1.99,3.77,3.7,5.22,2.86,2.42,6.77,3.78,10.75,3.83,5.64,0,10.49-3.23,12.32-7.56,1.8-2.51,2.64-5.45,2.03-8.54-.96-2.9-2.16-7.99-5.26-6.7Z"/>
            <path class="cls-9" d="M46.65,41.53c-1.22.81-6.01,1.16-10.75,1.35-5.03.3-9.81.46-10.52.76-1.06-.06-2.47,6.16-1.41,9.04.64,1.74,1.8,3.29,3.35,4.55,2.58,2.11,6.12,3.3,9.72,3.34,4.52,0,8.49-2.17,10.52-5.23,2.02-2.15,3.12-4.86,2.83-7.78-.51-2.45-1.26-7.61-3.73-6.03Z"/>
          </g>
          <path class="cls-7" d="M47.19,44.9c-1.85,1.89-19.76,1.5-20.55.8-.79-.7-2.21,5.27-1.25,7.72.58,1.48,1.61,2.81,2.99,3.89,2.31,1.8,5.47,2.82,8.68,2.85,6.8,0,12.33-4.44,12.33-9.92-.06-2-.35-7.24-2.2-5.35Z"/>
        </g>
        <path class="cls-7" d="M36.93,9.46c-25.96-.09-29.87,34.11-17.86,27.59,8.33-4.52,29.05-3.57,36.92,0,10.52,4.78,9.13-27.5-19.07-27.59Z"/>
        <path class="cls-7" d="M36.93,56.46c-11.14-.14-21.38-6.45-25.84-16.76-1.04-2.4-1.42-4.77-1.52-7.37-1.59,10.02,1.26,18.66,9.08,25.28,5.24,4.44,11.44,6.61,18.27,6.69,15.62,0,28.29-12.66,28.29-28.29-.01-1.37-.09-2.56-.27-3.92-2.09,14.16-13.72,24.18-28.01,24.36Z"/>
        <path class="cls-4" d="M21.64,14.65c-.54.42-1.04.81-1.56,1.26-2.18,1.88-4.47,4.26-3.75,6.59,1.38,1.43,4.44.14,5.65-.94,2.39-2.13,2.84-2.41,5.66-3.9,1.47-.78,4.06-3.89,3.1-5.69-1.04-1.43-5.12-.23-9.09,2.68Z"/>
        <path class="cls-4" d="M15.13,23.77c-1.58,0-2.85,1.27-2.85,2.83s1.28,2.82,2.85,2.82,2.86-1.26,2.86-2.82-1.28-2.83-2.86-2.83Z"/>
        <path class="cls-4" d="M52.02,52.87c-1.58,0-2.85,1.26-2.85,2.82s1.28,2.82,2.85,2.82,2.86-1.26,2.86-2.82-1.28-2.82-2.86-2.82Z"/>
      </g>
      <g>
        <g>
          <circle class="cls-17" cx="37.15" cy="30.58" r="3.82" transform="translate(-3.55 4.92) rotate(-7.23)"/>
          <rect class="cls-17" x="34.03" y="36.12" width="6.24" height="14.21" rx="1.43" ry="1.43"/>
          <path class="cls-1" d="M37.15,25.44c-7.25,0-13.13,5.88-13.13,13.13s5.88,13.13,13.13,13.13,13.13-5.88,13.13-13.13-5.88-13.13-13.13-13.13ZM40.28,48.91c0,.79-.64,1.43-1.43,1.43h-3.38c-.79,0-1.43-.64-1.43-1.43v-11.35c0-.79.64-1.43,1.43-1.43h3.38c.79,0,1.43.64,1.43,1.43v11.35ZM37.15,34.4c-2.11,0-3.82-1.71-3.82-3.82s1.71-3.82,3.82-3.82,3.82,1.71,3.82,3.82-1.71,3.82-3.82,3.82Z"/>
          <path class="cls-1" d="M37.15,21.33c-9.53,0-17.25,7.72-17.25,17.25s7.72,17.25,17.25,17.25,17.25-7.72,17.25-17.25-7.72-17.25-17.25-17.25ZM37.15,51.7c-7.25,0-13.13-5.88-13.13-13.13s5.88-13.13,13.13-13.13,13.13,5.88,13.13,13.13-5.88,13.13-13.13,13.13Z"/>
          <path class="cls-5" d="M38.84,36.12h-1.69v14.21h1.69c.79,0,1.43-.64,1.43-1.43v-11.35c0-.79-.64-1.43-1.43-1.43Z"/>
          <path class="cls-5" d="M35.46,36.12c-.79,0-1.43.64-1.43,1.43v11.35c0,.79.64,1.43,1.43,1.43h1.69v-14.21h-1.69Z"/>
          <path class="cls-5" d="M40.98,30.58c0-2.11-1.71-3.82-3.82-3.82v7.64c2.11,0,3.82-1.71,3.82-3.82Z"/>
          <path class="cls-5" d="M37.15,21.33v4.12c7.25,0,13.13,5.88,13.13,13.13s-5.88,13.13-13.13,13.13v4.12c9.53,0,17.25-7.72,17.25-17.25s-7.72-17.25-17.25-17.25Z"/>
          <path class="cls-5" d="M24.02,38.57c0-7.25,5.88-13.13,13.13-13.13v-4.12c-9.53,0-17.25,7.72-17.25,17.25s7.72,17.25,17.25,17.25v-4.12c-7.25,0-13.13-5.88-13.13-13.13Z"/>
          <path class="cls-5" d="M37.15,34.4v-7.64c-2.11,0-3.82,1.71-3.82,3.82s1.71,3.82,3.82,3.82Z"/>
        </g>
        <g>
          <g>
            <path class="cls-17" d="M35.46,34h3.38c.79,0,1.43.64,1.43,1.43v11.35c0,.79-.64,1.43-1.43,1.43h-3.38c-.79,0-1.43-.64-1.43-1.43v-11.35c0-.79.64-1.43,1.43-1.43Z"/>
            <path class="cls-1" d="M37.15,24.63c-2.11,0-3.82,1.71-3.82,3.82s1.71,3.82,3.82,3.82,3.82-1.71,3.82-3.82-1.71-3.82-3.82-3.82Z"/>
            <path class="cls-1" d="M37.15,23.32c-7.25,0-13.13,5.88-13.13,13.13s5.88,13.13,13.13,13.13,13.13-5.88,13.13-13.13-5.88-13.13-13.13-13.13ZM40.28,46.78c0,.79-.64,1.43-1.43,1.43h-3.38c-.79,0-1.43-.64-1.43-1.43v-11.35c0-.79.64-1.43,1.43-1.43h3.38c.79,0,1.43.64,1.43,1.43v11.35ZM37.15,32.28c-2.11,0-3.82-1.71-3.82-3.82s1.71-3.82,3.82-3.82,3.82,1.71,3.82,3.82-1.71,3.82-3.82,3.82Z"/>
            <path class="cls-1" d="M37.15,19.2c-9.53,0-17.25,7.72-17.25,17.25s7.72,17.25,17.25,17.25,17.25-7.72,17.25-17.25-7.72-17.25-17.25-17.25ZM37.15,49.58c-7.25,0-13.13-5.88-13.13-13.13s5.88-13.13,13.13-13.13,13.13,5.88,13.13,13.13-5.88,13.13-13.13,13.13Z"/>
            <path class="cls-11" d="M38.84,34h-1.69v14.21h1.69c.79,0,1.43-.64,1.43-1.43v-11.35c0-.79-.64-1.43-1.43-1.43Z"/>
            <path class="cls-11" d="M40.98,28.45c0-2.11-1.71-3.82-3.82-3.82v7.64c2.11,0,3.82-1.71,3.82-3.82Z"/>
            <path class="cls-11" d="M35.46,34c-.79,0-1.43.64-1.43,1.43v11.35c0,.79.64,1.43,1.43,1.43h1.69v-14.21h-1.69Z"/>
            <path class="cls-11" d="M37.15,19.2v4.12c7.25,0,13.13,5.88,13.13,13.13s-5.88,13.13-13.13,13.13v4.12c9.53,0,17.25-7.72,17.25-17.25s-7.72-17.25-17.25-17.25Z"/>
            <path class="cls-11" d="M37.15,32.28v-7.64c-2.11,0-3.82,1.71-3.82,3.82s1.71,3.82,3.82,3.82Z"/>
            <path class="cls-11" d="M24.02,36.45c0-7.25,5.88-13.13,13.13-13.13v-4.12c-9.53,0-17.25,7.72-17.25,17.25s7.72,17.25,17.25,17.25v-4.12c-7.25,0-13.13-5.88-13.13-13.13Z"/>
          </g>
          <path class="cls-4" d="M35.24,34.02v14.18c.07.01.14.02.22.02h1.69v-14.22h-1.69c-.08,0-.15,0-.22.02Z"/>
          <path class="cls-4" d="M33.33,28.45c0,1.42.77,2.65,1.91,3.31v-6.62c-1.14.66-1.91,1.9-1.91,3.31Z"/>
          <path class="cls-4" d="M34.03,35.43v11.35c0,.71.53,1.31,1.21,1.41v-14.18c-.68.11-1.21.7-1.21,1.42Z"/>
          <path class="cls-4" d="M35.24,23.46c.62-.09,1.26-.14,1.91-.14v-4.12c-.65,0-1.28.04-1.91.11v4.15Z"/>
          <path class="cls-4" d="M19.91,36.45c0,8.88,6.71,16.19,15.34,17.14v-4.15c-6.35-.93-11.22-6.39-11.22-12.99s4.87-12.07,11.22-12.99v-4.15c-8.63.95-15.34,8.26-15.34,17.14Z"/>
          <path class="cls-4" d="M37.15,53.7v-4.12c-.65,0-1.29-.05-1.91-.14v4.15c.63.07,1.26.11,1.91.11Z"/>
          <path class="cls-4" d="M35.24,31.77c.56.33,1.21.51,1.91.51v-7.64c-.69,0-1.35.19-1.91.51v6.62Z"/>
        </g>
      </g>
    </g>
  </g>
</svg>