<?xml version="1.0" encoding="UTF-8"?>
<svg id="Layer_1" data-name="Layer 1" xmlns="http://www.w3.org/2000/svg" viewBox="0 0 999.27 808.06">
  <defs>
    <style>
      .cls-1 {
        fill: #efcf6f;
      }

      .cls-2 {
        fill: #f5e3a9;
      }

      .cls-3 {
        fill: #94dd2f;
      }

      .cls-4 {
        fill: #497214;
      }

      .cls-5 {
        fill: #fff;
      }

      .cls-6 {
        fill: #faeecc;
      }

      .cls-7 {
        fill: #a5e24d;
      }

      .cls-8 {
        fill: #c0eb85;
      }

      .cls-9 {
        fill: #f3db95;
      }

      .cls-10 {
        fill: #ccc;
      }

      .cls-11 {
        fill: #e6e6e6;
      }
    </style>
  </defs>
  <g id="_2674317511344" data-name=" 2674317511344">
    <path class="cls-4" d="M718.73,0h-445.35c-14.21,0-11.4,55.52-11.4,83.29h468.15c0-27.77,5.03-83.29-11.4-83.29Z"/>
    <path class="cls-10" d="M261.76,51.91c3.1-.13,6.25-.27,9.43-.4.11-21.2,1.29-42.94,7.14-49.51-1.41-1.3-3.05-2-4.95-2-9.8,0-11.51,26.41-11.62,51.91Z"/>
    <path class="cls-10" d="M718.73,0c-1.76,0-3.3.6-4.64,1.73,6.74,6.15,7.57,27.72,7.29,48.96,3.18.1,6.32.22,9.43.33.35-25.22-.88-51.02-12.08-51.02Z"/>
  </g>
  <g id="_2674317510320" data-name=" 2674317510320">
    <path d="M925.41,68.69c-107.3-16.47-744.26-16.47-851.55,0C36.91,74.37,8.19,105.35,5.81,143.31c-7.92,126.43-7.75,470.49.55,589.35,2.28,32.65,28.88,62.62,59.51,70.86,22.49,6.05,845.04,6.05,867.53,0,30.62-8.24,57.23-38.21,59.51-70.86,8.3-118.86,8.47-462.92.55-589.35-2.38-37.96-31.1-68.94-68.05-74.62Z"/>
    <path class="cls-5" d="M923.64,59.8c-106.85-16.47-741.16-16.47-848.01,0C38.83,65.47,10.23,96.46,7.86,134.42-.02,260.85.14,604.91,8.41,723.77c2.27,32.65,28.77,62.62,59.26,70.86,22.4,6.05,841.53,6.05,863.93,0,30.49-8.24,56.99-38.21,59.26-70.86,8.27-118.86,8.44-462.92.55-589.35-2.37-37.96-30.97-68.95-67.77-74.62Z"/>
    <path class="cls-2" d="M913.66,65.74c-103.79-16-724.27-16-828.05,0-35.75,5.51-63.53,35.61-65.83,72.48-7.67,122.81-7.5,459.1.53,574.56,2.21,31.72,27.94,60.83,57.57,68.83,21.75,5.88,821.76,5.88,843.51,0,29.63-8,55.36-37.11,57.57-68.83,8.03-115.45,8.2-451.75.53-574.56-2.3-36.87-30.08-66.97-65.83-72.48Z"/>
    <path class="cls-1" d="M965.75,686.34c-2.2,31.72-27.94,60.83-57.57,68.83-21.75,5.88-800.8,6.72-822.56.84-29.62-8.01-55.36-37.11-57.56-68.84-6.43-92.4-12.78-353-11.13-487.24-4.6,134.69-3.48,414.21,3.38,512.85,2.21,31.72,27.95,60.83,57.57,68.83,21.75,5.88,821.76,5.88,843.51,0,29.63-8,55.36-37.11,57.57-68.83,7.17-103.13,8.07-397.2,2.72-530.78,1.25,134.75-9.21,407.76-15.93,504.34Z"/>
    <path class="cls-6" d="M965.75,686.34c-2.2,31.72-27.94,60.83-57.57,68.83-21.75,5.88-800.8,6.72-822.56.84-29.62-8.01-55.36-37.11-57.56-68.84-5.7-81.94-11.34-311.7-11.4-439.8v.04c-.05,128.75,5.64,360.72,11.4,443.44,2.2,31.72,27.94,60.83,57.56,68.83,21.76,5.88,800.81,5.04,822.56-.83,29.63-8.01,55.37-37.12,57.57-68.84,6.37-91.65,16.12-349.41,16.03-483.19-.09,133.47-9.72,388.71-16.03,479.52Z"/>
    <path class="cls-9" d="M24.93,634.6c1.02,19.66,2.08,37.4,3.13,52.57,2.2,31.73,27.94,60.83,57.56,68.84,21.76,5.88,800.81,5.04,822.56-.84,29.63-8,55.37-37.11,57.57-68.83.32-4.62.65-9.48.99-14.57-235.77,66.27-655.2,40.24-941.81-37.17Z"/>
    <path class="cls-6" d="M979.49,138.22c-2.3-36.87-30.08-66.97-65.83-72.48-103.79-16-724.27-16-828.05,0-35.75,5.51-63.53,35.61-65.83,72.48-1.12,17.89-2.07,38.75-2.85,61.71-.05,4.19-.1,8.43-.13,12.72.81-24.5,1.8-46.72,2.98-65.61,1.17-18.79,8.96-35.81,21.04-48.72-1.86,4.36-2.14,8.67-.44,12.41,4.66,10.28,22.41,12.28,39.65,4.47,17.24-7.81,27.44-22.48,22.78-32.76-2.02-4.47-6.52-7.37-12.36-8.59,112.72-15.3,720.96-15.07,823.21.7,35.75,5.51,63.53,35.61,65.83,72.49.85,13.61,1.6,28.96,2.26,45.64-.01-3.6-.04-7.16-.07-10.68-.64-15.96-1.37-30.67-2.19-43.78Z"/>
    <path class="cls-11" d="M931.6,790.1c-22.4,6.05-841.53,6.05-863.93,0-30.49-8.25-56.99-38.21-59.26-70.87-4.2-60.37-6.31-160.05-6.34-260.1v.48c-.03,101.41,2.08,202.97,6.34,264.15,2.27,32.66,28.76,62.63,59.26,70.87,22.4,6.05,841.53,6.05,863.93,0,30.49-8.24,56.99-38.21,59.26-70.87,4.26-61.28,6.37-163.07,6.34-264.63-.03,100.05-2.14,199.73-6.34,260.1-2.27,32.66-28.77,62.62-59.26,70.87Z"/>
  </g>
  <g id="g2128">
    <path d="M282.7,49.48c-.21,15.59-1.25,46.1-1.25,53.36,0,10.96,9.38,19.93,20.85,19.93h387.52c11.46,0,20.84-8.97,20.84-19.93,0-7.38-1.12-37.63-1.31-53.5-128.52-4.03-304.15-4.41-426.65.14Z"/>
    <path class="cls-5" d="M273.38,0c19.15,0,11.99,72.12,11.99,91.45,0,11.26,9.21,20.46,20.47,20.46h380.44c11.25,0,20.46-9.2,20.46-20.46,0-19.33-7.16-91.45,11.99-91.45h-445.35Z"/>
    <path class="cls-7" d="M286.62,0c18.01,0,11.28,63.44,11.28,80.44,0,9.9,8.66,18,19.24,18h357.83c10.58,0,19.24-8.1,19.24-18,0-17-6.73-80.44,11.28-80.44h-418.87Z"/>
    <path class="cls-11" d="M686.28,108.36h-380.44c-10.89,0-19.86-8.61-20.44-19.36-.02.89-.03,1.71-.03,2.45,0,11.26,9.21,20.46,20.47,20.46h380.44c11.25,0,20.46-9.2,20.46-20.46,0-.74,0-1.56-.03-2.45-.58,10.75-9.55,19.36-20.43,19.36Z"/>
    <path class="cls-3" d="M478.53,83.29c-60.53-3.34-117.4-9.62-170.16-19.19-3.27-.59-6.53-1.2-9.77-1.82-.03.68-.06,1.34-.09,2-.31,6.79-.61,12.53-.61,16.16,0,.97.08,1.92.24,2.85,1.47,8.56,9.45,15.15,19,15.15h357.83c9.28,0,17.09-6.23,18.87-14.44-75.91,3.09-147.89,3.01-215.31-.71Z"/>
    <path class="cls-8" d="M296.74,12.99c134.09-6.74,267.28-7.5,399.89-4.31,1.9-5.35,4.73-8.68,8.86-8.68h-418.87c5.15,0,8.28,5.19,10.12,12.99Z"/>
  </g>
</svg>