<?xml version="1.0" encoding="UTF-8"?>
<svg id="Layer_1" data-name="Layer 1" xmlns="http://www.w3.org/2000/svg" viewBox="0 0 999.27 760.61">
  <defs>
    <style>
      .cls-1 {
        fill: #efcf6f;
      }

      .cls-2 {
        fill: #f5e3a9;
      }

      .cls-3 {
        fill: #fff;
      }

      .cls-4 {
        fill: #faeecc;
      }

      .cls-5 {
        fill: #f3db95;
      }

      .cls-6 {
        fill: #e6e6e6;
      }
    </style>
  </defs>
  <g id="_2674317510320" data-name=" 2674317510320">
    <path d="M925.41,21.24C818.11,4.77,181.15,4.77,73.86,21.24,36.91,26.92,8.19,57.9,5.81,95.86c-7.92,126.43-7.75,470.49.55,589.35,2.28,32.65,28.88,62.62,59.51,70.86,22.49,6.05,845.04,6.05,867.53,0,30.62-8.24,57.23-38.21,59.51-70.86,8.3-118.86,8.47-462.92.55-589.35-2.38-37.96-31.1-68.94-68.05-74.62h0Z"/>
    <path class="cls-3" d="M923.64,12.35C816.79-4.12,182.48-4.12,75.63,12.35,38.83,18.02,10.23,49.01,7.86,86.97-.02,213.4.14,557.46,8.41,676.32c2.27,32.65,28.77,62.62,59.26,70.86,22.4,6.05,841.53,6.05,863.93,0,30.49-8.24,56.99-38.21,59.26-70.86,8.27-118.86,8.44-462.92.55-589.35-2.37-37.96-30.97-68.95-67.77-74.62h0Z"/>
    <path class="cls-2" d="M913.66,18.29C809.87,2.29,189.39,2.29,85.61,18.29,49.86,23.8,22.08,53.9,19.78,90.77c-7.67,122.81-7.5,459.1.53,574.56,2.21,31.72,27.94,60.83,57.57,68.83,21.75,5.88,821.76,5.88,843.51,0,29.63-8,55.36-37.11,57.57-68.83,8.03-115.45,8.2-451.75.53-574.56-2.3-36.87-30.08-66.97-65.83-72.48h0Z"/>
    <path class="cls-1" d="M965.75,638.89c-2.2,31.72-27.94,60.83-57.57,68.83-21.75,5.88-800.8,6.72-822.56.84-29.62-8.01-55.36-37.11-57.56-68.84-6.43-92.4-12.78-353-11.13-487.24-4.6,134.69-3.48,414.21,3.38,512.85,2.21,31.72,27.95,60.83,57.57,68.83,21.75,5.88,821.76,5.88,843.51,0,29.63-8,55.36-37.11,57.57-68.83,7.17-103.13,8.07-397.2,2.72-530.78,1.25,134.75-9.21,407.76-15.93,504.34h0Z"/>
    <path class="cls-4" d="M965.75,638.89c-2.2,31.72-27.94,60.83-57.57,68.83-21.75,5.88-800.8,6.72-822.56.84-29.62-8.01-55.36-37.11-57.56-68.84-5.7-81.94-11.34-311.7-11.4-439.8v.04c-.05,128.75,5.64,360.72,11.4,443.44,2.2,31.72,27.94,60.83,57.56,68.83,21.76,5.88,800.81,5.04,822.56-.83,29.63-8.01,55.37-37.12,57.57-68.84,6.37-91.65,16.12-349.41,16.03-483.19-.09,133.47-9.72,388.71-16.03,479.52h0Z"/>
    <path class="cls-5" d="M24.93,587.15c1.02,19.66,2.08,37.4,3.13,52.57,2.2,31.73,27.94,60.83,57.56,68.84,21.76,5.88,800.81,5.04,822.56-.84,29.63-8,55.37-37.11,57.57-68.83.32-4.62.65-9.48.99-14.57-235.77,66.27-655.2,40.24-941.81-37.17Z"/>
    <path class="cls-4" d="M979.49,90.77c-2.3-36.87-30.08-66.97-65.83-72.48C809.87,2.29,189.39,2.29,85.61,18.29,49.86,23.8,22.08,53.9,19.78,90.77c-1.12,17.89-2.07,38.75-2.85,61.71-.05,4.19-.1,8.43-.13,12.72.81-24.5,1.8-46.72,2.98-65.61,1.17-18.79,8.96-35.81,21.04-48.72-1.86,4.36-2.14,8.67-.44,12.41,4.66,10.28,22.41,12.28,39.65,4.47s27.44-22.48,22.78-32.76c-2.02-4.47-6.52-7.37-12.36-8.59,112.72-15.3,720.96-15.07,823.21.7,35.75,5.51,63.53,35.61,65.83,72.49.85,13.61,1.6,28.96,2.26,45.64-.01-3.6-.04-7.16-.07-10.68-.64-15.96-1.37-30.67-2.19-43.78h0Z"/>
    <path class="cls-6" d="M931.6,742.65c-22.4,6.05-841.53,6.05-863.93,0-30.49-8.25-56.99-38.21-59.26-70.87-4.2-60.37-6.31-160.05-6.34-260.1v.48c-.03,101.41,2.08,202.97,6.34,264.15,2.27,32.66,28.76,62.63,59.26,70.87,22.4,6.05,841.53,6.05,863.93,0,30.49-8.24,56.99-38.21,59.26-70.87,4.26-61.28,6.37-163.07,6.34-264.63-.03,100.05-2.14,199.73-6.34,260.1-2.27,32.66-28.77,62.62-59.26,70.87Z"/>
  </g>
</svg>