<?xml version="1.0" encoding="UTF-8"?>
<svg id="Layer_2" data-name="Layer 2" xmlns="http://www.w3.org/2000/svg" viewBox="0 0 463.52 129.24">
  <defs>
    <style>
      .cls-1 {
        fill: #ffb700;
      }

      .cls-2 {
        fill: #62ddfc;
      }

      .cls-3 {
        fill: #fff;
      }

      .cls-4 {
        fill: #e5a1d8;
      }

      .cls-5 {
        fill: #fff1af;
      }

      .cls-6 {
        fill: #fec230;
      }

      .cls-7 {
        fill: #7f4274;
      }

      .cls-8 {
        fill: #c9f0fe;
      }

      .cls-9 {
        fill: #ffe02f;
      }

      .cls-10 {
        fill: #00abf2;
      }

      .cls-11 {
        fill: #ce7bbc;
      }

      .cls-12 {
        fill: #0092d1;
      }

      .cls-13 {
        fill: #d49800;
      }

      .cls-14 {
        fill: #fbc700;
      }

      .cls-15 {
        fill: #00c2fb;
      }

      .cls-16 {
        fill: #9be8fd;
      }

      .cls-17 {
        fill: #ffe558;
      }

      .cls-18 {
        fill: #e6e6e6;
      }

      .cls-19 {
        fill: #c464b0;
      }
    </style>
  </defs>
  <g id="Knowledge">
    <g>
      <g id="g6380">
        <path d="M435.99,35.25H77.72c-22.58,0-27.61,22.36-27.54,44.6.08,21.99,3.08,43.85,27.54,43.85h358.27c24.46,0,27.46-21.86,27.53-43.85.08-22.23-4.95-44.6-27.53-44.6Z"/>
        <path class="cls-3" d="M435.99,30.87H77.72c-22.58,0-27.61,22.37-27.54,44.61.08,21.98,3.08,43.84,27.54,43.84h358.27c24.46,0,27.46-21.86,27.53-43.84.08-22.24-4.95-44.61-27.53-44.61Z"/>
        <path class="cls-6" d="M428.18,37.18H85.53c-20.9,0-25.56,17.88-25.49,35.65.07,17.56,2.84,35.04,25.49,35.04h342.65c22.65,0,25.42-17.48,25.49-35.04.07-17.77-4.59-35.65-25.49-35.65Z"/>
        <path class="cls-18" d="M435.99,116.15H77.72c-24.01,0-27.34-21.08-27.53-42.65v.02c-.01.65-.01,1.31-.01,1.96.08,21.98,3.08,43.84,27.54,43.84h358.27c24.46,0,27.46-21.86,27.53-43.84,0-.66,0-1.32,0-1.98-.19,21.57-3.52,42.65-27.53,42.65Z"/>
        <path class="cls-17" d="M428.17,100.64H85.53c-21.11,0-24.96-15.18-25.44-31.48-.04,1.22-.06,2.45-.05,3.67.06,17.57,2.84,35.04,25.49,35.04h342.64c22.66,0,25.44-17.47,25.5-35.04,0-1.22-.01-2.45-.06-3.67-.48,16.3-4.32,31.48-25.44,31.48Z"/>
        <path class="cls-13" d="M428.17,101.3H85.53c-21.11,0-24.96-15.18-25.44-31.48-.03.95-.05,1.91-.05,2.86v.15c0,17.56,2.84,35.04,25.49,35.04h342.64c22.66,0,25.43-17.47,25.5-35.04v-.15c0-.95-.02-1.9-.06-2.86-.48,16.3-4.32,31.48-25.44,31.48Z"/>
        <path class="cls-1" d="M62.05,84.04c2.76,9.6,9.14,16.6,23.48,16.6h342.64c14.9,0,21.2-7.55,23.79-17.72-102.49,10.35-332.22,11.26-389.91,1.12Z"/>
        <path class="cls-17" d="M432.19,37.42c-1.27-.16-2.61-.24-4.02-.24H85.53c-1.4,0-2.74.08-4.01.24-16.21,2.01-20.88,16.45-21.43,31.74.02.53.04,1.06.06,1.59.84-15.97,6.44-30.65,25.38-30.65h342.64c18.95,0,24.55,14.68,25.39,30.65.02-.53.04-1.06.05-1.59-.54-15.29-5.22-29.73-21.42-31.74Z"/>
        <path class="cls-13" d="M429.72,45.25H137.86c-12.84,0-15.7,12.73-15.65,25.38.04,12.51,1.74,24.95,15.65,24.95h291.86c13.9,0,15.61-12.44,15.65-24.95.04-12.65-2.82-25.38-15.65-25.38Z"/>
        <path class="cls-17" d="M429.72,48.11H137.86c-12.84,0-15.7,12-15.65,23.94.04,11.79,1.74,23.53,15.65,23.53h291.86c13.9,0,15.61-11.74,15.65-23.53.04-11.93-2.82-23.94-15.65-23.94Z"/>
        <path class="cls-1" d="M429.72,48.11H137.86c-12.84,0-15.7,11.34-15.65,22.62.04,11.15,1.74,22.24,15.65,22.24h291.86c13.9,0,15.61-11.09,15.65-22.24.04-11.27-2.82-22.62-15.65-22.62Z"/>
      </g>
      <g id="g6470">
        <path class="cls-7" d="M423.85,50.69H143.72c-14.95,0-16.6,8.12-16.6,19.6,0,10.78,1.98,19.6,16.6,19.6h280.13c14.62,0,16.6-8.82,16.6-19.6,0-11.48-1.65-19.6-16.6-19.6Z"/>
        <path class="cls-4" d="M423.85,51.8H143.72c-13.48,0-16.15,6.6-16.54,16.32.41,9.4,3.27,16.66,16.54,16.66h280.13c13.26,0,16.12-7.26,16.54-16.66-.39-9.72-3.06-16.32-16.54-16.32Z"/>
        <path class="cls-19" d="M423.85,50.69H143.72c-13.48,0-16.15,6.6-16.54,16.32.41,9.4,3.27,16.66,16.54,16.66h280.13c13.26,0,16.12-7.26,16.54-16.66-.39-9.72-3.06-16.32-16.54-16.32Z"/>
        <path class="cls-11" d="M423.85,56.12H143.72c-13.48,0-16.15,4.42-16.54,10.94.41,6.31,3.27,11.19,16.54,11.19h280.13c13.26,0,16.12-4.88,16.54-11.19-.39-6.52-3.06-10.94-16.54-10.94Z"/>
        <path class="cls-4" d="M423.85,50.69H143.72c-13.48,0-16.15,6.6-16.54,16.32.05-.73.12-1.42.23-2.09.91-5.33,4.37-8.8,16.31-8.8h280.13c11.94,0,15.4,3.47,16.31,8.8.11.67.18,1.36.23,2.09-.39-9.72-3.06-16.32-16.54-16.32Z"/>
      </g>
    </g>
    <g>
      <g>
        <path class="cls-18" d="M58,129.24c-5.04,0-9.64-2.46-12.42-6.62h-23.99l-4.85-1.89-3.37-5.5v-14.16l2.21-6.07h74.62v-41.06l6.61-8.67h7.53c5.33,0,9.67,4.34,9.67,9.67v58.01c0,5.33-4.34,9.67-9.67,9.67h-33.91c-2.79,4.16-7.38,6.62-12.42,6.62Z"/>
        <path class="cls-18" d="M11.67,122.62c-5.33,0-9.67-4.34-9.67-9.67v-58.01c0-5.33,4.34-9.67,9.67-9.67h7.4l5.25,6.4v43.33h1.91v17.95c0-1.29-1.05-2.33-2.33-2.33v12h-12.23Z"/>
        <path class="cls-18" d="M49.54,106.85v-28.26l8.97-19.62,13.08-18.97,6.81-4.5,2.47-.03c6.36,0,12.7,1.04,18.82,3.1,3.63,1.22,6.08,4.61,6.08,8.44v58.4c0,2.18-.86,4.21-2.42,5.73-1.5,1.46-3.48,2.26-5.58,2.26h0c-.84,0-1.67-.13-2.47-.39-4.72-1.52-9.58-2.29-14.44-2.29-7.05,0-13.86,1.58-20.23,4.7l-5.23,2.56-5.86-11.12Z"/>
        <path class="cls-18" d="M55.36,115.42c-6.37-3.12-13.18-4.7-20.23-4.7-2.54,0-5.11.21-7.64.64l-1.57.26-8.02-2.97V40.99l6.93-4.61,1.3-.2c2.98-.46,6.01-.7,9-.7l1.89.02,6.2,2.63,11.45,11.56v8.72l3.58,4.97v8.76l5.75,6.47v41.05l-8.64-4.22Z"/>
        <path class="cls-18" d="M18.22,113.4c-4.41,0-7.99-3.58-7.99-7.99v-58.4c0-3.83,2.44-7.22,6.08-8.44,3.2-1.08,6.51-1.89,9.82-2.4l19.61-3.06-13.66,12.52v57.22l5.27,6.86-9.87,1.65c-2.29.38-4.57.94-6.8,1.66-.8.26-1.63.39-2.47.39h0Z"/>
        <path class="cls-18" d="M47.44,55.29l-2.29-3.17-6.1-9.7-1.32-9.16.16-.93c.41-2.41.78-5.05.88-6.23-.56-3.19.64-4.79,8.01-12.85l.28-.31,8.78-7.24h8.52l.71.18c13.16,3.26,22.33,15,22.28,28.55-.03,8.54-3.76,16.62-10.25,22.18-.18.15-.29.42-.29.7v3.46c0,5.83-4.75,10.58-10.58,10.58h-3.63l-.37-.16-.31.16h-7.91l-.32-.16-6.26,2.77v-18.65Z"/>
        <path class="cls-18" d="M53.69,71.17l-.37.16h-3.57c-5.83,0-10.58-4.75-10.58-10.58v-3.46c0-.29-.11-.55-.29-.7-6.49-5.56-10.23-13.64-10.25-22.18-.05-15.99,12.92-29.18,28.9-29.4h.42c2.41,0,4.8.29,7.12.86v11.65c-7.64,1.91-13.17,9-13.15,16.86.02,5,2.2,9.75,5.98,13.03l2.07,1.79v25.14s-6.29-3.17-6.29-3.17Z"/>
      </g>
      <g>
        <path class="cls-3" d="M56,124.24c-5.04,0-9.64-2.46-12.42-6.62h-23.99l-4.85-1.89-3.37-5.5v-14.16l2.21-6.07h74.62v-41.06l6.61-8.67h7.53c5.33,0,9.67,4.34,9.67,9.67v58.01c0,5.33-4.34,9.67-9.67,9.67h-33.91c-2.79,4.16-7.38,6.62-12.42,6.62Z"/>
        <path class="cls-3" d="M9.67,117.62c-5.33,0-9.67-4.34-9.67-9.67v-58.01c0-5.33,4.34-9.67,9.67-9.67h7.4l5.25,6.4v43.33h1.91v17.95c0-1.29-1.05-2.33-2.33-2.33v12h-12.23Z"/>
        <path class="cls-3" d="M47.54,101.85v-28.26l8.97-19.62,13.08-18.97,6.81-4.5,2.47-.03c6.36,0,12.7,1.04,18.82,3.1,3.63,1.22,6.08,4.61,6.08,8.44v58.4c0,2.18-.86,4.21-2.42,5.73-1.5,1.46-3.48,2.26-5.58,2.26h0c-.84,0-1.67-.13-2.47-.39-4.72-1.52-9.58-2.29-14.44-2.29-7.05,0-13.86,1.58-20.23,4.7l-5.23,2.56-5.86-11.12Z"/>
        <path class="cls-3" d="M53.36,110.42c-6.37-3.12-13.18-4.7-20.23-4.7-2.54,0-5.11.21-7.64.64l-1.57.26-8.02-2.97V35.99l6.93-4.61,1.3-.2c2.98-.46,6.01-.7,9-.7l1.89.02,6.2,2.63,11.45,11.56v8.72l3.58,4.97v8.76l5.75,6.47v41.05l-8.64-4.22Z"/>
        <path class="cls-3" d="M16.22,108.4c-4.41,0-7.99-3.58-7.99-7.99v-58.4c0-3.83,2.44-7.22,6.08-8.44,3.2-1.08,6.51-1.89,9.82-2.4l19.61-3.06-13.66,12.52v57.22l5.27,6.86-9.87,1.65c-2.29.38-4.57.94-6.8,1.66-.8.26-1.63.39-2.47.39h0Z"/>
        <path class="cls-3" d="M45.44,50.29l-2.29-3.17-6.1-9.7-1.32-9.16.16-.93c.41-2.41.78-5.05.88-6.23-.56-3.19.64-4.79,8.01-12.85l.28-.31L53.84.69h8.52l.71.18c13.16,3.26,22.33,15,22.28,28.55-.03,8.54-3.76,16.62-10.25,22.18-.18.15-.29.42-.29.7v3.46c0,5.83-4.75,10.58-10.58,10.58h-3.63l-.37-.16-.31.16h-7.91l-.32-.16-6.26,2.77v-18.65Z"/>
        <path class="cls-3" d="M51.69,66.17l-.37.16h-3.57c-5.83,0-10.58-4.75-10.58-10.58v-3.46c0-.29-.11-.55-.29-.7-6.49-5.56-10.23-13.64-10.25-22.18C26.59,13.42,39.55.23,55.54,0h.42c2.41,0,4.8.29,7.12.86v11.65c-7.64,1.91-13.17,9-13.15,16.86.02,5,2.2,9.75,5.98,13.03l2.07,1.79v25.14s-6.29-3.17-6.29-3.17Z"/>
      </g>
      <g>
        <path class="cls-11" d="M102.33,46.27h-4.56l-3.58,4.69v45.04H17.78c-.26.73-.41,1.13-.41,1.13v11.4l1.43,2.33,1.91.75h23.6c1.65,0,3.16.89,4.02,2.31,1.57,2.59,4.41,4.32,7.66,4.32s6.09-1.73,7.66-4.32c.86-1.41,2.37-2.31,4.02-2.31h34.65c2.03,0,3.67-1.64,3.67-3.67v-58.01c0-2.03-1.64-3.67-3.67-3.67h0Z"/>
        <path class="cls-19" d="M18.23,107.95v-11.95h-1.91v-47.18l-2.09-2.54h-4.56c-2.03,0-3.67,1.64-3.67,3.67v58.01c0,2.03,1.64,3.67,3.67,3.67h12.23c-2.03,0-3.67-1.64-3.67-3.67Z"/>
        <path class="cls-8" d="M95.78,39.27c-5.81-1.95-11.73-2.86-17.55-2.79l-4.37,2.89-12.12,17.58-8.21,17.96v25.47l2.46,4.66c11.97-5.85,25.83-7.02,39.15-2.72,1.29.42,2.62-.53,2.62-1.89v-58.4c0-1.25-.8-2.35-1.99-2.75Z"/>
        <path class="cls-16" d="M50.25,69.41v-9.11l-3.58-4.96v-8.19l-8.88-8.96-4.02-1.71c-2.89-.04-5.8.17-8.71.62l-3.16,2.1v60.27l2.61.97c10.88-1.82,21.81-.15,31.5,4.59v-29.15l-5.75-6.47Z"/>
        <path class="cls-2" d="M24.08,99.2v-59.91c0-.85.37-1.64.97-2.19-2.95.46-5.91,1.18-8.84,2.16-1.18.4-1.99,1.5-1.99,2.75v58.4c0,1.36,1.33,2.31,2.62,1.89,2.54-.82,5.1-1.44,7.66-1.87-.26-.34-.42-.76-.42-1.24Z"/>
        <path class="cls-2" d="M48.55,93.03c-.17,0-.34-.02-.5-.08-7.81-2.43-16.22-2.91-24.31-1.39-.92.17-1.8-.43-1.98-1.35-.17-.92.43-1.8,1.35-1.98,8.63-1.62,17.6-1.11,25.94,1.49.89.28,1.39,1.23,1.11,2.12-.23.73-.9,1.19-1.62,1.19h0Z"/>
        <path class="cls-2" d="M48.55,84.9c-.17,0-.34-.02-.5-.08-7.81-2.43-16.22-2.91-24.31-1.39-.92.17-1.8-.43-1.98-1.35-.17-.92.43-1.8,1.35-1.98,8.63-1.62,17.6-1.11,25.94,1.49.89.28,1.39,1.23,1.11,2.12-.23.73-.9,1.19-1.62,1.19h0Z"/>
        <path class="cls-2" d="M23.43,75.34c-.8,0-1.51-.57-1.66-1.38-.17-.92.43-1.8,1.35-1.98,5.67-1.07,11.41-1.22,17.08-.47.93.12,1.58.98,1.46,1.9-.12.93-.97,1.58-1.9,1.46-5.31-.71-10.7-.56-16.01.44-.11.02-.21.03-.32.03Z"/>
        <path class="cls-2" d="M23.43,67.21c-.8,0-1.51-.57-1.66-1.38-.17-.92.43-1.8,1.35-1.98,3.37-.63,6.81-.94,10.22-.94.94,0,1.69.76,1.69,1.7,0,.93-.76,1.69-1.69,1.69-.07,0-.13,0-.2,0-3.13,0-6.29.3-9.39.88-.11.02-.21.03-.32.03h0Z"/>
        <path class="cls-2" d="M23.43,59.09c-.8,0-1.51-.57-1.66-1.38-.17-.92.43-1.8,1.35-1.98,3.37-.63,6.8-.95,10.22-.94.94,0,1.69.76,1.69,1.7,0,.93-.76,1.69-1.69,1.69-.06,0-.13,0-.19,0-3.13,0-6.29.3-9.39.88-.11.02-.21.03-.32.03h0Z"/>
        <path class="cls-2" d="M23.43,50.97c-.8,0-1.51-.57-1.66-1.38-.17-.92.43-1.8,1.35-1.98,3.37-.63,6.81-.95,10.22-.94.94,0,1.69.76,1.69,1.7,0,.94-.76,1.7-1.7,1.69-3.2-.01-6.41.28-9.58.88-.11.02-.21.03-.32.03h0Z"/>
        <path class="cls-2" d="M63.45,93.03c-.72,0-1.39-.47-1.62-1.19-.28-.89.22-1.84,1.11-2.12,8.34-2.6,17.31-3.11,25.94-1.49.92.17,1.52,1.06,1.35,1.98-.17.92-1.06,1.53-1.98,1.35-8.09-1.52-16.49-1.04-24.31,1.39-.17.05-.34.08-.5.08Z"/>
        <path class="cls-2" d="M63.45,84.9c-.72,0-1.39-.47-1.62-1.19-.28-.89.22-1.84,1.11-2.12,8.34-2.6,17.31-3.11,25.94-1.49.92.17,1.52,1.06,1.35,1.98-.17.92-1.06,1.52-1.98,1.35-8.09-1.52-16.49-1.04-24.31,1.39-.17.05-.34.08-.5.08Z"/>
        <path class="cls-2" d="M88.57,75.34c-.1,0-.21,0-.32-.03-5.31-1-10.7-1.15-16.01-.44-.93.12-1.78-.53-1.9-1.46-.12-.93.53-1.78,1.46-1.9,5.67-.75,11.41-.6,17.08.47.92.17,1.52,1.06,1.35,1.98-.15.81-.86,1.38-1.66,1.38h0Z"/>
        <path class="cls-2" d="M88.57,67.21c-.1,0-.21,0-.32-.03-3.16-.59-6.38-.89-9.58-.88h0c-.93,0-1.69-.75-1.69-1.69,0-.94.75-1.7,1.69-1.7,3.41-.01,6.84.3,10.22.94.92.17,1.52,1.06,1.35,1.98-.15.81-.86,1.38-1.66,1.38h0Z"/>
        <path class="cls-2" d="M88.57,59.09c-.1,0-.21,0-.32-.03-3.16-.59-6.39-.89-9.58-.88h0c-.93,0-1.69-.75-1.69-1.69,0-.94.75-1.7,1.69-1.7,3.4-.01,6.84.3,10.22.94.92.17,1.52,1.06,1.35,1.98-.15.81-.86,1.38-1.66,1.38h0Z"/>
        <path class="cls-2" d="M88.57,50.97c-.1,0-.21,0-.32-.03-3.16-.59-6.38-.89-9.58-.88h0c-.93,0-1.69-.75-1.69-1.69,0-.94.75-1.7,1.69-1.7,3.41-.01,6.84.3,10.22.94.92.17,1.52,1.06,1.35,1.98-.15.81-.86,1.38-1.66,1.38h0Z"/>
        <path class="cls-15" d="M64.2,59.45h-9.25v8.35l.66,1.03-.41.64v.53h7.5l1.9-1.17v-8.52l-.41-.85Z"/>
        <path class="cls-10" d="M55.61,60.3l.63-.85h-8.3l-.63.85v8.52l1.15,1.17h8.3l-1.15-1.17v-8.52Z"/>
        <path class="cls-10" d="M55.61,68.83l-.41.64v2.89l2.88,3.26h2.03c2.6-.78,4.5-3.19,4.5-6.05v-.73h-8.99Z"/>
        <path class="cls-12" d="M55.61,69.56v-.73h-8.3v.73c0,3.49,2.83,6.32,6.32,6.32h4.66c.63,0,1.24-.09,1.82-.27-2.6-.78-4.5-3.19-4.5-6.05h0Z"/>
        <path class="cls-9" d="M61.64,6.69h-5.64l-6.79,5.6s-6.95,7.6-6.5,7.83c.45.23-.9,8.21-.9,8.21l1,6.97,5.32,8.46,3.31,4.59v11.36l.42-.19,1.59.8h5.03l1.55-.8,1.84.8h2.39c2.53,0,4.58-2.05,4.58-4.58v-3.46c0-2.01.85-3.95,2.38-5.26,4.97-4.26,8.13-10.58,8.16-17.64.03-10.72-7.37-20.14-17.72-22.7h0Z"/>
        <path class="cls-14" d="M51.98,46.94c-4.91-4.26-8.03-10.54-8.05-17.55-.03-10.9,7.54-20.17,17.71-22.7-1.91-.47-3.93-.71-6.01-.68-12.71.18-23.02,10.67-22.98,23.39.02,7.06,3.18,13.38,8.16,17.64,1.53,1.31,2.38,3.24,2.38,5.26v3.46c0,2.53,2.05,4.58,4.58,4.58h2.3l1.8-.8.13.06v-12.66h0Z"/>
        <path class="cls-5" d="M65.24,29.57c-.94,0-1.69.76-1.69,1.69v7.9c0,.5-.17.99-.48,1.39l-3.14,3.98c-.94,1.19-1.46,2.68-1.46,4.2v11.61h3.39v-11.61c0-.76.26-1.5.73-2.1l3.14-3.98c.78-.99,1.21-2.23,1.21-3.49v-7.9c0-.94-.76-1.69-1.69-1.69Z"/>
        <path class="cls-5" d="M53.44,60.33v-11.61c0-1.52-.52-3.01-1.46-4.2l-3.14-3.98c-.31-.39-.48-.89-.48-1.39v-7.9c0-.94-.76-1.69-1.69-1.69s-1.69.76-1.69,1.69v7.9c0,1.26.43,2.5,1.21,3.49l3.14,3.98c.47.59.73,1.34.73,2.1v11.61c.97,0,2.14,0,3.39,0h0Z"/>
        <path class="cls-5" d="M67.6,36.43h-23.2c-.94,0-1.69-.76-1.69-1.69s.76-1.69,1.69-1.69h23.2c.94,0,1.69.76,1.69,1.69s-.76,1.69-1.69,1.69Z"/>
      </g>
    </g>
  </g>
</svg>