<?xml version="1.0" encoding="UTF-8"?>
<svg id="Layer_2" data-name="Layer 2" xmlns="http://www.w3.org/2000/svg" viewBox="0 0 92.29 97.17">
  <defs>
    <style>
      .cls-1 {
        fill: #ff3617;
      }

      .cls-2 {
        fill: #fe6048;
      }

      .cls-3 {
        fill: #d42c12;
      }

      .cls-4 {
        fill: #fff;
      }

      .cls-5 {
        fill: none;
        stroke: #d42c12;
        stroke-miterlimit: 22.93;
        stroke-width: 6px;
      }

      .cls-6 {
        fill: #ffbea7;
      }

      .cls-7 {
        fill: #ff956e;
      }

      .cls-8 {
        fill: #e6e6e6;
      }
    </style>
  </defs>
  <g id="close-button">
    <g id="g5468">
      <g id="g5452">
        <path d="M9.92,13.68c-13.19,13.12-13.23,60.61-.07,73.75,13.02,12.99,59.59,12.99,72.6,0,13.16-13.14,13.12-60.63-.06-73.75C69.08.44,23.22.44,9.92,13.68Z"/>
        <path class="cls-4" d="M9.92,9.93c-13.19,13.12-13.23,60.61-.07,73.75,13.02,12.99,59.59,12.99,72.6,0,13.16-13.14,13.12-60.63-.06-73.75C69.08-3.31,23.22-3.31,9.92,9.93Z"/>
        <path class="cls-2" d="M13.32,11.06c-11.95,11.89-11.98,54.91-.06,66.82,11.79,11.77,53.99,11.77,65.78,0,11.93-11.91,11.89-54.93-.06-66.82C66.93-.93,25.38-.93,13.32,11.06Z"/>
        <path class="cls-3" d="M79.04,68.88c-11.79,11.77-53.99,11.77-65.78,0-5.29-5.29-8.23-16.72-8.81-28.84-.72,15.11,2.21,31.24,8.81,37.84,11.79,11.77,53.99,11.77,65.78,0,6.6-6.6,9.54-22.73,8.82-37.84-.58,12.12-3.52,23.55-8.82,28.84Z"/>
        <path class="cls-1" d="M9.5,63.39c1.08,2.2,2.34,4.07,3.76,5.49,11.79,11.77,53.99,11.77,65.78,0,4.55-4.54,7.36-13.62,8.43-23.76-22.13,16.25-48.17,22.2-77.97,18.27Z"/>
        <path class="cls-7" d="M13.32,11.06c-3.58,3.57-6.09,9.93-7.53,17.41C26.46,6.98,67.91,3.55,85.46,23.89c-1.49-5.47-3.65-10.02-6.48-12.83C66.93-.93,25.38-.93,13.32,11.06Z"/>
        <path class="cls-6" d="M22.74,8.19c-5.08,1.44-9.19,4.94-9.19,7.82s4.11,4.04,9.19,2.6c5.07-1.43,9.18-4.93,9.18-7.81s-4.11-4.05-9.18-2.61Z"/>
        <path class="cls-6" d="M37.96,4.3c-2.86.18-5.45,1.56-5.78,3.09-.33,1.53,1.72,2.62,4.58,2.44,2.86-.17,5.44-1.56,5.78-3.09.33-1.52-1.72-2.62-4.58-2.44Z"/>
        <path class="cls-6" d="M72.98,62.42c-3.21,1.56-5.53,4.37-5.19,6.28.34,1.91,3.21,2.21,6.41.65,3.21-1.56,5.53-4.36,5.19-6.28-.34-1.91-3.21-2.2-6.41-.65Z"/>
        <path class="cls-7" d="M87.47,45.12c-1.07,10.14-3.88,19.22-8.43,23.76-11.79,11.77-53.99,11.77-65.78,0-1.42-1.42-2.68-3.29-3.76-5.49-2.94-6-4.63-14.49-5.05-23.35-.09,1.77-.12,3.54-.11,5.32.02-1.23.05-2.45.11-3.67.58,12.12,3.52,23.55,8.81,28.84,11.79,11.77,53.99,11.77,65.78,0,5.3-5.29,8.24-16.72,8.82-28.84.05,1.22.09,2.45.1,3.67.01-1.77-.02-3.55-.1-5.32-.08,1.71-.21,3.41-.39,5.08Z"/>
        <path class="cls-8" d="M9.85,81.65C3.43,75.24.15,60.65,0,45.87c-.15,15.46,3.13,31.1,9.84,37.81,13.02,12.99,59.59,12.99,72.6,0,6.72-6.71,9.99-22.35,9.84-37.81-.14,14.78-3.42,29.37-9.84,35.78-13.01,12.99-59.58,12.99-72.6,0Z"/>
      </g>
      <g id="g5466">
        <g id="g5458">
          <path class="cls-5" d="M67.54,28.17l-6.71-6.53c-.85-.83-2.22-.81-3.05.04l-11.63,11.96-11.63-11.96c-.83-.85-2.2-.87-3.05-.04l-6.71,6.53c-.85.83-.86,2.2-.04,3.05l11.89,12.22-11.89,12.22c-.82.85-.81,2.22.04,3.05l6.71,6.53c.85.82,2.22.81,3.05-.04l11.63-11.96,11.63,11.96c.83.85,2.2.86,3.05.04l6.71-6.53c.85-.83.87-2.2.04-3.05l-11.89-12.22,11.89-12.22c.83-.85.81-2.22-.04-3.05Z"/>
          <path class="cls-4" d="M67.54,28.17l-6.71-6.53c-.85-.83-2.22-.81-3.05.04l-11.63,11.96-11.63-11.96c-.83-.85-2.2-.87-3.05-.04l-6.71,6.53c-.85.83-.86,2.2-.04,3.05l11.89,12.22-11.89,12.22c-.82.85-.81,2.22.04,3.05l6.71,6.53c.85.82,2.22.81,3.05-.04l11.63-11.96,11.63,11.96c.83.85,2.2.86,3.05.04l6.71-6.53c.85-.83.87-2.2.04-3.05l-11.89-12.22,11.89-12.22c.83-.85.81-2.22-.04-3.05Z"/>
        </g>
        <path d="M24.76,28.17c-.85.83-.87,2.2-.04,3.05l11.89,12.22,1.77-1.81-13.35-13.72-.27.26Z"/>
        <path d="M67.27,55.34l-6.44,6.27c-.85.83-2.22.81-3.05-.04l-11.63-11.95-11.63,11.95c-.83.85-2.2.87-3.05.04l-6.44-6.27-.31.32c-.82.85-.81,2.22.04,3.05l6.71,6.53s.05.05.08.07c.45.19.9.37,1.36.54.58.01,1.17-.2,1.61-.65l11.63-11.96,11.63,11.96c.44.45,1.03.66,1.62.65.46-.17.91-.35,1.35-.54.03-.02.05-.05.08-.07l6.71-6.53c.85-.83.87-2.2.04-3.05l-.31-.32Z"/>
        <path d="M67.27,27.91l-13.34,13.72,1.76,1.81,11.89-12.22c.83-.85.81-2.22-.04-3.05l-.27-.26Z"/>
      </g>
    </g>
  </g>
</svg>