<?xml version="1.0" encoding="UTF-8"?>
<svg id="Layer_2" data-name="Layer 2" xmlns="http://www.w3.org/2000/svg" viewBox="0 0 660.89 516.2">
  <defs>
    <style>
      .cls-1 {
        fill: #efcf6f;
      }

      .cls-2 {
        fill: #f5e3a9;
      }

      .cls-3 {
        fill: #94dd2f;
      }

      .cls-4 {
        fill: #497214;
      }

      .cls-5 {
        fill: #fff;
      }

      .cls-6 {
        fill: #faeecc;
      }

      .cls-7 {
        fill: #eabe3c;
      }

      .cls-8 {
        fill: #a5e24d;
      }

      .cls-9 {
        fill: #c0eb85;
      }

      .cls-10 {
        fill: #f3db95;
      }

      .cls-11 {
        fill: #ccc;
      }

      .cls-12 {
        fill: #f1d583;
      }

      .cls-13 {
        fill: #e6e6e6;
      }
    </style>
  </defs>
  <g id="message-popup">
    <g id="g5384">
      <path class="cls-4" d="M492.04,0H168.49c-10.32,0-8.28,40.35-8.28,60.52h340.12c0-20.17,3.65-60.52-8.29-60.52Z"/>
      <path class="cls-11" d="M160.05,37.72c2.25-.1,4.54-.19,6.85-.29.08-15.4.94-31.2,5.19-35.97-1.03-.94-2.22-1.46-3.6-1.46-7.12,0-8.36,19.2-8.44,37.72Z"/>
      <path class="cls-11" d="M492.04,0c-1.28,0-2.39.45-3.37,1.26,4.89,4.47,5.5,20.14,5.3,35.57,2.3.08,4.59.16,6.85.24.25-18.32-.64-37.07-8.78-37.07Z"/>
    </g>
    <path d="M5.61,449.65c2.01,28.82,25.5,55.28,52.53,62.55,19.85,5.34,524.77,5.34,544.62,0,27.03-7.28,50.52-33.74,52.53-62.55,7.31-104.9,7.46-222.45.48-334.03-2.09-33.51-27.45-60.86-60.06-65.87-94.7-14.53-435.82-14.53-530.52,0C32.58,54.76,7.23,82.11,5.13,115.62c-6.99,111.58-6.84,229.13.48,334.03"/>
    <path class="cls-5" d="M7.43,441.8c2,28.82,25.39,55.28,52.3,62.55,19.77,5.34,521.67,5.34,541.44,0,26.91-7.27,50.3-33.74,52.3-62.55,7.29-104.9,7.44-222.45.49-334.03-2.09-33.5-27.34-60.86-59.81-65.86-94.31-14.54-433.09-14.54-527.39,0C34.28,46.91,9.03,74.27,6.94,107.77-.01,219.36.13,336.9,7.43,441.8"/>
    <path class="cls-1" d="M585.34,47.14c-91.61-14.11-418.17-14.11-509.78,0-31.54,4.86-56.07,31.44-58.1,63.98-6.76,108.39-6.62,219.09.47,320.99,1.95,28,24.67,53.69,50.81,60.75,19.2,5.19,504.22,5.19,523.42,0,26.14-7.06,48.87-32.77,50.81-60.75,7.08-101.9,7.22-212.6.47-320.99-2.03-32.53-26.56-59.12-58.1-63.98Z"/>
    <path class="cls-6" d="M585.34,47.14c-91.61-14.11-418.17-14.11-509.78,0-31.54,4.86-56.07,31.44-58.1,63.98-3.02,48.4-4.66,85.93-4.92,121.71.27,37.17,2.07,131.19,5.39,178.89,1.95,28,24.67,53.7,50.81,60.76,19.2,5.19,504.22,5.18,523.42,0,26.14-7.06,48.87-32.77,50.81-60.76,3.31-47.7,5.11-141.72,5.39-178.89-.26-35.78-1.91-73.31-4.92-121.71-2.03-32.53-26.56-59.12-58.1-63.98Z"/>
    <path class="cls-2" d="M585.34,47.14c-91.61-14.11-418.17-14.11-509.78,0-31.54,4.86-56.07,31.44-58.1,63.98-2.98,47.8-4.62,84.99-4.91,120.37.31,36.7,2.1,130.38,5.38,177.49,1.95,28,24.67,53.69,50.81,60.75,19.2,5.19,504.22,5.19,523.42,0,26.14-7.06,48.87-32.77,50.81-60.75,3.27-47.15,5.07-140.85,5.38-177.59-.3-35.35-1.93-72.51-4.91-120.27-2.03-32.53-26.56-59.12-58.1-63.98Z"/>
    <path class="cls-6" d="M643.44,111.12c-2.03-32.54-26.56-59.12-58.1-63.98-91.61-14.11-418.17-14.11-509.78,0-31.54,4.86-56.07,31.43-58.1,63.98-.99,15.79-1.82,34.2-2.52,54.46-.04,3.71-.08,7.45-.11,11.24.71-21.63,1.59-41.24,2.63-57.92,1.03-16.58,7.91-31.6,18.57-43-1.64,3.85-1.88,7.66-.39,10.96,4.12,9.07,19.79,10.84,35,3.94,15.22-6.89,24.22-19.84,20.11-28.92-1.79-3.94-5.76-6.5-10.92-7.57,99.5-13.51,415.26-13.3,505.51.61,31.54,4.86,56.08,31.44,58.1,63.98.75,12.01,1.41,25.56,1.99,40.29,0-3.18-.03-6.32-.06-9.43-.56-14.08-1.21-27.07-1.93-38.64Z"/>
    <path class="cls-10" d="M14.69,356.45c.84,16.28,1.92,33.58,3.24,52.53,1.95,28,24.67,53.69,50.81,60.75,19.2,5.19,504.22,5.19,523.42,0,26.14-7.06,48.87-32.77,50.81-60.75.54-7.79,1.04-15.3,1.5-22.57-53.14,15.65-98.13,24.68-183.02,24.68s-383.17-21.1-446.76-54.64Z"/>
    <g id="g5428">
      <path d="M176.05,32.99c-.15,11.32-1.51,36.45-1.51,41.73,0,7.97,6.81,14.48,15.14,14.48h281.54c8.32,0,15.14-6.51,15.14-14.48,0-5.36-1.12-29.32-1.25-40.85-80.58-10.66-220.22-7.98-309.06-.88Z"/>
      <path class="cls-5" d="M168.67,0c13.91,0,8.71,52.4,8.71,66.45,0,8.17,6.69,14.86,14.87,14.86h276.39c8.18,0,14.87-6.69,14.87-14.86,0-14.05-5.2-66.45,8.71-66.45H168.67Z"/>
      <path class="cls-8" d="M178.29,0c13.08,0,8.19,46.1,8.19,58.45,0,7.19,6.29,13.08,13.99,13.08h259.96c7.69,0,13.98-5.89,13.98-13.08,0-12.35-4.89-58.45,8.19-58.45H178.29Z"/>
      <path class="cls-13" d="M468.64,78.73H192.25c-7.91,0-14.42-6.25-14.84-14.06-.02.64-.03,1.24-.03,1.78,0,8.17,6.69,14.86,14.87,14.86h276.39c8.18,0,14.87-6.69,14.87-14.86,0-.54-.01-1.14-.02-1.78-.42,7.81-6.94,14.06-14.85,14.06Z"/>
      <path class="cls-3" d="M317.71,60.52c-43.97-2.43-85.29-6.99-123.62-13.94-2.38-.43-4.74-.87-7.1-1.32-.02.49-.04.97-.06,1.45-.22,4.93-.45,9.1-.45,11.74,0,.7.06,1.39.18,2.07,1.07,6.22,6.86,11.01,13.81,11.01h259.96c6.74,0,12.41-4.53,13.7-10.5-55.14,2.25-107.43,2.19-156.42-.51Z"/>
      <path class="cls-9" d="M185.64,9.45c97.42-4.9,194.19-5.45,290.52-3.14,1.39-3.88,3.44-6.31,6.44-6.31H178.29c3.74,0,6.01,3.77,7.35,9.45Z"/>
    </g>
    <g id="g5476">
      <path class="cls-6" d="M49.44,165.2c-17.36,60.37-21.25,193.64-.08,243.14,17.14,40.07,541.21,41.02,558.34,0,20.97-50.19,17.28-182.77-.08-243.14-17.52-60.94-540.65-60.94-558.18,0Z"/>
      <path class="cls-7" d="M49.44,152.39c-17.36,60.38-21.25,193.65-.08,243.15,17.14,40.06,541.21,41.02,558.34,0,20.97-50.19,17.28-182.77-.08-243.15-17.52-60.94-540.65-60.94-558.18,0Z"/>
      <path class="cls-12" d="M49.44,156.04c-17.36,61.16-21.25,196.15-.08,246.29,17.14,40.58,541.21,41.55,558.34,0,20.97-50.84,17.28-185.13-.08-246.29-17.52-61.73-540.65-61.73-558.18,0Z"/>
    </g>
  </g>
</svg>