<?xml version="1.0" encoding="UTF-8"?>
<svg id="Layer_2" data-name="Layer 2" xmlns="http://www.w3.org/2000/svg" viewBox="0 0 236.91 107.84">
  <defs>
    <style>
      .cls-1 {
        fill: #82c822;
      }

      .cls-2 {
        fill: #e1f6c6;
      }

      .cls-3 {
        fill: #94dd2f;
      }

      .cls-4 {
        fill: #fff;
      }

      .cls-5 {
        fill: #a5e24d;
      }

      .cls-6 {
        fill: #c0eb85;
      }

      .cls-7 {
        fill: #e6e6e6;
      }
    </style>
  </defs>
  <g id="right-button">
    <g id="g5500">
      <path d="M11.01,15.19c-14.63,14.55-14.68,67.26-.07,81.84,14.44,14.42,200.61,14.42,215.05,0,14.6-14.58,14.56-67.29-.07-81.84C211.14.49,25.77.49,11.01,15.19Z"/>
      <path class="cls-4" d="M11.01,11.02c-14.63,14.56-14.68,67.26-.07,81.85,14.44,14.41,200.61,14.41,215.05,0,14.6-14.58,14.56-67.29-.07-81.85C211.14-3.67,25.77-3.67,11.01,11.02Z"/>
      <path class="cls-5" d="M14.78,12.28c-13.25,13.19-13.29,60.94-.06,74.15,13.09,13.06,194.4,13.06,207.48,0,13.24-13.21,13.19-60.96-.06-74.15C208.76-1.04,28.16-1.04,14.78,12.28Z"/>
      <path class="cls-1" d="M222.19,76.45c-13.08,13.06-194.39,13.06-207.48,0-5.88-5.87-9.14-18.56-9.78-32.01-.8,16.77,2.45,34.68,9.78,41.99,13.09,13.06,194.4,13.06,207.48,0,7.33-7.31,10.59-25.22,9.79-41.99-.65,13.45-3.91,26.14-9.79,32.01Z"/>
      <path class="cls-3" d="M10.54,70.35c1.2,2.45,2.59,4.52,4.17,6.1,13.09,13.06,194.4,13.06,207.48,0,5.05-5.04,8.17-15.12,9.36-26.38-24.56,18.04-187.94,24.65-221.01,20.28Z"/>
      <path class="cls-6" d="M14.78,12.28c-3.97,3.95-6.76,11.01-8.35,19.31C29.36,7.75,209.84,3.94,229.31,26.51c-1.65-6.07-4.05-11.12-7.18-14.23C208.76-1.04,28.15-1.04,14.78,12.28Z"/>
      <path class="cls-2" d="M25.22,9.09c-5.63,1.6-10.19,5.48-10.19,8.68s4.56,4.49,10.19,2.89c5.63-1.6,10.2-5.48,10.2-8.68s-4.57-4.49-10.2-2.89Z"/>
      <path class="cls-2" d="M42.12,6.31c-3.17.2-6.04,1.73-6.41,3.43s1.9,2.91,5.08,2.71c3.17-.2,6.04-1.73,6.41-3.43.37-1.69-1.91-2.91-5.08-2.71Z"/>
      <path class="cls-2" d="M215.46,69.28c-3.56,1.72-6.13,4.84-5.76,6.97.38,2.12,3.57,2.44,7.12.72,3.56-1.73,6.14-4.85,5.76-6.97-.38-2.13-3.56-2.45-7.12-.72Z"/>
      <path class="cls-6" d="M231.55,50.07c-1.19,11.26-4.31,21.34-9.36,26.38-13.08,13.06-194.39,13.06-207.48,0-1.58-1.58-2.97-3.65-4.17-6.1-3.27-6.65-5.14-16.08-5.61-25.91-.1,1.96-.13,3.93-.12,5.9.01-1.36.05-2.72.12-4.07.64,13.45,3.9,26.14,9.78,32.01,13.09,13.06,194.4,13.06,207.48,0,5.88-5.87,9.14-18.56,9.79-32.01.06,1.35.1,2.71.11,4.07.02-1.97-.02-3.94-.11-5.9-.09,1.9-.24,3.78-.43,5.63Z"/>
      <path class="cls-7" d="M225.98,90.62c-14.44,14.42-200.61,14.42-215.06,0C3.8,83.51.16,67.32,0,50.91c-.16,17.16,3.48,34.52,10.93,41.96,14.44,14.41,200.61,14.41,215.05,0,7.45-7.44,11.09-24.8,10.92-41.96-.16,16.41-3.79,32.6-10.92,39.71Z"/>
    </g>
  </g>
</svg>