<?xml version="1.0" encoding="UTF-8"?>
<svg id="Layer_2" data-name="Layer 2" xmlns="http://www.w3.org/2000/svg" viewBox="0 0 481.94 826.7">
  <defs>
    <style>
      .cls-1 {
        fill: #efcf6f;
      }

      .cls-2 {
        fill: #f5e3a9;
      }

      .cls-3 {
        fill: #94dd2f;
      }

      .cls-4 {
        fill: #497214;
      }

      .cls-5 {
        fill: #fff;
      }

      .cls-6 {
        fill: #faeecc;
      }

      .cls-7 {
        fill: #a5e24d;
      }

      .cls-8 {
        fill: #c0eb85;
      }

      .cls-9 {
        fill: #f3db95;
      }

      .cls-10 {
        fill: #ccc;
      }

      .cls-11 {
        fill: #e6e6e6;
      }
    </style>
  </defs>
  <g id="option-menu">
    <path d="M408.09,41.08c-107.3-16.47-226.94-16.47-334.24,0C36.91,46.75,8.18,77.74,5.81,115.7c-7.92,126.43-7.75,516.74.54,635.59,2.28,32.65,28.89,62.63,59.51,70.87,22.5,6.05,327.72,6.05,350.22,0,30.62-8.25,57.23-38.22,59.51-70.87,8.29-118.85,8.46-509.16.55-635.59-2.38-37.96-31.1-68.95-68.05-74.62Z"/>
    <g id="g2886">
      <path class="cls-4" d="M424.75,0H56.78c-11.74,0-9.42,45.88-9.42,68.82h386.81c0-22.94,4.15-68.82-9.42-68.82Z"/>
      <path class="cls-10" d="M47.18,42.9c2.56-.11,5.16-.22,7.79-.33.09-17.52,1.07-35.48,5.9-40.92-1.17-1.06-2.52-1.65-4.09-1.65-8.1,0-9.51,21.83-9.6,42.9Z"/>
      <path class="cls-10" d="M424.75,0c-1.46,0-2.73.51-3.84,1.43,5.57,5.09,6.25,22.91,6.03,40.46,2.62.08,5.22.18,7.79.27.29-20.84-.73-42.16-9.98-42.16Z"/>
    </g>
    <path class="cls-6" d="M390.86,773.81c-21.75,5.88-283.49,6.71-305.24.84-29.62-8-55.36-37.12-57.57-68.84-5.69-81.94-11.34-198.07-11.39-326.16v.04c-.05,128.75,5.64,247.08,11.39,329.8,2.21,31.71,27.96,60.83,57.57,68.83,21.75,5.88,283.49,5.04,305.24-.83,29.61-8.01,55.36-37.12,57.57-68.84,6.37-91.65,16.12-235.77,16.02-369.56-.08,133.48-9.71,275.08-16.02,365.89-2.21,31.72-27.95,60.83-57.57,68.83Z"/>
    <path class="cls-5" d="M406.32,32.19c-106.85-16.47-223.85-16.47-330.69,0C38.83,37.86,10.23,68.85,7.86,106.81-.02,233.24.14,623.55,8.41,742.4c2.26,32.65,28.77,62.62,59.26,70.86,22.4,6.05,324.21,6.05,346.6,0,30.5-8.23,56.99-38.21,59.26-70.86,8.26-118.85,8.43-509.16.55-635.59-2.36-37.96-30.97-68.95-67.76-74.62Z"/>
    <path class="cls-2" d="M396.34,38.13c-103.79-16-206.95-16-310.74,0-35.74,5.51-63.53,35.61-65.82,72.48-7.66,122.81-7.5,505.36.53,620.81,2.2,31.72,27.94,60.83,57.56,68.83,21.76,5.88,304.44,5.88,326.2,0,29.62-8,55.36-37.13,57.56-68.83,8.02-115.46,8.19-498,.54-620.81-2.3-36.86-30.09-66.97-65.83-72.48Z"/>
    <path class="cls-1" d="M448.43,704.98c-2.21,31.72-27.95,60.83-57.57,68.83-21.75,5.88-283.49,6.71-305.24.84-29.62-8-55.36-37.12-57.57-68.84-6.42-92.4-12.78-239.37-11.13-373.61-4.6,134.69-3.47,300.58,3.39,399.22,2.2,31.72,27.95,60.83,57.56,68.83,21.76,5.88,304.44,5.88,326.2,0,29.62-8,55.36-37.13,57.56-68.83,7.17-103.13,8.08-283.56,2.72-417.14,1.25,134.74-9.21,294.12-15.92,390.7Z"/>
    <path class="cls-9" d="M24.93,653.24c1.01,19.66,2.07,37.41,3.12,52.57,2.21,31.72,27.95,60.84,57.57,68.84,21.75,5.87,283.49,5.04,305.24-.84,29.62-8,55.37-37.12,57.57-68.83.31-4.62.65-9.49.98-14.57-163.82,54.72-240.02,49.12-424.48-37.17Z"/>
    <path class="cls-6" d="M462.17,110.61c-2.3-36.87-30.09-66.97-65.83-72.48-103.79-16-206.95-16-310.74,0-35.74,5.51-63.52,35.61-65.82,72.48-1.12,17.89-2.07,198.63-2.86,221.59-.05,4.19-.09,8.44-.13,12.73.81-24.5,1.81-206.61,2.99-225.5,1.17-18.79,8.96-35.81,21.03-48.72-1.86,4.36-2.13,8.67-.43,12.41,4.66,10.28,22.41,12.28,39.65,4.47,17.24-7.81,27.43-22.48,22.78-32.76-2.03-4.47-6.52-7.37-12.37-8.59,112.73-15.3,203.64-15.06,305.9.7,35.74,5.51,63.53,35.61,65.83,72.49.84,13.61,1.6,188.84,2.26,205.52-.02-3.6-.04-7.16-.08-10.67-.64-15.97-1.37-190.57-2.18-203.67Z"/>
    <path class="cls-11" d="M473.53,737.87c-2.26,32.65-28.77,62.63-59.26,70.86-22.39,6.05-324.2,6.05-346.6,0-30.49-8.23-57-38.2-59.26-70.86-4.2-60.37-6.31-209.8-6.34-309.85v.49c-.03,101.4,2.08,252.71,6.34,313.89,2.26,32.66,28.76,62.63,59.26,70.87,22.39,6.05,324.21,6.05,346.6,0,30.5-8.24,57-38.22,59.27-70.87,4.25-61.28,6.37-212.81,6.33-314.38-.03,100.05-2.14,249.48-6.34,309.85Z"/>
    <g id="g2928">
      <path d="M244.52,28.74c-63.89-.07-153.02-2.66-179.8,5.93-.17,12.88-1.07,44.3-1.07,50.31,0,9.06,7.75,16.47,17.22,16.47h320.19c9.47,0,17.22-7.41,17.22-16.47,0-6.11-.92-37.01-1.08-50.12-34.57-11.84-112.12-6.05-172.68-6.12Z"/>
      <path class="cls-5" d="M56.98,0c15.83,0,9.91,59.59,9.91,75.57,0,9.3,7.61,16.9,16.91,16.9h314.34c9.3,0,16.9-7.6,16.9-16.9,0-15.98-5.91-75.57,9.91-75.57H56.98Z"/>
      <path class="cls-7" d="M67.92,0c14.88,0,9.32,52.42,9.32,66.47,0,8.18,7.16,14.88,15.9,14.88h295.65c8.75,0,15.9-6.7,15.9-14.88,0-14.05-5.56-66.47,9.32-66.47H67.92Z"/>
      <path class="cls-11" d="M398.14,89.54H83.8c-8.99,0-16.41-7.12-16.88-16-.02.74-.03,1.41-.03,2.03,0,9.3,7.61,16.9,16.91,16.9h314.34c9.3,0,16.9-7.6,16.9-16.9,0-.62,0-1.29-.02-2.03-.48,8.88-7.89,16-16.88,16Z"/>
      <path class="cls-3" d="M226.49,68.82c-50.02-2.76-97.01-7.95-140.6-15.85-2.7-.49-5.39-.99-8.07-1.5-.02.55-.05,1.1-.07,1.64-.26,5.62-.51,10.36-.51,13.36,0,.8.07,1.59.2,2.35,1.21,7.08,7.81,12.53,15.7,12.53h295.65c7.67,0,14.12-5.15,15.59-11.94-62.72,2.55-122.18,2.49-177.89-.59Z"/>
      <path class="cls-8" d="M76.28,10.74c110.79-5.57,220.85-6.2,330.41-3.56,1.57-4.42,3.91-7.18,7.32-7.18H67.92c4.26,0,6.84,4.29,8.36,10.74Z"/>
    </g>
  </g>
</svg>