<?xml version="1.0" encoding="UTF-8"?>
<svg id="Layer_2" data-name="Layer 2" xmlns="http://www.w3.org/2000/svg" viewBox="0 0 330.46 150.42">
  <defs>
    <style>
      .cls-1 {
        fill: #ffb700;
      }

      .cls-2 {
        fill: #fff;
      }

      .cls-3 {
        fill: #ffef91;
      }

      .cls-4 {
        fill: #fec230;
      }

      .cls-5 {
        fill: #d49800;
      }

      .cls-6 {
        fill: #ffe558;
      }

      .cls-7 {
        fill: #e6e6e6;
      }
    </style>
  </defs>
  <g id="option-btn-active">
    <g id="g3000">
      <g id="g2984">
        <path d="M15.34,21.18c-20.4,20.31-20.47,93.82-.1,114.16,20.15,20.11,279.83,20.11,299.97,0,20.37-20.34,20.31-93.85-.09-114.16C294.51.69,35.94.69,15.34,21.18Z"/>
        <path class="cls-2" d="M15.34,15.37c-20.4,20.31-20.47,93.82-.1,114.17,20.15,20.11,279.83,20.1,299.97,0,20.37-20.34,20.31-93.86-.09-114.17C294.51-5.12,35.94-5.12,15.34,15.37Z"/>
        <path class="cls-4" d="M20.61,17.13c-18.48,18.39-18.54,85-.08,103.43,18.25,18.22,271.15,18.22,289.4,0,18.46-18.43,18.4-85.04-.09-103.43C291.18-1.44,39.28-1.44,20.61,17.13Z"/>
        <path class="cls-5" d="M309.93,106.63c-18.25,18.22-271.15,18.22-289.4,0-8.2-8.19-12.75-25.88-13.65-44.64-1.12,23.38,3.42,48.37,13.65,58.57,18.25,18.22,271.15,18.22,289.4,0,10.22-10.2,14.77-35.19,13.65-58.57-.9,18.76-5.45,36.45-13.65,44.64Z"/>
        <path class="cls-1" d="M14.7,98.13c1.68,3.41,3.62,6.3,5.83,8.5,18.25,18.22,271.15,18.22,289.4,0,7.04-7.03,11.39-21.08,13.05-36.79-34.25,25.16-262.14,34.38-308.28,28.29Z"/>
        <path class="cls-6" d="M20.61,17.13c-5.54,5.51-9.43,15.36-11.65,26.94C40.96,10.8,292.7,5.49,319.87,36.98c-2.31-8.47-5.66-15.51-10.03-19.85C291.18-1.45,39.28-1.45,20.61,17.13Z"/>
        <path class="cls-3" d="M35.19,12.68c-7.86,2.23-14.22,7.65-14.22,12.1s6.36,6.26,14.22,4.04c7.85-2.23,14.22-7.65,14.22-12.1s-6.37-6.27-14.22-4.04Z"/>
        <path class="cls-3" d="M58.76,9.52c-4.43.28-8.43,2.42-8.95,4.78-.51,2.37,2.66,4.06,7.09,3.79,4.42-.28,8.43-2.42,8.94-4.79.51-2.36-2.66-4.06-7.08-3.78Z"/>
        <path class="cls-3" d="M300.54,96.63c-4.96,2.41-8.55,6.76-8.03,9.72.53,2.97,4.97,3.42,9.93,1.01,4.96-2.41,8.56-6.76,8.03-9.72-.52-2.97-4.97-3.42-9.93-1.01Z"/>
        <path class="cls-6" d="M322.98,69.84c-1.66,15.71-6.01,29.76-13.05,36.79-18.25,18.22-271.15,18.22-289.4,0-2.21-2.2-4.15-5.09-5.83-8.5-4.56-9.28-7.16-22.43-7.82-36.14-.13,2.73-.19,5.48-.16,8.22.01-1.89.07-3.78.16-5.67.9,18.76,5.45,36.46,13.65,44.65,18.25,18.22,271.15,18.22,289.4,0,8.2-8.19,12.75-25.89,13.65-44.65.09,1.89.14,3.79.16,5.68.02-2.75-.03-5.5-.16-8.23-.13,2.65-.33,5.27-.6,7.85Z"/>
        <path class="cls-7" d="M315.21,126.4c-20.14,20.11-279.82,20.11-299.97,0C5.3,116.48.23,93.9,0,71.01c-.23,23.93,4.84,48.15,15.24,58.53,20.14,20.1,279.82,20.1,299.96,0,10.39-10.38,15.47-34.6,15.24-58.53-.22,22.89-5.3,45.47-15.24,55.39Z"/>
      </g>
    </g>
  </g>
</svg>