<?xml version="1.0" encoding="UTF-8"?>
<svg id="Layer_1" data-name="Layer 1" xmlns="http://www.w3.org/2000/svg" viewBox="0 0 1345.61 760.61">
  <defs>
    <style>
      .cls-1 {
        fill: #efcf6f;
      }

      .cls-2 {
        fill: #f5e3a9;
      }

      .cls-3 {
        fill: #fff;
      }

      .cls-4 {
        fill: #faeecc;
      }

      .cls-5 {
        fill: #f3db95;
      }

      .cls-6 {
        fill: #e6e6e6;
      }
    </style>
  </defs>
  <g id="_2674317510320" data-name=" 2674317510320">
    <path d="M1246.15,21.24C1101.66,4.77,243.93,4.77,99.46,21.24,49.7,26.92,11.03,57.9,7.82,95.86c-10.66,126.43-10.44,470.49.74,589.35,3.07,32.65,38.89,62.62,80.14,70.86,30.28,6.05,1137.92,6.05,1168.2,0,41.23-8.24,77.07-38.21,80.14-70.86,11.18-118.86,11.41-462.92.74-589.35-3.2-37.96-41.88-68.94-91.64-74.62h0Z"/>
    <path class="cls-3" d="M1243.76,12.35C1099.88-4.12,245.73-4.12,101.84,12.35,52.29,18.02,13.78,49.01,10.58,86.97-.03,213.4.19,557.46,11.33,676.32c3.06,32.65,38.74,62.62,79.8,70.86,30.16,6.05,1133.19,6.05,1163.36,0,41.06-8.24,76.74-38.21,79.8-70.86,11.14-118.86,11.37-462.92.74-589.35-3.19-37.96-41.7-68.95-91.26-74.62h0Z"/>
    <path class="cls-2" d="M1230.32,18.29C1090.56,2.29,255.03,2.29,115.28,18.29,67.14,23.8,29.73,53.9,26.64,90.77c-10.33,122.81-10.1,459.1.71,574.56,2.98,31.72,37.62,60.83,77.52,68.83,29.29,5.88,1106.57,5.88,1135.86,0,39.9-8,74.55-37.11,77.52-68.83,10.81-115.45,11.04-451.75.71-574.56-3.1-36.87-40.51-66.97-88.65-72.48h0Z"/>
    <path class="cls-1" d="M1300.47,638.89c-2.96,31.72-37.62,60.83-77.52,68.83-29.29,5.88-1078.35,6.72-1107.65.84-39.89-8.01-74.55-37.11-77.51-68.84-8.66-92.4-17.21-353-14.99-487.24-6.19,134.69-4.69,414.21,4.55,512.85,2.98,31.72,37.64,60.83,77.52,68.83,29.29,5.88,1106.57,5.88,1135.86,0,39.9-8,74.55-37.11,77.52-68.83,9.66-103.13,10.87-397.2,3.66-530.78,1.68,134.75-12.4,407.76-21.45,504.34h0Z"/>
    <path class="cls-4" d="M1300.47,638.89c-2.96,31.72-37.62,60.83-77.52,68.83-29.29,5.88-1078.35,6.72-1107.65.84-39.89-8.01-74.55-37.11-77.51-68.84-7.68-81.94-15.27-311.7-15.35-439.8v.04c-.07,128.75,7.59,360.72,15.35,443.44,2.96,31.72,37.62,60.83,77.51,68.83,29.3,5.88,1078.36,5.04,1107.65-.83,39.9-8.01,74.56-37.12,77.52-68.84,8.58-91.65,21.71-349.41,21.59-483.19-.12,133.47-13.09,388.71-21.59,479.52h0Z"/>
    <path class="cls-5" d="M33.57,587.15c1.37,19.66,2.8,37.4,4.21,52.57,2.96,31.73,37.62,60.83,77.51,68.84,29.3,5.88,1078.36,5.04,1107.65-.84,39.9-8,74.56-37.11,77.52-68.83.43-4.62.88-9.48,1.33-14.57-317.48,66.27-882.28,40.24-1268.23-37.17Z"/>
    <path class="cls-4" d="M1318.97,90.77c-3.1-36.87-40.51-66.97-88.65-72.48C1090.56,2.29,255.03,2.29,115.28,18.29,67.14,23.8,29.73,53.9,26.64,90.77c-1.51,17.89-2.79,38.75-3.84,61.71-.07,4.19-.13,8.43-.18,12.72,1.09-24.5,2.42-46.72,4.01-65.61,1.58-18.79,12.07-35.81,28.33-48.72-2.5,4.36-2.88,8.67-.59,12.41,6.28,10.28,30.18,12.28,53.39,4.47s36.95-22.48,30.68-32.76c-2.72-4.47-8.78-7.37-16.64-8.59,151.79-15.3,970.84-15.07,1108.52.7,48.14,5.51,85.55,35.61,88.65,72.49,1.14,13.61,2.15,28.96,3.04,45.64-.01-3.6-.05-7.16-.09-10.68-.86-15.96-1.84-30.67-2.95-43.78h0Z"/>
    <path class="cls-6" d="M1254.48,742.65c-30.16,6.05-1133.19,6.05-1163.36,0-41.06-8.25-76.74-38.21-79.8-70.87-5.66-60.37-8.5-160.05-8.54-260.1v.48c-.04,101.41,2.8,202.97,8.54,264.15,3.06,32.66,38.73,62.63,79.8,70.87,30.16,6.05,1133.19,6.05,1163.36,0,41.06-8.24,76.74-38.21,79.8-70.87,5.74-61.28,8.58-163.07,8.54-264.63-.04,100.05-2.88,199.73-8.54,260.1-3.06,32.66-38.74,62.62-79.8,70.87Z"/>
  </g>
</svg>