<?xml version="1.0" encoding="UTF-8"?>
<svg id="Layer_2" data-name="Layer 2" xmlns="http://www.w3.org/2000/svg" viewBox="0 0 129.84 57.28">
  <defs>
    <style>
      .cls-1 {
        fill: #cb191c;
      }

      .cls-1, .cls-2, .cls-3, .cls-4, .cls-5, .cls-6, .cls-7, .cls-8, .cls-9, .cls-10 {
        fill-rule: evenodd;
      }

      .cls-11, .cls-9 {
        fill: #da4050;
      }

      .cls-12 {
        fill: #cf2329;
      }

      .cls-2 {
        fill: #c50a09;
      }

      .cls-13 {
        fill: #d63643;
      }

      .cls-3 {
        fill: #fff;
      }

      .cls-14 {
        fill: #c70f0f;
      }

      .cls-4 {
        fill: #d83b4a;
      }

      .cls-5 {
        fill: #d22c36;
      }

      .cls-15 {
        fill: #d02730;
      }

      .cls-6 {
        fill: #e5e5e5;
      }

      .cls-7 {
        fill: #cd1e23;
      }

      .cls-16 {
        fill: #d4313d;
      }

      .cls-8 {
        fill: #c91416;
      }

      .cls-10 {
        opacity: .2;
      }
    </style>
  </defs>
  <g id="Layer_1-2" data-name="Layer 1">
    <g>
      <path class="cls-10" d="M102.65,2.89H27.19C12.24,2.89,0,15.13,0,30.08s12.24,27.19,27.19,27.19h75.46c14.96,0,27.19-12.23,27.19-27.19S117.6,2.89,102.65,2.89Z"/>
      <path class="cls-3" d="M102.65,0H27.19C12.24,0,0,12.23,0,27.19s12.24,27.19,27.19,27.19h75.46c14.96,0,27.19-12.24,27.19-27.19S117.6,0,102.65,0Z"/>
      <path class="cls-6" d="M101.15,3.82H28.69C15.26,3.82,4.26,14.82,4.26,28.26s10.99,24.43,24.43,24.43h72.45c13.44,0,24.43-10.99,24.43-24.43S114.58,3.82,101.15,3.82Z"/>
      <g>
        <path class="cls-2" d="M101.97,4.33H27.87C15.3,4.33,5.01,14.62,5.01,27.19s10.29,22.86,22.86,22.86h74.11c12.57,0,22.86-10.29,22.86-22.86s-10.29-22.86-22.86-22.86Z"/>
        <g>
          <path class="cls-14" d="M28.88,7.09h72.09c11.8,0,21.38,9.58,21.38,21.38h0c0,11.8-9.58,21.38-21.38,21.38H28.88c-11.8,0-21.38-9.58-21.38-21.38h0c0-11.8,9.58-21.38,21.38-21.38Z"/>
          <path class="cls-8" d="M99.96,9.86H29.88c-10.95,0-19.9,8.96-19.9,19.9s8.96,19.9,19.9,19.9h70.07c10.95,0,19.9-8.96,19.9-19.9s-8.96-19.9-19.9-19.9Z"/>
          <path class="cls-1" d="M98.95,12.62H30.89c-10.13,0-18.43,8.29-18.43,18.43s8.29,18.43,18.43,18.43h68.06c10.13,0,18.43-8.29,18.43-18.43s-8.29-18.43-18.43-18.43Z"/>
          <path class="cls-7" d="M97.94,15.38H31.9c-9.32,0-16.95,7.63-16.95,16.95s7.63,16.95,16.95,16.95h66.04c9.32,0,16.95-7.63,16.95-16.95s-7.63-16.95-16.95-16.95Z"/>
          <rect class="cls-12" x="17.44" y="18.14" width="94.97" height="30.95" rx="15.47" ry="15.47"/>
          <rect class="cls-15" x="19.92" y="20.9" width="90" height="27.99" rx="14" ry="14"/>
          <path class="cls-5" d="M94.92,23.66h-59.99c-6.89,0-12.52,5.63-12.52,12.52s5.63,12.52,12.52,12.52h59.99c6.89,0,12.52-5.63,12.52-12.52s-5.63-12.52-12.52-12.52Z"/>
          <rect class="cls-16" x="24.89" y="26.42" width="80.06" height="22.08" rx="11.04" ry="11.04"/>
          <path class="cls-13" d="M36.94,29.18h55.96c5.28,0,9.56,4.29,9.56,9.56h0c0,5.28-4.29,9.57-9.56,9.57h-55.96c-5.28,0-9.56-4.29-9.56-9.56h0c0-5.28,4.29-9.56,9.56-9.56Z"/>
          <path class="cls-4" d="M91.89,31.94h-53.94c-4.45,0-8.09,3.64-8.09,8.09s3.64,8.09,8.09,8.09h53.94c4.45,0,8.09-3.64,8.09-8.09s-3.64-8.09-8.09-8.09Z"/>
        </g>
        <path class="cls-11" d="M38.95,34.7h51.93c3.65,0,6.61,2.96,6.61,6.61h0c0,3.65-2.96,6.61-6.61,6.61h-51.93c-3.65,0-6.61-2.96-6.61-6.61h0c0-3.65,2.96-6.61,6.61-6.61Z"/>
      </g>
      <path class="cls-9" d="M101.97,43.93H27.87c-11.53,0-21.14-8.66-22.65-19.8-.14,1-.21,2.02-.21,3.06,0,12.57,10.29,22.86,22.86,22.86h74.11c12.57,0,22.86-10.29,22.86-22.86,0-1.04-.07-2.06-.2-3.06-1.51,11.14-11.12,19.8-22.65,19.8Z"/>
      <path class="cls-3" d="M107.86,41.71c-1.58,0-2.86,1.26-2.86,2.82s1.28,2.82,2.86,2.82,2.86-1.26,2.86-2.82-1.28-2.82-2.86-2.82Z"/>
      <path class="cls-9" d="M102.66,7.55H27.17c-4.91,0-8.93,4.02-8.93,8.93s4.02,8.93,8.93,8.93h75.49c4.91,0,8.93-4.02,8.93-8.93s-4.02-8.93-8.93-8.93Z"/>
      <path class="cls-3" d="M16.52,9.54c-.54.42-1.04.81-1.56,1.26-2.18,1.88-4.47,4.27-3.75,6.59,1.38,1.43,4.44.14,5.65-.94,2.39-2.13,2.84-2.41,5.66-3.9,1.47-.78,4.07-3.89,3.1-5.69-1.04-1.43-5.12-.23-9.1,2.68Z"/>
      <path class="cls-3" d="M10.01,18.65c-1.58,0-2.86,1.26-2.86,2.82s1.28,2.83,2.86,2.83,2.86-1.27,2.86-2.83-1.28-2.82-2.86-2.82Z"/>
    </g>
  </g>
</svg>