<?xml version="1.0" encoding="UTF-8"?>
<svg id="Layer_2" data-name="Layer 2" xmlns="http://www.w3.org/2000/svg" viewBox="0 0 463.52 100.27">
  <defs>
    <style>
      .cls-1 {
        fill: #ffb700;
      }

      .cls-2 {
        fill: #efbbc7;
      }

      .cls-3 {
        fill: #4e5660;
      }

      .cls-4 {
        fill: #fff;
      }

      .cls-5 {
        fill: #fec230;
      }

      .cls-6 {
        fill: #eda1ab;
      }

      .cls-7 {
        fill: #e16e7e;
      }

      .cls-8 {
        fill: #d49800;
      }

      .cls-9 {
        fill: #e7889d;
      }

      .cls-10 {
        fill: #f4c8d2;
      }

      .cls-11 {
        fill: #efdae1;
      }

      .cls-12 {
        fill: #ffe558;
      }

      .cls-13 {
        fill: #e6e6e6;
      }
    </style>
  </defs>
  <g id="Self_Care" data-name="Self Care">
    <g>
      <g id="g6356">
        <path d="M435.99,11.66H77.72c-22.58,0-27.61,22.36-27.54,44.6.08,21.99,3.08,43.85,27.54,43.85h358.27c24.46,0,27.46-21.87,27.53-43.85.08-22.24-4.95-44.6-27.53-44.6Z"/>
        <path class="cls-4" d="M435.99,7.28H77.72c-22.58,0-27.61,22.37-27.54,44.61.08,21.98,3.08,43.84,27.54,43.84h358.27c24.46,0,27.46-21.86,27.53-43.84.08-22.24-4.95-44.61-27.53-44.61Z"/>
        <path class="cls-5" d="M428.18,13.59H85.53c-20.9,0-25.56,17.87-25.49,35.64.07,17.57,2.84,35.04,25.49,35.04h342.65c22.65,0,25.42-17.47,25.49-35.04.07-17.76-4.59-35.64-25.49-35.64Z"/>
        <path class="cls-13" d="M435.99,92.55H77.72c-24.01,0-27.34-21.07-27.53-42.65v.02c-.01.66-.01,1.32-.01,1.97.08,21.98,3.08,43.84,27.54,43.84h358.27c24.46,0,27.46-21.86,27.53-43.84,0-.66,0-1.33,0-1.99-.19,21.58-3.52,42.65-27.53,42.65Z"/>
        <path class="cls-12" d="M428.17,77.05H85.53c-21.11,0-24.96-15.19-25.44-31.48-.04,1.22-.06,2.45-.05,3.66.06,17.58,2.84,35.04,25.49,35.04h342.64c22.66,0,25.44-17.46,25.5-35.04,0-1.21-.01-2.44-.06-3.66-.48,16.29-4.32,31.48-25.44,31.48Z"/>
        <path class="cls-8" d="M428.17,77.71H85.53c-21.11,0-24.96-15.19-25.44-31.48-.03.95-.05,1.91-.05,2.86v.14c0,17.57,2.84,35.04,25.49,35.04h342.64c22.66,0,25.43-17.46,25.5-35.04v-.14c0-.95-.02-1.91-.06-2.86-.48,16.29-4.32,31.48-25.44,31.48Z"/>
        <path class="cls-1" d="M62.05,60.44c2.76,9.6,9.14,16.61,23.48,16.61h342.64c14.9,0,21.2-7.56,23.79-17.72-102.49,10.35-332.22,11.25-389.91,1.11Z"/>
        <path class="cls-12" d="M432.19,13.83c-1.27-.16-2.61-.24-4.02-.24H85.53c-1.4,0-2.74.08-4.01.24-16.21,2.01-20.88,16.45-21.43,31.74.02.53.04,1.06.06,1.59.84-15.98,6.44-30.65,25.38-30.65h342.64c18.95,0,24.55,14.67,25.39,30.65.02-.53.04-1.06.05-1.59-.54-15.29-5.22-29.73-21.42-31.74Z"/>
        <path class="cls-8" d="M429.72,21.66H137.86c-12.84,0-15.7,12.73-15.65,25.38.04,12.51,1.74,24.95,15.65,24.95h291.86c13.9,0,15.61-12.44,15.65-24.95.04-12.65-2.82-25.38-15.65-25.38Z"/>
        <path class="cls-12" d="M429.72,24.52H137.86c-12.84,0-15.7,12-15.65,23.93.04,11.8,1.74,23.54,15.65,23.54h291.86c13.9,0,15.61-11.74,15.65-23.54.04-11.93-2.82-23.93-15.65-23.93Z"/>
        <path class="cls-1" d="M429.72,24.52H137.86c-12.84,0-15.7,11.34-15.65,22.62.04,11.15,1.74,22.24,15.65,22.24h291.86c13.9,0,15.61-11.09,15.65-22.24.04-11.28-2.82-22.62-15.65-22.62Z"/>
      </g>
      <g id="g6470">
        <path class="cls-7" d="M423.85,27.34H143.72c-14.95,0-16.6,8.12-16.6,19.6,0,10.78,1.98,19.6,16.6,19.6h280.13c14.62,0,16.6-8.82,16.6-19.6,0-11.48-1.65-19.6-16.6-19.6Z"/>
        <path class="cls-11" d="M423.85,28.45H143.72c-13.48,0-16.15,6.6-16.54,16.32.41,9.4,3.27,16.66,16.54,16.66h280.13c13.26,0,16.12-7.26,16.54-16.66-.39-9.72-3.06-16.32-16.54-16.32Z"/>
        <path class="cls-9" d="M423.85,27.34H143.72c-13.48,0-16.15,6.6-16.54,16.32.41,9.4,3.27,16.66,16.54,16.66h280.13c13.26,0,16.12-7.26,16.54-16.66-.39-9.72-3.06-16.32-16.54-16.32Z"/>
        <path class="cls-2" d="M423.85,32.77H143.72c-13.48,0-16.15,4.42-16.54,10.94.41,6.31,3.27,11.19,16.54,11.19h280.13c13.26,0,16.12-4.88,16.54-11.19-.39-6.52-3.06-10.94-16.54-10.94Z"/>
        <path class="cls-11" d="M423.85,27.34H143.72c-13.48,0-16.15,6.6-16.54,16.32.05-.73.12-1.42.23-2.09.91-5.33,4.37-8.8,16.31-8.8h280.13c11.94,0,15.4,3.47,16.31,8.8.11.67.18,1.36.23,2.09-.39-9.72-3.06-16.32-16.54-16.32Z"/>
      </g>
    </g>
    <g>
      <g>
        <path class="cls-13" d="M58.15,99.54c-15.65,0-31.54-15.93-37.65-22.78C10.86,65.95.08,49.42,1.06,38.09c-.09-8.6,2.97-16.32,8.88-22.35,6.4-6.54,15.46-10.29,24.87-10.29,8.86,0,16.79,3.29,22.63,9.23,6.98-6.29,15.14-9.69,23.53-9.69,14.22,0,26.34,9.56,30.16,23.78,2.34,8.74,6,39.58-45.36,69.25l-.54.31-.6.19c-2.03.66-4.21,1-6.47,1h0Z"/>
        <path class="cls-13" d="M56.82,100.27c-2.8,0-5.52-.69-8.1-2.05-11.88-5.61-24.44-16.09-33.61-28.06C4.73,56.63-.15,42.98,1.35,31.75c1.31-9.76,7.87-22.27,31.69-26.41l4.64,10.71c-3.41,2.57-9.56,17.31-5.49,32.99,4.41,17,19.05,27.68,42.35,30.9l15.93,2.2-13.47,8.77c-.97.63-1.97,1.33-3.03,2.08-4.87,3.42-10.4,7.29-17.14,7.29h0Z"/>
        <path class="cls-13" d="M33.94,76.38c-1.11,0-2.04-.01-2.75-.03h-.12c-14.42-.69-24.41-5.15-28.11-12.56-1.45-2.9-3.13-8.88,1.94-16.34l2.74-4.03,4.51,1.85c6.6,2.71,15.01,4.15,24.33,4.15,11.19,0,22.86-2.07,33.75-5.98,1.46-.54,3.05-.83,4.65-.83,5.65,0,10.77,3.56,12.73,8.87l.08.24c1.34,4.15.7,8.32-1.8,11.75-8.49,11.66-39.15,12.92-51.94,12.92Z"/>
        <path class="cls-13" d="M73.06,79.29c-12.67,0-27.41-2.51-37.6-6.41-6.24-2.25-9.66-8.16-8.54-14.74,1.16-6.75,6.65-11.65,13.05-11.65,1.66,0,3.33.32,4.98.96l.16.06.16.07c5.91,2.68,14.99,4.22,24.9,4.22,12.43,0,24.56-2.39,30.89-6.09l2.76-1.61,2.88,1.4c5.92,2.87,8.12,11.32,4.8,18.46l-.19.41-.25.38c-6.32,9.51-19.46,14.54-38.01,14.54Z"/>
      </g>
      <g>
        <path class="cls-4" d="M57.15,94.54c-15.65,0-31.54-15.93-37.65-22.78C9.86,60.95-.92,44.42.06,33.09-.03,24.49,3.04,16.77,8.94,10.74,15.34,4.2,24.4.45,33.8.45c8.86,0,16.79,3.29,22.63,9.23C63.41,3.4,71.57,0,79.96,0c14.22,0,26.34,9.56,30.16,23.78,2.34,8.74,6,39.58-45.36,69.25l-.54.31-.6.19c-2.03.66-4.21,1-6.47,1h0Z"/>
        <path class="cls-4" d="M55.82,95.27c-2.8,0-5.52-.69-8.1-2.05-11.88-5.61-24.44-16.09-33.61-28.06C3.73,51.63-1.15,37.98.35,26.75,1.66,16.99,8.22,4.48,32.05.34l4.64,10.71c-3.41,2.57-9.56,17.31-5.49,32.99,4.41,17,19.05,27.68,42.35,30.9l15.93,2.2-13.47,8.77c-.97.63-1.97,1.33-3.03,2.08-4.87,3.42-10.4,7.29-17.14,7.29h0Z"/>
        <path class="cls-4" d="M32.94,71.38c-1.11,0-2.04-.01-2.75-.03h-.12c-14.42-.69-24.41-5.15-28.11-12.56-1.45-2.9-3.13-8.88,1.94-16.34l2.74-4.03,4.51,1.85c6.6,2.71,15.01,4.15,24.33,4.15,11.19,0,22.86-2.07,33.75-5.98,1.46-.54,3.05-.83,4.65-.83,5.65,0,10.77,3.56,12.73,8.87l.08.24c1.34,4.15.7,8.32-1.8,11.75-8.49,11.66-39.15,12.92-51.94,12.92Z"/>
        <path class="cls-4" d="M72.06,74.29c-12.67,0-27.41-2.51-37.6-6.41-6.24-2.25-9.66-8.16-8.54-14.74,1.16-6.75,6.65-11.65,13.05-11.65,1.66,0,3.33.32,4.98.96l.16.06.16.07c5.91,2.68,14.99,4.22,24.9,4.22,12.43,0,24.56-2.39,30.89-6.09l2.76-1.61,2.88,1.4c5.92,2.87,8.12,11.32,4.8,18.46l-.19.41-.25.38c-6.32,9.51-19.46,14.54-38.01,14.54Z"/>
      </g>
      <g>
        <g>
          <path class="cls-9" d="M61.76,87.84C40.72,94.71,4.2,49.56,6.07,33.34,5.5,6.57,42.47-3.73,55.98,18.87c32.3-39.62,89.68,20.5,5.78,68.97Z"/>
          <path class="cls-7" d="M33.07,6.25c-53.74,9.34-16.16,65.89,17.34,81.6,8.21,4.43,15.5-2.54,22.31-6.98C9.91,72.19,21.31,15.11,33.07,6.25Z"/>
          <path class="cls-6" d="M30.35,65.35c-18.45-.87-28.87-8.68-21.49-19.54,15.4,6.34,39.57,6.46,62.39-1.74,3.92-1.45,8.28.55,9.73,4.48,5.19,16.09-41.38,17.06-50.62,16.8h0Z"/>
          <path class="cls-10" d="M36.54,62.25c-9.25-3.27-3.92-17.74,5.25-14.2,16.42,7.46,47.86,5.71,61.3-2.15,2.84,1.38,3.94,6.29,1.97,10.53-11.41,17.17-51.13,12.5-68.53,5.82Z"/>
        </g>
        <g>
          <g>
            <path class="cls-4" d="M38.87,29.15c8.22-.09,8.22,10.17,0,10.08-8.22.09-8.22-10.17,0-10.08Z"/>
            <path class="cls-4" d="M73.18,29.15c8.22-.09,8.22,10.17,0,10.08-8.22.09-8.22-10.17,0-10.08Z"/>
            <path class="cls-3" d="M56.03,28.84c-8.46-2.82-8.89,5.01,0,5.78,8.89-.77,8.46-8.6,0-5.78h0Z"/>
          </g>
          <g>
            <path class="cls-3" d="M42.56,30.56c-5.35-.03-6.23-6.82,0-3.14,6.23-3.68,5.35,3.11,0,3.14Z"/>
            <path class="cls-3" d="M69.49,30.56c-5.35-.03-6.23-6.82,0-3.14,6.23-3.69,5.35,3.11,0,3.14h0Z"/>
          </g>
        </g>
      </g>
    </g>
  </g>
</svg>