<?xml version="1.0" encoding="UTF-8"?>
<svg id="Layer_2" data-name="Layer 2" xmlns="http://www.w3.org/2000/svg" viewBox="0 0 71.17 71.86">
  <defs>
    <style>
      .cls-1 {
        fill: #a6e54e;
      }

      .cls-1, .cls-2, .cls-3, .cls-4, .cls-5, .cls-6, .cls-7, .cls-8, .cls-9, .cls-10, .cls-11, .cls-12, .cls-13, .cls-14, .cls-15, .cls-16 {
        fill-rule: evenodd;
      }

      .cls-2 {
        fill: #92d832;
      }

      .cls-3 {
        fill: #8dd52b;
      }

      .cls-4 {
        fill: #333;
        opacity: .2;
      }

      .cls-5 {
        fill: #fff;
      }

      .cls-6 {
        fill: #a1e247;
      }

      .cls-7 {
        fill: #97db39;
      }

      .cls-8 {
        fill: none;
        stroke: #8bd328;
        stroke-miterlimit: 22.93;
        stroke-width: .94px;
      }

      .cls-9 {
        fill: #a4e34b;
      }

      .cls-10 {
        fill: #e5e5e5;
      }

      .cls-11 {
        fill: #95da36;
      }

      .cls-12 {
        fill: #90d62f;
      }

      .cls-13 {
        fill: #8bd328;
      }

      .cls-14 {
        fill: #9cde40;
      }

      .cls-15 {
        fill: #9add3d;
      }

      .cls-16 {
        fill: #9fe044;
      }
    </style>
  </defs>
  <g id="Layer_1-2" data-name="Layer 1">
    <g>
      <g>
        <path class="cls-4" d="M40.82,1.26c-5.28-.73-9.36-.59-14.46,1.34-2.97,1.13-5.76,2.49-8.34,4.11C7.5,13.3.87,24,.07,36.36c-.63,9.72,2.93,18.53,9.96,25.28,6.72,6.46,15.91,10.09,25.27,10.22,6.69,0,13.19-1.82,18.88-5.3,17.15-10.51,22.46-32.94,10.63-49.35-6.26-8.68-13.03-14.14-24-15.94Z"/>
        <path class="cls-5" d="M40.61.4c-5.08-.71-9-.58-13.9,1.3-2.86,1.1-5.54,2.42-8.02,3.99C8.59,12.1,2.21,22.49,1.45,34.5c-.6,9.45,2.81,18.01,9.57,24.57,6.46,6.28,15.3,9.81,24.29,9.93,6.43,0,12.68-1.77,18.15-5.15,16.49-10.22,21.59-32.01,10.22-47.97C57.67,7.45,51.16,2.14,40.61.4Z"/>
        <path class="cls-10" d="M39.75,6.37c-4.21-.62-7.45-.51-11.51,1.14-2.37.97-4.59,2.13-6.64,3.51-8.37,5.63-13.65,14.77-14.28,25.33-.5,8.3,2.33,15.83,7.92,21.61,5.35,5.52,12.67,8.62,20.12,8.73,5.32,0,10.5-1.55,15.03-4.53,13.66-8.98,17.88-28.14,8.47-42.17-4.98-7.42-10.37-12.08-19.1-13.62Z"/>
        <g>
          <path class="cls-13" d="M39.55,7.51c-4.02-.56-7.13-.46-11,1.03-6.89,2.64-12.53,6.99-16.27,13.44-3.54,6.05-4.89,14.5-2.78,21.27,1.27,4.09,3.56,7.73,6.62,10.71,5.11,4.97,12.11,7.77,19.23,7.86,15.07,0,27.31-12.21,27.31-27.31-.14-5.49-1.69-10.28-4.86-14.73-4.76-6.68-9.91-10.88-18.26-12.26Z"/>
          <g>
            <path class="cls-3" d="M40.07,10.73c-3.73-.43-6.99-.3-10.93,1.06-6.69,2.41-12.22,6.34-15.65,12.17-3.29,5.44-4.64,13.64-2.63,20.01,1.21,3.84,3.37,7.27,6.28,10.08,4.85,4.67,11.48,7.3,18.24,7.39,13.99,0,25.39-11.2,25.59-25.08.07-5.15-1.22-9.72-4.1-14-4.33-6.24-9.04-10.52-16.79-11.61Z"/>
            <path class="cls-12" d="M40.58,13.96c-3.45-.29-6.85-.14-10.86,1.08-6.48,2.17-11.9,5.68-15.03,10.89-3.04,4.83-4.39,12.78-2.49,18.74,1.14,3.6,3.19,6.82,5.94,9.44,4.59,4.38,10.86,6.85,17.24,6.93,12.92,0,23.47-10.18,23.86-22.85.27-4.81-.75-9.15-3.35-13.27-3.91-5.81-8.17-10.16-15.32-10.96Z"/>
            <path class="cls-2" d="M41.09,17.19c-3.16-.16-6.71.01-10.79,1.11-6.27,1.94-11.59,5.03-14.41,9.62-2.78,4.22-4.14,11.92-2.35,17.48,1.08,3.36,3.01,6.36,5.6,8.81,4.32,4.08,10.23,6.38,16.25,6.46,11.84,0,21.56-9.17,22.14-20.62.48-4.47-.28-8.59-2.59-12.55-3.48-5.38-7.3-9.8-13.85-10.31Z"/>
            <path class="cls-11" d="M41.61,20.42c-2.88-.03-6.58.17-10.72,1.13-6.06,1.7-11.28,4.37-13.79,8.35-2.53,3.61-3.88,11.06-2.21,16.22,1.01,3.12,2.82,5.9,5.25,8.17,4.06,3.79,9.61,5.92,15.26,5.99,10.77,0,19.64-8.16,20.42-18.39.69-4.12.18-8.03-1.84-11.82-3.05-4.94-6.42-9.44-12.38-9.66Z"/>
            <path class="cls-7" d="M42.12,23.64c-2.59.11-6.44.33-10.64,1.16-5.85,1.46-10.96,3.72-13.17,7.08-2.28,2.99-3.63,10.2-2.06,14.96.95,2.87,2.64,5.44,4.91,7.54,3.79,3.5,8.98,5.46,14.27,5.53,9.7,0,17.72-7.14,18.69-16.16.9-3.78.65-7.47-1.08-11.09-2.63-4.51-5.56-9.08-10.92-9.02Z"/>
            <path class="cls-15" d="M42.63,26.87c-2.31.24-6.3.48-10.57,1.18-5.65,1.23-10.65,3.06-12.55,5.81-2.02,2.38-3.38,9.34-1.92,13.7.88,2.63,2.46,4.98,4.57,6.9,3.53,3.2,8.36,5,13.28,5.06,8.62,0,15.8-6.13,16.97-13.93,1.1-3.44,1.12-6.91-.32-10.36-2.2-4.08-4.68-8.73-9.44-8.37Z"/>
            <path class="cls-14" d="M43.15,30.1c-2.02.37-6.17.64-10.5,1.21-5.44.99-10.34,2.41-11.94,4.54-1.77,1.77-3.13,8.48-1.77,12.44.81,2.39,2.27,4.53,4.23,6.27,3.27,2.91,7.73,4.54,12.28,4.6,7.55,0,13.88-5.12,15.24-11.7,1.31-3.09,1.59-6.34.44-9.63-1.77-3.65-3.81-8.37-7.98-7.72Z"/>
            <path class="cls-16" d="M43.66,33.33c-1.74.5-6.03.79-10.43,1.23-5.23.76-10.02,1.75-11.32,3.27-1.52,1.16-2.87,7.62-1.63,11.18.75,2.15,2.09,4.07,3.89,5.63,3,2.61,7.11,4.08,11.29,4.13,6.48,0,11.97-4.1,13.52-9.47,1.52-2.75,2.06-5.78,1.19-8.9-1.34-3.21-2.94-8.01-6.51-7.07Z"/>
            <path class="cls-6" d="M44.17,36.55c-1.45.64-5.89.95-10.36,1.26-5.02.52-9.71,1.1-10.7,2-1.26.55-2.62,6.76-1.49,9.92.68,1.91,1.91,3.61,3.54,5,2.74,2.32,6.48,3.62,10.3,3.66,5.41,0,10.05-3.09,11.8-7.24,1.73-2.41,2.53-5.22,1.95-8.18-.92-2.78-2.07-7.65-5.04-6.42Z"/>
            <path class="cls-9" d="M44.68,39.78c-1.17.77-5.75,1.11-10.29,1.29-4.81.29-9.4.45-10.08.73-1.01-.06-2.37,5.9-1.34,8.66.62,1.66,1.72,3.15,3.2,4.36,2.47,2.02,5.86,3.16,9.31,3.2,4.33,0,8.13-2.08,10.07-5.01,1.93-2.06,2.99-4.66,2.7-7.45-.49-2.35-1.2-7.29-3.57-5.78Z"/>
          </g>
          <path class="cls-1" d="M45.2,43.01c-1.77,1.81-18.93,1.44-19.68.77-.76-.67-2.12,5.05-1.2,7.4.55,1.42,1.54,2.69,2.86,3.73,2.21,1.73,5.23,2.7,8.31,2.73,6.51,0,11.81-4.25,11.81-9.5-.06-1.91-.33-6.93-2.1-5.12Z"/>
        </g>
        <path class="cls-1" d="M35.37,9.06c-24.87-.08-28.61,32.67-17.1,26.43,7.98-4.33,27.83-3.42,35.36,0,10.08,4.58,8.75-26.34-18.26-26.43Z"/>
        <path class="cls-1" d="M35.37,54.08c-10.67-.14-20.47-6.18-24.75-16.06-1-2.3-1.36-4.57-1.45-7.06-1.53,9.6,1.21,17.87,8.7,24.22,5.02,4.25,10.95,6.33,17.5,6.41,14.96,0,27.09-12.13,27.09-27.09-.01-1.31-.08-2.45-.26-3.75-2,13.56-13.14,23.16-26.83,23.33Z"/>
        <path class="cls-5" d="M20.73,14.03c-.52.4-1,.78-1.5,1.21-2.09,1.8-4.28,4.08-3.59,6.31,1.33,1.37,4.26.13,5.41-.9,2.29-2.05,2.72-2.31,5.42-3.74,1.41-.75,3.89-3.73,2.97-5.44-1-1.37-4.9-.22-8.71,2.56Z"/>
        <path class="cls-5" d="M14.49,22.76c-1.51,0-2.74,1.21-2.74,2.7s1.22,2.71,2.74,2.71,2.74-1.21,2.74-2.71-1.23-2.7-2.74-2.7Z"/>
        <path class="cls-5" d="M49.82,50.64c-1.51,0-2.74,1.21-2.74,2.7s1.22,2.71,2.74,2.71,2.73-1.21,2.73-2.71-1.22-2.7-2.73-2.7Z"/>
      </g>
      <g>
        <g>
          <path class="cls-8" d="M35.59,31.91c-2.88,0-5.21,2.33-5.21,5.21s2.33,5.21,5.21,5.21,5.21-2.33,5.21-5.21-2.33-5.21-5.21-5.21Z"/>
          <path class="cls-8" d="M50.62,34.28h-2.98c-.32-1.37-.87-2.65-1.6-3.79l2.09-2.09c.35-.35.35-.93,0-1.28l-2.64-2.64c-.35-.35-.93-.35-1.28,0l-2.11,2.11c-1.16-.72-2.44-1.25-3.81-1.55v-2.95c0-.5-.41-.91-.9-.91h-3.73c-.5,0-.9.41-.9.91v2.98c-1.37.32-2.64.87-3.79,1.6l-2.08-2.09c-.35-.35-.93-.35-1.28,0l-2.64,2.64c-.35.35-.35.93,0,1.28l2.11,2.11c-.72,1.16-1.25,2.44-1.55,3.81h-2.95c-.5,0-.9.41-.9.91v3.73c0,.5.41.91.9.91h2.98c.32,1.36.87,2.64,1.6,3.79l-2.08,2.08c-.35.35-.35.93,0,1.28l2.64,2.64c.35.35.93.35,1.28,0l2.11-2.11c1.16.72,2.44,1.25,3.81,1.56v2.95c0,.5.41.9.9.9h3.73c.5,0,.9-.41.9-.9v-2.98c1.37-.32,2.64-.87,3.79-1.6l2.09,2.08c.35.35.93.35,1.28,0l2.64-2.64c.35-.35.35-.93,0-1.28l-2.11-2.11c.72-1.16,1.25-2.44,1.55-3.81h2.95c.5,0,.9-.41.9-.9v-3.73c0-.5-.41-.9-.9-.9ZM35.59,42.32c-2.88,0-5.21-2.33-5.21-5.21s2.33-5.21,5.21-5.21,5.21,2.33,5.21,5.21-2.33,5.21-5.21,5.21Z"/>
          <path class="cls-13" d="M30.38,37.12c0-2.88,2.33-5.21,5.21-5.21v-10.73h-1.94c-.5,0-.9.41-.9.91v2.98c-1.37.32-2.64.87-3.79,1.6l-2.08-2.09c-.35-.35-.93-.35-1.28,0l-2.64,2.64c-.35.35-.35.93,0,1.28l2.11,2.11c-.72,1.16-1.25,2.44-1.55,3.81h-2.95c-.5,0-.9.41-.9.91v3.73c0,.5.41.91.9.91h2.98c.32,1.36.87,2.64,1.6,3.79l-2.08,2.08c-.35.35-.35.93,0,1.28l2.64,2.64c.35.35.93.35,1.28,0l2.11-2.11c1.16.72,2.44,1.25,3.81,1.56v2.95c0,.5.41.9.9.9h1.8v-10.73c-2.88,0-5.21-2.33-5.21-5.21Z"/>
          <path class="cls-13" d="M50.62,34.28h-2.98c-.32-1.37-.87-2.65-1.6-3.79l2.09-2.09c.35-.35.35-.93,0-1.28l-2.64-2.64c-.35-.35-.93-.35-1.28,0l-2.11,2.11c-1.16-.72-2.44-1.25-3.81-1.55v-2.95c0-.5-.41-.91-.9-.91h-1.8v10.73c2.87,0,5.21,2.33,5.21,5.21s-2.33,5.21-5.21,5.21v10.73h1.94c.5,0,.9-.41.9-.9v-2.98c1.37-.32,2.64-.87,3.79-1.6l2.09,2.08c.35.35.93.35,1.28,0l2.64-2.64c.35-.35.35-.93,0-1.28l-2.11-2.11c.72-1.16,1.25-2.44,1.55-3.81h2.95c.5,0,.9-.41.9-.9v-3.73c0-.5-.41-.9-.9-.9Z"/>
        </g>
        <g>
          <g>
            <path class="cls-8" d="M35.59,29.54c-2.88,0-5.21,2.33-5.21,5.21s2.33,5.21,5.21,5.21,5.21-2.33,5.21-5.21-2.33-5.21-5.21-5.21Z"/>
            <path class="cls-8" d="M50.62,31.9h-2.98c-.32-1.37-.87-2.65-1.6-3.79l2.09-2.09c.35-.35.35-.93,0-1.28l-2.64-2.64c-.35-.35-.93-.35-1.28,0l-2.11,2.11c-1.16-.72-2.44-1.25-3.81-1.55v-2.95c0-.5-.41-.91-.9-.91h-3.73c-.5,0-.9.41-.9.91v2.98c-1.37.32-2.64.87-3.79,1.6l-2.08-2.09c-.35-.35-.93-.35-1.28,0l-2.64,2.64c-.35.35-.35.93,0,1.28l2.11,2.11c-.72,1.16-1.25,2.44-1.55,3.81h-2.95c-.5,0-.9.41-.9.91v3.73c0,.5.41.9.9.9h2.98c.32,1.37.87,2.65,1.6,3.8l-2.08,2.08c-.35.35-.35.93,0,1.28l2.64,2.64c.35.35.93.35,1.28,0l2.11-2.11c1.16.72,2.44,1.25,3.81,1.56v2.95c0,.5.41.9.9.9h3.73c.5,0,.9-.41.9-.9v-2.98c1.37-.32,2.64-.87,3.79-1.6l2.09,2.09c.35.35.93.35,1.28,0l2.64-2.64c.35-.35.35-.93,0-1.28l-2.11-2.11c.72-1.16,1.25-2.44,1.55-3.81h2.95c.5,0,.9-.41.9-.91v-3.73c0-.5-.41-.91-.9-.91ZM35.59,39.95c-2.88,0-5.21-2.33-5.21-5.21s2.33-5.21,5.21-5.21,5.21,2.33,5.21,5.21-2.33,5.21-5.21,5.21Z"/>
            <path class="cls-10" d="M30.38,34.74c0-2.88,2.33-5.21,5.21-5.21v-10.73h-1.94c-.5,0-.9.41-.9.91v2.98c-1.37.32-2.64.87-3.79,1.6l-2.08-2.09c-.35-.35-.93-.35-1.28,0l-2.64,2.64c-.35.35-.35.93,0,1.28l2.11,2.11c-.72,1.16-1.25,2.44-1.55,3.81h-2.95c-.5,0-.9.41-.9.91v3.73c0,.5.41.9.9.9h2.98c.32,1.37.87,2.65,1.6,3.8l-2.08,2.08c-.35.35-.35.93,0,1.28l2.64,2.64c.35.35.93.35,1.28,0l2.11-2.11c1.16.72,2.44,1.25,3.81,1.56v2.95c0,.5.41.9.9.9h1.8v-10.73c-2.88,0-5.21-2.33-5.21-5.21Z"/>
            <path class="cls-10" d="M50.62,31.9h-2.98c-.32-1.37-.87-2.65-1.6-3.79l2.09-2.09c.35-.35.35-.93,0-1.28l-2.64-2.64c-.35-.35-.93-.35-1.28,0l-2.11,2.11c-1.16-.72-2.44-1.25-3.81-1.55v-2.95c0-.5-.41-.91-.9-.91h-1.8v10.73c2.87,0,5.21,2.33,5.21,5.21s-2.33,5.21-5.21,5.21v10.73h1.94c.5,0,.9-.41.9-.9v-2.98c1.37-.32,2.64-.87,3.79-1.6l2.09,2.09c.35.35.93.35,1.28,0l2.64-2.64c.35-.35.35-.93,0-1.28l-2.11-2.11c.72-1.16,1.25-2.44,1.55-3.81h2.95c.5,0,.9-.41.9-.91v-3.73c0-.5-.41-.91-.9-.91Z"/>
          </g>
          <path class="cls-5" d="M50.62,31.9h-2.98c-.32-1.37-.87-2.65-1.6-3.79l2.08-2.09c.35-.35.35-.93,0-1.28l-2.64-2.64c-.35-.35-.93-.35-1.28,0l-2.11,2.11c-1.16-.72-2.44-1.25-3.81-1.55v-2.95c0-.5-.41-.91-.9-.91h-3.73c-.5,0-.9.41-.9.91v2.98c-1.37.32-2.64.87-3.79,1.6l-2.08-2.08c-.35-.35-.93-.35-1.28,0l-2.64,2.64c-.35.35-.35.93,0,1.28l2.11,2.11c-.72,1.16-1.25,2.44-1.55,3.81h-2.95c-.5,0-.9.41-.9.9v1.8h10.73c0-2.88,2.33-5.21,5.21-5.21s5.21,2.33,5.21,5.21h10.73v-1.96c-.01-.49-.42-.88-.9-.88Z"/>
        </g>
      </g>
    </g>
  </g>
</svg>