<?xml version="1.0" encoding="UTF-8"?>
<svg id="Layer_2" data-name="Layer 2" xmlns="http://www.w3.org/2000/svg" viewBox="0 0 463.52 121.93">
  <defs>
    <style>
      .cls-1 {
        fill: #557983;
      }

      .cls-2 {
        fill: #fddd45;
      }

      .cls-3 {
        fill: #ffb700;
      }

      .cls-4 {
        fill: #fff;
      }

      .cls-5 {
        fill: #fec230;
      }

      .cls-6 {
        fill: #ffbc8a;
      }

      .cls-7 {
        fill: #fdd1a7;
      }

      .cls-8 {
        fill: #688d97;
      }

      .cls-9 {
        fill: #64e0c4;
      }

      .cls-10 {
        fill: #fc7cb6;
      }

      .cls-11 {
        fill: #d49800;
      }

      .cls-12 {
        fill: #fb5fa7;
      }

      .cls-13 {
        fill: #f5a871;
      }

      .cls-14 {
        fill: #27d1b3;
      }

      .cls-15 {
        fill: #0e8c74;
      }

      .cls-16 {
        fill: #abf4e1;
      }

      .cls-17 {
        fill: #e89a5e;
      }

      .cls-18 {
        fill: #fdd330;
      }

      .cls-19 {
        fill: #c47a4a;
      }

      .cls-20 {
        fill: #ffe558;
      }

      .cls-21 {
        fill: #e6e6e6;
      }
    </style>
  </defs>
  <g id="Socialize">
    <g>
      <g id="g6356">
        <path d="M435.99,24.08H77.72c-22.58,0-27.61,22.36-27.54,44.6.08,21.99,3.08,43.85,27.54,43.85h358.27c24.46,0,27.46-21.87,27.53-43.85.08-22.24-4.95-44.6-27.53-44.6Z"/>
        <path class="cls-4" d="M435.99,19.7H77.72c-22.58,0-27.61,22.37-27.54,44.61.08,21.98,3.08,43.84,27.54,43.84h358.27c24.46,0,27.46-21.86,27.53-43.84.08-22.24-4.95-44.61-27.53-44.61Z"/>
        <path class="cls-5" d="M428.18,26.01H85.53c-20.9,0-25.56,17.87-25.49,35.64.07,17.57,2.84,35.04,25.49,35.04h342.65c22.65,0,25.42-17.47,25.49-35.04.07-17.76-4.59-35.64-25.49-35.64Z"/>
        <path class="cls-21" d="M435.99,104.97H77.72c-24.01,0-27.34-21.07-27.53-42.65v.02c-.01.66-.01,1.32-.01,1.97.08,21.98,3.08,43.84,27.54,43.84h358.27c24.46,0,27.46-21.86,27.53-43.84,0-.66,0-1.33,0-1.99-.19,21.58-3.52,42.65-27.53,42.65Z"/>
        <path class="cls-20" d="M428.17,89.47H85.53c-21.11,0-24.96-15.19-25.44-31.48-.04,1.22-.06,2.45-.05,3.66.06,17.58,2.84,35.04,25.49,35.04h342.64c22.66,0,25.44-17.46,25.5-35.04,0-1.21-.01-2.44-.06-3.66-.48,16.29-4.32,31.48-25.44,31.48Z"/>
        <path class="cls-11" d="M428.17,90.13H85.53c-21.11,0-24.96-15.19-25.44-31.48-.03.95-.05,1.91-.05,2.86v.14c0,17.57,2.84,35.04,25.49,35.04h342.64c22.66,0,25.43-17.46,25.5-35.04v-.14c0-.95-.02-1.91-.06-2.86-.48,16.29-4.32,31.48-25.44,31.48Z"/>
        <path class="cls-3" d="M62.05,72.86c2.76,9.6,9.14,16.61,23.48,16.61h342.64c14.9,0,21.2-7.56,23.79-17.72-102.49,10.35-332.22,11.25-389.91,1.11Z"/>
        <path class="cls-20" d="M432.19,26.25c-1.27-.16-2.61-.24-4.02-.24H85.53c-1.4,0-2.74.08-4.01.24-16.21,2.01-20.88,16.45-21.43,31.74.02.53.04,1.06.06,1.59.84-15.98,6.44-30.65,25.38-30.65h342.64c18.95,0,24.55,14.67,25.39,30.65.02-.53.04-1.06.05-1.59-.54-15.29-5.22-29.73-21.42-31.74Z"/>
        <path class="cls-11" d="M429.72,34.08H137.86c-12.84,0-15.7,12.73-15.65,25.38.04,12.51,1.74,24.95,15.65,24.95h291.86c13.9,0,15.61-12.44,15.65-24.95.04-12.65-2.82-25.38-15.65-25.38Z"/>
        <path class="cls-20" d="M429.72,36.94H137.86c-12.84,0-15.7,12-15.65,23.93.04,11.8,1.74,23.54,15.65,23.54h291.86c13.9,0,15.61-11.74,15.65-23.54.04-11.93-2.82-23.93-15.65-23.93Z"/>
        <path class="cls-3" d="M429.72,36.94H137.86c-12.84,0-15.7,11.34-15.65,22.62.04,11.15,1.74,22.24,15.65,22.24h291.86c13.9,0,15.61-11.09,15.65-22.24.04-11.28-2.82-22.62-15.65-22.62Z"/>
      </g>
      <g id="g6470">
        <path class="cls-15" d="M387.4,38.76h-245.72c-13.11,0-14.56,8.12-14.56,19.6,0,10.78,1.74,19.6,14.56,19.6h245.72c12.82,0,14.56-8.82,14.56-19.6,0-11.48-1.45-19.6-14.56-19.6Z"/>
        <path class="cls-16" d="M387.4,39.87h-245.72c-11.82,0-14.17,6.6-14.51,16.32.36,9.4,2.87,16.66,14.51,16.66h245.72c11.63,0,14.14-7.26,14.51-16.66-.34-9.72-2.68-16.32-14.51-16.32Z"/>
        <path class="cls-14" d="M387.4,38.76h-245.72c-11.82,0-14.17,6.6-14.51,16.32.36,9.4,2.87,16.66,14.51,16.66h245.72c11.63,0,14.14-7.26,14.51-16.66-.34-9.72-2.68-16.32-14.51-16.32Z"/>
        <path class="cls-9" d="M387.4,44.19h-245.72c-11.82,0-14.17,4.42-14.51,10.94.36,6.31,2.87,11.19,14.51,11.19h245.72c11.63,0,14.14-4.88,14.51-11.19-.34-6.52-2.68-10.94-14.51-10.94Z"/>
        <path class="cls-16" d="M387.4,38.76h-245.72c-11.82,0-14.17,6.6-14.51,16.32.04-.73.11-1.42.2-2.09.8-5.33,3.83-8.8,14.31-8.8h245.72c10.47,0,13.51,3.47,14.31,8.8.1.67.16,1.36.2,2.09-.34-9.72-2.68-16.32-14.51-16.32Z"/>
      </g>
    </g>
    <g>
      <path class="cls-21" d="M114,47.7c0-4.89-2.73-9.15-6.74-11.36-.06-.55-.13-1.09-.22-1.63l.31-.25h0s0,0,0,0l-1.18-3.35-.23-.65c-.17-.47-.35-.94-.55-1.41-.05-.11-.1-.21-.14-.32-.15-.35-.31-.69-.47-1.03-.07-.14-.14-.27-.2-.4-.16-.31-.32-.62-.49-.93-.07-.13-.15-.26-.23-.39-.09-.15-.17-.31-.27-.46l-3.52-5.75-.69.54s-.03-.03-.05-.05c-.08-.08-.16-.15-.25-.23-.3-.28-.6-.55-.91-.81-.05-.05-.11-.09-.16-.14-1.15-.96-2.39-1.82-3.71-2.57-.02-.01-.04-.02-.06-.03-.4-.23-.8-.44-1.21-.64-.09-.04-.17-.08-.26-.13-.35-.17-.7-.33-1.05-.48-.12-.05-.24-.1-.36-.15-.34-.14-.68-.27-1.02-.39-.13-.05-.25-.1-.38-.14-.44-.15-.89-.3-1.35-.43-.02,0-.04-.01-.06-.02-2.32-.66-4.71-.99-7.11-.99h0s0,0,0,0c-.65,0-1.29.03-1.94.08-.2.02-.4.04-.6.06-.46.05-.91.1-1.37.17-.2.03-.4.06-.6.1-.54.1-1.08.21-1.62.34-.08.02-.16.03-.24.05-1.33.34-2.63.79-3.89,1.33-.01,0-.03.01-.04.02-.8.34-1.58.72-2.34,1.14-.44.25-.87.52-1.3.8,0,0,0,0,0,0-.82.52-1.61,1.07-2.36,1.67l-3.3,2.67.15.41c-.36.4-.7.81-1.03,1.24-.23-.01-.46-.04-.7-.04-.78,0-1.53.08-2.27.21-.02-1.3-.36-2.62-1.06-3.8l-6.28-10.72c-1.39-2.38-3.97-3.85-6.72-3.85-1.73,0-3.44.59-4.8,1.66l-4.67,3.66c-1.44,1.13-2.41,2.71-2.8,4.47-.64-.17-1.31-.26-1.98-.26-2.71,0-5.18,1.37-6.62,3.67l-3.14,5.04c-1.19,1.91-1.5,4.24-.84,6.39.37,1.23,1.05,2.32,1.93,3.21-1.14,1.07-1.98,2.47-2.32,4.07l-1.23,5.81c-.46,2.2.04,4.49,1.39,6.29.97,1.29,2.32,2.23,3.83,2.72-2.52.9-4.62,2.64-5.95,5-.17.3-.32.6-.46.91-.56.1-1.1.22-1.63.37l-1.26.35c-5.08,1.42-8.5,5.88-8.85,10.87l-.69.19,1.09,3.92s0,0,0,0l2.36,8.46c-3.2,2.4-5.28,6.21-5.28,10.5,0,6.88,5.32,12.53,12.06,13.08,4.01,9.87,13.68,16.55,24.51,16.55,2.4,0,4.79-.33,7.12-.98,6.59-1.84,12.1-6.05,15.59-11.89l7.59,7.26,2.3,2.2c1.46,1.39,3.37,2.16,5.38,2.16h0c.23,0,.45-.02.67-.04,2.23-.2,4.3-1.34,5.63-3.17l3.49-4.8c.66-.9,1.1-1.92,1.33-2.99,0,0,0-.01,0-.02.05-.24.09-.49.11-.74,0-.02,0-.05.01-.07.03-.26.04-.53.04-.79,0-.01,0-.02,0-.03,0-.24-.02-.48-.04-.72,0-.04,0-.07,0-.11,2.61-.34,4.89-1.98,6.03-4.34,0,0,0-.01.01-.02.02-.03.03-.07.04-.11.16-.35.31-.71.41-1.09l1.64-5.71c.14-.5.23-1.01.27-1.52,0-.04.01-.08.01-.12.01-.17,0-.33,0-.5,0-.11,0-.22,0-.33,0-.11-.02-.21-.03-.32-.01-.17-.02-.34-.05-.5,0-.06-.03-.12-.04-.18-.04-.21-.07-.42-.13-.63,0-.01,0-.03-.01-.04-.21-.78-.54-1.54-.98-2.23-.55-.85-1.25-1.56-2.05-2.13,1.12-1.49,1.68-3.35,1.55-5.23l-.25-3.56-.16-2.36c-.1-1.51-.64-2.9-1.49-4.05,4.2-2.81,7.57-6.83,9.57-11.63,6.64-.55,11.87-6.12,11.87-12.9ZM45.13,46.6l.49-2.3c.53-2.5-.23-5.01-1.84-6.81.24-.29.47-.59.68-.92l1.38-2.21c.32-.52.57-1.06.75-1.62.37.07.74.11,1.12.14-.27,1.04-.42,2.11-.42,3.23,0,4.25,2.07,8.02,5.24,10.38-.22,1.32-.33,2.64-.34,3.97-1.83-2.02-4.3-3.4-7.04-3.86ZM65.06,95.55c0-1.44-.11-2.88-.34-4.32,1.52-1.11,2.8-2.53,3.73-4.18.31.35.65.67,1.01.97-.34.56-.63,1.16-.81,1.81l-.72,2.5c-.21.74-.3,1.49-.3,2.22-.91.18-1.78.51-2.57.99ZM58.29,67.56l-.07-.23c.07.08.14.17.2.25-.05,0-.09,0-.14-.01Z"/>
      <path class="cls-4" d="M112,42.7c0-4.89-2.73-9.15-6.74-11.36-.06-.55-.13-1.09-.22-1.63l.31-.25h0s0,0,0,0l-1.18-3.35-.23-.65c-.17-.47-.35-.94-.55-1.41-.05-.11-.1-.21-.14-.32-.15-.35-.31-.69-.47-1.03-.07-.14-.14-.27-.2-.4-.16-.31-.32-.62-.49-.93-.07-.13-.15-.26-.23-.39-.09-.15-.17-.31-.27-.46l-3.52-5.75-.69.54s-.03-.03-.05-.05c-.08-.08-.16-.15-.25-.23-.3-.28-.6-.55-.91-.81-.05-.05-.11-.09-.16-.14-1.15-.96-2.39-1.82-3.71-2.57-.02-.01-.04-.02-.06-.03-.4-.23-.8-.44-1.21-.64-.09-.04-.17-.08-.26-.13-.35-.17-.7-.33-1.05-.48-.12-.05-.24-.1-.36-.15-.34-.14-.68-.27-1.02-.39-.13-.05-.25-.1-.38-.14-.44-.15-.89-.3-1.35-.43-.02,0-.04-.01-.06-.02-2.32-.66-4.71-.99-7.11-.99h0s0,0,0,0c-.65,0-1.29.03-1.94.08-.2.02-.4.04-.6.06-.46.05-.91.1-1.37.17-.2.03-.4.06-.6.1-.54.1-1.08.21-1.62.34-.08.02-.16.03-.24.05-1.33.34-2.63.79-3.89,1.33-.01,0-.03.01-.04.02-.8.34-1.58.72-2.34,1.14-.44.25-.87.52-1.3.8,0,0,0,0,0,0-.82.52-1.61,1.07-2.36,1.67l-3.3,2.67.15.41c-.36.4-.7.81-1.03,1.24-.23-.01-.46-.04-.7-.04-.78,0-1.53.08-2.27.21-.02-1.3-.36-2.62-1.06-3.8l-6.28-10.72c-1.39-2.38-3.97-3.85-6.72-3.85-1.73,0-3.44.59-4.8,1.66l-4.67,3.66c-1.44,1.13-2.41,2.71-2.8,4.47-.64-.17-1.31-.26-1.98-.26-2.71,0-5.18,1.37-6.62,3.67l-3.14,5.04c-1.19,1.91-1.5,4.24-.84,6.39.37,1.23,1.05,2.32,1.93,3.21-1.14,1.07-1.98,2.47-2.32,4.07l-1.23,5.81c-.46,2.2.04,4.49,1.39,6.29.97,1.29,2.32,2.23,3.83,2.72-2.52.9-4.62,2.64-5.95,5-.17.3-.32.6-.46.91-.56.1-1.1.22-1.63.37l-1.26.35c-5.08,1.42-8.5,5.88-8.85,10.87l-.69.19,1.09,3.92s0,0,0,0l2.36,8.46c-3.2,2.4-5.28,6.21-5.28,10.5,0,6.88,5.32,12.53,12.06,13.08,4.01,9.87,13.68,16.55,24.51,16.55,2.4,0,4.79-.33,7.12-.98,6.59-1.84,12.1-6.05,15.59-11.89l7.59,7.26,2.3,2.2c1.46,1.39,3.37,2.16,5.38,2.16h0c.23,0,.45-.02.67-.04,2.23-.2,4.3-1.34,5.63-3.17l3.49-4.8c.66-.9,1.1-1.92,1.33-2.99,0,0,0-.01,0-.02.05-.24.09-.49.11-.74,0-.02,0-.05.01-.07.03-.26.04-.53.04-.79,0-.01,0-.02,0-.03,0-.24-.02-.48-.04-.72,0-.04,0-.07,0-.11,2.61-.34,4.89-1.98,6.03-4.34,0,0,0-.01.01-.02.02-.03.03-.07.04-.11.16-.35.31-.71.41-1.09l1.64-5.71c.14-.5.23-1.01.27-1.52,0-.04.01-.08.01-.12.01-.17,0-.33,0-.5,0-.11,0-.22,0-.33,0-.11-.02-.21-.03-.32-.01-.17-.02-.34-.05-.5,0-.06-.03-.12-.04-.18-.04-.21-.07-.42-.13-.63,0-.01,0-.03-.01-.04-.21-.78-.54-1.54-.98-2.23-.55-.85-1.25-1.56-2.05-2.13,1.12-1.49,1.68-3.35,1.55-5.23l-.25-3.56-.16-2.36c-.1-1.51-.64-2.9-1.49-4.05,4.2-2.81,7.57-6.83,9.57-11.63,6.64-.55,11.87-6.12,11.87-12.9ZM43.13,41.6l.49-2.3c.53-2.5-.23-5.01-1.84-6.81.24-.29.47-.59.68-.92l1.38-2.21c.32-.52.57-1.06.75-1.62.37.07.74.11,1.12.14-.27,1.04-.42,2.11-.42,3.23,0,4.25,2.07,8.02,5.24,10.38-.22,1.32-.33,2.64-.34,3.97-1.83-2.02-4.3-3.4-7.04-3.86ZM63.06,90.55c0-1.44-.11-2.88-.34-4.32,1.52-1.11,2.8-2.53,3.73-4.18.31.35.65.67,1.01.97-.34.56-.63,1.16-.81,1.81l-.72,2.5c-.21.74-.3,1.49-.3,2.22-.91.18-1.78.51-2.57.99ZM56.29,62.56l-.07-.23c.07.08.14.17.2.25-.05,0-.09,0-.14-.01Z"/>
      <g>
        <circle class="cls-13" cx="13.13" cy="87.3" r="7.13"/>
        <circle class="cls-13" cx="55.01" cy="75.62" r="7.13"/>
        <path class="cls-7" d="M54.41,100.5c-2.57,4.57-6.89,8.15-12.33,9.67-10.89,3.04-22.19-3.33-25.22-14.22l-5.15-18.46-2.48-8.91,39.45-11,4.72,16.91,2.92,10.46c1.52,5.45.69,11-1.89,15.56h0Z"/>
        <path class="cls-6" d="M53.38,74.49l-16.39,4.57c-1.25.35-2.53.52-3.82.52-3.09,0-6.14-1.03-8.6-2.91-1.19-.91-2.63-1.41-4.04-1.41-.55,0-1.1.08-1.63.22l-7.19,2.01-2.48-8.91,39.45-11,4.72,16.91Z"/>
        <path class="cls-2" d="M39.5,47.67l-16.48,4.6c-2.72.76-4.3,3.57-3.55,6.29,0,0-2.52-.53-5.24.23l-1.26.35c-3.28.91-5.2,4.32-4.28,7.6l2.27,8.15,7.2-2.01c2.79-.78,5.75-.12,8.05,1.64,2.76,2.11,6.44,2.94,10.05,1.93l16.39-4.57-5.56-19.92c-.92-3.28-4.32-5.2-7.6-4.28h0Z"/>
        <path class="cls-18" d="M47.1,51.95l5.56,19.92-4.81,1.34-5.56-19.92c-.92-3.28-4.31-5.2-7.6-4.28l4.81-1.34c3.28-.92,6.68,1,7.6,4.28h0Z"/>
        <g>
          <path class="cls-13" d="M45.72,90.15c.61-.17,1.23.24,1.3.87.39,3.5-1.81,6.87-5.31,7.85-3.51.98-7.14-.77-8.61-3.98-.26-.57.06-1.23.66-1.4l11.96-3.34Z"/>
          <path class="cls-13" d="M25.23,90.36c-.69,0-1.33-.46-1.52-1.16-.67-2.39.74-4.88,3.13-5.54,2.39-.67,4.88.74,5.54,3.13.23.84-.26,1.72-1.1,1.95-.84.24-1.72-.26-1.95-1.1-.2-.71-.93-1.12-1.64-.93s-1.12.93-.93,1.64c.23.84-.26,1.72-1.1,1.95-.14.04-.29.06-.43.06h0Z"/>
          <path class="cls-13" d="M43.78,85.18c-.69,0-1.33-.46-1.52-1.16-.67-2.39.74-4.88,3.13-5.54,2.39-.67,4.88.74,5.54,3.13.23.84-.26,1.72-1.1,1.95-.84.24-1.72-.26-1.95-1.1-.2-.71-.94-1.12-1.64-.93-.71.2-1.12.93-.93,1.64.23.84-.26,1.72-1.1,1.95-.14.04-.29.06-.43.06h0Z"/>
        </g>
      </g>
      <g>
        <circle class="cls-19" cx="58.24" cy="31.11" r="6.96"/>
        <circle class="cls-19" cx="99.04" cy="42.7" r="6.96"/>
        <path class="cls-17" d="M60.22,28.64l-3.28,11.56c-3.01,10.61,3.15,21.66,13.76,24.68,10.61,3.01,21.66-3.15,24.68-13.76l3.28-11.56c3.01-10.61-3.15-21.66-13.76-24.68-10.61-3.01-21.66,3.15-24.68,13.76h0Z"/>
        <path class="cls-8" d="M98.28,27.46c-.88.71-1.82,1.35-2.81,1.89-4.47,2.49-9.88,3.28-15.19,1.77-6.48-1.84-11.3-6.68-13.39-12.58.88-.71,1.83-1.35,2.81-1.9,4.46-2.49,9.88-3.28,15.19-1.77,6.48,1.84,11.3,6.68,13.38,12.58Z"/>
        <path class="cls-1" d="M98.28,27.46c-.88.71-1.83,1.35-2.81,1.89-4.47,2.49-9.88,3.28-15.19,1.77-3.93-1.12-7.25-3.33-9.72-6.22,1.8,1.15,3.8,2.07,5.97,2.68,5.95,1.69,12.02.81,17.03-1.99,1.01-.57,1.99-1.21,2.91-1.93.73,1.2,1.34,2.47,1.81,3.8Z"/>
        <path class="cls-19" d="M79.76,49.06c.61.17.92.85.65,1.42-1.47,3.1-5,4.77-8.4,3.8-3.4-.97-5.53-4.25-5.15-7.65.07-.63.69-1.04,1.3-.86l11.6,3.29Z"/>
        <path class="cls-19" d="M69.26,40.2c-.14,0-.29-.02-.43-.06-.84-.24-1.33-1.11-1.09-1.96.19-.67-.2-1.37-.87-1.56-.32-.09-.67-.05-.96.11-.29.16-.51.43-.6.76-.24.84-1.11,1.33-1.96,1.09-.84-.24-1.33-1.11-1.09-1.96.32-1.14,1.07-2.08,2.1-2.66,1.03-.58,2.23-.72,3.37-.39,2.35.67,3.72,3.12,3.05,5.47-.2.7-.83,1.15-1.52,1.15h0Z"/>
        <path class="cls-19" d="M87.33,45.33c-.14,0-.29-.02-.43-.06-.84-.24-1.33-1.11-1.09-1.96.19-.67-.2-1.37-.87-1.56-.32-.09-.67-.05-.96.11-.29.16-.51.43-.6.76-.24.84-1.12,1.33-1.96,1.09-.84-.24-1.33-1.11-1.09-1.96.32-1.14,1.07-2.08,2.1-2.66,1.03-.58,2.23-.72,3.37-.39,2.35.67,3.72,3.12,3.05,5.47-.2.7-.83,1.15-1.52,1.15h0Z"/>
      </g>
      <g>
        <path class="cls-10" d="M71.69,88.99l.72-2.5c.25-.86,1.09-1.41,1.98-1.28l12.29,1.8c1.07.16,1.76,1.22,1.46,2.27l-1.64,5.7c-.3,1.04-1.45,1.58-2.44,1.15l-11.37-5c-.82-.36-1.25-1.27-1-2.14h0Z"/>
        <path class="cls-12" d="M88.14,89.28l-1.64,5.7c-.3,1.04-1.45,1.58-2.44,1.15l-1.96-.86c.51-.19.93-.61,1.1-1.18l1.64-5.7c.18-.62,0-1.26-.4-1.7l2.24.33c1.07.16,1.76,1.22,1.46,2.27Z"/>
        <path class="cls-10" d="M70.51,77.06l-.18-2.6c-.06-.89.55-1.7,1.42-1.88l12.16-2.51c1.06-.22,2.08.55,2.15,1.63l.41,5.92c.08,1.08-.82,1.98-1.9,1.91l-12.39-.81c-.9-.06-1.61-.77-1.67-1.66Z"/>
        <path class="cls-12" d="M84.57,79.53l-2.55-.17c.35-.35.56-.85.52-1.39l-.41-5.92c-.04-.63-.4-1.15-.9-1.43l2.68-.55c1.06-.22,2.08.55,2.15,1.63l.41,5.92c.08,1.08-.82,1.98-1.9,1.91Z"/>
        <path class="cls-10" d="M64.12,98.25l1.53-2.11c.53-.73,1.51-.95,2.3-.52l10.93,5.89c.96.51,1.24,1.75.6,2.63l-3.49,4.8c-.64.88-1.9.99-2.69.24l-8.97-8.58c-.65-.62-.74-1.62-.21-2.35h0Z"/>
        <path class="cls-12" d="M79.48,104.14l-3.49,4.8c-.64.88-1.9.99-2.69.24l-1.76-1.68c.65.12,1.35-.13,1.77-.71l3.49-4.8c.32-.44.41-.96.3-1.44l1.78.96c.96.52,1.24,1.75.6,2.63h0Z"/>
      </g>
      <g>
        <path class="cls-9" d="M38.74,26.19l-1.38,2.21c-.47.76-1.44,1.05-2.26.69l-11.32-5.09c-.99-.45-1.36-1.66-.79-2.58l3.14-5.04c.57-.92,1.83-1.12,2.66-.43l9.56,7.92c.69.57.85,1.57.38,2.33Z"/>
        <path class="cls-14" d="M28.8,15.94l9.56,7.92c.69.57.85,1.57.38,2.33l-1.38,2.21c-.04.07-.09.14-.14.2.33-.73.14-1.59-.49-2.11l-9.56-7.92c-.83-.69-2.09-.49-2.66.43l1.63-2.62c.57-.92,1.83-1.12,2.66-.43Z"/>
        <path class="cls-9" d="M37.75,38.06l-.54,2.55c-.19.88-.99,1.48-1.89,1.42l-12.38-.91c-1.08-.08-1.85-1.1-1.62-2.16l1.23-5.81c.22-1.06,1.33-1.68,2.36-1.32l11.7,4.17c.84.3,1.34,1.18,1.15,2.06Z"/>
        <path class="cls-14" d="M24.9,31.83l11.69,4.17c.84.3,1.34,1.18,1.15,2.06l-.54,2.55c-.02.08-.04.16-.07.23.06-.8-.42-1.54-1.18-1.82l-11.69-4.17c-1.02-.37-2.13.26-2.36,1.32l.64-3.02c.22-1.06,1.33-1.68,2.36-1.32h0Z"/>
        <path class="cls-9" d="M49.29,19.92l-2.05,1.61c-.71.55-1.71.5-2.35-.13l-8.9-8.66c-.78-.76-.71-2.03.14-2.7l4.67-3.66c.85-.67,2.1-.43,2.65.5l6.28,10.71c.45.77.26,1.76-.44,2.32Z"/>
        <path class="cls-14" d="M43.46,6.89l6.28,10.71c.45.77.27,1.76-.44,2.32l-2.05,1.6c-.06.05-.13.1-.2.14.56-.57.67-1.45.26-2.15l-6.28-10.71c-.55-.94-1.8-1.17-2.65-.5l2.43-1.9c.85-.67,2.1-.43,2.65.5Z"/>
      </g>
    </g>
  </g>
</svg>