<?xml version="1.0" encoding="UTF-8"?>
<svg id="Layer_1" data-name="Layer 1" xmlns="http://www.w3.org/2000/svg" viewBox="0 0 644.34 254.46">
  <defs>
    <style>
      .cls-1 {
        fill: #ffb700;
      }

      .cls-2 {
        fill: #94dd2f;
      }

      .cls-3 {
        fill: #497214;
      }

      .cls-4 {
        fill: #fff;
      }

      .cls-5 {
        fill: #fec230;
      }

      .cls-6 {
        fill: #a5e24d;
      }

      .cls-7 {
        fill: #c0eb85;
      }

      .cls-8 {
        fill: #d49800;
      }

      .cls-9 {
        fill: #ccc;
      }

      .cls-10 {
        fill: #ffe558;
      }

      .cls-11 {
        fill: #e6e6e6;
      }
    </style>
  </defs>
  <g>
    <g>
      <g id="g6530">
        <path class="cls-3" d="M182.26,0h280.13c8.93,0,7.17,34.92,7.17,52.39H175.09C175.09,34.92,171.93,0,182.26,0Z"/>
        <path class="cls-9" d="M469.7,32.65c-1.96-.08-3.93-.17-5.94-.25-.07-13.34-.81-27.01-4.49-31.15C460.16.44,461.19,0,462.39,0c6.16,0,7.23,16.61,7.31,32.65Z"/>
        <path class="cls-9" d="M182.26,0c1.11,0,2.08.38,2.92,1.08-4.24,3.87-4.76,17.44-4.58,30.8-2,.07-3.98.14-5.93.21C174.44,16.23,175.22,0,182.26,0Z"/>
      </g>
      <g id="g6548">
        <path d="M66.85,39.75c170.21,0,340.42,0,510.64,0,54.8,0,67.02,54.3,66.84,108.27-.18,53.37-7.46,106.44-66.84,106.44-170.22,0-340.43,0-510.64,0-59.39,0-66.66-53.07-66.85-106.44C-.18,94.05,12.04,39.75,66.85,39.75Z"/>
        <path class="cls-4" d="M66.85,31.55c170.21,0,340.42,0,510.64,0,54.8,0,67.02,54.3,66.84,108.28-.18,53.36-7.46,106.43-66.84,106.43-170.22,0-340.43,0-510.64,0-59.39,0-66.66-53.07-66.85-106.43C-.18,85.85,12.04,31.55,66.85,31.55Z"/>
        <path class="cls-5" d="M74.69,39.15c164.98,0,329.97,0,494.96,0,53.12,0,64.97,47.29,64.79,94.31-.18,46.48-7.23,92.71-64.79,92.71-164.99,0-329.98,0-494.96,0-57.57,0-64.62-46.23-64.8-92.71-.17-47.02,11.67-94.31,64.8-94.31Z"/>
        <path class="cls-11" d="M66.85,238.54h510.64c58.3,0,66.38-51.15,66.83-103.52v.05c0,1.59.02,3.17,0,4.76-.18,53.36-7.46,106.43-66.84,106.43H66.85c-59.39,0-66.66-53.07-66.85-106.43,0-1.6,0-3.21.02-4.81.45,52.37,8.52,103.52,66.83,103.52Z"/>
        <path class="cls-10" d="M74.69,207.05h494.96c53.67,0,63.43-40.18,64.65-83.29.11,3.23.15,6.46.14,9.7-.18,46.48-7.23,92.71-64.79,92.71H74.69c-57.57,0-64.62-46.23-64.8-92.71,0-3.24.04-6.47.15-9.7,1.22,43.11,10.98,83.29,64.65,83.29Z"/>
        <path class="cls-8" d="M74.69,208.8h494.96c53.67,0,63.43-40.18,64.65-83.29.08,2.52.13,5.04.14,7.57v.38c-.18,46.48-7.23,92.71-64.79,92.71H74.69c-57.57,0-64.62-46.23-64.8-92.71v-.38c.01-2.52.06-5.05.15-7.57,1.22,43.11,10.98,83.29,64.65,83.29Z"/>
        <path class="cls-1" d="M629.32,163.12c-7.02,25.4-23.22,43.93-59.67,43.93H74.69c-37.86,0-53.87-19.98-60.44-46.89,260.47,27.38,468.47,29.78,615.07,2.96Z"/>
        <path class="cls-10" d="M64.49,39.78c3.22-.41,6.61-.63,10.2-.63h494.96c3.58,0,6.98.22,10.19.63,41.19,5.33,53.06,43.54,54.46,83.98-.04,1.41-.09,2.81-.15,4.21-2.12-42.27-16.36-81.1-64.5-81.1H74.69c-48.14,0-62.39,38.83-64.5,81.1-.06-1.4-.11-2.8-.15-4.21,1.39-40.44,13.26-78.65,54.45-83.98Z"/>
      </g>
    </g>
    <g id="g6556">
      <path class="cls-8" d="M542.52,46.87c42.91,0,77.68,34.78,77.68,77.68s-34.77,77.67-77.68,77.67c-42.9,0-77.67-34.77-77.67-77.67,0-42.9,34.77-77.68,77.67-77.68Z"/>
      <path class="cls-10" d="M542.52,51.27c42.91,0,77.68,33.79,77.68,75.47,0,41.69-34.77,75.48-77.68,75.48-42.9,0-77.67-33.79-77.67-75.48,0-41.68,34.77-75.47,77.67-75.47Z"/>
      <path class="cls-1" d="M542.52,51.27c42.91,0,77.68,33.02,77.68,73.76s-34.77,73.76-77.68,73.76c-42.9,0-77.67-33.02-77.67-73.76s34.77-73.76,77.67-73.76Z"/>
    </g>
    <g id="g6564">
      <path class="cls-8" d="M80.21,79.1c92.03,0,240.44,0,332.46,0,29.63,0,36.24,30.89,36.14,61.6-.1,30.36-4.03,60.56-36.14,60.56-92.02,0-240.43,0-332.46,0-32.11,0-36.04-30.2-36.14-60.56-.1-30.7,6.51-61.6,36.14-61.6Z"/>
      <path class="cls-10" d="M80.21,86.03c92.03,0,240.44,0,332.46,0,29.63,0,36.24,29.14,36.14,58.11-.1,28.64-4.03,57.12-36.14,57.12-92.02,0-240.43,0-332.46,0-32.11,0-36.04-28.48-36.14-57.12-.1-28.96,6.51-58.11,36.14-58.11Z"/>
      <path class="cls-1" d="M80.21,86.03c92.03,0,240.44,0,332.46,0,29.63,0,36.24,27.54,36.14,54.92-.1,27.06-4.03,53.98-36.14,53.98-92.02,0-240.43,0-332.46,0-32.11,0-36.04-26.92-36.14-53.98-.1-27.37,6.51-54.92,36.14-54.92Z"/>
    </g>
  </g>
  <g id="g6592">
    <path d="M456.37,31.55c.13,9.81.78,28.57.78,33.13,0,6.9-5.89,12.54-13.11,12.54h-121.87s-121.88,0-121.88,0c-7.21,0-13.11-5.64-13.11-12.54,0-4.64.71-23.15.83-33.13h268.36Z"/>
    <path class="cls-4" d="M462.23,0c-12.04,0-7.54,45.36-7.54,57.52,0,7.08-5.79,12.87-12.87,12.87h-119.65s-119.65,0-119.65,0c-7.08,0-12.87-5.79-12.87-12.87,0-12.16,4.5-57.52-7.54-57.52h140.06s140.06,0,140.06,0Z"/>
    <path class="cls-6" d="M453.9,0c-11.32,0-7.09,39.9-7.09,50.6,0,6.23-5.45,11.32-12.11,11.32h-112.53s-112.54,0-112.54,0c-6.66,0-12.1-5.09-12.1-11.32C197.53,39.9,201.76,0,190.43,0h131.74s131.73,0,131.73,0Z"/>
    <path class="cls-11" d="M202.52,68.16h119.65s119.65,0,119.65,0c6.84,0,12.49-5.42,12.85-12.18,0,.56.02,1.07.02,1.54,0,7.08-5.79,12.87-12.87,12.87h-119.65s-119.65,0-119.65,0c-7.08,0-12.87-5.79-12.87-12.87,0-.47.01-.98.02-1.54.36,6.76,6,12.18,12.85,12.18Z"/>
    <path class="cls-2" d="M333.19,52.39c38.08-2.11,73.85-6.06,107.03-12.07,2.06-.38,4.11-.76,6.15-1.15.02.43.03.85.05,1.26.2,4.27.39,7.88.39,10.17,0,.6-.05,1.2-.15,1.79-.93,5.38-5.95,9.53-11.96,9.53h-112.53s-112.54,0-112.54,0c-5.84,0-10.74-3.92-11.86-9.09,47.74,1.95,93.01,1.9,135.42-.44Z"/>
    <path class="cls-7" d="M447.54,8.17c-84.34-4.24-168.12-4.72-251.53-2.71C194.81,2.09,193.03,0,190.43,0h263.47c-3.24,0-5.2,3.26-6.36,8.17Z"/>
  </g>
</svg>