<?xml version="1.0" encoding="UTF-8"?>
<svg id="Layer_1" data-name="Layer 1" xmlns="http://www.w3.org/2000/svg" viewBox="0 0 818.17 254.46">
  <defs>
    <style>
      .cls-1 {
        fill: #ffb700;
      }

      .cls-2 {
        fill: #94dd2f;
      }

      .cls-3 {
        fill: #497214;
      }

      .cls-4 {
        fill: #fff;
      }

      .cls-5 {
        fill: #fec230;
      }

      .cls-6 {
        fill: #a5e24d;
      }

      .cls-7 {
        fill: #c0eb85;
      }

      .cls-8 {
        fill: #d49800;
      }

      .cls-9 {
        fill: #ccc;
      }

      .cls-10 {
        fill: #ffe558;
      }

      .cls-11 {
        fill: #e6e6e6;
      }
    </style>
  </defs>
  <g id="g6530">
    <path class="cls-3" d="M569.13,0H248.68c-10.22,0-8.2,34.92-8.2,52.39h336.85c0-17.47,3.61-52.39-8.2-52.39Z"/>
    <path class="cls-9" d="M240.32,32.65c2.24-.08,4.5-.17,6.79-.25.08-13.34.93-27.01,5.14-31.15C251.23.44,250.05,0,248.68,0,241.63,0,240.41,16.61,240.32,32.65Z"/>
    <path class="cls-9" d="M569.13,0c-1.27,0-2.38.38-3.34,1.08,4.85,3.87,5.45,17.44,5.24,30.8,2.29.07,4.55.14,6.78.21C578.07,16.23,577.18,0,569.13,0Z"/>
  </g>
  <g>
    <g id="g6548">
      <path d="M733.28,39.75c-216.13,0-432.26,0-648.4,0C15.29,39.75-.22,94.05,0,148.02c.23,53.37,9.47,106.44,84.87,106.44,216.14,0,432.27,0,648.4,0,75.41,0,84.64-53.07,84.88-106.44.23-53.97-15.29-108.27-84.88-108.27Z"/>
      <path class="cls-4" d="M733.28,31.55c-216.13,0-432.26,0-648.4,0C15.29,31.55-.22,85.85,0,139.83c.23,53.36,9.47,106.43,84.87,106.43,216.14,0,432.27,0,648.4,0,75.41,0,84.64-53.07,84.88-106.43.23-53.98-15.29-108.28-84.88-108.28Z"/>
      <path class="cls-5" d="M723.32,39.15c-209.49,0-418.99,0-628.49,0-67.45,0-82.5,47.29-82.27,94.31.23,46.48,9.18,92.71,82.27,92.71,209.5,0,419,0,628.49,0,73.1,0,82.05-46.23,82.28-92.71.22-47.02-14.82-94.31-82.28-94.31Z"/>
      <path class="cls-11" d="M733.28,238.54H84.88c-74.03,0-84.29-51.15-84.86-103.52v.05c-.01,1.59-.03,3.17-.01,4.76.23,53.36,9.47,106.43,84.87,106.43h648.4c75.41,0,84.64-53.07,84.88-106.43,0-1.6,0-3.21-.03-4.81-.57,52.37-10.82,103.52-84.86,103.52Z"/>
      <path class="cls-10" d="M723.32,207.05H94.83c-68.15,0-80.54-40.18-82.09-83.29-.14,3.23-.19,6.46-.18,9.7.23,46.48,9.18,92.71,82.27,92.71h628.49c73.1,0,82.05-46.23,82.28-92.71.01-3.24-.05-6.47-.19-9.7-1.55,43.11-13.94,83.29-82.09,83.29Z"/>
      <path class="cls-8" d="M723.32,208.8H94.83c-68.15,0-80.54-40.18-82.09-83.29-.1,2.52-.17,5.04-.18,7.57v.38c.23,46.48,9.18,92.71,82.27,92.71h628.49c73.1,0,82.05-46.23,82.28-92.71v-.38c-.01-2.52-.08-5.05-.19-7.57-1.55,43.11-13.94,83.29-82.09,83.29Z"/>
      <path class="cls-1" d="M19.06,163.12c8.91,25.4,29.48,43.93,75.77,43.93h628.49c48.07,0,68.4-19.98,76.75-46.89-330.74,27.38-594.86,29.78-781.01,2.96Z"/>
      <path class="cls-10" d="M736.28,39.78c-4.09-.41-8.39-.63-12.95-.63H94.83c-4.55,0-8.86.22-12.94.63C29.59,45.11,14.52,83.32,12.74,123.76c.05,1.41.11,2.81.19,4.21,2.69-42.27,20.77-81.1,81.9-81.1h628.49c61.13,0,79.22,38.83,81.9,81.1.08-1.4.14-2.8.19-4.21-1.76-40.44-16.84-78.65-69.14-83.98Z"/>
    </g>
    <g id="g6564">
      <path class="cls-8" d="M708.81,79.1c-166.24,0-434.31,0-600.53,0-53.52,0-65.46,30.89-65.28,61.6.18,30.36,7.28,60.56,65.28,60.56,166.22,0,434.29,0,600.53,0,58,0,65.1-30.2,65.28-60.56.18-30.7-11.76-61.6-65.28-61.6Z"/>
      <path class="cls-10" d="M708.81,86.03c-166.24,0-434.31,0-600.53,0-53.52,0-65.46,29.14-65.28,58.11.18,28.64,7.28,57.12,65.28,57.12,166.22,0,434.29,0,600.53,0,58,0,65.1-28.48,65.28-57.12.18-28.96-11.76-58.11-65.28-58.11Z"/>
      <path class="cls-1" d="M708.81,86.03c-166.24,0-434.31,0-600.53,0-53.52,0-65.46,27.54-65.28,54.92.18,27.06,7.28,53.98,65.28,53.98,166.22,0,434.29,0,600.53,0,58,0,65.1-26.92,65.28-53.98.18-27.37-11.76-54.92-65.28-54.92Z"/>
    </g>
  </g>
  <g id="g6592">
    <path d="M255.57,31.55c-.15,9.81-.89,28.57-.89,33.13,0,6.9,6.74,12.54,15,12.54h278.83c8.25,0,15-5.64,15-12.54,0-4.64-.81-23.15-.95-33.13H255.57Z"/>
    <path class="cls-4" d="M248.87,0C262.64,0,257.49,45.36,257.49,57.52c0,7.08,6.62,12.87,14.72,12.87h136.87s136.87,0,136.87,0c8.1,0,14.72-5.79,14.72-12.87C560.68,45.36,555.53,0,569.3,0H248.87Z"/>
    <path class="cls-6" d="M258.4,0C271.34,0,266.51,39.9,266.51,50.6c0,6.23,6.23,11.32,13.85,11.32h257.46c7.62,0,13.84-5.09,13.84-11.32C551.66,39.9,546.82,0,559.78,0h-301.39Z"/>
    <path class="cls-11" d="M545.95,68.16h-273.74c-7.82,0-14.29-5.42-14.7-12.18-.01.56-.02,1.07-.02,1.54,0,7.08,6.62,12.87,14.72,12.87h136.87s136.87,0,136.87,0c8.1,0,14.72-5.79,14.72-12.87,0-.47-.01-.98-.02-1.54-.41,6.76-6.86,12.18-14.7,12.18Z"/>
    <path class="cls-2" d="M396.48,52.39c-43.56-2.11-84.48-6.06-122.43-12.07-2.36-.38-4.7-.76-7.04-1.15-.02.43-.03.85-.06,1.26-.23,4.27-.45,7.88-.45,10.17,0,.6.06,1.2.17,1.79,1.06,5.38,6.81,9.53,13.68,9.53h257.46c6.68,0,12.29-3.92,13.57-9.09-54.61,1.95-106.4,1.9-154.91-.44Z"/>
    <path class="cls-7" d="M265.67,8.17c96.48-4.24,192.31-4.72,287.73-2.71C554.77,2.09,556.81,0,559.78,0h-301.39C262.1,0,264.34,3.26,265.67,8.17Z"/>
  </g>
</svg>