<svg height="512" viewBox="0 0 512 512" width="512" xmlns="http://www.w3.org/2000/svg"><g id="g"><path d="m302.96 330.99c-6.48-1.3-32.45-2.88-45.51-2.88-.53 0-1.03 0-1.52 0-.48 0-.99 0-1.52 0-13.06 0-39.02 1.59-45.5 2.88-11.07 2.15-21.77 12.26-24.21 23.29-1.39 6.7-2.76 15.82-2.78 28.26.02 12.44 1.39 21.56 2.78 28.26 2.44 11.04 13.14 21.15 24.21 23.29 6.48 1.3 32.45 2.88 45.5 2.88h1.52 1.52c13.05 0 39.03-1.59 45.51-2.88 11.07-2.15 21.77-12.26 24.21-23.29 1.39-6.7 2.76-15.82 2.78-28.26-.02-12.45-1.39-21.56-2.78-28.26-2.44-11.04-13.14-21.15-24.21-23.29z"/><path d="m81.55 433.08c-4.48-22.44-9.53-80.63-9.12-119.47-.07-6.44.02-13.42.22-20.67-12.24 4.8-22.74 17.04-25.19 29.66-1.73 8.67-3.87 32.85-3.7 48.84-.18 15.99 1.96 40.17 3.7 48.84 2.76 14.23 15.76 27.98 29.94 31.12 3.05.63 6.51 1.26 10.39 1.81-2.79-6.54-4.92-13.28-6.25-20.13z"/><path d="m464.53 323.2c-2.36-12.18-12.23-24.01-23.92-29.13.18 6.85.25 13.44.19 19.54.41 38.85-4.65 97.05-9.12 119.48-1.36 7-3.56 13.89-6.44 20.57 3.47-.51 6.57-1.09 9.35-1.66 14.19-3.14 27.19-16.9 29.94-31.12 1.73-8.67 3.87-32.85 3.7-48.84.18-15.99-1.96-40.17-3.7-48.84z"/><path d="m416.49 87.27c-3.51-15.86-18.89-30.4-34.8-33.48-4.54-.91-28.35-1.92-54.22-2.71-.31-2.4-.64-4.54-.98-6.27-3.96-20.21-20.63-37.4-40.57-41.81l-.18-.04-.18-.04c-9.21-1.91-18.66-2.85-28.89-2.87h-.1c-10.21.02-19.66.96-28.88 2.87l-.18.04-.18.04c-19.94 4.42-36.61 21.61-40.57 41.82-.34 1.72-.67 3.87-.98 6.26-25.88.79-49.71 1.8-54.26 2.71-15.91 3.09-31.28 17.62-34.8 33.48-2 9.63-3.96 22.73-4 40.62.03 17.89 2 30.99 4 40.62 3.51 15.86 18.89 30.4 34.8 33.48 2.36.47 9.91.97 20.25 1.45.2-7.43.49-15.48.75-16.78.72-3.72 4.13-7.33 7.84-8.15 2.26-.47 5.32-.93 9.51-.94 4.19 0 7.26.47 9.51.94 3.71.82 7.12 4.42 7.84 8.15.28 1.38.59 10.35.78 18.11 28.72.86 59.33 1.46 68.59 1.36 9.11.1 38.91-.47 67.22-1.31.19-7.78.51-16.77.79-18.15.72-3.72 4.13-7.33 7.84-8.15 2.26-.47 5.32-.93 9.51-.94 4.19 0 7.26.47 9.51.94 3.71.82 7.12 4.42 7.84 8.15.26 1.3.56 9.4.75 16.85 11.04-.5 19.16-1.02 21.62-1.51 15.91-3.08 31.29-17.62 34.8-33.48 2-9.63 3.96-22.73 4-40.62-.03-17.89-2-30.99-4-40.62zm-202.25-37.03c1.76-9.1 10.08-17.9 19.15-19.91 5.51-1.14 13.01-2.27 23.24-2.29 10.23.02 17.73 1.14 23.24 2.29 9.08 2.01 17.39 10.81 19.15 19.91v.06c-19.24-.46-35.98-.72-42.41-.65-6.43-.07-23.15.19-42.39.65v-.06z"/><path d="m422.8 313.61c.33-29.72-2.71-71.34-6.02-97.9-8.77 6.78-18.95 11.66-29.63 13.75-2.18.44-5.81 1.14-27.15 2.09-.19 6.43-.44 12.57-.66 13.7-.72 3.72-4.13 7.33-7.84 8.15-2.26.47-5.32.93-9.51.94-4.19 0-7.26-.47-9.51-.94-3.71-.82-7.12-4.42-7.84-8.15-.21-1.05-.44-6.47-.63-12.42-25.58.76-53.17 1.32-64.94 1.32-.91 0-1.72 0-2.44 0-.71 0-1.53.01-2.44.01-11.99 0-40.35-.58-66.31-1.36-.18 5.97-.42 11.41-.63 12.46-.72 3.72-4.13 7.33-7.84 8.15-2.26.47-5.32.93-9.51.94-4.19 0-7.26-.47-9.51-.94-3.71-.82-7.12-4.42-7.84-8.15-.22-1.12-.48-7.3-.67-13.76-20.05-.91-23.62-1.59-25.76-2.02-10.69-2.09-20.88-6.98-29.66-13.76-3.31 26.57-6.35 68.18-6.03 97.9-.42 37.98 4.67 95.4 8.78 115.99 6.55 33.79 37.42 66.45 71.12 73.91 20.46 4.25 48.29 8.42 86.29 8.49 38-.06 65.82-4.24 86.29-8.49 33.69-7.46 64.56-40.13 71.12-73.91 4.12-20.59 9.2-78.01 8.78-115.99zm-74.86 68.93v.03c-.02 11.34-1.05 21.77-3.16 31.89l-.02.11-.03.11c-3.97 17.93-20.08 33.51-38.31 37.06-8.68 1.72-36.63 3.22-48.98 3.22-.53 0-1.03 0-1.52 0s-.99 0-1.52 0c-12.35 0-40.27-1.5-48.96-3.22-18.24-3.55-34.35-19.14-38.32-37.07l-.03-.12-.02-.12c-2.1-10.13-3.14-20.56-3.16-31.89v-.06c.02-11.33 1.05-21.76 3.16-31.89l.02-.12.03-.11c3.97-17.93 20.07-33.5 38.31-37.06 8.67-1.72 36.63-3.22 48.98-3.22h1.52 1.52c12.35 0 40.29 1.5 48.98 3.22 18.23 3.56 34.34 19.14 38.31 37.06l.03.12.02.12c2.1 10.13 3.14 20.57 3.16 31.89v.03z"/></g></svg>