<svg fill="none" height="24" viewBox="0 0 25 24" width="25" xmlns="http://www.w3.org/2000/svg"><g clip-rule="evenodd" fill="rgb(0,0,0)" fill-rule="evenodd"><path d="m18.7249 12.3084c-1.14 0-2.21.23-3.11.62 3.15.91 5.38 3.09 5.44 5.64 1.64-.21 3.41-.83 3.41-2.52 0-2.03-2.63-3.74-5.74-3.74z"/><path d="m18.6949 10.8684h.02c2.13 0 3.87-1.73997 3.87-3.85997 0-2.13-1.74-3.87-3.87-3.87-.42 0-.82.07-1.2.19.69 1.02 1.09 2.25 1.09 3.58.01 1.35-.41 2.65-1.2 3.72997.41.15.84.23 1.29.23z"/><path d="m8.87491 12.9184c-.9-.38-1.97-.61-3.1-.61-3.11 0-5.7399979 1.71-5.7399979 3.74 0 1.69 1.7599979 2.3 3.3999979 2.52.05-2.55 2.28-4.73 5.44-5.65z"/><path d="m5.77492 10.8684h.03c.45 0 .88-.08 1.29-.23-.76-1.03997-1.21-2.32997-1.21-3.72997 0-1.33.4-2.56 1.09-3.58-.38-.12-.78-.19-1.2-.19-2.13 0-3.86 1.74-3.86 3.87 0 2.12 1.73 3.85997 3.86 3.85997z"/><path d="m12.2445 13.9454c-3.96098 0-7.30798 2.156-7.30798 4.708 0 3.3 5.49998 3.3 7.30798 3.3 3.138 0 7.31-.34 7.31-3.279 0-2.564-3.348-4.729-7.31-4.729z"/><path d="m12.2455 11.7745h.033c1.295-.004 2.511-.513 3.423-1.432.913-.91899 1.413-2.13799 1.408-3.43099 0-2.683-2.181-4.865-4.864-4.865-2.68199 0-4.86299 2.182-4.86299 4.865 0 2.681 2.181 4.86299 4.86299 4.86299z"/></g></svg>