<svg fill="none" height="512" viewBox="0 0 128 128" width="512" xmlns="http://www.w3.org/2000/svg"><path clip-rule="evenodd" d="m60.7654 12.9464c1.9717-1.2619 4.4971-1.2619 6.4687 0l49.9999 32c2.791 1.7862 3.606 5.4969 1.819 8.2879-1.786 2.7911-5.497 3.6056-8.288 1.8193l-4.765-3.05v47.9964c0 8.837-7.1637 16-16.0002 16h-52c-8.8366 0-16-7.163-16-16v-47.9964l-4.7657 3.05c-2.7911 1.7863-6.5017.9718-8.28796-1.8193-1.78627-2.791-.97174-6.5017 1.81926-8.2879zm-16.7656 58.0536c0 2.9565 1.1663 5.6406 3.064 7.6172l14.0704 14.4416c1.5703 1.6118 4.1606 1.6115 5.7306-.0005l13.7863-14.1553c2.065-1.9997 3.3487-4.8014 3.3487-7.903 0-6.0751-4.9249-11-11-11-3.7204 0-7.0093 4.0969-9 6.9238-1.9908-2.8269-5.2797-6.9238-9-6.9238-6.0752 0-11 4.9249-11 11z" fill="rgb(0,0,0)" fill-rule="evenodd"/></svg>