<svg id="Capa_1" enable-background="new 0 0 512 512" height="512" viewBox="0 0 512 512" width="512" xmlns="http://www.w3.org/2000/svg"><g><path d="m123.967 103.724c31.855-27.657 72.44-45.504 117.01-48.802v-54.861c-58.086 3.334-112.521 25.963-155.862 64.81z"/><path d="m54.859 241.979c3.069-44.461 20.612-85 47.944-116.929l-38.872-38.873c-38.491 43.418-60.826 97.812-63.931 155.802z"/><path d="m271.023.061v54.861c44.57 3.298 85.155 21.146 117.01 48.802l38.852-38.853c-43.341-38.847-97.776-61.476-155.862-64.81z"/><path d="m256 84.408c-94.616 0-171.592 76.976-171.592 171.592s76.976 171.592 171.592 171.592 171.592-76.976 171.592-171.592-76.976-171.592-171.592-171.592zm-103.155 229.861h-30.045v-116.538h30.045zm78.446 5.706c-35.141 0-63.73-28.59-63.73-63.73s28.589-63.73 63.73-63.73c12.937 0 25.403 3.865 36.048 11.178l-17.012 24.765c-5.617-3.858-12.199-5.898-19.036-5.898-18.574 0-33.685 15.111-33.685 33.685s15.111 33.685 33.685 33.685c6.836 0 13.419-2.04 19.035-5.898l17.014 24.765c-10.647 7.313-23.112 11.178-36.049 11.178zm102.527 0c-35.141 0-63.73-28.59-63.73-63.73s28.589-63.73 63.73-63.73 63.73 28.589 63.73 63.73-28.59 63.73-63.73 63.73z"/><path d="m457.001 272.024c-3.49 44.176-21.275 84.392-48.725 116.008l38.853 38.853c38.624-43.092 61.214-97.151 64.749-154.861z"/><path d="m409.197 125.049c27.333 31.93 44.875 72.468 47.944 116.929h54.859c-3.105-57.99-25.44-112.384-63.931-155.802z"/><path d="m103.724 388.032c-27.449-31.615-45.235-71.832-48.725-116.008h-54.877c3.536 57.71 26.125 111.77 64.749 154.861z"/><circle cx="333.818" cy="256.245" r="33.685"/><path d="m240.977 457.078c-44.07-3.261-84.238-20.753-115.928-47.881l-38.871 38.872c43.167 38.269 97.186 60.563 154.8 63.87v-54.861z"/><path d="m386.951 409.197c-31.69 27.128-71.859 44.62-115.928 47.881v54.861c57.614-3.307 111.632-25.601 154.8-63.87z"/></g></svg>