<?xml version="1.0" encoding="UTF-8"?>
<svg xmlns="http://www.w3.org/2000/svg" xmlns:xlink="http://www.w3.org/1999/xlink" viewBox="0 0 6591.25 7525.28">
  <defs>
    <style>
      .cls-1, .cls-2, .cls-3, .cls-4 {
        opacity: .5;
      }

      .cls-1, .cls-5 {
        fill: #2c59a3;
      }

      .cls-6 {
        fill: #de3a55;
      }

      .cls-7 {
        fill: #ede6c8;
      }

      .cls-7, .cls-2, .cls-8, .cls-9, .cls-10, .cls-11, .cls-12, .cls-13, .cls-14, .cls-15, .cls-16, .cls-4 {
        mix-blend-mode: multiply;
      }

      .cls-17, .cls-18 {
        fill: #f6f6f6;
      }

      .cls-17, .cls-19, .cls-20 {
        opacity: .3;
      }

      .cls-21 {
        fill: #91b0ba;
      }

      .cls-22 {
        fill: #72abd8;
      }

      .cls-23 {
        fill: #396d98;
      }

      .cls-24 {
        fill: #65b1dd;
      }

      .cls-2, .cls-13, .cls-25 {
        fill: #b7d5e5;
      }

      .cls-26 {
        fill: #1464a0;
      }

      .cls-27 {
        fill: #003c6e;
      }

      .cls-28 {
        fill: #d0d2d3;
      }

      .cls-29, .cls-30 {
        fill: #fff;
      }

      .cls-31 {
        fill: #ffeddb;
      }

      .cls-32 {
        fill: #96bee6;
      }

      .cls-33, .cls-30 {
        opacity: .4;
      }

      .cls-34 {
        fill: #9eb2d8;
      }

      .cls-35 {
        fill: #f9aa64;
      }

      .cls-36 {
        fill: #aadcf0;
      }

      .cls-37 {
        fill: url(#_Áåçûìÿííûé_ãðàäèåíò_153);
      }

      .cls-38 {
        fill: #007bbd;
      }

      .cls-8 {
        fill: url(#linear-gradient);
        opacity: .45;
      }

      .cls-39 {
        fill: #396d98;
      }

      .cls-9 {
        fill: #ededed;
      }

      .cls-40 {
        fill: #246a99;
      }

      .cls-41 {
        isolation: isolate;
      }

      .cls-42 {
        fill: #4486a8;
      }

      .cls-43 {
        fill: #5084bf;
      }

      .cls-44 {
        fill: #6496c8;
      }

      .cls-10 {
        fill: #dcf0f0;
      }

      .cls-11, .cls-45 {
        fill: #dadada;
      }

      .cls-46 {
        fill: #f9c864;
      }

      .cls-47 {
        fill: #2878aa;
      }

      .cls-48 {
        fill: #5082b4;
      }

      .cls-13 {
        opacity: .6;
      }

      .cls-49 {
        fill: #aab4c8;
      }

      .cls-14 {
        fill: #d2e6f0;
        opacity: .7;
      }

      .cls-15 {
        fill: #a3d1eb;
      }

      .cls-50 {
        fill: #dd5f86;
      }

      .cls-16 {
        fill: #c4eaff;
      }

      .cls-51 {
        fill: #ee4036;
      }

      .cls-52 {
        fill: #e6eded;
      }

      .cls-53 {
        fill: #3c3c3b;
      }

      .cls-54, .cls-20 {
        fill: #005188;
      }

      .cls-55 {
        fill: #fefefe;
      }

      .cls-56 {
        fill: #c4d9e6;
      }

      .cls-57 {
        fill: #e6e6e6;
      }

      .cls-58 {
        fill: #005188;
      }

      .cls-20 {
        mix-blend-mode: screen;
      }
    </style>
    <linearGradient id="_Áåçûìÿííûé_ãðàäèåíò_153" data-name="Áåçûìÿííûé ãðàäèåíò 153" x1="3237.66" y1="270.83" x2="3237.66" y2="1924.2" gradientUnits="userSpaceOnUse">
      <stop offset="0" stop-color="#82b4d2"/>
      <stop offset="1" stop-color="#f6f6f6"/>
    </linearGradient>
    <linearGradient id="linear-gradient" x1="5136.32" y1="635.32" x2="5136.32" y2="800.37" gradientTransform="translate(-62.93 139.46) rotate(-2.27)" gradientUnits="userSpaceOnUse">
      <stop offset=".37" stop-color="#86cf94"/>
      <stop offset=".99" stop-color="#008166"/>
    </linearGradient>
  </defs>
  <g class="cls-41">
    <g id="_Ñëîé_3" data-name="Ñëîé 3">
      <rect class="cls-56" width="6591.25" height="3216.88"/>
      <polygon class="cls-15" points="3526.02 1428.25 3526.02 1646.53 3327.92 1646.53 3327.92 1927.75 3526.02 1927.75 3796.29 1927.75 3796.29 1428.25 3526.02 1428.25"/>
      <g>
        <polygon class="cls-37" points="3732.9 270.83 2742.42 270.83 1751.94 270.83 1751.94 1941.75 2742.42 1941.75 3732.9 1941.75 4723.38 1941.75 4723.38 270.83 3732.9 270.83"/>
        <rect class="cls-16" x="2629.37" y="1141.01" width="351.11" height="786.74"/>
        <rect class="cls-15" x="4372.27" y="1245.6" width="351.11" height="682.15"/>
        <rect class="cls-15" x="2307.03" y="1561.64" width="198.09" height="366.11"/>
        <rect class="cls-16" x="3895.29" y="1576.64" width="189.98" height="351.11"/>
        <g class="cls-33">
          <polygon class="cls-30" points="4704.37 270.83 3732.9 1242.3 3033.45 1941.75 2564.86 1941.75 2742.42 1764.19 3732.9 773.71 4235.78 270.83 4704.37 270.83"/>
          <polygon class="cls-30" points="4100.9 270.83 3732.9 638.83 2742.42 1629.32 2429.99 1941.75 2271.55 1941.75 2742.42 1470.88 3732.9 480.39 3942.46 270.83 4100.9 270.83"/>
          <polygon class="cls-30" points="4723.38 863.07 4723.38 984.5 4707.72 999.66 3923.52 1758.75 3734.47 1941.75 3609.03 1941.75 3732.9 1821.84 3923.52 1637.32 4707.72 878.23 4723.38 863.07"/>
          <polygon class="cls-30" points="3258.31 270.83 2742.42 786.72 1751.94 1777.2 1751.94 1308.61 2742.42 318.12 2789.71 270.83 3258.31 270.83"/>
          <polygon class="cls-30" points="2505.12 270.83 1751.94 1024.02 1751.94 865.58 2346.69 270.83 2505.12 270.83"/>
        </g>
        <path class="cls-23" d="M3746.9,256.83h-2008.96v1698.92h2999.43V256.83h-990.48ZM2728.42,1927.75h-962.48V284.83h962.48v1642.92ZM3718.9,1927.75h-962.48V284.83h962.48v1642.92ZM4709.38,1927.75h-962.48V284.83h962.48v1642.92Z"/>
        <rect class="cls-24" y="2434.74" width="6591.25" height="63.66"/>
        <rect class="cls-44" y="2498.4" width="6591.25" height="718.48"/>
      </g>
      <rect class="cls-2" x="1146.22" y="2554.48" width="271.46" height="64.28" rx="32.14" ry="32.14"/>
      <rect class="cls-2" x="1640.08" y="2736.37" width="3237.73" height="144.66" rx="72.33" ry="72.33"/>
      <rect class="cls-2" x="4973.52" y="2664.05" width="701.95" height="144.66" rx="72.33" ry="72.33"/>
      <rect class="cls-54" x="2242.11" width="10.15" height="604.97"/>
      <rect class="cls-54" x="4223.06" width="10.15" height="604.97"/>
      <g>
        <g>
          <rect class="cls-39" x="1038.05" y="1046.02" width="494.15" height="506.48"/>
          <rect class="cls-21" x="1051.72" y="1072.03" width="466.79" height="454.46" transform="translate(2584.38 14.14) rotate(90)"/>
        </g>
        <rect class="cls-45" x="1158.17" y="1196.82" width="85.64" height="85.64"/>
        <rect class="cls-32" x="1375.69" y="1332.11" width="85.64" height="85.64"/>
        <rect class="cls-36" x="1227.14" y="1418.72" width="85.64" height="85.64"/>
        <rect class="cls-29" x="1204.4" y="1249.88" width="85.64" height="85.64"/>
        <rect class="cls-29" x="1358.75" y="1091.99" width="111.94" height="161.29"/>
      </g>
      <g>
        <g>
          <g>
            <path class="cls-23" d="M1328.34,1762.14c-10.5,31.74-31.24,59.01-45.17,89.41-15.37,33.52-22.26,70.89-19.87,107.69,4.61,71.02,42.83,137.96,39.32,209.04,25.54-49.05,50.22-109.12,57.8-163.91,11.18-80.78,7.3-103.47-32.08-242.24"/>
            <path class="cls-1" d="M1329.74,1769.94c-15.32,60.93-39.43,119.04-34.87,183.03,2.35,33,8.03,65.7,10.65,98.7,2.78,35.05,2.39,69.7-.98,104.67-.17,1.8,2.89,2.11,3.17.31,9.93-65.11-2.47-129.81-8.71-194.55-6.51-67.67,18.1-127.03,31.8-191.92.14-.69-.89-.93-1.06-.24h0Z"/>
            <g class="cls-3">
              <path class="cls-5" d="M1327.23,1763.28c5.27,31.3,0,61.7-2.51,92.96-2.69,33.39-.11,66.8,1.41,100.17,3.12,68.7-5.88,135.82-21.4,202.66-.44,1.91,2.51,2.59,2.97.68,15.94-67.26,25.06-134.23,21.77-203.44-1.63-34.31-4.31-68.67-1.39-102.99,2.6-30.5,7.43-60.15.61-90.48-.22-.97-1.62-.51-1.46.44h0Z"/>
            </g>
            <path class="cls-1" d="M1331.87,1779.63c8.4,62.69,17.58,125.85,14.89,189.28-2.78,65.38-21.33,127.54-42.21,189.06-.65,1.91,2.61,3.15,3.34,1.24,22.4-58.86,39.01-121.3,42.07-184.41,3.17-65.56-6.52-130.83-16.91-195.36-.11-.66-1.26-.48-1.17.19h0Z"/>
            <path class="cls-1" d="M1327.44,1763.63c-25.55,65.29-54.54,125.36-50.62,197.28,3.7,67.96,31.09,132.65,26.14,201.19-.11,1.5,2.43,1.76,2.63.26,8.39-64.03-18.66-126.05-24.46-189.17-3.5-38.11-.44-74.82,11.05-111.36,10.44-33.19,24.98-64.93,36.07-97.9.16-.46-.63-.76-.81-.3h0Z"/>
          </g>
          <g>
            <path class="cls-48" d="M1513.97,1893.11c-24.97,45.89-77.59,67.7-119.06,99.47-37.93,29.05-67.92,68.37-85.91,112.63-10.53,25.89-17.01,53.37-28.86,78.68,36.27-38.01,91.9-50.36,133.77-82.1,53.03-40.2,112.82-157.85,100.07-208.68"/>
            <path class="cls-1" d="M1513.54,1894.15c1.57,30.5-25.73,56.27-42.92,78.74-21.4,27.96-42,54.7-68.43,78.22-45.3,40.32-90.42,81.29-123.24,132.87-.99,1.55,1.26,3.36,2.26,1.79,37.98-59.38,93-100.24,142.38-149.04,25.2-24.9,45.4-55.19,66.23-83.7,12.42-17.01,28.58-36.53,24.48-58.98-.09-.48-.78-.4-.76.09h0Z"/>
            <g class="cls-3">
              <path class="cls-5" d="M1513.52,1895.52c-1.22,31.92-10.89,61.73-26.19,89.59-16.2,29.49-36.75,61.53-60.03,86.08-22.1,23.31-54.59,36.75-80.77,54.99-24.45,17.04-47.25,36.09-68.01,57.47-1.78,1.83,1.34,4.29,3.11,2.47,24.87-25.59,52.81-47.58,82.66-67.06,27.34-17.84,55.67-31.29,76.18-57.51,36.31-46.44,77.89-104.15,74.18-166.01-.04-.64-1.11-.67-1.13-.02h0Z"/>
            </g>
            <g class="cls-3">
              <path class="cls-5" d="M1513.22,1894.01c-3.55,26.21-30.39,51.26-47.61,69.55-22.67,24.09-46.61,46.91-70.18,70.11-43.91,43.21-95.18,82.68-113.59,144.32-.41,1.38,1.34,2.12,2.05.87,8.16-14.28,14.32-29.65,22.45-44,11.19-19.74,23.92-33.88,40.96-48.8,23.7-20.75,45.13-44.19,67.65-66.21,24.53-23.99,49.61-47.86,71.73-74.14,11.13-13.23,28.52-33.07,27.93-51.68-.03-.81-1.3-.8-1.4-.02h0Z"/>
            </g>
            <g class="cls-3">
              <path class="cls-5" d="M1512.77,1893.62c-11.9,32.44-43.77,56.94-69.46,78.28-27.26,22.64-55.19,44.38-81.32,68.37-20.99,19.28-35.61,42.72-50.17,66.93-14.11,23.45-27.34,50.72-32.96,77.52-.3,1.42,1.75,1.84,2.34.65,13.21-26.59,20.87-54.76,36.59-80.3,7.19-11.68,14.03-23.8,22.12-34.86,12.21-16.7,27.96-29.95,43.42-43.5,25.42-22.27,52.47-42.59,77.77-64.99,21.22-18.79,44.1-39.81,53.97-67.11.54-1.51-1.75-2.5-2.3-.98h0Z"/>
            </g>
          </g>
          <g>
            <path class="cls-23" d="M1316.73,2205.59c-33.89-67.72-107.12-169.73-180.22-189.48-21.13-5.71-42.85-8.82-64.51-11.92-14.35-2.05-46.31,4.42-60.46,7.56,27.4,14.27,45.46,41.66,70.63,59.58,38.9,27.7,90.25,30.07,133.49,50.35,39.9,18.71,71,51.69,101.07,83.91"/>
            <path class="cls-1" d="M1011.6,2012.12c33.45-1.83,65.89.78,97.8,11.54,26.17,8.82,51.22,22.89,75.1,36.69,55.98,32.33,93.96,89.02,127.48,142.51,1.15,1.83,3.81-.27,2.65-2.09-35.41-55.6-75.16-113.54-134.38-146.05-52.53-28.84-107.34-53.18-168.87-44.21-1.06.15-.81,1.67.23,1.62h0Z"/>
            <path class="cls-1" d="M1011.21,2012.02c60.45,17.84,125.93,29.86,179.25,65.39,51.2,34.11,89.71,80.32,124.67,130.18,1.24,1.78,3.9-.32,2.65-2.09-35.27-49.6-74.77-96.06-125.86-130.07-53.33-35.5-119.11-48.96-180.15-64.83-.93-.24-1.51,1.14-.56,1.42h0Z"/>
            <g class="cls-3">
              <path class="cls-5" d="M1010.99,2011.99c20.42,16.36,42.4,31.38,65.53,43.66,25.99,13.8,54.53,21.83,81.65,33.03,61.6,25.44,108.27,64.02,153.04,112.75,1.49,1.63,4.21-.55,2.69-2.12-41.56-42.91-82.58-80.85-137.6-105.78-27.07-12.26-55.6-20.8-82.73-32.81-29.48-13.06-54.93-32.32-81.59-50.09-.9-.6-1.85.68-1,1.36h0Z"/>
            </g>
            <path class="cls-1" d="M1011.05,2011.9c22.98,16.48,50.24,23.06,76.75,31.63,31.02,10.03,60.9,23.44,88.99,39.99,53.95,31.79,100.29,74.48,138.17,124.21,1.48,1.95,4.49-.41,2.99-2.36-37.05-48.16-82.05-89.93-134.13-121.43-24.71-14.94-50.8-27.57-77.97-37.37-31.42-11.33-65.88-16.78-93.92-35.85-.78-.53-1.64.63-.87,1.18h0Z"/>
          </g>
          <g>
            <path class="cls-48" d="M1070.35,1812.9c25.3,20.79,29.79,56.87,38.76,88.37,11.04,38.74,31.13,74.18,51.43,108.97,11.84,20.29,23.85,40.56,38.21,59.15,15.4,19.93,33.36,37.74,49.26,57.27,17.42,21.4,32.27,44.75,47.08,68.04,10.2-85.13,10.08-157.08-67.05-239.71-16.78-17.98-32.3-38.01-49.52-55.58-11.64-11.87-21.2-26.18-33.49-37.38-23.42-21.33-39.83-36.34-74.68-49.13"/>
            <path class="cls-1" d="M1075.04,1816.98c31.1,19.54,48.36,60.42,63.9,92.35,15.67,32.2,30.09,64.99,48.5,95.76,35.38,59.15,78.81,113.9,102.21,179.44.77,2.15,3.94.61,3.2-1.51-24.26-69.5-71.08-126.78-107.89-189.62-18.7-31.92-33.36-65.8-50.29-98.64-14.35-27.83-30.95-62.4-58.81-78.93-.78-.46-1.59.67-.82,1.15h0Z"/>
            <g class="cls-3">
              <path class="cls-5" d="M1087.02,1825.71c56.84,44.24,76.86,115.08,115.56,172.95,19.47,29.11,42.63,55.26,58.52,86.72,16.42,32.49,25.86,67.26,30.02,103.33.27,2.31,3.72,1.62,3.53-.65-2.91-34.42-12.08-68.12-26.94-99.31-15.35-32.2-38.29-58.71-58.48-87.78-40.81-58.76-61.48-132.62-121.52-176.24-.63-.45-1.3.51-.69.98h0Z"/>
            </g>
            <path class="cls-1" d="M1075.14,1817.22c26.15,13.56,49.57,35.47,70.9,55.5,25.9,24.32,46.57,54.59,66.98,83.51,23.52,33.32,45.43,68.4,59.58,106.84,15.01,40.78,15.35,82.95,17.95,125.76.18,3.02,4.86,2.16,4.66-.86-2.98-43.22-3.48-85.6-18.68-126.76-14.32-38.78-36.67-73.94-60.7-107.34-37.71-52.42-80.64-108.64-140.09-138.27-1.01-.5-1.58,1.13-.61,1.63h0Z"/>
            <g class="cls-3">
              <path class="cls-5" d="M1074.95,1816.82c24.89,23.81,38.06,61.99,48.82,94.05,8.89,26.5,16.49,52.61,29.05,77.8,17.37,34.87,39.18,67.75,62.8,98.67,25.32,33.13,57.36,62.17,73.81,101.17.97,2.31,4.38.65,3.49-1.65-14.05-36.53-43.35-63.49-67.13-93.64-27.78-35.21-53.32-73.15-72.66-113.69-11.96-25.08-18.79-51.51-28.22-77.48-10.97-30.2-23.79-64.98-49.07-86.17-.56-.47-1.41.44-.88.95h0Z"/>
            </g>
          </g>
        </g>
        <path class="cls-55" d="M1411.77,2131.31c-1,64.9-3.94,271.44-12.42,328.36-5.71,38.35-16.51,70.47-30.36,93.28-14.47,23.84-32.25,37.51-51.04,37.51h-65.66c-36.77,0-69.71-52.39-81.4-130.79-8.5-56.94-11.43-263.39-12.42-328.36h253.3Z"/>
        <path class="cls-2" d="M1368.99,2552.95c-14.47,23.84-32.25,37.51-51.04,37.51h-65.66c-36.77,0-69.71-52.39-81.4-130.79-8.5-56.94-11.43-263.39-12.42-328.36h71.95l2.27,58.31c5.15,132.62,52.96,260.05,136.31,363.33h0Z"/>
      </g>
      <g>
        <g>
          <path class="cls-46" d="M4453.53,1824.51h-317.29c-9.18,0-16.61,7.44-16.61,16.61v419.87c0,32.4-26.36,58.76-58.76,58.76h-132.45c-9.18,0-16.61,7.44-16.61,16.61s7.44,16.61,16.61,16.61h449.74c50.72,0,91.99-41.26,91.99-91.99v-419.87c0-9.17-7.44-16.61-16.61-16.61Z"/>
          <path class="cls-35" d="M4378.16,2352.98h-132.45c-9.18,0-16.61-7.44-16.61-16.61s7.44-16.61,16.61-16.61h132.45c32.4,0,58.76-26.36,58.76-58.76v-419.87c0-9.18,7.44-16.61,16.61-16.61s16.61,7.44,16.61,16.61v419.87c0,50.72-41.26,91.99-91.99,91.99Z"/>
        </g>
        <path class="cls-49" d="M4447.19,2803.86l-86.9-437.75h11.43c7.26,0,13.14-5.88,13.14-13.14h-388.55c0,7.26,5.88,13.14,13.14,13.14h-1.32l-82.96,438.16c-1.04,5.46,2.48,10.74,7.92,11.87h0c5.44,1.13,10.78-2.3,12-7.72l98.74-442.31h144.93l-14.25,439.74c-.18,5.55,4.13,10.22,9.67,10.49,5.55.27,10.29-3.96,10.65-9.5l28.77-440.74h100.99l102.68,441.9c1.22,5.42,6.56,8.86,12,7.72,5.44-1.13,8.96-6.42,7.92-11.87Z"/>
        <path class="cls-54" d="M4447.19,2803.86l-86.9-437.75h11.43c7.26,0,13.14-5.88,13.14-13.14h-388.55c0,7.26,5.88,13.14,13.14,13.14h-1.32l-82.96,438.16c-1.04,5.46,2.48,10.74,7.92,11.87h0c5.44,1.13,10.78-2.3,12-7.72l98.74-442.31h144.93l-14.25,439.74c-.18,5.55,4.13,10.22,9.67,10.49,5.55.27,10.29-3.96,10.65-9.5l28.77-440.74h100.99l102.68,441.9c1.22,5.42,6.56,8.86,12,7.72,5.44-1.13,8.96-6.42,7.92-11.87Z"/>
      </g>
      <g>
        <g>
          <path class="cls-46" d="M2094.09,1824.51h317.29c9.18,0,16.61,7.44,16.61,16.61v419.87c0,32.4,26.36,58.76,58.76,58.76h132.45c9.18,0,16.61,7.44,16.61,16.61s-7.44,16.61-16.61,16.61h-449.74c-50.72,0-91.99-41.26-91.99-91.99v-419.87c0-9.17,7.44-16.61,16.61-16.61Z"/>
          <path class="cls-35" d="M2169.46,2352.98h132.45c9.18,0,16.61-7.44,16.61-16.61s-7.44-16.61-16.61-16.61h-132.45c-32.4,0-58.76-26.36-58.76-58.76v-419.87c0-9.18-7.44-16.61-16.61-16.61s-16.61,7.44-16.61,16.61v419.87c0,50.72,41.26,91.99,91.99,91.99Z"/>
        </g>
        <path class="cls-49" d="M2100.43,2803.86l86.9-437.75h-11.43c-7.26,0-13.14-5.88-13.14-13.14h388.55c0,7.26-5.88,13.14-13.14,13.14h1.32l82.96,438.16c1.04,5.46-2.48,10.74-7.92,11.87h0c-5.44,1.13-10.78-2.3-12-7.72l-98.74-442.31h-144.93l14.25,439.74c.18,5.55-4.13,10.22-9.67,10.49-5.55.27-10.29-3.96-10.65-9.5l-28.77-440.74h-100.99l-102.68,441.9c-1.22,5.42-6.56,8.86-12,7.72-5.44-1.13-8.96-6.42-7.92-11.87Z"/>
        <path class="cls-54" d="M2100.43,2803.86l86.9-437.75h-11.43c-7.26,0-13.14-5.88-13.14-13.14h388.55c0,7.26-5.88,13.14-13.14,13.14h1.32l82.96,438.16c1.04,5.46-2.48,10.74-7.92,11.87h0c-5.44,1.13-10.78-2.3-12-7.72l-98.74-442.31h-144.93l14.25,439.74c.18,5.55-4.13,10.22-9.67,10.49-5.55.27-10.29-3.96-10.65-9.5l-28.77-440.74h-100.99l-102.68,441.9c-1.22,5.42-6.56,8.86-12,7.72-5.44-1.13-8.96-6.42-7.92-11.87Z"/>
      </g>
      <rect class="cls-55" x="1706.62" y="2131.81" width="2763.53" height="43.96"/>
      <rect class="cls-39" x="3062.73" y="2201.87" width="51.3" height="614.49"/>
      <rect class="cls-54" x="3334.32" y="2201.87" width="51.3" height="614.49"/>
      <rect class="cls-39" x="4418.85" y="2201.87" width="51.3" height="614.49"/>
      <rect class="cls-54" x="4717.4" y="2201.87" width="51.3" height="614.49"/>
      <rect class="cls-54" x="1979.25" y="2201.87" width="51.3" height="614.49"/>
      <rect class="cls-39" x="1706.62" y="2201.87" width="51.3" height="614.49"/>
      <rect class="cls-23" x="1706.62" y="2175.77" width="2763.53" height="43.96"/>
      <g>
        <g>
          <g>
            <path class="cls-29" d="M3832.25,2131.81h-369.74c-3.73,0-6.89-2.72-7.46-6.4l-37.68-244.86c-.7-4.57,2.83-8.7,7.46-8.7h369.74c3.73,0,6.89,2.72,7.46,6.4l37.68,244.86c.7,4.57-2.83,8.7-7.46,8.7Z"/>
            <polygon class="cls-54" points="3831.55 2131.81 3446.54 2131.81 3406.54 1871.85 3791.55 1871.85 3794.22 1889.19 3801.84 1938.74 3831.55 2131.81"/>
          </g>
          <path class="cls-54" d="M3785.91,2109.83h234.84c2.57,0,4.65,2.08,4.65,4.65v12.67c0,2.57-2.08,4.65-4.65,4.65h-234.84v-21.98h0Z"/>
        </g>
        <polygon class="cls-20" points="3801.84 1938.74 3608.77 2131.81 3551.6 2131.81 3794.22 1889.19 3801.84 1938.74"/>
        <polygon class="cls-20" points="3771.3 1871.85 3511.34 2131.81 3484.52 2131.81 3744.48 1871.85 3771.3 1871.85"/>
        <circle class="cls-55" cx="3619.05" cy="2001.83" r="29.09"/>
      </g>
      <g>
        <path class="cls-29" d="M2477.53,2055.86h467.45c5.49,0,10.11-4.12,10.74-9.58l34.33-300.35c.73-6.41-4.28-12.04-10.74-12.04h-467.45c-5.49,0-10.11,4.12-10.74,9.58l-34.33,300.35c-.73,6.41,4.28,12.04,10.74,12.04Z"/>
        <polygon class="cls-54" points="2474.98 2055.86 2964.19 2055.86 3000.99 1733.89 2511.78 1733.89 2474.98 2055.86"/>
        <polygon class="cls-27" points="2698.37 1899.98 2698.37 1945.62 2758.58 2126.86 2856.01 2126.86 2780.64 1899.98 2698.37 1899.98"/>
        <polygon class="cls-40" points="2773.74 2126.85 2871.17 2126.85 2795.79 1899.98 2698.37 1899.98 2773.74 2126.85"/>
        <rect class="cls-40" x="2694.83" y="2106.88" width="215.33" height="24.93" transform="translate(5604.99 4238.7) rotate(180)"/>
        <rect class="cls-27" x="2585.8" y="2106.88" width="109.03" height="24.93" transform="translate(5280.62 4238.7) rotate(180)"/>
      </g>
      <g>
        <g>
          <g>
            <polygon class="cls-22" points="3036.6 2079.1 3036.6 2131.81 3341.78 2131.81 3341.78 2120.86 3194.25 2120.86 3194.25 2090.04 3341.78 2090.04 3341.78 2079.1 3036.6 2079.1"/>
            <rect class="cls-29" x="3194.25" y="2090.04" width="136.74" height="30.82"/>
          </g>
          <rect class="cls-11" x="3036.6" y="2079.1" width="135.79" height="52.72"/>
        </g>
        <g>
          <g>
            <polygon class="cls-43" points="3359.97 2026.38 3359.97 2079.1 3054.79 2079.1 3054.79 2068.15 3202.33 2068.15 3202.33 2037.33 3054.79 2037.33 3054.79 2026.38 3359.97 2026.38"/>
            <rect class="cls-29" x="3065.59" y="2037.33" width="136.74" height="30.82"/>
          </g>
          <rect class="cls-7" x="3224.18" y="2026.38" width="135.79" height="52.72" transform="translate(6584.16 4105.47) rotate(180)"/>
        </g>
        <g>
          <g>
            <polygon class="cls-38" points="3310.66 1980.32 3310.66 2026.38 3044 2026.38 3044 2016.81 3172.91 2016.81 3172.91 1989.88 3044 1989.88 3044 1980.32 3310.66 1980.32"/>
            <rect class="cls-29" x="3053.43" y="1989.88" width="119.48" height="26.93"/>
          </g>
          <rect class="cls-11" x="3192.01" y="1980.32" width="118.65" height="46.06" transform="translate(6502.67 4006.7) rotate(180)"/>
        </g>
      </g>
      <rect class="cls-54" x="4470.14" y="2175.77" width="298.56" height="43.96"/>
      <rect class="cls-57" x="4470.14" y="2131.81" width="298.56" height="43.96"/>
      <g>
        <path class="cls-29" d="M4188.94,2064.82c-3.4-4.4-8.31-7.17-13.84-7.8-5.22-.6-10.35.79-14.54,3.92v-14.94c0-2.82-2.28-5.1-5.1-5.1h-65.09c-2.82,0-5.1,2.28-5.1,5.1v76.2c0,3.76,2.35,6.98,5.67,8.25.99.39,2.06.59,3.18.59h61.35c2.82,0,5.1-2.28,5.1-5.1v-12.41c6.36,0,12.24-2.89,16.14-7.92l12.23-15.76c5.71-7.37,5.71-17.65,0-25.03ZM4182.14,2084.59l-12.22,15.76c-2.26,2.92-5.67,4.59-9.36,4.59v-32.95l4.72-3.85c2.5-2.04,5.64-2.96,8.84-2.59,3.2.37,6.05,1.98,8.03,4.53,3.31,4.28,3.31,10.24,0,14.51Z"/>
        <path class="cls-14" d="M4188.94,2064.82c-3.4-4.4-8.31-7.17-13.84-7.8-5.22-.6-10.35.79-14.54,3.92v-15.29c0-2.62-2.13-4.75-4.75-4.75h-10.68c-4.64,31.98-20.79,61.16-45.42,82.09l-8.78,7.46c.99.39,2.06.59,3.18.59h61.7c2.62,0,4.75-2.13,4.75-4.75v-12.76c6.36,0,12.24-2.89,16.14-7.92l12.23-15.76c5.71-7.37,5.71-17.65,0-25.03ZM4182.14,2084.59l-12.22,15.76c-2.26,2.92-5.67,4.59-9.36,4.59v-32.95l4.72-3.85c2.5-2.04,5.64-2.96,8.84-2.59,3.2.37,6.05,1.98,8.03,4.53,3.31,4.28,3.31,10.24,0,14.51Z"/>
      </g>
      <path class="cls-45" d="M3191.49,2056.86s-12.05,2.27-26.91,2.27-26.91-2.27-26.91-2.27c0,0,12.05-2.27,26.91-2.27s26.91,2.27,26.91,2.27Z"/>
      <rect class="cls-50" x="3158.91" y="2056.86" width="11.37" height="22.23"/>
      <g>
        <path class="cls-55" d="M3722.94,2490.13l-.5,16.03-.6,18.72-.08,2.67-28.88,265.41c-.41,13.03-12.82,23.4-27.99,23.4h-116.4c-10.33,0-19.37-4.81-24.22-11.99-2.28-3.37-3.62-7.25-3.76-11.4l-28.88-265.41-.68-21.39-.5-16.03h232.48Z"/>
        <rect class="cls-39" x="3473.33" y="2474.08" width="271.39" height="33.75"/>
        <path class="cls-2" d="M3490.96,2506.16l.68,21.39h211.59l-10.13,54.76c-15.25,82.41-83.95,157.69-156.77,212.92l-12.05,9.14c4.85,7.19,13.89,11.99,24.22,11.99h116.4c15.16,0,27.58-10.37,27.99-23.4l28.88-265.41.08-2.67.6-18.72h-231.48Z"/>
      </g>
      <g>
        <path class="cls-29" d="M1127.77,525.07c57.34-57.33,57.34-150.29,0-207.63-57.33-57.34-150.29-57.34-207.63,0-57.32,57.34-57.32,150.3,0,207.63,57.34,57.34,150.3,57.34,207.63,0Z"/>
        <path class="cls-23" d="M1155.59,552.89c72.73-72.73,72.73-190.65,0-263.39-72.74-72.73-190.66-72.73-263.39,0-72.73,72.73-72.73,190.67,0,263.39,72.73,72.73,190.65,72.73,263.39,0ZM920,317.31c57.38-57.38,150.39-57.38,207.77,0,57.39,57.38,57.38,150.4,0,207.77-57.38,57.38-150.38,57.38-207.77,0-57.38-57.37-57.38-150.39,0-207.77Z"/>
        <g class="cls-12">
          <path class="cls-52" d="M1141.43,538.66c64.88-64.88,64.88-170.07,0-234.94-64.88-64.87-170.07-64.87-234.95,0-64.88,64.87-64.88,170.07,0,234.94,64.88,64.88,170.07,64.88,234.94,0ZM931.3,328.53c51.17-51.18,134.14-51.18,185.32,0,51.18,51.17,51.18,134.15,0,185.33-51.18,51.17-134.16,51.17-185.32,0-51.19-51.18-51.19-134.16,0-185.33Z"/>
        </g>
        <g>
          <g>
            <rect class="cls-39" x="910.99" y="359.53" width="5.54" height="18.2" transform="translate(187.59 1034.61) rotate(-64.49)"/>
            <polygon class="cls-53" points="1143.42 475.17 1141.05 480.17 1124.61 472.33 1126.99 467.33 1143.42 475.17"/>
          </g>
          <g>
            <polygon class="cls-39" points="923.45 472.87 926.09 477.73 910.12 486.46 907.46 481.6 923.45 472.87"/>
            <rect class="cls-39" x="1121.89" y="359.95" width="18.21" height="5.53" transform="translate(-35.7 585.29) rotate(-28.58)"/>
          </g>
          <g>
            <rect class="cls-39" x="892.76" y="418.42" width="18.21" height="5.54"/>
            <rect class="cls-39" x="1136.82" y="418.42" width="18.21" height="5.54"/>
          </g>
          <g>
            <rect class="cls-39" x="1021.11" y="534.12" width="5.55" height="18.21"/>
            <rect class="cls-39" x="1021.11" y="290.06" width="5.55" height="18.21"/>
          </g>
          <g>
            <polygon class="cls-39" points="960.68 327.58 956.17 330.79 945.6 315.96 950.12 312.74 960.68 327.58"/>
            <rect class="cls-39" x="1091.87" y="511.52" width="5.54" height="18.2" transform="translate(-99.23 730.27) rotate(-35.4)"/>
          </g>
          <g>
            <rect class="cls-39" x="958.51" y="526.7" width="18.21" height="5.54" transform="translate(51.98 1144.47) rotate(-62.57)"/>
            <polygon class="cls-39" points="1081.91 303.56 1086.82 306.12 1078.43 322.27 1073.5 319.72 1081.91 303.56"/>
          </g>
        </g>
        <path class="cls-39" d="M953.14,421.89c0-1.91,1.55-3.46,3.47-3.46h66.59c1.91,0,3.47,1.55,3.47,3.46h0c0,1.91-1.56,3.46-3.47,3.46h-66.59c-1.92,0-3.47-1.55-3.47-3.46h0Z"/>
        <path class="cls-39" d="M1021.11,318.42c0-1.53,1.25-2.77,2.76-2.77h0c1.54,0,2.79,1.24,2.79,2.77v97.23c0,1.53-1.25,2.78-2.79,2.78h0c-1.51,0-2.76-1.24-2.76-2.78v-97.23Z"/>
        <path class="cls-39" d="M1011.83,421.27c0-6.7,5.44-12.13,12.13-12.13s12.13,5.43,12.13,12.13-5.43,12.13-12.13,12.13-12.13-5.43-12.13-12.13Z"/>
        <path class="cls-39" d="M1015.85,421.27c0-4.48,3.63-8.11,8.11-8.11s8.1,3.63,8.1,8.11-3.62,8.11-8.1,8.11-8.11-3.64-8.11-8.11Z"/>
      </g>
      <g>
        <g>
          <circle class="cls-31" cx="3258.31" cy="693.85" r="27.98"/>
          <rect class="cls-54" x="3253.24" width="10.15" height="604.97"/>
        </g>
        <path class="cls-54" d="M3227.74,599.12h61.15c55.21,0,100.04,44.83,100.04,100.04h-261.23c0-55.21,44.83-100.04,100.04-100.04Z"/>
        <rect class="cls-54" x="3245.55" y="513.47" width="25.53" height="85.64"/>
        <circle class="cls-31" cx="2247.18" cy="693.85" r="27.98"/>
        <path class="cls-54" d="M2216.61,599.12h61.15c55.21,0,100.04,44.83,100.04,100.04h-261.23c0-55.21,44.83-100.04,100.04-100.04Z"/>
        <rect class="cls-54" x="2234.42" y="513.47" width="25.53" height="85.64"/>
        <circle class="cls-31" cx="4228.14" cy="693.85" r="27.98"/>
        <path class="cls-54" d="M4197.56,599.12h61.15c55.21,0,100.04,44.83,100.04,100.04h-261.23c0-55.21,44.83-100.04,100.04-100.04Z"/>
        <rect class="cls-54" x="4215.37" y="513.47" width="25.53" height="85.64"/>
      </g>
      <g>
        <rect class="cls-39" x="6078.06" y="608.43" width="214.21" height="208.42"/>
        <g>
          <rect class="cls-39" x="5775.45" y="610.88" width="272.65" height="435.62"/>
          <rect class="cls-29" x="5702.47" y="700.87" width="418.61" height="255.65" transform="translate(6740.46 -5083.08) rotate(90)"/>
          <rect class="cls-42" x="5776.17" y="774.57" width="271.21" height="108.24" transform="translate(6740.46 -5083.08) rotate(90)"/>
        </g>
        <g>
          <rect class="cls-29" x="6089.92" y="614.57" width="190.49" height="196.14" transform="translate(6897.81 -5472.52) rotate(90)"/>
          <rect class="cls-42" x="6146.47" y="671.12" width="77.4" height="83.05" transform="translate(6897.81 -5472.52) rotate(90)"/>
        </g>
        <rect class="cls-39" x="6078.06" y="839.21" width="214.21" height="208.42"/>
        <rect class="cls-29" x="6089.92" y="845.35" width="190.49" height="196.14" transform="translate(7128.59 -5241.74) rotate(90)"/>
        <rect class="cls-42" x="6146.47" y="901.9" width="77.4" height="83.05" transform="translate(7128.59 -5241.74) rotate(90)"/>
      </g>
      <g>
        <path class="cls-58" d="M5585.97,1968.45v348.36c0,39.74-32.21,71.95-71.95,71.95h-379.05c-6.1,0-12.03-.76-17.68-2.19-31.18-7.88-54.27-36.12-54.27-69.76v-348.36c0-39.74,32.22-71.95,71.95-71.95h379.05c39.74,0,71.95,32.21,71.95,71.95Z"/>
        <path class="cls-9" d="M5585.97,1968.45v348.36c0,39.74-32.21,71.95-71.95,71.95h-379.05c-6.1,0-12.03-.76-17.68-2.19h0c193.81-87.61,327.18-270.77,351.07-482.11l.9-7.96h44.76c39.74,0,71.95,32.21,71.95,71.95Z"/>
        <path class="cls-58" d="M5600.43,2531.73h-45.84l-12.48-105.94-67.71,6.8,22.28,99.14h-344.38l22.28-99.14-67.71-6.8-12.48,105.94h-45.84c-6.1,0-11.05,4.95-11.05,11.05v14.28c0,6.1,4.95,11.05,11.05,11.05h41.55l-20.84,176.86h35.1l39.75-176.86h360.73l39.75,176.86h35.1l-20.84-176.86h41.55c6.1,0,11.05-4.95,11.05-11.05v-14.28c0-6.1-4.95-11.05-11.05-11.05Z"/>
        <g>
          <rect class="cls-26" x="4862.67" y="2295.88" width="348.68" height="146.38" rx="44.77" ry="44.77" transform="translate(5753.57 -3150.94) rotate(72.21)"/>
          <rect class="cls-26" x="5437.64" y="2295.88" width="348.68" height="146.38" rx="44.77" ry="44.77" transform="translate(9582.61 -2250.55) rotate(107.79)"/>
        </g>
        <rect class="cls-47" x="5063.02" y="2388.76" width="522.95" height="146.38" rx="44.77" ry="44.77"/>
      </g>
      <g>
        <path class="cls-29" d="M6290.63,1878.24v750.08c0,13.31-9.67,24.36-22.37,26.51-1.47.26-2.99.39-4.54.39h-299.19c-14.86,0-26.91-12.04-26.91-26.9v-750.08h353.01Z"/>
        <polygon class="cls-29" points="5998.19 1843.67 6230.07 1843.67 6290.63 1878.24 5937.63 1878.24 5998.19 1843.67"/>
        <polygon class="cls-2" points="5998.19 1843.67 6230.07 1843.67 6290.63 1878.24 5937.63 1878.24 5998.19 1843.67"/>
        <path class="cls-13" d="M6203.34,1931.73v225.67h-221.58v-225.67c0-8.79,7.13-15.92,15.92-15.92h189.74c8.79,0,15.92,7.13,15.92,15.92Z"/>
        <path class="cls-2" d="M6203.34,1931.73v225.67h-170.09v-225.67c0-8.79,7.12-15.92,15.91-15.92h138.26c8.79,0,15.92,7.13,15.92,15.92Z"/>
        <g>
          <rect class="cls-29" x="6060.48" y="1974.88" width="27.45" height="31.68"/>
          <path class="cls-39" d="M6087.94,1974.88h-27.45l-2-22.15c0-2.93,2.38-5.31,5.31-5.31h21.84c2.93,0,5.31,2.38,5.31,5.31l-3,22.15Z"/>
        </g>
        <g>
          <rect class="cls-29" x="6147.66" y="1974.88" width="27.45" height="31.68"/>
          <path class="cls-6" d="M6175.11,1974.88h-27.45l-2-22.15c0-2.93,2.38-5.31,5.31-5.31h21.84c2.93,0,5.31,2.38,5.31,5.31l-3,22.15Z"/>
        </g>
        <rect class="cls-23" x="5968.73" y="1441.88" width="290.8" height="385.63" rx="43.51" ry="43.51"/>
        <g class="cls-19">
          <path class="cls-18" d="M6012.24,1461.72c-13.05,0-23.67,10.62-23.67,23.67v298.61c0,13.05,10.62,23.67,23.67,23.67h56.82v-345.94h-56.82Z"/>
        </g>
        <rect class="cls-39" x="5997.72" y="1827.51" width="232.82" height="16.17" rx="1.94" ry="1.94"/>
        <rect class="cls-17" x="6086.48" y="1461.72" width="12.76" height="345.94"/>
        <g>
          <rect class="cls-54" x="5961.53" y="1726.49" width="305.2" height="31.83" rx="6.06" ry="6.06"/>
          <rect class="cls-54" x="5961.53" y="1616.62" width="305.2" height="31.83" rx="6.06" ry="6.06"/>
          <rect class="cls-54" x="5961.53" y="1506.74" width="305.2" height="31.83" rx="6.06" ry="6.06"/>
        </g>
        <path class="cls-2" d="M6290.63,1878.24v750.08c0,13.31-9.67,24.36-22.37,26.51-1.47.26-2.99.39-4.54.39h-17.64v-776.98h44.55Z"/>
        <polygon class="cls-2" points="6246.08 1878.24 6214.75 1842.99 6230.07 1843.67 6290.63 1878.24 6246.08 1878.24"/>
        <g>
          <path class="cls-29" d="M6114.56,2043.58v6.14h-4.7l-8.4,102.52c-.25,2.91-2.68,5.16-5.61,5.16h-43.3c-2.92,0-5.37-2.25-5.61-5.16l-8.4-102.52h-4.7v-6.14h80.71Z"/>
          <path class="cls-2" d="M6114.56,2043.58v6.14h-4.7l-8.4,102.52c-.25,2.91-2.68,5.16-5.61,5.16h-11.56l4.96-113.82h25.31Z"/>
        </g>
      </g>
      <g>
        <g>
          <g>
            <polygon class="cls-34" points="581.31 1703.08 307.38 1703.08 307.38 1741.93 318.05 1741.93 318.05 1866.68 570.66 1866.68 570.66 1741.93 581.31 1741.93 581.31 1703.08"/>
            <rect class="cls-2" x="318.05" y="1741.93" width="252.61" height="11.67"/>
            <rect class="cls-2" x="368.73" y="1762.14" width="85.51" height="11.11" rx="4.69" ry="4.69"/>
            <rect class="cls-29" x="368.73" y="1786.83" width="85.51" height="44.83"/>
          </g>
          <polygon class="cls-2" points="581.31 1703.08 581.31 1741.93 570.66 1741.93 570.66 1866.67 506.11 1866.67 506.11 1703.08 581.31 1703.08"/>
        </g>
        <g>
          <g>
            <polygon class="cls-34" points="815.12 1703.08 541.19 1703.08 541.19 1741.93 551.85 1741.93 551.85 1866.68 804.46 1866.68 804.46 1741.93 815.12 1741.93 815.12 1703.08"/>
            <rect class="cls-2" x="551.85" y="1741.93" width="252.61" height="11.67"/>
            <rect class="cls-2" x="602.54" y="1762.14" width="85.51" height="11.11" rx="4.69" ry="4.69"/>
            <rect class="cls-29" x="602.54" y="1786.83" width="85.51" height="44.83"/>
          </g>
          <polygon class="cls-2" points="815.12 1703.08 815.12 1741.93 804.46 1741.93 804.46 1866.67 739.92 1866.67 739.92 1703.08 815.12 1703.08"/>
        </g>
        <g>
          <g>
            <polygon class="cls-34" points="565.88 1179.95 291.95 1179.95 291.95 1218.8 302.61 1218.8 302.61 1343.54 555.22 1343.54 555.22 1218.8 565.88 1218.8 565.88 1179.95"/>
            <rect class="cls-2" x="302.61" y="1218.8" width="252.61" height="11.67"/>
            <rect class="cls-11" x="419.02" y="1239" width="85.51" height="11.11" rx="4.69" ry="4.69" transform="translate(923.56 2489.11) rotate(180)"/>
            <rect class="cls-29" x="419.02" y="1263.69" width="85.51" height="44.83" transform="translate(923.56 2572.22) rotate(180)"/>
          </g>
          <polygon class="cls-2" points="291.95 1179.95 291.95 1218.8 302.61 1218.8 302.61 1343.53 367.15 1343.53 367.15 1179.95 291.95 1179.95"/>
        </g>
        <g>
          <rect class="cls-39" x="296.17" y="2541.94" width="528.72" height="36.34"/>
          <rect class="cls-55" x="263.98" y="1915.04" width="593.11" height="626.91"/>
          <rect class="cls-39" x="555.87" y="1915.03" width="9.32" height="626.91"/>
          <g>
            <rect class="cls-39" x="595.69" y="1954.95" width="16.1" height="130.49"/>
            <rect class="cls-39" x="509.27" y="1954.95" width="16.1" height="130.49"/>
          </g>
          <rect class="cls-39" x="263.97" y="1888.86" width="593.11" height="26.17"/>
          <path class="cls-55" d="M263.97,1605.1v283.75h593.12v-283.75H263.97ZM834.91,1866.68H286.15v-239.38h548.76v239.38Z"/>
          <path class="cls-55" d="M263.97,1343.54v283.75h593.12v-283.75H263.97ZM834.91,1605.11H286.15v-239.38h548.76v239.38Z"/>
          <path class="cls-55" d="M263.97,1081.98v283.75h593.12v-283.75H263.97ZM834.91,1343.55H286.15v-239.38h548.76v239.38Z"/>
          <path class="cls-55" d="M263.97,820.42v283.75h593.12v-283.75H263.97ZM834.91,1081.99H286.15v-239.38h548.76v239.38Z"/>
        </g>
        <g>
          <g>
            <rect class="cls-39" x="286.15" y="1406.64" width="54.88" height="198.33" rx="5.56" ry="5.56"/>
            <rect class="cls-29" x="294.83" y="1423.41" width="37.52" height="107.28" rx="2.18" ry="2.18"/>
            <circle class="cls-29" cx="313.59" cy="1571.19" r="13.14" transform="translate(-1019.15 681.93) rotate(-45)"/>
            <circle class="cls-54" cx="313.59" cy="1571.19" r="10.51"/>
          </g>
          <g>
            <rect class="cls-39" x="341.03" y="1406.64" width="54.88" height="198.33" rx="5.56" ry="5.56"/>
            <rect class="cls-29" x="349.71" y="1423.41" width="37.52" height="107.28" rx="2.18" ry="2.18"/>
            <circle class="cls-29" cx="368.47" cy="1571.19" r="13.14" transform="translate(-573.22 260.61) rotate(-22.5)"/>
            <circle class="cls-54" cx="368.47" cy="1571.19" r="10.51"/>
          </g>
          <g>
            <rect class="cls-39" x="395.9" y="1406.64" width="54.88" height="198.33" rx="5.56" ry="5.56"/>
            <rect class="cls-29" x="404.58" y="1423.41" width="37.52" height="107.28" rx="2.18" ry="2.18"/>
            <circle class="cls-29" cx="423.34" cy="1571.19" r="13.14" transform="translate(-1203.08 1622.22) rotate(-76.72)"/>
            <circle class="cls-54" cx="423.34" cy="1571.19" r="10.51"/>
          </g>
          <g>
            <rect class="cls-39" x="450.78" y="1406.64" width="54.88" height="198.33" rx="5.56" ry="5.56"/>
            <rect class="cls-29" x="459.46" y="1423.41" width="37.52" height="107.28" rx="2.18" ry="2.18"/>
            <circle class="cls-29" cx="478.22" cy="1571.19" r="13.14" transform="translate(-970.94 798.34) rotate(-45)"/>
            <circle class="cls-54" cx="478.22" cy="1571.19" r="10.51"/>
          </g>
          <g>
            <rect class="cls-39" x="505.66" y="1406.64" width="54.88" height="198.33" rx="5.56" ry="5.56"/>
            <rect class="cls-29" x="514.33" y="1423.41" width="37.52" height="107.28" rx="2.18" ry="2.18"/>
            <circle class="cls-29" cx="533.09" cy="1571.19" r="13.14" transform="translate(-789.2 569.01) rotate(-34.1)"/>
            <circle class="cls-54" cx="533.09" cy="1571.19" r="10.51"/>
          </g>
          <g>
            <rect class="cls-39" x="560.53" y="1406.64" width="54.88" height="198.33" rx="5.56" ry="5.56"/>
            <rect class="cls-29" x="569.21" y="1423.41" width="37.52" height="107.28" rx="2.18" ry="2.18"/>
            <circle class="cls-29" cx="587.97" cy="1571.19" r="13.14" transform="translate(-556.51 344.61) rotate(-22.5)"/>
            <circle class="cls-54" cx="587.97" cy="1571.19" r="10.51"/>
          </g>
          <g>
            <rect class="cls-39" x="615.41" y="1406.64" width="54.88" height="198.33" rx="5.56" ry="5.56"/>
            <rect class="cls-29" x="624.09" y="1423.41" width="37.52" height="107.28" rx="2.18" ry="2.18"/>
            <circle class="cls-29" cx="642.85" cy="1571.19" r="13.14" transform="translate(-1034.37 1833.62) rotate(-76.64)"/>
            <circle class="cls-54" cx="642.85" cy="1571.19" r="10.51"/>
          </g>
          <g>
            <rect class="cls-39" x="670.28" y="1406.64" width="54.88" height="198.33" rx="5.56" ry="5.56"/>
            <rect class="cls-29" x="678.96" y="1423.41" width="37.52" height="107.28" rx="2.18" ry="2.18"/>
            <circle class="cls-29" cx="697.72" cy="1571.19" r="13.14" transform="translate(-906.64 953.56) rotate(-45)"/>
            <circle class="cls-54" cx="697.72" cy="1571.19" r="10.51"/>
          </g>
          <g>
            <rect class="cls-39" x="725.16" y="1406.64" width="54.88" height="198.33" rx="5.56" ry="5.56"/>
            <rect class="cls-29" x="733.84" y="1423.41" width="37.52" height="107.28" rx="2.18" ry="2.18"/>
            <circle class="cls-29" cx="752.6" cy="1571.19" r="13.14" transform="translate(-540.14 403.34) rotate(-22.31)"/>
            <circle class="cls-54" cx="752.6" cy="1571.19" r="10.51"/>
          </g>
          <g>
            <rect class="cls-39" x="780.03" y="1406.64" width="54.88" height="198.33" rx="5.56" ry="5.56"/>
            <rect class="cls-29" x="788.71" y="1423.41" width="37.52" height="107.28" rx="2.18" ry="2.18"/>
            <circle class="cls-29" cx="807.47" cy="1571.19" r="13.14" transform="translate(-480.81 362.48) rotate(-19.63)"/>
            <circle class="cls-54" cx="807.47" cy="1571.19" r="10.51"/>
          </g>
        </g>
        <g>
          <g>
            <rect class="cls-39" x="585.13" y="1143.44" width="54.88" height="198.33" rx="5.56" ry="5.56" transform="translate(456.7 -133.99) rotate(19.78)"/>
            <rect class="cls-29" x="603.54" y="1161.9" width="37.52" height="107.28" rx="2.18" ry="2.18" transform="translate(448.11 -138.88) rotate(19.78)"/>
            <path class="cls-29" d="M602.8,1308.58c-2.46,6.83-9.98,10.37-16.81,7.91-6.83-2.46-10.37-9.98-7.91-16.81,2.46-6.83,9.98-10.37,16.81-7.91,6.83,2.46,10.37,9.98,7.91,16.81Z"/>
            <path class="cls-54" d="M600.33,1307.69c-1.96,5.46-7.98,8.3-13.44,6.33-5.46-1.96-8.3-7.98-6.33-13.44,1.96-5.46,7.98-8.3,13.44-6.33s8.3,7.98,6.33,13.44Z"/>
          </g>
          <g>
            <rect class="cls-39" x="670.28" y="1145.22" width="54.88" height="198.33" rx="5.56" ry="5.56"/>
            <rect class="cls-29" x="678.96" y="1161.99" width="37.52" height="107.28" rx="2.18" ry="2.18"/>
            <circle class="cls-29" cx="697.72" cy="1309.77" r="13.14" transform="translate(-721.79 876.99) rotate(-45)"/>
            <circle class="cls-54" cx="697.72" cy="1309.77" r="10.51"/>
          </g>
          <g>
            <rect class="cls-39" x="725.16" y="1145.22" width="54.88" height="198.33" rx="5.56" ry="5.56"/>
            <rect class="cls-29" x="733.84" y="1161.99" width="37.52" height="107.28" rx="2.18" ry="2.18"/>
            <circle class="cls-29" cx="752.6" cy="1309.77" r="13.14" transform="translate(-440.89 383.77) rotate(-22.31)"/>
            <circle class="cls-54" cx="752.6" cy="1309.77" r="10.51"/>
          </g>
          <g>
            <rect class="cls-39" x="780.03" y="1145.22" width="54.88" height="198.33" rx="5.56" ry="5.56"/>
            <rect class="cls-29" x="788.71" y="1161.99" width="37.52" height="107.28" rx="2.18" ry="2.18"/>
            <circle class="cls-29" cx="807.47" cy="1309.77" r="13.14" transform="translate(-393 347.29) rotate(-19.63)"/>
            <circle class="cls-54" cx="807.47" cy="1309.77" r="10.51"/>
          </g>
        </g>
        <g>
          <g>
            <rect class="cls-39" x="286.15" y="937.86" width="25.1" height="144.12" transform="translate(597.41 2019.84) rotate(180)"/>
            <rect class="cls-29" x="286.15" y="951.69" width="25.1" height="3.49" transform="translate(597.41 1906.87) rotate(180)"/>
            <rect class="cls-29" x="286.15" y="959.82" width="25.1" height="3.49" transform="translate(597.41 1923.13) rotate(180)"/>
            <rect class="cls-29" x="286.15" y="1059.09" width="25.1" height="3.49" transform="translate(597.41 2121.67) rotate(180)"/>
            <rect class="cls-29" x="286.15" y="1067.23" width="25.1" height="3.49" transform="translate(597.41 2137.94) rotate(180)"/>
            <rect class="cls-10" x="286.15" y="937.86" width="12.55" height="144.12" transform="translate(584.86 2019.84) rotate(180)"/>
          </g>
          <g>
            <rect class="cls-18" x="365.32" y="963.31" width="25.1" height="118.67" transform="translate(755.74 2045.29) rotate(180)"/>
            <rect class="cls-49" x="365.32" y="974.7" width="25.1" height="2.87" transform="translate(755.74 1952.26) rotate(180)"/>
            <rect class="cls-49" x="365.32" y="1069.83" width="25.1" height="2.87" transform="translate(755.74 2142.53) rotate(180)"/>
            <rect class="cls-10" x="365.32" y="963.31" width="12.55" height="118.67" transform="translate(743.19 2045.29) rotate(180)"/>
          </g>
          <g>
            <rect class="cls-39" x="340.22" y="927.54" width="25.1" height="154.44" transform="translate(705.53 2009.52) rotate(180)"/>
            <rect class="cls-29" x="340.22" y="951.08" width="25.1" height="3.74" transform="translate(705.53 1905.89) rotate(180)"/>
            <rect class="cls-29" x="340.22" y="1057.45" width="25.1" height="3.74" transform="translate(705.53 2118.64) rotate(180)"/>
            <rect class="cls-10" x="340.22" y="927.54" width="12.55" height="154.44" transform="translate(692.98 2009.52) rotate(180)"/>
          </g>
          <g>
            <rect class="cls-21" x="311.25" y="915.69" width="28.96" height="166.3" transform="translate(651.47 1997.67) rotate(180)"/>
            <rect class="cls-29" x="311.25" y="931.64" width="28.96" height="4.02" transform="translate(651.47 1867.31) rotate(180)"/>
            <rect class="cls-29" x="311.25" y="941.03" width="28.96" height="4.02" transform="translate(651.47 1886.08) rotate(180)"/>
            <rect class="cls-29" x="311.25" y="1055.57" width="28.96" height="4.02" transform="translate(651.47 2115.16) rotate(180)"/>
            <rect class="cls-29" x="311.25" y="1064.96" width="28.96" height="4.02" transform="translate(651.47 2133.93) rotate(180)"/>
            <rect class="cls-10" x="311.25" y="915.69" width="14.48" height="166.3" transform="translate(636.99 1997.67) rotate(180)"/>
          </g>
          <g>
            <rect class="cls-54" x="402.72" y="934.07" width="25.54" height="146.67" transform="translate(1077.83 1872.73) rotate(164.98)"/>
            <rect class="cls-29" x="387.82" y="950.1" width="25.54" height="3.55" transform="translate(1034.16 1767.44) rotate(164.98)"/>
            <rect class="cls-29" x="389.97" y="958.1" width="25.54" height="3.55" transform="translate(1040.45 1782.6) rotate(164.98)"/>
            <rect class="cls-29" x="416.15" y="1055.67" width="25.54" height="3.55" transform="translate(1117.19 1967.63) rotate(164.98)"/>
            <rect class="cls-29" x="418.29" y="1063.67" width="25.54" height="3.55" transform="translate(1123.48 1982.79) rotate(164.98)"/>
            <rect class="cls-10" x="402.94" y="935.72" width="12.77" height="146.67" transform="translate(1066.14 1877.58) rotate(164.98)"/>
          </g>
        </g>
        <path class="cls-2" d="M725.54,2541.94h-461.57v-626.91h159.37c0,207.91,82.59,407.3,229.6,554.31l72.59,72.59Z"/>
        <g>
          <path class="cls-55" d="M687.96,1035.08c0,12.59-4.96,24-13.04,32.42-1.8,1.89-3.76,3.62-5.86,5.2v9.28h-55.98v-9.35c-10.98-8.23-18.3-21.13-18.88-35.65-.41-10.47,2.61-20.2,8.02-28.18,11.83-17.43,17.64-38.25,17.64-59.32v-19.87h42.39v19.87c0,21.13,5.94,41.94,17.74,59.46,5.02,7.47,7.96,16.46,7.96,26.14Z"/>
          <g>
            <g class="cls-4">
              <path class="cls-25" d="M687.96,1035.08c0,12.59-4.96,24-13.04,32.42-1.8,1.89-3.76,3.62-5.86,5.2v9.28h-55.98v-9.35c-10.98-8.23-18.3-21.13-18.88-35.65-.41-10.47,2.61-20.2,8.02-28.18,11.83-17.43,17.64-38.25,17.64-59.32v-19.87h42.39v19.87c0,21.13,5.94,41.94,17.74,59.46,5.02,7.47,7.96,16.46,7.96,26.14Z"/>
            </g>
            <path class="cls-55" d="M687.96,1035.08c0,12.59-4.96,24-13.04,32.42-1.8,1.89-3.76,3.62-5.86,5.2v9.28h-31.76v-9.35c-10.98-8.23-18.3-21.13-18.88-35.65-.41-10.47,2.61-20.2,8.02-28.18,11.83-17.43,6.88-38.25,6.88-59.32v-19.87h28.94v19.87c0,21.13,5.94,41.94,17.74,59.46,5.02,7.47,7.96,16.46,7.96,26.14Z"/>
          </g>
        </g>
      </g>
      <g>
        <polygon class="cls-39" points="1963.92 2006.81 1937.82 2131.22 2025.54 2131.22 1963.92 2006.81"/>
        <polygon class="cls-29" points="1963.92 2006.81 1995.07 2131.22 2144.81 2131.22 2109.83 2006.81 1963.92 2006.81"/>
        <g>
          <polygon class="cls-28" points="1981.68 2035.25 1983.68 2042.81 1995.91 2042.81 1993.69 2035.25 1981.68 2035.25"/>
          <polygon class="cls-28" points="2001.03 2035.25 2003.03 2042.81 2015.27 2042.81 2013.04 2035.25 2001.03 2035.25"/>
          <polygon class="cls-28" points="2020.38 2035.25 2022.38 2042.81 2034.62 2042.81 2032.39 2035.25 2020.38 2035.25"/>
          <polygon class="cls-28" points="2039.73 2035.25 2041.73 2042.81 2053.97 2042.81 2051.74 2035.25 2039.73 2035.25"/>
          <polygon class="cls-28" points="2059.08 2035.25 2061.08 2042.81 2073.32 2042.81 2071.09 2035.25 2059.08 2035.25"/>
          <polygon class="cls-28" points="2078.43 2035.25 2080.43 2042.81 2092.67 2042.81 2090.44 2035.25 2078.43 2035.25"/>
          <polygon class="cls-51" points="2097.78 2035.25 2099.79 2042.81 2112.02 2042.81 2109.79 2035.25 2097.78 2035.25"/>
        </g>
        <g>
          <polygon class="cls-28" points="1986.32 2051.37 1988.33 2058.93 2000.56 2058.93 1998.34 2051.37 1986.32 2051.37"/>
          <polygon class="cls-28" points="2005.68 2051.37 2007.68 2058.93 2019.91 2058.93 2017.69 2051.37 2005.68 2051.37"/>
          <polygon class="cls-28" points="2025.03 2051.37 2027.03 2058.93 2039.26 2058.93 2037.04 2051.37 2025.03 2051.37"/>
          <polygon class="cls-28" points="2044.38 2051.37 2046.38 2058.93 2058.61 2058.93 2056.39 2051.37 2044.38 2051.37"/>
          <polygon class="cls-28" points="2063.73 2051.37 2065.73 2058.93 2077.96 2058.93 2075.74 2051.37 2063.73 2051.37"/>
          <polygon class="cls-28" points="2083.08 2051.37 2085.08 2058.93 2097.31 2058.93 2095.09 2051.37 2083.08 2051.37"/>
          <polygon class="cls-51" points="2102.43 2051.37 2104.43 2058.93 2116.66 2058.93 2114.44 2051.37 2102.43 2051.37"/>
        </g>
        <g>
          <polygon class="cls-28" points="1989.33 2067.49 1991.33 2075.06 2003.57 2075.06 2001.34 2067.49 1989.33 2067.49"/>
          <polygon class="cls-28" points="2008.68 2067.49 2010.68 2075.06 2022.92 2075.06 2020.69 2067.49 2008.68 2067.49"/>
          <polygon class="cls-28" points="2028.03 2067.49 2030.03 2075.06 2042.27 2075.06 2040.04 2067.49 2028.03 2067.49"/>
          <polygon class="cls-28" points="2047.38 2067.49 2049.38 2075.06 2061.62 2075.06 2059.39 2067.49 2047.38 2067.49"/>
          <polygon class="cls-28" points="2066.73 2067.49 2068.73 2075.06 2080.97 2075.06 2078.74 2067.49 2066.73 2067.49"/>
          <polygon class="cls-28" points="2086.08 2067.49 2088.09 2075.06 2100.32 2075.06 2098.09 2067.49 2086.08 2067.49"/>
          <polygon class="cls-51" points="2105.43 2067.49 2107.44 2075.06 2119.67 2075.06 2117.44 2067.49 2105.43 2067.49"/>
        </g>
        <g>
          <polygon class="cls-28" points="1992.34 2083.62 1994.34 2091.18 2006.57 2091.18 2004.35 2083.62 1992.34 2083.62"/>
          <polygon class="cls-28" points="2011.69 2083.62 2013.69 2091.18 2025.92 2091.18 2023.7 2083.62 2011.69 2083.62"/>
          <polygon class="cls-28" points="2031.04 2083.62 2033.04 2091.18 2045.27 2091.18 2043.05 2083.62 2031.04 2083.62"/>
          <polygon class="cls-28" points="2050.39 2083.62 2052.39 2091.18 2064.62 2091.18 2062.4 2083.62 2050.39 2083.62"/>
          <polygon class="cls-28" points="2069.74 2083.62 2071.74 2091.18 2083.97 2091.18 2081.75 2083.62 2069.74 2083.62"/>
          <polygon class="cls-28" points="2089.09 2083.62 2091.09 2091.18 2103.32 2091.18 2101.1 2083.62 2089.09 2083.62"/>
          <polygon class="cls-51" points="2108.44 2083.62 2110.44 2091.18 2122.67 2091.18 2120.45 2083.62 2108.44 2083.62"/>
        </g>
        <polygon class="cls-28" points="1996.45 2099.46 1998.45 2107.03 2010.68 2107.03 2008.46 2099.46 1996.45 2099.46"/>
        <polygon class="cls-28" points="2015.8 2099.46 2017.8 2107.03 2030.03 2107.03 2027.81 2099.46 2015.8 2099.46"/>
        <polygon class="cls-28" points="2035.15 2099.46 2037.15 2107.03 2049.38 2107.03 2047.16 2099.46 2035.15 2099.46"/>
        <polygon class="cls-28" points="2015.8 2017.76 2017.8 2025.33 2067.74 2025.33 2065.52 2017.76 2015.8 2017.76"/>
        <polygon class="cls-28" points="2074.56 2107.03 2076.56 2112.95 2126.5 2112.95 2124.28 2107.03 2074.56 2107.03"/>
        <polygon class="cls-28" points="2077.35 2117.61 2079.35 2123.53 2129.3 2123.53 2127.07 2117.61 2077.35 2117.61"/>
      </g>
      <g>
        <g>
          <g>
            <path class="cls-48" d="M5126.15,728.82s59.17-3.21,59.24-15.23c.05-9.35-36.14-1.44-36.14-1.44,0,0,39.59-11.49,57.89-20.89,4.02-2.06,8.11-4.29,10.92-7.82,2.81-3.53,4.03-8.72,1.76-12.61-3.08-5.28-10.47-5.7-16.54-4.97-24.37,2.94-41.5,15.98-63.44,26.99,16.06-8.06,30.34-18.38,43.73-30.34,12.31-10.99,26.63-21.31,34.83-36.01,5.14-9.21,7.18-22.82-1.92-30.39-8.82-7.35-21.47-3.91-31.16-.51-26.03,9.14-48.84,27.29-63.84,50.43,3.86-10.81,6.87-21.93,9-33.21.86-4.55,1.17-10.15-2.59-12.85-4.87-3.49-11.38,1.18-15.17,5.83-9.18,11.26-16.19,24.28-20.51,38.15,2.99-31.06,5.95-62.73-.81-93.2-1.54-6.96-3.67-13.98-8.02-19.63-4.34-5.65-11.3-9.73-18.38-8.96-6.71.73-12.25,5.5-16.75,10.53-14.51,16.23-23.01,37.72-23.54,59.49-.53,21.77,6.93,43.64,20.63,60.56-7.21-7.57-15.36-14.24-24.2-19.81-1.99-1.25-4.9-2.33-6.39-.52-.77.94-.76,2.27-.65,3.48,1.36,14.77,11.27,27.15,20.75,38.56-19.22-22.44-49.47-34.95-78.93-32.65-3.56.28-7.6,1.07-9.41,4.15-1.05,1.78-1.09,3.97-.88,6.03,1.57,14.81,14.64,25.56,27.49,33.09,10.81,6.34,22.19,11.63,33.55,16.92-6.49-.93-13.09-1.16-19.63-.69-1.49.11-3.16.34-4.07,1.53-1.72,2.24.7,5.29,3,6.94,16.42,11.86,37.1,17.67,57.29,16.1"/>
            <path class="cls-8" d="M5193.34,618.36c.73-.52,1.44.63.74,1.16-18.82,14.22-36.22,30.2-51.63,48.07-15.54,18.01-27.94,37.68-40.06,58.05-.44.73-1.54.15-1.17-.62,20.15-42.25,54.45-79.41,92.12-106.65h0ZM5108.19,633.63c-10.81,27.7-17.3,62.59-15.13,92.4.06.75,1.16.71,1.17-.05.48-30.01,4.96-63.56,15.53-91.76.33-.89-1.22-1.48-1.57-.59h0ZM5070.73,572.44c-5.1,50.84-.99,105.06,12.64,154.36.23.82,1.4.41,1.24-.4-5.17-25.86-9.85-51.68-12-77.99-2.07-25.3-1.86-50.54-.98-75.88.02-.51-.85-.6-.9-.09h0ZM5024.76,648.4c15.27,21.7,32.2,61.84,52.25,79.34.82.72,1.84-.44,1.13-1.22-18.13-19.94-35.9-57.31-52.15-78.9-.56-.74-1.77,0-1.23.78h0ZM5189.36,682.03c-30.29,13.66-61.53,29.74-87.19,51.09-.8.66-.02,2.02.9,1.4,28.26-18.77,55.61-37.24,86.69-51.25.75-.34.37-1.58-.4-1.24h0ZM5000.99,678.28c22.06,13.17,45.65,41.3,69.69,50.49.76.29,1.38-.77.61-1.15-23.3-11.39-47.12-37.64-69.67-50.54-.76-.43-1.38.75-.64,1.19h0Z"/>
          </g>
          <g>
            <rect class="cls-55" x="5028.84" y="725.3" width="129.09" height="107.95"/>
            <rect class="cls-2" x="5132.56" y="725.3" width="25.36" height="107.95"/>
          </g>
        </g>
        <rect class="cls-29" x="4953.87" y="1068.03" width="666.3" height="38.48"/>
        <rect class="cls-29" x="4953.87" y="833.25" width="666.3" height="38.48"/>
        <rect class="cls-29" x="5256.53" y="887.65" width="584.95" height="38.48" transform="translate(6455.89 -4642.12) rotate(90)"/>
        <rect class="cls-29" x="4974.59" y="887.65" width="584.95" height="38.48" transform="translate(6173.96 -4360.18) rotate(90)"/>
        <g>
          <g>
            <rect class="cls-39" x="5219.45" y="905.11" width="28.38" height="162.92"/>
            <rect class="cls-29" x="5219.45" y="920.74" width="28.38" height="3.94"/>
            <rect class="cls-29" x="5219.45" y="929.93" width="28.38" height="3.94"/>
            <rect class="cls-29" x="5219.45" y="1042.15" width="28.38" height="3.94"/>
            <rect class="cls-29" x="5219.45" y="1051.35" width="28.38" height="3.94"/>
            <rect class="cls-10" x="5233.64" y="905.11" width="14.19" height="162.92"/>
          </g>
          <g>
            <rect class="cls-18" x="5129.96" y="933.88" width="28.38" height="134.15"/>
            <rect class="cls-49" x="5129.96" y="946.75" width="28.38" height="3.25"/>
            <rect class="cls-49" x="5129.96" y="1054.29" width="28.38" height="3.25"/>
            <rect class="cls-10" x="5144.15" y="933.88" width="14.19" height="134.15"/>
          </g>
          <g>
            <rect class="cls-39" x="5158.34" y="893.44" width="28.38" height="174.59"/>
            <rect class="cls-29" x="5158.34" y="920.04" width="28.38" height="4.22"/>
            <rect class="cls-29" x="5158.34" y="1040.3" width="28.38" height="4.22"/>
            <rect class="cls-10" x="5172.52" y="893.44" width="14.19" height="174.59"/>
          </g>
          <g>
            <rect class="cls-21" x="5186.71" y="880.04" width="32.74" height="187.99"/>
            <rect class="cls-29" x="5186.71" y="898.08" width="32.74" height="4.55"/>
            <rect class="cls-29" x="5186.71" y="908.69" width="32.74" height="4.55"/>
            <rect class="cls-29" x="5186.71" y="1038.17" width="32.74" height="4.55"/>
            <rect class="cls-29" x="5186.71" y="1048.78" width="32.74" height="4.55"/>
            <rect class="cls-10" x="5203.08" y="880.04" width="16.37" height="187.99"/>
          </g>
          <g>
            <rect class="cls-54" x="5087.18" y="900.82" width="28.88" height="165.8" transform="translate(429.15 -1288.33) rotate(15.02)"/>
            <rect class="cls-29" x="5104.02" y="918.95" width="28.88" height="4.01" transform="translate(413.46 -1294.84) rotate(15.02)"/>
            <rect class="cls-29" x="5101.59" y="927.98" width="28.88" height="4.01" transform="translate(415.72 -1293.91) rotate(15.02)"/>
            <rect class="cls-29" x="5072" y="1038.28" width="28.88" height="4.01" transform="translate(443.29 -1282.47) rotate(15.02)"/>
            <rect class="cls-29" x="5069.58" y="1047.32" width="28.88" height="4.01" transform="translate(445.55 -1281.53) rotate(15.02)"/>
            <rect class="cls-10" x="5101.37" y="902.69" width="14.44" height="165.8" transform="translate(429.86 -1290.06) rotate(15.02)"/>
          </g>
        </g>
        <g>
          <path class="cls-57" d="M5506.79,1018.77c0,27.2-22.05,49.26-49.26,49.26-18.44,0-34.51-10.13-42.95-25.13-4.02-7.13-6.31-15.36-6.31-24.13,0-27.21,22.05-49.27,49.26-49.27,8.77,0,17,2.29,24.13,6.31,15,8.44,25.13,24.52,25.13,42.96Z"/>
          <path class="cls-29" d="M5485.98,999.18c0,26.53-21.51,48.04-48.03,48.04-8.55,0-16.58-2.23-23.53-6.15-3.92-6.95-6.15-14.98-6.15-23.53,0-26.53,21.5-48.04,48.03-48.04,8.55,0,16.58,2.23,23.53,6.15,3.92,6.95,6.15,14.98,6.15,23.53Z"/>
        </g>
        <g>
          <rect class="cls-29" x="5339.28" y="790.9" width="154.99" height="37.14"/>
          <polygon class="cls-54" points="5494.27 785.68 5333.41 785.68 5333.41 790.9 5494.27 790.9 5494.27 828.04 5333.41 828.04 5333.41 833.25 5494.27 833.25 5502.79 833.25 5502.79 785.68 5494.27 785.68"/>
        </g>
        <g>
          <rect class="cls-29" x="5323.11" y="758.24" width="134.82" height="24.06"/>
          <polygon class="cls-21" points="5457.93 754.86 5318 754.86 5318 758.24 5457.93 758.24 5457.93 782.3 5318 782.3 5318 785.68 5457.93 785.68 5465.35 785.68 5465.35 754.86 5457.93 754.86"/>
        </g>
        <g>
          <rect class="cls-29" x="5344.39" y="727.42" width="134.82" height="24.06"/>
          <polygon class="cls-48" points="5479.21 724.04 5339.28 724.04 5339.28 727.42 5479.21 727.42 5479.21 751.48 5339.28 751.48 5339.28 754.86 5479.21 754.86 5486.63 754.86 5486.63 724.04 5479.21 724.04"/>
        </g>
      </g>
      <g>
        <path class="cls-29" d="M5138.65,1357.23h371.69c7.11,0,12.89,5.77,12.89,12.89v53.08c0,7.11-5.77,12.89-12.89,12.89h-371.69c-7.11,0-12.89-5.77-12.89-12.89v-53.08c0-7.11,5.77-12.89,12.89-12.89Z"/>
        <g>
          <g>
            <path class="cls-23" d="M5223.31,1398.14c-19.47,0-35.32-15.84-35.32-35.32v-24.25h10v24.25c0,13.96,11.36,25.32,25.32,25.32v10Z"/>
            <circle class="cls-23" cx="5193" cy="1342.11" r="10.61" transform="translate(3036.4 6253.07) rotate(-80.78)"/>
          </g>
          <g>
            <path class="cls-23" d="M5335.1,1398.14c-19.47,0-35.32-15.84-35.32-35.32v-24.25h10v24.25c0,13.96,11.36,25.32,25.32,25.32v10Z"/>
            <circle class="cls-23" cx="5304.79" cy="1342.11" r="10.61" transform="translate(604.72 4144.15) rotate(-45)"/>
          </g>
          <g>
            <path class="cls-23" d="M5446.89,1398.14c-19.47,0-35.32-15.84-35.32-35.32v-24.25h10v24.25c0,13.96,11.36,25.32,25.32,25.32v10Z"/>
            <circle class="cls-23" cx="5416.58" cy="1342.11" r="10.61" transform="translate(2865.91 6305.43) rotate(-76.72)"/>
          </g>
        </g>
      </g>
      <rect class="cls-44" x="0" y="2965.04" width="6591.25" height="4560.24"/>
    </g>
  </g>
</svg>