<?xml version="1.0" encoding="UTF-8"?>
<svg xmlns="http://www.w3.org/2000/svg" xmlns:xlink="http://www.w3.org/1999/xlink" viewBox="0 0 33.88 36.32">
  <defs>
    <style>
      .cls-1 {
        fill: url(#_Áåçûìÿííûé_ãðàäèåíò_27-7);
      }

      .cls-1, .cls-2, .cls-3, .cls-4, .cls-5, .cls-6, .cls-7, .cls-8, .cls-9 {
        mix-blend-mode: multiply;
      }

      .cls-1, .cls-4, .cls-5 {
        opacity: .23;
      }

      .cls-10 {
        fill: url(#_Áåçûìÿííûé_ãðàäèåíò_148-5);
      }

      .cls-11 {
        fill: url(#_Áåçûìÿííûé_ãðàäèåíò_148-3);
      }

      .cls-2 {
        fill: url(#_Áåçûìÿííûé_ãðàäèåíò_27-3);
      }

      .cls-2, .cls-3, .cls-7, .cls-8, .cls-9 {
        opacity: .33;
      }

      .cls-3 {
        fill: url(#_Áåçûìÿííûé_ãðàäèåíò_27-2);
      }

      .cls-4 {
        fill: url(#_Áåçûìÿííûé_ãðàäèåíò_27-8);
      }

      .cls-5 {
        fill: url(#_Áåçûìÿííûé_ãðàäèåíò_27-6);
      }

      .cls-6 {
        opacity: .46;
      }

      .cls-12 {
        fill: url(#_Áåçûìÿííûé_ãðàäèåíò_148);
      }

      .cls-13 {
        isolation: isolate;
      }

      .cls-14 {
        mix-blend-mode: screen;
        opacity: .71;
      }

      .cls-7 {
        fill: url(#_Áåçûìÿííûé_ãðàäèåíò_27);
      }

      .cls-15 {
        fill: url(#_Áåçûìÿííûé_ãðàäèåíò_148-4);
      }

      .cls-8 {
        fill: url(#_Áåçûìÿííûé_ãðàäèåíò_27-5);
      }

      .cls-16 {
        fill: #7a2900;
      }

      .cls-9 {
        fill: url(#_Áåçûìÿííûé_ãðàäèåíò_27-4);
      }

      .cls-17 {
        fill: url(#_Áåçûìÿííûé_ãðàäèåíò_148-2);
      }
    </style>
    <linearGradient id="_Áåçûìÿííûé_ãðàäèåíò_148" data-name="Áåçûìÿííûé ãðàäèåíò 148" x1="19.43" y1="32.93" x2="14.8" y2="-4.39" gradientUnits="userSpaceOnUse">
      <stop offset="0" stop-color="#b44d2f"/>
      <stop offset=".18" stop-color="#c15b28"/>
      <stop offset=".72" stop-color="#e68219"/>
      <stop offset="1" stop-color="#f59113"/>
    </linearGradient>
    <linearGradient id="_Áåçûìÿííûé_ãðàäèåíò_27" data-name="Áåçûìÿííûé ãðàäèåíò 27" x1="25.01" y1="35.66" x2="16.87" y2="4.14" gradientUnits="userSpaceOnUse">
      <stop offset="0" stop-color="#b44320"/>
      <stop offset="1" stop-color="#ff9215"/>
    </linearGradient>
    <linearGradient id="_Áåçûìÿííûé_ãðàäèåíò_27-2" data-name="Áåçûìÿííûé ãðàäèåíò 27" x1="22.29" y1="36.66" x2="14.07" y2="4.82" xlink:href="#_Áåçûìÿííûé_ãðàäèåíò_27"/>
    <linearGradient id="_Áåçûìÿííûé_ãðàäèåíò_27-3" data-name="Áåçûìÿííûé ãðàäèåíò 27" x1="19.76" y1="37.02" x2="11.62" y2="5.49" xlink:href="#_Áåçûìÿííûé_ãðàäèåíò_27"/>
    <linearGradient id="_Áåçûìÿííûé_ãðàäèåíò_27-4" data-name="Áåçûìÿííûé ãðàäèåíò 27" x1="21.06" y1="38.11" x2="12.33" y2="4.35" xlink:href="#_Áåçûìÿííûé_ãðàäèåíò_27"/>
    <linearGradient id="_Áåçûìÿííûé_ãðàäèåíò_27-5" data-name="Áåçûìÿííûé ãðàäèåíò 27" x1="32.77" y1="33.66" x2="24.63" y2="2.13" xlink:href="#_Áåçûìÿííûé_ãðàäèåíò_27"/>
    <linearGradient id="_Áåçûìÿííûé_ãðàäèåíò_148-2" data-name="Áåçûìÿííûé ãðàäèåíò 148" x1="32.91" y1="40.19" x2="32.91" y2="7.13" xlink:href="#_Áåçûìÿííûé_ãðàäèåíò_148"/>
    <linearGradient id="_Áåçûìÿííûé_ãðàäèåíò_148-3" data-name="Áåçûìÿííûé ãðàäèåíò 148" x1="17.05" y1="40.18" x2="17.05" y2="7.13" xlink:href="#_Áåçûìÿííûé_ãðàäèåíò_148"/>
    <linearGradient id="_Áåçûìÿííûé_ãðàäèåíò_148-4" data-name="Áåçûìÿííûé ãðàäèåíò 148" x1="32.08" y1="40.19" x2="32.08" y2="7.12" xlink:href="#_Áåçûìÿííûé_ãðàäèåíò_148"/>
    <linearGradient id="_Áåçûìÿííûé_ãðàäèåíò_148-5" data-name="Áåçûìÿííûé ãðàäèåíò 148" x1="1.69" y1="40.19" x2="1.69" y2="7.13" xlink:href="#_Áåçûìÿííûé_ãðàäèåíò_148"/>
    <linearGradient id="_Áåçûìÿííûé_ãðàäèåíò_27-6" data-name="Áåçûìÿííûé ãðàäèåíò 27" x1="22.68" y1="36.26" x2="14.54" y2="4.74" xlink:href="#_Áåçûìÿííûé_ãðàäèåíò_27"/>
    <linearGradient id="_Áåçûìÿííûé_ãðàäèåíò_27-7" data-name="Áåçûìÿííûé ãðàäèåíò 27" x1="27.45" y1="11.13" x2="25.55" y2="3.76" xlink:href="#_Áåçûìÿííûé_ãðàäèåíò_27"/>
    <linearGradient id="_Áåçûìÿííûé_ãðàäèåíò_27-8" data-name="Áåçûìÿííûé ãðàäèåíò 27" x1="23.01" y1="14.22" x2="22.6" y2="12.64" xlink:href="#_Áåçûìÿííûé_ãðàäèåíò_27"/>
  </defs>
  <g class="cls-13">
    <g id="Layer_2" data-name="Layer 2">
      <g id="Layer_1-2" data-name="Layer 1">
        <g>
          <path class="cls-16" d="M32.96,3.64c-.8-.34-1.99-.32-2.62-.41-5.04-.71-21.95-.17-23.24-.14-2.43.06-6.57-.39-6.74,2.91-.11,2.1-.22,3.84,1.58,5.23.66.51,1.4.91,2.12,1.31-1.54,1.17-3.47,1.79-3.79,3.81-.56,3.48-.09,6.88.07,10.37.08,1.67.26,3.38.69,5.01.35,1.33.62,2.74,1.91,3.44,1.12.6,2.51.66,3.74.83,3.68.52,23.66.4,24.74-.27,1.99-1.24,2.04-4.64,2.04-6.71-.01-5.3.37-9.53.42-14.81.01-1.23.03-2.66-.89-3.58-.59-.59-2.94-1.23-1.71-2.41.66-.63,2.1-.5,2.37-1.55.12-.49.16-1.08.14-1.6,0-.25-.03-.6-.14-.83-.13-.27-.38-.46-.69-.59Z"/>
          <path class="cls-12" d="M32.91.88c-.46-.33-2.04-.44-2.58-.51C25.29-.35,8.38.2,7.1.23c-2.77.07-5.7.01-6.62,3.02-.46,1.51-.2,3.46-.03,5.04.24,2.19,1.62,2.19,3.56,2.04-.78.06-2.3.36-2.92.85-.74.57-.69,1.44-.83,2.3-.56,3.48-.09,6.88.07,10.37.08,1.67.26,3.38.69,5.01.35,1.33.62,2.74,1.91,3.44,1.12.6,2.51.66,3.74.83,3.68.52,23.66.4,24.74-.27.84-.52,2.16-2.66,1.26-3.55-.33-.33-1.11-.02-1.58-.24,1.91-.18,2.37-1.31,2.36-2.91-.01-5.3.37-9.53.42-14.81.02-2.04-.11-3.66-2.17-4.47.62-.08,1.42-.47,1.98-.65.35-1.17.27-4.58-.78-5.34Z"/>
          <g class="cls-6">
            <path class="cls-7" d="M32.91.88c-.46-.33-2.04-.44-2.58-.51C27.99.03,23.06-.03,18.34,0,12.39,1.44,6.47,3.05.36,3.72c-.2.96-.16,2.06-.06,3.1,2.73-.33,5.48-.17,8.24-.07,3.33.12,6.59-.31,9.89-.76,5.14-.71,10.28-1.44,15.46-1.4.01-1.43-.25-3.18-.97-3.7Z"/>
            <path class="cls-3" d="M20.48,18.66c-.19.09-.4.17-.64.24-1.75.55-2.97.48-4.68-.24-5.37-2.27,4.55-3.3,2.5-.77.53-.08.96-.56,1.23-1.07-1.22-1.93-5.94-1.9-7.36-.21-1.42,1.69,1.07,3.54,2.5,4.3,3.21,1.69,6.19-.53,8.94-2.05,1.63-.9,2.67-1.07,4.46-1.14.52-.02,6.28-.58,6.28-.61.05-1.17.09-2.35.13-3.58,0-.28-7.97.93-8.99.83-3.49-.33-6.77-2.24-10.01-3.42-2.34-.85-4.57.22-6.79.89-2.18.66-4.25.39-6.5.55-.43.03-.79-.07-1.06-.25-.12.42-.14.89-.22,1.35C0,15.08-.03,16.68.02,18.26c2.02.06,4.5.58,6.44-.09,1.89-.65,3.27-2.3,4.86-3.44,1.22-.87,2.21-1.47,3.44-1.33,1.84.2,3.99,1.48,5.49,2.5,1.65,1.13,1.65,2.1.23,2.74Z"/>
            <path class="cls-2" d="M1.07,29.01c2.43.56,4.83,1.26,7.28,1.74,3.08.6,6.23.56,9.35.68,4.69.19,9.38.49,14.02,1.2.81-.75,1.77-2.53.97-3.32-.33-.33-1.11-.02-1.58-.24,1.91-.18,2.37-1.31,2.36-2.91,0-.17,0-.32,0-.48-5.49,1.55-11.02,2.9-16.77,3.16-4.32.19-8.63-.09-12.9-.71-1.02-.15-2.03-.34-3.04-.54.08.43.17.86.28,1.29.01.05.03.1.04.16Z"/>
            <path class="cls-9" d="M3.34,24.32c3.65.61,7.29,1.06,10.93,1.69,3.17.55,6.88-.06,9.86-1.27,3.05-1.24,6.2-2.01,9.4-2.93.01-.38.02-.75.04-1.12-4.65.31-9.32,1.18-13.93,1.3-6.47.17-12.94.18-19.41,0,.04.59.08,1.18.11,1.77,1,.2,2,.4,3.01.57Z"/>
            <path class="cls-8" d="M20.72,9.76c4.35.51,8.74.39,13.11.05-.06-.57-.18-1.08-.42-1.53-4.73,0-9.44.65-14.15,1.29.48.07.97.13,1.46.19Z"/>
          </g>
          <g class="cls-14">
            <path class="cls-17" d="M32.87,7.61c-.27-.25-.59-.46-.94-.71.2.93.94,1.55,1.41,2.33.42.7.54,1.59.53,2.39,0-.09,0-.19,0-.28,0-.87.02-1.8-.28-2.63-.18-.49-.42-.82-.73-1.1Z"/>
            <path class="cls-11" d="M32.91.88c-.46-.33-2.04-.44-2.58-.51C25.29-.35,8.38.2,7.1.23c-2.77.07-5.7.01-6.62,3.02-.24.79-.28,1.7-.25,2.61.03-.54.1-1.06.25-1.54.6-1.97,2.07-2.63,3.79-2.87,1.04-.39,2.18-.58,3.2-.68,1.8-.17,3.85-.12,5.65.38,1.35-.03,2.83-.05,4.35-.06.08-.04.17-.07.26-.1,1.8-.53,3.62-.26,5.44-.07.24.03.48.09.69.17.82.01,1.61.03,2.36.06.13-.07.26-.13.41-.16.92-.21,1.89-.28,2.81,0,.3.09.55.24.76.43.04,0,.09.01.13.02.54.08,2.12.18,2.58.51.61.44.89,1.78.96,3.06.08-1.49-.17-3.56-.96-4.13Z"/>
            <path class="cls-15" d="M31.19,29.15c.46-.02.83.25,1.11.6.08.11.63.83.59.96.36-1.3-.52-1.83-1.7-1.56Z"/>
            <path class="cls-10" d="M.27,14.55c.16-.98.26-1.53.88-2.31.59-.75,1.35-1.43,2.23-1.83-.83.05-1.74.31-2.37.89-.63.57-.61,1.38-.74,2.18C.04,14.89-.02,16.29,0,17.68c.02-1.04.09-2.08.26-3.13Z"/>
          </g>
          <path class="cls-5" d="M31.71,6.87c.62-.08,1.42-.47,1.98-.65.35-1.17.27-4.58-.78-5.34-.46-.33-2.01-.43-2.56-.51,1.35,2.01,1.44,4.58.39,7.06-2.75,6.49-9.6,11.46-16.12,13.57-3.9,1.26-8.54,1.53-12.25-.49-.88-.48-1.66-1.09-2.33-1.81.07,1.71.22,3.42.31,5.14.08,1.67.26,3.38.69,5.01.35,1.33.62,2.74,1.91,3.44,1.12.6,2.51.66,3.74.83,3.68.52,23.66.4,24.74-.27.84-.52,2.16-2.66,1.26-3.55-.33-.33-1.11-.02-1.58-.24,1.91-.18,2.37-1.31,2.36-2.91-.01-5.3.37-9.53.42-14.81.02-2.04-.11-3.66-2.17-4.47ZM16.59,30.52c-.74,1.68-4.78,1.98-4.95-.24-.16-2.07,4.29-2.74,4.97-.87.15.41.13.79-.01,1.11ZM30.11,25.62c-.23.82-1.08,1.63-1.73,2.13,3.79,3.55-11.75,5.9-9.3,1.29.9-1.7,3.47-3.33,5.14-4.22,1.31-.7,5.12-2.41,5.9.01.08.26.07.52,0,.79Z"/>
          <path class="cls-1" d="M28.23,3.92c-1.17-.97-2.74-.3-3.4.9-.49.88-.64,1.92-.58,2.96-.21,1.19-.17,2.42.15,3.3.11.31.45.47.75.52,1.57.25,2.95-2.21,3.44-3.41.52-1.27.85-3.27-.35-4.27Z"/>
          <path class="cls-4" d="M23.57,12.76c-.15-.17-.35-.23-.57-.21-.33.03-.55.22-.76.47-.15.18-.28.41-.32.64-.01.08,0,.16.03.23,0,0,0,0,0,0-.04.21.17.44.37.45.58.02,1.21-.41,1.35-.98.05-.22.05-.43-.11-.61Z"/>
        </g>
      </g>
    </g>
  </g>
</svg>