<?xml version="1.0" encoding="UTF-8"?>
<svg xmlns="http://www.w3.org/2000/svg" xmlns:xlink="http://www.w3.org/1999/xlink" viewBox="0 0 124.56 41.13">
  <defs>
    <style>
      .cls-1 {
        fill: url(#_Áåçûìÿííûé_ãðàäèåíò_27-2);
      }

      .cls-1, .cls-2, .cls-3, .cls-4, .cls-5, .cls-6, .cls-7, .cls-8, .cls-9, .cls-10, .cls-11, .cls-12 {
        mix-blend-mode: multiply;
      }

      .cls-1, .cls-2, .cls-3, .cls-5, .cls-7, .cls-8, .cls-10, .cls-11, .cls-12 {
        opacity: .17;
      }

      .cls-13 {
        fill: url(#_Áåçûìÿííûé_ãðàäèåíò_17);
      }

      .cls-14 {
        fill: url(#_Áåçûìÿííûé_ãðàäèåíò_323);
      }

      .cls-2 {
        fill: url(#_Áåçûìÿííûé_ãðàäèåíò_27-3);
      }

      .cls-3 {
        fill: url(#_Áåçûìÿííûé_ãðàäèåíò_27-6);
      }

      .cls-4 {
        fill: #864300;
        opacity: .35;
      }

      .cls-5 {
        fill: url(#_Áåçûìÿííûé_ãðàäèåíò_27-7);
      }

      .cls-15 {
        isolation: isolate;
      }

      .cls-6 {
        fill: url(#_Áåçûìÿííûé_ãðàäèåíò_27-10);
        opacity: .23;
      }

      .cls-16 {
        mix-blend-mode: screen;
        opacity: .71;
      }

      .cls-17, .cls-9 {
        fill: #7a2900;
      }

      .cls-7 {
        fill: url(#_Áåçûìÿííûé_ãðàäèåíò_27);
      }

      .cls-8 {
        fill: url(#_Áåçûìÿííûé_ãðàäèåíò_27-8);
      }

      .cls-9 {
        opacity: .07;
      }

      .cls-10 {
        fill: url(#_Áåçûìÿííûé_ãðàäèåíò_27-9);
      }

      .cls-11 {
        fill: url(#_Áåçûìÿííûé_ãðàäèåíò_27-5);
      }

      .cls-12 {
        fill: url(#_Áåçûìÿííûé_ãðàäèåíò_27-4);
      }
    </style>
    <linearGradient id="_Áåçûìÿííûé_ãðàäèåíò_17" data-name="Áåçûìÿííûé ãðàäèåíò 17" x1="65.03" y1="37.5" x2="60.43" y2="9.41" gradientUnits="userSpaceOnUse">
      <stop offset="0" stop-color="#b43e23"/>
      <stop offset="1" stop-color="#f59113"/>
    </linearGradient>
    <linearGradient id="_Áåçûìÿííûé_ãðàäèåíò_27" data-name="Áåçûìÿííûé ãðàäèåíò 27" x1="24.88" y1="35.77" x2="23.93" y2="1.03" gradientUnits="userSpaceOnUse">
      <stop offset="0" stop-color="#b44320"/>
      <stop offset="1" stop-color="#ff9215"/>
    </linearGradient>
    <linearGradient id="_Áåçûìÿííûé_ãðàäèåíò_27-2" data-name="Áåçûìÿííûé ãðàäèåíò 27" x1="76.48" y1="37.48" x2="75.46" y2=".05" xlink:href="#_Áåçûìÿííûé_ãðàäèåíò_27"/>
    <linearGradient id="_Áåçûìÿííûé_ãðàäèåíò_27-3" data-name="Áåçûìÿííûé ãðàäèåíò 27" x1="62.07" y1="52.53" x2="60.87" y2="8.38" xlink:href="#_Áåçûìÿííûé_ãðàäèåíò_27"/>
    <linearGradient id="_Áåçûìÿííûé_ãðàäèåíò_27-4" data-name="Áåçûìÿííûé ãðàäèåíò 27" x1="106.86" y1="30.48" x2="106.16" y2="4.84" xlink:href="#_Áåçûìÿííûé_ãðàäèåíò_27"/>
    <linearGradient id="_Áåçûìÿííûé_ãðàäèåíò_27-5" data-name="Áåçûìÿííûé ãðàäèåíò 27" x1="68.32" y1="51.27" x2="67.64" y2="26.22" xlink:href="#_Áåçûìÿííûé_ãðàäèåíò_27"/>
    <linearGradient id="_Áåçûìÿííûé_ãðàäèåíò_27-6" data-name="Áåçûìÿííûé ãðàäèåíò 27" x1="61.9" y1="50.63" x2="61.12" y2="21.72" xlink:href="#_Áåçûìÿííûé_ãðàäèåíò_27"/>
    <linearGradient id="_Áåçûìÿííûé_ãðàäèåíò_27-7" data-name="Áåçûìÿííûé ãðàäèåíò 27" x1="69.99" y1="45.65" x2="69.13" y2="14.1" xlink:href="#_Áåçûìÿííûé_ãðàäèåíò_27"/>
    <linearGradient id="_Áåçûìÿííûé_ãðàäèåíò_27-8" data-name="Áåçûìÿííûé ãðàäèåíò 27" x1="67.3" y1="42.63" x2="66.96" y2="30.37" xlink:href="#_Áåçûìÿííûé_ãðàäèåíò_27"/>
    <linearGradient id="_Áåçûìÿííûé_ãðàäèåíò_27-9" data-name="Áåçûìÿííûé ãðàäèåíò 27" x1="30.67" y1="44.53" x2="29.92" y2="16.57" xlink:href="#_Áåçûìÿííûé_ãðàäèåíò_27"/>
    <linearGradient id="_Áåçûìÿííûé_ãðàäèåíò_27-10" data-name="Áåçûìÿííûé ãðàäèåíò 27" x1="61.67" y1="37.25" x2="60.66" y2=".06" xlink:href="#_Áåçûìÿííûé_ãðàäèåíò_27"/>
    <linearGradient id="_Áåçûìÿííûé_ãðàäèåíò_323" data-name="Áåçûìÿííûé ãðàäèåíò 323" x1="58.39" y1="8.36" x2="58.15" y2="-.24" gradientUnits="userSpaceOnUse">
      <stop offset="0" stop-color="#e2ae2d"/>
      <stop offset=".36" stop-color="#e1ab2a"/>
      <stop offset=".61" stop-color="#e0a320"/>
      <stop offset=".84" stop-color="#de9611"/>
      <stop offset="1" stop-color="#d80"/>
    </linearGradient>
  </defs>
  <g class="cls-15">
    <g id="Layer_2" data-name="Layer 2">
      <g id="Layer_1-2" data-name="Layer 1">
        <g>
          <path class="cls-4" d="M124.56,19.65v-.04c0-.12,0-.24-.01-.36,0-.04,0-.09,0-.13,0-.08,0-.16-.01-.24,0-.05,0-.09,0-.14,0-.07,0-.14-.01-.2h0s0-.06,0-.09c0-.07,0-.13-.02-.2-.03-.45-.07-.87-.09-1.22h0c0-.12-.01-.24-.01-.35,0-.93.2-3.33.05-5.43h0c-.07-.93-.2-1.8-.46-2.45,0,0,0-.01,0-.02-.07-.17-.14-.32-.23-.46-.01-.02-.02-.04-.04-.06-.02-.03-.04-.06-.06-.08-.02-.03-.04-.05-.06-.08-.02-.02-.04-.04-.06-.06-.03-.03-.05-.06-.08-.08-.02-.02-.03-.03-.05-.04-.05-.04-.09-.08-.14-.11-.03-.02-.06-.03-.1-.05-.02,0-.04-.01-.05-.02-.03-.01-.05-.02-.08-.03-.03,0-.06-.02-.09-.03-.02,0-.05-.02-.07-.02-.03,0-.07-.02-.1-.03-.03,0-.06-.02-.1-.03-.04-.01-.08-.02-.13-.03-.03,0-.06-.02-.1-.02-.05-.01-.1-.02-.16-.03-.03,0-.06-.01-.1-.02-.06-.01-.13-.03-.2-.04-.03,0-.06-.01-.09-.02-.07-.01-.14-.02-.21-.04-.04,0-.07-.01-.11-.02-.07-.01-.14-.02-.21-.03-.05,0-.09-.02-.14-.02-.09-.01-.18-.03-.27-.04-.04,0-.07-.01-.1-.02-.1-.01-.2-.03-.3-.04-.04,0-.07,0-.1-.01-.11-.02-.23-.03-.34-.05-.03,0-.06,0-.09-.01-.12-.02-.24-.03-.36-.05-.04,0-.07,0-.1-.01-.13-.02-.27-.03-.41-.05-.03,0-.05,0-.08,0-.16-.02-.32-.04-.48-.05-.01,0-.03,0-.04,0-.09,0-.18-.02-.27-.03-.02,0-.04,0-.06,0-.05,0-.09-.01-.14-.02-.03,0-.05,0-.08,0-.17-.02-.35-.04-.54-.05-.01,0-.03,0-.04,0-.18-.02-.36-.04-.55-.05-.02,0-.04,0-.06,0-.12-.01-.24-.02-.35-.03-.03,0-.06,0-.09,0-.15-.01-.3-.03-.45-.04-.02,0-.04,0-.06,0-.11,0-.22-.02-.33-.03,0,0-.02,0-.02,0-.22-.02-.45-.04-.69-.06,0,0,0,0,0,0-.15-.01-.3-.02-.45-.04-.04,0-.08,0-.12,0-.16-.01-.32-.02-.48-.04-.05,0-.1,0-.15-.01-.52-.04-1.06-.08-1.62-.12-.05,0-.1,0-.14-.01-.17-.01-.34-.02-.51-.04-.07,0-.14,0-.21-.01-.17-.01-.34-.02-.51-.03-.06,0-.12,0-.18-.01-.36-.02-.72-.05-1.1-.07-.05,0-.09,0-.14,0-.17-.01-.34-.02-.51-.03-.1,0-.21-.01-.31-.02-.17,0-.33-.02-.5-.03-.11,0-.21-.01-.32-.02-.36-.02-.72-.04-1.08-.06-.06,0-.12,0-.18-.01-.16,0-.33-.02-.49-.03-.13,0-.26-.01-.4-.02-.16,0-.32-.02-.49-.03-.14,0-.29-.01-.44-.02-.16,0-.32-.02-.48-.02-.17,0-.35-.02-.52-.03-.25-.01-.51-.02-.77-.04-.17,0-.35-.02-.52-.02-.16,0-.32-.01-.47-.02-.17,0-.35-.02-.52-.02-.16,0-.32-.01-.48-.02-.2,0-.39-.02-.59-.03-.19,0-.38-.02-.58-.02-.26-.01-.53-.02-.8-.03-.15,0-.3-.01-.45-.02-.21,0-.42-.02-.63-.02-.15,0-.31-.01-.46-.02-.22,0-.44-.02-.66-.02-.15,0-.29-.01-.44-.02-.34-.01-.69-.02-1.04-.04-.13,0-.26,0-.4-.01-.25,0-.5-.02-.75-.03-.15,0-.3-.01-.45-.02-.25,0-.49-.02-.74-.02-.14,0-.29,0-.43-.01-.37-.01-.75-.02-1.13-.03-.08,0-.17,0-.25,0-.32,0-.64-.02-.97-.03-.15,0-.3,0-.45-.01-.27,0-.54-.02-.81-.02-.14,0-.28,0-.43-.01-.33,0-.67-.02-1.01-.03-.08,0-.17,0-.25,0-.41-.01-.83-.02-1.26-.03-.12,0-.25,0-.37,0-.31,0-.61-.01-.92-.02-.15,0-.31,0-.46,0-.31,0-.63-.01-.95-.02-.12,0-.25,0-.38,0-.44,0-.88-.02-1.32-.03-.1,0-.21,0-.31,0-.35,0-.7-.01-1.05-.02-.15,0-.3,0-.45,0-.33,0-.67-.01-1-.02-.13,0-.27,0-.4,0-.46,0-.93-.01-1.4-.02-.03,0-.06,0-.08,0-.45,0-.9-.01-1.35-.02-.14,0-.28,0-.42,0-.35,0-.71,0-1.06-.01-.15,0-.3,0-.45,0-.41,0-.82,0-1.24-.01-.08,0-.16,0-.24,0-.49,0-.99,0-1.48-.01-.13,0-.26,0-.38,0-.38,0-.75,0-1.13,0-.16,0-.33,0-.49,0-.37,0-.74,0-1.11,0-.14,0-.29,0-.43,0-.51,0-1.02,0-1.53,0-.09,0-.19,0-.28,0-.42,0-.85,0-1.28,0-.17,0-.35,0-.52,0-.37,0-.74,0-1.11,0-.16,0-.33,0-.49,0-.53,0-1.06,0-1.6,0h0c-4.44,0-8.63.02-12.57.07h-.02c-.77,0-1.53.02-2.29.03-1.53.02-3.02.04-4.48.07-2.42.04-4.73.1-6.93.15-1.32.04-2.6.07-3.84.11-.83.03-1.63.05-2.42.08-2.99.11-5.73.23-8.21.36,0,0,0,0-.02,0-.28.01-.56.03-.83.04-.01,0-.02,0-.04,0-.27.01-.54.03-.81.05,0,0,0,0-.01,0-1.63.09-3.14.19-4.52.28-.03,0-.05,0-.08,0-.2.01-.4.03-.6.04-.04,0-.08,0-.12,0-.1,0-.21.02-.31.02-.09,0-.16.01-.25.02-.05,0-.09,0-.14.01-.18.01-.36.03-.54.04-.03,0-.06,0-.09,0-.8.06-1.56.13-2.26.19-.02,0-.05,0-.08,0-.03,0-.07,0-.1,0-.11.01-.21.02-.31.03-.06,0-.11.01-.17.02-.05,0-.09,0-.14.01-.08,0-.16.02-.23.02-.06,0-.12.01-.18.02-.12.01-.23.02-.34.04-.06,0-.12.01-.19.02-.11.01-.22.02-.32.03-.06,0-.12.01-.19.02-.1.01-.21.02-.31.03-.06,0-.11.01-.17.02-.1.01-.2.02-.3.04-.05,0-.09.01-.14.02-.18.02-.35.04-.52.07-.06,0-.12.02-.19.02-.07,0-.14.02-.21.03-.06,0-.13.02-.19.03-.07,0-.13.02-.2.03-.06,0-.12.02-.18.03-.03,0-.05,0-.08.01-.04,0-.07.01-.1.02-.06,0-.12.02-.18.03-.05,0-.11.02-.16.03-.06,0-.12.02-.18.03-.05,0-.1.02-.15.03-.06.01-.11.02-.17.03-.03,0-.07.01-.1.02,0,0-.02,0-.03,0-.06.01-.12.02-.18.03-.03,0-.07.01-.1.02-.09.02-.17.04-.25.05-.03,0-.05.01-.07.02-.05.01-.11.02-.16.04-.03,0-.05.01-.08.02-.04.01-.08.02-.12.03-.03,0-.05.01-.08.02-.04.01-.07.02-.1.03-.02,0-.05.01-.07.02-.03,0-.06.02-.09.03-.02,0-.04.01-.06.02-.03.01-.05.02-.08.03-.02,0-.03.01-.05.02-.02.01-.05.02-.07.03-.01,0-.02.01-.03.02-.03.02-.05.03-.08.05-.06.04-.11.09-.16.15-.01.01-.03.03-.04.05-.01.02-.03.04-.04.05-.02.03-.04.05-.06.08-.02.03-.03.05-.05.08-.01.02-.03.04-.04.06,0,0,0,.01-.01.02,0,.01-.02.03-.02.04-.02.03-.03.06-.05.09-.02.04-.04.09-.06.14,0,.01,0,.02-.01.03,0,0,0,0,0,.01,0,.02-.01.04-.02.06-.02.05-.04.1-.05.15-.01.04-.02.08-.04.11,0,0,0,0,0,0,0,.01,0,.03-.01.04-.01.04-.02.08-.03.12,0,.04-.02.08-.03.12,0,.04-.02.08-.03.11,0,.03-.01.06-.02.09,0,.03-.01.06-.02.1-.01.06-.02.13-.03.19,0,.02,0,.04-.01.06,0,0,0,.02,0,.03,0,0,0,.02,0,.02-.01.09-.03.18-.04.28,0,.03,0,.07-.01.1,0,.04,0,.07-.01.11,0,.05-.01.1-.01.15,0,.05,0,.1-.01.15,0,0,0,.01,0,.02,0,.03,0,.06,0,.09,0,.02,0,.04,0,.06,0,.06,0,.11,0,.17,0,.05,0,.11,0,.16H.26s0,.03,0,.05c0,.04,0,.08,0,.12,0,.05,0,.1,0,.15,0,.05,0,.09,0,.14,0,.03,0,.05,0,.08,0,.03,0,.07,0,.1,0,.06,0,.13,0,.19,0,.01,0,.02,0,.04H.24c0,.05,0,.09,0,.13,0,.11,0,.22,0,.33v.05H.24c0,.55,0,1.03,0,1.36-.02.56-.15,1.32-.2,2.1H.03c-.02.27-.03.53-.03.8H0c0,.13,0,.25.01.36,0,.03,0,.06,0,.1,0,.09.02.17.03.25,0,.04.01.08.02.12.01.07.03.15.05.22,0,.04.02.08.03.12.02.07.04.13.07.2,0,0,0,.01,0,.02-.25,7.1.46,17.78,2.14,19.76,1.08,1.27,29.89,3.21,58.98,3.23,29.7.01,59.69-1.93,60.79-3.23,1.42-1.67,2.2-9.65,2.25-16.36,0-.01,0-.03,0-.04.02-.08.04-.17.06-.26,0-.03.01-.06.02-.09.02-.09.03-.18.04-.28,0-.02,0-.04,0-.06.01-.11.02-.23.03-.35,0-.03,0-.06,0-.09,0-.09,0-.19,0-.28,0-.04,0-.07,0-.11,0-.11,0-.22,0-.34Z"/>
          <g>
            <path class="cls-17" d="M119.76,6.77c-1.71-1.1-31.44-1.88-60.89-1.88-28.77,0-55.29.78-56.65,1.88-1.68,1.36-1.31,23.22,1.08,26.14,1.04,1.27,28.79,3.21,56.82,3.23,28.61.01,57.5-1.93,58.57-3.23,2.39-2.92,2.89-24.97,1.08-26.14Z"/>
            <path class="cls-13" d="M119.76,2.82c-1.71-1.1-24.45-2.82-60.89-2.82S3.58,1.72,2.21,2.82c-1.21.98-.92,4.71-.97,6.04-.05,1.32-.65,3.79.34,4.92.91,1.04,2.66.51,3.7,1.34-.78.16-2.43.11-3.07.65-.89.74-1.14,2.27-.86,3.35.36,1.37.9,1.35,2.17,1.91-1.17-.52-1.61,2.5-1.6,2.99.04,1.67.28,3.61,1.37,4.94,1.04,1.27,28.79,3.21,56.82,3.23,28.61.01,57.5-1.93,58.57-3.23,1.36-1.67,1.8-5.62,1.82-7.66.01-1.19-.15-1.82-1.16-2.39-.35-.2-2.43-.69-2.73-.59,1.11-.38,3,.02,3.84-.95.98-1.13.41-4.27.4-5.68,0-1.63.61-7.77-1.09-8.87Z"/>
            <path class="cls-9" d="M1.25,6.99c.02-1.59.15-3.51.97-4.17C3.42,1.84,18.24.39,46.76.07c-4.83,1.27-9.56,2.87-14.37,4.2-5.47,1.51-10.93,2.36-16.59,2.68-4.84.27-9.7.26-14.54.04ZM97.81,5.67c7.73,1.05,15.41,2.5,23.12,3.67.03-.96.04-2.06-.03-3.08-4.78-.32-9.55-.67-14.33-.94-5.05-.29-10.09-.41-15.13-.42,2.13.22,4.25.48,6.37.77ZM105.72,16.48c-17.1-.29-34.19-.68-51.28-1.26-12.27-.42-24.56-.56-36.83-.11,3.84.21,7.68.48,11.54.72,8.54.55,17.08,1.05,25.62,1.62,4.31.28,8.62.67,12.94.85,4.19.17,8.39.13,12.59.03,4.27-.1,8.55-.25,12.82-.27,4.14-.03,8.28.35,12.41.27,3.85-.07,7.63-.33,11.48-.11,1.12-.21,2.7.01,3.45-.85.13-.15.23-.34.31-.55-5.01-.14-10.02-.25-15.04-.33ZM14.26,12.48c4.96,0,9.93-.4,14.89-.6,8.77-.36,17.55-.52,26.32-.19,9.06.35,18.06.41,27.13.24,9.02-.17,17.97-.05,26.98.66,3.8.3,7.59.64,11.39.95-.04-.55-.09-1.08-.1-1.5-2.61-.41-5.23-.78-7.84-1.16-9.28-1.36-18.54-2.7-27.92-3.12-9.29-.41-18.66-.36-27.92.57-9.22.92-18.37,2.36-27.63,2.8-9.43.45-18.88.29-28.32.29-.08,0-.14,0-.21-.02-.01.42,0,.84.07,1.22,4.38-.33,8.78-.14,13.17-.14ZM29.11,25.06c7.43-.9,14.96-.58,22.42-.18,8.26.44,16.52.71,24.8.81,14.56.17,29.12,0,43.68,0,.2-.9.33-1.85.4-2.7-.78,0-1.56,0-2.34,0-5,.04-10.01.52-15,.86-8.94.6-17.88,1.13-26.84.88-9.07-.26-18.04-1.59-27.11-1.83-9.08-.24-18.15.1-27.23.13-4.06.01-8.11-.08-12.17-.2-2.64-.08-5.43-.08-7.8,1.04,0,.06,0,.11,0,.15.04,1.67.28,3.61,1.37,4.94.34.42,3.54.91,8.67,1.37,5.24-2.94,11.11-4.53,17.15-5.27ZM39.62,30c14.65-2.91,29.62-1.53,44.42-.98,8.61.32,17.24.32,25.86.14,2.93-.06,5.86-.1,8.78-.2,0,0,0,0,0,0,.23-.29.44-.64.62-1.04-5.64,0-11.28.02-16.92.04-17.42.07-34.81-.03-52.21-.92-11.2-.57-23.58-.95-34.01,3.64,4.76.36,10.57.69,16.99.95,2.13-.64,4.29-1.19,6.48-1.62ZM82.27,31.18c-7.55-.32-15.1-.79-22.67-.74-5.94.04-11.86.46-17.62,1.49,5.84.16,11.98.26,18.13.26,11.15,0,22.34-.29,31.91-.72-3.25-.05-6.5-.14-9.75-.28ZM49.73,20.56c2.99-.46,5.99-.62,8.99-.61-2.42-.16-4.84-.33-7.26-.49-8.53-.55-17.07-1.05-25.61-1.61-8.16-.54-16.25-1.06-24.42-.87-.23.7-.25,1.49-.08,2.13.36,1.37.89,1.35,2.16,1.91,1.75-.4,3.61-.48,5.46-.44,4.64.09,9.27.24,13.91.21,8.83-.05,17.67-.36,26.5-.11.1-.05.21-.09.34-.11ZM55.87,3.7c9.05-.62,18.17-.77,27.24-.97,9.02-.19,17.99,0,26.99.57,3.48.22,6.95.46,10.43.7-.18-.55-.42-.97-.77-1.19C118.06,1.72,95.52.02,59.37,0c-4.38.54-8.72,1.31-12.98,2.47-5.26,1.43-10.42,3.21-15.69,4.55,8.41-.95,16.71-2.75,25.17-3.32Z"/>
            <g>
              <path class="cls-7" d="M2.21,3.58c1.16-.94,15.02-2.32,41.64-2.71.97-.28,1.93-.55,2.9-.8C18.24.39,3.42,1.84,2.21,2.82c-.82.66-.95,2.59-.97,4.17,0,0,.01,0,.02,0,.06-1.39.26-2.85.95-3.41Z"/>
              <path class="cls-1" d="M30.7,7.02c1.74-.2,3.47-.43,5.21-.68,3.5-1.03,6.97-2.14,10.49-3.1,4.26-1.16,8.6-1.93,12.98-2.47,36.14.02,58.68,1.72,60.38,2.82.15.1.28.23.39.4.12,0,.25.02.37.03-.18-.55-.42-.97-.77-1.19C118.06,1.72,95.52.02,59.37,0c-4.38.54-8.72,1.31-12.98,2.47-5.26,1.43-10.42,3.21-15.69,4.55Z"/>
              <path class="cls-2" d="M1.23,12.19c8.17,0,16.35.12,24.52-.14,1.13-.06,2.27-.12,3.4-.16.75-.03,1.5-.06,2.25-.09,8.63-.53,17.17-1.83,25.77-2.7,9.25-.93,18.63-.98,27.92-.57,9.38.42,18.64,1.76,27.92,3.12,2.61.38,5.23.75,7.84,1.16,0,.22.03.47.05.73.02,0,.04,0,.06,0-.04-.55-.09-1.08-.1-1.5-2.61-.41-5.23-.78-7.84-1.16-9.28-1.36-18.54-2.7-27.92-3.12-9.29-.41-18.66-.36-27.92.57-9.22.92-18.37,2.36-27.63,2.8-9.43.45-18.88.29-28.32.29-.08,0-.14,0-.21-.02,0,.26,0,.52.02.77.06.01.13.02.2.02Z"/>
              <path class="cls-12" d="M91.44,4.91c2.13.22,4.25.48,6.37.77.23.03.46.07.69.1,2.69.07,5.38.17,8.07.32,4.78.27,9.55.61,14.33.94.03.44.04.9.05,1.35,0-.7,0-1.42-.05-2.12-4.78-.32-9.55-.67-14.33-.94-5.05-.29-10.09-.41-15.13-.42Z"/>
              <path class="cls-11" d="M50.17,27.04c-11.2-.57-23.58-.95-34.01,3.64.52.04,1.05.08,1.59.11,10.09-3.9,21.79-3.53,32.43-2.99,3.15.16,6.3.3,9.44.41,4.89-.03,9.8.16,14.69.38,9.35.16,18.71.17,28.07.13,5.5-.02,11-.04,16.5-.04.15-.23.29-.49.42-.77-5.64,0-11.28.02-16.92.04-17.42.07-34.81-.03-52.21-.92Z"/>
              <path class="cls-3" d="M103.07,23.85c-8.94.6-17.88,1.13-26.84.88-9.07-.26-18.04-1.59-27.11-1.83-9.08-.24-18.15.1-27.23.13-4.06.01-8.11-.08-12.17-.2-2.64-.08-5.43-.08-7.8,1.04,0,.06,0,.11,0,.15,0,.2.01.4.02.61,2.37-1.1,5.15-1.11,7.78-1.03,4.05.12,8.11.21,12.17.2,9.08-.02,18.15-.37,27.23-.13,9.07.24,18.04,1.57,27.11,1.83,8.96.25,17.9-.28,26.84-.88,4.99-.33,10-.82,15-.86.75,0,1.51,0,2.26,0,.03-.26.06-.52.08-.77-.78,0-1.56,0-2.34,0-5,.04-10.01.52-15,.86Z"/>
              <path class="cls-5" d="M54.44,15.22c-12.27-.42-24.56-.56-36.83-.11,2.92.16,5.84.35,8.76.54,9.36-.14,18.72.02,28.07.34,17.1.59,34.18.97,51.28,1.26,4.84.08,9.67.18,14.51.32.08-.06.15-.13.22-.2.13-.15.23-.34.31-.55-5.01-.14-10.02-.25-15.04-.33-17.1-.29-34.19-.68-51.28-1.26Z"/>
              <path class="cls-8" d="M59.6,30.44c-5.94.04-11.86.46-17.62,1.49,1.43.04,2.88.08,4.35.11,4.37-.55,8.81-.8,13.27-.82,7.05-.05,14.09.36,21.13.68,3.93-.11,7.72-.26,11.29-.42-3.25-.05-6.5-.14-9.75-.28-7.55-.32-15.1-.79-22.67-.74Z"/>
              <path class="cls-10" d="M51.46,19.46c-8.53-.55-17.07-1.05-25.61-1.61-8.16-.54-16.25-1.06-24.42-.87-.17.52-.22,1.09-.17,1.61.03-.29.08-.57.17-.84,8.18-.19,16.26.33,24.42.87,8.53.56,17.07,1.07,25.61,1.61.2.01.39.03.59.04,2.22-.23,4.45-.32,6.68-.32-2.42-.16-4.84-.33-7.26-.49Z"/>
            </g>
            <path class="cls-6" d="M120.93,13.14s-.01.04-.02.06c-.56,1.41-1.58,2.56-2.82,3.42-1.28.88-2.78,1.24-4.22,1.76.66.52,1.33,1.04,1.81,1.75.88,1.33.92,3.26-.3,4.39-1.16,1.07-2.96,1.21-4.45,1.33-2.28.18-4.54.43-6.82.67-22.5,2.39-45.18,3.12-67.79,2.34-7.1-.24-14.78.07-21.62-2.09-3.03-.96-5.99-2.55-7.76-5.28-.91-1.41-1.58-3.21-1.18-4.89.3-1.28,1.17-2.29,2.13-3.19-2.62-.21-5.13-.81-6.84-2.47-.08,1.07-.03,2.16.54,2.81.91,1.04,2.66.51,3.7,1.34-.78.16-2.43.11-3.07.65-.89.74-1.14,2.27-.86,3.35.36,1.37.9,1.35,2.17,1.91-1.17-.52-1.61,2.5-1.6,2.99.04,1.67.28,3.61,1.37,4.94,1.04,1.27,28.79,3.21,56.82,3.23,28.61.01,57.5-1.93,58.57-3.23,1.36-1.67,1.8-5.62,1.82-7.66.01-1.19-.15-1.82-1.16-2.39-.35-.2-2.43-.69-2.73-.59,1.11-.38,3,.02,3.84-.95.71-.82.6-2.71.49-4.22Z"/>
            <g class="cls-16">
              <path class="cls-14" d="M115.33,1.99c-8.46-.97-28.4-1.99-56.47-1.99C22.43,0,3.58,1.72,2.21,2.82c-.91.74-.97,3.04-.97,4.69,0,0,0,0,.01,0,.04-1.47.22-3.09.96-3.69,1.36-1.1,20.21-2.82,56.65-2.82,22.73,0,40.13.67,50.42,1.44,2.01-.26,4.02-.39,6.05-.46Z"/>
            </g>
          </g>
        </g>
      </g>
    </g>
  </g>
</svg>