<?xml version="1.0" encoding="UTF-8"?>
<svg xmlns="http://www.w3.org/2000/svg" xmlns:xlink="http://www.w3.org/1999/xlink" viewBox="0 0 411.78 272.36">
  <defs>
    <style>
      .cls-1 {
        fill: url(#_Áåçûìÿííûé_ãðàäèåíò_575);
        opacity: .51;
      }

      .cls-1, .cls-2, .cls-3, .cls-4 {
        mix-blend-mode: multiply;
      }

      .cls-5, .cls-6 {
        fill: #7bc200;
      }

      .cls-5, .cls-7, .cls-8, .cls-9 {
        mix-blend-mode: screen;
      }

      .cls-5, .cls-8 {
        opacity: .41;
      }

      .cls-2 {
        opacity: .33;
      }

      .cls-3 {
        opacity: .25;
      }

      .cls-10 {
        fill: url(#_Áåçûìÿííûé_ãðàäèåíò_238);
      }

      .cls-11 {
        opacity: .61;
      }

      .cls-11, .cls-12, .cls-9, .cls-4 {
        fill: #c27a38;
      }

      .cls-13 {
        isolation: isolate;
      }

      .cls-14 {
        fill: url(#_Áåçûìÿííûé_ãðàäèåíò_26);
      }

      .cls-7 {
        opacity: .65;
      }

      .cls-9 {
        opacity: .28;
      }

      .cls-4 {
        opacity: .45;
      }
    </style>
    <linearGradient id="_Áåçûìÿííûé_ãðàäèåíò_575" data-name="Áåçûìÿííûé ãðàäèåíò 575" x1="322.93" y1="255.46" x2="411.78" y2="255.46" gradientUnits="userSpaceOnUse">
      <stop offset="0" stop-color="#ba691f"/>
      <stop offset="1" stop-color="#732600"/>
    </linearGradient>
    <linearGradient id="_Áåçûìÿííûé_ãðàäèåíò_238" data-name="Áåçûìÿííûé ãðàäèåíò 238" x1="367.36" y1="237.34" x2="367.36" y2="271.78" gradientUnits="userSpaceOnUse">
      <stop offset="0" stop-color="#bfc72a"/>
      <stop offset=".13" stop-color="#b8c428"/>
      <stop offset=".31" stop-color="#a7bc23"/>
      <stop offset=".51" stop-color="#8aaf1b"/>
      <stop offset=".74" stop-color="#619e0f"/>
      <stop offset=".98" stop-color="#2e8801"/>
      <stop offset="1" stop-color="#2a8600"/>
    </linearGradient>
    <linearGradient id="_Áåçûìÿííûé_ãðàäèåíò_26" data-name="Áåçûìÿííûé ãðàäèåíò 26" x1="36.68" y1="6.16" x2="36.68" y2="14.22" gradientUnits="userSpaceOnUse">
      <stop offset="0" stop-color="#ba691f"/>
      <stop offset="1" stop-color="#8e3f00"/>
    </linearGradient>
  </defs>
  <g class="cls-13">
    <g id="Layer_2" data-name="Layer 2">
      <g id="Layer_1-2" data-name="Layer 1">
        <g>
          <path class="cls-1" d="M411.65,259.4c0-.27-.03-.54-.08-.81,0-.03,0-.05-.01-.08-.05-.26-.12-.52-.21-.77-.01-.03-.02-.06-.03-.09-.05-.12-.09-.24-.15-.36-.05-.12-.12-.23-.18-.33-.02-.03-.03-.05-.05-.08-.07-.11-.14-.21-.21-.3.05-.03.09-.06.13-.09.98-.74,1.18-2.49.59-3.63-.07-.14-.16-.27-.25-.39-.04-.04-.08-.09-.12-.13-.17-.18-.37-.32-.61-.41.42-.49.64-1.07.69-1.64,0-.06,0-.13,0-.19,0-.13,0-.26-.02-.38,0-.06-.02-.13-.03-.19-.02-.13-.05-.25-.09-.37-.07-.22-.17-.42-.28-.62-.02-.04-.05-.08-.07-.11-.11-.17-.24-.32-.39-.46-.04-.04-.09-.08-.13-.12-.06-.05-.12-.09-.18-.13-.14-.09-.27-.17-.41-.23-.09-.04-.14-.06-.2-.08-.02,0-.04-.01-.07-.02-.05-.02-.1-.03-.15-.04-.03,0-.05-.01-.08-.02-.05,0-.1-.02-.16-.03-.02,0-.05,0-.07-.01-.08,0-.16-.01-.24-.02-.03-.1-.06-.19-.1-.28-.25-.54-.73-.89-1.26-.9-.17,0-.33.03-.51.09-.11.05-.22.11-.33.19.24-1.95-1.49-3.04-3.16-2.97-.08,0-.15,0-.23.02-.3.03-.6.1-.88.22-.35.14-.67.35-.94.62-.1.1-.2.21-.29.33-.14-.25-.28-.5-.44-.7-.05-.07-.11-.13-.17-.18-.15-.14-.32-.25-.5-.32-.05-.02-.1-.04-.15-.06-.63-.19-1.37,0-2.05.62-.02-.04-.05-.08-.07-.12-.08-.13-.16-.27-.24-.41-.09-.16-.18-.33-.28-.5-.08-.14-.16-.29-.25-.43-.04-.07-.09-.14-.13-.21-.13-.21-.27-.41-.43-.59-.1-.12-.21-.24-.32-.35-.17-.16-.36-.31-.56-.42-.17-.1-.55-.13-.98-.11-.13,0-.28.02-.42.03-.08,0-.16.02-.24.03-.11.02-.18.03-.26.04-.1.02-.2.04-.29.05-.1.02-.19.04-.28.07-.09.03-.18.05-.25.08-.02,0-.05.02-.07.03-.05.02-.09.04-.11.07-.05.05-.06.09-.02.13-.25-.24-.51-.35-.78-.36-.11,0-.21,0-.31.04-.05.01-.1.03-.16.05-.15.06-.3.14-.45.24-.05.03-.09.07-.14.11-.09.07-.18.15-.26.23-.05.05-.09.09-.13.13-.04.04-.08.09-.12.13-.27-.15-.6-.24-.92-.25-.05,0-.11,0-.16,0-.05,0-.1,0-.15.02-.1.02-.19.05-.28.09-.09.04-.16.09-.23.16-.1.1-.17.23-.2.39-.01.05-.02.11-.02.17-.21-.34-.53-.74-.88-1.1-.17-.17-.34-.33-.51-.47-.03-.03-.07-.05-.1-.08-.16-.13-.32-.24-.48-.33-.05-.03-.11-.05-.19-.07-.04,0-.08-.02-.13-.03-.23-.04-.53-.06-.88-.06-.27,0-.56.01-.87.04-.26.02-.53.05-.79.1-.18.03-.35.06-.52.1-.06.01-.12.03-.19.04-.09.02-.19.05-.28.08-.11.03-.22.07-.33.11-.53.2-.9.47-.93.82,0,.08,0,.16.04.24-.01-.04-.03-.07-.04-.11-.03-.06-.05-.12-.08-.17-.08-.17-.18-.33-.29-.48-1.16-1.61-3.7-2.53-5.97-2.51-.16,0-.32,0-.47.02-.17.01-.33.03-.49.05-.14.02-.28.04-.41.07-.07.01-.14.03-.22.05-.64.16-1.21.41-1.67.77-.1.08-.2.17-.29.26-.04.05-.09.09-.13.14-.04.05-.08.1-.12.15-.15.21-.28.43-.37.68-.05.12-.08.25-.11.39-.03.14-.05.28-.06.43,0,.07,0,.15-.01.23,0,.08,0,.16,0,.23,0,.08,0,.16.02.24-.07-.05-.13-.09-.2-.13-.07-.04-.14-.07-.21-.09-.07-.03-.14-.04-.21-.06-.06-.01-.12-.02-.19-.03-.08,0-.17-.01-.25,0-.73.03-1.41.48-1.66.94-.02.05-.05.09-.06.14-.04-.14-.09-.29-.16-.44-.54-1.22-1.9-2.5-3.13-3.13-.2-.1-.39-.19-.58-.25-.11-.04-.24-.05-.39-.05-.35,0-.81.09-1.29.23-.28.08-.56.18-.84.29-.14.05-.28.11-.41.17-.07.03-.13.06-.2.09-.13.06-.25.12-.37.18-.12.06-.23.12-.34.18-.05.03-.1.06-.15.09-.24.15-.42.29-.51.42-.09.12-.1.23,0,.3-.5-.32-1.03-.44-1.54-.41-.31.02-.61.09-.9.2-.39.15-.75.38-1.08.66-.16.14-.31.29-.45.45-.14.16-.26.33-.37.5-.07-.18-.14-.37-.21-.54-.04-.09-.07-.18-.11-.26-.07-.17-.15-.34-.23-.5-.4-.79-.94-1.42-1.87-1.75-.12-.04-.25-.08-.38-.11-.01,0-.05,0-.09,0-.02,0-.03,0-.05,0-.08,0-.18,0-.31.01-.03,0-.06,0-.1,0-.03,0-.07,0-.1,0-.45.03-1.04.08-1.47.12-.03,0-.07,0-.1,0-.12.01-.23.03-.31.04-.04,0-.07.01-.1.02-.03,0-.04,0-.05.01-.64.29-.92.92-1.26,1.37-.14.19-.29.36-.48.46-.02.01-.04.02-.07.03-.08.03-.1.04-.11.04-.04.01-.07.02-.09.03-.87.2-1.69-.63-2.32.65-.17-.26-.39-.53-.66-.78-.05-.05-.11-.1-.17-.15-.06-.05-.11-.09-.17-.14-.06-.05-.12-.09-.18-.14-.07-.05-.13-.09-.19-.13-.08-.05-.14-.09-.19-.12-.09-.05-.14-.08-.2-.12-.1-.05-.15-.08-.2-.11-.02,0-.04-.02-.05-.03-.05-.02-.1-.05-.15-.07-.02,0-.04-.02-.06-.03-.05-.02-.1-.04-.15-.06-.02,0-.05-.02-.07-.03-.05-.02-.09-.03-.14-.05-.03,0-.05-.02-.08-.03-.04-.01-.09-.03-.13-.04-.03,0-.06-.01-.09-.02-.04-.01-.08-.02-.12-.03-.03,0-.06-.01-.1-.02-.04,0-.08-.01-.11-.02-.04,0-.07,0-.11-.01-.03,0-.07,0-.1-.01-.04,0-.07,0-.11,0-.03,0-.07,0-.1,0-.04,0-.07,0-.11,0-.03,0-.06,0-.09,0-.06,0-.08.01-.11.01-.03,0-.06,0-.08.01-.04,0-.08.02-.12.03-.03,0-.05.01-.08.02-.04.01-.08.02-.11.04-.02,0-.05.02-.07.03-.04.01-.07.03-.11.05-.02.01-.05.02-.07.03-.02.01-.05.03-.07.04-.06.03-.08.05-.1.06-.04.02-.07.05-.1.08-.02.02-.04.03-.06.04-.03.03-.07.06-.1.09-.02.02-.04.03-.06.05-.03.03-.06.07-.09.11-.02.02-.03.04-.05.06-.03.04-.06.09-.09.13-.01.02-.03.04-.04.06-.03.05-.06.11-.09.16,0,.02-.02.04-.03.06-.04.08-.07.16-.1.24-.11-.03-.23-.04-.34-.03-.05,0-.11,0-.16.02-.16.03-.32.08-.46.16-.05.03-.1.06-.14.09-.23.16-.43.37-.59.63-.03.05-.06.1-.09.15-.08.16-.15.33-.2.5-.14-.24-.3-.43-.48-.6-.05-.04-.1-.08-.15-.12-.05-.04-.1-.07-.15-.1-1.3-.84-3.21-.2-3.74,1.38-2.97-.72-4.75,3.28-3.67,5.67-.17-.15-.35-.25-.52-.32-.44-.16-.87-.03-1.13.32-.02.03-.04.05-.05.08-.03.04-.05.09-.07.14-.06.13-.09.29-.11.46-.09,0-.17.02-.26.04-.02,0-.05,0-.07.02-.1.02-.15.03-.19.04-.02,0-.04.01-.07.02-.04.01-.07.02-.11.04-.02,0-.04.01-.06.02-.02,0-.05.02-.07.03-.02,0-.03.01-.05.02-.06.02-.11.05-.17.07-.06.03-.08.04-.1.05-.05.03-.11.05-.16.08-.02.01-.05.03-.07.04-.1.06-.15.09-.2.13-.03.02-.06.04-.09.06-.03.02-.04.03-.06.04-.02.01-.04.03-.06.04-.03.03-.07.05-.1.08-.03.02-.06.05-.09.07-.02.02-.04.03-.05.05-.05.04-.1.09-.15.14-.02.02-.04.04-.06.06-.04.04-.08.08-.12.12-.02.02-.04.04-.05.06-.04.05-.08.09-.12.14-.01.02-.03.03-.04.05-.07.08-.13.17-.19.25-.01.02-.02.03-.04.05-.22.31-.41.65-.56,1.01-.22.51-.36,1.02-.41,1.53-.13,1.13.15,2.24.97,3.04-.93.25-1.32,1.12-.68,1.88-1.42,1.16-1.2,3.33-.34,4.72,1.05,1.72,3.59,2.66,5.55,2.28-.69.13.18,2.28.38,2.57.49.7,1.21,1.09,2.03,1.28,1.56.36,3.58-.02,4.78-1.12-.38.36,1.63,1.59,2.38.88,1.01,1.39,3.34,1.75,4.93,1.8,2.29.06,3.89-.71,5.22-2.58,1.88,2.28,5.33,2.69,7.62.78-.53.45,1.29,1.57,1.54,1.69,1.01.47,1.98.64,3.08.39,1.32-.3,1.87-.93,2.71-1.79.55,1,2.34,1.37,3.09.39.24,2,2.85,1.9,4.3,1.97,2.42.11,3.69-1.18,5.61-2.48-.15.1,1.79,1.24,2.05,1.32.86.28,1.8.29,2.23-.66,1.89,2.13,4.67,1.3,6.22-.64,1.48,1.25,4.06.59,4.72-1.29-.49,1.4,4.87,1.71,5.31-.5.1,1.5,2.12,1.73,2.63.26,1.28,5.86,12.9.39,8.98-5.43,1.57.04,2.69-2.17,2.69-3.47,0-.02,0-.05,0-.08Z"/>
          <g>
            <path class="cls-10" d="M400.12,242.78c1.67-1.69,5.38-.69,5.04,2.05.84-.61,1.87-.12,2.13.87,2.23.06,3.27,2.83,1.81,4.51,1.61.65,1.68,3.62.25,4.51.88,1.11,1.13,2.96.67,4.24-.29.81-2.69,3.64-3.81,2.65,5.72,5.04-6.05,10.06-7.26,4.53-.49,1.42-2.44,1.2-2.54-.25-.43,2.14-5.62,1.84-5.14.48-.64,1.82-3.14,2.46-4.57,1.25-1.5,1.88-4.19,2.68-6.02.62-.81,1.79-3.08.33-4-.63-1.4,2.94-4,1.97-6.58,1.74-.96-.09-2.48.21-3.38-.95-.9.57-2.15.4-2.9-.43-1.97,1.95-4.78,1.56-6.8,0-1.77,2-2.28.71-4.01.25-1.51-.4-2.68.23-4.16-1.25-.66,3.22-7.7,2.51-9.19.46-1.03.98-2.65-.7-2.18-1.09-1.74,1.44-8.5,1.15-7.09-2.41-1.9.37-4.36-.54-5.38-2.21-.83-1.35-1.04-3.46.33-4.58-.63-.74-.24-1.59.68-1.82.07.08.07.09-.01.02-2.29-2.18-.28-6.87,2.71-7.16.08-1.03,1.03-1.37,1.82-.66-1.05-2.31.67-6.18,3.55-5.49.64-1.88,3.29-2.38,4.38-.54.24-.89,1.04-1.66,1.92-1.46,1-2.67,4.39-.91,5.41.72-.01.16-.02.16-.03,0,.67-1.41,1.58-.27,2.52-.75.62-.32.81-1.37,1.69-1.77.15-.07,2.47-.24,2.6-.21,1.64.38,2.18,1.64,2.71,3.07.86-1.35,2.66-2.36,4.21-1.36-.67-.44,3.27-2.2,4.35-1.82,1.45.51,3.35,2.22,3.75,3.7.25-.71,1.68-1.5,2.7-.74-.53-5.12,8.85-4.31,10.37-.43-.53-1.34,4.13-1.74,4.89-1.32.68.37,1.5,1.26,1.91,1.92.03-.95,1.21-.94,1.9-.57.57-.69,1.49-1.3,2.26-.55-.31-.3,2.27-.71,2.81-.4,1.05.6,1.6,1.95,2.19,2.94,1.21-1.08,2.62-.84,3.17.65.1-.12.2-.24.31-.35Z"/>
            <g class="cls-8">
              <path class="cls-6" d="M409.11,250.22c1.46-1.68.41-4.46-1.81-4.51-.26-1-1.29-1.48-2.13-.87.34-2.74-3.37-3.75-5.04-2.05-.11.11-.21.23-.31.35-.55-1.5-1.96-1.74-3.17-.65-.6-.98-1.14-2.34-2.19-2.94-.54-.31-3.12.1-2.81.4-.77-.76-1.69-.14-2.26.55-.69-.38-1.87-.39-1.9.57-.41-.66-1.23-1.55-1.91-1.92-.76-.41-5.41-.02-4.89,1.32-1.52-3.88-10.9-4.7-10.37.43-1.03-.76-2.46.03-2.7.74-.4-1.48-2.3-3.19-3.75-3.7-1.09-.38-5.03,1.39-4.35,1.82-1.55-1-3.36,0-4.21,1.36-.53-1.43-1.07-2.69-2.71-3.07-.13-.03-2.45.15-2.6.21-.88.41-1.07,1.45-1.69,1.77-.94.48-1.84-.64-2.51.73-1.04-1.62-4.4-3.35-5.4-.7-.88-.2-1.68.58-1.92,1.46-1.08-1.85-3.74-1.34-4.38.54-2.88-.69-4.59,3.18-3.55,5.49-.79-.71-1.74-.37-1.82.66-1.92.19-3.44,2.21-3.66,4.2.1.25.21.48.31.69.49.93,3.09,3.39,4.35,2.19-.99.94-.25,2.55.87,2.95.29,3.42,5.22,3.93,7.19,1.63-1.14-.6-1.86-1.55-2.52-2.64,1.4,1.14,4.11,1.39,5.93,1.01-.2.82-1.06,1.59-2.04,1.67-.91,2.82,3.95,6.64,6.25,4.38.07,2.15,3.19,1.61,3.92.01,0,0,4,.62,3.73-2.06-.16-1.6-1.82-1.54-3.25-1.54,2.3-.03,5.15-1.78,6.72-3.36-.53,1.07-1.23,2.12-2.21,2.84.2.5.39,1.06.65,1.54,1.09,2,1.82,1.05,3.51,1.48,1.48.38,4.69,2.98,5.44-.21,1.76,1.06,4.76.34,4.46-1.85.78,1.55,2.96,3.76,4.64,1.84.81-.07.45.04.95-.63-.59-.54-1.08-1.17-1.5-1.85,1.71,1.04,3.63,1.73,5.69,1.63-.67.53-1.52,1.06-2.43,1.09.71,1.74,4.33,3.04,5.4,1.07.99,1.75,3.76,2.06,4.82.22,2.15.44,5.74-.97,4.09-3.75,1.14,1.5,4.87,1.42,5.21-.62.17.08.62.24.75.31-.34,2.51,3.88,3.83,4.86,1.3,2.19,2.06,4.25-2.15,2.73-3.94,2.33,1.73,4.75,1.65,6.69.11.09-1.12-.22-2.37-.88-3.2,1.43-.89,1.36-3.85-.25-4.51Z"/>
            </g>
            <path class="cls-5" d="M409.74,247.97c-.18-1.19-1.1-2.23-2.45-2.26-.26-1-1.29-1.48-2.13-.87.34-2.74-3.37-3.75-5.04-2.05-.11.11-.21.23-.31.35-.55-1.5-1.96-1.74-3.17-.65-.6-.98-1.14-2.34-2.19-2.94-.54-.31-3.12.1-2.81.4-.77-.76-1.69-.14-2.26.55-.69-.38-1.87-.39-1.9.57-.41-.66-1.23-1.55-1.91-1.92-.75-.41-5.41-.02-4.89,1.32-1.52-3.88-10.9-4.7-10.37.43-1.03-.76-2.46.03-2.7.74-.4-1.48-2.3-3.19-3.75-3.7-1.09-.38-5.03,1.39-4.35,1.82-1.55-1-3.36,0-4.21,1.36-.53-1.43-1.07-2.69-2.71-3.07-.13-.03-2.45.14-2.6.21-.88.41-1.07,1.45-1.69,1.77-.94.48-1.84-.64-2.51.73-1.04-1.62-4.4-3.35-5.4-.7-.88-.2-1.68.58-1.92,1.46-1.08-1.85-3.74-1.34-4.38.54-2.88-.69-4.59,3.18-3.55,5.49-.79-.71-1.74-.37-1.82.66-1.09.11-2.05.8-2.71,1.74.97-.05,2.02-.18,2.83.34.29-.76,1.18-1.34,1.69-1.92,1.89-2.14,3.91-3.91,6.54-1.53,1.31-2.9,7.28-5.1,8.99-.81.45-.67,1.21-.82,1.75-.16.3-.13.26-.13.52-.17.28-1.02,1.01-1.13,1.78-1.6.32-.19.76-.03,1.08-.2.2-.11.5-.8.78-1,1.85-1.31,4.15-1.03,5.61.69.38-.62,1.55-.32,1.79.55.22.8-.85,1.03-1.29,1.76,1.4-1.12,3.59-1.28,5.16-.66-.33-1.01-1.59-.97-2.56-.97.22-1.17,2.32-2.42,3.35-1.61,1.9-2.03,4.79.21,5.4,2.25.36-.91,2.51-2.53,3.2-1.14.25-1.28,1.75-1.29,2.63-1.51,2.34-.57,5.96-.42,5.67,3.12,1.45-1.22,5.47.04,6.51,1.46-.03-2.19,1.52-2,3.04-2.44,3.48-1,4.72-.72,5.77,2.73.82-.61,1.99-.8,2.71.08,1.14-.92,3.63.35,3.21,1.74,1.22-1.03,2.59-1.15,3.88-.28.82-1.57,2.46-1.5,3.69-.71Z"/>
          </g>
        </g>
        <g>
          <path class="cls-14" d="M48.78,2.58c-5.39.06-10.78.13-16.17.13-4.95,0-9.9-.04-14.85-.19-2.47-.08-4.94-.18-7.42-.32-1.18-.07-2.38-.26-3.55-.24-1.13.02-2.23.27-3.36.13-.25-.03-2.6-.84-2.43-1.26-.43,1.08-.05,1.66.02,2.78-.19.02-.64.26-.55.68.03.13.11.22.14.35.09.41-.33.65-.43,1.05-.08.31.04.64.1.96.2,1.19-.52,2.48-.19,3.6.26-.26.52-.52.78-.78-.11.97-.09,1.98.07,2.94,2.03-4.14,6.01-3.62,9.04-3.67,10.5-.18,20.96-.91,31.44-1.07,6.56-.11,13.12.14,19.67.74,3.16.29,6.89-.02,9.96,1.18.46.18,1.05.98,1.47.27.18-.31.25-.74.31-1.15.07-.53.15-1.06.22-1.58.1-.69.2-1.39.29-2.08.02-.17.05-.35,0-.5-.09-.23-.32-.25-.43-.46-.18-.33.05-.8.27-1.08-.24-.12-.48-.24-.71-.35.15-.75.11-1.58-.11-2.29-.04-.13-.1-.27-.19-.33-.14-.09-.3.06-.43.18-.99.93-2.03.45-3.1.66-1.2.24-2.34.63-3.51.75-5.46.56-10.84.9-16.32.95Z"/>
          <g class="cls-2">
            <path class="cls-12" d="M46.37,3.47c.06,0,.12,0,.18.01-.07-.06-.13-.05-.18-.01Z"/>
            <path class="cls-12" d="M12.97,3.41c-.2.02-.39.05-.59.09.2-.03.39-.06.59-.09Z"/>
            <path class="cls-11" d="M69.13,6.17c-.27-.11-.54-.23-.81-.36-.05-.03-.11-.06-.13-.14-.04-.14.08-.26.17-.31,1.55-.88,3.37-.8,4.99-.51,0-.1,0-.21-.03-.3-.09-.23-.32-.25-.43-.46-.05-.1-.07-.2-.06-.31-3.21-.37-6.46-.23-9.65.43,1.47.08,2.93.7,4.2,1.81-4,.97-8.09,1.14-12.13.5,2.41-.56,4.82-1.11,7.23-1.67-1.23-.1-2.47-.19-3.7-.29.27-.27.55-.53.82-.79-2.49.12-4.97.53-7.41,1.23.3.18.6.37.91.55l-.9.56c.41.17.82.34,1.23.51-3.25-.18-6.5-.36-9.76-.53,1.55-.57,3.09-1.15,4.64-1.72-.25-.36-.66-.22-.98-.02-.32.19-.7.4-.99.12-.23-.22-.15-.84.04-.97-4.9-.43-9.82-.23-14.69.58,3.71-.46,7.44-.32,11.13.43-4.33,1.53-8.83,1.97-13.26,1.31,2.81-.42,5.62-.84,8.42-1.25-2.44,0-4.87,0-7.31-.01-.87,0-1.74,0-2.58.32-.61.23-1.18.63-1.78.91-1.24.57-2.56.61-3.86.64-3.32.08-6.63.1-9.95.07,3.11-2.01,7.11.33,9.88-2.61-3.1-.74-6.27-.88-9.4-.44,1.71-.2,3.45.2,5.04,1.16-3.8.7-7.63.73-11.45.77-.39,0-.86-.81-.48-.9-1.65.37-3.88-.7-5.58-.1.04.1.09.18.12.29.09.41-.33.65-.43,1.05-.08.31.04.64.1.96.2,1.19-.52,2.48-.19,3.6.26-.26.52-.52.78-.78-.11.97-.09,1.98.07,2.94.5-1.01,1.19-1.62,1.77-2.46.66-.96,1.24-1.73,2.22-1.81.58-.05,1.17.16,1.74-.02.47-.15.92-.56,1.39-.42.19.05.35.19.54.27.24.11.5.1.75.1,1.47-.01,2.95,0,4.42.06,1.54.07,3.08-.22,4.63-.09-.09-.04-.15.19-.08.3.06.11.17.12.27.12,2.21,0,4.42-.12,6.63-.35l-.52-.36c1.09-.68,2.27-1.06,3.46-1.1-.11.15-.17.37-.17.59.01,1.18,4.47.55,4.94.51,2.48-.22,4.91-.55,7.39-.49,1,.03,1.98-.05,2.98.14.37.07.74.16,1.11.25,1.92,0,3.83.03,5.75.09,2.6-.51,5.2-.4,7.83-.23,1.78.11,3.56.18,5.35.26,1.4.06,2.84-.19,4.23.27.57.19,1.02.6,1.56.9.62.35,1.31.41,1.94.66.46.18,1.05.98,1.47.27.18-.31.25-.74.31-1.15.05-.38.11-.77.16-1.15-.02.18-1.68.05-1.83,0-.05-.01-.1-.03-.13-.08-.07-.1-.03-.28.04-.37.07-.09.17-.11.26-.13-.29-.33-.67-.39-1.03-.47-.39-.08-.77-.2-1.15-.34Z"/>
          </g>
          <g class="cls-3">
            <path class="cls-4" d="M67.37,6.23c-.07-.06-.14-.12-.22-.18-3.73.88-7.53,1.06-11.3.54-.2.05-.41.09-.61.14,4.03.64,8.12.47,12.13-.5Z"/>
            <path class="cls-4" d="M52.42,6.18c.23-.14.45-.28.68-.42-.06-.04-.13-.08-.19-.12-.24.15-.48.29-.71.44.07.03.15.06.22.09Z"/>
            <path class="cls-4" d="M46.2,4.11c-.02.21,0,.44.13.56.29.29.67.08.99-.12.25-.15.56-.27.8-.14.06-.02.12-.04.18-.07-.25-.36-.66-.22-.98-.02-.32.19-.7.4-.99.12-.08-.08-.12-.2-.13-.33Z"/>
            <path class="cls-4" d="M58.78,4.77c.99.08,1.97.16,2.96.23.25-.06.5-.11.75-.17-1.16-.09-2.32-.18-3.48-.28-.07.07-.15.14-.22.21Z"/>
            <path class="cls-4" d="M71.93,3.68c-2.92-.25-5.86-.08-8.76.52.25.01.5.04.75.09,2.22-.4,4.45-.54,6.68-.45.44-.08.88-.12,1.33-.16Z"/>
            <path class="cls-4" d="M42.81,4.71c-.15-.03-.29-.06-.44-.08-3.93,1.32-7.99,1.75-12.01,1.27-.27.04-.54.08-.82.12,4.43.66,8.93.22,13.26-1.31Z"/>
            <path class="cls-4" d="M53.42,6.83c-.21-.09-.43-.18-.64-.27-2.86-.16-5.71-.31-8.57-.47-.18.07-.36.13-.54.2,3.25.18,6.51.36,9.76.53Z"/>
            <path class="cls-4" d="M59.34,4c.08-.08.17-.16.26-.25-2.49.12-4.97.53-7.41,1.23.09.05.18.11.26.16,2.28-.63,4.58-1.01,6.89-1.14Z"/>
            <path class="cls-4" d="M5.96,4.76c-.11.24.27.81.6.81,3.82-.04,7.66-.08,11.45-.77-.1-.06-.21-.12-.31-.18-3.7.64-7.42.68-11.14.72-.24,0-.52-.32-.6-.58Z"/>
            <path class="cls-4" d="M6.08,4.44c-.83.19-1.81,0-2.79-.14.52.13,1.03.27,1.55.43.39.03.76.03,1.11-.04-.02-.12.01-.23.14-.25Z"/>
            <path class="cls-4" d="M46.37,3.47c.06,0,.12,0,.18.01-.07-.06-.13-.05-.18-.01Z"/>
            <path class="cls-4" d="M14.93,3.44c2.42-.15,4.85.04,7.25.59.06-.06.13-.12.19-.19-3.1-.74-6.27-.88-9.4-.44.65-.08,1.31-.06,1.96.03Z"/>
            <path class="cls-4" d="M46.24,3.69c.03-.1.08-.18.13-.22-4.9-.43-9.82-.23-14.69.58,1.21-.15,2.41-.24,3.62-.26,3.64-.38,7.3-.41,10.94-.1Z"/>
            <path class="cls-4" d="M12.89,6.46c-.13.07-.27.14-.4.23,3.32.03,6.63,0,9.95-.07,1.3-.03,2.62-.07,3.86-.64.6-.28,1.17-.67,1.78-.91.84-.32,1.72-.32,2.58-.32,1.93,0,3.85,0,5.78.01.51-.08,1.02-.15,1.53-.23-2.44,0-4.87,0-7.31-.01-.87,0-1.74,0-2.58.32-.61.23-1.18.63-1.78.91-1.24.57-2.56.61-3.86.64-3.18.07-6.37.1-9.55.07Z"/>
            <path class="cls-4" d="M12.38,3.5c.2-.03.39-.06.59-.09-.2.02-.39.05-.59.09Z"/>
          </g>
          <path class="cls-4" d="M64.69,5.5c0,.11-.04.24-.1.31-.09.12-.22.16-.34.2-1.27.37-2.64.14-3.93,0-.5-.06-.87-.29-1.34-.49-.15-.06-.56-.02-.64-.3-.03-.1.23-.74.28-.73-.79-.05-1.6-.09-2.36.26-.26.12-.52.28-.79.32-.24.03-.49-.05-.73-.09-.68-.12-1.39.03-2.02.44.24.16.47.31.71.47-1.03,1.13-2.61.78-3.81.68-1.66-.13-3.34.36-4.99.02-.42-.09-.83-.23-1.25-.27-.45-.04-.89.03-1.34.09-3.94.55-7.95.37-11.87-.33.32-.15.64-.37.92-.64-1.83-.46-3.7.3-5.56.14-.19-.02-.38-.04-.56-.16-.1-.07-.2-.17-.31-.22-.15-.07-.31-.06-.46-.04-1.27.16-2.54.51-3.77,1.03.59.04,1.18.11,1.76.22.17.03.41.23.32.45-.03.08-.09.12-.16.15-.91.44-1.93.2-2.87.19-1.29-.02-2.57-.19-3.86-.22-1.39-.04-2.78-.09-4.17-.15-.69-.03-1.39-.07-2.08-.11-.51-.03-1.31.15-1.78-.11.84.46,1.67.92,2.51,1.39-2.58-.03-5.17-.05-7.75-.08-.58,0-1.2-.03-1.69-.5-.41-.39-.44-1.09-.51-1.59-.02.27.07.55.12.83.2,1.19-.52,2.48-.19,3.6.26-.26.52-.52.78-.78-.11.97-.09,1.98.07,2.94,2.03-4.14,6.01-3.62,9.04-3.67,10.5-.18,20.96-.91,31.44-1.07,6.56-.11,13.12.14,19.67.74,3.16.29,6.89-.02,9.96,1.18.1.04.2.1.3.17.48-.13.95-.3,1.39-.57.03-.16.05-.32.08-.47.07-.53.15-1.06.22-1.58.1-.69.2-1.39.29-2.08.02-.17.05-.35,0-.5-.03-.07-.07-.12-.11-.17-.61-.57-1.45.48-2.07.64-.76.2-1.54.09-2.31-.02-.09-.01-.18-.03-.25-.11-.14-.16-.12-.52,0-.72.12-.2.3-.29.47-.37-1.87-.34-3.79.02-5.55,1.05.31.11.63.22.94.32.07.03.15.06.2.14.03.05.04.12.04.18Z"/>
          <path class="cls-9" d="M36.87,2.98c-8.14.13-16.25.04-24.39-.29-2.68-.11-5.35-.22-8.03-.33-1.06-.04-2.13-.09-3.15-.47,0,.37,0,2,.55,1.74-.33.16-.63.49-.83.92-.06.38.13.77.37.93.24.16.5.15.76.14,3.08-.13,6.15-.25,9.23-.38.24,0,.48-.02.71.04.15.04.29.1.44.15.41.12.83.05,1.24-.01,2.65-.39,5.32-.44,7.98-.5-.03-.29-.05-.59-.08-.88.07.8,4.96-.18,5.45-.25,3.22-.5,6.51-.76,9.75-.81Z"/>
          <path class="cls-9" d="M69.39,1.45c-1.95.35-3.92,1.38-5.87,1.87-1.87.47-3.76.54-5.66.57-1.41.02-2.82-.02-4.23-.06l-1.97-.05c-2.22-.06-4.44-.12-6.66-.18,2.31-.18,4.63-.36,6.94-.48,5.83-.31,11.66-.63,17.44-1.67Z"/>
          <g class="cls-7">
            <path class="cls-12" d="M.81,10.18c-.01.28-.02.56,0,.85,0-.3.03-.61.06-.9-.02.02-.04.04-.06.06Z"/>
            <path class="cls-12" d="M72.89,4.74c.11.2.33.23.42.44,0-.05.01-.09.02-.14.02-.17.05-.35,0-.5-.08-.23-.3-.25-.42-.44-.08.22-.12.45-.01.64Z"/>
            <path class="cls-12" d="M1,1.47c-.11.28,2.15,1.39,2.44,1.28.23-.09.43-.28.66-.34.22-.06.45.02.67.07.81.19,1.63.03,2.44.11,1.08.11,2.18.03,3.26.09,2.13.12,4.26.33,6.39.49.11,0,.24.04.28.19.03.12-.01.27.03.39.04.13.16.14.26.14,1.87-.06,3.73-.11,5.6-.17-.15-.18-.3-.35-.45-.53.33.39,1.89.04,2.33.05.88.02,1.75.03,2.62.06,1.64.04,3.27.08,4.92.02,2.37-.09,4.74-.15,7.11-.15,1.08,0,2.12-.3,3.2-.29.99,0,2.02.01,3.01.1,2.84.25,5.76.21,8.6.08.83-.04,1.67,0,2.49-.08.91-.09,1.68.17,2.58.27.53.06,1.06-.05,1.58-.16,1.32-.28,2.72-.83,4.05-.83,1.16-.12,2.3-.51,3.51-.75,1.07-.21,2.12.27,3.1-.66.13-.12.29-.27.43-.18.09.06.15.2.19.33.1.33.17.69.19,1.06.04-.58-.02-1.18-.19-1.72-.04-.13-.1-.27-.19-.33-.14-.09-.3.06-.43.18-.99.93-2.03.45-3.1.66-1.2.24-2.34.63-3.51.75-5.46.56-10.84.9-16.32.95-5.39.06-10.78.13-16.17.13-4.95,0-9.9-.04-14.85-.19-2.47-.08-4.94-.18-7.42-.32-1.18-.07-2.38-.26-3.55-.24-1.13.02-2.23.27-3.36.13-.25-.03-2.6-.84-2.43-1.26-.21.53-.23.94-.18,1.35.03-.21.08-.44.18-.69Z"/>
            <path class="cls-12" d="M72.44,3.31c.14.07.29.14.43.21.06-.19.17-.38.28-.52-.21-.1-.42-.21-.64-.31-.01.21-.04.42-.08.62Z"/>
            <path class="cls-12" d="M.29,7.45c-.08.82-.36,1.66-.27,2.44.08-.8.36-1.64.27-2.44Z"/>
            <path class="cls-12" d="M.61,5.28c-.02-.08-.05-.15-.09-.21-.11.19-.28.37-.34.61-.05.19-.02.39.02.6.13-.37.5-.6.41-.99Z"/>
            <path class="cls-12" d="M.57,4.51c.13-.16.33-.25.45-.26-.02-.23-.04-.45-.08-.64-.21.06-.56.29-.47.66.02.09.06.16.1.24Z"/>
          </g>
        </g>
      </g>
    </g>
  </g>
</svg>