<?xml version="1.0" encoding="UTF-8"?>
<svg xmlns="http://www.w3.org/2000/svg" xmlns:xlink="http://www.w3.org/1999/xlink" viewBox="0 0 500 134.19">
  <defs>
    <style>
      .cls-1 {
        fill: url(#_Áåçûìÿííûé_ãðàäèåíò_127-3);
      }

      .cls-2 {
        fill: #276b00;
      }

      .cls-3 {
        opacity: .41;
      }

      .cls-3, .cls-4, .cls-5 {
        fill: #7bc200;
      }

      .cls-3, .cls-5 {
        mix-blend-mode: screen;
      }

      .cls-6 {
        fill: url(#_Áåçûìÿííûé_ãðàäèåíò_127);
      }

      .cls-7 {
        fill: url(#_Áåçûìÿííûé_ãðàäèåíò_127-5);
      }

      .cls-8 {
        fill: #63b509;
        opacity: .35;
      }

      .cls-8, .cls-4 {
        mix-blend-mode: multiply;
      }

      .cls-9 {
        fill: url(#_Áåçûìÿííûé_ãðàäèåíò_127-7);
      }

      .cls-10 {
        fill: #4e8800;
      }

      .cls-11 {
        isolation: isolate;
      }

      .cls-4, .cls-5 {
        opacity: .23;
      }

      .cls-12 {
        fill: url(#_Áåçûìÿííûé_ãðàäèåíò_127-2);
      }

      .cls-13 {
        fill: url(#_Áåçûìÿííûé_ãðàäèåíò_127-6);
      }

      .cls-14 {
        fill: url(#_Áåçûìÿííûé_ãðàäèåíò_127-4);
      }

      .cls-15 {
        fill: #246800;
      }
    </style>
    <radialGradient id="_Áåçûìÿííûé_ãðàäèåíò_127" data-name="Áåçûìÿííûé ãðàäèåíò 127" cx="767.55" cy="399.12" fx="767.55" fy="399.12" r="36.42" gradientTransform="translate(-245.01 -994.72) rotate(30.48) scale(1.49)" gradientUnits="userSpaceOnUse">
      <stop offset="0" stop-color="#97ca2a"/>
      <stop offset=".17" stop-color="#90c627"/>
      <stop offset=".38" stop-color="#7fbb20"/>
      <stop offset=".63" stop-color="#62a915"/>
      <stop offset=".9" stop-color="#3a9006"/>
      <stop offset="1" stop-color="#2a8600"/>
    </radialGradient>
    <radialGradient id="_Áåçûìÿííûé_ãðàäèåíò_127-2" data-name="Áåçûìÿííûé ãðàäèåíò 127" cx="248.56" cy="-926.72" fx="248.56" fy="-926.72" r="36.42" gradientTransform="translate(-580.67 -967.31) rotate(-30.48) scale(1.49 -1.49)" xlink:href="#_Áåçûìÿííûé_ãðàäèåíò_127"/>
    <radialGradient id="_Áåçûìÿííûé_ãðàäèåíò_127-3" data-name="Áåçûìÿííûé ãðàäèåíò 127" cx="393.09" cy="125.04" fx="393.09" fy="125.04" r="44.55" gradientTransform="translate(-100.96 -199.32) rotate(6.85) scale(1.49)" xlink:href="#_Áåçûìÿííûé_ãðàäèåíò_127"/>
    <radialGradient id="_Áåçûìÿííûé_ãðàäèåíò_127-4" data-name="Áåçûìÿííûé ãðàäèåíò 127" cx="2481.77" cy="-609.69" fx="2481.77" fy="-609.69" r="36.42" gradientTransform="translate(3710.19 -994.72) rotate(149.52) scale(1.49 -1.49)" xlink:href="#_Áåçûìÿííûé_ãðàäèåíò_127"/>
    <radialGradient id="_Áåçûìÿííûé_ãðàäèåíò_127-5" data-name="Áåçûìÿííûé ãðàäèåíò 127" cx="1962.78" cy="-1935.52" fx="1962.78" fy="-1935.52" r="36.42" gradientTransform="translate(4045.86 -967.31) rotate(-149.52) scale(1.49)" xlink:href="#_Áåçûìÿííûé_ãðàäèåíò_127"/>
    <radialGradient id="_Áåçûìÿííûé_ãðàäèåíò_127-6" data-name="Áåçûìÿííûé ãðàäèåíò 127" cx="2367.8" cy="-112.29" fx="2367.8" fy="-112.29" r="44.55" gradientTransform="translate(3566.14 -199.32) rotate(173.15) scale(1.49 -1.49)" xlink:href="#_Áåçûìÿííûé_ãðàäèåíò_127"/>
    <radialGradient id="_Áåçûìÿííûé_ãðàäèåíò_127-7" data-name="Áåçûìÿííûé ãðàäèåíò 127" cx="173.58" cy="65.09" fx="173.58" fy="65.09" r="79.85" gradientTransform="translate(-12.02 -27.21) scale(1.49)" xlink:href="#_Áåçûìÿííûé_ãðàäèåíò_127"/>
  </defs>
  <g class="cls-11">
    <g id="Layer_2" data-name="Layer 2">
      <g id="Layer_1-2" data-name="Layer 1">
        <g>
          <g>
            <path class="cls-15" d="M407.51,128.01c-2.8-1.65-5.42-3.61-7.78-5.85-2.6-2.46-4.86-5.17-6.71-8.06-1.06-1.65-1.67-3.4-2.26-5.09l-.09-.26c-.6-2.99-.88-6.15-.84-9.55.02-2.11.19-4.22.37-6.38.14-1.61-.57-3.17-.86-4.73-4.55-.02-8.73,1.65-12.78,3.63-.99-3.67-1.34-6.99,1.66-9.89,2.2-2.14,5.96-1.15,8.67-.74.84.13,6.47,1.2,7,.67,4.41-4.42,11.36-9.27,17.81-9.61,7.32-.39,13.91,1.21,20.15,4.89l.34.2c6.05,3.64,11.01,9.45,14.23,13.5,3.38,4.26,5.67,8.97,7.72,13.42l.51,1.11c1.49,3.25,2.97,6.76,5.43,9.41,1.95,2.11,5,3.58,7.84,2.79-3.93,5.3-10.78,8.77-16.58,11.38l-.44.2c-.31.14-.62.27-.93.4l-.47.2c-.3.12-.61.25-.92.37l-.48.19c-.3.12-.61.23-.91.34l-.49.18c-.3.11-.61.21-.91.31l-.51.17c-.3.1-.6.19-.9.28l-.52.16c-.3.09-.6.17-.9.25l-.53.15c-.29.08-.59.15-.89.23l-.54.13c-.29.07-.58.13-.88.2l-.55.12c-.26.05-.52.1-.78.15l-.65.13c-.27.05-.54.09-.81.14l-.62.1c-.25.04-.51.07-.76.11l-.67.09c-.25.03-.51.06-.77.09l-.65.07c-.24.02-.48.04-.72.06l-.7.06c-.22.01-.45.03-.67.04l-.75.04c-.22,0-.45.01-.67.02,0,0-.58.01-.73.02-.23,0-.45,0-.67,0h-.73c-.22,0-.43-.02-.65-.02l-.75-.02c-.21-.01-.42-.02-.63-.04,0,0-.62-.04-.75-.05-.21-.02-.42-.04-.63-.06l-.74-.07c-.22-.02-.43-.05-.65-.08,0,0-.58-.07-.7-.09-.27-.04-.53-.08-.79-.12l-.55-.09c-.45-.08-.89-.16-1.33-.26-4.39-.93-8.61-2.58-12.56-4.9Z"/>
            <g>
              <path class="cls-6" d="M391.29,99.11c-.03,3.12.2,6.22.79,9.17.58,1.68,1.16,3.36,2.12,4.86,1.86,2.89,4.1,5.54,6.54,7.84,5.47,5.17,12.34,8.88,19.77,10.45,13.73,2.9,30.69-1.41,43.22-11.86-5.44-2-8.42-9.28-10.81-14.46-2.21-4.78-4.46-9.29-7.64-13.31-3.95-4.99-8.62-10.08-13.98-13.31-5.99-3.61-12.41-5.29-19.72-4.9-6.33.33-13.82,5.7-18.39,10.92-.82.94-1.99,2.23-1.95,3.41.06,1.68.58,3.04.43,4.8-.18,2.14-.36,4.26-.38,6.37Z"/>
              <path class="cls-4" d="M391.29,99.11c-.03,3.12.2,6.22.79,9.17.58,1.68,1.16,3.36,2.12,4.86,1.86,2.89,4.1,5.54,6.54,7.84,5.47,5.17,12.34,8.88,19.77,10.45,13.49,2.85,30.12-1.26,42.58-11.33-3.85.64-7.46.16-11.19-.39-1.69-.25-3.26-.57-4.74-1.34.02.85.31,2.17.08,3.02-.39,1.42-1.3,1.84-2.45,1.68-3.02-.41-7.64-4.87-8.44-5.87-1.48-1.87-2.21-5.13-4.06-6.5.27,1.52,2.25,3.41,1.65,5.19-.97,2.92-5.08-.56-5.88-1.54-2.44-2.96-3.89-7.03-5.67-10.52-1.15-2.27-3.08-3.77-4.8-5.37.64,2.51,2.62,5.69,2.39,8.54-.31,3.82-4.27.81-5.24-.39-2.57-3.17-3.99-7.07-5.99-10.7-.83-1.5-1.91-3.01-3.16-4.08-.82-.7-1.82-.96-2.67-1.58.94,2.42,1.75,4.96,2.26,7.62.29,1.55,1.31,5.72-1.54,4.69-3.12-1.12-4.24-6.46-5.58-9.26-.94-1.95-1.86-3.57-3.13-5.25-.73-.96-3.81-3.26-3.7-.15.06,1.68.58,3.04.43,4.8-.18,2.14-.36,4.26-.38,6.37Z"/>
              <path class="cls-10" d="M431.33,105.9c.18,0,.36.03.54.03,1.55,0,3.13-.25,4.7-.54,3.15-.59,6.7-1.52,9.47-.09-2.42-1.57-5.41-1.59-8.39-1.15-1.6.24-3.2.5-4.78.54-.76.02-1.53,0-2.26-.1-.36-.05-.74-.1-1.12-.15-.11-.08-.21-.17-.31-.25-3.19-2.47-6.19-5.2-9.29-7.78-.46-.38-.93-.75-1.4-1.12.36-.03.73-.06,1.09-.1,2.03-.22,4.06-.63,6.1-1.01,4.01-.76,8.26-1.37,11.91.01.07.02.13-.1.07-.13-3.19-1.74-6.92-1.69-10.68-1.22-2.01.25-4.03.62-6.05.84-.96.11-1.93.19-2.89.22-.45.01-.96.02-1.46-.04-3.31-2.36-6.87-4.37-10.58-6.01,1.86-.65,3.66-1.9,5.44-2.83,4.01-2.09,8.21-3.77,12.42-3.77.12,0,.14-.18.03-.2-3.88-.56-8.01.64-11.87,2.42-.97.45-1.94.93-2.89,1.44-1.04.55-2.07,1.17-3.15,1.54-.8.27-1.58.38-2.36.4-4.88-1.95-10.08-3.47-15.36-4.26-1.94-.29-3.97-.28-5.89-.58-1.41-.22-2.35-.39-3.67.89-1.91,1.86-2.91,5.59-1.23,7.39-.17-.18,3.43-1.99,3.73-2.1,6.76-2.31,13.7-1.35,20,.82.25.5.52.98.77,1.48.47.95.88,1.94,1.25,2.94.77,2.1,1.32,4.31,1.82,6.54,1.02,4.51,1.91,9.18,4.46,12.79,1.33,1.89,3.05,3.42,5.13,4.31.09.04.19-.13.1-.19-3.73-2.18-5.6-6.53-6.88-10.87-1.27-4.27-1.89-8.85-3.39-13-.4-1.1-.87-2.16-1.44-3.15-.05-.08-.1-.16-.15-.24.75.29,1.5.59,2.23.91,3.47,1.51,6.67,3.3,9.79,5.34.28.91,1.04,1.73,1.49,2.42.65,1.01,1.19,2.1,1.64,3.25.89,2.27,1.42,4.73,1.9,7.2.93,4.75,2.07,9.46,5.05,12.93,1.55,1.81,3.47,3.06,5.9,3.29.18.02.28-.33.1-.36-2.17-.42-4.1-1.69-5.47-3.4-1.41-1.75-2.21-4.01-2.8-6.31-1.21-4.66-1.55-9.72-3.28-14.13-.39-.99-.89-1.91-1.43-2.8.11.08.22.15.33.23,3.62,2.58,7.02,5.49,10.6,8.13.28.63.71,1.18,1.07,1.74.49.75.96,1.52,1.41,2.3.94,1.63,1.69,3.41,2.27,5.27.57,1.83,1.01,3.76,1.91,5.4.45.81,1.01,1.5,1.69,2.07.69.58,1.43.84,2.31,1.05.12.03.19-.16.09-.21-1.67-.82-2.69-2.83-3.39-4.61-.7-1.76-1.12-3.66-1.75-5.46-.59-1.69-1.35-3.29-2.27-4.76-.14-.23-.31-.45-.46-.68,2.43,1.84,4.77,3.8,7.29,5.51,2.71,1.85,5.56,3.55,8.7,4.6,2.46.82,5.86,1.88,8.65.82-4.7-.17-8.69-1.72-12.54-3.99-4.53-2.66-8.47-6.19-12.54-9.51Z"/>
              <path class="cls-8" d="M430.91,106.47c-.76-.65-1.52-1.29-2.3-1.91-7.46-5.94-15.16-11.86-24.06-15.43-6.48-2.6-13.24-4.43-20.69-3.49-2.48.31-4.46,1.33-6.69.25-.07-.03-.13-.09-.2-.13-.55,1.66-.52,3.45.5,4.54-.17-.18,3.43-1.99,3.73-2.1,6.76-2.31,13.7-1.35,20,.82.25.5.52.98.77,1.48.47.95.88,1.94,1.25,2.94.77,2.1,1.32,4.31,1.82,6.54,1.02,4.51,1.91,9.18,4.46,12.79,1.33,1.89,3.05,3.42,5.13,4.31.09.04.19-.13.1-.19-3.73-2.18-5.6-6.53-6.88-10.87-1.27-4.27-1.89-8.85-3.39-13-.4-1.1-.87-2.16-1.44-3.15-.05-.08-.1-.16-.15-.24.75.29,1.5.59,2.23.91,3.47,1.51,6.67,3.3,9.79,5.34.28.91,1.04,1.73,1.49,2.42.65,1.01,1.19,2.1,1.64,3.25.89,2.27,1.42,4.73,1.9,7.2.93,4.75,2.07,9.46,5.05,12.93,1.55,1.81,3.47,3.06,5.9,3.29.18.02.28-.33.1-.36-2.17-.42-4.1-1.69-5.47-3.4-1.41-1.75-2.21-4.01-2.8-6.31-1.21-4.66-1.55-9.72-3.28-14.13-.39-.99-.89-1.91-1.43-2.8.11.08.22.15.33.23,3.62,2.58,7.02,5.49,10.6,8.13.28.63.71,1.18,1.07,1.74.49.75.96,1.52,1.41,2.3.94,1.63,1.69,3.41,2.27,5.27.57,1.83,1.01,3.76,1.91,5.4.45.81,1.01,1.5,1.69,2.07.69.58,1.43.84,2.31,1.05.12.03.19-.16.09-.21-1.67-.82-2.69-2.83-3.39-4.61-.7-1.76-1.12-3.66-1.75-5.46-.59-1.69-1.35-3.29-2.27-4.76-.14-.23-.31-.45-.46-.68,2.43,1.84,4.77,3.8,7.29,5.51,2.71,1.85,5.56,3.55,8.7,4.6,2.46.82,5.86,1.88,8.65.82-1.6.61-4.1-.63-5.62-.82-1.72-.22-3.22-.6-4.79-1.33-3.36-1.55-6.35-3.79-9.31-5.99-1.99-1.49-3.87-3.16-5.78-4.79Z"/>
              <path class="cls-5" d="M442.3,111.67c1.87,1.86,4.79,2.94,7.13,4.04,3.13,1.47,7.27,3.11,10.95,2.91-2.71-1.14-4.36-5.62-5.73-8.21-2.38-4.5-5.05-8.77-7.4-13.31-2.5-4.83-5.79-8.55-9.44-12.28-4.82-4.91-11.63-8.3-18.51-9.3-3.65-.53-7.23-.71-11.05.47-1.92.59-3.58,1.21-4.93,2.95-.87,1.11-2.29,2.9-1.01,3.94.73.59,3.32-.39,4.11-.55,2.72-.53,5.45-1.31,8.17-1.95,3.43-.81,9.39-1.64,12.12.61-.39.41-1.08.43-1.62.51-1.91.3-3.9.85-5.78,1.59-2.13.83-5.1,2.76-3.74,5.24,1.9,3.48,7.49,2.61,10.96,2.38,2.77-.19,5.37.41,7.86,1.28,2.13.74,5.42,1.76,6.65,3.88-2.18.31-4.21-.31-6.44.77-1.91.92-3.74,3.02-2.34,4.93,1.48,2.02,5.96.65,8.23.99,2.07.31,3.96,1.07,5.73,2.08.89.51,2.3,1.06,2.63,2.14-1.46.33-2.84-.23-4.42.24-2.73.82-4.21,2.56-2.13,4.63Z"/>
            </g>
          </g>
          <g>
            <path class="cls-15" d="M407.51,5.81c-2.8,1.65-5.42,3.61-7.78,5.85-2.6,2.46-4.86,5.17-6.71,8.06-1.06,1.65-1.67,3.4-2.26,5.09l-.09.27c-.6,2.99-.88,6.15-.84,9.54.02,2.11.19,4.22.37,6.38.14,1.61-.57,3.17-.86,4.73-4.55.01-8.73-1.65-12.78-3.63-.99,3.67-1.34,6.99,1.66,9.89,2.2,2.14,5.96,1.15,8.67.74.84-.13,6.47-1.2,7-.67,4.41,4.42,11.36,9.27,17.81,9.61,7.32.39,13.91-1.21,20.15-4.89l.34-.2c6.05-3.64,11.01-9.45,14.23-13.5,3.38-4.26,5.67-8.96,7.72-13.42l.51-1.11c1.49-3.25,2.97-6.76,5.43-9.42,1.95-2.11,5-3.58,7.84-2.79-3.93-5.3-10.78-8.77-16.58-11.38l-.44-.2c-.31-.14-.62-.27-.93-.4l-.47-.2c-.3-.12-.61-.25-.92-.37l-.48-.19c-.3-.12-.61-.23-.91-.34l-.49-.18c-.3-.11-.61-.21-.91-.31l-.51-.17c-.3-.1-.6-.19-.9-.28l-.52-.16c-.3-.09-.6-.17-.9-.25l-.53-.15c-.29-.08-.59-.15-.89-.22l-.54-.13c-.29-.07-.58-.14-.88-.2l-.55-.12c-.26-.06-.52-.1-.78-.16l-.65-.12c-.27-.05-.54-.09-.81-.14l-.62-.1c-.25-.04-.51-.07-.76-.11l-.67-.09c-.25-.03-.51-.06-.77-.09l-.65-.07c-.24-.02-.48-.04-.72-.06l-.7-.06c-.22-.02-.45-.03-.67-.04l-.75-.04c-.22-.01-.45-.01-.67-.02,0,0-.58-.02-.73-.02-.23,0-.45,0-.67,0h-.73c-.22,0-.43.02-.65.02l-.75.02c-.21.01-.42.02-.63.04,0,0-.62.04-.75.05-.21.02-.42.04-.63.06l-.74.07c-.22.02-.43.05-.65.08,0,0-.58.07-.7.09-.27.04-.53.08-.79.12l-.55.09c-.45.08-.89.16-1.33.26-4.39.93-8.61,2.58-12.56,4.9Z"/>
            <g>
              <path class="cls-12" d="M391.29,34.71c-.03-3.12.2-6.22.79-9.17.58-1.68,1.16-3.36,2.12-4.86,1.86-2.89,4.1-5.54,6.54-7.84,5.47-5.17,12.34-8.88,19.77-10.45,13.73-2.9,30.69,1.41,43.22,11.86-5.44,2-8.42,9.28-10.81,14.46-2.21,4.78-4.46,9.29-7.64,13.31-3.95,4.99-8.62,10.08-13.98,13.31-5.99,3.61-12.41,5.29-19.72,4.9-6.33-.33-13.82-5.7-18.39-10.92-.82-.94-1.99-2.23-1.95-3.41.06-1.68.58-3.04.43-4.8-.18-2.13-.36-4.25-.38-6.37Z"/>
              <path class="cls-4" d="M391.29,34.71c-.03-3.12.2-6.22.79-9.17.58-1.68,1.16-3.36,2.12-4.86,1.86-2.89,4.1-5.54,6.54-7.84,5.47-5.17,12.34-8.88,19.77-10.45,13.49-2.85,30.12,1.26,42.58,11.33-3.85-.64-7.46-.16-11.19.39-1.69.25-3.26.57-4.74,1.34.02-.85.31-2.17.08-3.02-.39-1.42-1.3-1.84-2.45-1.68-3.02.41-7.64,4.87-8.44,5.87-1.48,1.87-2.21,5.13-4.06,6.5.27-1.52,2.25-3.4,1.65-5.19-.97-2.92-5.08.56-5.88,1.54-2.44,2.96-3.89,7.03-5.67,10.52-1.15,2.27-3.08,3.77-4.8,5.37.64-2.51,2.62-5.69,2.39-8.54-.31-3.82-4.27-.81-5.24.39-2.57,3.17-3.99,7.07-5.99,10.7-.83,1.5-1.91,3.01-3.16,4.08-.82.7-1.82.96-2.67,1.58.94-2.42,1.75-4.96,2.26-7.62.29-1.55,1.31-5.72-1.54-4.69-3.12,1.12-4.24,6.46-5.58,9.26-.94,1.95-1.86,3.57-3.13,5.24-.73.96-3.81,3.27-3.7.15.06-1.68.58-3.04.43-4.8-.18-2.13-.36-4.25-.38-6.37Z"/>
              <path class="cls-10" d="M431.33,27.92c.18-.01.36-.03.54-.03,1.55,0,3.13.25,4.7.54,3.15.59,6.7,1.52,9.47.09-2.42,1.58-5.41,1.59-8.39,1.15-1.6-.24-3.2-.5-4.78-.54-.76-.02-1.53,0-2.26.1-.36.05-.74.1-1.12.15-.11.08-.21.17-.31.25-3.19,2.47-6.19,5.21-9.29,7.78-.46.38-.93.75-1.4,1.12.36.03.73.06,1.09.1,2.03.22,4.06.63,6.1,1.01,4.01.76,8.26,1.37,11.91-.01-3.12,1.87-6.85,1.82-10.61,1.35-2.01-.25-4.03-.62-6.05-.84-.96-.11-1.93-.19-2.89-.22-.45-.01-.96-.01-1.46.04-3.31,2.36-6.87,4.37-10.58,6.01,1.86.65,3.66,1.9,5.44,2.83,4.01,2.09,8.21,3.77,12.42,3.77.12,0,.14.18.03.2-3.88.56-8.01-.64-11.87-2.42-.97-.45-1.94-.93-2.89-1.44-1.04-.55-2.07-1.17-3.15-1.54-.8-.27-1.58-.38-2.36-.4-4.88,1.95-10.08,3.47-15.36,4.26-1.94.29-3.97.28-5.89.58-1.41.22-2.35.39-3.67-.89-1.91-1.86-2.91-5.59-1.23-7.39-.17.18,3.43,1.99,3.73,2.1,6.76,2.3,13.7,1.35,20-.82.25-.5.52-.98.77-1.49.47-.95.88-1.94,1.25-2.95.77-2.09,1.32-4.31,1.82-6.54,1.02-4.51,1.91-9.17,4.46-12.79,1.33-1.89,3.05-3.42,5.13-4.31.09-.04.19.14.1.19-3.73,2.18-5.6,6.53-6.88,10.87-1.27,4.27-1.89,8.85-3.39,13-.4,1.1-.87,2.16-1.44,3.15-.05.08-.1.16-.15.24.75-.29,1.5-.59,2.23-.91,3.47-1.51,6.67-3.3,9.79-5.34.28-.91,1.04-1.73,1.49-2.42.65-1.01,1.19-2.1,1.64-3.25.89-2.27,1.42-4.73,1.9-7.2.93-4.75,2.07-9.46,5.05-12.93,1.55-1.81,3.47-3.06,5.9-3.29.18-.02.28.33.1.36-2.17.42-4.1,1.69-5.47,3.4-1.41,1.75-2.21,4.01-2.8,6.31-1.21,4.66-1.55,9.72-3.28,14.12-.39.99-.89,1.92-1.43,2.8.11-.08.22-.15.33-.23,3.62-2.59,7.02-5.49,10.6-8.13.28-.63.71-1.18,1.07-1.73.49-.75.96-1.52,1.41-2.3.94-1.63,1.69-3.41,2.27-5.27.57-1.83,1.01-3.76,1.91-5.4.45-.81,1.01-1.5,1.69-2.07.69-.59,1.43-.84,2.31-1.06.12-.03.19.16.09.21-1.67.82-2.69,2.83-3.39,4.61-.7,1.76-1.12,3.66-1.75,5.46-.59,1.69-1.35,3.29-2.27,4.76-.14.23-.31.45-.46.68,2.43-1.84,4.77-3.8,7.29-5.51,2.71-1.85,5.56-3.55,8.7-4.6,2.46-.82,5.86-1.88,8.65-.82-4.7.17-8.69,1.72-12.54,3.99-4.53,2.65-8.47,6.19-12.54,9.51Z"/>
              <path class="cls-8" d="M430.91,27.35c-.76.65-1.52,1.29-2.3,1.91-7.46,5.95-15.16,11.86-24.06,15.43-6.48,2.6-13.24,4.43-20.69,3.49-2.48-.32-4.46-1.33-6.69-.25-.07.03-.13.09-.2.13-.55-1.66-.52-3.45.5-4.54-.17.18,3.43,1.99,3.73,2.1,6.76,2.3,13.7,1.35,20-.82.25-.5.52-.98.77-1.49.47-.95.88-1.94,1.25-2.95.77-2.09,1.32-4.31,1.82-6.54,1.02-4.51,1.91-9.17,4.46-12.79,1.33-1.89,3.05-3.42,5.13-4.31.09-.04.19.14.1.19-3.73,2.18-5.6,6.53-6.88,10.87-1.27,4.27-1.89,8.85-3.39,13-.4,1.1-.87,2.16-1.44,3.15-.05.08-.1.16-.15.24.75-.29,1.5-.59,2.23-.91,3.47-1.51,6.67-3.3,9.79-5.34.28-.91,1.04-1.73,1.49-2.42.65-1.01,1.19-2.1,1.64-3.25.89-2.27,1.42-4.73,1.9-7.2.93-4.75,2.07-9.46,5.05-12.93,1.55-1.81,3.47-3.06,5.9-3.29.18-.02.28.33.1.36-2.17.42-4.1,1.69-5.47,3.4-1.41,1.75-2.21,4.01-2.8,6.31-1.21,4.66-1.55,9.72-3.28,14.12-.39.99-.89,1.92-1.43,2.8.11-.08.22-.15.33-.23,3.62-2.59,7.02-5.49,10.6-8.13.28-.63.71-1.18,1.07-1.73.49-.75.96-1.52,1.41-2.3.94-1.63,1.69-3.41,2.27-5.27.57-1.83,1.01-3.76,1.91-5.4.45-.81,1.01-1.5,1.69-2.07.69-.59,1.43-.84,2.31-1.06.12-.03.19.16.09.21-1.67.82-2.69,2.83-3.39,4.61-.7,1.76-1.12,3.66-1.75,5.46-.59,1.69-1.35,3.29-2.27,4.76-.14.23-.31.45-.46.68,2.43-1.84,4.77-3.8,7.29-5.51,2.71-1.85,5.56-3.55,8.7-4.6,2.46-.82,5.86-1.88,8.65-.82-1.6-.61-4.1.63-5.62.82-1.72.21-3.22.6-4.79,1.33-3.36,1.55-6.35,3.79-9.31,5.99-1.99,1.49-3.87,3.16-5.78,4.79Z"/>
              <path class="cls-5" d="M442.3,22.14c1.87-1.86,4.79-2.94,7.13-4.04,3.13-1.47,7.27-3.11,10.95-2.91-2.71,1.14-4.36,5.63-5.73,8.21-2.38,4.5-5.05,8.77-7.4,13.31-2.5,4.83-5.79,8.55-9.44,12.28-4.82,4.91-11.63,8.3-18.51,9.3-3.65.53-7.23.71-11.05-.47-1.92-.59-3.58-1.21-4.93-2.95-.87-1.11-2.29-2.9-1.01-3.93.73-.59,3.32.39,4.11.55,2.72.53,5.45,1.31,8.17,1.95,3.43.8,9.39,1.64,12.12-.62-.39-.4-1.08-.43-1.62-.51-1.91-.3-3.9-.85-5.78-1.59-2.13-.83-5.1-2.76-3.74-5.24,1.9-3.48,7.49-2.61,10.96-2.38,2.77.19,5.37-.41,7.86-1.28,2.13-.74,5.42-1.76,6.65-3.88-2.18-.31-4.21.31-6.44-.77-1.91-.92-3.74-3.02-2.34-4.93,1.48-2.02,5.96-.65,8.23-.99,2.07-.31,3.96-1.07,5.73-2.08.89-.51,2.3-1.06,2.63-2.14-1.46-.33-2.84.23-4.42-.24-2.73-.82-4.21-2.55-2.13-4.63Z"/>
            </g>
          </g>
          <g>
            <path class="cls-15" d="M437.45,104.49c-3.95-.47-7.85-1.4-11.59-2.74-4.12-1.48-7.98-3.41-11.48-5.74-2-1.33-3.54-2.99-5.03-4.6l-.23-.25c-2.14-3.06-3.99-6.47-5.62-10.29-1.01-2.38-1.86-4.83-2.71-7.34-.63-1.87-2.2-3.28-3.29-4.88-5.1,2.21-8.97,6.13-12.54,10.33-2.91-3.63-4.92-7.17-2.99-11.9,1.42-3.48,6.11-4.21,9.36-5.08,1.01-.27,7.84-1.82,8.18-2.68,2.77-7.12,8.19-15.97,15.24-19.51,8.01-4.02,16.18-5.46,24.98-4.4l.48.06c8.56,1.11,16.98,5.19,22.56,8.16,5.87,3.12,10.74,7.27,15.23,11.25l1.11.99c3.26,2.91,6.64,6.12,10.7,7.89,3.22,1.4,7.36,1.55,10.16-.72-1.8,7.87-7.79,15.11-13,20.88l-.4.44c-.28.31-.56.61-.85.9l-.43.45c-.28.29-.56.57-.85.86l-.45.44c-.28.28-.57.55-.86.83l-.47.44c-.29.27-.58.53-.86.79l-.49.44c-.29.25-.58.51-.87.75l-.5.43c-.29.25-.58.48-.88.72l-.52.42c-.29.23-.59.46-.88.69l-.54.41c-.29.22-.59.44-.88.65l-.56.41c-.26.19-.53.37-.8.56l-.67.46c-.28.19-.56.37-.84.55l-.64.42c-.27.17-.53.33-.8.49l-.7.43c-.27.16-.54.32-.82.47l-.7.4c-.26.15-.52.28-.78.43l-.75.41c-.24.13-.49.25-.73.37l-.82.41c-.25.12-.5.24-.75.35,0,0-.64.3-.81.38-.25.11-.5.22-.75.33l-.82.35c-.25.1-.49.2-.73.29l-.85.34c-.24.09-.48.18-.73.27,0,0-.71.26-.86.31-.24.08-.49.16-.73.24l-.87.29c-.26.08-.52.15-.77.23,0,0-.69.2-.83.24-.32.09-.63.17-.95.25l-.66.17c-.54.13-1.08.25-1.61.36-5.37,1.11-10.91,1.33-16.48.66Z"/>
            <g>
              <path class="cls-1" d="M405.11,80.05c1.5,3.51,3.27,6.87,5.38,9.89,1.48,1.59,2.95,3.2,4.77,4.41,3.5,2.33,7.31,4.2,11.17,5.58,8.66,3.11,18.19,3.91,27.28,2.02,16.81-3.48,33.72-16.62,42.64-34.48-7.07.43-13.98-6.27-19.2-10.91-4.82-4.28-9.54-8.22-15.08-11.17-6.87-3.65-14.61-7.08-22.2-8.06-8.49-1.1-16.5.16-24.52,4.18-6.93,3.48-12.7,13.16-15.26,21.26-.46,1.45-1.13,3.47-.51,4.77.89,1.86,2.14,3.12,2.84,5.17.84,2.48,1.69,4.94,2.7,7.32Z"/>
              <path class="cls-4" d="M405.11,80.05c1.5,3.51,3.27,6.87,5.38,9.89,1.48,1.59,2.95,3.2,4.77,4.41,3.5,2.33,7.31,4.2,11.17,5.58,8.66,3.11,18.19,3.91,27.28,2.02,16.53-3.42,33.14-16.18,42.18-33.57-4,2.6-8.29,3.83-12.73,5.05-2.02.55-3.93.96-5.97.82.44.94,1.41,2.28,1.57,3.34.26,1.78-.56,2.7-1.92,3.09-3.59,1.02-10.96-1.71-12.34-2.44-2.58-1.37-4.99-4.66-7.74-5.29,1.04,1.57,4.19,2.71,4.4,5.01.34,3.75-5.97,1.86-7.36,1.16-4.19-2.12-7.81-5.97-11.51-9.02-2.41-1.98-5.3-2.71-8.01-3.66,1.95,2.5,5.73,5.09,6.87,8.4,1.53,4.44-4.39,3.01-6.06,2.14-4.43-2.3-7.94-5.97-11.96-9.05-1.66-1.27-3.61-2.44-5.54-3.02-1.26-.38-2.51-.18-3.77-.46,2.24,2.26,4.4,4.71,6.27,7.43,1.09,1.59,4.28,5.76.57,6.02-4.05.27-7.91-5.16-10.79-7.64-2.01-1.73-3.83-3.09-6.09-4.34-1.28-.71-5.87-1.79-4.22,1.65.89,1.86,2.14,3.12,2.84,5.17.84,2.48,1.69,4.94,2.7,7.32Z"/>
              <path class="cls-10" d="M453.31,68.03c.2-.08.41-.15.61-.23,1.75-.75,3.39-1.82,5-2.91,3.24-2.2,6.77-4.98,10.57-4.75.08,0,.09-.16.01-.17-3.5-.42-6.86,1.04-9.98,2.99-1.67,1.05-3.34,2.12-5.09,2.95-.84.4-1.71.75-2.59.99-.43.12-.88.25-1.33.37-.16-.04-.32-.08-.47-.12-4.77-1.2-9.48-2.8-14.23-4.17-.7-.2-1.41-.39-2.12-.57.4-.21.79-.42,1.17-.64,2.16-1.25,4.24-2.7,6.33-4.12,4.12-2.81,8.59-5.59,13.36-5.82.08,0,.1-.17.02-.18-4.43-.39-8.59,1.49-12.57,3.87-2.14,1.27-4.22,2.67-6.37,3.91-1.03.59-2.07,1.16-3.13,1.66-.49.23-1.07.49-1.66.67-4.86-1.02-9.84-1.53-14.81-1.54,1.77-1.64,3.17-3.93,4.71-5.84,3.47-4.31,7.36-8.26,12.07-10.32.13-.06.07-.27-.06-.24-4.63,1.27-8.67,4.64-12.11,8.53-.87.98-1.71,1.99-2.53,3.03-.9,1.12-1.75,2.33-2.78,3.27-.76.7-1.58,1.2-2.45,1.61-6.43.21-13,1.05-19.31,2.76-2.32.63-4.59,1.63-6.88,2.24-1.69.45-2.83.72-3.67,2.8-1.24,3.02-.53,7.69,2.25,8.89-.27-.12,2.87-3.92,3.15-4.18,6.45-5.9,14.69-8.23,22.82-8.88.52.44,1.06.85,1.59,1.29.99.83,1.93,1.74,2.84,2.69,1.89,1.97,3.59,4.19,5.25,6.43,3.36,4.55,6.64,9.35,11.27,12.15,2.42,1.47,5.09,2.33,7.87,2.32.12,0,.14-.25.02-.26-5.25-.62-9.47-4.58-13.04-8.81-3.51-4.17-6.45-8.99-10.18-12.91-.99-1.04-2.04-1.99-3.15-2.82-.09-.07-.19-.13-.28-.2.99-.04,1.97-.07,2.95-.07,4.62,0,9.09.43,13.59,1.18.77.88,2.02,1.43,2.86,1.99,1.23.81,2.36,1.77,3.43,2.84,2.11,2.12,3.91,4.61,5.66,7.14,3.38,4.87,6.97,9.59,12.01,12.02,2.63,1.27,5.38,1.73,8.22.79.21-.07.16-.5-.06-.45-2.63.59-5.42.12-7.81-1.13-2.43-1.27-4.44-3.41-6.23-5.7-3.63-4.63-6.49-10.13-10.61-14.22-.92-.92-1.93-1.71-2.97-2.43.16.03.32.06.49.09,5.32,1.12,10.56,2.71,15.87,3.92.62.57,1.37.98,2.05,1.42.92.6,1.82,1.24,2.71,1.89,1.85,1.37,3.56,2.99,5.12,4.79,1.54,1.77,2.97,3.72,4.79,5.12.89.69,1.87,1.19,2.91,1.5,1.06.32,2.01.24,3.11.05.15-.02.14-.27,0-.27-2.27-.1-4.4-1.85-6.06-3.5-1.64-1.63-3.06-3.55-4.65-5.26-1.49-1.6-3.13-3.02-4.87-4.22-.28-.19-.56-.36-.85-.53,3.62.87,7.21,1.91,10.87,2.6,3.95.74,7.97,1.26,12.01.89,3.16-.29,7.49-.77,10.09-3.31-5.36,2.12-10.58,2.33-16.01,1.68-6.37-.76-12.53-2.78-18.71-4.51Z"/>
              <path class="cls-8" d="M453.12,68.87c-1.17-.35-2.34-.7-3.51-1.01-11.28-3.01-22.81-5.86-34.53-5.5-8.54.26-17.01,1.52-24.9,6.23-2.63,1.57-4.35,3.68-7.38,3.56-.1,0-.19-.03-.28-.05.19,2.13,1.1,4.12,2.78,4.85-.27-.12,2.87-3.92,3.15-4.18,6.45-5.9,14.69-8.23,22.82-8.88.52.44,1.06.85,1.59,1.29.99.83,1.93,1.74,2.84,2.69,1.89,1.97,3.59,4.19,5.25,6.43,3.36,4.55,6.64,9.35,11.27,12.15,2.42,1.47,5.09,2.33,7.87,2.32.12,0,.14-.25.02-.26-5.25-.62-9.47-4.58-13.04-8.81-3.51-4.17-6.45-8.99-10.18-12.91-.99-1.04-2.04-1.99-3.15-2.82-.09-.07-.19-.13-.28-.2.99-.04,1.97-.07,2.95-.07,4.62,0,9.09.43,13.59,1.18.77.88,2.02,1.43,2.86,1.99,1.23.81,2.36,1.77,3.43,2.84,2.11,2.12,3.91,4.61,5.66,7.14,3.38,4.87,6.97,9.59,12.01,12.02,2.63,1.27,5.38,1.73,8.22.79.21-.07.16-.5-.06-.45-2.63.59-5.42.12-7.81-1.13-2.43-1.27-4.44-3.41-6.23-5.7-3.63-4.63-6.49-10.13-10.61-14.22-.92-.92-1.93-1.71-2.97-2.43.16.03.32.06.49.09,5.32,1.12,10.56,2.71,15.87,3.92.62.57,1.37.98,2.05,1.42.92.6,1.82,1.24,2.71,1.89,1.85,1.37,3.56,2.99,5.12,4.79,1.54,1.77,2.97,3.72,4.79,5.12.89.69,1.87,1.19,2.91,1.5,1.06.32,2.01.24,3.11.05.15-.02.14-.27,0-.27-2.27-.1-4.4-1.85-6.06-3.5-1.64-1.63-3.06-3.55-4.65-5.26-1.49-1.6-3.13-3.02-4.87-4.22-.28-.19-.56-.36-.85-.53,3.62.87,7.21,1.91,10.87,2.6,3.95.74,7.97,1.26,12.01.89,3.16-.29,7.49-.77,10.09-3.31-1.49,1.46-4.9,1.3-6.7,1.83-2.03.6-3.9.9-6.01.86-4.53-.09-8.97-1.13-13.37-2.15-2.97-.68-5.9-1.64-8.83-2.53Z"/>
              <path class="cls-5" d="M468.44,69.12c3.01,1.17,6.81.95,9.97,1.03,4.23.11,9.67-.08,13.7-2.11-3.6.05-7.64-4.16-10.45-6.39-4.88-3.88-9.96-7.36-14.82-11.29-5.17-4.19-10.67-6.75-16.59-9.13-7.81-3.14-17.11-3.6-25.31-1.35-4.35,1.2-8.45,2.75-12.16,5.95-1.86,1.6-3.42,3.11-4.08,5.73-.43,1.67-1.14,4.37.8,4.91,1.1.3,3.53-2.07,4.33-2.63,2.79-1.93,5.47-4.14,8.2-6.19,3.46-2.59,9.73-6.44,13.89-5.25-.24.65-1.01,1.01-1.56,1.36-1.99,1.27-3.95,2.87-5.7,4.61-1.98,1.98-4.36,5.59-1.62,7.71,3.84,2.97,9.68-.74,13.45-2.71,3.01-1.56,6.22-2.17,9.44-2.42,2.75-.21,6.94-.69,9.35,1.09-2.29,1.41-4.87,1.72-6.84,4.02-1.69,1.97-2.71,5.22-.2,6.68,2.65,1.54,7-2.19,9.71-2.93,2.47-.67,4.97-.74,7.44-.47,1.24.14,3.1.06,4,1.12-1.47,1.08-3.3,1.13-4.83,2.43-2.66,2.26-3.47,4.93-.11,6.23Z"/>
            </g>
          </g>
          <g>
            <path class="cls-15" d="M92.49,128.01c2.8-1.65,5.42-3.61,7.78-5.85,2.6-2.46,4.86-5.17,6.71-8.06,1.06-1.65,1.67-3.4,2.26-5.09l.09-.26c.6-2.99.87-6.15.84-9.55-.02-2.11-.19-4.22-.37-6.38-.14-1.61.57-3.17.86-4.73,4.55-.02,8.73,1.65,12.78,3.63.99-3.67,1.34-6.99-1.66-9.89-2.2-2.14-5.95-1.15-8.67-.74-.85.13-6.47,1.2-7,.67-4.41-4.42-11.36-9.27-17.81-9.61-7.32-.39-13.91,1.21-20.15,4.89l-.34.2c-6.05,3.64-11.01,9.45-14.23,13.5-3.38,4.26-5.67,8.97-7.72,13.42l-.51,1.11c-1.49,3.25-2.97,6.76-5.43,9.41-1.96,2.11-5,3.58-7.85,2.79,3.93,5.3,10.79,8.77,16.58,11.38l.44.2c.32.14.62.27.93.4l.47.2c.3.12.61.25.91.37l.48.19c.3.12.61.23.91.34l.49.18c.3.11.61.21.91.31l.51.17c.3.1.6.19.9.28l.52.16c.3.09.6.17.9.25l.53.15c.29.08.59.15.89.23l.54.13c.29.07.58.13.88.2l.56.12c.26.05.52.1.78.15l.65.13c.27.05.54.09.81.14l.62.1c.25.04.51.07.76.11l.67.09c.26.03.51.06.77.09l.65.07c.25.02.48.04.72.06l.7.06c.22.01.45.03.67.04l.75.04c.22,0,.45.01.67.02,0,0,.58.01.73.02.23,0,.45,0,.67,0h.73c.22,0,.43-.02.65-.02l.75-.02c.21-.01.42-.02.63-.04,0,0,.62-.04.75-.05.21-.02.42-.04.63-.06l.74-.07c.22-.02.43-.05.65-.08,0,0,.58-.07.7-.09.26-.04.52-.08.79-.12l.55-.09c.45-.08.89-.16,1.33-.26,4.39-.93,8.61-2.58,12.56-4.9Z"/>
            <g>
              <path class="cls-14" d="M108.71,99.11c.03,3.12-.2,6.22-.79,9.17-.59,1.68-1.16,3.36-2.12,4.86-1.86,2.89-4.1,5.54-6.54,7.84-5.47,5.17-12.34,8.88-19.77,10.45-13.73,2.9-30.7-1.41-43.22-11.86,5.43-2,8.42-9.28,10.81-14.46,2.21-4.78,4.46-9.29,7.64-13.31,3.95-4.99,8.62-10.08,13.98-13.31,5.99-3.61,12.41-5.29,19.72-4.9,6.33.33,13.82,5.7,18.39,10.92.82.94,1.99,2.23,1.95,3.41-.06,1.68-.58,3.04-.43,4.8.19,2.14.36,4.26.38,6.37Z"/>
              <path class="cls-4" d="M108.71,99.11c.03,3.12-.2,6.22-.79,9.17-.59,1.68-1.16,3.36-2.12,4.86-1.86,2.89-4.1,5.54-6.54,7.84-5.47,5.17-12.34,8.88-19.77,10.45-13.5,2.85-30.12-1.26-42.58-11.33,3.85.64,7.46.16,11.19-.39,1.69-.25,3.26-.57,4.74-1.34-.02.85-.31,2.17-.08,3.02.39,1.42,1.3,1.84,2.45,1.68,3.02-.41,7.65-4.87,8.44-5.87,1.48-1.87,2.21-5.13,4.06-6.5-.27,1.52-2.25,3.41-1.65,5.19.97,2.92,5.08-.56,5.89-1.54,2.44-2.96,3.89-7.03,5.66-10.52,1.15-2.27,3.08-3.77,4.8-5.37-.64,2.51-2.62,5.69-2.39,8.54.31,3.82,4.27.81,5.24-.39,2.57-3.17,3.99-7.07,5.99-10.7.83-1.5,1.91-3.01,3.16-4.08.82-.7,1.82-.96,2.67-1.58-.94,2.42-1.75,4.96-2.26,7.62-.29,1.55-1.31,5.72,1.54,4.69,3.12-1.12,4.24-6.46,5.58-9.26.94-1.95,1.86-3.57,3.13-5.25.73-.96,3.81-3.26,3.7-.15-.06,1.68-.58,3.04-.43,4.8.19,2.14.36,4.26.38,6.37Z"/>
              <path class="cls-10" d="M68.67,105.9c-.18,0-.36.03-.54.03-1.55,0-3.13-.25-4.7-.54-3.15-.59-6.7-1.52-9.46-.09,2.42-1.57,5.41-1.59,8.38-1.15,1.6.24,3.2.5,4.78.54.76.02,1.53,0,2.26-.1.36-.05.74-.1,1.12-.15.11-.08.21-.17.31-.25,3.19-2.47,6.19-5.2,9.29-7.78.46-.38.93-.75,1.4-1.12-.36-.03-.73-.06-1.09-.1-2.03-.22-4.06-.63-6.09-1.01-4.01-.76-8.27-1.37-11.91.01-.07.02-.13-.1-.07-.13,3.19-1.74,6.92-1.69,10.68-1.22,2.01.25,4.03.62,6.05.84.97.11,1.93.19,2.89.22.45.01.96.02,1.46-.04,3.31-2.36,6.87-4.37,10.58-6.01-1.86-.65-3.66-1.9-5.44-2.83-4.01-2.09-8.21-3.77-12.42-3.77-.12,0-.14-.18-.03-.2,3.88-.56,8.01.64,11.87,2.42.97.45,1.94.93,2.89,1.44,1.04.55,2.07,1.17,3.15,1.54.8.27,1.58.38,2.36.4,4.88-1.95,10.08-3.47,15.36-4.26,1.94-.29,3.97-.28,5.89-.58,1.41-.22,2.35-.39,3.67.89,1.91,1.86,2.91,5.59,1.23,7.39.16-.18-3.43-1.99-3.73-2.1-6.77-2.31-13.7-1.35-20,.82-.25.5-.52.98-.77,1.48-.47.95-.88,1.94-1.25,2.94-.77,2.1-1.32,4.31-1.82,6.54-1.02,4.51-1.91,9.18-4.46,12.79-1.33,1.89-3.05,3.42-5.13,4.31-.09.04-.19-.13-.1-.19,3.73-2.18,5.6-6.53,6.89-10.87,1.26-4.27,1.88-8.85,3.39-13,.4-1.1.87-2.16,1.44-3.15.05-.08.1-.16.15-.24-.75.29-1.5.59-2.23.91-3.47,1.51-6.67,3.3-9.79,5.34-.28.91-1.04,1.73-1.49,2.42-.65,1.01-1.19,2.1-1.64,3.25-.89,2.27-1.42,4.73-1.9,7.2-.93,4.75-2.07,9.46-5.05,12.93-1.55,1.81-3.47,3.06-5.9,3.29-.18.02-.28-.33-.1-.36,2.17-.42,4.1-1.69,5.47-3.4,1.41-1.75,2.21-4.01,2.8-6.31,1.21-4.66,1.55-9.72,3.29-14.13.39-.99.89-1.91,1.43-2.8-.11.08-.22.15-.33.23-3.62,2.58-7.02,5.49-10.6,8.13-.28.63-.71,1.18-1.07,1.74-.49.75-.96,1.52-1.41,2.3-.94,1.63-1.69,3.41-2.26,5.27-.57,1.83-1.01,3.76-1.91,5.4-.45.81-1.01,1.5-1.69,2.07-.69.58-1.43.84-2.31,1.05-.12.03-.19-.16-.09-.21,1.67-.82,2.69-2.83,3.39-4.61.7-1.76,1.12-3.66,1.75-5.46.59-1.69,1.36-3.29,2.27-4.76.14-.23.31-.45.47-.68-2.43,1.84-4.78,3.8-7.3,5.51-2.71,1.85-5.56,3.55-8.7,4.6-2.46.82-5.86,1.88-8.65.82,4.7-.17,8.69-1.72,12.54-3.99,4.53-2.66,8.47-6.19,12.54-9.51Z"/>
              <path class="cls-8" d="M69.09,106.47c.76-.65,1.52-1.29,2.3-1.91,7.46-5.94,15.16-11.86,24.06-15.43,6.48-2.6,13.24-4.43,20.69-3.49,2.48.31,4.46,1.33,6.69.25.07-.03.13-.09.2-.13.55,1.66.52,3.45-.49,4.54.16-.18-3.43-1.99-3.73-2.1-6.77-2.31-13.7-1.35-20,.82-.25.5-.52.98-.77,1.48-.47.95-.88,1.94-1.25,2.94-.77,2.1-1.32,4.31-1.82,6.54-1.02,4.51-1.91,9.18-4.46,12.79-1.33,1.89-3.05,3.42-5.13,4.31-.09.04-.19-.13-.1-.19,3.73-2.18,5.6-6.53,6.89-10.87,1.26-4.27,1.88-8.85,3.39-13,.4-1.1.87-2.16,1.44-3.15.05-.08.1-.16.15-.24-.75.29-1.5.59-2.23.91-3.47,1.51-6.67,3.3-9.79,5.34-.28.91-1.04,1.73-1.49,2.42-.65,1.01-1.19,2.1-1.64,3.25-.89,2.27-1.42,4.73-1.9,7.2-.93,4.75-2.07,9.46-5.05,12.93-1.55,1.81-3.47,3.06-5.9,3.29-.18.02-.28-.33-.1-.36,2.17-.42,4.1-1.69,5.47-3.4,1.41-1.75,2.21-4.01,2.8-6.31,1.21-4.66,1.55-9.72,3.29-14.13.39-.99.89-1.91,1.43-2.8-.11.08-.22.15-.33.23-3.62,2.58-7.02,5.49-10.6,8.13-.28.63-.71,1.18-1.07,1.74-.49.75-.96,1.52-1.41,2.3-.94,1.63-1.69,3.41-2.26,5.27-.57,1.83-1.01,3.76-1.91,5.4-.45.81-1.01,1.5-1.69,2.07-.69.58-1.43.84-2.31,1.05-.12.03-.19-.16-.09-.21,1.67-.82,2.69-2.83,3.39-4.61.7-1.76,1.12-3.66,1.75-5.46.59-1.69,1.36-3.29,2.27-4.76.14-.23.31-.45.47-.68-2.43,1.84-4.78,3.8-7.3,5.51-2.71,1.85-5.56,3.55-8.7,4.6-2.46.82-5.86,1.88-8.65.82,1.6.61,4.1-.63,5.62-.82,1.72-.22,3.22-.6,4.79-1.33,3.36-1.55,6.35-3.79,9.31-5.99,2-1.49,3.87-3.16,5.78-4.79Z"/>
              <path class="cls-5" d="M57.7,111.67c-1.87,1.86-4.79,2.94-7.13,4.04-3.13,1.47-7.27,3.11-10.95,2.91,2.71-1.14,4.36-5.62,5.73-8.21,2.39-4.5,5.05-8.77,7.4-13.31,2.5-4.83,5.79-8.55,9.44-12.28,4.82-4.91,11.64-8.3,18.51-9.3,3.65-.53,7.23-.71,11.05.47,1.92.59,3.58,1.21,4.94,2.95.86,1.11,2.28,2.9,1.01,3.94-.73.59-3.32-.39-4.11-.55-2.72-.53-5.45-1.31-8.17-1.95-3.44-.81-9.4-1.64-12.13.61.39.41,1.08.43,1.62.51,1.91.3,3.9.85,5.78,1.59,2.13.83,5.09,2.76,3.73,5.24-1.9,3.48-7.49,2.61-10.96,2.38-2.77-.19-5.37.41-7.86,1.28-2.13.74-5.42,1.76-6.64,3.88,2.17.31,4.21-.31,6.44.77,1.91.92,3.74,3.02,2.34,4.93-1.48,2.02-5.96.65-8.23.99-2.07.31-3.96,1.07-5.72,2.08-.89.51-2.31,1.06-2.63,2.14,1.45.33,2.84-.23,4.41.24,2.73.82,4.21,2.56,2.13,4.63Z"/>
            </g>
          </g>
          <g>
            <path class="cls-15" d="M92.49,5.81c2.8,1.65,5.42,3.61,7.78,5.85,2.6,2.46,4.86,5.17,6.71,8.06,1.06,1.65,1.67,3.4,2.26,5.09l.09.27c.6,2.99.87,6.15.84,9.54-.02,2.11-.19,4.22-.37,6.38-.14,1.61.57,3.17.86,4.73,4.55.01,8.73-1.65,12.78-3.63.99,3.67,1.34,6.99-1.66,9.89-2.2,2.14-5.95,1.15-8.67.74-.85-.13-6.47-1.2-7-.67-4.41,4.42-11.36,9.27-17.81,9.61-7.32.39-13.91-1.21-20.15-4.89l-.34-.2c-6.05-3.64-11.01-9.45-14.23-13.5-3.38-4.26-5.67-8.96-7.72-13.42l-.51-1.11c-1.49-3.25-2.97-6.76-5.43-9.42-1.96-2.11-5-3.58-7.85-2.79,3.93-5.3,10.79-8.77,16.58-11.38l.44-.2c.32-.14.62-.27.93-.4l.47-.2c.3-.12.61-.25.91-.37l.48-.19c.3-.12.61-.23.91-.34l.49-.18c.3-.11.61-.21.91-.31l.51-.17c.3-.1.6-.19.9-.28l.52-.16c.3-.09.6-.17.9-.25l.53-.15c.29-.08.59-.15.89-.22l.54-.13c.29-.07.58-.14.88-.2l.56-.12c.26-.06.52-.1.78-.16l.65-.12c.27-.05.54-.09.81-.14l.62-.1c.25-.04.51-.07.76-.11l.67-.09c.26-.03.51-.06.77-.09l.65-.07c.25-.02.48-.04.72-.06l.7-.06c.22-.02.45-.03.67-.04l.75-.04c.22-.01.45-.01.67-.02,0,0,.58-.02.73-.02.23,0,.45,0,.67,0h.73c.22,0,.43.02.65.02l.75.02c.21.01.42.02.63.04,0,0,.62.04.75.05.21.02.42.04.63.06l.74.07c.22.02.43.05.65.08,0,0,.58.07.7.09.26.04.52.08.79.12l.55.09c.45.08.89.16,1.33.26,4.39.93,8.61,2.58,12.56,4.9Z"/>
            <g>
              <path class="cls-7" d="M108.71,34.71c.03-3.12-.2-6.22-.79-9.17-.59-1.68-1.16-3.36-2.12-4.86-1.86-2.89-4.1-5.54-6.54-7.84-5.47-5.17-12.34-8.88-19.77-10.45-13.73-2.9-30.7,1.41-43.22,11.86,5.43,2,8.42,9.28,10.81,14.46,2.21,4.78,4.46,9.29,7.64,13.31,3.95,4.99,8.62,10.08,13.98,13.31,5.99,3.61,12.41,5.29,19.72,4.9,6.33-.33,13.82-5.7,18.39-10.92.82-.94,1.99-2.23,1.95-3.41-.06-1.68-.58-3.04-.43-4.8.19-2.13.36-4.25.38-6.37Z"/>
              <path class="cls-4" d="M108.71,34.71c.03-3.12-.2-6.22-.79-9.17-.59-1.68-1.16-3.36-2.12-4.86-1.86-2.89-4.1-5.54-6.54-7.84-5.47-5.17-12.34-8.88-19.77-10.45-13.5-2.85-30.12,1.26-42.58,11.33,3.85-.64,7.46-.16,11.19.39,1.69.25,3.26.57,4.74,1.34-.02-.85-.31-2.17-.08-3.02.39-1.42,1.3-1.84,2.45-1.68,3.02.41,7.65,4.87,8.44,5.87,1.48,1.87,2.21,5.13,4.06,6.5-.27-1.52-2.25-3.4-1.65-5.19.97-2.92,5.08.56,5.89,1.54,2.44,2.96,3.89,7.03,5.66,10.52,1.15,2.27,3.08,3.77,4.8,5.37-.64-2.51-2.62-5.69-2.39-8.54.31-3.82,4.27-.81,5.24.39,2.57,3.17,3.99,7.07,5.99,10.7.83,1.5,1.91,3.01,3.16,4.08.82.7,1.82.96,2.67,1.58-.94-2.42-1.75-4.96-2.26-7.62-.29-1.55-1.31-5.72,1.54-4.69,3.12,1.12,4.24,6.46,5.58,9.26.94,1.95,1.86,3.57,3.13,5.24.73.96,3.81,3.27,3.7.15-.06-1.68-.58-3.04-.43-4.8.19-2.13.36-4.25.38-6.37Z"/>
              <path class="cls-10" d="M68.67,27.92c-.18-.01-.36-.03-.54-.03-1.55,0-3.13.25-4.7.54-3.15.59-6.7,1.52-9.46.09,2.42,1.58,5.41,1.59,8.38,1.15,1.6-.24,3.2-.5,4.78-.54.76-.02,1.53,0,2.26.1.36.05.74.1,1.12.15.11.08.21.17.31.25,3.19,2.47,6.19,5.21,9.29,7.78.46.38.93.75,1.4,1.12-.36.03-.73.06-1.09.1-2.03.22-4.06.63-6.09,1.01-4.01.76-8.27,1.37-11.91-.01-.07-.02-.13.09-.07.13,3.19,1.75,6.92,1.69,10.68,1.22,2.01-.25,4.03-.62,6.05-.84.97-.11,1.93-.19,2.89-.22.45-.01.96-.01,1.46.04,3.31,2.36,6.87,4.37,10.58,6.01-1.86.65-3.66,1.9-5.44,2.83-4.01,2.09-8.21,3.77-12.42,3.77-.12,0-.14.18-.03.2,3.88.56,8.01-.64,11.87-2.42.97-.45,1.94-.93,2.89-1.44,1.04-.55,2.07-1.17,3.15-1.54.8-.27,1.58-.38,2.36-.4,4.88,1.95,10.08,3.47,15.36,4.26,1.94.29,3.97.28,5.89.58,1.41.22,2.35.39,3.67-.89,1.91-1.86,2.91-5.59,1.23-7.39.16.18-3.43,1.99-3.73,2.1-6.77,2.3-13.7,1.35-20-.82-.25-.5-.52-.98-.77-1.49-.47-.95-.88-1.94-1.25-2.95-.77-2.09-1.32-4.31-1.82-6.54-1.02-4.51-1.91-9.17-4.46-12.79-1.33-1.89-3.05-3.42-5.13-4.31-.09-.04-.19.14-.1.19,3.73,2.18,5.6,6.53,6.89,10.87,1.26,4.27,1.88,8.85,3.39,13,.4,1.1.87,2.16,1.44,3.15.05.08.1.16.15.24-.75-.29-1.5-.59-2.23-.91-3.47-1.51-6.67-3.3-9.79-5.34-.28-.91-1.04-1.73-1.49-2.42-.65-1.01-1.19-2.1-1.64-3.25-.89-2.27-1.42-4.73-1.9-7.2-.93-4.75-2.07-9.46-5.05-12.93-1.55-1.81-3.47-3.06-5.9-3.29-.18-.02-.28.33-.1.36,2.17.42,4.1,1.69,5.47,3.4,1.41,1.75,2.21,4.01,2.8,6.31,1.21,4.66,1.55,9.72,3.29,14.12.39.99.89,1.92,1.43,2.8-.11-.08-.22-.15-.33-.23-3.62-2.59-7.02-5.49-10.6-8.13-.28-.63-.71-1.18-1.07-1.73-.49-.75-.96-1.52-1.41-2.3-.94-1.63-1.69-3.41-2.26-5.27-.57-1.83-1.01-3.76-1.91-5.4-.45-.81-1.01-1.5-1.69-2.07-.69-.59-1.43-.84-2.31-1.06-.12-.03-.19.16-.09.21,1.67.82,2.69,2.83,3.39,4.61.7,1.76,1.12,3.66,1.75,5.46.59,1.69,1.36,3.29,2.27,4.76.14.23.31.45.47.68-2.43-1.84-4.78-3.8-7.3-5.51-2.71-1.85-5.56-3.55-8.7-4.6-2.46-.82-5.86-1.88-8.65-.82,4.7.17,8.69,1.72,12.54,3.99,4.53,2.65,8.47,6.19,12.54,9.51Z"/>
              <path class="cls-8" d="M69.09,27.35c.76.65,1.52,1.29,2.3,1.91,7.46,5.95,15.16,11.86,24.06,15.43,6.48,2.6,13.24,4.43,20.69,3.49,2.48-.32,4.46-1.33,6.69-.25.07.03.13.09.2.13.55-1.66.52-3.45-.49-4.54.16.18-3.43,1.99-3.73,2.1-6.77,2.3-13.7,1.35-20-.82-.25-.5-.52-.98-.77-1.49-.47-.95-.88-1.94-1.25-2.95-.77-2.09-1.32-4.31-1.82-6.54-1.02-4.51-1.91-9.17-4.46-12.79-1.33-1.89-3.05-3.42-5.13-4.31-.09-.04-.19.14-.1.19,3.73,2.18,5.6,6.53,6.89,10.87,1.26,4.27,1.88,8.85,3.39,13,.4,1.1.87,2.16,1.44,3.15.05.08.1.16.15.24-.75-.29-1.5-.59-2.23-.91-3.47-1.51-6.67-3.3-9.79-5.34-.28-.91-1.04-1.73-1.49-2.42-.65-1.01-1.19-2.1-1.64-3.25-.89-2.27-1.42-4.73-1.9-7.2-.93-4.75-2.07-9.46-5.05-12.93-1.55-1.81-3.47-3.06-5.9-3.29-.18-.02-.28.33-.1.36,2.17.42,4.1,1.69,5.47,3.4,1.41,1.75,2.21,4.01,2.8,6.31,1.21,4.66,1.55,9.72,3.29,14.12.39.99.89,1.92,1.43,2.8-.11-.08-.22-.15-.33-.23-3.62-2.59-7.02-5.49-10.6-8.13-.28-.63-.71-1.18-1.07-1.73-.49-.75-.96-1.52-1.41-2.3-.94-1.63-1.69-3.41-2.26-5.27-.57-1.83-1.01-3.76-1.91-5.4-.45-.81-1.01-1.5-1.69-2.07-.69-.59-1.43-.84-2.31-1.06-.12-.03-.19.16-.09.21,1.67.82,2.69,2.83,3.39,4.61.7,1.76,1.12,3.66,1.75,5.46.59,1.69,1.36,3.29,2.27,4.76.14.23.31.45.47.68-2.43-1.84-4.78-3.8-7.3-5.51-2.71-1.85-5.56-3.55-8.7-4.6-2.46-.82-5.86-1.88-8.65-.82,1.6-.61,4.1.63,5.62.82,1.72.21,3.22.6,4.79,1.33,3.36,1.55,6.35,3.79,9.31,5.99,2,1.49,3.87,3.16,5.78,4.79Z"/>
              <path class="cls-5" d="M57.7,22.14c-1.87-1.86-4.79-2.94-7.13-4.04-3.13-1.47-7.27-3.11-10.95-2.91,2.71,1.14,4.36,5.63,5.73,8.21,2.39,4.5,5.05,8.77,7.4,13.31,2.5,4.83,5.79,8.55,9.44,12.28,4.82,4.91,11.64,8.3,18.51,9.3,3.65.53,7.23.71,11.05-.47,1.92-.59,3.58-1.21,4.94-2.95.86-1.11,2.28-2.9,1.01-3.93-.73-.59-3.32.39-4.11.55-2.72.53-5.45,1.31-8.17,1.95-3.44.8-9.4,1.64-12.13-.62.39-.4,1.08-.43,1.62-.51,1.91-.3,3.9-.85,5.78-1.59,2.13-.83,5.09-2.76,3.73-5.24-1.9-3.48-7.49-2.61-10.96-2.38-2.77.19-5.37-.41-7.86-1.28-2.13-.74-5.42-1.76-6.64-3.88,2.17-.31,4.21.31,6.44-.77,1.91-.92,3.74-3.02,2.34-4.93-1.48-2.02-5.96-.65-8.23-.99-2.07-.31-3.96-1.07-5.72-2.08-.89-.51-2.31-1.06-2.63-2.14,1.45-.33,2.84.23,4.41-.24,2.73-.82,4.21-2.55,2.13-4.63Z"/>
            </g>
          </g>
          <g>
            <path class="cls-15" d="M62.55,104.49c3.95-.47,7.85-1.4,11.59-2.74,4.12-1.48,7.98-3.41,11.48-5.74,1.99-1.33,3.54-2.99,5.02-4.6l.23-.25c2.14-3.06,3.99-6.47,5.62-10.29,1.01-2.38,1.86-4.83,2.71-7.34.63-1.87,2.2-3.28,3.29-4.88,5.1,2.21,8.97,6.13,12.54,10.33,2.91-3.63,4.93-7.17,2.99-11.9-1.42-3.48-6.11-4.21-9.36-5.08-1.01-.27-7.84-1.82-8.17-2.68-2.78-7.12-8.19-15.97-15.25-19.51-8.01-4.02-16.18-5.46-24.98-4.4l-.48.06c-8.56,1.11-16.98,5.19-22.57,8.16-5.87,3.12-10.74,7.27-15.23,11.25l-1.11.99c-3.26,2.91-6.64,6.12-10.7,7.89-3.22,1.4-7.36,1.55-10.16-.72,1.8,7.87,7.79,15.11,13.01,20.88l.39.44c.28.31.56.61.85.9l.43.45c.28.29.56.57.84.86l.45.44c.28.28.57.55.86.83l.46.44c.29.27.58.53.87.79l.49.44c.29.25.58.51.87.75l.5.43c.29.25.58.48.88.72l.52.42c.29.23.59.46.88.69l.54.41c.29.22.59.44.88.65l.56.41c.27.19.53.37.8.56l.67.46c.28.19.56.37.84.55l.64.42c.27.17.53.33.8.49l.7.43c.27.16.54.32.82.47l.7.4c.26.15.52.28.78.43l.75.41c.25.13.49.25.73.37l.82.41c.25.12.5.24.75.35,0,0,.64.3.81.38.25.11.5.22.75.33l.82.35c.25.1.49.2.73.29l.85.34c.24.09.48.18.73.27,0,0,.71.26.86.31.25.08.49.16.73.24l.87.29c.26.08.52.15.77.23,0,0,.69.2.83.24.32.09.63.17.95.25l.66.17c.54.13,1.08.25,1.61.36,5.37,1.11,10.91,1.33,16.48.66Z"/>
            <g>
              <path class="cls-13" d="M94.89,80.05c-1.5,3.51-3.27,6.87-5.38,9.89-1.47,1.59-2.95,3.2-4.76,4.41-3.5,2.33-7.32,4.2-11.17,5.58-8.66,3.11-18.18,3.91-27.28,2.02-16.81-3.48-33.72-16.62-42.64-34.48,7.07.43,13.98-6.27,19.2-10.91,4.82-4.28,9.54-8.22,15.08-11.17,6.88-3.65,14.61-7.08,22.2-8.06,8.49-1.1,16.5.16,24.52,4.18,6.93,3.48,12.7,13.16,15.26,21.26.46,1.45,1.13,3.47.51,4.77-.89,1.86-2.14,3.12-2.84,5.17-.84,2.48-1.69,4.94-2.7,7.32Z"/>
              <path class="cls-4" d="M94.89,80.05c-1.5,3.51-3.27,6.87-5.38,9.89-1.47,1.59-2.95,3.2-4.76,4.41-3.5,2.33-7.32,4.2-11.17,5.58-8.66,3.11-18.18,3.91-27.28,2.02-16.53-3.42-33.14-16.18-42.17-33.57,4,2.6,8.28,3.83,12.73,5.05,2.02.55,3.93.96,5.97.82-.44.94-1.41,2.28-1.57,3.34-.26,1.78.56,2.7,1.92,3.09,3.59,1.02,10.96-1.71,12.34-2.44,2.58-1.37,4.99-4.66,7.74-5.29-1.04,1.57-4.19,2.71-4.4,5.01-.34,3.75,5.97,1.86,7.36,1.16,4.18-2.12,7.81-5.97,11.5-9.02,2.41-1.98,5.3-2.71,8.01-3.66-1.95,2.5-5.73,5.09-6.87,8.4-1.53,4.44,4.39,3.01,6.06,2.14,4.44-2.3,7.94-5.97,11.96-9.05,1.66-1.27,3.61-2.44,5.54-3.02,1.26-.38,2.51-.18,3.77-.46-2.24,2.26-4.4,4.71-6.27,7.43-1.09,1.59-4.28,5.76-.57,6.02,4.05.27,7.91-5.16,10.8-7.64,2-1.73,3.83-3.09,6.08-4.34,1.28-.71,5.87-1.79,4.22,1.65-.89,1.86-2.14,3.12-2.84,5.17-.84,2.48-1.69,4.94-2.7,7.32Z"/>
              <path class="cls-10" d="M46.69,68.03c-.2-.08-.41-.15-.61-.23-1.75-.75-3.39-1.82-5-2.91-3.24-2.2-6.77-4.98-10.56-4.75-.08,0-.09-.16-.02-.17,3.5-.42,6.86,1.04,9.98,2.99,1.67,1.05,3.34,2.12,5.09,2.95.84.4,1.71.75,2.59.99.43.12.88.25,1.33.37.16-.04.31-.08.47-.12,4.78-1.2,9.48-2.8,14.23-4.17.7-.2,1.41-.39,2.12-.57-.4-.21-.79-.42-1.17-.64-2.16-1.25-4.24-2.7-6.33-4.12-4.12-2.81-8.59-5.59-13.36-5.82-.08,0-.1-.17-.02-.18,4.43-.39,8.59,1.49,12.57,3.87,2.14,1.27,4.22,2.67,6.37,3.91,1.03.59,2.07,1.16,3.13,1.66.49.23,1.07.49,1.66.67,4.86-1.02,9.84-1.53,14.81-1.54-1.77-1.64-3.17-3.93-4.71-5.84-3.47-4.31-7.35-8.26-12.07-10.32-.13-.06-.07-.27.07-.24,4.63,1.27,8.67,4.64,12.11,8.53.87.98,1.71,1.99,2.53,3.03.9,1.12,1.75,2.33,2.78,3.27.76.7,1.58,1.2,2.45,1.61,6.43.21,13,1.05,19.31,2.76,2.32.63,4.59,1.63,6.88,2.24,1.69.45,2.83.72,3.67,2.8,1.24,3.02.53,7.69-2.25,8.89.27-.12-2.87-3.92-3.15-4.18-6.45-5.9-14.69-8.23-22.82-8.88-.52.44-1.06.85-1.58,1.29-.99.83-1.94,1.74-2.85,2.69-1.89,1.97-3.59,4.19-5.25,6.43-3.36,4.55-6.64,9.35-11.27,12.15-2.42,1.47-5.09,2.33-7.86,2.32-.13,0-.15-.25-.02-.26,5.25-.62,9.47-4.58,13.04-8.81,3.51-4.17,6.45-8.99,10.18-12.91.99-1.04,2.03-1.99,3.15-2.82.09-.07.19-.13.28-.2-.99-.04-1.97-.07-2.94-.07-4.63,0-9.1.43-13.59,1.18-.76.88-2.02,1.43-2.86,1.99-1.23.81-2.36,1.77-3.43,2.84-2.11,2.12-3.91,4.61-5.66,7.14-3.38,4.87-6.96,9.59-12.01,12.02-2.63,1.27-5.38,1.73-8.22.79-.21-.07-.16-.5.06-.45,2.63.59,5.42.12,7.81-1.13,2.44-1.27,4.44-3.41,6.23-5.7,3.64-4.63,6.5-10.13,10.61-14.22.92-.92,1.93-1.71,2.98-2.43-.16.03-.33.06-.49.09-5.33,1.12-10.56,2.71-15.87,3.92-.62.57-1.37.98-2.05,1.42-.92.6-1.82,1.24-2.71,1.89-1.85,1.37-3.56,2.99-5.12,4.79-1.54,1.77-2.98,3.72-4.79,5.12-.89.69-1.87,1.19-2.91,1.5-1.06.32-2.01.24-3.11.05-.15-.02-.14-.27,0-.27,2.27-.1,4.4-1.85,6.06-3.5,1.64-1.63,3.06-3.55,4.65-5.26,1.49-1.6,3.13-3.02,4.87-4.22.27-.19.56-.36.85-.53-3.62.87-7.21,1.91-10.87,2.6-3.95.74-7.97,1.26-12.01.89-3.16-.29-7.49-.77-10.09-3.31,5.36,2.12,10.58,2.33,16.01,1.68,6.37-.76,12.53-2.78,18.71-4.51Z"/>
              <path class="cls-8" d="M46.88,68.87c1.17-.35,2.34-.7,3.51-1.01,11.28-3.01,22.81-5.86,34.53-5.5,8.54.26,17.01,1.52,24.9,6.23,2.63,1.57,4.35,3.68,7.38,3.56.1,0,.19-.03.28-.05-.19,2.13-1.1,4.12-2.78,4.85.27-.12-2.87-3.92-3.15-4.18-6.45-5.9-14.69-8.23-22.82-8.88-.52.44-1.06.85-1.58,1.29-.99.83-1.94,1.74-2.85,2.69-1.89,1.97-3.59,4.19-5.25,6.43-3.36,4.55-6.64,9.35-11.27,12.15-2.42,1.47-5.09,2.33-7.86,2.32-.13,0-.15-.25-.02-.26,5.25-.62,9.47-4.58,13.04-8.81,3.51-4.17,6.45-8.99,10.18-12.91.99-1.04,2.03-1.99,3.15-2.82.09-.07.19-.13.28-.2-.99-.04-1.97-.07-2.94-.07-4.63,0-9.1.43-13.59,1.18-.76.88-2.02,1.43-2.86,1.99-1.23.81-2.36,1.77-3.43,2.84-2.11,2.12-3.91,4.61-5.66,7.14-3.38,4.87-6.96,9.59-12.01,12.02-2.63,1.27-5.38,1.73-8.22.79-.21-.07-.16-.5.06-.45,2.63.59,5.42.12,7.81-1.13,2.44-1.27,4.44-3.41,6.23-5.7,3.64-4.63,6.5-10.13,10.61-14.22.92-.92,1.93-1.71,2.98-2.43-.16.03-.33.06-.49.09-5.33,1.12-10.56,2.71-15.87,3.92-.62.57-1.37.98-2.05,1.42-.92.6-1.82,1.24-2.71,1.89-1.85,1.37-3.56,2.99-5.12,4.79-1.54,1.77-2.98,3.72-4.79,5.12-.89.69-1.87,1.19-2.91,1.5-1.06.32-2.01.24-3.11.05-.15-.02-.14-.27,0-.27,2.27-.1,4.4-1.85,6.06-3.5,1.64-1.63,3.06-3.55,4.65-5.26,1.49-1.6,3.13-3.02,4.87-4.22.27-.19.56-.36.85-.53-3.62.87-7.21,1.91-10.87,2.6-3.95.74-7.97,1.26-12.01.89-3.16-.29-7.49-.77-10.09-3.31,1.49,1.46,4.9,1.3,6.7,1.83,2.03.6,3.9.9,6.02.86,4.53-.09,8.97-1.13,13.37-2.15,2.97-.68,5.9-1.64,8.83-2.53Z"/>
              <path class="cls-5" d="M31.56,69.12c-3.01,1.17-6.81.95-9.97,1.03-4.23.11-9.67-.08-13.7-2.11,3.6.05,7.65-4.16,10.45-6.39,4.88-3.88,9.96-7.36,14.82-11.29,5.17-4.19,10.67-6.75,16.6-9.13,7.8-3.14,17.11-3.6,25.31-1.35,4.35,1.2,8.45,2.75,12.16,5.95,1.86,1.6,3.42,3.11,4.08,5.73.43,1.67,1.14,4.37-.8,4.91-1.1.3-3.53-2.07-4.33-2.63-2.79-1.93-5.47-4.14-8.2-6.19-3.46-2.59-9.73-6.44-13.89-5.25.24.65,1,1.01,1.56,1.36,1.99,1.27,3.95,2.87,5.7,4.61,1.98,1.98,4.36,5.59,1.62,7.71-3.84,2.97-9.68-.74-13.45-2.71-3.01-1.56-6.22-2.17-9.44-2.42-2.75-.21-6.94-.69-9.35,1.09,2.29,1.41,4.87,1.72,6.84,4.02,1.69,1.97,2.71,5.22.2,6.68-2.65,1.54-7-2.19-9.71-2.93-2.47-.67-4.96-.74-7.44-.47-1.25.14-3.11.06-4,1.12,1.47,1.08,3.3,1.13,4.83,2.43,2.66,2.26,3.47,4.93.11,6.23Z"/>
            </g>
          </g>
          <g>
            <path class="cls-2" d="M261.06,134.19c-3.15,0-6.57-1.3-9.27-3.35-1.88,1.05-3.98,1.63-6.06,1.63-1.32,0-2.59-.23-3.8-.67-1.83,1.04-3.84,1.58-5.94,1.58-4.78,0-8.98-2.74-11.8-6.07-2.2.9-4.55,1.36-7.01,1.36-1.42,0-2.93-.15-4.48-.45-.07-.01-4.38-.9-7.94-2.59-1.01.53-2.17.81-3.41.81-1.9,0-3.77-.67-5.4-1.6-4.12,2.84-10.45,4.32-14.92,4.32-2.37,0-4.24-.38-5.7-.97-1.05.65-2.26,1.01-3.5,1.01-2.5,3.14-6.62,4.9-11.93,4.9-4.91,0-11.04-1.63-15.13-4.76-.61.14-1.24.21-1.88.21-2.77,0-5.36-1.34-7.2-3.12-3,1.49-6.21,2.26-9.5,2.26-4.48,0-9.03-1.45-13.15-4.18-3.49-2.31-10.18-9.54-10.64-16.56,0-.1-.01-.2-.02-.3-.12,0-.24,0-.36,0-5.97,0-10.42-1.78-13.6-5.44-5.91-6.79-3-16.29,1.28-22.36l.16-.23c.21-.29.41-.55.6-.8.09-.11.18-.23.27-.34-.21-.63-.33-1.29-.36-1.96-.03-.67.05-1.37.22-2.05.09-.34.2-.67.33-.99.22-.54.52-1.06.87-1.54-.04-.18-.07-.37-.11-.55-.03-.16-.05-.29-.07-.42-.12-.83-.19-1.72-.19-2.62.04-4.34,1.37-9.3,4.2-12.57-.2-1.11-.25-2.22-.16-3.31.07-.8.24-1.6.51-2.46.5-1.6,1.33-3.1,2.45-4.45.6-.71,1.28-1.4,2.05-2.04.36-.3.73-.59,1.12-.87.75-.54,1.57-1.05,2.44-1.52.56-.3,1.17-.6,1.91-.92l.21-.09c.16-.07.32-.14.48-.21.1-.04.56-.22.56-.22.26-.1.52-.2.79-.3.74-.26,1.51-.5,2.36-.72l.42-.11c.16-.04,1.02-.24,1.02-.24.26-.06.54-.12.83-.17l.4-.08c.32-.06.59-.1.85-.15l.67-.1c.2-.03.41-.06.61-.08.38-.05.78-.09,1.18-.12,0,0,.36-.03.49-.03.34-.02.58-.04.81-.05l.53-.02c.31,0,1.02-.02,1.02-.02h.31c.27.01.52.02.77.03l.43.02c.39.03.71.06,1.03.09l.3.03c.41.05.81.1,1.21.17l.31.06c.34.06.63.12.91.19l.38.09c.31.08.56.15.84.24.73-.4,1.51-.71,2.32-.92.41-.1.82-.18,1.24-.23.54-1.44,1.17-3.06,1.69-4.36l.33-.81c.3-.73.58-1.41.85-2.03.24-.56.47-1.07.67-1.51.16-.35.3-.65.43-.89l.2-.37c.2-.36.38-.64.57-.89,2.97-3.84,7-6.34,11.35-7.06.43-.07.86-.12,1.29-.16.41-.03.82-.05,1.24-.05.28,0,.53,0,.77.02.91-1.11,1.97-2.02,3.13-2.66.52-.28,1.05-.51,1.59-.69.11-.03.22-.07.33-.1.29-.45.62-.89.97-1.3.47-.54.99-1.04,1.55-1.5.27-.22.55-.43.83-.63.4-.28.82-.53,1.24-.77.3-.17.61-.33.92-.47,1.67-.8,3.61-1.39,5.75-1.74,1.21-.2,2.44-.3,3.65-.3,7.75,0,14.95,4.17,19.47,11.09.1-.09.2-.18.3-.26.25-.21.51-.43.78-.62,1.08-.8,2.2-1.36,3.33-1.68.26-.07.54-.14.81-.19.46-.08.93-.12,1.4-.12.11,0,.23,0,.35,0,.5.02,1.07.09,1.68.26.41-.47.84-.88,1.29-1.24.91-.72,1.92-1.24,2.99-1.52.2-.39.43-.77.67-1.13.41-.62.83-1.16,1.28-1.63,1.03-1.04,2.01-1.75,3.18-2.37.54-.29,1.06-.53,1.6-.75.31-.12.62-.24.95-.36.65-.23,1.33-.44,2.04-.65l1.35-.39c.34-.1.69-.2,1.04-.31,1.15-.35,2.3-.65,3.4-.89.62-.13,1.24-.25,1.85-.35,1.71-.28,3.41-.42,5.04-.42,7.14,0,13.45,2.55,19.29,7.8,2.18,1.97,4.31,4.31,6.47,7.15,1.11-.79,2.36-1.28,3.65-1.43.27-.03.55-.05.83-.05.36,0,.78.03,1.22.1,1.27-1.31,2.95-2.1,4.76-2.1.27-.31.56-.61.86-.9.85-.81,1.87-1.53,3.02-2.16,2.19-1.2,4.88-2.07,8.21-2.66,3.02-.53,5.92-.72,8.41-.86.49-.02.9-.04,1.31-.04.18,0,.35,0,.53,0,.59.01,1.15.05,1.71.11,1.08.12,2.15.32,3.18.61.96.27,1.92.62,2.86,1.04.84.38,1.67.82,2.52,1.34.72.44,1.46.93,2.25,1.5.69.5,1.37,1.02,2.05,1.56l.45.35c1.94-1.74,4.29-2.69,6.76-2.69.44,0,.88.03,1.33.09.15.01.29.03.43.06.81.14,1.6.4,2.37.75.46-.09.98-.17,1.55-.25.5-.06,1.03-.11,1.57-.15.29-.02.59-.03.88-.04.29-.01.58-.02.86-.02,2.13,0,3.67.3,4.84.95.88.48,1.8,1.13,2.77,1.93.35.29.69.59,1.04.91.46.43.92.88,1.37,1.36.19-.07.38-.14.57-.2.37-.11.75-.2,1.17-.27.53-.09,1.08-.13,1.63-.13.77,0,1.54.08,2.3.24.14-.12.28-.23.43-.34,2-1.54,4.08-2.32,6.19-2.32.97,0,1.91.17,2.81.5,3.38-1.1,7.8-1.12,7.86-1.12,2.09,0,3.61.31,4.78.97.69.39,1.36.85,1.99,1.38.3.25.59.51.87.77.76.73,1.47,1.54,2.18,2.49.39.52.77,1.08,1.17,1.71.35.55.69,1.11,1.01,1.68l.32.57c1.33-.51,2.7-.78,4.07-.78.18,0,.36,0,.54.01,1.93.1,3.77.75,5.34,1.87.32.23.63.47.92.73,1.01-.72,2.09-1.33,3.22-1.84,1.07-.48,2.18-.86,3.32-1.14,1.13-.27,2.3-.44,3.46-.5.34-.02.67-.03,1.01-.03.25,0,.49,0,.74.01.58.02,1.17.07,1.75.15,1,.13,2.04.36,3.09.67.78.24,1.43.47,2.06.73,1.68.71,3.28,1.67,4.76,2.83,5.72,4.52,8.43,10.77,8.05,18.59-.03.57-.07,1.15-.13,1.72-.09.85-.2,1.71-.36,2.6.23.15.47.31.69.49.09.07.19.14.29.22.45.38.85.79,1.2,1.23.08.09.16.21.25.32.24.33.45.65.64.98.07.11.14.22.2.34l.19.38c.17.39.31.74.43,1.12.06.18.11.35.16.52.09.32.17.64.23.95.04.15.07.29.09.45.03.18.05.35.06.52.03.26.05.53.07.81.01.22.02.45.02.68,0,.27,0,.55-.02.82,0,.17,0,.33-.02.49-.02.18-.04.36-.07.55-.04.25-.06.44-.09.63-.02.16-.04.34-.08.52-.11.53-.25,1.07-.41,1.59-.24.75-.53,1.47-.87,2.16.29.26.6.56.92.91l.2.21c.35.39.62.71.88,1.05l.16.2c.62.84,1.16,1.74,1.62,2.7,3.15,6.72,2.11,15.68-2.23,22.1.49,1.87.29,3.88-.62,5.82-1.44,3.07-4.64,5.74-8.11,7.06.02.42.02.82,0,1.19-.32,5.82-5.48,10.57-9.76,13.53-4.06,2.81-7.98,4.18-11.98,4.18-.35,0-.7-.01-1.06-.03-.07,0-5.25-.96-9.22-2.83-1.42.78-3.09,1.19-4.96,1.19-2.27,0-4.58-.61-6.59-1.33-2.26,1.93-5.32,3.02-8.73,3.02-2.58,0-5.06-.63-7.18-1.75-4.88,5.17-12.82,5.93-18.46,6.47l-.74.07c-.2.02-.4.03-.59.03-1.36,0-2.52-.94-3.73-.88-.73.03-1.54.93-2.39,1.02-2.56.29-5.77-1.5-8.01-2.52-.29-.13-.5-.21-.7-.29-.1-.04-.2-.08-.32-.12-1.67,1.18-3.78,1.83-6.17,1.83-2.53,0-5.3-.73-7.77-1.93-.36.5-.77.98-1.21,1.43-2.66,2.69-6.73,4.24-11.16,4.24-2.71,0-5.27-.56-7.47-1.6-1.72,1.36-3.88,2.1-6.34,2.1Z"/>
            <g>
              <path class="cls-9" d="M369.29,32.85c5.44-5.51,13.92-6.02,20.28-1,7.6,6,7.2,14.62,5.17,22.37,7.21.24,6.3,10.94,1.62,13.91,10.31,4.32,9.18,18.71,2.87,25.6,4.37,5.25-6.9,12.32-10.52,9.18,6.34,5.48-.56,12.08-5.35,15.39-3.1,2.14-6.46,3.61-10.3,3.38-1.03-.06-10.51-2.83-9.81-4.12-2.43,4.47-9.03,1.85-12.49.27-2.96,5.44-12.3,4.95-15.63,0-2.86,7.45-11.82,8.04-18.62,8.71-1.48.15-1.72-1.68-3.04-1.62-1.92.08-2.46,1.99-5.4,1.59.37.05-4.25-2.03-4.14-1.98-1.48-.66-2.68-.81-3.49-2.45-2.08,6.38-12.31,2.9-15.39-1.05.1,9.08-13.42,10.61-18.55,5.16-2.65,6.5-11.44,3.19-14.33-1.17-2.6,3-7.18,4.33-10.59,1.65-5.66,5.4-13.24.6-15.99-5.1-3.73,2.72-7.69,3.21-12.07,2.38-1.08-.2-9.74-2.7-9.24-4.05-1.58,4.21-6.57,1.47-8.71-.82-2,4.67-20.29,9.17-21.18,1.99.42,3.39-2.84,5.24-4.84,2.42-1.67,9.93-19.66,6.5-23.93.61-3.8,3.62-9.8-2.6-8.05-4.04-6.83,5.65-15.06,5.52-22.11.84-3.87-2.57-12.68-13.06-6.7-18.12.19-.16.22-.15.08.05-5.87.58-12.74,1.59-17.12-3.45-5.18-5.95-.42-16.11,4.65-20.49-2.44-1.57-2.04-4.36.51-5.63-2.4-4.06-.62-13.56,3.74-16.03-5.4-12.44,17.33-18.34,25.67-13.87,1.52-1.55,3.9-2.32,6.03-1.4-.33-.14,4.26-11.83,5.08-12.89,3.15-4.07,8.21-6.61,13.37-5.18,1.08-2.39,3.15-4.41,5.74-4.13,1.26-3.86,5.27-5.52,9.13-6.16,10.14-1.68,18.74,5.55,21.59,14.96,1.7-3.71,6.63-10.2,10.79-5.13,1.31-2.49,2.86-5.26,5.99-4.49,1.45-5.67,5.49-6.16,10.35-7.65,16.6-5.08,26.3,3.74,34.84,16.8.94-4.12,4.49-6.7,7.61-2.99.02-2.85,2.59-5.23,4.71-2.72,1.8-6.64,13.29-7.34,18.88-7.65,7.87-.43,11.8,4.19,17.36,8.3,1.95-4.15,5.98-5.98,9.72-3.09-.74-.57,6.24-1.49,7.95-.54,2.51,1.38,5.55,4.68,7.06,7.1.11-3.52,4.48-3.49,7.02-2.09,2.12-2.54,5.52-4.82,8.37-2.02-1.13-1.11,8.4-2.63,10.4-1.49,3.89,2.21,5.91,7.23,8.11,10.87,4.47-4,9.69-3.12,11.73,2.42.37-.46.75-.9,1.16-1.31Z"/>
              <path class="cls-3" d="M396.35,68.13c4.67-2.98,5.58-13.67-1.62-13.91,2.03-7.75,2.43-16.37-5.17-22.37-6.35-5.02-14.84-4.51-20.28,1-.41.41-.79.85-1.16,1.31-2.04-5.55-7.26-6.43-11.73-2.42-2.2-3.64-4.22-8.66-8.11-10.87-2.01-1.14-11.54.38-10.4,1.49-2.86-2.79-6.26-.51-8.37,2.02-2.55-1.4-6.92-1.43-7.03,2.09-1.51-2.42-4.55-5.72-7.06-7.1-1.71-.94-8.69-.03-7.95.54-3.74-2.89-7.77-1.06-9.72,3.09-5.56-4.1-9.49-8.73-17.36-8.3-5.59.31-17.08,1.01-18.88,7.65-2.12-2.51-4.69-.13-4.71,2.72-3.12-3.71-6.67-1.13-7.61,2.99-8.54-13.06-18.24-21.89-34.84-16.8-4.86,1.49-8.9,1.98-10.35,7.65-3.13-.77-4.68,2-5.99,4.49-4.16-5.07-9.09,1.41-10.79,5.13-2.85-9.42-11.45-16.64-21.59-14.96-3.86.64-7.87,2.31-9.13,6.16-2.58-.28-4.66,1.74-5.74,4.13-5.16-1.42-10.22,1.11-13.37,5.18-.82,1.06-5.41,12.74-5.08,12.89-2.13-.92-4.51-.15-6.03,1.4-8.34-4.47-31.08,1.43-25.67,13.87-4.36,2.47-6.14,11.98-3.74,16.03-2.55,1.28-2.95,4.07-.51,5.63-2.07,1.79-4.08,4.54-5.39,7.58,7.66,3.16,11.77-7.29,14.27-13.18.77,3.12,10.17,9.07,12.81,5.01-2.58,3.95-3.92,14.94,2.63,14.18,1.12,13.78,23.5,13.57,30.51,5.15,1.87,5.04,9.12,7.21,13.28,3.3,3.57,3.46,15.92,7.08,15.95-1.67.01-3.5-5.92-5.82-8.08-8.53,4.8,2.62,10.83,1.54,15.86.04-2.05,3.17-3.75,7.87-.1,9.98,1.6,7.71,13.72,8.24,17.83,2.73,4.06,12.8,19.34.67,21.52-7.03,2.81,2.92,10.12,5.58,12.41,1.35,2.84,2.92,8.14,4.49,9.84.75-5.63,12.42,37.59,17.37,32.21-.79,2.81,3.02,6.91,1.77,7.13-2.44,6.11,2.47,16.39-.91,20.53-6.05-.88,1.09-.48,3.49-1.71,4.9-1.13,1.29-2.77,2.07-4.21,2.96-3.04,1.9-7.07,4.05-3.27,7.57,4.44,4.12,13.55,5.39,17.46-.16,1.67,3.7,8.91,6.88,9.78.96-.22,1.55,7.24,2.38,8.2,2.35,3.01-.1,5.95-1.15,8.49-2.73,4.72-2.94,9.77-6.05,6.16-12.09,3.13,2.73,17.06,7.35,14.8-.64,1.64,2.68,4.03,3.53,6.47,1.55,3.17,10.81,20.84,2.76,19.92-6.96,4.1,2.53,8.38,1.02,11.87-1.88,1.5-6.66-.25-14.11-7.17-17.01Z"/>
              <path class="cls-3" d="M399.74,62.67c.86-3.93-.43-8.3-5.01-8.46,2.03-7.75,2.43-16.37-5.17-22.37-6.36-5.02-14.84-4.51-20.28,1-.41.41-.79.85-1.16,1.31-2.04-5.55-7.26-6.43-11.73-2.42-2.2-3.64-4.22-8.66-8.11-10.87-2.01-1.14-11.54.38-10.4,1.49-2.86-2.79-6.26-.51-8.37,2.02-2.55-1.4-6.92-1.43-7.03,2.09-1.51-2.42-4.55-5.72-7.06-7.1-1.71-.94-8.69-.03-7.95.54-3.74-2.89-7.77-1.06-9.72,3.09-5.56-4.1-9.49-8.73-17.36-8.3-5.59.31-17.08,1.01-18.88,7.65-2.12-2.51-4.69-.13-4.71,2.72-3.12-3.71-6.67-1.13-7.61,2.99-8.54-13.06-18.24-21.89-34.84-16.8-4.86,1.49-8.9,1.98-10.35,7.65-3.13-.77-4.68,2-5.99,4.49-4.16-5.07-9.09,1.41-10.79,5.12-2.85-9.42-11.45-16.64-21.59-14.96-3.86.64-7.87,2.31-9.13,6.16-2.58-.28-4.66,1.74-5.74,4.13-5.16-1.42-10.22,1.11-13.37,5.18-.82,1.06-5.41,12.74-5.08,12.89-2.13-.92-4.51-.15-6.03,1.4-6.88-3.69-23.55-.31-26.14,7.97.36-.29.72-.57,1.09-.79,6.03-3.71,14.25-2.37,20.41.33,1.28-2.21,3.69-3.11,5.92-1.82,4.28-6.35,14.6-4.74,20.33-1.53-3.94-1.74-8.5,2.81-10.99,5.89,6.71-5.65,11.66-2.32,18.93-2.45,1.46-5.88-6.37-5.46-.62-11.42,5.79-6,13.04-2.86,19.18.64,2.75-4.5,8.82-1.98,12.03.4,2.39-2.34,6.77-2.14,9.62-.51-2.95-1.68,7.96-10.05,8.94-10.57,4.96-2.67,10.74-3.02,16.06-1.26-2.33,1.14-4.29,3.01-5.44,5.38,2.15-4.46,10.58-4.58,14.46-3.58,4.17,1.07,8.84,3.51,8.39,8.56-2.07.63-4.39,2.48-5.78,4.16,8.26-3.91,23.13-5.79,30.91.78-3.08-4.05-5.87-5.79-11.05-6.42,3.62-3.18,9.99-7.51,14.08-2.36,2.44-4.52,9.39-5.22,13.98-4.21,1.98.44,14.9,8.27,13.33,10.67,2.57-3.93,4.78-.78,7.23-1.5,2.37-.69,4.11-3.47,6.29-4.3,6.84-2.61,13.87.79,17.27,7.21.37-4.23,5.59-5.76,8.8-6.48,7.56-1.71,18.06,1.59,22,8.79-3.63,1.21-7.89,1.85-10.2,5.43,6.91-4.68,17.13-.2,24.18,3.5-.59-3.34-3.47-5.22-4.85-8.26,2.75-2.47,9.41-2.48,10.87,1.03,3.05-5.45,10.81.18,13.07,3.85,2,3.26,1.8,5.51,2.05,9.47,4.1.14,6.67-.05,9.11,2.72Z"/>
            </g>
          </g>
        </g>
      </g>
    </g>
  </g>
</svg>