<?xml version="1.0" encoding="UTF-8"?>
<svg xmlns="http://www.w3.org/2000/svg" xmlns:xlink="http://www.w3.org/1999/xlink" viewBox="0 0 113.05 41.22">
  <defs>
    <style>
      .cls-1 {
        opacity: .51;
      }

      .cls-1, .cls-2 {
        mix-blend-mode: screen;
      }

      .cls-3 {
        fill: url(#_Áåçûìÿííûé_ãðàäèåíò_27-2);
      }

      .cls-3, .cls-4, .cls-5, .cls-6, .cls-7, .cls-8, .cls-9, .cls-10, .cls-11, .cls-12, .cls-13, .cls-14, .cls-15, .cls-16, .cls-17, .cls-18 {
        mix-blend-mode: multiply;
      }

      .cls-3, .cls-4, .cls-5, .cls-8, .cls-9, .cls-10, .cls-11, .cls-12, .cls-13, .cls-14, .cls-15, .cls-17, .cls-18 {
        opacity: .12;
      }

      .cls-4 {
        fill: url(#_Áåçûìÿííûé_ãðàäèåíò_27-10);
      }

      .cls-5 {
        fill: url(#_Áåçûìÿííûé_ãðàäèåíò_27-4);
      }

      .cls-19 {
        fill: url(#_Áåçûìÿííûé_ãðàäèåíò_17);
      }

      .cls-6 {
        opacity: .09;
      }

      .cls-6, .cls-20 {
        fill: #7a2900;
      }

      .cls-7 {
        fill: url(#_Áåçûìÿííûé_ãðàäèåíò_27-14);
      }

      .cls-7, .cls-2 {
        opacity: .23;
      }

      .cls-21 {
        fill: url(#_Áåçûìÿííûé_ãðàäèåíò_323);
      }

      .cls-22 {
        opacity: .49;
      }

      .cls-8 {
        fill: url(#_Áåçûìÿííûé_ãðàäèåíò_27-8);
      }

      .cls-23 {
        isolation: isolate;
      }

      .cls-9 {
        fill: url(#_Áåçûìÿííûé_ãðàäèåíò_27-7);
      }

      .cls-2 {
        fill: url(#_Áåçûìÿííûé_ãðàäèåíò_27-15);
      }

      .cls-10 {
        fill: url(#_Áåçûìÿííûé_ãðàäèåíò_27-6);
      }

      .cls-11 {
        fill: url(#_Áåçûìÿííûé_ãðàäèåíò_27-11);
      }

      .cls-12 {
        fill: url(#_Áåçûìÿííûé_ãðàäèåíò_27-3);
      }

      .cls-13 {
        fill: url(#_Áåçûìÿííûé_ãðàäèåíò_27-5);
      }

      .cls-14 {
        fill: url(#_Áåçûìÿííûé_ãðàäèåíò_27-12);
      }

      .cls-15 {
        fill: url(#_Áåçûìÿííûé_ãðàäèåíò_27-13);
      }

      .cls-16 {
        fill: #864300;
        opacity: .33;
      }

      .cls-17 {
        fill: url(#_Áåçûìÿííûé_ãðàäèåíò_27);
      }

      .cls-18 {
        fill: url(#_Áåçûìÿííûé_ãðàäèåíò_27-9);
      }
    </style>
    <linearGradient id="_Áåçûìÿííûé_ãðàäèåíò_17" data-name="Áåçûìÿííûé ãðàäèåíò 17" x1="59.03" y1="39.65" x2="54.58" y2="2.97" gradientUnits="userSpaceOnUse">
      <stop offset="0" stop-color="#b43e23"/>
      <stop offset="1" stop-color="#f59113"/>
    </linearGradient>
    <linearGradient id="_Áåçûìÿííûé_ãðàäèåíò_27" data-name="Áåçûìÿííûé ãðàäèåíò 27" x1="-5.5" y1="6.04" x2="143.18" y2="6.04" gradientUnits="userSpaceOnUse">
      <stop offset="0" stop-color="#b44320"/>
      <stop offset="1" stop-color="#ff9215"/>
    </linearGradient>
    <linearGradient id="_Áåçûìÿííûé_ãðàäèåíò_27-2" data-name="Áåçûìÿííûé ãðàäèåíò 27" x1="-5.5" y1="12.18" x2="143.19" y2="12.18" xlink:href="#_Áåçûìÿííûé_ãðàäèåíò_27"/>
    <linearGradient id="_Áåçûìÿííûé_ãðàäèåíò_27-3" data-name="Áåçûìÿííûé ãðàäèåíò 27" x1="53.22" y1="8.78" x2="125.61" y2="8.78" xlink:href="#_Áåçûìÿííûé_ãðàäèåíò_27"/>
    <linearGradient id="_Áåçûìÿííûé_ãðàäèåíò_27-4" data-name="Áåçûìÿííûé ãðàäèåíò 27" x1="2.08" y1="6.27" x2="110.87" y2="6.27" xlink:href="#_Áåçûìÿííûé_ãðàäèåíò_27"/>
    <linearGradient id="_Áåçûìÿííûé_ãðàäèåíò_27-5" data-name="Áåçûìÿííûé ãðàäèåíò 27" x1=".66" y1="30.01" x2="55.42" y2="30.01" xlink:href="#_Áåçûìÿííûé_ãðàäèåíò_27"/>
    <linearGradient id="_Áåçûìÿííûé_ãðàäèåíò_27-6" data-name="Áåçûìÿííûé ãðàäèåíò 27" x1="91.83" y1="9.2" x2="119.39" y2="9.2" xlink:href="#_Áåçûìÿííûé_ãðàäèåíò_27"/>
    <linearGradient id="_Áåçûìÿííûé_ãðàäèåíò_27-7" data-name="Áåçûìÿííûé ãðàäèåíò 27" x1="48.18" y1="17.42" x2="145.07" y2="17.42" xlink:href="#_Áåçûìÿííûé_ãðàäèåíò_27"/>
    <linearGradient id="_Áåçûìÿííûé_ãðàäèåíò_27-8" data-name="Áåçûìÿííûé ãðàäèåíò 27" x1="78.46" y1="13.92" x2="128.05" y2="13.92" xlink:href="#_Áåçûìÿííûé_ãðàäèåíò_27"/>
    <linearGradient id="_Áåçûìÿííûé_ãðàäèåíò_27-9" data-name="Áåçûìÿííûé ãðàäèåíò 27" x1="17.69" y1="32.47" x2="99.28" y2="32.47" xlink:href="#_Áåçûìÿííûé_ãðàäèåíò_27"/>
    <linearGradient id="_Áåçûìÿííûé_ãðàäèåíò_27-10" data-name="Áåçûìÿííûé ãðàäèåíò 27" x1="-6.46" y1="27.95" x2="158.96" y2="27.95" xlink:href="#_Áåçûìÿííûé_ãðàäèåíò_27"/>
    <linearGradient id="_Áåçûìÿííûé_ãðàäèåíò_27-11" data-name="Áåçûìÿííûé ãðàäèåíò 27" x1="-7.38" y1="22.04" x2="174.59" y2="22.04" xlink:href="#_Áåçûìÿííûé_ãðàäèåíò_27"/>
    <linearGradient id="_Áåçûìÿííûé_ãðàäèåíò_27-12" data-name="Áåçûìÿííûé ãðàäèåíò 27" x1="31.29" y1="34.4" x2="76.78" y2="34.4" xlink:href="#_Áåçûìÿííûé_ãðàäèåíò_27"/>
    <linearGradient id="_Áåçûìÿííûé_ãðàäèåíò_27-13" data-name="Áåçûìÿííûé ãðàäèåíò 27" x1="1.12" y1="26.37" x2="22.69" y2="26.37" xlink:href="#_Áåçûìÿííûé_ãðàäèåíò_27"/>
    <linearGradient id="_Áåçûìÿííûé_ãðàäèåíò_27-14" data-name="Áåçûìÿííûé ãðàäèåíò 27" x1="58.35" y1="39.73" x2="53.91" y2="3.05" xlink:href="#_Áåçûìÿííûé_ãðàäèåíò_27"/>
    <linearGradient id="_Áåçûìÿííûé_ãðàäèåíò_323" data-name="Áåçûìÿííûé ãðàäèåíò 323" x1="2.08" y1="6.88" x2="110.97" y2="6.88" gradientUnits="userSpaceOnUse">
      <stop offset="0" stop-color="#e2ae2d"/>
      <stop offset=".36" stop-color="#e1ab2a"/>
      <stop offset=".61" stop-color="#e0a320"/>
      <stop offset=".84" stop-color="#de9611"/>
      <stop offset="1" stop-color="#d80"/>
    </linearGradient>
    <linearGradient id="_Áåçûìÿííûé_ãðàäèåíò_27-15" data-name="Áåçûìÿííûé ãðàäèåíò 27" x1="46.06" y1="4.43" x2="52.7" y2="42.16" xlink:href="#_Áåçûìÿííûé_ãðàäèåíò_27"/>
  </defs>
  <g class="cls-23">
    <g id="Layer_2" data-name="Layer 2">
      <g id="Layer_1-2" data-name="Layer 1">
        <g>
          <path class="cls-16" d="M112.92,17.57c.08-.24.12-.51.13-.81,0-.02,0-.04,0-.06,0-.21,0-.43-.02-.65,0-.02,0-.04,0-.06-.02-.24-.04-.47-.06-.7,0-.07-.01-.14-.02-.21,0-.04,0-.07-.01-.11,0-.09-.02-.17-.02-.25,0-.02,0-.04,0-.07,0-.09-.01-.17-.01-.24-.02-.86-1.99-2.11-5.5-3.47-.2-.08-.4-.15-.6-.23-.82-.3-1.72-.61-2.68-.92-.24-.08-.49-.16-.74-.23-1.25-.39-2.62-.78-4.09-1.16-.29-.08-.59-.15-.89-.23-1.21-.3-2.48-.6-3.81-.9-4.99-1.1-10.83-2.09-17.29-2.8-6.46-.72-13.55-1.16-21.05-1.16h0c-.89,0-1.78,0-2.67.02-2.67.04-5.34.13-8,.28-1.48.08-2.96.2-4.44.33s-2.95.26-4.43.38c-.33.03-.57.06-.8.13-.04.01-.09.03-.13.04-.09.03-.18.07-.27.11-.03.01-.05.03-.07.04-.16.13-.25.38-.5.48-.17.06-.37.09-.6.09-.66,0-1.48-.23-2.03-.22h0c-.3,0-.61.02-.92.04-.31.02-.62.05-.93.08-.62.06-1.23.14-1.8.23-1.31.2-2.61.41-3.91.64-1.3.23-2.6.47-3.89.73-2.56.52-5.12,1.09-7.66,1.77-2.53.68-5.03,1.47-7.46,2.42-.77.3-2.71.92-4.07,1.77-.82.51-1.42,1.1-1.44,1.75-.01.54-.02,1.09-.03,1.63H.18c0,.4-.02.8-.02,1.19H.16c0,.3,0,.59,0,.89,0,.53,0,1.05,0,1.58,0,.73-.16,1.7-.14,2.56H0c0,.18.02.35.04.51,0,0,0,0,0,.02.01.08.02.15.04.22,0,0,0,.01,0,.02,0,.04.02.07.03.11-.07.81-.18,1.73-.04,2.48,0,.01,0,.03,0,.04,0,.05,0,.1,0,.16,0,0,0,.02,0,.03.01.48.11,1.02.18,1.46,0,0,0,.02,0,.02,0,.05.01.1.02.14,0,.01,0,.02,0,.04-.33.47-.21,1.36-.09,2.11,0,0,0,.01,0,.02,0,.02,0,.04,0,.06v.02s0,.05,0,.07c0,.02,0,.04,0,.05,0,.08,0,.16,0,.23H.17s0,.04,0,.05c0,.06,0,.12,0,.18,0,.02,0,.05,0,.07,0,.05.01.09.02.14,0,.02,0,.05.01.07,0,.04.02.08.03.12,0,.02.01.04.02.05,0,.03.02.05.03.07-.04.8-.3,2.27.03,2.74.1.14.27.23.45.3.02.23.06.49.11.77-.14.64-.14,1.58-.14,1.67.08.76.22,2.44,1.18,2.71,2.06.58,23.1,2.2,54.61,2.2s52.55-1.62,54.61-2.2c.94-.27,1.05-2.37,1.07-3.1.01-.49-.03-.81-.18-1.03.1-.47.14-.95.16-1.32,0-.13.01-.24.01-.33,0-.07,0-.14,0-.2,0-.11,0-.2-.02-.29.57-.57.56-1.38.58-2.38.04-1.82.13-3.64.14-5.45,0-.58.04-1.24-.02-1.84,0-.28.01-.56.02-.84v-.02c0-.06,0-.11,0-.17,0-.57.03-1.2-.03-1.77.26-.73.08-1.86,0-2.7Z"/>
          <path class="cls-20" d="M110.81,13.78c-.08-3.05-23.76-11.1-54.57-11.1-3.43,0-6.86.1-10.28.3-2.85.17-5.69.47-8.54.71-.5.04-.81.11-1.16.28-.19.09-.28.42-.55.52-.66.26-1.83-.15-2.53-.13-1.17.03-2.42.18-3.52.35-2.51.39-5.02.85-7.51,1.37-4.93,1.04-9.89,2.29-14.56,4.19-1.18.48-5.26,1.79-5.31,3.52-.05,1.76-.06,3.53-.06,5.29,0,1.64-.78,4.43,1.34,4.65-.12.05-.91.14-1.12.34-.63.61-.11,2.37-.07,3.15.03.65-.33,2.5.03,3.04.22.33.8.35,1.04.58-.62-.58-.65,2.02-.63,2.16.08.76.21,2.44,1.13,2.71,1.98.58,22.25,2.2,52.6,2.2s50.62-1.62,52.6-2.2c.91-.27,1.02-2.37,1.03-3.1.03-1.14-.23-1.41-1.42-1.48-2.03-.12-4.08.28-6.09.17,2.09-.8,4.46-.58,6.56-1.31,1.51-.52,1.48-1.54,1.5-2.94.04-1.82.12-3.64.14-5.46.02-1.72.28-4.12-2.23-3.59.75-.16,1.69-.07,2.1-.82.46-.82.09-2.5.07-3.39Z"/>
          <path class="cls-19" d="M110.81,11.1c-.08-3.05-23.76-11.1-54.57-11.1-3.43,0-6.86.1-10.28.3-2.85.17-5.69.47-8.54.71-.5.04-.81.11-1.16.28-.19.09-.28.42-.55.52-.66.26-1.83-.15-2.53-.13-1.17.03-2.42.18-3.52.35-2.51.39-5.02.85-7.51,1.37-4.93,1.04-9.89,2.29-14.56,4.19-1.18.48-5.26,1.79-5.31,3.52-.05,1.76-.06,3.53-.06,5.29,0,1.64-.78,4.43,1.34,4.65-.12.05-.91.14-1.12.34-.63.61-.11,2.37-.07,3.15.03.65-.33,2.5.03,3.04.22.33.8.35,1.04.58-.62-.58-.65,2.02-.63,2.16.08.76.21,2.44,1.13,2.71,1.98.58,22.25,2.2,52.6,2.2s50.62-1.62,52.6-2.2c.91-.27,1.02-2.37,1.03-3.1.03-1.14-.23-1.41-1.42-1.48-2.03-.12-4.08.28-6.09.17,2.09-.8,4.46-.58,6.56-1.31,1.51-.52,1.48-1.54,1.5-2.94.04-1.82.12-3.64.14-5.46.02-1.72.28-4.12-2.23-3.59.75-.16,1.69-.07,2.1-.82.46-.82.09-2.5.07-3.39Z"/>
          <path class="cls-6" d="M72.46,1.85c-4.46.72-8.92,1.53-13.25,2.73-2.22.61-4.42,1.48-6.65,2.2-2.59.84-5.21,1.49-7.9,1.33-5.27-.33-10.34-1.88-15.69-1.17-3.95.52-7.75,1.89-11.72,2.41-3.16.41-6.34.61-9.51.88.43-.15.84-.3,1.21-.43,1.43-.5,2.81-.94,4.29-1.29,2.33-.55,4.56-1.42,6.83-2.18,2.29-.77,4.62-1.43,7.05-1.52,2.48-.09,4.97,0,7.46.04,5,.1,10.18.41,14.97-1.29,2.27-.81,4.48-1.58,6.8-2.16,5.38.03,10.76.18,16.13.45ZM103.68,8.08c-3.28.88-6.72,1.33-9.98,1.84-.15.02-.29.04-.44.06,2.43.31,4.89.52,7.34.65,3.02.16,6.06.15,9.06-.14-1.94-.92-3.94-1.71-5.98-2.41ZM107.44,14.78c-3.36-.04-6.72-.31-10.07-.65-5.15-.53-10.27-1.42-15.42-1.92-.81-.08-1.22-.95-.66-1.59,1.28-1.45,3.5-1.78,5.31-2.01,2.05-.26,4.11-.25,6.17-.44,2.43-.24,4.89-.75,7.29-1.24-.12-.03-.24-.07-.36-.1-1.61-.46-3.24-.88-4.87-1.28-.16.04-.32.08-.48.11-5.8,1.65-11.69,2.99-17.67,3.81-6.54.89-13.59.37-19.7,3.09,3.53.98,7.27.79,10.91.61,3.75-.19,7.4-.28,11.11.36,1.94.34,3.85.76,5.77,1.15,3.49.52,6.99.99,10.5,1.34,5.03.13,10.08-.32,15.11-.32-.29-.35-.76-.53-1.5-.42.59-.09,1.25-.1,1.66-.52-1.04.04-2.08.04-3.11.03ZM7.25,26c-1.65-.13-3.3-.24-4.95-.32-.07.74-.12,1.56.1,1.89.2.3.69.35.97.52-.55-.3-.57,2.08-.55,2.21,0,.03,0,.06,0,.09,4.07-1.32,8.15-2.6,12.25-3.8-2.6,0-5.24-.41-7.83-.61ZM98.47,18.97c-3.75-.3-7.48-.88-11.17-1.63-1.82-.37-3.63-.79-5.43-1.24-.05,0-.11-.02-.16-.03-.1-.02-.18-.04-.25-.08-.25-.06-.49-.12-.74-.18-.94-.24-1.88-.53-2.83-.71-.85-.17-1.71-.26-2.57-.31-3.85-.24-7.7.24-11.54.33-3.48.08-7.28-.05-10.36-1.86-.31-.18-.21-.61.09-.72.91-.33,1.83-.65,2.75-.96,4.29-2.12,9.08-3.1,13.83-3.78.84-.18,1.69-.36,2.54-.52,3.03-.59,6.07-1.11,9.13-1.47,1.93-.22,3.87-.41,5.81-.61,1.04-.17,2.09-.34,3.13-.5-3.48-.61-6.98-1.12-10.49-1.53-3.02.18-6.04.49-9.03.93-6.58.98-12.89,3.19-19.43,4.32-1.56.27-3.14.49-4.73.52-1.54.03-3.08-.09-4.61-.26-5.05-.55-10.22-.62-15.24.54-3.39.78-6.54,2.66-9.98,3.23-1.41.23-2.83.3-4.25.23-1.63-.07-3.26.04-4.88.25-1.95.25-3.88.62-5.82.97,0,.69-.01,1.38-.01,2.08.88-.02,1.75-.05,2.63-.09,4.19-.18,8.37-.48,12.56-.58,2.08-.05,4.16-.05,6.23.05,1.4.06,2.79.21,4.18.24.22-.01.44-.03.67-.05,1.38-.11,2.76-.26,4.14-.4.94-.18,1.88-.39,2.81-.58,2.02-.41,4.06-.38,6.1-.16,2,.21,3.97.61,5.93,1.04.9.2,1.79.38,2.7.56,1.17.21,2.33.42,3.48.61,2.11.35,4.22.7,6.33,1.06.29.05.59.1.88.15,1.74.17,3.49.25,5.24.16,1.98-.1,3.95-.29,5.92-.35,2.03-.06,4.03.08,6.04.36,3.85.55,7.54,1.81,11.31,2.7,4.05.96,8.2,1.18,12.35,1.24,3.03.04,6.06-.05,9.09-.25.03-.93.06-1.87.07-2.8,0-.06,0-.13,0-.2-1.53.22-3.07.35-4.62.42-2.57.28-5.2.2-7.78-.16ZM70.56,26.52c-7.42-2.22-14.99-3.43-22.71-4.04-8.42-.66-16.87.21-25.27.72-3.85.23-7.68.62-11.45-.38-1.87-.5-3.66-.93-5.6-1.02-1.11-.05-2.21-.03-3.32,0-.16.55-.03,1.37.07,2.02,1.79.08,3.58.21,5.37.35,2.85.22,5.76.69,8.62.55,4.92-.25,9.86-.26,14.79-.55,1.66-.1,3.48-.43,5.02.21-1.51.48-2.96.25-4.48.5-1.49.25-2.94,1.06-4.38,1.5-7.8,2.42-15.77,4.38-23.72,6.35.12.14.27.24.44.29.66.19,3.33.5,7.71.82,4.43-1.78,8.8-3.76,13.45-4.9,5.14-1.26,10.52-.96,15.77-1.42.74-.07,1.49-.14,2.23-.21.3-.03.59-.07.89-.09.08,0,.15-.01.23-.02,1.75-.17,3.51-.33,5.26-.42,2.46-.12,4.89.38,7.25,1.04,1.66.28,3.31.64,4.95,1.05,6.21,1.57,12.34,3.29,18.65,4.46,2.45.45,4.91.84,7.38,1.17.38.02.75.04,1.13.05,4.63-.2,8.58-.43,11.72-.65-2.03-.35-4.05-.74-6.06-1.16-8.07-1.69-16.04-3.86-23.94-6.22ZM110.35,26.51c-7.2.46-14.42-.21-21.23-2.68-5.64-1.19-11.14-3.59-16.9-3.85-2.69.27-5.37.68-8.08.29-4.29-.62-8.55-1.44-12.82-2.13-4.3-.7-8.67-1.62-13.04-1.52-4.2.1-8.36.85-12.56.98-2.06.06-4.11-.12-6.17-.13-2.18,0-4.35.08-6.52.19-3.63.17-7.27.37-10.9.22-.06.73-.09,1.48.09,2.07,1.38-.03,2.76-.05,4.14.05,2.04.14,3.95.71,5.92,1.21,2.14.54,4.23.44,6.41.35,2.32-.1,4.63-.24,6.95-.4,8.32-.56,16.59-1.1,24.91-.28,3.84.38,7.66.87,11.45,1.58,3.79.71,7.44,1.81,11.14,2.9,11.48,3.37,23.19,6.36,35.08,7.85.44-.06.76-.12.93-.17.91-.27,1.02-2.37,1.03-3.1.03-1.14-.23-1.41-1.42-1.48-2.03-.12-4.08.28-6.09.17,2.09-.8,4.46-.58,6.56-1.31.57-.2.91-.46,1.13-.79ZM49.55,33.61c-3.73.16-7.48.13-11.2.51-1.59.16-3.15.42-4.7.79,6.72.19,14.41.32,22.89.32,1.42,0,2.81,0,4.18-.01-.25-.08-.49-.17-.74-.24-3.45-1.07-6.83-1.51-10.43-1.36ZM21.93,34.45c1.93.09,4,.18,6.21.26,3.38-1.35,6.9-2.15,10.56-2.5,3.8-.36,7.62-.32,11.43-.5,3.59-.16,7.09.42,10.51,1.5,1.79.56,3.55,1.24,5.3,1.94,1.55-.02,3.06-.04,4.54-.06-6.78-1.76-13.49-4.19-20.35-5.3-9.43,1.17-19.37,1.07-28.19,4.65Z"/>
          <g class="cls-22">
            <path class="cls-17" d="M55.48,8.02c3.95-.89,7.86-1.89,11.85-2.61,1.95-.35,3.9-.67,5.86-.96,2.39-.63,4.83-1.02,7.3-1.24-.09-.01-.19-.02-.29-.04-3.02.18-6.04.49-9.03.93-6.58.98-12.89,3.19-19.43,4.32-1.19.21-2.38.38-3.58.47,2.44-.05,4.85-.33,7.32-.88Z"/>
            <path class="cls-3" d="M31.59,8.64c.8-.14,1.61-.23,2.41-.28-2.29.09-4.58.36-6.84.88-3.39.78-6.54,2.66-9.98,3.23-1.41.23-2.83.3-4.25.23-1.63-.07-3.26.04-4.88.25-1.95.25-3.88.62-5.82.97,0,.69-.01,1.38-.01,2.08h0c0-.41,0-.83,0-1.24,1.93-.35,3.87-.73,5.82-.97,1.61-.21,3.25-.32,4.88-.25,1.43.06,2.84,0,4.25-.23,2.14-.36,4.17-1.22,6.21-2,2.64-1.18,5.36-2.17,8.2-2.66Z"/>
            <path class="cls-12" d="M76.68,9.47c-5.43.74-11.22.51-16.52,1.97,2.21-.3,4.45-.29,6.7-.29,3.28-.31,6.62-.41,9.83-.84,4.5-.61,8.95-1.52,13.35-2.64.88-.53,1.77-1.04,2.66-1.54-5.26,1.44-10.6,2.61-16.01,3.34Z"/>
            <path class="cls-5" d="M49.74,4.32c1.13-.71,2.28-1.39,3.46-2.02-1.22.39-2.44.82-3.67,1.26-4.79,1.7-9.97,1.39-14.97,1.29-2.48-.05-4.97-.13-7.46-.04-2.43.09-4.76.76-7.05,1.52-2.26.76-4.5,1.63-6.83,2.18-1.47.35-2.86.79-4.29,1.29-.38.13-.78.28-1.21.43,1.08-.09,2.17-.18,3.25-.27.74-.23,1.48-.43,2.24-.61,2.33-.56,4.56-1.42,6.83-2.18,2.29-.77,4.62-1.43,7.05-1.52,2.48-.09,4.97,0,7.46.04,5,.1,10.18.41,14.97-1.29.07-.02.14-.05.21-.07Z"/>
            <path class="cls-13" d="M25.78,26.82c-7.34,2.22-14.81,4.06-22.27,5.91.12.14.27.24.44.29.18.05.52.12,1.01.18,6-1.49,12-2.99,17.92-4.7.97-.57,1.93-1.14,2.9-1.69Z"/>
            <path class="cls-10" d="M103.8,8.12s-.08-.03-.12-.04c-3.28.88-6.72,1.33-9.98,1.84-.15.02-.29.04-.44.06,1.07.14,2.15.25,3.22.35,1.99-.31,4-.64,5.97-1.11.44-.37.89-.74,1.34-1.1Z"/>
            <path class="cls-9" d="M106.25,19.13c-2.57.28-5.2.2-7.78-.16-3.75-.3-7.48-.88-11.17-1.63-1.82-.37-3.63-.79-5.43-1.24-.05,0-.11-.02-.16-.03-.1-.02-.18-.04-.25-.08-.25-.06-.49-.12-.74-.18-.94-.24-1.88-.53-2.83-.71-.85-.17-1.71-.26-2.57-.31-3.85-.24-7.7.24-11.54.33-2.13.05-4.37.02-6.5-.42,2.06.62,4.17,1.02,6.3,1.26.06,0,.13,0,.19,0,3.84-.09,7.7-.57,11.54-.34.86.05,1.72.15,2.57.31.95.19,1.89.47,2.83.71.25.06.49.12.74.18.08.04.16.06.25.08.06,0,.11.02.16.03,1.8.45,3.61.86,5.43,1.24,3.69.75,7.42,1.33,11.17,1.63,2.58.36,5.21.45,7.78.16,1.54-.07,3.08-.2,4.6-.42,0-.21,0-.43.01-.64,0-.06,0-.13,0-.2-1.53.22-3.07.35-4.62.42Z"/>
            <path class="cls-8" d="M108.89,15.27c.59-.09,1.25-.1,1.66-.52-1.04.04-2.08.04-3.11.03-3.36-.04-6.72-.31-10.07-.65-5.11-.52-10.19-1.4-15.3-1.91-.15.14-.34.24-.6.26-.11,0-.23.01-.34.02.14.28.43.5.82.54,5.15.51,10.26,1.4,15.42,1.92,3.34.34,6.7.6,10.07.65.95.01,1.9.01,2.85-.02-.3-.28-.74-.42-1.4-.32Z"/>
            <path class="cls-18" d="M21.93,34.45c.65.03,1.32.06,2,.09,8.31-2.83,17.47-2.83,26.2-3.91,5.89.95,11.66,2.87,17.46,4.51.98-.01,1.95-.03,2.9-.04-6.78-1.76-13.49-4.19-20.35-5.3-9.43,1.17-19.37,1.07-28.19,4.65Z"/>
            <path class="cls-4" d="M70.56,26.52c-7.42-2.22-14.99-3.43-22.71-4.04-8.42-.66-16.87.21-25.27.72-3.85.23-7.68.62-11.45-.38-1.87-.5-3.66-.93-5.6-1.02-1.11-.05-2.21-.03-3.32,0-.09.31-.09.7-.05,1.1.01-.09.03-.18.05-.26,1.11-.03,2.21-.04,3.32,0,1.94.08,3.73.52,5.6,1.02,3.77,1.01,7.6.62,11.45.38,8.41-.51,16.85-1.38,25.27-.72,7.72.61,15.29,1.82,22.71,4.04,7.9,2.36,15.86,4.54,23.94,6.22.91.19,1.82.37,2.73.55,1.19-.07,2.31-.15,3.33-.22-2.03-.35-4.05-.74-6.06-1.16-8.07-1.69-16.04-3.86-23.94-6.22Z"/>
            <path class="cls-11" d="M89.12,23.83c-5.64-1.19-11.14-3.59-16.9-3.85-2.69.27-5.37.68-8.08.29-4.29-.62-8.55-1.44-12.82-2.13-4.3-.7-8.67-1.62-13.04-1.52-4.2.1-8.36.85-12.56.98-2.06.06-4.11-.12-6.17-.13-2.18,0-4.35.08-6.52.19-3.63.17-7.27.37-10.9.22-.03.45-.06.91-.03,1.33,0-.17.02-.33.03-.5,3.63.15,7.27-.05,10.9-.22,2.17-.1,4.35-.19,6.52-.19,2.06,0,4.11.19,6.17.13,4.2-.13,8.36-.87,12.56-.98,4.37-.11,8.74.82,13.04,1.52,4.28.69,8.54,1.52,12.82,2.13,2.71.39,5.39-.02,8.08-.29,5.76.26,11.26,2.66,16.9,3.85,6.33,2.3,13.03,3.03,19.72,2.76.13-.04.25-.08.38-.12.57-.2.91-.46,1.13-.79-7.2.46-14.42-.21-21.23-2.68Z"/>
            <path class="cls-14" d="M49.55,33.61c-3.73.16-7.48.13-11.2.51-1.59.16-3.15.42-4.7.79,1.35.04,2.75.08,4.18.11.17-.02.34-.04.52-.06,3.72-.38,7.47-.35,11.2-.51,2.86-.12,5.58.13,8.3.78.97,0,1.93,0,2.87,0-.25-.08-.49-.17-.74-.24-3.45-1.07-6.83-1.51-10.43-1.36Z"/>
            <path class="cls-15" d="M7.89,26.89c1.14-.19,2.28-.35,3.42-.5-1.36-.13-2.71-.29-4.06-.39-1.65-.13-3.3-.24-4.95-.32-.04.47-.08.97-.04,1.37.01-.18.03-.36.04-.53,1.65.08,3.3.19,4.95.32.21.02.42.04.63.06Z"/>
          </g>
          <path class="cls-7" d="M110.73,24.36c.01-.73.04-1.46.06-2.19-.48.86-1.07,1.64-1.82,2.3-2.92,2.54-7.36,3.04-11.03,3.56-9.35,1.3-18.76,2.01-28.2,2.12-9.12.11-18.39.37-27.46-.23-4.53-.3-9.24.25-13.78.36-4.5.11-9.01.16-13.51.02-1.72-.05-3.41-.13-5.12-.41-.67-.11-2.59-.15-3.14-.68-.93-.91.04-1.05.95-1.6-.95-.75-3.22-.31-3.91-1.23-.56-.75.14-1.78-.04-2.58-.11-.46-1.59-1.82-1.44-2.16-.34.75.07,2.2.11,2.89.03.65-.33,2.5.03,3.04.2.3.69.35.97.52-.55-.3-.57,2.08-.55,2.21.08.76.21,2.44,1.13,2.71,1.98.58,22.25,2.2,52.6,2.2s50.62-1.62,52.6-2.2c.91-.27,1.02-2.37,1.03-3.1.03-1.14-.23-1.41-1.42-1.48-2.03-.12-4.08.28-6.09.17,2.09-.8,4.46-.58,6.56-1.31,1.51-.52,1.48-1.54,1.5-2.94Z"/>
          <g class="cls-1">
            <path class="cls-21" d="M110.81,11.1c-.08-3.05-23.76-11.1-54.57-11.1-3.43,0-6.86.1-10.28.3-2.85.17-5.69.47-8.54.71-.5.04-.81.11-1.16.28-.19.09-.28.42-.55.52-.66.26-1.83-.15-2.53-.13-1.17.03-2.42.18-3.52.35-2.51.39-5.02.85-7.51,1.37-4.93,1.04-9.89,2.29-14.56,4.19-1.18.48-5.26,1.79-5.31,3.52-.01.54-.02,1.09-.03,1.63,0,0,.01,0,.02,0,0-.19,0-.37.01-.56.04-1.55,2.55-2.77,3.73-3.31.65-.3,1.3-.66,2.03-.7.82-.03,1.27.22,2.14-.19,3.21-1.52,6.47-3.09,9.98-3.81,2.3-.47,4.67-.45,6.99-.79,1.99-.29,4-.59,6.03-.64.71-.02,1.87.39,2.53.13.27-.11.36-.43.55-.52.35-.17.65-.24,1.16-.28,2.37-.2,4.74-.44,7.11-.61,2.24-.16,4.5-.55,6.76-.42,1.79.1,3.61-.14,5.41-.07,2.3.08,4.6.17,6.9.29,1.89.1,3.96-.38,5.8-.14,1.06.14,2.08.36,3.15.46,3.07.3,6.24,1.04,9.29,1.05,2.26,0,4.41.73,6.59,1.24,6.11,1.44,12.38,2.75,18.2,5.31,1,.44,4.13,1.54,4.16,2.99.01.41.09.99.13,1.58.09-.86-.12-1.98-.13-2.65Z"/>
          </g>
          <path class="cls-2" d="M7.63,19.29c-1.4,1.21-3.88,1.16-1.92,3.73-.97.03-1.12.59-1.85.94.98,3.58,6.86,2.12,9.52,1.8-.38-2.93,1.27-3.27,3.72-3.52,4.92-.51,9.8-.71,14.69-1.06,1.82-.13,7.65-.84,3.27-2.7,5.07-2.88,12.95-2.6,18.62-3.17,5.63-.56,11.3-.62,16.94-1.03,2.6-.19,5.15-.44,7.67-1.02.53-.12,5.75-1.92,5.68-1.97-.34-.29-.58-1.02-.97-1.31,2.89-1.67,5.99-2.21,9.27-2.32-2.33-2.72-8.89-2.91-12.28-3.51-6.8-1.2-13.61-2.05-20.51-2.4-3.41-.18-11.91-1.37-14.71,1.25-2.29,2.13-.58,3.65-4.28,4.73-3.12.91-6.46,1.24-9.71,1.08-5.58-.26-3.76-1.05-1.7-4.12-3.21-1.35-10.6,1.43-14.07,2.45-2.5.74-9.04,1.77-10.78,3.99-2.99,3.8-.17,7.15,3.41,8.15Z"/>
        </g>
      </g>
    </g>
  </g>
</svg>