<?xml version="1.0" encoding="UTF-8"?>
<svg xmlns="http://www.w3.org/2000/svg" xmlns:xlink="http://www.w3.org/1999/xlink" viewBox="0 0 353.81 63.79">
  <defs>
    <style>
      .cls-1 {
        fill: url(#_Áåçûìÿííûé_ãðàäèåíò_27-16);
      }

      .cls-1, .cls-2, .cls-3, .cls-4, .cls-5, .cls-6, .cls-7, .cls-8, .cls-9, .cls-10, .cls-11, .cls-12, .cls-13, .cls-14, .cls-15, .cls-16, .cls-17, .cls-18, .cls-19, .cls-20, .cls-21, .cls-22, .cls-23, .cls-24, .cls-25, .cls-26, .cls-27, .cls-28, .cls-29, .cls-30, .cls-31, .cls-32, .cls-33, .cls-34, .cls-35, .cls-36, .cls-37, .cls-38 {
        mix-blend-mode: multiply;
      }

      .cls-1, .cls-2, .cls-3, .cls-5, .cls-6, .cls-7, .cls-8, .cls-9, .cls-11, .cls-12, .cls-13, .cls-14, .cls-15, .cls-16, .cls-17, .cls-18, .cls-19, .cls-21, .cls-22, .cls-23, .cls-24, .cls-25, .cls-26, .cls-27, .cls-28, .cls-29, .cls-30, .cls-31, .cls-33, .cls-34, .cls-36, .cls-37, .cls-38 {
        opacity: .12;
      }

      .cls-2 {
        fill: url(#_Áåçûìÿííûé_ãðàäèåíò_27-26);
      }

      .cls-3 {
        fill: url(#_Áåçûìÿííûé_ãðàäèåíò_27-14);
      }

      .cls-4 {
        fill: url(#_Áåçûìÿííûé_ãðàäèåíò_27-18);
      }

      .cls-4, .cls-35 {
        opacity: .23;
      }

      .cls-5 {
        fill: url(#_Áåçûìÿííûé_ãðàäèåíò_27-25);
      }

      .cls-39 {
        fill: url(#_Áåçûìÿííûé_ãðàäèåíò_323-4);
        opacity: .43;
      }

      .cls-6 {
        fill: url(#_Áåçûìÿííûé_ãðàäèåíò_27-2);
      }

      .cls-7 {
        fill: url(#_Áåçûìÿííûé_ãðàäèåíò_27-10);
      }

      .cls-8 {
        fill: url(#_Áåçûìÿííûé_ãðàäèåíò_27-4);
      }

      .cls-9 {
        fill: url(#_Áåçûìÿííûé_ãðàäèåíò_27-28);
      }

      .cls-40 {
        fill: url(#_Áåçûìÿííûé_ãðàäèåíò_17);
      }

      .cls-10 {
        opacity: .09;
      }

      .cls-10, .cls-16, .cls-41 {
        fill: #7a2900;
      }

      .cls-11 {
        fill: url(#_Áåçûìÿííûé_ãðàäèåíò_27-15);
      }

      .cls-12 {
        fill: url(#_Áåçûìÿííûé_ãðàäèåíò_27-31);
      }

      .cls-13 {
        fill: url(#_Áåçûìÿííûé_ãðàäèåíò_27-8);
      }

      .cls-14 {
        fill: url(#_Áåçûìÿííûé_ãðàäèåíò_27-34);
      }

      .cls-42 {
        isolation: isolate;
      }

      .cls-15 {
        fill: url(#_Áåçûìÿííûé_ãðàäèåíò_27-29);
      }

      .cls-17 {
        fill: url(#_Áåçûìÿííûé_ãðàäèåíò_27-7);
      }

      .cls-18 {
        fill: url(#_Áåçûìÿííûé_ãðàäèåíò_27-27);
      }

      .cls-19 {
        fill: url(#_Áåçûìÿííûé_ãðàäèåíò_27-6);
      }

      .cls-20 {
        opacity: .58;
      }

      .cls-20, .cls-32 {
        fill: #864300;
      }

      .cls-21 {
        fill: url(#_Áåçûìÿííûé_ãðàäèåíò_27-20);
      }

      .cls-22 {
        fill: url(#_Áåçûìÿííûé_ãðàäèåíò_27-11);
      }

      .cls-23 {
        fill: url(#_Áåçûìÿííûé_ãðàäèåíò_27-30);
      }

      .cls-24 {
        fill: url(#_Áåçûìÿííûé_ãðàäèåíò_27-3);
      }

      .cls-43 {
        fill: url(#_Áåçûìÿííûé_ãðàäèåíò_381);
      }

      .cls-25 {
        fill: url(#_Áåçûìÿííûé_ãðàäèåíò_27-22);
      }

      .cls-26 {
        fill: url(#_Áåçûìÿííûé_ãðàäèåíò_27-5);
      }

      .cls-27 {
        fill: url(#_Áåçûìÿííûé_ãðàäèåíò_27-19);
      }

      .cls-28 {
        fill: url(#_Áåçûìÿííûé_ãðàäèåíò_27-12);
      }

      .cls-29 {
        fill: url(#_Áåçûìÿííûé_ãðàäèåíò_27-13);
      }

      .cls-30 {
        fill: url(#_Áåçûìÿííûé_ãðàäèåíò_27-24);
      }

      .cls-44 {
        mix-blend-mode: screen;
        opacity: .75;
      }

      .cls-31 {
        fill: url(#_Áåçûìÿííûé_ãðàäèåíò_27-33);
      }

      .cls-45 {
        fill: url(#_Áåçûìÿííûé_ãðàäèåíò_323-3);
      }

      .cls-45, .cls-46 {
        opacity: .66;
      }

      .cls-32 {
        opacity: .61;
      }

      .cls-33 {
        fill: url(#_Áåçûìÿííûé_ãðàäèåíò_27-21);
      }

      .cls-34 {
        fill: url(#_Áåçûìÿííûé_ãðàäèåíò_27-9);
      }

      .cls-35 {
        fill: url(#_Áåçûìÿííûé_ãðàäèåíò_27);
      }

      .cls-47 {
        opacity: .19;
      }

      .cls-36 {
        fill: url(#_Áåçûìÿííûé_ãðàäèåíò_27-32);
      }

      .cls-48 {
        fill: url(#_Áåçûìÿííûé_ãðàäèåíò_323-2);
      }

      .cls-37 {
        fill: url(#_Áåçûìÿííûé_ãðàäèåíò_27-23);
      }

      .cls-46 {
        fill: url(#_Áåçûìÿííûé_ãðàäèåíò_323);
      }

      .cls-38 {
        fill: url(#_Áåçûìÿííûé_ãðàäèåíò_27-17);
      }
    </style>
    <linearGradient id="_Áåçûìÿííûé_ãðàäèåíò_381" data-name="Áåçûìÿííûé ãðàäèåíò 381" x1="179.08" y1="66.21" x2="171.17" y2="-3.89" gradientUnits="userSpaceOnUse">
      <stop offset="0" stop-color="#b44d2f"/>
      <stop offset=".27" stop-color="#b7502d"/>
      <stop offset=".5" stop-color="#c15b29"/>
      <stop offset=".71" stop-color="#d26c21"/>
      <stop offset=".92" stop-color="#ea8517"/>
      <stop offset="1" stop-color="#f59113"/>
    </linearGradient>
    <linearGradient id="_Áåçûìÿííûé_ãðàäèåíò_323" data-name="Áåçûìÿííûé ãðàäèåíò 323" x1="184.18" y1="88.68" x2="174.12" y2="-.46" gradientUnits="userSpaceOnUse">
      <stop offset="0" stop-color="#e2ae2d"/>
      <stop offset=".36" stop-color="#e1ab2a"/>
      <stop offset=".61" stop-color="#e0a320"/>
      <stop offset=".84" stop-color="#de9611"/>
      <stop offset="1" stop-color="#d80"/>
    </linearGradient>
    <linearGradient id="_Áåçûìÿííûé_ãðàäèåíò_27" data-name="Áåçûìÿííûé ãðàäèåíò 27" x1="177.71" y1="65.35" x2="168.96" y2="-12.29" gradientUnits="userSpaceOnUse">
      <stop offset="0" stop-color="#b44320"/>
      <stop offset="1" stop-color="#ff9215"/>
    </linearGradient>
    <linearGradient id="_Áåçûìÿííûé_ãðàäèåíò_27-2" data-name="Áåçûìÿííûé ãðàäèåíò 27" x1="223.5" y1="54.91" x2="217.36" y2=".42" xlink:href="#_Áåçûìÿííûé_ãðàäèåíò_27"/>
    <linearGradient id="_Áåçûìÿííûé_ãðàäèåíò_27-3" data-name="Áåçûìÿííûé ãðàäèåíò 27" x1="145.9" y1="190.43" x2="124.89" y2="4.12" xlink:href="#_Áåçûìÿííûé_ãðàäèåíò_27"/>
    <linearGradient id="_Áåçûìÿííûé_ãðàäèåíò_27-4" data-name="Áåçûìÿííûé ãðàäèåíò 27" x1="196.44" y1="56.76" x2="190.2" y2="1.4" xlink:href="#_Áåçûìÿííûé_ãðàäèåíò_27"/>
    <linearGradient id="_Áåçûìÿííûé_ãðàäèåíò_27-5" data-name="Áåçûìÿííûé ãðàäèåíò 27" x1="112.72" y1="134.79" x2="97.04" y2="-4.19" xlink:href="#_Áåçûìÿííûé_ãðàäèåíò_27"/>
    <linearGradient id="_Áåçûìÿííûé_ãðàäèåíò_27-6" data-name="Áåçûìÿííûé ãðàäèåíò 27" x1="206.57" y1="55.65" x2="200.51" y2="1.93" xlink:href="#_Áåçûìÿííûé_ãðàäèåíò_27"/>
    <linearGradient id="_Áåçûìÿííûé_ãðàäèåíò_27-7" data-name="Áåçûìÿííûé ãðàäèåíò 27" x1="71.06" y1="114.58" x2="59.78" y2="14.58" xlink:href="#_Áåçûìÿííûé_ãðàäèåíò_27"/>
    <linearGradient id="_Áåçûìÿííûé_ãðàäèåíò_27-8" data-name="Áåçûìÿííûé ãðàäèåíò 27" x1="209.36" y1="57.17" x2="202.94" y2=".2" xlink:href="#_Áåçûìÿííûé_ãðàäèåíò_27"/>
    <linearGradient id="_Áåçûìÿííûé_ãðàäèåíò_27-9" data-name="Áåçûìÿííûé ãðàäèåíò 27" x1="294.87" y1="80.73" x2="284.54" y2="-10.92" xlink:href="#_Áåçûìÿííûé_ãðàäèåíò_27"/>
    <linearGradient id="_Áåçûìÿííûé_ãðàäèåíò_27-10" data-name="Áåçûìÿííûé ãðàäèåíò 27" x1="93.16" y1="70.92" x2="82.98" y2="-19.31" xlink:href="#_Áåçûìÿííûé_ãðàäèåíò_27"/>
    <linearGradient id="_Áåçûìÿííûé_ãðàäèåíò_27-11" data-name="Áåçûìÿííûé ãðàäèåíò 27" x1="276.36" y1="65.74" x2="267.54" y2="-12.49" xlink:href="#_Áåçûìÿííûé_ãðàäèåíò_27"/>
    <linearGradient id="_Áåçûìÿííûé_ãðàäèåíò_27-12" data-name="Áåçûìÿííûé ãðàäèåíò 27" x1="123.96" y1="81.75" x2="114.11" y2="-5.62" xlink:href="#_Áåçûìÿííûé_ãðàäèåíò_27"/>
    <linearGradient id="_Áåçûìÿííûé_ãðàäèåíò_27-13" data-name="Áåçûìÿííûé ãðàäèåíò 27" x1="301.47" y1="72.16" x2="291.53" y2="-15.92" xlink:href="#_Áåçûìÿííûé_ãðàäèåíò_27"/>
    <linearGradient id="_Áåçûìÿííûé_ãðàäèåíò_27-14" data-name="Áåçûìÿííûé ãðàäèåíò 27" x1="275.09" y1="55.63" x2="265.19" y2="-32.1" xlink:href="#_Áåçûìÿííûé_ãðàäèåíò_27"/>
    <linearGradient id="_Áåçûìÿííûé_ãðàäèåíò_27-15" data-name="Áåçûìÿííûé ãðàäèåíò 27" x1="4.08" y1="69.15" x2="-2.28" y2="12.81" xlink:href="#_Áåçûìÿííûé_ãðàäèåíò_27"/>
    <linearGradient id="_Áåçûìÿííûé_ãðàäèåíò_27-16" data-name="Áåçûìÿííûé ãðàäèåíò 27" x1="177.71" y1="72.86" x2="167.12" y2="-21.03" xlink:href="#_Áåçûìÿííûé_ãðàäèåíò_27"/>
    <linearGradient id="_Áåçûìÿííûé_ãðàäèåíò_27-17" data-name="Áåçûìÿííûé ãðàäèåíò 27" x1="193.79" y1="67.95" x2="182.13" y2="-35.49" xlink:href="#_Áåçûìÿííûé_ãðàäèåíò_27"/>
    <linearGradient id="_Áåçûìÿííûé_ãðàäèåíò_323-2" data-name="Áåçûìÿííûé ãðàäèåíò 323" x1="176.24" y1="71.22" x2="172.29" y2="36.17" xlink:href="#_Áåçûìÿííûé_ãðàäèåíò_323"/>
    <linearGradient id="_Áåçûìÿííûé_ãðàäèåíò_17" data-name="Áåçûìÿííûé ãðàäèåíò 17" x1="183.07" y1="76.06" x2="174.03" y2="-4.31" gradientUnits="userSpaceOnUse">
      <stop offset="0" stop-color="#b43e23"/>
      <stop offset="1" stop-color="#f59113"/>
    </linearGradient>
    <linearGradient id="_Áåçûìÿííûé_ãðàäèåíò_323-3" data-name="Áåçûìÿííûé ãðàäèåíò 323" x1="188.42" y1="100.51" x2="176.95" y2="-1.33" xlink:href="#_Áåçûìÿííûé_ãðàäèåíò_323"/>
    <linearGradient id="_Áåçûìÿííûé_ãðàäèåíò_27-18" data-name="Áåçûìÿííûé ãðàäèåíò 27" x1="181.8" y1="76.06" x2="171.79" y2="-12.81" xlink:href="#_Áåçûìÿííûé_ãðàäèåíò_27"/>
    <linearGradient id="_Áåçûìÿííûé_ãðàäèåíò_27-19" data-name="Áåçûìÿííûé ãðàäèåíò 27" x1="227.51" y1="63.05" x2="220.44" y2=".24" xlink:href="#_Áåçûìÿííûé_ãðàäèåíò_27"/>
    <linearGradient id="_Áåçûìÿííûé_ãðàäèåíò_27-20" data-name="Áåçûìÿííûé ãðàäèåíò 27" x1="151.11" y1="212.89" x2="127.27" y2="1.11" xlink:href="#_Áåçûìÿííûé_ãðàäèåíò_27"/>
    <linearGradient id="_Áåçûìÿííûé_ãðàäèåíò_27-21" data-name="Áåçûìÿííûé ãðàäèåíò 27" x1="200.35" y1="64.97" x2="193.17" y2="1.25" xlink:href="#_Áåçûìÿííûé_ãðàäèåíò_27"/>
    <linearGradient id="_Áåçûìÿííûé_ãðàäèåíò_27-22" data-name="Áåçûìÿííûé ãðàäèåíò 27" x1="117.21" y1="151.91" x2="99.43" y2="-6.06" xlink:href="#_Áåçûìÿííûé_ãðàäèåíò_27"/>
    <linearGradient id="_Áåçûìÿííûé_ãðàäèåíò_27-23" data-name="Áåçûìÿííûé ãðàäèåíò 27" x1="210.49" y1="63.72" x2="203.52" y2="1.79" xlink:href="#_Áåçûìÿííûé_ãðàäèåíò_27"/>
    <linearGradient id="_Áåçûìÿííûé_ãðàäèåíò_27-24" data-name="Áåçûìÿííûé ãðàäèåíò 27" x1="74.94" y1="127.57" x2="62.09" y2="13.49" xlink:href="#_Áåçûìÿííûé_ãðàäèåíò_27"/>
    <linearGradient id="_Áåçûìÿííûé_ãðàäèåíò_27-25" data-name="Áåçûìÿííûé ãðàäèåíò 27" x1="213.35" y1="65.57" x2="205.97" y2="0" xlink:href="#_Áåçûìÿííûé_ãðàäèåíò_27"/>
    <linearGradient id="_Áåçûìÿííûé_ãðàäèåíò_27-26" data-name="Áåçûìÿííûé ãðàäèåíò 27" x1="299.62" y1="92.76" x2="287.84" y2="-11.89" xlink:href="#_Áåçûìÿííûé_ãðàäèåíò_27"/>
    <linearGradient id="_Áåçûìÿííûé_ãðàäèåíò_27-27" data-name="Áåçûìÿííûé ãðàäèåíò 27" x1="97.03" y1="83.1" x2="85.42" y2="-19.97" xlink:href="#_Áåçûìÿííûé_ãðàäèåíò_27"/>
    <linearGradient id="_Áåçûìÿííûé_ãðàäèåíò_27-28" data-name="Áåçûìÿííûé ãðàäèåíò 27" x1="280.88" y1="76.41" x2="270.8" y2="-13.14" xlink:href="#_Áåçûìÿííûé_ãðàäèåíò_27"/>
    <linearGradient id="_Áåçûìÿííûé_ãðàäèåíò_27-29" data-name="Áåçûìÿííûé ãðàäèåíò 27" x1="127.92" y1="93.43" x2="116.7" y2="-6.28" xlink:href="#_Áåçûìÿííûé_ãðàäèåíò_27"/>
    <linearGradient id="_Áåçûìÿííûé_ãðàäèåíò_27-30" data-name="Áåçûìÿííûé ãðàäèåíò 27" x1="306.2" y1="83.77" x2="294.88" y2="-16.74" xlink:href="#_Áåçûìÿííûé_ãðàäèåíò_27"/>
    <linearGradient id="_Áåçûìÿííûé_ãðàäèåíò_27-31" data-name="Áåçûìÿííûé ãðàäèåíò 27" x1="279.7" y1="67.44" x2="268.42" y2="-32.79" xlink:href="#_Áåçûìÿííûé_ãðàäèåíò_27"/>
    <linearGradient id="_Áåçûìÿííûé_ãðàäèåíò_27-32" data-name="Áåçûìÿííûé ãðàäèåíò 27" x1="7.16" y1="77.64" x2="-.15" y2="12.78" xlink:href="#_Áåçûìÿííûé_ãðàäèåíò_27"/>
    <linearGradient id="_Áåçûìÿííûé_ãðàäèåíò_27-33" data-name="Áåçûìÿííûé ãðàäèåíò 27" x1="181.98" y1="85.33" x2="169.92" y2="-21.78" xlink:href="#_Áåçûìÿííûé_ãðàäèåíò_27"/>
    <linearGradient id="_Áåçûìÿííûé_ãðàäèåíò_27-34" data-name="Áåçûìÿííûé ãðàäèåíò 27" x1="198.25" y1="81.52" x2="184.98" y2="-36.39" xlink:href="#_Áåçûìÿííûé_ãðàäèåíò_27"/>
    <linearGradient id="_Áåçûìÿííûé_ãðàäèåíò_323-4" data-name="Áåçûìÿííûé ãðàäèåíò 323" x1="21.22" y1="44.36" x2="332.26" y2="44.36" xlink:href="#_Áåçûìÿííûé_ãðàäèåíò_323"/>
  </defs>
  <g class="cls-42">
    <g id="Layer_2" data-name="Layer 2">
      <g id="Layer_1-2" data-name="Layer 1">
        <g>
          <path class="cls-41" d="M338.51,61.72c.24-.05.48-.1.72-.15,2.64-1.66,5.28-3.32,7.68-5.08,1.58-1.16-1.16-6.08-1.2-7.56-.01-.57-.04-1.15-.06-1.72-.12-2.83-.28-5.66.29-8.47.98-4.85,2.2-9.63,2.71-14.5.1-.99,1.45-13.42-.89-13.53-1.45-.07-2.29-.54-3.69-.69.78-.31.95-.61,2.03-.86,2.22-3.65-1.23-4.19-7.27-4.3-17.12-.32-34.27.68-51.28.5-12.56-.13-25.08-.73-37.65-.43-8.88.21-23.51,1.68-31.9-.27-6.65-1.55-7.43-2.85-15.76-1.54-9.88,1.56-18.4,2.32-28.73,2.32-19.92,0-40.57-1.93-60.37-1.17-3.4.13-6.48.74-9.81,1.09-4.33.45-5.74-.23-9.48-.45-13.7-.81-27.89.52-41.63.52-12.03,0-24.73-.77-36.67-.29-5.51.22-12.99-.86-14.12,2.47-1.03,3.04-.46,6.18-.79,9.24-.25,2.41-1.69,5.87.69,8.06.25.23,1.6.68,1.61,1.01.02.64-.98.34-1.39.85-2.06,2.54,1.7,3.95,3.11,6.09-.87.36-2.14.66-2.66,1.18-1.49,1.51-.83,4.02-1.15,5.69-.36,1.91.63,3.82.45,5.73-.24,2.6-.28,5.2-.21,7.81.02.84.26,1.86.47,2.91,3.11,1.81,6.16,3.65,9.07,5.55,1.24.06,2.46.11,3.6.13,3.58.09,6.57.05,9.99-.49,2.74-.44,6.54-1.45,9.44-1.36,3.55.12,6.61,1.15,11.05,1.12,9.62-.07,19.29-.29,28.86-.29h37.85c8.88,0,19.01.72,27.8-.06,5.69-.5,10.73-2.39,16.71-2.41,4.13-.02,3.32.63,5.94,1.08,4.68.8,9.81.94,15.35.82,18-.4,35.92-.1,53.93-.01,5.43.03,10.88.06,16.3.18,4.31.1,8.59-.84,12.81-.64-.08,2.59,40.97,1.62,43.51,1.61,8.16-.01,16.3.48,24.46.39,3-.03,6.78.12,10.26-.07Z"/>
          <path class="cls-43" d="M346.94,42.54c.03-1.53,0-3.06-.33-4.56-.01-.06-20.03.23-21.81.12,1.96-.22,21.35-.97,21.45-1.34,1.78-6.77,2.41-13.34,2.94-20.18.23-3,.91-6.46-.01-9.43-.8-2.59-6.35-6.89-11.96-6.97-16.58-.23-33.19.69-49.67.52-12.56-.13-25.08-.73-37.65-.43-51.32,1.2-104.83,3.04-156.04,0-13.7-.81-27.89.52-41.63.52-12.03,0-24.73-.77-36.67-.29-1.93.08-4.09,0-6.15,0C6.44,1.59,3.58,2.76,1.13,4.14c-.57,2.64-.21,5.42-.23,8.12-.02,3.4-2.07,9.28,1.94,12.25,1.8,1.33,4.62,1.28,7.45,1.33,1.56.03,6.92.69,7.97.5-2.35.41-5.03.37-7.47.3-1.49-.05-6.59-.96-7.75-.62-2.3.66-.32,3.08,1.31,3.98,2.59,1.43,5.54,1.25,9.03,1.61,3.62.37,8.47-.29,11.57.29-3.78.09-7.59.5-11.42.62-4.1.13-10.56-.43-12.48,1.87-1.49,1.79.44,4.51.27,6.41-.38,4.18-2.08,9.56.12,13.63.94,1.73-.31,1.44,2.77,2.32,7,2,21.1-.58,28.7-.58,13.56,0,27.12,0,40.67,0h37.85c8.88,0,19.01.72,27.8-.06,7.5-.66,13.95-2.9,21.86-2.67-.69.25-1.46.83-2.42,1.08,5.81,1.05,12.47,1.22,18.56,1.09,18-.4,35.92-.1,53.93-.01,8.3.04,17.36.79,25.49.06,1.57-.14,14.69-1.88,12.48.57,3.34,1.14,11.69.29,15.61.36,6.35.11,12.7.17,19.05.17,8.16-.01,16.3.48,24.46.39,1.55-.02,18.09-1.5,18.38-.46,0,0,.01,0,.02-.01,2.27-1.64.26-7.76.21-9.8-.04-1.43.05-2.88.08-4.34Z"/>
          <path class="cls-10" d="M116.12,1.48c-10.12.4-19.78,2.8-30.09,3.23-11.47.48-22.96-.03-34.43-.24-10.96-.2-21.64.55-32.55.79-5.17.12-10.4-.37-15.54-.13-.89.04-1.74.12-2.57.22.05-.41.11-.82.2-1.22C3.58,2.76,6.44,1.59,9.42.49c2.05,0,4.22.08,6.15,0C27.5.01,40.21.78,52.24.78c13.73,0,27.92-1.33,41.62-.52,7.5.44,14.64,1.11,22.26,1.22ZM203.98,9.05s-.02.12-.05.26c9.97-.43,18.5-3.26,27.19-5.62,4.06-1.1,8.25-2.14,12.64-2.81,1.8-.28,3.6-.46,5.42-.59-29.48.34-58.92,2.9-88.51,2.5-16.34-.22-28.84.53-44.74,3.11-9.97,1.62-20.05,2.82-30.47,3.22-11.1.44-22.22-.04-33.32-.25-10.79-.2-21.29.46-32.03.75-4.8.13-9.5-.12-14.28-.15-1.86,0-3.47.17-4.98.51.02.71.05,1.42.05,2.12.5-.11,1.08-.18,1.74-.17,16.45.16,32.84-.5,49.23-1.13,11.44-.44,22.89-.93,34.37-.82,9.45.09,21.76-2.46,30.58-.51,4.15.92,5.55,1.81,10.74,1.77,9.01-.06,17.68-1.74,25.98-3.44,7.32-1.5,13.39-1.86,21.11-2.49,4.74-.39,9.52-.77,14.32-.86,3.72-.07,8.01-.02,11.21,1.11,2.28.8,3.98,1.98,3.81,3.48ZM349.27,5.64c-.5-.51-1.23-1.05-2.11-1.62-1.15-.75-8.13-4.1-9.77-3.79-5.56,1.06-11.28,1.88-17.1,2.46-21.54,2.14-43.5,1.39-65.28,1.71-6.18.09-11.8,1.26-17.17,2.8-4.23,1.21-9.37,3.39-14.46,2.11,6.88,3.03,18.67.91,25.79-.74,4.89-1.13,15.05-3.53,19.87-1.1-1.8.43-3.75,1.05-4.52,2.02,13.02,4.02,32.7,2.82,47.16,2.58,6.11-.1,12.21-.41,18.26-.92,4.5-.38,14.26-.57,17.84-2.11,2.56-1.1,2.71-2.18,1.51-3.41ZM343.66,14.16c-21.96,2.81-45.09,3.15-67.18.55-5.17-.61-10.32-1.76-15.6-2.01-5.07-.23-10.13.15-15.07.71-1.67.19-3.34.39-5,.61,5.18.36,10.23,1.03,15.21,1.9,5.85,1.02,11.56,2.23,17.44,3.2,6.48,1.06,12.81,1.56,19.57,1.73,18.48.48,36.98.2,55.47.12.35-2.65.48-5.26.46-7.53-1.75.26-3.52.51-5.29.73ZM75.83,15.27c7.48-.46,15.55-.65,20.92.75,4.63,1.2,5.21,2.96,11.54,3.07,21.23.35,42.42-2.41,63.2-4.32,5.15-.47,15.83-1.69,20.5.23.82.34-1.16,1.04-.28,1.45,1.86.88,2.8,1.04,5.22,1.46,6.3,1.09,13.75.15,19.87,1.45,9.91,2.11-.91,3.57,2.73,6.39,3.86,2.99,28.25.1,34.16-.01,7.57-.15,17.74-.61,24.29,1.72,21.05,7.46,46.1,2.46,68.46,4.19,0,0,.01,0,.02,0,.95-1.96.24-4.01,1.62-5.93-5.43-.16-10.78-.29-16.29-.25-8.15.05-16.29.09-24.44.03-8.11-.06-16.4-.05-24.43-.68-12.54-.97-23.89-4.43-36.8-4.58-6.15-.07-17.19,1.65-22.49-.44-1.16-.46.19-1.53-1.42-2.16-2.65-1.04-8.23-1.17-11.36-1.46-3.93-.36-14.96-.45-16.58-2.9.38.57,3.37-1.79,3.16-2.55-23.46-4.62-50.28,3.37-73.5,4.6-4.71.25-10.43.7-14.95-.28-3-.66-4.59-1.82-7.79-2.3-6.11-.93-13.73.74-19.96.99-11.64.48-23.14,1.24-34.78,1.69-14.58.56-29.18,1.06-43.81.92-.73,0-1.36-.1-1.89-.24-.06,2.06.03,4.26.83,6.2,20.8-2.33,41.41-4.97,62.53-6.19,3.29-.19,7.4-.55,11.72-.81ZM205.56,23.67c.17.2.27.42.29.67.2,1.99-5.86,3.56-4.85,5.81,3.05,6.85,26.4,2.61,32.98.08-5.59-.26-11.21.49-16.82.02-7.92-.66-7-1.93-8.84-5.28-3.23-5.89-23.16-5.06-32.86-4.68-7.39.29-14.73.85-22.06,1.42-7.42.57-14.87,1.18-22.35,1.45-7.25.26-14.5.09-21.72-.27-13.77-.68-27.32-1.82-41.2-1.57-22.26.4-44.07,2.9-65.82,5.33-.96,1.46.67,2.29,2.15,3.1,3.1,1.72,26.17-.45,30.89-.6,24.18-.77,48.5-8.79,73.15-4.88,5.06.8,6.86,2.46,10.7,3.92,3.94,1.49,9.35,2.28,14.11,2.54,13.99.77,26.03-1.65,38.8-4.23,4.38-.88,30.37-6.49,33.45-2.83ZM161.46,38.32c10.18-1.42,25.7-6.7,36.11-3.32,3.43,1.11,2.63,2.37,4.17,3.91,2.05,2.02,5.49,1.38,9.09,1.57,11.9.62,23.07.43,35.04.33,7.63-.07,13.25,3.29,20.62,3.87,9.9.78,20.32-.66,30.25-.85,14.71-.28,29.38-.73,44.11-.8,2,0,4-.02,6-.02,0-.15.01-.31.03-.46.14-1.9-.09-3.01-1.16-3.67-3.18.28-6.38.5-9.61.61-14.2.52-28.44-1.24-42.41-2.34-20.14-1.58-40.1.57-60.32.47-9.35-.04-19.96.3-28.79-1.61-4.03-.87-5.63-2.63-9.04-3.68-3.67-1.14-10.67-1.35-14.78-1.08-6.98.47-13.38,2.19-19.89,3.48-13.1,2.59-29.3,5.51-43.52,3.99-9.27-.99-14.97-4.68-23.3-6.49-7.3-1.59-15.51-.76-22.82.35-6.82,1.04-13.1,1.41-20.13,2.02-16.59,1.43-33.24,3.36-50.15,2.86.17,1.26.46,2.52.39,3.33-.1,1.14-.31,2.36-.5,3.63.36-.1.78-.18,1.26-.23,19.86-1.94,40.02-2.66,60.2-2.67,19.45,0,39.4,1.69,58.69,1.19,13.86-.36,27.11-2.54,40.48-4.41ZM204.83,44.09c-6.87-.34-13.74-.41-20.47-.02-11.42.66-22.96,3.6-34.78,2.09,7.23,1.02,13.66,3.07,21.16,3.51,7.17.42,14.41-.15,21.45-.85,13.34-1.33,27.26-3.75,40.93-2.27-9.14-.99-18.71-1.99-28.29-2.46ZM346.63,56.69s.01,0,.02-.01c.24-1.76.28-3.5.26-5.24-8.44.19-16.9.27-25.35.25-.25,0-.51,0-.76,0-12.14-.04-24.12,1.23-36.23,1.5-5.25.12-13.1.59-17.99-.63-3.32-.83-5.14-2.55-8.54-3.44-17.89-4.69-38.5.98-55.59,3.55,18.22-2.73,32.64,2.89,50.21,3.25,17.03.35,34.06.88,51.13.85,8.16-.01,16.3.48,24.46.39,1.55-.02,18.09-1.5,18.38-.46ZM167.04,52.96c-5.97-1.01-11.8-2.28-17.8-3.23-7.61-1.2-9.62,1.94-16.61,3.05-9.85,1.57-21.81-.31-31.54-1.38-10.06-1.11-19.18-3.54-29.55-3.9-8.69-.3-16.92-.55-25.67,0-15.13.95-30.23,2.43-45.5,2.48.02.58.07,1.16.17,1.72,19.58.14,39.45.93,57.79,4.48h53.12c8.88,0,19.01.72,27.8-.06,5.69-.5,10.73-2.39,16.71-2.41,4.13-.02,3.32.63,5.94,1.08,4.68.8,9.81.94,15.35.82,1.55-.03,3.1-.06,4.64-.09-4.29.07-10.6-1.85-14.85-2.57Z"/>
          <g class="cls-44">
            <path class="cls-46" d="M349.18,7.15c-.8-2.59-6.35-6.89-11.96-6.97-16.58-.23-33.19.69-49.67.52-12.56-.13-25.08-.73-37.65-.43-51.32,1.2-104.83,3.04-156.04,0-13.7-.81-27.89.52-41.63.52-12.03,0-24.73-.77-36.67-.29-1.93.08-4.09,0-6.15,0C6.44,1.59,3.58,2.76,1.13,4.14c-.35,1.61-.35,3.28-.3,4.95.03-.89.12-1.77.3-2.63,2.45-1.38,5.31-2.56,8.29-3.65,1.33,0,2.71.03,4.05.03,2.85-.55,5.88-.87,9.11-.95,6.55-.15,13.05.54,19.6.43,8.93-.15,17.81-.86,26.77-.98,6.93-.09,13.84.06,20.74.45,2.47.14,6.78-.1,9.02.32,2.55.48,4.15,2.07,6.83,2.27,2.39.18,6.45-1.46,9.31-1.46,18.07-.06,35.67.81,53.61,1.27,4.35.11,7.35-.41,11.44-.79,10.09-.93,21.8.32,32.17.08,12.62-.29,25.19-1.01,37.81-1.3,13.79-.31,29.57-1.71,42.69.46,1.23.2,1.47.71,3.42.66,2.13-.06,2.33-1.01,2.79-1.08,2.63-.36,4.71-.1,7.89-.02,5.41.13,10.81-.54,16.28-.44,10.8.2,24.07.68,26.24,7.68.24.79.37,1.62.43,2.47.09-1.64.04-3.28-.43-4.79Z"/>
          </g>
          <path class="cls-35" d="M346.87,42.54c.12-2.77-1.51-3.8-4.66-4.15-1.82-.21-4.14-.19-6.93-.15,3.73-1.48,8.61-1.77,10.55-4.17,2.02-2.49,2.75-5.63,3.03-8.8-26.62,16.34-72.18,19.16-109.78,20.53-23.17.84-46.94.41-69.8.49-47.3.17-96.41-.51-141.14-9.64-9.64-1.96-19.97-4.68-26.12-9.23-.12,2.01,5.15,2.68,4.29,4.63-.16.36-4.08.93-4.81,1.68-1.52,1.54,0,5.32-.17,7.08-.38,4.18-2.08,9.56.12,13.63.94,1.73-.31,1.44,2.77,2.32,7,2,21.1-.58,28.7-.58,13.56,0,27.12,0,40.67,0h37.85c8.88,0,19.01.72,27.8-.06,5.69-.5,10.73-2.39,16.71-2.41,4.13-.02,3.32.63,5.94,1.08,4.68.8,9.81.94,15.35.82,18-.4,35.92-.1,53.93-.01,8.3.04,17.36.79,25.49.06,1.57-.14,14.69-1.88,12.48.57,3.34,1.14,11.69.29,15.61.36,6.35.11,12.7.17,19.05.17,8.16-.01,16.3.48,24.46.39,1.55-.02,18.09-1.5,18.38-.46,0,0,.01,0,.02-.01.63-4.7.03-9.43.23-14.14ZM285,50.08c-3.24,1.25-10.15.96-12.03-.47-2.61-2,2.84-3.19,5.93-3.43,3.75-.29,8.97.23,7.65,2.76-.24.47-.8.85-1.55,1.14ZM323.75,49.17c-5.54,1.28-13.54,1.43-19.21,1.16-3.2-.15-10.9-.39-11.3-2.71-.21-1.21,4.11-2.8,5.46-3.38,5.52-2.36,12.74-4.02,20.04-3.89,9.57.17,16.17,5.57,6.45,8.45-.46.14-.94.26-1.44.38Z"/>
          <g>
            <path class="cls-6" d="M218.78,24.74c.29-1.23,2.67-2.2,2.27-3.18-.36.95-2.57,1.93-2.27,3.18Z"/>
            <path class="cls-24" d="M5.84,9.95c4.78.02,9.48.28,14.28.15,10.74-.29,21.24-.96,32.03-.75,11.1.21,22.22.69,33.32.25,10.42-.41,20.5-1.61,30.47-3.22,15.9-2.58,28.4-3.33,44.74-3.11,27.84.38,55.56-1.88,83.3-2.42,1.73-.26,3.46-.44,5.21-.56-29.48.34-58.92,2.9-88.51,2.5-16.34-.22-28.84.53-44.74,3.11-9.97,1.62-20.05,2.82-30.47,3.22-11.1.44-22.22-.04-33.32-.25-10.79-.2-21.29.46-32.03.75-4.8.13-9.5-.12-14.28-.15-1.86,0-3.47.17-4.98.51,0,.16,0,.32.01.48,1.51-.34,3.12-.52,4.97-.51Z"/>
            <path class="cls-8" d="M191.61,16.38c.28-.33.86-.68.41-.9-.28.3-.78.64-.41.9Z"/>
            <path class="cls-26" d="M.75,16.55c.53.15,1.16.24,1.89.24,14.63.14,29.23-.36,43.81-.92,11.64-.45,23.14-1.21,34.78-1.69,6.23-.26,13.85-1.92,19.96-.99,3.2.49,4.79,1.64,7.79,2.3,4.51.99,10.23.53,14.95.28,23.18-1.22,49.96-9.2,73.39-4.62.1-.18.15-.34.12-.46-23.46-4.62-50.28,3.37-73.5,4.6-4.71.25-10.43.7-14.95-.28-3-.66-4.59-1.82-7.79-2.3-6.11-.93-13.73.74-19.96.99-11.64.48-23.14,1.24-34.78,1.69-14.58.56-29.18,1.06-43.81.92-.73,0-1.36-.1-1.89-.24-.01.36-.01.74-.01,1.11,0-.21,0-.42.01-.63Z"/>
            <path class="cls-19" d="M205.85,24.83s-.02-.08-.03-.12c-.46,1.74-5.32,3.21-4.91,5.18.38-1.87,5.12-3.3,4.94-5.06Z"/>
            <path class="cls-17" d="M1.13,4.62C3.58,3.24,6.44,2.06,9.42.97c2.05,0,4.22.08,6.15,0,11.94-.48,24.64.29,36.67.29,13.73,0,27.92-1.33,41.62-.52,5.89.35,11.55.83,17.4,1.08,1.61-.15,3.23-.27,4.86-.33-7.62-.11-14.76-.78-22.26-1.22-13.69-.81-27.88.52-41.62.52-12.03,0-24.73-.77-36.67-.29-1.93.08-4.09,0-6.15,0C6.44,1.59,3.58,2.76,1.13,4.14c-.09.4-.15.81-.2,1.22.02,0,.05,0,.08,0,.04-.25.07-.49.12-.73Z"/>
            <path class="cls-13" d="M203.99,9.3c0-.07,0-.14-.02-.21,0,.05-.02.12-.04.21.02,0,.04,0,.05,0Z"/>
            <path class="cls-34" d="M223.37,9.31c.79.35,1.65.63,2.56.85,4.23.2,8.38-1.47,11.91-2.48,5.36-1.53,10.99-2.71,17.17-2.8,21.78-.32,43.74.43,65.28-1.71,5.83-.58,11.55-1.4,17.1-2.46,1.65-.31,8.62,3.04,9.77,3.79.88.57,1.61,1.11,2.11,1.62.38.39.62.76.7,1.12.11-.51-.15-1.04-.7-1.6-.5-.51-1.23-1.05-2.11-1.62-1.15-.75-8.13-4.1-9.77-3.79-5.56,1.06-11.28,1.88-17.1,2.46-21.54,2.14-43.5,1.39-65.28,1.71-6.18.09-11.8,1.26-17.17,2.8-4.23,1.21-9.37,3.39-14.46,2.11Z"/>
            <path class="cls-7" d="M149.23,49.73c-7.61-1.2-9.62,1.94-16.61,3.05-9.85,1.57-21.81-.31-31.54-1.38-10.06-1.11-19.18-3.54-29.55-3.9-8.69-.3-16.92-.55-25.67,0-15.13.95-30.23,2.43-45.5,2.48,0,.16.02.32.03.48,15.26-.05,30.34-1.53,45.47-2.48,8.75-.55,16.98-.3,25.67,0,10.37.36,19.49,2.79,29.55,3.9,9.73,1.07,21.69,2.95,31.54,1.38,6.99-1.11,8.99-4.25,16.61-3.05,6.01.95,11.83,2.22,17.8,3.23,2.96.5,6.92,1.59,10.51,2.17,1.45-.03,2.89-.06,4.34-.08-4.29.07-10.6-1.85-14.85-2.57-5.97-1.01-11.8-2.28-17.8-3.23Z"/>
            <path class="cls-22" d="M307.34,25.46c-8.11-.06-16.4-.05-24.43-.68-12.54-.97-23.89-4.43-36.8-4.58-6.15-.07-17.19,1.65-22.49-.44-1.16-.46.19-1.53-1.42-2.16-2.65-1.04-8.23-1.17-11.36-1.46-3.64-.33-13.38-.44-16.08-2.4-.24.09-.43.09-.51-.02,1.62,2.45,12.65,2.54,16.58,2.9,3.13.29,8.71.42,11.36,1.46,1.61.63.26,1.7,1.42,2.16,5.3,2.08,16.33.36,22.49.44,12.91.15,24.25,3.6,36.8,4.58,8.03.62,16.32.61,24.43.68,8.15.06,16.29.03,24.44-.03,5.41-.03,10.67.09,16,.24.09-.16.18-.31.29-.47-5.43-.16-10.78-.29-16.29-.25-8.15.05-16.29.09-24.44.03Z"/>
            <path class="cls-28" d="M217.16,30.26c-7.92-.66-7-1.93-8.84-5.28-3.23-5.89-23.16-5.06-32.86-4.68-7.39.29-14.73.85-22.06,1.42-7.42.57-14.87,1.18-22.35,1.45-7.25.26-14.5.09-21.72-.27-13.77-.68-27.32-1.82-41.2-1.57-22.26.4-44.07,2.9-65.82,5.33-.26.4-.32.75-.26,1.07.04-.19.12-.38.26-.59,21.75-2.43,43.56-4.93,65.82-5.33,13.88-.25,27.43.88,41.2,1.57,7.22.36,14.48.53,21.72.27,7.49-.27,14.93-.88,22.35-1.45,7.33-.56,14.67-1.13,22.06-1.42,9.7-.38,29.63-1.21,32.86,4.68,1.84,3.36.92,4.62,8.84,5.28,5.18.43,10.39-.18,15.56-.06.46-.15.89-.3,1.26-.44-5.59-.26-11.21.49-16.82.02Z"/>
            <path class="cls-29" d="M276.48,14.71c-5.17-.61-10.32-1.76-15.6-2.01-5.07-.23-10.13.15-15.07.71-1.67.19-3.34.39-5,.61.78.05,1.55.12,2.33.19.89-.11,1.78-.22,2.67-.32,4.95-.56,10.01-.94,15.07-.71,5.28.24,10.44,1.4,15.6,2.01,22.09,2.61,45.22,2.27,67.18-.55,1.77-.23,3.53-.47,5.29-.73,0-.16,0-.32,0-.48-1.75.26-3.52.51-5.29.73-21.96,2.81-45.09,3.15-67.18.55Z"/>
            <path class="cls-3" d="M320.8,51.68c-12.14-.04-24.12,1.23-36.23,1.5-5.25.12-13.1.59-17.99-.63-3.32-.83-5.14-2.55-8.54-3.44-17.89-4.69-38.5.98-55.59,3.55,2.38-.36,4.68-.57,6.95-.67,15.54-2.73,33.12-6.47,48.64-2.4,3.4.89,5.22,2.61,8.54,3.44,4.89,1.22,12.74.75,17.99.63,12.11-.27,24.08-1.54,36.23-1.5.25,0,.51,0,.76,0,8.46.02,16.91-.07,25.35-.25,0-.16,0-.32,0-.48-8.44.19-16.9.27-25.35.25-.25,0-.51,0-.76,0Z"/>
            <path class="cls-11" d="M.83,44.44s.05-.01.08-.02c.17-1.09.33-2.14.42-3.13.01-.16.01-.35,0-.54,0,.02,0,.05,0,.07-.1,1.14-.31,2.36-.5,3.63Z"/>
            <path class="cls-1" d="M345.72,38.87c-3.18.28-6.38.5-9.61.61-14.2.52-28.44-1.24-42.41-2.34-20.14-1.58-40.1.57-60.32.47-9.35-.04-19.96.3-28.79-1.61-4.03-.87-5.63-2.63-9.04-3.68-3.67-1.14-10.67-1.35-14.78-1.08-6.98.47-13.38,2.19-19.89,3.48-13.1,2.59-29.3,5.51-43.52,3.99-9.27-.99-14.97-4.68-23.3-6.49-7.3-1.59-15.51-.76-22.82.35-6.82,1.04-13.1,1.41-20.13,2.02-16.59,1.43-33.24,3.36-50.15,2.86.02.16.05.32.07.48,16.89.49,33.51-1.43,50.08-2.86,7.03-.61,13.31-.98,20.13-2.02,7.31-1.11,15.52-1.94,22.82-.35,8.33,1.81,14.03,5.5,23.3,6.49,14.23,1.51,30.42-1.4,43.52-3.99,6.51-1.29,12.91-3.01,19.89-3.48,4.11-.27,11.11-.06,14.78,1.08,3.41,1.06,5.01,2.82,9.04,3.68,8.84,1.9,19.44,1.56,28.79,1.61,20.22.09,40.19-2.05,60.32-.47,13.97,1.09,28.21,2.86,42.41,2.34,3.23-.12,6.43-.34,9.61-.62.84.52,1.16,1.32,1.19,2.56.04-1.51-.25-2.45-1.19-3.03Z"/>
            <path class="cls-38" d="M204.83,44.09c-6.87-.34-13.74-.41-20.47-.02-11.42.66-22.96,3.6-34.78,2.09,1.72.24,3.4.55,5.06.87,10.06.32,19.93-1.91,29.72-2.48,6.73-.39,13.61-.32,20.47.02,6.49.32,12.96.88,19.31,1.52,3,0,6,.14,8.98.46-9.14-.99-18.71-1.99-28.29-2.46Z"/>
          </g>
          <g class="cls-47">
            <path class="cls-48" d="M347.7,52.81c-.08,1.07-.37,1.97-1.05,2.46,0,0-.01,0-.02.01-.28-1.04-16.83.44-18.38.46-.06,0-.13,0-.19,0-.45.19-1.01.33-1.69.36-4.98.27-9.96.3-14.96.3-.91,0-1.6-.18-2.09-.44-7.36.2-14.71.27-22.07-.17-.81-.05-1.45-.23-1.92-.49-3.43.17-7.23.51-10.25-.13-1.14-.24-.79-1.08-1.07-1.13-2.83-.55-5.54-.65-8.26-.55-.41.54-1.29,1-2.65,1.08-9.04.54-18.12.35-27.2.31-7.78.31-15.69.69-22.98-.83-5.34-.04-10.68-.07-16.01-.06-7.03,0-23.14,1.76-29.23-.2-.02-.25.56-.22.47-.48-1.82.28-3.88.28-5.69-.03.29-.86-.01-1.93.45-2.73-6.05,2.12-16.52,3.52-23.67,4.16-8.78.78-18.92.06-27.8.06h-8.06c-3.45.4-7.01.42-10.54.42-.27,0-.51-.02-.74-.04-8.53.66-17.09.09-25.72.04-.87,0-1.54-.17-2.03-.42-10.48,0-20.96,0-31.44,0-7.6,0-21.7,2.58-28.7.58-3.07-.88-1.83-.59-2.77-2.32-.73-1.35-1.03-2.86-1.09-4.41-.08,2.05.14,4.05,1.09,5.81.94,1.73-.31,1.44,2.77,2.32,7,2,21.1-.58,28.7-.58,13.56,0,27.12,0,40.67,0h37.85c8.88,0,19.01.72,27.8-.06,7.5-.66,13.95-2.9,21.86-2.67-.69.25-1.46.83-2.42,1.08,5.81,1.05,12.47,1.22,18.56,1.09,18-.4,35.92-.1,53.93-.01,8.3.04,17.36.79,25.49.06,1.57-.14,14.69-1.88,12.48.57,3.34,1.14,11.69.29,15.61.36,6.35.11,12.7.17,19.05.17,8.16-.01,16.3.48,24.46.39,1.55-.02,18.09-1.5,18.38-.46,0,0,.01,0,.02-.01.97-.7,1.15-2.21,1.05-3.86Z"/>
          </g>
        </g>
        <g>
          <path class="cls-41" d="M342.28,63.65c.24-.05.48-.1.72-.16,2.65-1.68,5.3-3.37,7.71-5.15,1.59-1.17-1.17-6.17-1.2-7.67-.01-.58-.04-1.17-.06-1.75-.12-2.87-.28-5.74.29-8.59.99-4.92,2.21-9.77,2.72-14.7.11-1.01,1.46-13.61-.89-13.72-1.46-.07-2.31-.55-3.71-.7.79-.32.95-.62,2.04-.87,2.23-3.7-1.24-4.24-7.3-4.36-17.19-.33-34.42.69-51.5.51-12.61-.13-25.18-.74-37.81-.44-8.91.21-23.61,1.7-32.03-.27-6.68-1.57-7.47-2.89-15.83-1.56-9.93,1.58-18.48,2.35-28.85,2.35-20,0-40.75-1.96-60.63-1.18-3.42.13-6.51.76-9.86,1.11-4.35.46-5.76-.23-9.52-.45-13.75-.82-28.01.53-41.8.53-12.08,0-24.84-.78-36.83-.29-5.54.23-13.04-.87-14.18,2.5-1.04,3.09-.47,6.26-.79,9.37-.26,2.44-1.7,5.95.69,8.18.25.23,1.61.68,1.62,1.03.02.65-.98.34-1.39.86-2.07,2.58,1.71,4,3.12,6.17-.87.36-2.15.66-2.67,1.2-1.49,1.53-.84,4.07-1.15,5.77-.36,1.94.63,3.87.46,5.81-.24,2.64-.29,5.28-.21,7.91.02.85.26,1.89.47,2.95,3.12,1.84,6.19,3.7,9.11,5.63,1.25.07,2.47.11,3.62.14,4.9.12,9.1-.7,13.75-.91,14.88-.67,30.85-.12,45.84-.12h38.01c20.82,0,41.93.9,62.72.38,8.33-.21,16.14-1.16,24.71-1.16,35.28.01,70.66,1.41,105.74,1.37,8.19-.01,16.37.49,24.56.39,3.01-.03,6.81.12,10.31-.08Z"/>
          <path class="cls-40" d="M350.74,44.2c.03-1.55,0-3.1-.33-4.62-.01-.06-20.11.24-21.9.12,1.97-.22,21.45-.98,21.54-1.36,1.78-6.87,2.41-13.52,2.95-20.47.23-3.05.91-6.55-.01-9.56-.81-2.63-6.38-6.99-12.01-7.07-16.65-.24-33.33.7-49.88.53-12.61-.13-25.18-.74-37.81-.44-51.54,1.22-105.28,3.08-156.71,0-13.75-.82-28.01.53-41.8.53-12.08,0-24.84-.78-36.83-.29-1.93.08-4.11,0-6.17,0-3,1.11-5.86,2.3-8.33,3.7-.57,2.68-.21,5.5-.23,8.24-.02,3.45-2.08,9.41,1.95,12.43,1.81,1.35,4.64,1.3,7.48,1.35,1.57.03,6.94.7,8.01.51-2.36.42-5.05.37-7.5.3-1.49-.05-6.61-.97-7.78-.63-2.31.67-.32,3.13,1.31,4.04,2.6,1.45,5.56,1.27,9.07,1.64,3.64.38,8.51-.29,11.62.29-3.8.1-7.62.51-11.47.63-4.12.13-10.6-.43-12.53,1.9-1.5,1.81.44,4.57.27,6.5-.39,4.24-2.09,9.69.12,13.82.94,1.76-.31,1.46,2.78,2.35,7.03,2.03,21.2-.59,28.83-.59,13.62,0,27.23,0,40.85,0h38.01c8.91,0,19.1.73,27.91-.06,7.53-.67,14.01-2.94,21.95-2.71-.69.25-1.46.84-2.43,1.09,5.84,1.06,12.52,1.24,18.64,1.1,18.07-.4,36.08-.1,54.16-.01,8.33.04,17.43.8,25.6.06,1.58-.14,14.75-1.91,12.53.58,3.35,1.16,11.74.3,15.67.36,6.38.11,12.75.18,19.13.17,8.19-.01,16.37.49,24.57.39,1.55-.02,18.17-1.52,18.45-.47,0,0,.01-.01.02-.01,2.28-1.66.26-7.87.21-9.94-.04-1.45.05-2.92.08-4.4Z"/>
          <path class="cls-16" d="M118.92,2.57c-10.17.4-19.87,2.84-30.22,3.27-11.52.49-23.06-.04-34.58-.24-11-.2-21.73.55-32.69.8-5.19.12-10.45-.38-15.6-.13-.89.04-1.75.12-2.58.23.05-.42.11-.83.2-1.24,2.46-1.4,5.33-2.59,8.33-3.7,2.06,0,4.24.08,6.17,0,11.99-.49,24.75.29,36.83.29,13.79,0,28.04-1.35,41.8-.53,7.54.45,14.71,1.13,22.36,1.24ZM207.17,10.24s-.02.12-.05.26c10.01-.43,18.58-3.3,27.31-5.7,4.07-1.12,8.28-2.17,12.69-2.85,1.8-.28,3.62-.47,5.45-.6-29.61.34-59.18,2.95-88.89,2.54-16.41-.22-28.97.53-44.93,3.15-10.01,1.64-20.14,2.85-30.6,3.27-11.15.44-22.32-.04-33.46-.25-10.83-.2-21.38.47-32.17.77-4.82.13-9.54-.12-14.34-.15-1.87,0-3.48.17-5,.52.02.72.05,1.44.05,2.15.5-.12,1.08-.18,1.75-.17,16.51.16,32.98-.51,49.44-1.15,11.49-.45,22.98-.94,34.51-.83,9.49.09,21.86-2.49,30.71-.52,4.17.93,5.57,1.83,10.78,1.8,9.05-.06,17.75-1.76,26.09-3.48,7.35-1.52,13.45-1.88,21.2-2.52,4.76-.39,9.56-.79,14.38-.88,3.74-.07,8.04-.02,11.26,1.12,2.29.81,4,2.01,3.83,3.53ZM353.08,6.79c-.5-.52-1.23-1.06-2.12-1.64-1.16-.76-8.16-4.16-9.81-3.84-5.58,1.07-11.32,1.91-17.18,2.49-21.63,2.17-43.69,1.41-65.56,1.73-6.2.09-11.85,1.28-17.24,2.84-4.25,1.23-9.41,3.44-14.53,2.14,6.91,3.07,18.75.92,25.9-.75,4.91-1.15,15.11-3.58,19.96-1.11-1.81.43-3.77,1.06-4.54,2.05,13.08,4.08,32.85,2.86,47.36,2.62,6.14-.1,12.27-.41,18.33-.93,4.52-.38,14.32-.58,17.91-2.14,2.58-1.11,2.73-2.21,1.52-3.46ZM347.45,15.42c-22.05,2.85-45.28,3.2-67.47.56-5.19-.62-10.36-1.79-15.67-2.04-5.09-.24-10.17.15-15.14.72-1.68.19-3.35.4-5.02.62,5.2.37,10.28,1.05,15.28,1.93,5.87,1.03,11.61,2.27,17.51,3.24,6.51,1.08,12.87,1.58,19.66,1.76,18.56.49,37.13.21,55.71.12.35-2.68.48-5.33.46-7.64-1.76.26-3.53.51-5.31.74ZM78.47,16.55c7.51-.47,15.61-.66,21.01.76,4.65,1.22,5.23,3,11.59,3.11,21.32.35,42.6-2.45,63.47-4.38,5.18-.48,15.9-1.71,20.59.23.82.34-1.17,1.05-.29,1.47,1.87.89,2.81,1.06,5.24,1.48,6.32,1.1,13.81.15,19.95,1.47,9.95,2.14-.91,3.62,2.75,6.48,3.88,3.03,28.37.1,34.3-.01,7.6-.15,17.81-.62,24.39,1.74,21.14,7.57,46.3,2.49,68.76,4.24,0,0,.01,0,.02,0,.96-1.99.24-4.07,1.63-6.02-5.45-.16-10.83-.29-16.36-.25-8.18.05-16.36.09-24.55.03-8.14-.06-16.47-.06-24.53-.69-12.6-.99-23.99-4.49-36.95-4.64-6.18-.07-17.27,1.67-22.58-.44-1.16-.46.19-1.55-1.42-2.19-2.66-1.05-8.26-1.19-11.41-1.48-3.95-.37-15.03-.46-16.66-2.94.38.58,3.38-1.82,3.18-2.59-23.56-4.69-50.5,3.42-73.82,4.66-4.73.25-10.48.71-15.01-.29-3.02-.67-4.61-1.84-7.83-2.33-6.14-.94-13.79.75-20.04,1.01-11.69.48-23.24,1.26-34.93,1.72-14.65.57-29.3,1.07-44,.94-.74,0-1.37-.1-1.9-.25-.06,2.09.03,4.32.83,6.28,20.89-2.36,41.59-5.04,62.8-6.28,3.3-.19,7.43-.55,11.77-.82ZM208.75,25.07c.17.2.27.43.29.68.2,2.01-5.88,3.61-4.88,5.89,3.06,6.95,26.51,2.65,33.13.08-5.61-.26-11.26.5-16.89.02-7.95-.67-7.03-1.95-8.88-5.35-3.24-5.98-23.26-5.14-33-4.75-7.42.29-14.79.87-22.15,1.44-7.45.58-14.93,1.2-22.45,1.47-7.28.26-14.57.09-21.82-.28-13.83-.69-27.44-1.84-41.38-1.59-22.36.4-44.26,2.94-66.1,5.41-.96,1.48.67,2.32,2.16,3.15,3.11,1.74,26.28-.46,31.03-.61,24.28-.78,48.7-8.91,73.47-4.95,5.08.81,6.89,2.5,10.74,3.97,3.96,1.52,9.38,2.31,14.17,2.57,14.05.78,26.14-1.67,38.97-4.29,4.4-.9,30.51-6.58,33.6-2.87ZM164.46,39.92c10.23-1.44,25.81-6.79,36.26-3.37,3.44,1.13,2.64,2.41,4.19,3.96,2.05,2.05,5.51,1.4,9.13,1.59,11.95.63,23.17.44,35.19.33,7.67-.07,13.31,3.33,20.71,3.92,9.94.8,20.41-.67,30.38-.86,14.78-.28,29.51-.74,44.3-.81,2.01,0,4.02-.02,6.03-.02.01-.16.02-.31.03-.47.14-1.92-.09-3.05-1.16-3.72-3.19.28-6.4.5-9.65.62-14.26.53-28.56-1.26-42.59-2.37-20.22-1.6-40.28.58-60.58.48-9.39-.04-20.04.3-28.92-1.63-4.04-.88-5.65-2.66-9.08-3.73-3.69-1.15-10.72-1.37-14.84-1.09-7.01.47-13.44,2.22-19.97,3.53-13.16,2.63-29.42,5.59-43.71,4.05-9.31-1-15.03-4.74-23.4-6.58-7.33-1.61-15.58-.77-22.92.36-6.85,1.05-13.15,1.43-20.22,2.05-16.66,1.45-33.38,3.41-50.37,2.9.18,1.28.46,2.55.39,3.38-.11,1.15-.31,2.4-.5,3.68.36-.1.78-.19,1.27-.23,19.95-1.97,40.19-2.7,60.46-2.7,19.53,0,39.57,1.71,58.94,1.21,13.92-.36,27.23-2.58,40.66-4.47ZM208.02,45.78c-6.9-.34-13.8-.42-20.56-.02-11.47.67-23.05,3.65-34.93,2.12,7.26,1.04,13.72,3.11,21.25,3.56,7.2.43,14.48-.15,21.55-.86,13.4-1.35,27.38-3.8,41.1-2.3-9.18-1-18.79-2.01-28.41-2.49ZM350.42,58.55s.01-.01.02-.02c.24-1.78.29-3.55.27-5.31-8.48.19-16.97.28-25.46.26-.25,0-.51,0-.76,0-12.19-.04-24.22,1.24-36.38,1.52-5.27.12-13.15.6-18.06-.64-3.33-.84-5.16-2.58-8.58-3.49-17.97-4.76-38.67,1-55.83,3.6,18.29-2.77,32.78,2.93,50.42,3.3,17.11.36,34.2.89,51.35.87,8.19-.01,16.37.49,24.57.39,1.55-.02,18.17-1.52,18.45-.47ZM170.07,54.77c-6-1.03-11.85-2.32-17.88-3.28-7.64-1.22-9.66,1.96-16.68,3.09-9.9,1.59-21.91-.32-31.68-1.4-10.1-1.12-19.26-3.59-29.68-3.96-8.73-.31-16.99-.56-25.78,0-15.2.97-30.36,2.46-45.7,2.51.02.59.07,1.18.17,1.75,19.66.14,39.62.94,58.04,4.55h53.34c8.91,0,19.1.73,27.91-.06,5.72-.51,10.78-2.42,16.78-2.45,4.15-.02,3.33.64,5.97,1.1,4.7.81,9.85.96,15.42.83,1.55-.04,3.11-.06,4.66-.09-4.31.07-10.65-1.87-14.91-2.6Z"/>
          <g class="cls-44">
            <path class="cls-45" d="M352.99,8.32c-.81-2.63-6.38-6.99-12.01-7.07-16.65-.24-33.33.7-49.88.53-12.61-.13-25.18-.74-37.81-.44-51.54,1.22-105.28,3.08-156.71,0-13.75-.82-28.01.53-41.8.53-12.08,0-24.84-.78-36.83-.29-1.93.08-4.11,0-6.17,0-3,1.11-5.86,2.3-8.33,3.7-.35,1.64-.35,3.33-.3,5.02.03-.9.12-1.79.3-2.67,2.46-1.4,5.33-2.59,8.33-3.7,1.34,0,2.72.03,4.06.03,2.86-.55,5.9-.88,9.15-.96,6.57-.16,13.11.55,19.69.44,8.97-.15,17.89-.87,26.88-.99,6.96-.09,13.9.06,20.82.46,2.48.14,6.82-.1,9.06.33,2.56.49,4.16,2.1,6.86,2.3,2.4.18,6.47-1.48,9.35-1.49,18.15-.06,35.82.82,53.84,1.29,4.36.11,7.38-.42,11.49-.8,10.14-.94,21.9.32,32.31.08,12.68-.29,25.3-1.02,37.97-1.31,13.85-.32,29.7-1.73,42.88.47,1.23.21,1.48.72,3.43.67,2.14-.06,2.34-1.03,2.8-1.09,2.64-.36,4.73-.1,7.92-.02,5.43.14,10.86-.54,16.35-.44,10.85.2,24.17.69,26.35,7.79.25.8.38,1.64.43,2.5.09-1.66.04-3.32-.43-4.86Z"/>
          </g>
          <path class="cls-4" d="M350.67,44.2c.12-2.81-1.52-3.85-4.68-4.21-1.82-.21-4.16-.19-6.96-.16,3.75-1.5,8.65-1.8,10.59-4.22,2.03-2.53,2.76-5.71,3.04-8.93-26.74,16.57-72.49,19.43-110.25,20.82-23.27.86-47.14.42-70.1.5-47.5.17-96.82-.52-141.74-9.77-9.68-1.99-20.05-4.74-26.23-9.36-.12,2.04,5.17,2.71,4.3,4.69-.16.37-4.09.95-4.83,1.7-1.53,1.56,0,5.4-.17,7.18-.39,4.24-2.09,9.69.12,13.82.94,1.76-.31,1.46,2.78,2.35,7.03,2.03,21.2-.59,28.83-.59,13.62,0,27.23,0,40.85,0h38.01c8.91,0,19.1.73,27.91-.06,5.72-.51,10.78-2.42,16.78-2.45,4.15-.02,3.33.64,5.97,1.1,4.7.81,9.85.96,15.42.83,18.07-.4,36.08-.1,54.16-.01,8.33.04,17.43.8,25.6.06,1.58-.14,14.75-1.91,12.53.58,3.35,1.16,11.74.3,15.67.36,6.38.11,12.75.18,19.13.17,8.19-.01,16.37.49,24.57.39,1.55-.02,18.17-1.52,18.45-.47,0,0,.01-.01.02-.01.63-4.77.03-9.56.23-14.34ZM288.54,51.85c-3.25,1.27-10.19.98-12.08-.48-2.62-2.03,2.85-3.24,5.95-3.48,3.77-.3,9,.23,7.69,2.8-.24.47-.8.86-1.56,1.15ZM327.45,50.93c-5.56,1.3-13.59,1.45-19.29,1.17-3.22-.16-10.95-.4-11.35-2.75-.21-1.23,4.12-2.84,5.48-3.42,5.54-2.39,12.8-4.08,20.13-3.95,9.61.17,16.24,5.65,6.48,8.57-.46.14-.95.27-1.45.38Z"/>
          <g>
            <path class="cls-27" d="M222.03,26.15c.29-1.25,2.68-2.23,2.28-3.23-.36.96-2.58,1.96-2.28,3.23Z"/>
            <path class="cls-21" d="M8.17,11.16c4.8.02,9.52.28,14.34.15,10.79-.3,21.34-.97,32.17-.76,11.15.21,22.31.7,33.46.25,10.46-.41,20.59-1.63,30.6-3.27,15.97-2.61,28.52-3.37,44.93-3.15,27.96.38,55.8-1.9,83.66-2.46,1.73-.26,3.47-.44,5.23-.57-29.61.34-59.18,2.95-88.89,2.54-16.41-.22-28.97.53-44.93,3.15-10.01,1.64-20.14,2.85-30.6,3.27-11.15.44-22.32-.04-33.46-.25-10.83-.2-21.38.47-32.17.77-4.82.13-9.54-.12-14.34-.15-1.87,0-3.48.17-5,.52,0,.16,0,.32.01.48,1.51-.34,3.13-.52,4.99-.51Z"/>
            <path class="cls-33" d="M194.75,17.67c.28-.33.86-.69.42-.91-.28.31-.79.65-.42.91Z"/>
            <path class="cls-25" d="M3.07,17.85c.53.15,1.16.24,1.9.25,14.69.14,29.35-.37,44-.94,11.69-.45,23.24-1.23,34.93-1.72,6.26-.26,13.91-1.95,20.04-1.01,3.21.49,4.81,1.67,7.83,2.33,4.53,1,10.28.54,15.01.29,23.28-1.24,50.17-9.32,73.7-4.68.1-.18.15-.34.12-.46-23.56-4.69-50.5,3.42-73.82,4.66-4.73.25-10.48.71-15.01-.29-3.02-.67-4.61-1.84-7.83-2.33-6.14-.94-13.79.75-20.04,1.01-11.69.48-23.24,1.26-34.93,1.72-14.65.57-29.3,1.07-44,.94-.74,0-1.37-.1-1.9-.25-.01.37-.01.75-.01,1.12,0-.21,0-.43.01-.64Z"/>
            <path class="cls-37" d="M209.05,26.24s-.02-.08-.03-.12c-.46,1.77-5.34,3.25-4.93,5.25.39-1.9,5.14-3.35,4.96-5.13Z"/>
            <path class="cls-30" d="M3.45,5.75c2.46-1.4,5.33-2.59,8.33-3.7,2.06,0,4.24.08,6.17,0,11.99-.49,24.75.3,36.83.29,13.79,0,28.04-1.35,41.8-.53,5.91.35,11.61.84,17.48,1.09,1.62-.15,3.24-.27,4.88-.34-7.65-.11-14.82-.79-22.36-1.24-13.75-.82-28,.53-41.8.53-12.08,0-24.84-.78-36.83-.29-1.93.08-4.11,0-6.17,0-3,1.11-5.86,2.3-8.33,3.7-.09.41-.15.82-.2,1.24.03,0,.05,0,.08,0,.04-.25.07-.5.12-.74Z"/>
            <path class="cls-5" d="M207.17,10.5c0-.07,0-.14-.02-.21,0,.05-.02.12-.04.21.02,0,.04,0,.05,0Z"/>
            <path class="cls-2" d="M226.64,10.51c.79.35,1.66.64,2.57.86,4.25.21,8.42-1.5,11.96-2.52,5.39-1.56,11.04-2.74,17.24-2.84,21.87-.32,43.93.43,65.56-1.73,5.85-.59,11.6-1.42,17.18-2.49,1.66-.32,8.66,3.08,9.81,3.84.89.58,1.62,1.12,2.12,1.64.38.39.62.77.7,1.13.11-.52-.15-1.05-.7-1.62-.5-.52-1.23-1.06-2.12-1.64-1.16-.76-8.16-4.16-9.81-3.84-5.58,1.07-11.32,1.91-17.18,2.49-21.63,2.17-43.69,1.41-65.56,1.73-6.2.09-11.85,1.28-17.24,2.84-4.25,1.23-9.41,3.44-14.53,2.14Z"/>
            <path class="cls-18" d="M152.19,51.49c-7.64-1.22-9.66,1.96-16.68,3.09-9.9,1.59-21.91-.32-31.68-1.4-10.1-1.12-19.26-3.59-29.68-3.96-8.73-.31-16.99-.56-25.78,0-15.2.97-30.36,2.46-45.7,2.51,0,.16.02.32.03.49,15.33-.05,30.48-1.55,45.67-2.51,8.79-.56,17.05-.31,25.78,0,10.42.37,19.58,2.83,29.68,3.96,9.77,1.09,21.78,3,31.68,1.4,7.02-1.13,9.03-4.31,16.68-3.09,6.03.96,11.88,2.25,17.88,3.28,2.97.51,6.95,1.61,10.55,2.2,1.45-.03,2.91-.06,4.36-.08-4.31.07-10.65-1.87-14.91-2.6-6-1.03-11.85-2.32-17.88-3.28Z"/>
            <path class="cls-9" d="M310.97,26.88c-8.14-.06-16.47-.06-24.53-.69-12.6-.99-23.99-4.49-36.95-4.64-6.18-.07-17.27,1.67-22.58-.44-1.16-.46.19-1.55-1.42-2.19-2.66-1.05-8.26-1.19-11.41-1.48-3.66-.34-13.43-.45-16.15-2.43-.25.09-.43.1-.51-.02,1.63,2.48,12.71,2.57,16.66,2.94,3.14.29,8.75.43,11.41,1.48,1.62.64.26,1.73,1.42,2.19,5.32,2.11,16.4.37,22.58.44,12.96.15,24.36,3.66,36.95,4.64,8.07.63,16.39.62,24.53.69,8.18.06,16.36.03,24.55-.03,5.43-.04,10.72.09,16.07.25.09-.16.18-.32.29-.48-5.45-.16-10.83-.29-16.36-.25-8.18.05-16.36.09-24.55.03Z"/>
            <path class="cls-15" d="M220.41,31.75c-7.95-.67-7.03-1.95-8.88-5.35-3.24-5.98-23.26-5.14-33-4.75-7.42.29-14.79.87-22.15,1.44-7.45.58-14.93,1.2-22.45,1.47-7.28.26-14.57.09-21.82-.28-13.83-.69-27.44-1.84-41.38-1.59-22.36.4-44.26,2.94-66.1,5.41-.26.4-.33.76-.26,1.08.04-.19.12-.39.26-.6,21.84-2.47,43.75-5,66.1-5.41,13.94-.25,27.54.9,41.38,1.59,7.25.36,14.54.54,21.82.28,7.52-.27,15-.89,22.45-1.47,7.36-.57,14.73-1.14,22.15-1.44,9.74-.39,29.76-1.23,33,4.75,1.85,3.4.93,4.69,8.88,5.36,5.2.44,10.43-.18,15.63-.07.47-.15.89-.3,1.26-.44-5.61-.26-11.26.5-16.89.02Z"/>
            <path class="cls-23" d="M279.98,15.98c-5.19-.62-10.36-1.79-15.67-2.04-5.09-.24-10.17.15-15.14.72-1.68.19-3.35.4-5.02.62.78.05,1.56.12,2.34.19.89-.11,1.79-.22,2.69-.32,4.97-.56,10.05-.95,15.14-.72,5.31.25,10.48,1.42,15.67,2.04,22.19,2.64,45.42,2.3,67.47-.56,1.78-.23,3.55-.48,5.31-.74,0-.16,0-.33,0-.48-1.76.26-3.53.51-5.31.74-22.05,2.85-45.28,3.2-67.47.56Z"/>
            <path class="cls-12" d="M324.48,53.48c-12.19-.04-24.22,1.24-36.38,1.52-5.27.12-13.15.6-18.06-.64-3.33-.84-5.16-2.58-8.58-3.49-17.97-4.76-38.67,1-55.83,3.6,2.39-.36,4.7-.58,6.97-.68,15.61-2.77,33.26-6.56,48.85-2.43,3.42.9,5.24,2.65,8.58,3.49,4.91,1.24,12.8.76,18.06.64,12.16-.28,24.19-1.56,36.38-1.52.25,0,.51,0,.76,0,8.49.02,16.98-.07,25.46-.26,0-.16,0-.32,0-.49-8.48.19-16.97.28-25.46.26-.25,0-.51,0-.76,0Z"/>
            <path class="cls-36" d="M3.14,46.13s.05-.01.08-.02c.17-1.1.33-2.18.43-3.18.01-.17.01-.35,0-.55,0,.02,0,.05,0,.07-.11,1.15-.31,2.4-.5,3.68Z"/>
            <path class="cls-31" d="M349.51,40.48c-3.19.28-6.4.5-9.65.62-14.26.53-28.56-1.26-42.59-2.37-20.22-1.6-40.28.58-60.58.48-9.39-.04-20.04.3-28.92-1.63-4.04-.88-5.65-2.66-9.08-3.73-3.69-1.15-10.72-1.37-14.84-1.09-7.01.47-13.44,2.22-19.97,3.53-13.16,2.63-29.42,5.59-43.71,4.05-9.31-1-15.03-4.74-23.4-6.58-7.33-1.61-15.58-.77-22.92.36-6.85,1.05-13.15,1.43-20.22,2.05-16.66,1.45-33.38,3.41-50.37,2.9.02.16.05.32.07.49,16.96.5,33.66-1.45,50.3-2.9,7.07-.62,13.37-1,20.22-2.05,7.34-1.13,15.59-1.97,22.92-.36,8.37,1.84,14.09,5.58,23.4,6.58,14.29,1.54,30.55-1.42,43.71-4.05,6.53-1.31,12.97-3.05,19.97-3.53,4.13-.28,11.15-.06,14.84,1.09,3.43,1.07,5.03,2.86,9.08,3.73,8.88,1.93,19.53,1.58,28.92,1.63,20.31.1,40.36-2.08,60.58-.48,14.03,1.11,28.33,2.9,42.59,2.37,3.25-.12,6.46-.34,9.65-.62.84.53,1.16,1.34,1.19,2.59.04-1.53-.25-2.48-1.19-3.08Z"/>
            <path class="cls-14" d="M208.02,45.78c-6.9-.34-13.8-.42-20.56-.02-11.47.67-23.05,3.65-34.93,2.12,1.73.25,3.42.55,5.08.88,10.11.33,20.02-1.94,29.85-2.51,6.76-.4,13.66-.32,20.56.02,6.52.33,13.02.89,19.4,1.54,3.01,0,6.02.14,9.02.47-9.18-1-18.79-2.01-28.41-2.49Z"/>
          </g>
          <path class="cls-20" d="M329.81,39.64c3.61-1.31,2.3-8.02,2.73-10.09.07-.31.75-1.55.58-1.7-1.41-1.29-5.51-.25-7.8-.97,2.27-.23,4.48-.6,6.7-.79.36-3.16-.2-6.39-.13-9.53.02-.66,1.36-3.88.73-4.38-2-1.56-12.2-1.02-15.2-1.07-15.32-.27-31.07-.3-46.39.05-5.37.12-10.39.65-14.97,2.05.35-.26.54-.81,1.1-1.14-1.61-.18-2.95-.62-4.72-.47-3.51.29-8.75,2.5-11.81,3.56,1.03-1.66,5.59-2.21,5.99-3.86-5.36-.91-12.93-.07-18.62-.17-7.58-.13-14.68-.92-22.25-.79-8.98.16-17.97.29-26.95.37-24.37.21-48.79.05-73.08-1.13-12.21-.59-24.86.38-37.1.38-9.83,0-20.05.07-29.84-.32-4.33-.17-14.5-1.24-16.01,1.99-1.23,2.62.38,5.65-.17,8.36-.53,2.58-1.64,5.81.07,8.31,3.07.18,6.23.28,8.94.88-2.35.36-5.32.46-7.44.39.09.8.84,2.37,1.62,3.21,2.61-.07,4.23.5,6.05.79-1.66-.26-8.83-.21-10.11.48-1.21.65.06,4.68.12,5.47.29,3.46-.52,8.08,1.69,11.38.22.33,12.09.12,13.45.06,4.79-.23,9.57-.83,14.4-.83,12.08,0,24.17,0,36.25,0h33.73c7.91,0,16.95.52,24.77-.04,6.68-.48,12.43-2.1,19.48-1.94-.61.18-1.3.6-2.16.78,5.18.76,11.12.89,16.54.79,16.04-.29,32.02-.07,48.06,0,7.4.03,15.47.57,22.72.04,1.4-.1,13.09-1.36,11.12.42,2.98.83,10.42.21,13.91.26,5.66.08,11.32.13,16.98.12,7.27,0,14.53.35,21.8.28,3.76-.03,7.42-.36,11.13-.32,2.81.04,4.56.41,5.56-1.33,1.23-2.13,1-5.82.69-8.03-1.75-.39-3.75-.51-5.6-.8,1.56-.21,2.65-.43,3.4-.7Z"/>
          <path class="cls-32" d="M333.12,27.85c-1.41-1.29-5.51-.25-7.8-.97,2.27-.23,4.48-.6,6.7-.79.36-3.16-.2-6.39-.13-9.53.02-.66,1.36-3.88.73-4.38-2-1.56-12.2-1.02-15.2-1.07-15.32-.27-31.07-.3-46.39.05-5.37.12-10.39.65-14.97,2.05.35-.26.54-.81,1.1-1.14-1.61-.18-2.95-.62-4.72-.47-3.51.29-8.75,2.5-11.81,3.56,1.03-1.66,5.59-2.21,5.99-3.86-5.36-.91-12.93-.07-18.62-.17-7.58-.13-14.68-.92-22.25-.79-8.98.16-17.97.29-26.95.37-24.37.21-48.79.05-73.08-1.13-12.21-.59-24.86.38-37.1.38-9.83,0-20.05.07-29.84-.32-4.33-.17-14.5-1.24-16.01,1.99-1.23,2.62.38,5.65-.17,8.36-.53,2.58-1.64,5.81.07,8.31,3.07.18,6.23.28,8.94.88-2.35.36-5.32.46-7.44.39.09.8.84,2.37,1.62,3.21,2.61-.07,4.23.5,6.05.79-1.66-.26-8.83-.21-10.11.48-1.21.65.06,4.68.12,5.47.29,3.46-.52,8.08,1.69,11.38.22.33,12.09.12,13.45.06,4.79-.23,9.57-.83,14.4-.83,12.08,0,24.17,0,36.25,0h33.73c7.91,0,16.95.52,24.77-.04,6.68-.48,12.43-2.1,19.48-1.94-.61.18-1.3.6-2.16.78,5.18.76,11.12.89,16.54.79,16.04-.29,32.02-.07,48.06,0,7.4.03,15.47.57,22.72.04,1.4-.1,13.09-1.36,11.12.42,2.98.83,10.42.21,13.91.26,5.66.08,11.32.13,16.98.12,7.27,0,14.53.35,21.8.28,3.76-.03,7.42-.36,11.13-.32,2.81.04,4.56.41,5.56-1.33,1.23-2.13,1-5.82.69-8.03-1.75-.39-3.75-.51-5.6-.8,1.56-.21,2.65-.43,3.4-.7,3.61-1.31,2.3-8.02,2.73-10.09.07-.31.75-1.55.58-1.7ZM309.9,48.05c-7.02.06-14.03-.25-21.05-.24-5.47,0-10.93-.04-16.39-.1-4.79-.06-10.36.32-14.99-.01.43.03-12.67-1.33-7.34-2.2-11.5,1.87-17.31,1.65-29.57,1.56-13.53-.1-27.07-.19-40.6.03-5.24.08-10.97-.03-15.97-.68.83-.16,1.49-.52,2.08-.68-6.86-.14-13.78,1.16-20.57,1.37-2.18.07-6.57.6-8.59.11-.13-.03-4.81-1.53-3.41-1.74-3.8.54-7.44,1.64-11.5,1.54.82-1.19,2.52-2.53,4.45-3.55-6.88.72-12.22,3.43-19.48,3.94-5.24.37-10.9.04-16.19.04-11.67,0-23.33,0-35,0-8.08,0-27.15,3.62-28.77-2.8-.83-3.31-1.66-6.52-1.31-9.86,3.08-.21,7.25-.58,10.07-1.26-2.88-.94-6.16-1.44-9.01-2.45.3-1.31,5.86-1.28,7.86-1.53-1.75-1.66-5.67-1.04-8.18-2.14-2.89-1.27-1.16-5.95-.97-8.15.25-3.03-.04-4.98,4.94-6.46,5.36-1.59,16.84-1.33,22.53-.3-1.2,1.52-3.73,2.78-5.29,4.31,4.01-1.12,7.38-3.33,11.75-4.1,8.15-1.44,18.53-.17,27.04-.45,2.25-.07,31.77.38,30.69,1.37-1.89,1.71-5,2.96-6.87,4.58,5.74.57,12.04-3.94,17.94-4.16-.27.45-.44.77-.64,1.2,18.08-1.09,34.8-1.81,53.07-1.86,10.24-.03,20.47-.08,30.71-.1,3.26,0,27.47,1.13,28.64.11-1.71,1.49-5.3,2.94-5.94,4.74,6.03-1.47,13.28-4.87,20.28-4.8-.59.46-1.02,1.12-1.44,1.48,9.78-.29,17.9-2.33,27.76-2.2,12.32.16,24.65-.47,36.98-.34,4.83.05,9.6,2.75,10.29,4.37,1.11,2.63,1.48,7.46-2.72,9.39-3.83,1.75-11.21.74-15.81,1.48,5.14.96,10.46-.45,15.5.79-5.65-1.39-2.53,7.71-2.44,8.1.27,1.19.48,1.92.42,2.4-.14,1.17-1.85.9-7.98,2.15,3.42.44,6.97.38,10.45.88,1.65,6.6-4.44,6.11-15.44,6.2Z"/>
          <path class="cls-39" d="M332.24,45.31c-.07,1.43-.32,2.83-.92,3.87-1.01,1.74-2.75,1.36-5.56,1.33-3.71-.05-7.37.28-11.13.32-7.28.07-14.53-.29-21.8-.28-5.66,0-11.32-.04-16.98-.12-3.49-.05-10.93.57-13.91-.26,1.97-1.78-9.72-.52-11.12-.42-7.25.53-15.32-.01-22.72-.04-16.05-.06-32.02-.28-48.06,0-5.43.1-11.36-.03-16.54-.79.86-.18,1.55-.6,2.16-.78-7.05-.16-12.8,1.46-19.48,1.94-7.83.56-16.86.04-24.77.04h-33.73c-12.08,0-24.17,0-36.25,0-4.82,0-9.61.6-14.4.83-1.37.07-13.23.28-13.45-.06-2.21-3.31-1.4-7.92-1.69-11.38-.04-.42-.42-1.78-.57-3.05-.31,1.38.52,4.12.57,4.76.27,3.3-.44,7.65,1.4,10.91,4.84-.27,9.71-.39,14.51-.85,1.02-.1,1.87.06,2.52.33,5.46-.76,11.03-.59,16.78-.39.38.01.71.06,1.02.13,7.57-.43,15.43.57,23.05.34,9.95-.31,19.87-.85,29.84-.88.27,0,.53.02.76.05.24-.03.5-.05.78-.05,4.64.02,9.27.22,13.9.21,4.16,0,8.34-.15,12.5-.21,5.28-.08,10.78-.29,15.97-.46,1.93-.06,3.93-.76,5.72-.76,1.25,0,2.54.7,3.87.86,4.19.52,9.44.3,13.73.36,14.77.21,29.54.13,44.28.51,11.27.29,22.73-.42,33.69-.32,2.84.03,6.46.47,9.56.67,2.68.17,12.69.71,14.35-.42,1.97-1.33,21.18.07,24.59.2,7.02.27,13.92.66,21.06.75,2.81.04,4.56.41,5.56-1.33.84-1.45,1-3.63.92-5.57Z"/>
        </g>
      </g>
    </g>
  </g>
</svg>