<?xml version="1.0" encoding="UTF-8"?>
<svg xmlns="http://www.w3.org/2000/svg" xmlns:xlink="http://www.w3.org/1999/xlink" viewBox="0 0 230.22 185.27">
  <defs>
    <style>
      .cls-1 {
        fill: url(#_Áåçûìÿííûé_ãðàäèåíò_27-35);
      }

      .cls-1, .cls-2, .cls-3, .cls-4, .cls-5, .cls-6, .cls-7, .cls-8, .cls-9, .cls-10, .cls-11, .cls-12, .cls-13, .cls-14, .cls-15, .cls-16, .cls-17, .cls-18, .cls-19, .cls-20, .cls-21, .cls-22, .cls-23, .cls-24, .cls-25, .cls-26, .cls-27, .cls-28, .cls-29, .cls-30, .cls-31, .cls-32, .cls-33, .cls-34, .cls-35, .cls-36, .cls-37, .cls-38, .cls-39, .cls-40, .cls-41, .cls-42, .cls-43, .cls-44, .cls-45, .cls-46, .cls-47, .cls-48, .cls-49, .cls-50, .cls-51, .cls-52, .cls-53, .cls-54, .cls-55, .cls-56, .cls-57, .cls-58, .cls-59, .cls-60, .cls-61, .cls-62, .cls-63, .cls-64, .cls-65, .cls-66, .cls-67, .cls-68, .cls-69, .cls-70, .cls-71 {
        mix-blend-mode: multiply;
      }

      .cls-1, .cls-2, .cls-3, .cls-4, .cls-7, .cls-8, .cls-9, .cls-10, .cls-11, .cls-13, .cls-14, .cls-16, .cls-17, .cls-18, .cls-19, .cls-20, .cls-21, .cls-27, .cls-28, .cls-30, .cls-31, .cls-32, .cls-33, .cls-36, .cls-37, .cls-39, .cls-41, .cls-42, .cls-44, .cls-45, .cls-46, .cls-47, .cls-48, .cls-50, .cls-51, .cls-52, .cls-53, .cls-54, .cls-59, .cls-60, .cls-63, .cls-64, .cls-66, .cls-67, .cls-68, .cls-69, .cls-71 {
        opacity: .33;
      }

      .cls-2 {
        fill: url(#_Áåçûìÿííûé_ãðàäèåíò_27-38);
      }

      .cls-3 {
        fill: url(#_Áåçûìÿííûé_ãðàäèåíò_27-14);
      }

      .cls-4 {
        fill: url(#_Áåçûìÿííûé_ãðàäèåíò_27-32);
      }

      .cls-72 {
        fill: url(#_Áåçûìÿííûé_ãðàäèåíò_27-57);
      }

      .cls-72, .cls-73, .cls-74, .cls-75, .cls-76, .cls-77, .cls-78, .cls-79 {
        mix-blend-mode: screen;
      }

      .cls-5 {
        fill: url(#_Áåçûìÿííûé_ãðàäèåíò_27-71);
      }

      .cls-5, .cls-15, .cls-22, .cls-23, .cls-24, .cls-25, .cls-26, .cls-29, .cls-34, .cls-38, .cls-40, .cls-43, .cls-49, .cls-55, .cls-56, .cls-57, .cls-58, .cls-61, .cls-62, .cls-65, .cls-70 {
        opacity: .12;
      }

      .cls-6 {
        fill: url(#_Áåçûìÿííûé_ãðàäèåíò_27-73);
      }

      .cls-6, .cls-74 {
        opacity: .23;
      }

      .cls-7 {
        fill: url(#_Áåçûìÿííûé_ãðàäèåíò_27-13);
      }

      .cls-73, .cls-80 {
        opacity: .51;
      }

      .cls-8 {
        fill: url(#_Áåçûìÿííûé_ãðàäèåíò_27-42);
      }

      .cls-9 {
        fill: url(#_Áåçûìÿííûé_ãðàäèåíò_27-18);
      }

      .cls-81 {
        fill: url(#_Áåçûìÿííûé_ãðàäèåíò_17-2);
      }

      .cls-10 {
        fill: url(#_Áåçûìÿííûé_ãðàäèåíò_27-3);
      }

      .cls-11 {
        fill: url(#_Áåçûìÿííûé_ãðàäèåíò_27-22);
      }

      .cls-82 {
        fill: url(#_Áåçûìÿííûé_ãðàäèåíò_17);
      }

      .cls-12 {
        opacity: .09;
      }

      .cls-12, .cls-35, .cls-83 {
        fill: #7a2900;
      }

      .cls-13 {
        fill: url(#_Áåçûìÿííûé_ãðàäèåíò_27-20);
      }

      .cls-74 {
        fill: url(#_Áåçûìÿííûé_ãðàäèåíò_27-74);
      }

      .cls-84, .cls-85 {
        opacity: .49;
      }

      .cls-84, .cls-86 {
        fill: #ffc779;
      }

      .cls-14 {
        fill: url(#_Áåçûìÿííûé_ãðàäèåíò_27-10);
      }

      .cls-15 {
        fill: url(#_Áåçûìÿííûé_ãðàäèåíò_27-60);
      }

      .cls-87 {
        fill: url(#_Áåçûìÿííûé_ãðàäèåíò_323);
      }

      .cls-16 {
        fill: url(#_Áåçûìÿííûé_ãðàäèåíò_27-44);
      }

      .cls-17 {
        fill: url(#_Áåçûìÿííûé_ãðàäèåíò_27-26);
      }

      .cls-18 {
        fill: url(#_Áåçûìÿííûé_ãðàäèåíò_27-33);
      }

      .cls-19 {
        fill: url(#_Áåçûìÿííûé_ãðàäèåíò_27-41);
      }

      .cls-20 {
        fill: url(#_Áåçûìÿííûé_ãðàäèåíò_27-2);
      }

      .cls-21 {
        fill: url(#_Áåçûìÿííûé_ãðàäèåíò_27-6);
      }

      .cls-22 {
        fill: url(#_Áåçûìÿííûé_ãðàäèåíò_27-63);
      }

      .cls-23 {
        fill: url(#_Áåçûìÿííûé_ãðàäèåíò_27-65);
      }

      .cls-24 {
        fill: url(#_Áåçûìÿííûé_ãðàäèåíò_27-62);
      }

      .cls-25 {
        fill: url(#_Áåçûìÿííûé_ãðàäèåíò_27-48);
      }

      .cls-26 {
        fill: url(#_Áåçûìÿííûé_ãðàäèåíò_27-47);
      }

      .cls-27 {
        fill: url(#_Áåçûìÿííûé_ãðàäèåíò_27-46);
      }

      .cls-28 {
        fill: url(#_Áåçûìÿííûé_ãðàäèåíò_27-30);
      }

      .cls-29 {
        fill: url(#_Áåçûìÿííûé_ãðàäèåíò_27-66);
      }

      .cls-30 {
        fill: url(#_Áåçûìÿííûé_ãðàäèåíò_27-15);
      }

      .cls-88 {
        isolation: isolate;
      }

      .cls-31 {
        fill: url(#_Áåçûìÿííûé_ãðàäèåíò_27-9);
      }

      .cls-32 {
        fill: url(#_Áåçûìÿííûé_ãðàäèåíò_27-36);
      }

      .cls-33 {
        fill: url(#_Áåçûìÿííûé_ãðàäèåíò_27-16);
      }

      .cls-34 {
        fill: url(#_Áåçûìÿííûé_ãðàäèåíò_27-53);
      }

      .cls-35 {
        opacity: .06;
      }

      .cls-36 {
        fill: url(#_Áåçûìÿííûé_ãðàäèåíò_27-29);
      }

      .cls-37 {
        fill: url(#_Áåçûìÿííûé_ãðàäèåíò_27-8);
      }

      .cls-75 {
        fill: url(#_Áåçûìÿííûé_ãðàäèåíò_27-55);
      }

      .cls-38 {
        fill: url(#_Áåçûìÿííûé_ãðàäèåíò_27-70);
      }

      .cls-39 {
        fill: url(#_Áåçûìÿííûé_ãðàäèåíò_27-39);
      }

      .cls-76 {
        opacity: .37;
      }

      .cls-40 {
        fill: url(#_Áåçûìÿííûé_ãðàäèåíò_27-52);
      }

      .cls-41 {
        fill: url(#_Áåçûìÿííûé_ãðàäèåíò_27-31);
      }

      .cls-42 {
        fill: url(#_Áåçûìÿííûé_ãðàäèåíò_27);
      }

      .cls-43 {
        fill: url(#_Áåçûìÿííûé_ãðàäèåíò_27-64);
      }

      .cls-44 {
        fill: url(#_Áåçûìÿííûé_ãðàäèåíò_27-5);
      }

      .cls-45 {
        fill: url(#_Áåçûìÿííûé_ãðàäèåíò_27-37);
      }

      .cls-46 {
        fill: #864300;
      }

      .cls-47 {
        fill: url(#_Áåçûìÿííûé_ãðàäèåíò_27-17);
      }

      .cls-77 {
        fill: url(#_Áåçûìÿííûé_ãðàäèåíò_27-56);
      }

      .cls-48 {
        fill: url(#_Áåçûìÿííûé_ãðàäèåíò_27-23);
      }

      .cls-49 {
        fill: url(#_Áåçûìÿííûé_ãðàäèåíò_27-54);
      }

      .cls-50 {
        fill: url(#_Áåçûìÿííûé_ãðàäèåíò_27-12);
      }

      .cls-51 {
        fill: url(#_Áåçûìÿííûé_ãðàäèåíò_27-7);
      }

      .cls-52 {
        fill: url(#_Áåçûìÿííûé_ãðàäèåíò_27-45);
      }

      .cls-53 {
        fill: url(#_Áåçûìÿííûé_ãðàäèåíò_27-43);
      }

      .cls-54 {
        fill: url(#_Áåçûìÿííûé_ãðàäèåíò_27-40);
      }

      .cls-55 {
        fill: url(#_Áåçûìÿííûé_ãðàäèåíò_27-67);
      }

      .cls-56 {
        fill: url(#_Áåçûìÿííûé_ãðàäèåíò_27-72);
      }

      .cls-57 {
        fill: url(#_Áåçûìÿííûé_ãðàäèåíò_27-68);
      }

      .cls-58 {
        fill: url(#_Áåçûìÿííûé_ãðàäèåíò_27-50);
      }

      .cls-59 {
        fill: url(#_Áåçûìÿííûé_ãðàäèåíò_27-24);
      }

      .cls-60 {
        fill: url(#_Áåçûìÿííûé_ãðàäèåíò_27-34);
      }

      .cls-61 {
        fill: url(#_Áåçûìÿííûé_ãðàäèåíò_27-61);
      }

      .cls-62 {
        fill: url(#_Áåçûìÿííûé_ãðàäèåíò_27-51);
      }

      .cls-78 {
        fill: url(#_Áåçûìÿííûé_ãðàäèåíò_27-59);
      }

      .cls-63 {
        fill: url(#_Áåçûìÿííûé_ãðàäèåíò_27-21);
      }

      .cls-79 {
        fill: url(#_Áåçûìÿííûé_ãðàäèåíò_27-58);
      }

      .cls-64 {
        fill: url(#_Áåçûìÿííûé_ãðàäèåíò_27-28);
      }

      .cls-65 {
        fill: url(#_Áåçûìÿííûé_ãðàäèåíò_27-69);
      }

      .cls-66 {
        fill: url(#_Áåçûìÿííûé_ãðàäèåíò_27-27);
      }

      .cls-67 {
        fill: url(#_Áåçûìÿííûé_ãðàäèåíò_27-4);
      }

      .cls-68 {
        fill: url(#_Áåçûìÿííûé_ãðàäèåíò_27-11);
      }

      .cls-69 {
        fill: url(#_Áåçûìÿííûé_ãðàäèåíò_27-25);
      }

      .cls-70 {
        fill: url(#_Áåçûìÿííûé_ãðàäèåíò_27-49);
      }

      .cls-71 {
        fill: url(#_Áåçûìÿííûé_ãðàäèåíò_27-19);
      }
    </style>
    <linearGradient id="_Áåçûìÿííûé_ãðàäèåíò_17" data-name="Áåçûìÿííûé ãðàäèåíò 17" x1="129.89" y1="171.37" x2="101.24" y2="14.65" gradientUnits="userSpaceOnUse">
      <stop offset="0" stop-color="#b43e23"/>
      <stop offset="1" stop-color="#f59113"/>
    </linearGradient>
    <linearGradient id="_Áåçûìÿííûé_ãðàäèåíò_27" data-name="Áåçûìÿííûé ãðàäèåíò 27" x1="226.78" y1="86.25" x2="226.61" y2="85.25" gradientUnits="userSpaceOnUse">
      <stop offset="0" stop-color="#b44320"/>
      <stop offset="1" stop-color="#ff9215"/>
    </linearGradient>
    <linearGradient id="_Áåçûìÿííûé_ãðàäèåíò_27-2" data-name="Áåçûìÿííûé ãðàäèåíò 27" x1="43.7" y1="123.69" x2="40.86" y2="106.21" xlink:href="#_Áåçûìÿííûé_ãðàäèåíò_27"/>
    <linearGradient id="_Áåçûìÿííûé_ãðàäèåíò_27-3" data-name="Áåçûìÿííûé ãðàäèåíò 27" x1="163.36" y1="77.68" x2="162.09" y2="69.85" xlink:href="#_Áåçûìÿííûé_ãðàäèåíò_27"/>
    <linearGradient id="_Áåçûìÿííûé_ãðàäèåíò_27-4" data-name="Áåçûìÿííûé ãðàäèåíò 27" x1="49.1" y1="60.46" x2="47.53" y2="50.81" xlink:href="#_Áåçûìÿííûé_ãðàäèåíò_27"/>
    <linearGradient id="_Áåçûìÿííûé_ãðàäèåíò_27-5" data-name="Áåçûìÿííûé ãðàäèåíò 27" x1="53.72" y1="113.43" x2="50.81" y2="95.5" xlink:href="#_Áåçûìÿííûé_ãðàäèåíò_27"/>
    <linearGradient id="_Áåçûìÿííûé_ãðàäèåíò_27-6" data-name="Áåçûìÿííûé ãðàäèåíò 27" x1="169.05" y1="167.94" x2="167.78" y2="160.13" xlink:href="#_Áåçûìÿííûé_ãðàäèåíò_27"/>
    <linearGradient id="_Áåçûìÿííûé_ãðàäèåíò_27-7" data-name="Áåçûìÿííûé ãðàäèåíò 27" x1="2.02" y1="86.65" x2="1.99" y2="86.5" xlink:href="#_Áåçûìÿííûé_ãðàäèåíò_27"/>
    <linearGradient id="_Áåçûìÿííûé_ãðàäèåíò_27-8" data-name="Áåçûìÿííûé ãðàäèåíò 27" x1="214.23" y1="76.99" x2="213.64" y2="73.33" xlink:href="#_Áåçûìÿííûé_ãðàäèåíò_27"/>
    <linearGradient id="_Áåçûìÿííûé_ãðàäèåíò_27-9" data-name="Áåçûìÿííûé ãðàäèåíò 27" x1="87.11" y1="92.09" x2="87" y2="91.43" xlink:href="#_Áåçûìÿííûé_ãðàäèåíò_27"/>
    <linearGradient id="_Áåçûìÿííûé_ãðàäèåíò_27-10" data-name="Áåçûìÿííûé ãðàäèåíò 27" x1="95.01" y1="127.44" x2="91.04" y2="103.04" xlink:href="#_Áåçûìÿííûé_ãðàäèåíò_27"/>
    <linearGradient id="_Áåçûìÿííûé_ãðàäèåíò_27-11" data-name="Áåçûìÿííûé ãðàäèåíò 27" x1="139.87" y1="163.25" x2="137.84" y2="150.8" xlink:href="#_Áåçûìÿííûé_ãðàäèåíò_27"/>
    <linearGradient id="_Áåçûìÿííûé_ãðàäèåíò_27-12" data-name="Áåçûìÿííûé ãðàäèåíò 27" x1="111.36" y1="182.51" x2="106.94" y2="155.37" xlink:href="#_Áåçûìÿííûé_ãðàäèåíò_27"/>
    <linearGradient id="_Áåçûìÿííûé_ãðàäèåíò_27-13" data-name="Áåçûìÿííûé ãðàäèåíò 27" x1="112.25" y1="178.02" x2="110.85" y2="169.43" xlink:href="#_Áåçûìÿííûé_ãðàäèåíò_27"/>
    <linearGradient id="_Áåçûìÿííûé_ãðàäèåíò_27-14" data-name="Áåçûìÿííûé ãðàäèåíò 27" x1="48.34" y1="174.84" x2="47.58" y2="170.18" xlink:href="#_Áåçûìÿííûé_ãðàäèåíò_27"/>
    <linearGradient id="_Áåçûìÿííûé_ãðàäèåíò_27-15" data-name="Áåçûìÿííûé ãðàäèåíò 27" x1="4.47" y1="173.88" x2="4.34" y2="173.09" xlink:href="#_Áåçûìÿííûé_ãðàäèåíò_27"/>
    <linearGradient id="_Áåçûìÿííûé_ãðàäèåíò_27-16" data-name="Áåçûìÿííûé ãðàäèåíò 27" x1="129.03" y1="82" x2="128.37" y2="77.92" xlink:href="#_Áåçûìÿííûé_ãðàäèåíò_27"/>
    <linearGradient id="_Áåçûìÿííûé_ãðàäèåíò_27-17" data-name="Áåçûìÿííûé ãðàäèåíò 27" x1="118.94" y1="166.45" x2="113.6" y2="133.6" xlink:href="#_Áåçûìÿííûé_ãðàäèåíò_27"/>
    <linearGradient id="_Áåçûìÿííûé_ãðàäèåíò_27-18" data-name="Áåçûìÿííûé ãðàäèåíò 27" x1="62.19" y1="143" x2="59.99" y2="129.43" xlink:href="#_Áåçûìÿííûé_ãðàäèåíò_27"/>
    <linearGradient id="_Áåçûìÿííûé_ãðàäèåíò_27-19" data-name="Áåçûìÿííûé ãðàäèåíò 27" x1="78.41" y1="72.34" x2="75.78" y2="56.16" xlink:href="#_Áåçûìÿííûé_ãðàäèåíò_27"/>
    <linearGradient id="_Áåçûìÿííûé_ãðàäèåíò_27-20" data-name="Áåçûìÿííûé ãðàäèåíò 27" x1="12.48" y1="41.38" x2="12.16" y2="39.41" xlink:href="#_Áåçûìÿííûé_ãðàäèåíò_27"/>
    <linearGradient id="_Áåçûìÿííûé_ãðàäèåíò_27-21" data-name="Áåçûìÿííûé ãðàäèåíò 27" x1="116.94" y1="98.78" x2="112.29" y2="70.16" xlink:href="#_Áåçûìÿííûé_ãðàäèåíò_27"/>
    <linearGradient id="_Áåçûìÿííûé_ãðàäèåíò_27-22" data-name="Áåçûìÿííûé ãðàäèåíò 27" x1="122.92" y1="51.42" x2="120.23" y2="34.86" xlink:href="#_Áåçûìÿííûé_ãðàäèåíò_27"/>
    <linearGradient id="_Áåçûìÿííûé_ãðàäèåíò_27-23" data-name="Áåçûìÿííûé ãðàäèåíò 27" x1="32.85" y1="33.84" x2="31.8" y2="27.42" xlink:href="#_Áåçûìÿííûé_ãðàäèåíò_27"/>
    <linearGradient id="_Áåçûìÿííûé_ãðàäèåíò_27-24" data-name="Áåçûìÿííûé ãðàäèåíò 27" x1="116.94" y1="32.8" x2="112.92" y2="8.08" xlink:href="#_Áåçûìÿííûé_ãðàäèåíò_27"/>
    <linearGradient id="_Áåçûìÿííûé_ãðàäèåíò_27-25" data-name="Áåçûìÿííûé ãðàäèåíò 27" x1="216.34" y1="22.87" x2="216.04" y2="21.02" xlink:href="#_Áåçûìÿííûé_ãðàäèåíò_27"/>
    <linearGradient id="_Áåçûìÿííûé_ãðàäèåíò_27-26" data-name="Áåçûìÿííûé ãðàäèåíò 27" x1="164.45" y1="26.69" x2="161.39" y2="7.88" xlink:href="#_Áåçûìÿííûé_ãðàäèåíò_27"/>
    <linearGradient id="_Áåçûìÿííûé_ãðàäèåíò_27-27" data-name="Áåçûìÿííûé ãðàäèåíò 27" x1="43.8" y1="17.38" x2="43.05" y2="12.74" xlink:href="#_Áåçûìÿííûé_ãðàäèåíò_27"/>
    <linearGradient id="_Áåçûìÿííûé_ãðàäèåíò_27-28" data-name="Áåçûìÿííûé ãðàäèåíò 27" x1="109.36" y1="62.75" x2="105.6" y2="39.63" xlink:href="#_Áåçûìÿííûé_ãðàäèåíò_27"/>
    <linearGradient id="_Áåçûìÿííûé_ãðàäèåíò_27-29" data-name="Áåçûìÿííûé ãðàäèåíò 27" x1="117.94" y1="59.48" x2="112.1" y2="23.59" xlink:href="#_Áåçûìÿííûé_ãðàäèåíò_27"/>
    <linearGradient id="_Áåçûìÿííûé_ãðàäèåíò_27-30" data-name="Áåçûìÿííûé ãðàäèåíò 27" x1="196.24" y1="134.51" x2="194.56" y2="124.21" xlink:href="#_Áåçûìÿííûé_ãðàäèåíò_27"/>
    <linearGradient id="_Áåçûìÿííûé_ãðàäèåíò_27-31" data-name="Áåçûìÿííûé ãðàäèåíò 27" x1="33.7" y1="160.62" x2="31.64" y2="147.99" xlink:href="#_Áåçûìÿííûé_ãðàäèåíò_27"/>
    <linearGradient id="_Áåçûìÿííûé_ãðàäèåíò_27-32" data-name="Áåçûìÿííûé ãðàäèåíò 27" x1="216.04" y1="166.75" x2="215.3" y2="162.21" xlink:href="#_Áåçûìÿííûé_ãðàäèåíò_27"/>
    <linearGradient id="_Áåçûìÿííûé_ãðàäèåíò_27-33" data-name="Áåçûìÿííûé ãðàäèåíò 27" x1="103.94" y1="177.21" x2="103.7" y2="175.72" xlink:href="#_Áåçûìÿííûé_ãðàäèåíò_27"/>
    <linearGradient id="_Áåçûìÿííûé_ãðàäèåíò_27-34" data-name="Áåçûìÿííûé ãðàäèåíò 27" x1="185.46" y1="181.25" x2="184.08" y2="172.71" xlink:href="#_Áåçûìÿííûé_ãðàäèåíò_27"/>
    <linearGradient id="_Áåçûìÿííûé_ãðàäèåíò_27-35" data-name="Áåçûìÿííûé ãðàäèåíò 27" x1="218.72" y1="158.21" x2="218.23" y2="155.15" xlink:href="#_Áåçûìÿííûé_ãðàäèåíò_27"/>
    <linearGradient id="_Áåçûìÿííûé_ãðàäèåíò_27-36" data-name="Áåçûìÿííûé ãðàäèåíò 27" x1="189.12" y1="96.6" x2="186.68" y2="81.62" xlink:href="#_Áåçûìÿííûé_ãðàäèåíò_27"/>
    <linearGradient id="_Áåçûìÿííûé_ãðàäèåíò_27-37" data-name="Áåçûìÿííûé ãðàäèåíò 27" x1="162.3" y1="107.95" x2="158.51" y2="84.61" xlink:href="#_Áåçûìÿííûé_ãðàäèåíò_27"/>
    <linearGradient id="_Áåçûìÿííûé_ãðàäèåíò_27-38" data-name="Áåçûìÿííûé ãðàäèåíò 27" x1="188.85" y1="118.23" x2="186.9" y2="106.26" xlink:href="#_Áåçûìÿííûé_ãðàäèåíò_27"/>
    <linearGradient id="_Áåçûìÿííûé_ãðàäèåíò_27-39" data-name="Áåçûìÿííûé ãðàäèåíò 27" x1="2.66" y1="151.06" x2="2.27" y2="148.62" xlink:href="#_Áåçûìÿííûé_ãðàäèåíò_27"/>
    <linearGradient id="_Áåçûìÿííûé_ãðàäèåíò_27-40" data-name="Áåçûìÿííûé ãðàäèåíò 27" x1="123.16" y1="135.74" x2="120.07" y2="116.74" xlink:href="#_Áåçûìÿííûé_ãðàäèåíò_27"/>
    <linearGradient id="_Áåçûìÿííûé_ãðàäèåíò_27-41" data-name="Áåçûìÿííûé ãðàäèåíò 27" x1="79.32" y1="32.38" x2="77.43" y2="20.73" xlink:href="#_Áåçûìÿííûé_ãðàäèåíò_27"/>
    <linearGradient id="_Áåçûìÿííûé_ãðàäèåíò_27-42" data-name="Áåçûìÿííûé ãðàäèåíò 27" x1="207.34" y1="28.99" x2="206.44" y2="23.41" xlink:href="#_Áåçûìÿííûé_ãðàäèåíò_27"/>
    <linearGradient id="_Áåçûìÿííûé_ãðàäèåíò_27-43" data-name="Áåçûìÿííûé ãðàäèåíò 27" x1="220.71" y1="29.4" x2="219.6" y2="22.61" xlink:href="#_Áåçûìÿííûé_ãðàäèåíò_27"/>
    <linearGradient id="_Áåçûìÿííûé_ãðàäèåíò_27-44" data-name="Áåçûìÿííûé ãðàäèåíò 27" x1="81.33" y1="32.22" x2="80.11" y2="24.75" xlink:href="#_Áåçûìÿííûé_ãðàäèåíò_27"/>
    <linearGradient id="_Áåçûìÿííûé_ãðàäèåíò_27-45" data-name="Áåçûìÿííûé ãðàäèåíò 27" x1="229.51" y1="49.3" x2="229.45" y2="48.93" xlink:href="#_Áåçûìÿííûé_ãðàäèåíò_27"/>
    <linearGradient id="_Áåçûìÿííûé_ãðàäèåíò_27-46" data-name="Áåçûìÿííûé ãðàäèåíò 27" x1="207.59" y1="62.49" x2="206.43" y2="55.37" xlink:href="#_Áåçûìÿííûé_ãðàäèåíò_27"/>
    <linearGradient id="_Áåçûìÿííûé_ãðàäèåíò_27-47" data-name="Áåçûìÿííûé ãðàäèåíò 27" x1="129.89" y1="171.36" x2="101.24" y2="14.66" xlink:href="#_Áåçûìÿííûé_ãðàäèåíò_27"/>
    <linearGradient id="_Áåçûìÿííûé_ãðàäèåíò_27-48" data-name="Áåçûìÿííûé ãðàäèåíò 27" x1="140.97" y1="169.35" x2="112.32" y2="12.63" xlink:href="#_Áåçûìÿííûé_ãðàäèåíò_27"/>
    <linearGradient id="_Áåçûìÿííûé_ãðàäèåíò_27-49" data-name="Áåçûìÿííûé ãðàäèåíò 27" x1="173.05" y1="163.48" x2="144.39" y2="6.76" xlink:href="#_Áåçûìÿííûé_ãðàäèåíò_27"/>
    <linearGradient id="_Áåçûìÿííûé_ãðàäèåíò_27-50" data-name="Áåçûìÿííûé ãðàäèåíò 27" x1="119.87" y1="173.21" x2="91.21" y2="16.49" xlink:href="#_Áåçûìÿííûé_ãðàäèåíò_27"/>
    <linearGradient id="_Áåçûìÿííûé_ãðàäèåíò_27-51" data-name="Áåçûìÿííûé ãðàäèåíò 27" x1="139.69" y1="169.58" x2="111.04" y2="12.86" xlink:href="#_Áåçûìÿííûé_ãðàäèåíò_27"/>
    <linearGradient id="_Áåçûìÿííûé_ãðàäèåíò_27-52" data-name="Áåçûìÿííûé ãðàäèåíò 27" x1="134.36" y1="170.56" x2="105.71" y2="13.84" xlink:href="#_Áåçûìÿííûé_ãðàäèåíò_27"/>
    <linearGradient id="_Áåçûìÿííûé_ãðàäèåíò_27-53" data-name="Áåçûìÿííûé ãðàäèåíò 27" x1="202.58" y1="35.6" x2="213.17" y2="111.26" xlink:href="#_Áåçûìÿííûé_ãðàäèåíò_27"/>
    <linearGradient id="_Áåçûìÿííûé_ãðàäèåíò_27-54" data-name="Áåçûìÿííûé ãðàäèåíò 27" x1="216.52" y1="33.56" x2="226.92" y2="107.9" xlink:href="#_Áåçûìÿííûé_ãðàäèåíò_27"/>
    <linearGradient id="_Áåçûìÿííûé_ãðàäèåíò_27-55" data-name="Áåçûìÿííûé ãðàäèåíò 27" x1="198.96" y1="58.92" x2="215.43" y2="58.92" xlink:href="#_Áåçûìÿííûé_ãðàäèåíò_27"/>
    <linearGradient id="_Áåçûìÿííûé_ãðàäèåíò_27-56" data-name="Áåçûìÿííûé ãðàäèåíò 27" x1="8.63" y1="104.45" x2="43.49" y2="104.45" xlink:href="#_Áåçûìÿííûé_ãðàäèåíò_27"/>
    <linearGradient id="_Áåçûìÿííûé_ãðàäèåíò_27-57" data-name="Áåçûìÿííûé ãðàäèåíò 27" x1="22.32" y1="100.7" x2="32.64" y2="100.7" xlink:href="#_Áåçûìÿííûé_ãðàäèåíò_27"/>
    <linearGradient id="_Áåçûìÿííûé_ãðàäèåíò_27-58" data-name="Áåçûìÿííûé ãðàäèåíò 27" x1="198.32" y1="160.97" x2="209.78" y2="160.97" xlink:href="#_Áåçûìÿííûé_ãðàäèåíò_27"/>
    <linearGradient id="_Áåçûìÿííûé_ãðàäèåíò_27-59" data-name="Áåçûìÿííûé ãðàäèåíò 27" x1="32.37" y1="165.98" x2="48.87" y2="165.98" xlink:href="#_Áåçûìÿííûé_ãðàäèåíò_27"/>
    <linearGradient id="_Áåçûìÿííûé_ãðàäèåíò_17-2" data-name="Áåçûìÿííûé ãðàäèåíò 17" x1="119.28" y1="39.65" x2="114.83" y2="2.97" xlink:href="#_Áåçûìÿííûé_ãðàäèåíò_17"/>
    <linearGradient id="_Áåçûìÿííûé_ãðàäèåíò_27-60" data-name="Áåçûìÿííûé ãðàäèåíò 27" x1="54.75" y1="6.04" x2="203.43" y2="6.04" xlink:href="#_Áåçûìÿííûé_ãðàäèåíò_27"/>
    <linearGradient id="_Áåçûìÿííûé_ãðàäèåíò_27-61" data-name="Áåçûìÿííûé ãðàäèåíò 27" x1="54.74" y1="12.18" x2="203.43" y2="12.18" xlink:href="#_Áåçûìÿííûé_ãðàäèåíò_27"/>
    <linearGradient id="_Áåçûìÿííûé_ãðàäèåíò_27-62" data-name="Áåçûìÿííûé ãðàäèåíò 27" x1="113.47" y1="8.78" x2="185.86" y2="8.78" xlink:href="#_Áåçûìÿííûé_ãðàäèåíò_27"/>
    <linearGradient id="_Áåçûìÿííûé_ãðàäèåíò_27-63" data-name="Áåçûìÿííûé ãðàäèåíò 27" x1="62.33" y1="6.27" x2="171.12" y2="6.27" xlink:href="#_Áåçûìÿííûé_ãðàäèåíò_27"/>
    <linearGradient id="_Áåçûìÿííûé_ãðàäèåíò_27-64" data-name="Áåçûìÿííûé ãðàäèåíò 27" x1="60.91" y1="30.01" x2="115.67" y2="30.01" xlink:href="#_Áåçûìÿííûé_ãðàäèåíò_27"/>
    <linearGradient id="_Áåçûìÿííûé_ãðàäèåíò_27-65" data-name="Áåçûìÿííûé ãðàäèåíò 27" x1="152.08" y1="9.2" x2="179.64" y2="9.2" xlink:href="#_Áåçûìÿííûé_ãðàäèåíò_27"/>
    <linearGradient id="_Áåçûìÿííûé_ãðàäèåíò_27-66" data-name="Áåçûìÿííûé ãðàäèåíò 27" x1="108.43" y1="17.42" x2="205.32" y2="17.42" xlink:href="#_Áåçûìÿííûé_ãðàäèåíò_27"/>
    <linearGradient id="_Áåçûìÿííûé_ãðàäèåíò_27-67" data-name="Áåçûìÿííûé ãðàäèåíò 27" x1="138.71" y1="13.92" x2="188.3" y2="13.92" xlink:href="#_Áåçûìÿííûé_ãðàäèåíò_27"/>
    <linearGradient id="_Áåçûìÿííûé_ãðàäèåíò_27-68" data-name="Áåçûìÿííûé ãðàäèåíò 27" x1="77.93" y1="32.47" x2="159.52" y2="32.47" xlink:href="#_Áåçûìÿííûé_ãðàäèåíò_27"/>
    <linearGradient id="_Áåçûìÿííûé_ãðàäèåíò_27-69" data-name="Áåçûìÿííûé ãðàäèåíò 27" x1="53.79" y1="27.95" x2="219.21" y2="27.95" xlink:href="#_Áåçûìÿííûé_ãðàäèåíò_27"/>
    <linearGradient id="_Áåçûìÿííûé_ãðàäèåíò_27-70" data-name="Áåçûìÿííûé ãðàäèåíò 27" x1="52.87" y1="22.04" x2="234.84" y2="22.04" xlink:href="#_Áåçûìÿííûé_ãðàäèåíò_27"/>
    <linearGradient id="_Áåçûìÿííûé_ãðàäèåíò_27-71" data-name="Áåçûìÿííûé ãðàäèåíò 27" x1="91.54" y1="34.4" x2="137.03" y2="34.4" xlink:href="#_Áåçûìÿííûé_ãðàäèåíò_27"/>
    <linearGradient id="_Áåçûìÿííûé_ãðàäèåíò_27-72" data-name="Áåçûìÿííûé ãðàäèåíò 27" x1="61.37" y1="26.37" x2="82.94" y2="26.37" xlink:href="#_Áåçûìÿííûé_ãðàäèåíò_27"/>
    <linearGradient id="_Áåçûìÿííûé_ãðàäèåíò_27-73" data-name="Áåçûìÿííûé ãðàäèåíò 27" x1="118.6" y1="39.73" x2="114.16" y2="3.05" xlink:href="#_Áåçûìÿííûé_ãðàäèåíò_27"/>
    <linearGradient id="_Áåçûìÿííûé_ãðàäèåíò_323" data-name="Áåçûìÿííûé ãðàäèåíò 323" x1="62.33" y1="6.88" x2="171.22" y2="6.88" gradientUnits="userSpaceOnUse">
      <stop offset="0" stop-color="#e2ae2d"/>
      <stop offset=".36" stop-color="#e1ab2a"/>
      <stop offset=".61" stop-color="#e0a320"/>
      <stop offset=".84" stop-color="#de9611"/>
      <stop offset="1" stop-color="#d80"/>
    </linearGradient>
    <linearGradient id="_Áåçûìÿííûé_ãðàäèåíò_27-74" data-name="Áåçûìÿííûé ãðàäèåíò 27" x1="106.31" y1="4.43" x2="112.95" y2="42.16" xlink:href="#_Áåçûìÿííûé_ãðàäèåíò_27"/>
  </defs>
  <g class="cls-88">
    <g id="Layer_2" data-name="Layer 2">
      <g id="Layer_1-2" data-name="Layer 1">
        <g>
          <g>
            <path class="cls-83" d="M227.62,178.46c-2.88,4.61-8.54,2.6-12.88,2.78-1.07.04-9.62,1.86-7.18-1.35-1.36.69-2.64,2.54-4.09,2.91-.5.13-1.7-.63-2.53-.55-2.57.24-4.92,1.43-7.61,1.58-1.84.11-3.11-.69-4.47-.69-2.16.01-3.79,1.99-5.85,2.12-2.57.16-5.71-1.09-8.24-1.52-3.66-.62-7.33-1.6-11.05-1.72-6.79-.21-13.56-.74-20.35-.74-10.23,0-21.28,1.42-31.39-.69-2.27-.47-3.22-1.07-5.77-.51-7.5,1.66-15.12,2.24-22.5.04.38.22.63.66.92.92-2.3.96-5.95.54-8.38.46-3.35-.11-6.7-.21-10.06-.21-16.71,0-33.45,1.44-50.25.48-2.19-.13-4.42-.45-6.61-.65-.65-.06-5.08.23-5.45.03-1.39-.79-1.89-3.24-1.48-4.74,0,0,0-.01,0-.02.2-.69,1-1.01,1.38-1.54-3.13-1.88-2.31-8.96-2.15-11.92.22-4.06,1.11-8.21.94-12.27-.2-4.8-1.63-12.04-.14-16.73,1.25-3.94,2.06-3.64,5.45-5.5-.04-.01.28-.3.3-.32-7.48.25-5.75-19.73-6.01-26-.15-3.55-3.52-28.72,2.72-28.72-1.2,0-2.27-.15-3.36-.46-.92-2.57.69-4.01,3.04-4.33-6.42-1.41-4.8-14.16-1.72-17.85.53-.63,2.01-.48,2.71-1.45-1.06-1.32-3.34-1.45-4.05-2.69-1.84-3.17-.56-9.61-.53-13.24.05-5.72.3-11.39.62-17.09.19-3.4,28.81-2,31.3-2,2.88,0,6.6-.1,9.31-1.14,1.79-.68,3.11-2.25,5.25-2.51,6.46-.78,13.23,1.94,19.68,2.34,8.1.5,16.15,1.31,24.28,1.31h58.81c3.25,0,6.73.44,9.95.06,2.53-.29,5.03-1.73,7.65-1.59,6.79.38,13.3,1.53,20.17,1.53h38.28c1.77,0,3.21,1.69,3.21,3.77,0,11.25,0,22.56,0,33.97,0,3.3.49,5.34-3,6.41,1.15.76,2.5,1.15,3.01,2.32.44,1-.17,3.09-.2,4.09-.04,1.65.89,25.16-3.58,23.02,5.78,2.77,4,12.54,3.71,19.24-.83-.08-1.94.48-2.56.46,4.48,1.69,3.12,8.68,3.3,13.23.22,5.46-.26,11.05-.31,16.47-.03,4.12-.1,6.88-3.69,8.67,3.11,1.31,3.16,1.4,3.31,5.33.22,5.74,0,11.56,0,17.31,0,4.9-.65,8.01-1.86,9.96Z"/>
            <path class="cls-82" d="M227.62,175.36c-1.86,2.99-5.57,3.28-8.75,3.13-.91-.04-10.08-1.37-10.11-.56.03-1,.69-1.83,1.58-2.36-2.68.06-4.75,2.52-7.16,3.43-2.97,1.11-6.71,1.54-9.86,1.73-1.84.11-3.11-.69-4.47-.69-2.16.01-3.79,1.99-5.85,2.12-2.57.16-5.71-1.09-8.24-1.52-3.66-.62-7.33-1.6-11.05-1.72-6.79-.21-13.56-.74-20.35-.74-10.23,0-21.28,1.42-31.39-.69-2.27-.47-3.22-1.08-5.77-.51-4.59,1.01-9.53,1.7-14.24,1.62-3.22-.06-8.75.25-11.46-1.68.6.42.79.94.9,1.54-4.67.94-10.41-.28-15.22-.28-16.71,0-33.45,1.44-50.25.48-2.19-.13-4.42-.45-6.61-.65-.65-.06-5.08.23-5.45.03-3.11-1.77.11-4.16,1.25-5.55-6.29-1.24-2.35-20.03-2.55-24.94-.2-4.8-1.63-12.05-.14-16.73,1.87-5.92,8.85-5.95,14.21-6.12-3.26-1.03-7.48.93-10.53-.68-2.42-1.28-2.89-4.4-3.32-6.93-1.01-5.99-.37-12.06-.62-18.09-.15-3.54-3.52-28.72,2.72-28.72-1.2,0-2.27-.15-3.36-.46-.92-2.56.69-4.01,3.04-4.33C.02,64.45-.16,58.3.31,54.67c.91-6.97,3.93-7.22,10.42-7.6,2.71-.16,5.15-1.07,7.7-1.78-3.28.01-6.58.12-9.81.02-.63-.02-2.12-.42-2.68-.5-1.61-.23-3.43.44-4.46-1.34-1.83-3.17-.56-9.61-.53-13.24.05-5.72.3-11.39.62-17.09.19-3.4,28.81-2,31.3-2,2.88,0,6.6-.1,9.31-1.14,1.79-.68,3.11-2.25,5.25-2.51,6.46-.78,13.23,1.94,19.68,2.33,8.1.5,16.15,1.31,24.28,1.31h58.81c3.25,0,6.73.44,9.95.06,2.53-.29,5.03-1.73,7.65-1.59,6.79.38,13.3,1.53,20.17,1.53h38.28c1.77,0,3.21,1.69,3.21,3.77,0,11.25,0,22.56,0,33.97,0,6.81-3.76,5.08-9.3,6.85,1.7-.54,6.47.59,7.82,1.78,1.64,1.44,1.24,2.35,1.29,4.41.06,2.55.08,5.1.04,7.65-.02,1.58-.09,16.84-3.62,15.15,5.78,2.77,4,12.54,3.71,19.24-.83-.08-1.94.48-2.56.46,4.48,1.69,3.12,8.68,3.3,13.23.22,5.46-.26,11.05-.31,16.47-.03,4.12-.1,6.88-3.69,8.67,3.11,1.31,3.16,1.4,3.31,5.33.22,5.74,0,11.56,0,17.31,0,4.9-.65,8.01-1.86,9.96Z"/>
            <path class="cls-35" d="M197.38,178.82c-2.86-.3-5.72-.65-8.58-1.04-2.84-.38-5.75-.74-8.5-1.55-4.25-1.26-8.54-1.98-12.91-2.47,6.28-.06,12.55-.24,18.83-.57,14.29-.76,28.58-1.53,42.88-2.29.25-1.52.37-3.34.37-5.5,0-.32,0-.64,0-.97-3.99-.37-7.99-.65-11.99-.83-4.32-.19-8.63-.29-12.95-.35-.93-.01-1.86,0-2.79,0,1.52-.11,3.02-.31,4.52-.68.83-.2,1.64-.45,2.44-.72,5.28-.7,10.54-1.54,15.82-2.16,1.1,0,2.2.02,3.29.03.57,0,1.14.02,1.71.03.01-1.19.03-2.39.04-3.59-4.56-.41-9.11-.5-13.69-.36-2.85.09-5.69.27-8.53.51,1.19-.38,2.38-.76,3.58-1.1,5.67-1.62,11.46-2.67,17.28-3.56.45-.07.9-.14,1.36-.2-.01-.8-.03-1.61-.05-2.41-5.47.27-10.85,1.15-16.17,2.49-5.64,1.42-11.07,3.65-16.77,4.84-5.46,1.14-10.8.48-16.16-.82-4.44-1.08-9.02-2.51-13.63-2.66-.7-.1-1.4-.18-2.11-.23-7.99-.66-16,.61-24.01.28-.98-.04-1.63-.12-2.36-.82-.42-.4-.76-.87-1.25-1.2-1.48-.98-3.41-.79-5.09-.76-4.01.08-8.02.27-12.01.7-4.07.44-8.13,1.01-12.16,1.74-1.8.26-3.6.55-5.4.86-.08.01-.06.14.02.13.41-.06.81-.12,1.22-.17-1.43.3-2.86.63-4.28.98-.92.09-1.85.2-2.77.33-1.64.23-3.28.52-4.91.81-7.79.4-15.59.77-23.39,1.13-7.74-.91-15.38-2.76-23.04-4.13-14.15-2.54-28.36-4.55-42.67-5.04,0,.01,0,.02,0,.03.04.88-.06,2.21-.21,3.8,3.14.47,6.27,1.06,9.36,1.84,3.91.99,7.74,2.25,11.45,3.84,3.77,1.61,7.43,3.24,11.53,3.8,3.99.54,8.1.09,12.1-.13,4.43-.24,8.86-.48,13.29-.72,4.88-.26,9.75-.53,14.63-.8,1.03.05,2.07.08,3.11.08,3.63-.01,7.24-.42,10.84-.82,7.34-.46,14.96-1.22,22.16.25,3.88.79,7.3,2.72,11,4.03,3.97,1.41,8.15,2.17,12.3,2.85,8.39,1.37,16.88,1.99,25.38,1.95,8.58-.04,17.14-.64,25.72-.9,9.68-.29,19.35.18,29.01.8.6.04,1.2.08,1.81.12-8.12.44-16.23.89-24.35,1.33-16.89.92-33.73,2.62-50.66,1.46-8.31-.57-16.54-1.94-24.88-2.19-4.1-.13-8.2-.27-12.3.01-4.14.29-8.25.9-12.36,1.47-8.26,1.16-16.46,1.77-24.76.57-7.93-1.15-15.74-3.25-23.8-3.19-4.49.03-8.83.71-13.21,1.61-4.52.93-8.95,1.52-13.58,1.38-4.55-.13-9.08-.72-13.62-.98-.12,0-.24,0-.36-.02.53,1.89,1.45,3.2,2.96,3.49-.35.43-.9.95-1.39,1.52,5.61.17,11.25-.03,16.79-.05,5.48-.02,10.96-.05,16.43-.02,5.46.02,10.96-.04,16.42.32,13.23.89,26.45,2.3,39.57,4.3,4.49-.18,8.93-.62,13.25-1.58.43-.09.81-.15,1.16-.19-2.35-.44-4.7-.87-7.05-1.27,2.83-.37,5.65-.82,8.51-1.06,2.81-.24,5.62-.13,8.38.47,2.69.58,5.31,1.48,8,2.09,5.55,1.26,11.1.66,16.7.11,5.7-.56,11.4-.66,17.12-.32,5.73.34,11.42,1.29,17.15,1.57,2.82.14,5.57.03,8.38.36,2.94.35,5.88.77,8.82,1.13,1.27.16,2.54.3,3.81.43,1.69-.28,3.32-.65,4.95-1.01-1.57-.13-3.14-.28-4.71-.44ZM40.51,157.91c-4.62.06-8.91-.51-13.24-2.15-4.33-1.63-8.6-3.2-13.12-4.25-2.62-.61-5.27-1.12-7.93-1.56,11.09.6,22.16,1.94,33.12,3.66,6.59,1.03,13.13,2.38,19.7,3.54-6.18.34-12.36.69-18.53.77ZM132.43,159.26c-3.97-.28-7.82-1.27-11.64-2.31-3.87-1.06-7.73-2.12-11.73-2.58-1.61-.19-3.23-.26-4.84-.25,4.26-.73,8.54-1.33,12.85-1.75,4.02-.39,8.07-.63,12.11-.75.89,0,1.79,0,2.69.02,1,.01,2.28-.16,3.23.23.93.38,1.21,1.46,1.94,2.07.09.07.18.14.27.21.54.6,1.23.92,2.02,1.11,1.61.39,3.34.36,4.99.39,2.13.03,4.26-.03,6.39-.09,3.9-.12,7.83-.32,11.73,0,3.92.32,7.42,1.33,10.98,2.87-1.12-.16-2.25-.33-3.38-.48-4.19-.56-8.4-.9-12.63-.67-4.19.23-8.37.92-12.54,1.38-4.15.46-8.27.91-12.44.61ZM191.29,163.57c-17.13.26-34.17,2.05-51.26-.04-.52-.06-1.03-.13-1.55-.2.03,0,.06,0,.09,0,4.2-.4,8.24-1.5,12.36-2.33,4.18-.84,8.48-1.12,12.74-.9,8.56.44,16.93,2.58,25.5,2.96,1.3.06,2.6.08,3.9.07,1.75.14,3.51.21,5.26.22-2.34.08-4.69.19-7.03.22ZM58.62,171.93c-9.24,0-18.48-.11-27.72-.1,2.29-.47,4.57-.92,6.89-1.18,4.05-.44,8.03-.12,12.08,0,4.05.13,8.09.59,12.11,1.02,1.01.11,2.02.22,3.04.33-2.13-.05-4.26-.07-6.4-.08ZM129.73,174.19c-5.45-.37-10.52-2.76-15.99-3.03-6.32-.31-12.42,1.52-18.65,2.2-3.11.34-6.17.29-9.21.03-1.06-.12-2.13-.24-3.19-.34-.79-.1-1.57-.21-2.36-.32,1.85-.09,3.71-.24,5.55-.44,8.28-.92,16.45-2.52,24.81-2.35,4.22.09,8.34.73,12.51,1.28,4.17.55,8.35,1.06,12.53,1.51,2.32.25,4.65.44,6.97.59-4.32.47-8.64,1.17-12.99.88ZM1.29,18.95c.66-.04,1.33-.08,2-.12,3.88-.21,7.77-.4,11.65-.68,7.02-.52,13.96-1.48,20.96-2.16,6.87-.67,13.63-1.91,20.39-3.3,4.57-.94,9.15-1.91,13.77-2.67,5.22.36,10.44.79,15.67,1-4.2.43-8.38,1.04-12.51,1.7-6.85,1.09-13.62,2.54-20.42,3.89-6.95,1.38-13.87,1.94-20.95,2-7.19.06-14.34.15-21.53.64-3.02.21-6.04.44-9.06.62.01-.31.03-.61.04-.91ZM230.15,116.39c-2.48.06-4.98.03-7.53.02-13.29-.03-26.59.02-39.88.58-8.16.35-17.42-.06-25.23,2.83-3.47,1.28-2.13,3.56-6.3,4.48-9.17,2.02-19.23.29-28.43-.68-7.87-.84-15.89-1.61-23.63-3.29-1.57-.34-3.17-.76-4.52-1.67-1.32-.89-1.91-2.03-2.6-3.4-1.65-3.27-6.81-3.19-9.94-3.54-7.96-.88-15.95-1-23.94-.52-6.43.38-13.59,1.06-19.24-2.62-.08-.05-.01-.18.08-.15,7.57,3.21,15.62,2.01,23.58,1.71,7.85-.3,15.74.06,23.52,1.15,1.42.2,2.9.42,4.24.96,1.26.52,2.2,1.4,3.21,2.28,1.41,1.22,2.32,2.31,4.23,2.74,1.67.37,3.43.4,5.13.62,7.86,1.02,15.75,1.94,23.64,2.73,3.31.33,19.14,3.63,20.05-2.27.26-1.67-1.22-3.03-1-4.58.41-2.94,4.17-2.91,6.42-3.26,17.71-2.73,35.74-2.01,53.59-2.45,8.03-.2,16.07-.51,24.11-.42.79,2.52.48,5.94.46,8.76ZM224.09,44.03c-4.19-.15-8.38-.35-12.57-.41-2.05-.03-4.11-.13-6.16-.1-2.16.04-4.3.25-6.46.22-16.94-.26-33.88-1.02-50.8-1.76-1.96-.09-3.92-.12-5.87-.33-2.3-.25-4.59-.61-6.9-.85-4.08-.42-8.17-.59-12.27-.77-4.27-.19-8.56-.36-12.84-.41-4.3-.05-8.59.25-12.89.09-8.34-.3-16.69-.6-25.03-.9-6.69-.24-13.38-.36-20.07-.56-.01,0-.02,0-.04,0-3.67-.21-7.34-.34-11.02-.39-7.32-.26-14.64-.5-21.95-.86-4.78-.24-9.57-.17-14.35-.03-1.45.04-2.9.13-4.35.23-.03.86-.03,1.71.03,2.52,1.18,0,2.35,0,3.53-.02,4.26-.05,8.53-.1,12.78-.27,2.36-.09,4.71-.21,7.07-.29-7.73.54-15.55.81-23.23,1.89.04.25.09.49.14.73,7.3,0,14.6-.76,21.88-1.2,1.96-.12,3.95-.3,5.91-.21,2.04.1,4.03.22,6.07.14,4.08-.15,8.16-.43,12.24-.49,3.88-.06,7.78.14,11.64.47,2.02.17,4.03.21,6.04.5,2,.29,3.99.64,5.96,1.06,1.91.4,3.85.82,5.7,1.43,2.08.68,3.72,1.97,5.61,3.02,3.06,1.69,6.5,2.68,9.92,3.31,7.61,1.41,15.3.89,22.94,0,3.97-.47,7.94-.95,11.94-1.14,4.12-.19,8.27-.03,12.4,0,4.03.04,8.06.01,12.07-.36,4.15-.39,8.28-.94,12.41-1.49,8.37-1.11,16.67-1.42,25.1-1.06,8.88.38,17.74,1.01,26.62,1.44-7.18.28-14.35.65-21.53,1-16.73.8-33.46,1.73-50.19,2.65-8.35.46-16.67,1.08-25.01,1.73-8.23.64-16.3.94-24.53.11-16.41-1.65-32.85-2.51-49.35-2.09-14.79.38-29.52,1.77-44.24,3.21-.21,1.22-.32,2.49-.31,3.72,12.19.41,24.37.89,36.56.95,7.89.04,15.78.06,23.66.01,8.03-.05,16.04-.62,24.06-.88,4.07-.13,8.12-.27,12.17-.49,5.45.46,10.92.42,16.43.08,8.28-.51,16.56-1.32,24.82-2.06,16.66-1.51,33.34-2.64,50.04-3.59,9.42-.53,18.84-1.03,28.27-1.51,4.43-.22,8.88-.42,13.32-.71,0-.16,0-.31,0-.48,0-1.55,0-3.1,0-4.64-1.8-.06-3.59-.13-5.39-.19ZM169.5,44.48c-8.23.77-16.37,2.45-24.67,2.08-4.2-.19-8.39-.78-12.59-.88-3.85-.09-7.69.11-11.52.48-7.86.76-15.74,2.26-23.66,2.3-3.89.02-7.85-.54-11.53-1.81-1.74-.6-3.34-1.39-4.9-2.36-1.7-1.05-3.45-1.77-5.38-2.31-2-.56-4.04-1.06-6.09-1.49,7.54.3,15.09.6,22.63.91,8.38.34,16.7,1.22,25.07,1.61,4.28.2,8.56.36,12.84.46,4.22.1,8.43-.31,12.65-.39,4.18-.08,8.4.21,12.58.35,4.28.14,8.55.32,12.83.49,2.05.08,4.1.15,6.15.23-1.47.09-2.94.2-4.41.34ZM63.38,54.84c-7.88-.15-15.78-.09-23.66-.18-7.87-.09-15.74-.18-23.6-.06-1.11.02-2.21.03-3.32.05,8.8-.83,17.61-1.48,26.44-1.84,8.23-.33,16.46-.4,24.69.03,6.66.34,13.3,1.19,19.88,2.32-6.81.03-13.62-.2-20.43-.33ZM1.05,27.22c3.26.31,6.53.49,9.81.58,6.58.18,13.16.01,19.74-.14,6.5-.15,13-.29,19.5-.07,4.7.15,9.36.63,14.02,1.2-.24,0-.48,0-.72,0-7.44.13-14.86.97-22.27,1.55-7.61.6-15.23.89-22.86,1.04-4.24.08-8.48.13-12.72.18-1.54.02-3.09.03-4.63.06-.03.54-.08,1.12-.13,1.72,5.05.26,10.14.24,15.15.37,7.65.2,15.31.36,22.97.22,7.56-.14,15.06-1.09,22.62-1.33,7.29-.24,14.58.18,21.88.13,7.77-.06,15.81-.65,23.21-3.15.76-.26.71-1.61-.08-1.79-8.32-1.91-16.74-3.34-25.23-4.25-4.31-.46-8.57-1.07-12.92-.83-4.22.23-8.36.93-12.6.82-2.09-.06-4.18-.18-6.27-.31,2.02-.13,4.05-.27,6.07-.42,3.09-.23,6.24-.39,9.27-1.04,2.99-.64,5.89-1.64,8.87-2.35,2.99-.71,5.96-1.28,9.04-.99,2.92.28,5.77.92,8.66,1.41,2.77.47,5.58.8,8.39.62,3.1-.2,6.22-.99,9.19.33,2.52,1.12,4.72,2.55,7.43,3.23,2.6.66,5.27.9,7.94.9,5.96,0,11.86-1.08,17.81-1.3,3.59-.14,7.15-.01,10.74.18,3.5.19,7.03.11,10.54.19,3.52.08,7.03.25,10.54.51,2.94.21,5.9.3,8.84.56.01.1.03.21.06.32.48,1.75,2.51,2.23,4.03,2.66,4,1.14,8.14,1.63,12.29,1.72,8.54.19,16.99-1.1,25.52-1.24,1.59-.03,3.17.02,4.75.12,0-1.68,0-3.37,0-5.05-1.79-.12-3.57-.26-5.36-.39-3.54-.25-7.09-.45-10.63-.42-1.17,0-2.32.09-3.45.22,1.23-.33,2.47-.63,3.74-.86,3.69-.68,7.42-1.01,11.17-1.12,1.51-.05,3.02-.06,4.54-.08,0-.47,0-.95,0-1.42-1.84.16-3.67.33-5.51.5-6.52.59-13.81,1.1-19.73,4.22-.35.11-.71.22-1.06.34-.32.11-.22.67.12.67,7.1-.12,14.25.13,21.34.64.4.03.79.06,1.19.09-4.52-.15-9.03.11-13.54.37-4.58.27-9.13.7-13.72.53-2.28-.08-4.55-.28-6.79-.66-1.07-.18-2.14-.4-3.19-.68-.21-.06-.42-.11-.63-.17.52-.2,1.03-.41,1.44-.51,1.69-.38,3.41-.56,5.13-.79,3.98-.52,7.8-1.1,11.62-2.33.21-.07.42-.13.64-.2,2.19-.34,4.34-.87,6.5-1.35.5-.11,1-.22,1.5-.32,1.1-.17,2.21-.32,3.32-.48,2.29-.33,4.57-.7,6.85-1.09,1.5-.15,3.01-.27,4.51-.34,0-1.01,0-2.02,0-3.03,0-.86-.25-1.66-.67-2.29-1.86-.04-3.72-.08-5.58-.09-10.41-.1-20.82.15-31.22.48-10.42.33-20.83.78-31.23,1.43-5.16.32-10.32.84-15.49.97-2.54.06-5.09.08-7.63-.05-2.53-.13-5.05-.46-7.58-.58-5.59-.25-11.19-.37-16.77.12-5.79.51-11.55,1.26-17.37,1.27-.2,0-.24.31-.03.32,10.06.57,20.04-1.79,30.07-.14,5.12.84,10.13,1.89,15.32,2.31,5.04.41,10.14.36,15.18.18,10.38-.39,20.74-1.07,31.12-1.44,10.41-.38,20.82-.53,31.24-.77,3.51-.08,7.02-.18,10.54-.27-1.14.07-2.26.16-3.38.25-3.17.27-6.33.7-9.46,1.28-3.17.59-6.29,1.44-9.48,1.95-1.57.25-3.2.47-4.79.35-1.73-.13-3.42-.55-5.14-.68-2.88-.22-5.74.66-8.55,1.15-3.3.58-6.69.21-10.01.09-3.37-.13-6.72-.14-10.09-.09-.23,0-.46.01-.69.02-.54-.02-1.08-.05-1.62-.07-3.26-.12-6.51-.19-9.77-.07-3.13.11-6.2.54-9.32.86-6.02.62-12.03,1.41-18.07,1.88-6.01.46-11.96.19-17.37-2.73-2.34-1.26-4.44-2.06-7.15-1.95-3.07.12-6.01.64-9.1.35-5.82-.54-11.47-2.26-17.33-2.54-3.06-.15-6.1.38-9.1.89-3.11.52-6.28.84-9.42,1.19-6.28.7-12.63,1.37-18.86,2.39-4.48.73-8.95,1.34-13.44,1.87-7.93.11-15.86.41-23.8.42-.77,0-1.55,0-2.32,0-.05,1.36-.08,2.73-.11,4.09.01,0,.02,0,.04,0ZM67.29,25.59c4.07-.6,8.16-.53,12.26-.21,7.61.59,15.23,1.86,22.72,3.45-4.54,1.1-9.14,1.41-13.81,1.32-.37-.08-.74-.15-1.11-.21-1.75-.26-3.51-.48-5.26-.71-3.33-.45-6.68-.77-10.02-1.19-4.32-.55-8.62-1.04-12.94-1.4,2.74-.22,5.43-.65,8.17-1.05ZM1.2,86.04c-.02-.48-.03-.95-.05-1.43,1.17-.08,2.34-.16,3.52-.24,7.55-.5,15.09-1.01,22.64-1.53,5.2-.36,10.42-.78,15.64-.91,7.02-.4,14.1-.41,21.09.33,8.78.93,17.5,3,26.34,3.29,9.08.29,18.04-1.54,27.1-1.43,6.17.07,12.34.37,18.5.81,9.15-.83,18.32-1.71,27.5-2.04,5.41-.2,10.76.04,16.14.52,5.32.48,10.5,1.11,15.86.94,5.33-.17,10.63-.81,15.95-1.12,5.32-.31,10.63-.36,15.95-.28.19,0,.37,0,.56,0-.53,1.47-1.24,2.21-2.21,1.75.79.38,1.43.89,1.96,1.5-1.54.04-3.07.1-4.61.18-5.32.27-10.63.62-15.94,1.07-5.3.45-10.63,1-15.96.89-5.41-.1-10.7-1.04-16.03-1.89-5.25-.84-10.48-1.19-15.8-1.16-4.45.03-8.89.21-13.32.47,17.74,1.65,35.42,3.45,53.25,3.88,9.22.22,18.44.29,27.65.42.85.01,1.7.02,2.55.04.1.44.17.89.24,1.35-12.29-.18-24.57-.4-36.84-.86-18.4-.7-36.67-3.38-55.07-3.88-1.51-.04-3.04-.08-4.56-.09-2.15.15-4.3.3-6.46.44-2.62.17-5.24.31-7.85.43-2.83.37-5.66.79-8.51,1.07-4.96.48-9.91,1-14.87,1.17-.65.17-1.31.36-1.95.58-.82.27-1.91.57-2.44,1.29-.48.65-.18,1.48.26,2.21,1.94,1.07,4.66,1.01,6.76,1.19,6.02.51,12.03.97,18.06,1.39,10.89.76,21.79,1.39,32.7,1.88,5.5.25,11,.46,16.5.64,5.44.18,10.84.15,16.28.02,10.92-.25,21.86,0,32.79-.07,5.09-.03,10.19-.11,15.28-.18-.11,1.74-.26,3.45-.33,5-2.5.05-5,.09-7.5.14-9.63.17-19.26.32-28.89.42-17.29.18-34.59.06-51.88.08-8.56,0-17.09-.25-25.65-.43-8.55-.18-17.11-.11-25.65-.42-4.26-.15-8.52-.2-12.78-.21-4.37,0-8.67.33-13.03.56-8.45.43-16.97.16-25.43.17l-25.53.03c-3.65,0-7.29,0-10.94.01,0-1.04.02-2.01.02-2.87,4.44,0,8.88-.01,13.32-.02l28.73-.04c4.26,0,8.53-.06,12.8,0,2.31.03,4.62,0,6.92.1,2.04.09,4.06.37,6.09.43,8.65.26,17.27-.16,25.91-.26,8.58-.1,17.16-.22,25.74-.52,6.18-.22,12.35-.29,18.53-.31-1.27-.07-2.53-.13-3.79-.2-11.79-.65-23.57-1.46-35.34-2.43-2.7-.22-5.48-.27-8.15-.73-1.99-.35-4.07-1.1-5.25-2.84-.7-1.03-.85-2.34-.59-3.55-6.24.11-12.42-1.24-18.49-2.76-3.36-.84-6.7-1.86-10.09-2.57-3.66-.76-7.37-1.2-11.1-1.34-5.24-.2-10.51.08-15.77.39-.13.01-.27.02-.4.03-8.68.71-17.35,1.67-26.05,2.14-1.32.07-2.64.14-3.97.2-.01-.26-.02-.53-.03-.79.53-.03,1.06-.06,1.59-.1-.53.02-1.06.05-1.59.07ZM229.63,59.02c-.06.84-.26,1.77-.32,2.41-7.8-.24-15.6-.66-23.4-.85-5.24-.13-10.5-.53-15.73-.37-5.17.16-10.31-.21-15.47-.42-.11,0-.09-.17.02-.17,5.9-.01,11.73-.11,17.62.23,2.58.15,5.18-.11,7.76-.13,2.59-.02,5.17-.03,7.75-.06,5.18-.06,10.36-.33,15.54-.47,2.08-.05,4.15-.12,6.23-.18ZM229.86,134.09c0,.62-.01,1.21-.03,1.78-3.84.26-7.68.48-11.52.75-9.68.68-19.36,1.61-29.05,2.02-8.54.36-17.05.04-25.53-1.07-11.51-1.51-22.89-2.34-34.57-1.86-5.79.24-11.51.76-17.29,1.11-8.48.51-17.04.59-25.47,1.72-4.85.65-9.65,1.64-14.51,2.19-3.99.45-7.65-.15-11.57.03-8.72.39-17.49.11-26.22.12-8.74,0-17.47-.03-26.21-.09-1.96-.01-3.93-.03-5.89-.03-.1-1.19-.18-2.39-.22-3.57,3.05-.09,6.1-.18,9.14-.26,9.82-.26,19.63-.28,29.45-.24,16.32.07,32.64.8,48.96-.06,7.8-.41,15.54-1.41,23.33-1.9,2.41-.15,5.54.22,7.75-.57-8.21-.07-16.69-1.4-24.86-2.25-7.75-.81-19.35-.4-25.05-6.27-.97-1-.25-1.04-1.99-1.87-2.42-1.15-6.26-1.13-8.88-1.34-7.71-.62-15.47-.29-23.18-.67-4.88-.24-10.66.44-15.4-1.02-1.85-.57-3.29-1.54-1-2.85-1.62-2.85-13.75-.8-16.62-.78-.21,0-.42,0-.63,0-.34-2.13-.51-4.49-.58-6.83,3.54-.22,7.06-.61,10.61-.68,5.14-.1,15.36-1.34,18.81,2.91.95,1.17-.52,1.21,1.75,2.27,2.8,1.31,7.41,1.09,10.41,1.23,10.98.54,22.44-1.85,33.33-.24,2.93.43,4.3.62,5.14,2.86.18.49-.65,1.18-.47,1.82.32,1.16,1.86,1.72,2.76,2.2,6.6,3.47,16.62,4.29,23.92,5.17,10.23,1.23,20.55,2.35,30.85,2.44,5.84.06,16.98,3.27,21.98-.31-.2-.26-.31-.87-.55-1.18,8.54-2.83,15.28-1.02,23.75-.11,13.12,1.41,26.13.2,39.21.55,2.09.06,4.17.13,6.26.22-.06,1.56-.11,3.1-.12,4.64ZM1.96,66.62c.25-.26.55-.48.9-.66,4.83-.22,9.64-.51,14.45-1.08,5.77-.69,11.53-1.56,17.29-2.3,5.11-.65,10.23-1.17,15.39-1.34,5.27-.18,10.47.27,15.7.94,5.32.68,10.62,1.69,15.99,1.86,5.42.17,10.81-.55,16.21-.93,5.24-.36,10.49-.24,15.74-.07,5.34.17,10.83.54,16.15-.06,5.26-.59,10.56-.81,15.82-1.48,5.35-.67,10.71-1.28,16.06-1.95.45-.06.73.65.26.81-5.71,1.83-11.47,3.13-17.42,3.88-2.93.37-5.88.63-8.83.83-2.98.2-5.93.14-8.91.21-10.83.26-21.61-.75-32.42.23-5.33.48-10.64,1.05-15.99.92-5.3-.13-10.51-.89-15.77-1.54-10.59-1.31-21.07-.77-31.66.3-5.29.53-10.57,1.13-15.87,1.44-4.31.26-8.74.41-13.07-.01ZM212.09,68.45c5.71-.96,11.48-1.5,17.26-1.69,0,1.21,0,2.57-.04,3.97-6.56.45-13.06,1.26-19.55,2.4-3.75.66-7.46,1.23-11.19,1.62.48,0,.97,0,1.46,0,9.72-.05,19.43-.27,29.15-.41-.08,1.46-.19,2.89-.35,4.21-.97.01-1.95.03-2.92.04-9.88.14-19.79.45-29.68.27-4.85-.09-9.63-.65-14.4-1.52-3.59-.66-7.17-.77-10.77-.53-.05,0-.1,0-.15.01-1.17.08-2.35.2-3.52.35-4.86.61-9.65,1.64-14.5,2.3-4.84.66-9.71,1.08-14.58,1.34-9.63.51-19.29.39-28.92.02-.22,0-.18-.33.03-.33,11.13-.26,22.27-.22,33.37-1.21,1.79-.16,3.59-.35,5.37-.58-5.67.06-11.12-1.37-16.72-1.96-5.85-.62-11.66.48-17.42,1.39-5.91.93-11.83,1.69-17.74,2.56-.26.04-.32-.35-.07-.4,6.74-1.31,13.44-2.72,20.2-3.97,5.55-1.02,11.11-1.9,16.78-1.8,5.77.1,11.49.5,17.26.15,1.77-.11,3.53-.26,5.29-.43,3.75-.51,7.48-1.15,11.22-1.74,3.62-.57,7.26-1.18,10.91-1.44,3.88-.28,7.74-.09,11.63-.01,7.64.15,15.09-1.36,22.59-2.62Z"/>
            <g class="cls-80">
              <path class="cls-42" d="M226.71,85.31c-.3.14-.63.14-1-.03.53.25.99.57,1.4.94.19,0,.37-.01.56-.02-.28-.33-.6-.62-.96-.89Z"/>
              <path class="cls-20" d="M82.26,118.65c-.84-2.24-2.21-2.43-5.14-2.86-10.89-1.61-22.34.78-33.33.24-3-.15-7.61.07-10.41-1.23-2.27-1.06-.8-1.1-1.75-2.27-3.45-4.25-13.67-3.01-18.81-2.91-3.55.07-7.07.45-10.61.68,0,.19.01.38.02.57,3.53-.22,7.04-.6,10.59-.67,5.14-.1,15.36-1.34,18.81,2.91.95,1.17-.52,1.21,1.75,2.27,2.8,1.31,7.41,1.09,10.41,1.23,10.98.54,22.44-1.85,33.33-.24,2.88.43,4.25.62,5.09,2.75.07-.17.1-.32.05-.46Z"/>
              <path class="cls-10" d="M229.35,66.76c-5.78.19-11.55.74-17.26,1.69-7.5,1.26-14.95,2.76-22.59,2.62-3.88-.07-7.74-.26-11.63.01-3.65.26-7.3.87-10.91,1.44-3.74.58-7.47,1.23-11.22,1.74-1.76.17-3.53.32-5.29.43-5.77.35-11.49-.05-17.26-.15-5.67-.1-11.22.78-16.78,1.8-6.75,1.24-13.46,2.66-20.2,3.97-.25.05-.19.43.07.4,1.06-.16,2.12-.31,3.19-.46,5.64-1.12,11.28-2.28,16.94-3.33,5.55-1.02,11.11-1.9,16.78-1.8,5.77.1,11.49.5,17.26.15,1.77-.11,3.53-.26,5.29-.43,3.75-.51,7.48-1.15,11.22-1.74,3.62-.57,7.26-1.18,10.91-1.44,3.88-.28,7.74-.09,11.63-.01,7.64.15,15.09-1.36,22.59-2.62,5.71-.96,11.48-1.5,17.26-1.69v.37c0-.32,0-.64,0-.95Z"/>
              <path class="cls-67" d="M16.11,55.18c7.86-.13,15.74-.03,23.6.06,7.89.09,15.78.03,23.66.18,6.81.13,13.62.36,20.43.33-1.19-.2-2.39-.4-3.58-.58-5.61-.04-11.23-.22-16.84-.32-7.88-.15-15.78-.09-23.66-.18-6.42-.07-12.84-.15-19.26-.1-2.56.21-5.11.43-7.66.67,1.11-.02,2.21-.03,3.32-.05Z"/>
              <path class="cls-44" d="M101.77,101.27c-1.94.03-3.87.05-5.81.07-8.65.1-17.26.53-25.91.26-2.04-.06-4.06-.34-6.09-.43-2.3-.1-4.62-.07-6.92-.1-4.26-.06-8.53,0-12.8,0l-28.73.04c-4.44,0-8.88.01-13.32.02,0,.86-.01,1.83-.02,2.87h0c0-.82.02-1.6.02-2.3,4.44,0,8.88-.01,13.32-.02l28.73-.04c4.26,0,8.53-.06,12.8,0,2.31.03,4.62,0,6.92.1,2.04.09,4.06.37,6.09.43,8.51.26,16.98-.15,25.49-.26,2.08-.23,4.15-.44,6.23-.65Z"/>
              <path class="cls-21" d="M198.32,163.93c-1.75,0-3.51-.08-5.26-.22-1.3,0-2.6,0-3.9-.07-.09,0-.18-.01-.28-.02-16.06.37-32.04,1.86-48.07,0-.75.11-1.5.21-2.25.28-.03,0-.06,0-.09,0,.52.07,1.03.13,1.55.2,17.09,2.1,34.13.31,51.26.04,2.34-.04,4.68-.14,7.03-.22Z"/>
              <path class="cls-51" d="M2.79,86.54c-.52.02-1.05.05-1.57.07,0,.01,0,.02,0,.03.52-.03,1.05-.06,1.57-.1Z"/>
              <path class="cls-37" d="M203.35,74.72c-1.59.23-3.18.43-4.77.59.48,0,.97,0,1.46,0,9.71-.05,19.41-.27,29.12-.41.01-.19.02-.38.03-.57-8.61.12-17.22.31-25.83.38Z"/>
              <path class="cls-31" d="M87.02,91.34c-.03.28-.04.56-.02.84.01-.28.05-.56.11-.84-.03,0-.06,0-.09,0Z"/>
              <path class="cls-14" d="M126.51,120.61c-7.89-.78-15.78-1.71-23.64-2.73-1.7-.22-3.45-.24-5.13-.62-1.91-.43-2.82-1.52-4.23-2.74-1.01-.88-1.95-1.76-3.21-2.28-1.34-.55-2.81-.77-4.24-.96-7.78-1.09-15.67-1.44-23.52-1.15-7.96.3-16,1.5-23.58-1.71-.09-.04-.16.1-.08.15.76.49,1.54.91,2.35,1.26,6.9,2.15,14.14,1.15,21.3.88,7.85-.3,15.74.06,23.52,1.15,1.42.2,2.9.42,4.24.96,1.26.52,2.2,1.4,3.21,2.28,1.41,1.22,2.32,2.31,4.23,2.74,1.67.37,3.43.4,5.13.62,7.86,1.02,15.75,1.94,23.64,2.73,3.31.33,19.14,3.63,20.05-2.27.04-.24.04-.47.01-.7,0,.04,0,.08-.01.13-.92,5.9-16.74,2.6-20.05,2.27Z"/>
              <path class="cls-68" d="M109.06,154.95c4,.46,7.85,1.52,11.73,2.58,3.82,1.04,7.67,2.03,11.64,2.31,4.18.3,8.3-.15,12.44-.61,4.17-.46,8.35-1.16,12.54-1.38,4.23-.23,8.44.11,12.63.67,1.13.15,2.26.31,3.38.48-.74-.32-1.48-.62-2.21-.89-.39-.05-.78-.11-1.17-.16-4.19-.56-8.4-.9-12.63-.67-4.19.23-8.37.92-12.54,1.38-4.15.46-8.27.91-12.44.61-3.97-.28-7.82-1.27-11.64-2.31-3.87-1.06-7.73-2.12-11.73-2.58-.62-.07-1.24-.12-1.87-.16-.99.15-1.99.32-2.98.49,1.62-.01,3.23.06,4.84.25Z"/>
              <path class="cls-50" d="M216.02,168.09c-.6-.04-1.2-.08-1.81-.12-1-.06-2.01-.13-3.02-.19-6.51.36-13.02.71-19.53,1.07-16.89.92-33.73,2.62-50.66,1.46-8.31-.57-16.54-1.94-24.88-2.19-4.1-.13-8.2-.27-12.3.01-4.14.29-8.25.9-12.36,1.47-8.26,1.16-16.46,1.77-24.76.57-7.93-1.15-15.74-3.25-23.8-3.19-4.49.03-8.83.71-13.21,1.61-4.52.93-8.95,1.52-13.58,1.38-4.55-.13-9.08-.72-13.62-.98-.12,0-.24,0-.36-.02.06.2.12.39.18.58.06,0,.12,0,.17,0,4.55.26,9.07.85,13.62.98,4.63.13,9.05-.46,13.58-1.38,4.39-.9,8.72-1.58,13.21-1.61,8.06-.05,15.87,2.05,23.8,3.19,8.3,1.2,16.5.59,24.76-.57,4.11-.58,8.22-1.19,12.36-1.47,4.1-.28,8.19-.14,12.3-.01,8.34.26,16.57,1.62,24.88,2.2,16.92,1.16,33.77-.53,50.66-1.46,8.12-.44,16.23-.89,24.35-1.33Z"/>
              <path class="cls-7" d="M113.75,171.73c5.46.27,10.54,2.67,15.99,3.03,4.35.29,8.67-.4,12.99-.88-1.01-.06-2.03-.14-3.04-.22-3.31.39-6.62.75-9.95.52-5.45-.37-10.52-2.76-15.99-3.03-6.32-.31-12.42,1.52-18.65,2.2-3.11.34-6.17.29-9.21.03-.88-.1-1.75-.19-2.63-.28-.97.08-1.94.14-2.92.19.79.12,1.57.22,2.36.32,1.06.11,2.13.22,3.19.34,3.04.26,6.1.31,9.21-.03,6.22-.69,12.33-2.51,18.65-2.2Z"/>
              <path class="cls-3" d="M58.62,172.5c2.14,0,4.27.03,6.4.08-1.01-.11-2.03-.22-3.04-.33-1.01-.11-2.03-.22-3.04-.32-.11,0-.21,0-.32,0-8.28,0-16.55-.09-24.83-.1-.97.18-1.93.37-2.9.57,9.24-.01,18.48.09,27.72.1Z"/>
              <path class="cls-30" d="M4.7,172.93c-.3.32-.65.68-.98,1.06.17,0,.34,0,.52.01.33-.35.65-.67.88-.96-.14-.03-.28-.07-.41-.11Z"/>
              <path class="cls-33" d="M148.17,79.28c-1.26.01-2.51-.05-3.75-.16-.54.05-1.08.11-1.62.16-11.1.99-22.24.95-33.37,1.21-.21,0-.25.32-.03.33,1.51.06,3.02.1,4.53.15,9.63-.18,19.27-.26,28.87-1.12,1.79-.16,3.59-.35,5.37-.57Z"/>
              <path class="cls-47" d="M229.51,149.05c-5.47.27-10.85,1.15-16.17,2.49-5.64,1.42-11.07,3.65-16.77,4.84-5.46,1.14-10.8.48-16.16-.82-4.44-1.08-9.02-2.51-13.63-2.66-.7-.1-1.4-.18-2.11-.23-7.99-.66-16,.61-24.01.28-.98-.04-1.63-.12-2.36-.82-.42-.4-.76-.87-1.25-1.2-1.48-.98-3.41-.79-5.09-.76-4.01.08-8.02.27-12.01.7-4.07.44-8.13,1.01-12.16,1.74-1.8.26-3.6.55-5.4.86-.08.01-.06.14.02.13.41-.06.81-.12,1.22-.17-1.43.3-2.86.63-4.28.98-.92.09-1.85.2-2.77.33-1.64.23-3.28.52-4.91.81-7.79.4-15.59.77-23.39,1.13-7.74-.91-15.38-2.76-23.04-4.13-14.15-2.54-28.36-4.55-42.67-5.04,0,.01,0,.02,0,.03,0,.16,0,.35,0,.54,14.32.49,28.52,2.5,42.67,5.04,7.66,1.38,15.3,3.22,23.04,4.13,7.8-.37,15.59-.74,23.39-1.13,1.63-.29,3.27-.58,4.91-.81.92-.13,1.84-.24,2.77-.33,1.42-.35,2.85-.68,4.28-.98-.41.06-.81.11-1.22.17-.09.01-.11-.12-.02-.13,1.8-.31,3.6-.6,5.4-.86,4.03-.73,8.1-1.3,12.16-1.74,3.99-.43,8-.63,12.01-.7,1.68-.03,3.62-.22,5.09.76.49.33.83.8,1.25,1.2.73.7,1.38.78,2.36.82,8,.33,16.01-.94,24.01-.28.71.06,1.41.14,2.11.23,4.61.15,9.19,1.58,13.63,2.66,5.37,1.31,10.7,1.97,16.16.82,5.7-1.19,11.13-3.42,16.77-4.84,5.32-1.34,10.7-2.22,16.17-2.49.02.61.03,1.22.04,1.84,0,0,0,0,.01,0-.01-.8-.03-1.61-.05-2.41Z"/>
              <path class="cls-9" d="M40.36,137.25c16.32.07,32.64.8,48.96-.06,7.8-.41,15.54-1.41,23.33-1.9,2.41-.15,5.54.22,7.75-.57-.99,0-1.98-.04-2.97-.08-1.62.08-3.33-.02-4.78.07-7.79.49-15.53,1.49-23.33,1.9-16.31.86-32.64.13-48.96.06-9.82-.04-19.63-.02-29.45.24-3.05.08-6.1.17-9.14.26,0,.19.01.38.02.57,3.04-.09,6.08-.18,9.12-.26,9.82-.26,19.63-.28,29.45-.24Z"/>
              <path class="cls-71" d="M148.75,61.7c1.09-.35,2.19-.67,3.3-.97-2.15.26-4.31.52-6.46.79-5.26.66-10.56.88-15.82,1.48-5.32.6-10.81.23-16.15.06-5.25-.17-10.49-.29-15.74.07-5.4.37-10.79,1.1-16.21.93-5.37-.17-10.67-1.18-15.99-1.86-5.23-.67-10.43-1.12-15.7-.94-5.15.17-10.27.69-15.39,1.34-5.77.73-11.52,1.61-17.29,2.3-4.82.58-9.62.86-14.45,1.08-.35.18-.65.4-.9.66.22.02.44.04.65.05.08-.05.16-.09.25-.14,4.83-.22,9.64-.51,14.45-1.08,5.77-.69,11.53-1.56,17.29-2.3,5.11-.65,10.23-1.16,15.39-1.34,5.27-.18,10.47.27,15.7.94,5.32.68,10.62,1.68,15.99,1.86,5.42.17,10.81-.55,16.21-.93,5.24-.36,10.49-.24,15.74-.07,5.34.17,10.83.54,16.15-.06,5.26-.59,10.56-.81,15.82-1.48,1.05-.13,2.11-.26,3.16-.39Z"/>
              <path class="cls-13" d="M16.86,40c-2.96.12-5.92.17-8.88.22-2.43.21-4.86.47-7.28.81.03.19.07.38.11.56,7.64-1.07,15.42-1.34,23.12-1.88-2.36.08-4.71.19-7.07.29Z"/>
              <path class="cls-63" d="M27.3,83.41c5.2-.36,10.42-.78,15.64-.91,7.02-.4,14.1-.41,21.09.33,8.78.93,17.5,3,26.34,3.29,9.08.29,18.04-1.54,27.1-1.43,6.17.07,12.34.37,18.5.81,9.15-.82,18.32-1.71,27.5-2.04,5.41-.2,10.76.04,16.14.52,5.32.48,10.5,1.11,15.86.94,5.33-.17,10.63-.81,15.95-1.12,5.32-.31,10.63-.36,15.95-.28.11,0,.22,0,.33,0,.08-.18.16-.36.23-.57-.19,0-.37,0-.56,0-5.32-.08-10.64-.03-15.95.28-5.32.31-10.62.95-15.95,1.12-5.36.17-10.54-.47-15.86-.94-5.39-.48-10.73-.72-16.14-.52-9.18.34-18.34,1.22-27.5,2.04-6.16-.44-12.33-.74-18.5-.81-9.07-.11-18.02,1.72-27.1,1.43-8.84-.28-17.56-2.36-26.34-3.29-6.99-.74-14.07-.73-21.09-.33-5.22.14-10.44.56-15.64.91-7.54.52-15.09,1.03-22.64,1.53-1.17.08-2.34.16-3.52.24,0,.19.01.38.02.57,1.17-.08,2.33-.16,3.5-.24,7.55-.5,15.09-1.01,22.64-1.53Z"/>
              <path class="cls-11" d="M75.25,42.56c1.93.54,3.68,1.26,5.38,2.31,1.56.96,3.16,1.76,4.9,2.36,3.68,1.26,7.64,1.83,11.53,1.81,7.91-.04,15.8-1.54,23.66-2.3,3.83-.37,7.67-.57,11.52-.48,4.2.1,8.39.69,12.59.88,8.3.38,16.44-1.31,24.67-2.08,1.47-.14,2.94-.25,4.41-.34-1.65-.06-3.31-.12-4.96-.18-8.04.79-16,2.39-24.12,2.02-4.2-.19-8.39-.78-12.59-.88-3.85-.09-7.69.11-11.52.48-7.86.76-15.74,2.26-23.66,2.3-3.89.02-7.85-.54-11.53-1.81-1.74-.6-3.34-1.39-4.9-2.36-1.7-1.05-3.45-1.77-5.38-2.31-1-.28-2.02-.55-3.04-.8-1.02-.04-2.03-.08-3.05-.12,2.05.44,4.08.93,6.09,1.49Z"/>
              <path class="cls-48" d="M.91,32.21c1.55-.03,3.09-.04,4.63-.06,4.24-.05,8.48-.1,12.72-.18,7.63-.15,15.25-.44,22.86-1.04,7.41-.58,14.83-1.42,22.27-1.55.24,0,.48,0,.72,0-1.34-.17-2.68-.32-4.03-.47-6.33.27-12.65.95-18.96,1.45-7.61.6-15.23.89-22.86,1.04-4.24.08-8.48.13-12.72.18-1.54.02-3.09.03-4.63.06-.03.54-.08,1.12-.13,1.72.02,0,.03,0,.05,0,.03-.39.06-.78.08-1.15Z"/>
              <path class="cls-59" d="M1.13,23.7c.77,0,1.54,0,2.32,0,7.93-.02,15.86-.31,23.8-.42,4.49-.53,8.96-1.14,13.44-1.87,6.24-1.02,12.59-1.69,18.86-2.39,3.14-.35,6.31-.67,9.42-1.19,3.01-.5,6.04-1.03,9.1-.89,5.86.28,11.51,2,17.33,2.54,3.08.29,6.03-.23,9.1-.35,2.71-.11,4.81.69,7.15,1.95,5.4,2.92,11.35,3.2,17.37,2.73,6.04-.47,12.04-1.26,18.07-1.88,3.12-.32,6.19-.75,9.32-.86,3.26-.12,6.51-.05,9.77.07.54.02,1.08.04,1.62.07.23,0,.46-.01.69-.02,3.37-.05,6.72-.04,10.09.09,3.32.12,6.71.49,10.01-.08,2.81-.49,5.66-1.37,8.55-1.15,1.72.13,3.42.55,5.14.68,1.59.12,3.22-.09,4.79-.35,3.19-.51,6.31-1.36,9.48-1.95,3.13-.58,6.29-1.01,9.46-1.28,1.11-.1,2.24-.18,3.38-.25-2.72.07-5.44.14-8.17.21-1.56.21-3.12.46-4.68.75-3.17.59-6.29,1.44-9.48,1.95-1.57.25-3.2.47-4.79.35-1.73-.13-3.42-.55-5.14-.68-2.88-.22-5.74.66-8.55,1.15-3.3.58-6.69.21-10.01.09-3.37-.13-6.72-.14-10.09-.09-.23,0-.46.01-.69.02-.54-.02-1.08-.05-1.62-.07-3.26-.12-6.51-.19-9.77-.07-3.13.11-6.2.54-9.32.86-6.02.62-12.03,1.41-18.07,1.88-6.01.46-11.96.19-17.37-2.73-2.34-1.26-4.44-2.06-7.15-1.95-3.07.12-6.01.64-9.1.35-5.82-.54-11.47-2.26-17.33-2.54-3.06-.15-6.1.38-9.1.89-3.11.52-6.28.84-9.42,1.19-6.28.7-12.63,1.37-18.86,2.39-4.48.73-8.95,1.34-13.44,1.87-7.93.11-15.86.41-23.8.42-.77,0-1.55,0-2.32,0-.05,1.36-.08,2.73-.11,4.09,0,0,.01,0,.02,0,.03-1.17.06-2.35.1-3.52Z"/>
              <path class="cls-69" d="M204.24,24.21c-.35.11-.71.22-1.06.34-.26.09-.24.46-.05.61.02-.01.03-.02.05-.03.35-.12.71-.23,1.06-.34,5.92-3.13,13.21-3.63,19.73-4.22,1.84-.17,3.67-.33,5.51-.5v.85h0c0-.47,0-.95,0-1.42-1.84.16-3.67.33-5.51.5-6.52.59-13.81,1.1-19.73,4.22Z"/>
              <path class="cls-17" d="M95.91,16.46c1.83.1,3.66.11,5.49.06,3.97-.26,7.93-.72,11.9-1.07,5.58-.49,11.18-.37,16.77-.12,2.53.12,5.05.45,7.58.58,2.54.13,5.09.12,7.63.05,5.17-.13,10.33-.65,15.49-.97,10.4-.65,20.82-1.1,31.23-1.43,10.4-.33,20.81-.58,31.22-.48,1.86.02,3.72.05,5.58.09.42.64.67,1.43.67,2.29v2.45h0c0-1.01,0-2.02,0-3.03,0-.86-.25-1.66-.67-2.29-1.86-.04-3.72-.08-5.58-.09-10.41-.1-20.82.15-31.22.48-10.42.33-20.83.78-31.23,1.43-5.16.32-10.32.84-15.49.97-2.54.06-5.09.08-7.63-.05-2.53-.13-5.05-.46-7.58-.58-5.59-.25-11.19-.37-16.77.12-5.79.51-11.55,1.26-17.37,1.27-.2,0-.24.31-.03.32Z"/>
              <path class="cls-66" d="M1.29,19.52c.66-.04,1.33-.08,2-.12,3.88-.21,7.77-.4,11.65-.68,7.02-.52,13.96-1.48,20.96-2.16,6.87-.67,13.63-1.91,20.39-3.3,4.57-.94,9.15-1.91,13.77-2.67,4.05.28,8.08.6,12.13.83,1.18-.15,2.36-.28,3.54-.4-5.23-.21-10.44-.64-15.67-1-4.61.76-9.2,1.72-13.77,2.67-6.76,1.39-13.52,2.63-20.39,3.3-7,.69-13.94,1.65-20.96,2.16-3.88.29-7.77.47-11.65.68-.67.04-1.33.08-2,.12-.01.3-.03.61-.04.91,0,0,.02,0,.03,0,0-.11.01-.23.02-.34Z"/>
              <path class="cls-64" d="M.45,54.37c14.72-1.44,29.45-2.83,44.24-3.21,16.5-.42,32.94.44,49.35,2.09,8.23.83,16.29.53,24.53-.11,8.33-.65,16.66-1.27,25.01-1.73,16.73-.92,33.46-1.85,50.19-2.65,7.17-.34,14.35-.72,21.53-1-2.01-.1-4.02-.21-6.02-.32-5.17.23-10.34.5-15.51.74-16.73.8-33.46,1.73-50.19,2.65-8.35.46-16.67,1.08-25.01,1.73-8.23.64-16.3.94-24.53.11-16.41-1.65-32.85-2.51-49.35-2.09-14.79.38-29.52,1.77-44.24,3.21-.21,1.22-.32,2.49-.31,3.72h0c.02-1.05.12-2.12.3-3.15Z"/>
              <path class="cls-36" d="M.52,37.76c1.45-.1,2.9-.19,4.35-.23,4.78-.14,9.57-.21,14.35.03,7.31.36,14.63.6,21.95.86,3.67.06,7.35.19,11.02.39.01,0,.02,0,.04,0,6.69.21,13.38.32,20.07.56,8.34.3,16.69.6,25.03.89,4.3.15,8.59-.15,12.89-.09,4.28.05,8.57.22,12.84.41,4.1.18,8.19.36,12.27.77,2.3.24,4.59.6,6.9.85,1.95.21,3.91.24,5.87.33,16.92.74,33.87,1.5,50.8,1.76,2.16.03,4.3-.18,6.46-.22,2.05-.04,4.11.06,6.16.09,4.19.06,8.38.27,12.57.42,1.8.06,3.59.13,5.39.19,0-.19,0-.38,0-.57-1.8-.06-3.59-.13-5.39-.19-4.19-.15-8.38-.35-12.57-.41-2.05-.03-4.11-.13-6.16-.1-2.16.04-4.3.25-6.46.22-16.94-.26-33.88-1.02-50.8-1.76-1.96-.09-3.92-.12-5.87-.33-2.3-.25-4.59-.61-6.9-.85-4.08-.42-8.17-.59-12.27-.77-4.27-.19-8.56-.36-12.84-.41-4.3-.05-8.59.25-12.89.09-8.34-.3-16.69-.6-25.03-.9-6.69-.24-13.38-.36-20.07-.56-.01,0-.02,0-.04,0-3.67-.21-7.34-.34-11.02-.39-7.32-.26-14.64-.5-21.95-.86-4.78-.24-9.57-.17-14.35-.03-1.45.04-2.9.13-4.35.23-.02.46-.02.91-.02,1.35,0-.26,0-.52.02-.78Z"/>
              <path class="cls-28" d="M184.5,128.68c-8.48-.91-15.21-2.71-23.75.11.1.13.18.31.25.5,8.42-2.71,15.11-.94,23.51-.03,13.12,1.41,26.13.2,39.21.55,2.08.06,4.16.13,6.24.22,0-.19.01-.38.02-.57-2.09-.09-4.17-.16-6.26-.22-13.08-.35-26.09.86-39.21-.55Z"/>
              <path class="cls-41" d="M14.15,152.08c4.52,1.05,8.79,2.62,13.12,4.25,4.34,1.64,8.62,2.21,13.24,2.15,6.17-.08,12.36-.43,18.53-.77-.82-.14-1.64-.29-2.45-.44-5.36.29-10.72.56-16.08.64-4.62.06-8.91-.51-13.24-2.15-4.33-1.63-8.6-3.2-13.12-4.25-1.05-.25-2.1-.47-3.16-.68-1.59-.12-3.18-.22-4.77-.31,2.66.44,5.3.95,7.93,1.56Z"/>
              <path class="cls-4" d="M205.73,163.27c-1.32.29-2.65.47-3.99.56.93-.01,1.86-.02,2.79,0,4.32.06,8.64.15,12.95.35,4,.18,8,.47,11.99.83,0-.19,0-.38,0-.57-3.99-.37-7.99-.65-11.99-.83-3.92-.18-7.84-.27-11.76-.33Z"/>
              <path class="cls-18" d="M100.29,176.08c1.82.31,3.64.64,5.45.97.15-.03.29-.06.44-.09.43-.09.81-.15,1.16-.19-1.73-.33-3.47-.64-5.2-.94-.62.09-1.23.17-1.85.25Z"/>
              <path class="cls-60" d="M188.81,177.79c-2.84-.38-5.75-.74-8.5-1.55-2.97-.88-5.97-1.49-8.99-1.95-1.31.02-2.61.04-3.92.06,4.37.49,8.66,1.21,12.91,2.47,2.75.82,5.66,1.17,8.5,1.55,2.85.38,5.71.74,8.58,1.04.95.1,1.9.19,2.85.28.62-.13,1.24-.27,1.86-.41-1.57-.13-3.14-.28-4.71-.44-2.86-.3-5.72-.65-8.58-1.04Z"/>
              <path class="cls-1" d="M215.87,155.82c-2.03.06-4.06.18-6.09.32-.82.25-1.63.5-2.44.76,2.84-.23,5.68-.42,8.53-.51,4.58-.14,9.13-.05,13.69.35,0-.19,0-.38,0-.57-4.56-.41-9.11-.5-13.69-.36Z"/>
              <path class="cls-32" d="M226.92,90.06c-9.22-.12-18.44-.2-27.65-.42-16.5-.4-32.87-1.97-49.28-3.51-1.32.06-2.65.13-3.97.2,17.74,1.65,35.42,3.45,53.25,3.88,9.22.22,18.44.29,27.65.42.85.01,1.7.02,2.55.04.06.25.1.51.15.77.03,0,.06,0,.09,0-.06-.46-.14-.91-.24-1.35-.85-.01-1.7-.02-2.55-.04Z"/>
              <path class="cls-45" d="M181.7,98.9c-5.44.12-10.84.15-16.28-.02-5.5-.18-11-.39-16.5-.64-10.91-.49-21.81-1.12-32.7-1.88-6.02-.42-12.04-.89-18.06-1.39-2.1-.18-4.82-.11-6.76-1.19-.22-.37-.41-.76-.48-1.15-.11.55.14,1.17.48,1.72,1.94,1.07,4.66,1.01,6.76,1.19,6.02.51,12.03.97,18.06,1.39,10.89.76,21.79,1.39,32.7,1.88,5.5.25,11,.46,16.5.64,5.44.18,10.84.15,16.28.02,10.92-.25,21.86,0,32.79-.07,5.08-.03,10.16-.11,15.24-.18.01-.19.03-.38.04-.57-5.09.07-10.19.15-15.28.18-10.93.06-21.86-.18-32.79.07Z"/>
              <path class="cls-2" d="M229.69,107.62c-8.04-.09-16.08.23-24.11.42-17.85.44-35.88-.27-53.59,2.45-2.26.35-6.01.32-6.42,3.26-.03.21-.03.41,0,.61,0-.01,0-.03,0-.04.41-2.94,4.17-2.91,6.42-3.26,17.71-2.73,35.74-2.01,53.59-2.45,8.03-.2,16.07-.51,24.11-.42.41,1.31.52,2.87.54,4.46.01-1.78-.07-3.56-.54-5.03Z"/>
              <path class="cls-39" d="M2.35,151.33s.03,0,.05,0c.11-1.25.18-2.3.16-3.07-.02.82-.1,1.86-.21,3.06Z"/>
              <path class="cls-54" d="M139.32,130.28c-10.3-.1-20.62-1.22-30.85-2.44-7.3-.88-17.32-1.7-23.92-5.17-.88-.46-2.36-1.01-2.73-2.12-.05.17-.07.33-.03.49.32,1.16,1.86,1.72,2.76,2.2,6.6,3.47,16.62,4.29,23.92,5.17,10.23,1.23,20.55,2.35,30.85,2.44,5.84.06,16.98,3.27,21.98-.31-.08-.1-.14-.26-.21-.44-5.09,3.35-16.01.23-21.77.17Z"/>
              <path class="cls-19" d="M106.52,27.78c-8.32-1.91-16.74-3.34-25.23-4.25-4.31-.46-8.57-1.07-12.92-.83-4.22.23-8.36.93-12.6.82-.54-.01-1.07-.03-1.61-.05-1.56.11-3.11.22-4.67.32,2.09.13,4.18.25,6.27.31,4.24.11,8.38-.58,12.6-.82,4.35-.24,8.61.37,12.92.83,8.49.9,16.91,2.34,25.23,4.25.31.07.51.33.58.63.12-.48-.07-1.08-.58-1.2Z"/>
              <path class="cls-8" d="M188.58,26.08c1.05.28,2.12.5,3.19.68,2.25.38,4.52.58,6.79.66,4.59.17,9.14-.27,13.72-.53,4.51-.26,9.02-.52,13.54-.37-.4-.03-.8-.06-1.19-.09-2.26-.16-4.53-.3-6.8-.41-1.85.08-3.7.18-5.55.29-4.58.27-9.13.7-13.72.53-2.28-.08-4.55-.28-6.79-.66-.99-.17-1.97-.37-2.94-.62-.28.1-.57.22-.88.34.21.06.42.12.63.17Z"/>
              <path class="cls-53" d="M213.49,22.76s-.05,0-.08,0c-1.14.22-2.26.49-3.37.79,1.13-.13,2.28-.21,3.45-.22,3.55-.03,7.1.17,10.63.42,1.79.13,3.57.26,5.36.39,0,1.49,0,2.98,0,4.48h0c0-1.68,0-3.37,0-5.05-1.79-.12-3.57-.26-5.36-.39-3.54-.25-7.09-.45-10.63-.42Z"/>
              <path class="cls-16" d="M72.06,28.62c3.34.42,6.69.74,10.02,1.19,1.75.24,3.51.46,5.26.71.38.06.75.13,1.11.21,4.67.08,9.27-.22,13.81-1.32-.44-.09-.88-.19-1.33-.28-4.11.86-8.27,1.1-12.48,1.03-.37-.08-.74-.15-1.11-.21-1.75-.26-3.51-.48-5.26-.71-3.33-.45-6.68-.77-10.02-1.19s-6.67-.81-10-1.13c-.98.12-1.96.23-2.94.31,4.32.36,8.63.85,12.94,1.4Z"/>
              <path class="cls-52" d="M229.48,49.34h0c0-.15,0-.3,0-.46v.46Z"/>
              <path class="cls-27" d="M223.4,59.2c-5.18.13-10.35.41-15.54.47-2.58.03-5.17.04-7.75.06-2.58.02-5.18.27-7.76.13-2.62-.15-5.23-.21-7.84-.23,1.27.2,2.55.41,3.82.62.61,0,1.23-.01,1.84-.03,2.93-.09,5.86,0,8.79.11.38-.01.77-.02,1.15-.02,2.59-.02,5.17-.03,7.75-.06,5.18-.06,10.36-.33,15.54-.47,2.06-.05,4.11-.12,6.17-.18.02-.19.05-.39.06-.58-2.08.06-4.15.13-6.23.18Z"/>
            </g>
            <g class="cls-76">
              <path class="cls-86" d="M2.3,67.7c.04-.55.14-1.08.29-1.59-1.15.71-1.7,1.93-1.07,3.67.35.1.71.18,1.07.25-.23-.73-.34-1.51-.29-2.34Z"/>
              <path class="cls-84" d="M4.63,49.94c-.3-.88-.26-1.77.92-1.67-6.42-.57-6.26,10.13-4.51,14.08-.51-1.15-.17-3.48-.11-4.74.06-1.39.31-2.66,1.41-3.6,1.96-1.67,5.32-1.34,7.69-1.91-1.24-.08-3.47.19-4.5-.65-.27-.22-.68-.86-.89-1.5Z"/>
              <path class="cls-86" d="M229.48,14.9c0-2.07-1.45-3.77-3.21-3.77h-38.28c-6.86,0-13.38-1.15-20.17-1.53-2.62-.15-5.12,1.29-7.65,1.59-3.22.38-6.71-.06-9.95-.06h-58.81c-8.13,0-16.18-.81-24.28-1.31-6.44-.4-13.21-3.11-19.68-2.33-2.14.26-3.47,1.82-5.25,2.51-2.71,1.04-6.43,1.14-9.31,1.14-2.49,0-31.1-1.4-31.3,2-.32,5.71-.57,11.38-.62,17.1-.04,4.14-2.4,17.7,6.38,14.63-.71-.93-5.39-2.28-4.26-3.82.48-.65,3.06-.14,3.88-.14-2.67-1.29-4.21-.57-3.99-4.56.91.01,1.65.13,2.49.38-3.94-1.62-2.84-5.82-3.01-9.27-.13-2.6-.24-5.18-.01-7.78.12-1.43-.13-4.53,1.08-5.53,1.39-1.16,6.01-.57,7.7-.7,3.93-.32,7.81-.48,11.76-.49,2.59,0,5.14.25,7.72.35,1.69.07,3.82-.47,5.37.3-1.21.64-2.96.89-4.35,1.36,1.87-.06,4.31-.27,6.07-.86,3.26-1.1,5.63-4.31,9.26-4.95,1.79-.31,3.81.43,5.62.8,6.57,1.36,13.33,2.01,20.04,2,7.42-.02,14.81.43,22.25.19,6.35-.21,12.76.19,19.1.42,5.94.21,11.81-.58,17.75-.36,5.24.19,10.44.86,15.67,1.14,1.78.1,3.56.21,5.34.31,2.58.15,5.18-.22,7.75-.25s5-1.28,7.59-1.14c6.79.37,13.31,1.52,20.17,1.52h38.28c1.23,0,2.3.81,2.84,2v-.88Z"/>
              <path class="cls-86" d="M7.48,104.19c-1.21.04-2.32-.13-3.5-.22-1.82-2.55,1.08-2.84,2.75-3.12-5.35.9-4.38-7.89-3.9-10.79.18-1.06.59-1.91,1.21-2.55-.41-.17-.78-.39-1.11-.68-1.21-1.09-.89-2.64.08-3.75-.43-.44-.77-.99-.95-1.62-.36-1.22-.64-2.54-.74-3.87-.69,7.73.76,19.1.85,21.39.24,5.69-1.16,22.64,4.15,25.56-1.65-.91-2.9-4.9-3.29-9.09-.46-4.82-.29-9.06,4.46-11.26Z"/>
            </g>
            <path class="cls-26" d="M226.86,104.39c.62.03,1.73-.54,2.56-.46.29-6.7,2.07-16.47-3.71-19.24,4.47,2.15,3.54-21.36,3.58-23.02.02-.99.64-3.09.2-4.09-.51-1.16-1.86-1.56-3.01-2.32,3.49-1.07,3-3.12,3-6.41,0-11.41,0-22.72,0-33.97,0-2.07-1.45-3.77-3.21-3.77h-16.87c.07.09.14.17.21.26,1.1,1.37,10.85,18.72,6.22,17.45,4.19,1.15,10.86,3.7,8.23,9.4-2.49,5.4-13.42,5.56-18.58,5.51,3.12.61,7.78-.5,10.5,1.49,3.49,2.56,1.94,7.91,1.16,11.57-1.22,5.73-2.72,11.39-4.54,16.95-4.62,14.07-11.4,27.6-20.63,39.14,1.71.16,3.41.63,4.82,1.33,2.82,1.39,4.32,4.4,2.94,7.39-1.12,2.41-3.9,3.48-6.34,4.01-4.62,1-9.43.83-14.15.47-2.07,1.77-4.23,3.45-6.48,5.04-20.53,14.47-45.41,22.37-70.01,26.31-1.72.28-3.44.52-5.16.76,1.28,1.32,1.86,3.01.54,5.01-1.65,2.51-4.86,3.93-7.52,5.06-2.9,1.22-5.74,2.08-8.88,2.35-4.32.38-9.14-.03-12.28-3.36-1.9-2.01-2.43-4.62-1.55-6.77-.69.02-1.39.04-2.08.05-1.29.02-2.6.04-3.9.04-.59,1.26-1.47,2.28-2.52,3.03-.43.4-.94.73-1.42.96-1.06.52-2.32.7-3.58.61-.66,0-1.33-.07-1.99-.21-2.69-.56-4.72-2.59-4.7-4.96-6.49-.61-12.9-1.81-19.03-4.03-10.46-3.78-19.88-10.6-25.44-20.38-.46-.81-.9-1.64-1.31-2.48-.58,4.53.47,10.34.64,14.4.2,4.91-3.74,23.7,2.55,24.94-1.14,1.39-4.35,3.79-1.25,5.55.37.21,4.8-.08,5.45-.03,2.18.2,4.41.52,6.61.65,16.8.96,33.54-.48,50.25-.48,13.13,0,27.12,1.64,40.01-1.2,2.54-.56,3.5.04,5.77.51,10.11,2.11,21.16.69,31.39.69,6.79,0,13.57.53,20.35.74,3.72.12,7.39,1.1,11.05,1.72,2.53.43,5.67,1.68,8.24,1.52,2.07-.13,3.69-2.1,5.85-2.12,1.36,0,2.63.79,4.47.69,3.29-.19,6.79-.79,9.95-1.72,2.23-.65,4.62-3.1,6.83-3.14-.95.54-1.69,1.41-1.96,2.43,1.86.79,3.9-.23,5.79-.26,1.7-.03,3.42.42,5.13.46,3.14.08,6.71-.19,8.55-3.14,1.21-1.95,1.86-5.06,1.86-9.96,0-5.75.22-11.57,0-17.31-.15-3.93-.2-4.02-3.31-5.33,3.6-1.79,3.66-4.55,3.69-8.67.05-5.42.53-11,.31-16.47-.18-4.55,1.18-11.54-3.3-13.23ZM23.58,162.9c-1.55,1.68-4.04,2.2-6.22,2.42-2.38.24-5.05.07-7.23-.99-2.02-.98-3.56-3.36-3.03-5.64.37-1.58,1.51-2.55,2.88-3.08,4.69-3.8,10.56,1.63,13.6,5.09.58.66.6,1.56,0,2.21ZM196.92,149.05c-4.13,4.3-11.33,4.7-16.87,4.1-4.12-.45-12.55-.63-14.59-5.12-1.38-3.04,1.12-3.89,3.57-5.53,6.11-4.1,13.16-9.62,20.85-9.9,8.5-.31,13.13,10.12,7.05,16.46ZM214.71,142.7c-.28,2.1-3.35,3.89-5.54,3.91-5.06.06-8.92-4.13-3.09-6.47,1.82-.73,6.06-1.31,7.63.18.83.79,1.1,1.61,1,2.38ZM222.3,104.72c-.14,3.53-5.73,3.11-7.98,2.85-.96-.11-1.77-1.06-1.55-1.95-.5-.59-.46-1.55.1-2.09,1.27-1.24,2.84-2.07,4.62-2.21,2.02-.16,4.91.99,4.81,3.41ZM220.85,98.29c-1.77,1.06-4.15,1.04-6.14.84-1.9-.19-3.96-.5-5.66-1.42-.59-.32-.92-1.13-.72-1.77.54-1.71,1.68-2.72,3.13-3.69.22-.15.44-.23.65-.26.95-.63,1.99-1.11,3.01-1.41,2.54-.74,5.19-.07,6.68,2.2,1.23,1.86,1.04,4.3-.96,5.5Z"/>
            <g>
              <path class="cls-25" d="M229.48,14.9c0-2.07-1.45-3.77-3.21-3.77h-38.28c-6.86,0-13.38-1.15-20.17-1.53-2.62-.15-5.12,1.29-7.65,1.59-3.22.38-6.71-.06-9.95-.06h-.56c-.42.04-.85.06-1.29.04-10.55,1.44-21.09,2.97-31.62,4.52-21.19,3.11-42.39,6.22-63.68,8.58-10.02,1.11-20.05,2.05-30.12,2.65-7.32.44-14.65.54-21.92-.22-.03,1.17-.05,2.35-.06,3.52-.03,3.63-1.31,10.06.53,13.24,1.03,1.78,2.85,1.12,4.46,1.34.56.08,2.05.48,2.68.5,3.23.1,6.52,0,9.81-.02-2.55.71-4.99,1.62-7.7,1.78-3.41.2-5.86.37-7.56,1.49,15.58,1.56,31.13,5.07,46.75,3.41,7.74-1.27,15.16-3.86,22.45-6.7,6.93-2.7,13.79-5.62,20.9-7.84,7.77-2.42,15.85-4,23.89-5.23,17.71-2.72,35.61-3.7,53.36-6.06-.04,0-.08.01-.12.02,6.96-.93,13.93-1.81,20.93-2.47,12.69-1.19,25.42-1.85,38.15-2.06,0-2.24,0-4.49,0-6.73Z"/>
              <path class="cls-70" d="M226.86,104.39c.62.03,1.73-.54,2.56-.46.29-6.7,2.07-16.47-3.71-19.24,1.67.8,2.56-2.18,3.05-5.71-5.77.42-11.53.95-17.27,1.68-13.74,1.97-27.26,5.23-40.1,10.56-11.44,4.75-23.23,8.62-35.39,11.06-13.02,2.61-26.22,3.7-39.48,3.8-1.71.01-3.42.02-5.13.01.71.17,1.42.33,2.13.49,7.2,1.68,14.41,3.79,21.72,4.96,9.93,1.09,19.93.3,29.85-.64,9.16-.87,18.26-1.52,27.46-1.78,9.32-.26,18.65-.5,27.98-.41,9.86.09,19.79.54,29.63,1.67-.19-2.72-.93-5.1-3.3-5.99Z"/>
              <path class="cls-58" d="M2.4,169.74c.19-.1.38-.2.57-.3,26.82-13.9,56.8-17.87,86.35-21.83,10.59-1.43,21.15-3.12,31.77-4.26,19.34-2.08,38.81-2.65,58.25-2.79,9.48-.07,18.95.02,28.42.06,7.11.03,14.23-.06,21.32-.65.65-1.39.75-3.08.77-5.14-14.18-1.69-28.48-1.88-42.74-1.64-13.27.22-26.48.62-39.7,1.9-14.16,1.37-28.33,2.38-42.36-.7-13.38-2.93-26.66-6.36-40.06-9.21-12.86-2.73-25.79-5.12-38.81-6.94-7.83-1.02-15.68-1.8-23.56-2.31.05.38.11.75.17,1.13.43,2.53.9,5.65,3.32,6.93,3.04,1.61,7.27-.35,10.53.68-5.36.17-12.34.2-14.21,6.12-1.48,4.69-.06,11.93.14,16.73.16,3.9-2.29,16.54-.16,22.21Z"/>
              <path class="cls-62" d="M221.89,164.82c-8.8.36-17.62.15-26.42.11-9.21-.05-18.43,0-27.64.18-18.32.33-36.66,1.26-54.84,3.62-8.4,1.15-16.78,2.37-25.18,3.5,1.08-.15,2.16-.29,3.24-.44-5.28.71-10.56,1.43-15.84,2.22-8.24,1.23-16.49,2.64-24.64,4.47,5.2-.16,10.4-.3,15.6-.3,2.73,0,5.46.07,8.19.16,1.64.05,5.93,1.28,7.23.1-.22-.66-.61-1.26-1.09-1.73,7.51,3.68,17.77,2.01,25.69.27,2.54-.56,3.5.04,5.77.51,10.11,2.11,21.16.69,31.39.69,6.79,0,13.57.53,20.35.74,3.72.12,7.39,1.1,11.05,1.72,2.53.43,5.67,1.68,8.24,1.52,2.07-.13,3.69-2.1,5.85-2.12,1.36,0,2.63.79,4.47.69,3.15-.19,6.89-.62,9.86-1.73,2.41-.9,4.48-3.36,7.16-3.43-.89.54-1.55,1.37-1.58,2.36.02-.81,9.19.52,10.11.56,3.18.15,6.89-.15,8.75-3.13,1.21-1.95,1.86-5.06,1.86-9.96,0-.34,0-.69,0-1.03-2.53.2-5.07.35-7.59.45Z"/>
              <path class="cls-40" d="M15.97,84.17c17.94-2.76,35.99-3,54.1-2.75,16.83.24,33.75.9,50.5-1.15,7.97-1.16,15.85-2.88,23.58-5.15,7.63-2.25,14.99-5.12,22.36-8.09,7.54-3.04,15.35-5.38,23.29-7.16,10.92-2.44,22.04-3.9,33.2-4.85,3.96-.73,6.48-.58,6.48-6.16v-2.83c-18.54.31-37.06,1.57-55.43,4.03,1.08-.14,2.16-.29,3.24-.44-16.77,2.27-33.65,3.46-50.42,5.63-9.48,1.33-18.99,3.09-28.1,6.02-8.01,2.57-15.7,5.99-23.58,8.93-8.75,3.26-17.65,5.61-26.99,6.34-15.42,1.19-30.66-2.25-45.99-3.68-1.17,3.25-1.21,9.04-.95,14.38,4.84-1.29,9.76-2.3,14.72-3.07Z"/>
            </g>
            <path class="cls-34" d="M207.14,31.46c-4.85-1.28-17.58,9.35-9.53,10.26,3.3.38,7.32.44,10.23-1.43,3.63-2.34,4.27-7.52-.69-8.83Z"/>
            <path class="cls-49" d="M214.53,34.43c-1.6.78-2.44,2.35-.73,4.21,3.25,3.52,10.73-.84,5.48-4.13-1.37-.85-3.35-.77-4.75-.08Z"/>
            <polygon class="cls-75" points="198.96 60.32 204.48 57.52 215.43 57.52 205.06 59.02 198.96 60.32"/>
            <path class="cls-77" d="M8.63,104.07s7.05.74,12.26.77c5.21.03,22.6-.77,22.6-.77H8.63Z"/>
            <polygon class="cls-72" points="22.32 101.28 25.02 100.12 32.64 101.28 22.32 101.28"/>
            <path class="cls-79" d="M198.32,165.81s5.02-1.43,6.22-1.98c1.2-.56,5.25-7.69,5.25-7.69l-2.89,8.4,2.03.62s-5.76-.77-10.6.65Z"/>
            <path class="cls-78" d="M48.79,163.18c-2.97.29-5.88.21-8.88.38-.64.04-1.18.14-1.76-.08.16.19.93.76.98,1.03.16.99-2.03,1.78-2.7,2.09-1.38.65-2.74,1.36-4.05,2.14-.03.02,0,.07.02.05,2.64-1.13,5.35-2.13,8.08-3.04,1.37-.46,2.73-.94,4.12-1.33,1.4-.4,2.81-.73,4.21-1.1.09-.02.07-.15-.02-.14Z"/>
            <polygon class="cls-83" points="198.66 60.02 204.18 57.22 215.13 57.22 204.76 58.72 198.66 60.02"/>
            <path class="cls-83" d="M8.33,103.77s7.05.74,12.26.77c5.21.03,22.6-.77,22.6-.77H8.33Z"/>
            <polygon class="cls-83" points="22.02 100.98 24.72 99.82 32.34 100.98 22.02 100.98"/>
            <path class="cls-83" d="M198.02,165.51s5.02-1.43,6.22-1.98,5.25-7.69,5.25-7.69l-2.89,8.4,2.03.62s-5.76-.77-10.6.65Z"/>
            <path class="cls-83" d="M48.49,162.88c-2.97.29-5.88.21-8.88.38-.64.04-1.18.14-1.76-.08.17.19.93.76.98,1.02.16.99-2.03,1.78-2.7,2.09-1.38.65-2.74,1.36-4.05,2.14-.03.02,0,.07.02.05,2.64-1.13,5.35-2.13,8.08-3.04,1.37-.45,2.73-.94,4.12-1.33,1.4-.4,2.81-.73,4.21-1.1.09-.02.07-.15-.02-.14Z"/>
          </g>
          <g>
            <path class="cls-46" d="M173.17,17.57c.08-.24.12-.51.13-.81,0-.02,0-.04,0-.06,0-.21,0-.43-.02-.65,0-.02,0-.04,0-.06-.02-.24-.04-.47-.06-.7,0-.07-.01-.14-.02-.21,0-.04,0-.07-.01-.11,0-.09-.02-.17-.02-.25,0-.02,0-.04,0-.07,0-.09-.01-.17-.01-.24-.02-.86-1.99-2.11-5.5-3.47-.2-.08-.4-.15-.6-.23-.82-.3-1.72-.61-2.68-.92-.24-.08-.49-.16-.74-.23-1.25-.39-2.62-.78-4.09-1.16-.29-.08-.59-.15-.89-.23-1.21-.3-2.48-.6-3.81-.9-4.99-1.1-10.83-2.09-17.29-2.8-6.46-.72-13.55-1.16-21.05-1.16h0c-.89,0-1.78,0-2.67.02-2.67.04-5.34.13-8,.28-1.48.08-2.96.2-4.44.33s-2.95.26-4.43.38c-.33.03-.57.06-.8.13-.04.01-.09.03-.13.04-.09.03-.18.07-.27.11-.03.01-.05.03-.07.04-.16.13-.25.38-.5.48-.17.06-.37.09-.6.09-.66,0-1.48-.23-2.03-.22h0c-.3,0-.61.02-.92.04-.31.02-.62.05-.93.08-.62.06-1.23.14-1.8.23-1.31.2-2.61.41-3.91.64-1.3.23-2.6.47-3.89.73-2.56.52-5.12,1.09-7.66,1.77-2.53.68-5.03,1.47-7.46,2.42-.77.3-2.71.92-4.07,1.77-.82.51-1.42,1.1-1.44,1.75-.01.54-.02,1.09-.03,1.63h0c0,.4-.02.8-.02,1.19h0c0,.3,0,.59,0,.89,0,.53,0,1.05,0,1.58,0,.73-.16,1.7-.14,2.56h0c0,.18.02.35.04.51,0,0,0,0,0,.02.01.08.02.15.04.22,0,0,0,.01,0,.02,0,.04.02.07.03.11-.07.81-.18,1.73-.04,2.48,0,.01,0,.03,0,.04,0,.05,0,.1,0,.16,0,0,0,.02,0,.03.01.48.11,1.02.18,1.46,0,0,0,.02,0,.02,0,.05.01.1.02.14,0,.01,0,.02,0,.04-.33.47-.21,1.36-.09,2.11,0,0,0,.01,0,.02,0,.02,0,.04,0,.06v.02s0,.05,0,.07c0,.02,0,.04,0,.05,0,.08,0,.16,0,.23h0s0,.04,0,.05c0,.06,0,.12,0,.18,0,.02,0,.05,0,.07,0,.05.01.09.02.14,0,.02,0,.05.01.07,0,.04.02.08.03.12,0,.02.01.04.02.05,0,.03.02.05.03.07-.04.8-.3,2.27.03,2.74.1.14.27.23.45.3.02.23.06.49.11.77-.14.64-.14,1.58-.14,1.67.08.76.22,2.44,1.18,2.71,2.06.58,23.1,2.2,54.61,2.2s52.55-1.62,54.61-2.2c.94-.27,1.05-2.37,1.07-3.1.01-.49-.03-.81-.18-1.03.1-.47.14-.95.16-1.32,0-.13.01-.24.01-.33,0-.07,0-.14,0-.2,0-.11,0-.2-.02-.29.57-.57.56-1.38.58-2.38.04-1.82.13-3.64.14-5.45,0-.58.04-1.24-.02-1.84,0-.28.01-.56.02-.84v-.02c0-.06,0-.11,0-.17,0-.57.03-1.2-.03-1.77.26-.73.08-1.86,0-2.7Z"/>
            <path class="cls-83" d="M171.06,13.78c-.08-3.05-23.76-11.1-54.57-11.1-3.43,0-6.86.1-10.28.3-2.85.17-5.69.47-8.54.71-.5.04-.81.11-1.16.28-.19.09-.28.42-.55.52-.66.26-1.83-.15-2.53-.13-1.17.03-2.42.18-3.52.35-2.51.39-5.02.85-7.51,1.37-4.93,1.04-9.89,2.29-14.56,4.19-1.18.48-5.26,1.79-5.31,3.52-.05,1.76-.06,3.53-.06,5.29,0,1.64-.78,4.43,1.34,4.65-.12.05-.91.14-1.12.34-.63.61-.11,2.37-.07,3.15.03.65-.33,2.5.03,3.04.22.33.8.35,1.04.58-.62-.58-.65,2.02-.63,2.16.08.76.21,2.44,1.13,2.71,1.98.58,22.25,2.2,52.6,2.2s50.62-1.62,52.6-2.2c.91-.27,1.02-2.37,1.03-3.1.03-1.14-.23-1.41-1.42-1.48-2.03-.12-4.08.28-6.09.17,2.09-.8,4.46-.58,6.56-1.31,1.51-.52,1.48-1.54,1.5-2.94.04-1.82.12-3.64.14-5.46.02-1.72.28-4.12-2.23-3.59.75-.16,1.69-.07,2.1-.82.46-.82.09-2.5.07-3.39Z"/>
            <path class="cls-81" d="M171.06,11.1c-.08-3.05-23.76-11.1-54.57-11.1-3.43,0-6.86.1-10.28.3-2.85.17-5.69.47-8.54.71-.5.04-.81.11-1.16.28-.19.09-.28.42-.55.52-.66.26-1.83-.15-2.53-.13-1.17.03-2.42.18-3.52.35-2.51.39-5.02.85-7.51,1.37-4.93,1.04-9.89,2.29-14.56,4.19-1.18.48-5.26,1.79-5.31,3.52-.05,1.76-.06,3.53-.06,5.29,0,1.64-.78,4.43,1.34,4.65-.12.05-.91.14-1.12.34-.63.61-.11,2.37-.07,3.15.03.65-.33,2.5.03,3.04.22.33.8.35,1.04.58-.62-.58-.65,2.02-.63,2.16.08.76.21,2.44,1.13,2.71,1.98.58,22.25,2.2,52.6,2.2s50.62-1.62,52.6-2.2c.91-.27,1.02-2.37,1.03-3.1.03-1.14-.23-1.41-1.42-1.48-2.03-.12-4.08.28-6.09.17,2.09-.8,4.46-.58,6.56-1.31,1.51-.52,1.48-1.54,1.5-2.94.04-1.82.12-3.64.14-5.46.02-1.72.28-4.12-2.23-3.59.75-.16,1.69-.07,2.1-.82.46-.82.09-2.5.07-3.39Z"/>
            <path class="cls-12" d="M132.71,1.85c-4.46.72-8.92,1.53-13.25,2.73-2.22.61-4.42,1.48-6.65,2.2-2.59.84-5.21,1.49-7.9,1.33-5.27-.33-10.34-1.88-15.69-1.17-3.95.52-7.75,1.89-11.72,2.41-3.16.41-6.34.61-9.51.88.43-.15.84-.3,1.21-.43,1.43-.5,2.81-.94,4.29-1.29,2.33-.55,4.56-1.42,6.83-2.18,2.29-.77,4.62-1.43,7.05-1.52,2.48-.09,4.97,0,7.46.04,5,.1,10.18.41,14.97-1.29,2.27-.81,4.48-1.58,6.8-2.16,5.38.03,10.76.18,16.13.45ZM163.93,8.08c-3.28.88-6.72,1.33-9.98,1.84-.15.02-.29.04-.44.06,2.43.31,4.89.52,7.34.65,3.02.16,6.06.15,9.06-.14-1.94-.92-3.94-1.71-5.98-2.41ZM167.69,14.78c-3.36-.04-6.72-.31-10.07-.65-5.15-.53-10.27-1.42-15.42-1.92-.81-.08-1.22-.95-.66-1.59,1.28-1.45,3.5-1.78,5.31-2.01,2.05-.26,4.11-.25,6.17-.44,2.43-.24,4.89-.75,7.29-1.24-.12-.03-.24-.07-.36-.1-1.61-.46-3.24-.88-4.87-1.28-.16.04-.32.08-.48.11-5.8,1.65-11.69,2.99-17.67,3.81-6.54.89-13.59.37-19.7,3.09,3.53.98,7.27.79,10.91.61,3.75-.19,7.4-.28,11.11.36,1.94.34,3.85.76,5.77,1.15,3.49.52,6.99.99,10.5,1.34,5.03.13,10.08-.32,15.11-.32-.29-.35-.76-.53-1.5-.42.59-.09,1.25-.1,1.66-.52-1.04.04-2.08.04-3.11.03ZM67.5,26c-1.65-.13-3.3-.24-4.95-.32-.07.74-.12,1.56.1,1.89.2.3.69.35.97.52-.55-.3-.57,2.08-.55,2.21,0,.03,0,.06,0,.09,4.07-1.32,8.15-2.6,12.25-3.8-2.6,0-5.24-.41-7.83-.61ZM158.72,18.97c-3.75-.3-7.48-.88-11.17-1.63-1.82-.37-3.63-.79-5.43-1.24-.05,0-.11-.02-.16-.03-.1-.02-.18-.04-.25-.08-.25-.06-.49-.12-.74-.18-.94-.24-1.88-.53-2.83-.71-.85-.17-1.71-.26-2.57-.31-3.85-.24-7.7.24-11.54.33-3.48.08-7.28-.05-10.36-1.86-.31-.18-.21-.61.09-.72.91-.33,1.83-.65,2.75-.96,4.29-2.12,9.08-3.1,13.83-3.78.84-.18,1.69-.36,2.54-.52,3.03-.59,6.07-1.11,9.13-1.47,1.93-.22,3.87-.41,5.81-.61,1.04-.17,2.09-.34,3.13-.5-3.48-.61-6.98-1.12-10.49-1.53-3.02.18-6.04.49-9.03.93-6.58.98-12.89,3.19-19.43,4.32-1.56.27-3.14.49-4.73.52-1.54.03-3.08-.09-4.61-.26-5.05-.55-10.22-.62-15.24.54-3.39.78-6.54,2.66-9.98,3.23-1.41.23-2.83.3-4.25.23-1.63-.07-3.26.04-4.88.25-1.95.25-3.88.62-5.82.97,0,.69-.01,1.38-.01,2.08.88-.02,1.75-.05,2.63-.09,4.19-.18,8.37-.48,12.56-.58,2.08-.05,4.16-.05,6.23.05,1.4.06,2.79.21,4.18.24.22-.01.44-.03.67-.05,1.38-.11,2.76-.26,4.14-.4.94-.18,1.88-.39,2.81-.58,2.02-.41,4.06-.38,6.1-.16,2,.21,3.97.61,5.93,1.04.9.2,1.79.38,2.7.56,1.17.21,2.33.42,3.48.61,2.11.35,4.22.7,6.33,1.06.29.05.59.1.88.15,1.74.17,3.49.25,5.24.16,1.98-.1,3.95-.29,5.92-.35,2.03-.06,4.03.08,6.04.36,3.85.55,7.54,1.81,11.31,2.7,4.05.96,8.2,1.18,12.35,1.24,3.03.04,6.06-.05,9.09-.25.03-.93.06-1.87.07-2.8,0-.06,0-.13,0-.2-1.53.22-3.07.35-4.62.42-2.57.28-5.2.2-7.78-.16ZM130.81,26.52c-7.42-2.22-14.99-3.43-22.71-4.04-8.42-.66-16.87.21-25.27.72-3.85.23-7.68.62-11.45-.38-1.87-.5-3.66-.93-5.6-1.02-1.11-.05-2.21-.03-3.32,0-.16.55-.03,1.37.07,2.02,1.79.08,3.58.21,5.37.35,2.85.22,5.76.69,8.62.55,4.92-.25,9.86-.26,14.79-.55,1.66-.1,3.48-.43,5.02.21-1.51.48-2.96.25-4.48.5-1.49.25-2.94,1.06-4.38,1.5-7.8,2.42-15.77,4.38-23.72,6.35.12.14.27.24.44.29.66.19,3.33.5,7.71.82,4.43-1.78,8.8-3.76,13.45-4.9,5.14-1.26,10.52-.96,15.77-1.42.74-.07,1.49-.14,2.23-.21.3-.03.59-.07.89-.09.08,0,.15-.01.23-.02,1.75-.17,3.51-.33,5.26-.42,2.46-.12,4.89.38,7.25,1.04,1.66.28,3.31.64,4.95,1.05,6.21,1.57,12.34,3.29,18.65,4.46,2.45.45,4.91.84,7.38,1.17.38.02.75.04,1.13.05,4.63-.2,8.58-.43,11.72-.65-2.03-.35-4.05-.74-6.06-1.16-8.07-1.69-16.04-3.86-23.94-6.22ZM170.6,26.51c-7.2.46-14.42-.21-21.23-2.68-5.64-1.19-11.14-3.59-16.9-3.85-2.69.27-5.37.68-8.08.29-4.29-.62-8.55-1.44-12.82-2.13-4.3-.7-8.67-1.62-13.04-1.52-4.2.1-8.36.85-12.56.98-2.06.06-4.11-.12-6.17-.13-2.18,0-4.35.08-6.52.19-3.63.17-7.27.37-10.9.22-.06.73-.09,1.48.09,2.07,1.38-.03,2.76-.05,4.14.05,2.04.14,3.95.71,5.92,1.21,2.14.54,4.23.44,6.41.35,2.32-.1,4.63-.24,6.95-.4,8.32-.56,16.59-1.1,24.91-.28,3.84.38,7.66.87,11.45,1.58,3.79.71,7.44,1.81,11.14,2.9,11.48,3.37,23.19,6.36,35.08,7.85.44-.06.76-.12.93-.17.91-.27,1.02-2.37,1.03-3.1.03-1.14-.23-1.41-1.42-1.48-2.03-.12-4.08.28-6.09.17,2.09-.8,4.46-.58,6.56-1.31.57-.2.91-.46,1.13-.79ZM109.8,33.61c-3.73.16-7.48.13-11.2.51-1.59.16-3.15.42-4.7.79,6.72.19,14.41.32,22.89.32,1.42,0,2.81,0,4.18-.01-.25-.08-.49-.17-.74-.24-3.45-1.07-6.83-1.51-10.43-1.36ZM82.17,34.45c1.93.09,4,.18,6.21.26,3.38-1.35,6.9-2.15,10.56-2.5,3.8-.36,7.62-.32,11.43-.5,3.59-.16,7.09.42,10.51,1.5,1.79.56,3.55,1.24,5.3,1.94,1.55-.02,3.06-.04,4.54-.06-6.78-1.76-13.49-4.19-20.35-5.3-9.43,1.17-19.37,1.07-28.19,4.65Z"/>
            <g class="cls-85">
              <path class="cls-15" d="M115.73,8.02c3.95-.89,7.86-1.89,11.85-2.61,1.95-.35,3.9-.67,5.86-.96,2.39-.63,4.83-1.02,7.3-1.24-.09-.01-.19-.02-.29-.04-3.02.18-6.04.49-9.03.93-6.58.98-12.89,3.19-19.43,4.32-1.19.21-2.38.38-3.58.47,2.44-.05,4.85-.33,7.32-.88Z"/>
              <path class="cls-61" d="M91.84,8.64c.8-.14,1.61-.23,2.41-.28-2.29.09-4.58.36-6.84.88-3.39.78-6.54,2.66-9.98,3.23-1.41.23-2.83.3-4.25.23-1.63-.07-3.26.04-4.88.25-1.95.25-3.88.62-5.82.97,0,.69-.01,1.38-.01,2.08h0c0-.41,0-.83,0-1.24,1.93-.35,3.87-.73,5.82-.97,1.61-.21,3.25-.32,4.88-.25,1.43.06,2.84,0,4.25-.23,2.14-.36,4.17-1.22,6.21-2,2.64-1.18,5.36-2.17,8.2-2.66Z"/>
              <path class="cls-24" d="M136.93,9.47c-5.43.74-11.22.51-16.52,1.97,2.21-.3,4.45-.29,6.7-.29,3.28-.31,6.62-.41,9.83-.84,4.5-.61,8.95-1.52,13.35-2.64.88-.53,1.77-1.04,2.66-1.54-5.26,1.44-10.6,2.61-16.01,3.34Z"/>
              <path class="cls-22" d="M109.99,4.32c1.13-.71,2.28-1.39,3.46-2.02-1.22.39-2.44.82-3.67,1.26-4.79,1.7-9.97,1.39-14.97,1.29-2.48-.05-4.97-.13-7.46-.04-2.43.09-4.76.76-7.05,1.52-2.26.76-4.5,1.63-6.83,2.18-1.47.35-2.86.79-4.29,1.29-.38.13-.78.28-1.21.43,1.08-.09,2.17-.18,3.25-.27.74-.23,1.48-.43,2.24-.61,2.33-.56,4.56-1.42,6.83-2.18,2.29-.77,4.62-1.43,7.05-1.52,2.48-.09,4.97,0,7.46.04,5,.1,10.18.41,14.97-1.29.07-.02.14-.05.21-.07Z"/>
              <path class="cls-43" d="M86.03,26.82c-7.34,2.22-14.81,4.06-22.27,5.91.12.14.27.24.44.29.18.05.52.12,1.01.18,6-1.49,12-2.99,17.92-4.7.97-.57,1.93-1.14,2.9-1.69Z"/>
              <path class="cls-23" d="M164.05,8.12s-.08-.03-.12-.04c-3.28.88-6.72,1.33-9.98,1.84-.15.02-.29.04-.44.06,1.07.14,2.15.25,3.22.35,1.99-.31,4-.64,5.97-1.11.44-.37.89-.74,1.34-1.1Z"/>
              <path class="cls-29" d="M166.5,19.13c-2.57.28-5.2.2-7.78-.16-3.75-.3-7.48-.88-11.17-1.63-1.82-.37-3.63-.79-5.43-1.24-.05,0-.11-.02-.16-.03-.1-.02-.18-.04-.25-.08-.25-.06-.49-.12-.74-.18-.94-.24-1.88-.53-2.83-.71-.85-.17-1.71-.26-2.57-.31-3.85-.24-7.7.24-11.54.33-2.13.05-4.37.02-6.5-.42,2.06.62,4.17,1.02,6.3,1.26.06,0,.13,0,.19,0,3.84-.09,7.7-.57,11.54-.34.86.05,1.72.15,2.57.31.95.19,1.89.47,2.83.71.25.06.49.12.74.18.08.04.16.06.25.08.06,0,.11.02.16.03,1.8.45,3.61.86,5.43,1.24,3.69.75,7.42,1.33,11.17,1.63,2.58.36,5.21.45,7.78.16,1.54-.07,3.08-.2,4.6-.42,0-.21,0-.43.01-.64,0-.06,0-.13,0-.2-1.53.22-3.07.35-4.62.42Z"/>
              <path class="cls-55" d="M169.14,15.27c.59-.09,1.25-.1,1.66-.52-1.04.04-2.08.04-3.11.03-3.36-.04-6.72-.31-10.07-.65-5.11-.52-10.19-1.4-15.3-1.91-.15.14-.34.24-.6.26-.11,0-.23.01-.34.02.14.28.43.5.82.54,5.15.51,10.26,1.4,15.42,1.92,3.34.34,6.7.6,10.07.65.95.01,1.9.01,2.85-.02-.3-.28-.74-.42-1.4-.32Z"/>
              <path class="cls-57" d="M82.17,34.45c.65.03,1.32.06,2,.09,8.31-2.83,17.47-2.83,26.2-3.91,5.89.95,11.66,2.87,17.46,4.51.98-.01,1.95-.03,2.9-.04-6.78-1.76-13.49-4.19-20.35-5.3-9.43,1.17-19.37,1.07-28.19,4.65Z"/>
              <path class="cls-65" d="M130.81,26.52c-7.42-2.22-14.99-3.43-22.71-4.04-8.42-.66-16.87.21-25.27.72-3.85.23-7.68.62-11.45-.38-1.87-.5-3.66-.93-5.6-1.02-1.11-.05-2.21-.03-3.32,0-.09.31-.09.7-.05,1.1.01-.09.03-.18.05-.26,1.11-.03,2.21-.04,3.32,0,1.94.08,3.73.52,5.6,1.02,3.77,1.01,7.6.62,11.45.38,8.41-.51,16.85-1.38,25.27-.72,7.72.61,15.29,1.82,22.71,4.04,7.9,2.36,15.86,4.54,23.94,6.22.91.19,1.82.37,2.73.55,1.19-.07,2.31-.15,3.33-.22-2.03-.35-4.05-.74-6.06-1.16-8.07-1.69-16.04-3.86-23.94-6.22Z"/>
              <path class="cls-38" d="M149.37,23.83c-5.64-1.19-11.14-3.59-16.9-3.85-2.69.27-5.37.68-8.08.29-4.29-.62-8.55-1.44-12.82-2.13-4.3-.7-8.67-1.62-13.04-1.52-4.2.1-8.36.85-12.56.98-2.06.06-4.11-.12-6.17-.13-2.18,0-4.35.08-6.52.19-3.63.17-7.27.37-10.9.22-.03.45-.06.91-.03,1.33,0-.17.02-.33.03-.5,3.63.15,7.27-.05,10.9-.22,2.17-.1,4.35-.19,6.52-.19,2.06,0,4.11.19,6.17.13,4.2-.13,8.36-.87,12.56-.98,4.37-.11,8.74.82,13.04,1.52,4.28.69,8.54,1.52,12.82,2.13,2.71.39,5.39-.02,8.08-.29,5.76.26,11.26,2.66,16.9,3.85,6.33,2.3,13.03,3.03,19.72,2.76.13-.04.25-.08.38-.12.57-.2.91-.46,1.13-.79-7.2.46-14.42-.21-21.23-2.68Z"/>
              <path class="cls-5" d="M109.8,33.61c-3.73.16-7.48.13-11.2.51-1.59.16-3.15.42-4.7.79,1.35.04,2.75.08,4.18.11.17-.02.34-.04.52-.06,3.72-.38,7.47-.35,11.2-.51,2.86-.12,5.58.13,8.3.78.97,0,1.93,0,2.87,0-.25-.08-.49-.17-.74-.24-3.45-1.07-6.83-1.51-10.43-1.36Z"/>
              <path class="cls-56" d="M68.13,26.89c1.14-.19,2.28-.35,3.42-.5-1.36-.13-2.71-.29-4.06-.39-1.65-.13-3.3-.24-4.95-.32-.04.47-.08.97-.04,1.37.01-.18.03-.36.04-.53,1.65.08,3.3.19,4.95.32.21.02.42.04.63.06Z"/>
            </g>
            <path class="cls-6" d="M170.98,24.36c.01-.73.04-1.46.06-2.19-.48.86-1.07,1.64-1.82,2.3-2.92,2.54-7.36,3.04-11.03,3.56-9.35,1.3-18.76,2.01-28.2,2.12-9.12.11-18.39.37-27.46-.23-4.53-.3-9.24.25-13.78.36-4.5.11-9.01.16-13.51.02-1.72-.05-3.41-.13-5.12-.41-.67-.11-2.59-.15-3.14-.68-.93-.91.04-1.05.95-1.6-.95-.75-3.22-.31-3.91-1.23-.56-.75.14-1.78-.04-2.58-.11-.46-1.59-1.82-1.44-2.16-.34.75.07,2.2.11,2.89.03.65-.33,2.5.03,3.04.2.3.69.35.97.52-.55-.3-.57,2.08-.55,2.21.08.76.21,2.44,1.13,2.71,1.98.58,22.25,2.2,52.6,2.2s50.62-1.62,52.6-2.2c.91-.27,1.02-2.37,1.03-3.1.03-1.14-.23-1.41-1.42-1.48-2.03-.12-4.08.28-6.09.17,2.09-.8,4.46-.58,6.56-1.31,1.51-.52,1.48-1.54,1.5-2.94Z"/>
            <g class="cls-73">
              <path class="cls-87" d="M171.06,11.1c-.08-3.05-23.76-11.1-54.57-11.1-3.43,0-6.86.1-10.28.3-2.85.17-5.69.47-8.54.71-.5.04-.81.11-1.16.28-.19.09-.28.42-.55.52-.66.26-1.83-.15-2.53-.13-1.17.03-2.42.18-3.52.35-2.51.39-5.02.85-7.51,1.37-4.93,1.04-9.89,2.29-14.56,4.19-1.18.48-5.26,1.79-5.31,3.52-.01.54-.02,1.09-.03,1.63,0,0,.01,0,.02,0,0-.19,0-.37.01-.56.04-1.55,2.55-2.77,3.73-3.31.65-.3,1.3-.66,2.03-.7.82-.03,1.27.22,2.14-.19,3.21-1.52,6.47-3.09,9.98-3.81,2.3-.47,4.67-.45,6.99-.79,1.99-.29,4-.59,6.03-.64.71-.02,1.87.39,2.53.13.27-.11.36-.43.55-.52.35-.17.65-.24,1.16-.28,2.37-.2,4.74-.44,7.11-.61,2.24-.16,4.5-.55,6.76-.42,1.79.1,3.61-.14,5.41-.07,2.3.08,4.6.17,6.9.29,1.89.1,3.96-.38,5.8-.14,1.06.14,2.08.36,3.15.46,3.07.3,6.24,1.04,9.29,1.05,2.26,0,4.41.73,6.59,1.24,6.11,1.44,12.38,2.75,18.2,5.31,1,.44,4.13,1.54,4.16,2.99.01.41.09.99.13,1.58.09-.86-.12-1.98-.13-2.65Z"/>
            </g>
            <path class="cls-74" d="M67.88,19.29c-1.4,1.21-3.88,1.16-1.92,3.73-.97.03-1.12.59-1.85.94.98,3.58,6.86,2.12,9.52,1.8-.38-2.93,1.27-3.27,3.72-3.52,4.92-.51,9.8-.71,14.69-1.06,1.82-.13,7.65-.84,3.27-2.7,5.07-2.88,12.95-2.6,18.62-3.17,5.63-.56,11.3-.62,16.94-1.03,2.6-.19,5.15-.44,7.67-1.02.53-.12,5.75-1.92,5.68-1.97-.34-.29-.58-1.02-.97-1.31,2.89-1.67,5.99-2.21,9.27-2.32-2.33-2.72-8.89-2.91-12.28-3.51-6.8-1.2-13.61-2.05-20.51-2.4-3.41-.18-11.91-1.37-14.71,1.25-2.29,2.13-.58,3.65-4.28,4.73-3.12.91-6.46,1.24-9.71,1.08-5.58-.26-3.76-1.05-1.7-4.12-3.21-1.35-10.6,1.43-14.07,2.45-2.5.74-9.04,1.77-10.78,3.99-2.99,3.8-.17,7.15,3.41,8.15Z"/>
          </g>
        </g>
      </g>
    </g>
  </g>
</svg>