<?xml version="1.0" encoding="UTF-8"?>
<svg xmlns="http://www.w3.org/2000/svg" xmlns:xlink="http://www.w3.org/1999/xlink" viewBox="0 0 151.07 103.86">
  <defs>
    <style>
      .cls-1 {
        fill: url(#_Áåçûìÿííûé_ãðàäèåíò_27-26);
      }

      .cls-1, .cls-2, .cls-3, .cls-4, .cls-5, .cls-6, .cls-7, .cls-8, .cls-9, .cls-10, .cls-11, .cls-12, .cls-13, .cls-14, .cls-15, .cls-16, .cls-17, .cls-18, .cls-19, .cls-20, .cls-21, .cls-22, .cls-23, .cls-24, .cls-25, .cls-26, .cls-27, .cls-28, .cls-29, .cls-30, .cls-31, .cls-32, .cls-33, .cls-34, .cls-35, .cls-36, .cls-37, .cls-38, .cls-39, .cls-40, .cls-41, .cls-42, .cls-43, .cls-44, .cls-45, .cls-46, .cls-47 {
        mix-blend-mode: multiply;
      }

      .cls-1, .cls-2, .cls-3, .cls-4, .cls-5, .cls-6, .cls-7, .cls-8, .cls-9, .cls-10, .cls-12, .cls-13, .cls-14, .cls-17, .cls-18, .cls-19, .cls-20, .cls-21, .cls-22, .cls-23, .cls-25, .cls-26, .cls-27, .cls-28, .cls-29, .cls-30, .cls-31, .cls-32, .cls-33, .cls-34, .cls-35, .cls-36, .cls-37, .cls-38, .cls-39, .cls-41, .cls-42, .cls-43, .cls-44, .cls-45, .cls-47 {
        opacity: .2;
      }

      .cls-2 {
        fill: url(#_Áåçûìÿííûé_ãðàäèåíò_27-18);
      }

      .cls-3 {
        fill: url(#_Áåçûìÿííûé_ãðàäèåíò_27-11);
      }

      .cls-4 {
        fill: url(#_Áåçûìÿííûé_ãðàäèåíò_27-34);
      }

      .cls-5 {
        fill: url(#_Áåçûìÿííûé_ãðàäèåíò_27-5);
      }

      .cls-48 {
        fill: url(#_Áåçûìÿííûé_ãðàäèåíò_27-2);
      }

      .cls-6 {
        fill: url(#_Áåçûìÿííûé_ãðàäèåíò_27-8);
      }

      .cls-7 {
        fill: url(#_Áåçûìÿííûé_ãðàäèåíò_27-28);
      }

      .cls-8 {
        fill: url(#_Áåçûìÿííûé_ãðàäèåíò_27-32);
      }

      .cls-9 {
        fill: url(#_Áåçûìÿííûé_ãðàäèåíò_27-37);
      }

      .cls-10 {
        fill: url(#_Áåçûìÿííûé_ãðàäèåíò_27-24);
      }

      .cls-49 {
        opacity: .55;
      }

      .cls-49, .cls-50 {
        mix-blend-mode: screen;
      }

      .cls-51 {
        fill: url(#_Áåçûìÿííûé_ãðàäèåíò_2-4);
      }

      .cls-11 {
        opacity: .45;
      }

      .cls-11, .cls-24 {
        fill: #864300;
      }

      .cls-52 {
        fill: #6e1d00;
      }

      .cls-12 {
        fill: url(#_Áåçûìÿííûé_ãðàäèåíò_27-45);
      }

      .cls-13 {
        fill: url(#_Áåçûìÿííûé_ãðàäèåíò_27-13);
      }

      .cls-53 {
        opacity: .41;
      }

      .cls-14 {
        fill: url(#_Áåçûìÿííûé_ãðàäèåíò_27-23);
      }

      .cls-15 {
        fill: url(#_Áåçûìÿííûé_ãðàäèåíò_27-48);
        opacity: .12;
      }

      .cls-54 {
        fill: #d38600;
      }

      .cls-16 {
        opacity: .13;
      }

      .cls-55 {
        isolation: isolate;
      }

      .cls-56 {
        fill: url(#_Áåçûìÿííûé_ãðàäèåíò_2);
      }

      .cls-17 {
        fill: url(#_Áåçûìÿííûé_ãðàäèåíò_27-38);
      }

      .cls-18 {
        fill: url(#_Áåçûìÿííûé_ãðàäèåíò_27-33);
      }

      .cls-19 {
        fill: url(#_Áåçûìÿííûé_ãðàäèåíò_27-19);
      }

      .cls-57 {
        fill: url(#_Áåçûìÿííûé_ãðàäèåíò_27-46);
      }

      .cls-20 {
        fill: url(#_Áåçûìÿííûé_ãðàäèåíò_27-41);
      }

      .cls-21 {
        fill: url(#_Áåçûìÿííûé_ãðàäèåíò_27-10);
      }

      .cls-58 {
        fill: url(#_Áåçûìÿííûé_ãðàäèåíò_2-3);
      }

      .cls-22 {
        fill: url(#_Áåçûìÿííûé_ãðàäèåíò_27-15);
      }

      .cls-23 {
        fill: url(#_Áåçûìÿííûé_ãðàäèåíò_27-25);
      }

      .cls-24 {
        opacity: .58;
      }

      .cls-25 {
        fill: url(#_Áåçûìÿííûé_ãðàäèåíò_27-44);
      }

      .cls-26 {
        fill: url(#_Áåçûìÿííûé_ãðàäèåíò_27-16);
      }

      .cls-59 {
        fill: url(#_Áåçûìÿííûé_ãðàäèåíò_27-47);
      }

      .cls-27 {
        fill: url(#_Áåçûìÿííûé_ãðàäèåíò_27-17);
      }

      .cls-28 {
        fill: url(#_Áåçûìÿííûé_ãðàäèåíò_27-6);
      }

      .cls-29 {
        fill: url(#_Áåçûìÿííûé_ãðàäèåíò_27-7);
      }

      .cls-60 {
        fill: url(#_Áåçûìÿííûé_ãðàäèåíò_27);
      }

      .cls-61 {
        fill: url(#_Áåçûìÿííûé_ãðàäèåíò_2-5);
      }

      .cls-62 {
        fill: url(#_Áåçûìÿííûé_ãðàäèåíò_2-2);
      }

      .cls-63 {
        fill: url(#_Áåçûìÿííûé_ãðàäèåíò_27-3);
      }

      .cls-30 {
        fill: url(#_Áåçûìÿííûé_ãðàäèåíò_27-31);
      }

      .cls-64, .cls-40 {
        fill: #7a2900;
      }

      .cls-65 {
        fill: url(#_Áåçûìÿííûé_ãðàäèåíò_27-4);
      }

      .cls-31 {
        fill: url(#_Áåçûìÿííûé_ãðàäèåíò_27-22);
      }

      .cls-32 {
        fill: url(#_Áåçûìÿííûé_ãðàäèåíò_27-43);
      }

      .cls-33 {
        fill: url(#_Áåçûìÿííûé_ãðàäèåíò_27-42);
      }

      .cls-34 {
        fill: url(#_Áåçûìÿííûé_ãðàäèåíò_27-40);
      }

      .cls-35 {
        fill: url(#_Áåçûìÿííûé_ãðàäèåíò_27-29);
      }

      .cls-36 {
        fill: url(#_Áåçûìÿííûé_ãðàäèåíò_27-30);
      }

      .cls-37 {
        fill: url(#_Áåçûìÿííûé_ãðàäèåíò_27-20);
      }

      .cls-38 {
        fill: url(#_Áåçûìÿííûé_ãðàäèåíò_27-9);
      }

      .cls-39 {
        fill: url(#_Áåçûìÿííûé_ãðàäèåíò_27-27);
      }

      .cls-40 {
        opacity: .07;
      }

      .cls-41 {
        fill: url(#_Áåçûìÿííûé_ãðàäèåíò_27-12);
      }

      .cls-42 {
        fill: url(#_Áåçûìÿííûé_ãðàäèåíò_27-36);
      }

      .cls-50 {
        opacity: .46;
      }

      .cls-43 {
        fill: url(#_Áåçûìÿííûé_ãðàäèåíò_27-14);
      }

      .cls-44 {
        fill: url(#_Áåçûìÿííûé_ãðàäèåíò_27-39);
      }

      .cls-45 {
        fill: url(#_Áåçûìÿííûé_ãðàäèåíò_27-21);
      }

      .cls-46 {
        opacity: .22;
      }

      .cls-47 {
        fill: url(#_Áåçûìÿííûé_ãðàäèåíò_27-35);
      }
    </style>
    <linearGradient id="_Áåçûìÿííûé_ãðàäèåíò_2" data-name="Áåçûìÿííûé ãðàäèåíò 2" x1="80.61" y1="111.01" x2="72.13" y2="9.95" gradientUnits="userSpaceOnUse">
      <stop offset="0" stop-color="#b44d2f"/>
      <stop offset=".03" stop-color="#b8512d"/>
      <stop offset=".29" stop-color="#d76d22"/>
      <stop offset=".54" stop-color="#ed811b"/>
      <stop offset=".78" stop-color="#fa8d16"/>
      <stop offset="1" stop-color="#ff9215"/>
    </linearGradient>
    <linearGradient id="_Áåçûìÿííûé_ãðàäèåíò_27" data-name="Áåçûìÿííûé ãðàäèåíò 27" x1="125.6" y1="103.65" x2="123.28" y2="5.88" gradientUnits="userSpaceOnUse">
      <stop offset="0" stop-color="#b44320"/>
      <stop offset="1" stop-color="#ff9215"/>
    </linearGradient>
    <linearGradient id="_Áåçûìÿííûé_ãðàäèåíò_27-2" data-name="Áåçûìÿííûé ãðàäèåíò 27" x1="76.58" y1="104.81" x2="74.26" y2="7.03" xlink:href="#_Áåçûìÿííûé_ãðàäèåíò_27"/>
    <linearGradient id="_Áåçûìÿííûé_ãðàäèåíò_27-3" data-name="Áåçûìÿííûé ãðàäèåíò 27" x1="125.56" y1="103.65" x2="123.25" y2="5.87" xlink:href="#_Áåçûìÿííûé_ãðàäèåíò_27"/>
    <linearGradient id="_Áåçûìÿííûé_ãðàäèåíò_27-4" data-name="Áåçûìÿííûé ãðàäèåíò 27" x1="77.44" y1="104.79" x2="75.12" y2="7.02" xlink:href="#_Áåçûìÿííûé_ãðàäèåíò_27"/>
    <linearGradient id="_Áåçûìÿííûé_ãðàäèåíò_27-5" data-name="Áåçûìÿííûé ãðàäèåíò 27" x1=".23" y1="33.51" x2="73.1" y2="33.51" xlink:href="#_Áåçûìÿííûé_ãðàäèåíò_27"/>
    <linearGradient id="_Áåçûìÿííûé_ãðàäèåíò_27-6" data-name="Áåçûìÿííûé ãðàäèåíò 27" x1="67.11" y1="59.27" x2="150.62" y2="59.27" xlink:href="#_Áåçûìÿííûé_ãðàäèåíò_27"/>
    <linearGradient id="_Áåçûìÿííûé_ãðàäèåíò_27-7" data-name="Áåçûìÿííûé ãðàäèåíò 27" x1="6.51" y1="71.6" x2="103.72" y2="71.6" xlink:href="#_Áåçûìÿííûé_ãðàäèåíò_27"/>
    <linearGradient id="_Áåçûìÿííûé_ãðàäèåíò_27-8" data-name="Áåçûìÿííûé ãðàäèåíò 27" x1="49.22" y1="58.86" x2="53.98" y2="58.86" xlink:href="#_Áåçûìÿííûé_ãðàäèåíò_27"/>
    <linearGradient id="_Áåçûìÿííûé_ãðàäèåíò_27-9" data-name="Áåçûìÿííûé ãðàäèåíò 27" x1="103.42" y1="64.54" x2="123.59" y2="64.54" xlink:href="#_Áåçûìÿííûé_ãðàäèåíò_27"/>
    <linearGradient id="_Áåçûìÿííûé_ãðàäèåíò_27-10" data-name="Áåçûìÿííûé ãðàäèåíò 27" x1="73" y1="64.83" x2="82.1" y2="64.83" xlink:href="#_Áåçûìÿííûé_ãðàäèåíò_27"/>
    <linearGradient id="_Áåçûìÿííûé_ãðàäèåíò_27-11" data-name="Áåçûìÿííûé ãðàäèåíò 27" x1="42.09" y1="15.56" x2="119" y2="15.56" xlink:href="#_Áåçûìÿííûé_ãðàäèåíò_27"/>
    <linearGradient id="_Áåçûìÿííûé_ãðàäèåíò_27-12" data-name="Áåçûìÿííûé ãðàäèåíò 27" x1=".32" y1="42.81" x2=".33" y2="42.81" xlink:href="#_Áåçûìÿííûé_ãðàäèåíò_27"/>
    <linearGradient id="_Áåçûìÿííûé_ãðàäèåíò_27-13" data-name="Áåçûìÿííûé ãðàäèåíò 27" x1=".33" y1="43.69" x2="148.06" y2="43.69" xlink:href="#_Áåçûìÿííûé_ãðàäèåíò_27"/>
    <linearGradient id="_Áåçûìÿííûé_ãðàäèåíò_27-14" data-name="Áåçûìÿííûé ãðàäèåíò 27" x1="134.64" y1="19.11" x2="150.61" y2="19.11" xlink:href="#_Áåçûìÿííûé_ãðàäèåíò_27"/>
    <linearGradient id="_Áåçûìÿííûé_ãðàäèåíò_27-15" data-name="Áåçûìÿííûé ãðàäèåíò 27" x1=".47" y1="78.8" x2="141.91" y2="78.8" xlink:href="#_Áåçûìÿííûé_ãðàäèåíò_27"/>
    <linearGradient id="_Áåçûìÿííûé_ãðàäèåíò_27-16" data-name="Áåçûìÿííûé ãðàäèåíò 27" x1="45.29" y1="92.64" x2="110.65" y2="92.64" xlink:href="#_Áåçûìÿííûé_ãðàäèåíò_27"/>
    <linearGradient id="_Áåçûìÿííûé_ãðàäèåíò_27-17" data-name="Áåçûìÿííûé ãðàäèåíò 27" x1="75.8" y1="36.73" x2="137.91" y2="36.73" xlink:href="#_Áåçûìÿííûé_ãðàäèåíò_27"/>
    <linearGradient id="_Áåçûìÿííûé_ãðàäèåíò_27-18" data-name="Áåçûìÿííûé ãðàäèåíò 27" x1=".54" y1="93.28" x2="2.46" y2="93.28" xlink:href="#_Áåçûìÿííûé_ãðàäèåíò_27"/>
    <linearGradient id="_Áåçûìÿííûé_ãðàäèåíò_27-19" data-name="Áåçûìÿííûé ãðàäèåíò 27" x1="99.93" y1="96.1" x2="150.88" y2="96.1" xlink:href="#_Áåçûìÿííûé_ãðàäèåíò_27"/>
    <linearGradient id="_Áåçûìÿííûé_ãðàäèåíò_27-20" data-name="Áåçûìÿííûé ãðàäèåíò 27" x1="58.19" y1="100.24" x2="64.08" y2="100.24" xlink:href="#_Áåçûìÿííûé_ãðàäèåíò_27"/>
    <linearGradient id="_Áåçûìÿííûé_ãðàäèåíò_27-21" data-name="Áåçûìÿííûé ãðàäèåíò 27" x1=".21" y1="50.45" x2="107.07" y2="50.45" xlink:href="#_Áåçûìÿííûé_ãðàäèåíò_27"/>
    <linearGradient id="_Áåçûìÿííûé_ãðàäèåíò_27-22" data-name="Áåçûìÿííûé ãðàäèåíò 27" x1="71.13" y1="54.56" x2="149.95" y2="54.56" xlink:href="#_Áåçûìÿííûé_ãðàäèåíò_27"/>
    <linearGradient id="_Áåçûìÿííûé_ãðàäèåíò_27-23" data-name="Áåçûìÿííûé ãðàäèåíò 27" x1=".56" y1="85.66" x2="45.88" y2="85.66" xlink:href="#_Áåçûìÿííûé_ãðàäèåíò_27"/>
    <linearGradient id="_Áåçûìÿííûé_ãðàäèåíò_27-24" data-name="Áåçûìÿííûé ãðàäèåíò 27" x1=".4" y1="68.37" x2="70.08" y2="68.37" xlink:href="#_Áåçûìÿííûé_ãðàäèåíò_27"/>
    <linearGradient id="_Áåçûìÿííûé_ãðàäèåíò_27-25" data-name="Áåçûìÿííûé ãðàäèåíò 27" x1=".65" y1="86.26" x2="134.03" y2="86.26" xlink:href="#_Áåçûìÿííûé_ãðàäèåíò_27"/>
    <linearGradient id="_Áåçûìÿííûé_ãðàäèåíò_27-26" data-name="Áåçûìÿííûé ãðàäèåíò 27" x1="112.19" y1="42.46" x2="150.66" y2="42.46" xlink:href="#_Áåçûìÿííûé_ãðàäèåíò_27"/>
    <linearGradient id="_Áåçûìÿííûé_ãðàäèåíò_27-27" data-name="Áåçûìÿííûé ãðàäèåíò 27" x1="93.57" y1="5.58" x2="149.88" y2="5.58" xlink:href="#_Áåçûìÿííûé_ãðàäèåíò_27"/>
    <linearGradient id="_Áåçûìÿííûé_ãðàäèåíò_27-28" data-name="Áåçûìÿííûé ãðàäèåíò 27" x1="148.93" y1="57.61" x2="150.8" y2="57.61" xlink:href="#_Áåçûìÿííûé_ãðàäèåíò_27"/>
    <linearGradient id="_Áåçûìÿííûé_ãðàäèåíò_27-29" data-name="Áåçûìÿííûé ãðàäèåíò 27" x1="136.61" y1="7.17" x2="150.66" y2="7.17" xlink:href="#_Áåçûìÿííûé_ãðàäèåíò_27"/>
    <linearGradient id="_Áåçûìÿííûé_ãðàäèåíò_27-30" data-name="Áåçûìÿííûé ãðàäèåíò 27" x1="23.35" y1="7.78" x2="70.36" y2="7.78" xlink:href="#_Áåçûìÿííûé_ãðàäèåíò_27"/>
    <linearGradient id="_Áåçûìÿííûé_ãðàäèåíò_27-31" data-name="Áåçûìÿííûé ãðàäèåíò 27" x1="150.66" y1="14.35" x2="150.77" y2="14.35" xlink:href="#_Áåçûìÿííûé_ãðàäèåíò_27"/>
    <linearGradient id="_Áåçûìÿííûé_ãðàäèåíò_27-32" data-name="Áåçûìÿííûé ãðàäèåíò 27" x1="0" y1="17.09" x2="91.02" y2="17.09" xlink:href="#_Áåçûìÿííûé_ãðàäèåíò_27"/>
    <linearGradient id="_Áåçûìÿííûé_ãðàäèåíò_27-33" data-name="Áåçûìÿííûé ãðàäèåíò 27" x1="79.7" y1="93.3" x2="150.9" y2="93.3" xlink:href="#_Áåçûìÿííûé_ãðàäèåíò_27"/>
    <linearGradient id="_Áåçûìÿííûé_ãðàäèåíò_27-34" data-name="Áåçûìÿííûé ãðàäèåíò 27" x1=".14" y1="13.5" x2="29.58" y2="13.5" xlink:href="#_Áåçûìÿííûé_ãðàäèåíò_27"/>
    <linearGradient id="_Áåçûìÿííûé_ãðàäèåíò_27-35" data-name="Áåçûìÿííûé ãðàäèåíò 27" x1=".33" y1="7.61" x2="25.09" y2="7.61" xlink:href="#_Áåçûìÿííûé_ãðàäèåíò_27"/>
    <linearGradient id="_Áåçûìÿííûé_ãðàäèåíò_27-36" data-name="Áåçûìÿííûé ãðàäèåíò 27" x1="69.06" y1="21.68" x2="150.35" y2="21.68" xlink:href="#_Áåçûìÿííûé_ãðàäèåíò_27"/>
    <linearGradient id="_Áåçûìÿííûé_ãðàäèåíò_27-37" data-name="Áåçûìÿííûé ãðàäèåíò 27" x1="147.81" y1="22.8" x2="150.31" y2="22.8" xlink:href="#_Áåçûìÿííûé_ãðàäèåíò_27"/>
    <linearGradient id="_Áåçûìÿííûé_ãðàäèåíò_27-38" data-name="Áåçûìÿííûé ãðàäèåíò 27" x1=".39" y1="30.61" x2="150.67" y2="30.61" xlink:href="#_Áåçûìÿííûé_ãðàäèåíò_27"/>
    <linearGradient id="_Áåçûìÿííûé_ãðàäèåíò_27-39" data-name="Áåçûìÿííûé ãðàäèåíò 27" x1="141.98" y1="45.8" x2="150.66" y2="45.8" xlink:href="#_Áåçûìÿííûé_ãðàäèåíò_27"/>
    <linearGradient id="_Áåçûìÿííûé_ãðàäèåíò_27-40" data-name="Áåçûìÿííûé ãðàäèåíò 27" x1="110" y1="27.82" x2="150.67" y2="27.82" xlink:href="#_Áåçûìÿííûé_ãðàäèåíò_27"/>
    <linearGradient id="_Áåçûìÿííûé_ãðàäèåíò_27-41" data-name="Áåçûìÿííûé ãðàäèåíò 27" x1="70.15" y1="78.07" x2="150.96" y2="78.07" xlink:href="#_Áåçûìÿííûé_ãðàäèåíò_27"/>
    <linearGradient id="_Áåçûìÿííûé_ãðàäèåíò_27-42" data-name="Áåçûìÿííûé ãðàäèåíò 27" x1="114.97" y1="50.71" x2="150.74" y2="50.71" xlink:href="#_Áåçûìÿííûé_ãðàäèåíò_27"/>
    <linearGradient id="_Áåçûìÿííûé_ãðàäèåíò_27-43" data-name="Áåçûìÿííûé ãðàäèåíò 27" x1="96.21" y1="13.86" x2="150.66" y2="13.86" xlink:href="#_Áåçûìÿííûé_ãðàäèåíò_27"/>
    <linearGradient id="_Áåçûìÿííûé_ãðàäèåíò_27-44" data-name="Áåçûìÿííûé ãðàäèåíò 27" x1="3.99" y1="24.3" x2="89.77" y2="24.3" xlink:href="#_Áåçûìÿííûé_ãðàäèåíò_27"/>
    <linearGradient id="_Áåçûìÿííûé_ãðàäèåíò_27-45" data-name="Áåçûìÿííûé ãðàäèåíò 27" x1="105.68" y1="15.28" x2="150.66" y2="15.28" xlink:href="#_Áåçûìÿííûé_ãðàäèåíò_27"/>
    <linearGradient id="_Áåçûìÿííûé_ãðàäèåíò_27-46" data-name="Áåçûìÿííûé ãðàäèåíò 27" x1="1" y1="19.14" x2=".71" y2="15.66" xlink:href="#_Áåçûìÿííûé_ãðàäèåíò_27"/>
    <linearGradient id="_Áåçûìÿííûé_ãðàäèåíò_27-47" data-name="Áåçûìÿííûé ãðàäèåíò 27" x1="80.19" y1="110.07" x2="73.41" y2="29.22" xlink:href="#_Áåçûìÿííûé_ãðàäèåíò_27"/>
    <linearGradient id="_Áåçûìÿííûé_ãðàäèåíò_2-2" data-name="Áåçûìÿííûé ãðàäèåíò 2" x1="30.49" y1="105.92" x2="29.33" y2="95.25" xlink:href="#_Áåçûìÿííûé_ãðàäèåíò_2"/>
    <linearGradient id="_Áåçûìÿííûé_ãðàäèåíò_2-3" data-name="Áåçûìÿííûé ãðàäèåíò 2" x1="77.66" y1="105.92" x2="76.5" y2="95.25" xlink:href="#_Áåçûìÿííûé_ãðàäèåíò_2"/>
    <linearGradient id="_Áåçûìÿííûé_ãðàäèåíò_2-4" data-name="Áåçûìÿííûé ãðàäèåíò 2" x1="124.8" y1="105.92" x2="123.64" y2="95.25" xlink:href="#_Áåçûìÿííûé_ãðàäèåíò_2"/>
    <linearGradient id="_Áåçûìÿííûé_ãðàäèåíò_2-5" data-name="Áåçûìÿííûé ãðàäèåíò 2" x1="78.08" y1="21.46" x2="75.92" y2="-.92" xlink:href="#_Áåçûìÿííûé_ãðàäèåíò_2"/>
    <linearGradient id="_Áåçûìÿííûé_ãðàäèåíò_27-48" data-name="Áåçûìÿííûé ãðàäèåíò 27" x1="78.08" y1="21.48" x2="75.94" y2="-.66" xlink:href="#_Áåçûìÿííûé_ãðàäèåíò_27"/>
  </defs>
  <g class="cls-55">
    <g id="Layer_2" data-name="Layer 2">
      <g id="Layer_1-2" data-name="Layer 1">
        <g>
          <path class="cls-64" d="M150.68,87.96c.25-3.28-1.76-7.47-.34-10.58.21-.46.8-1.72.68-2.21-.15-.59-.78-.59-1.29-.61-.1-.88.99-1.61,1.02-2.61.05-1.9-.24-3.87-.15-5.81.05-1.12-.08-1.95-.44-2.96-.34-.97-.64-1.96-.41-2.99.11-.5,1.12-1.72.76-2.2-.21-.27-1.6.14-1.67.3.31-.67,1-1.1,1.29-1.86.45-1.16.53-2.34.53-3.57v-11.03c0-2.75.03-5.5,0-8.26-.01-1.31-.32-2.46-.44-3.72-.13-1.43.03-3.23-1-4.42-.26-.3-.64-.47-.89-.79-.49-.61-.55-.66-.1-1.35.72-1.11,1.97-1.84,2.22-3.23.55-3.14.21-6.64.21-9.81,0-2.12-1.72-3.84-3.84-3.84H4.47c-2.12,0-3.84,1.72-3.84,3.84,0,3.04-1.08,6.67-.01,9.62.23.65.5,1,.57,1.7.14,1.43-.13,3.02-.19,4.45-.09,2.26-.77,4.46-.82,6.73-.05,2.46.15,4.92.13,7.38-.03,2.66-.44,5.92.21,8.52.09.36.29.64.26,1.04-.05.87-.36,1.02.05,1.93.34.77.66,1.29.46,2.19-.13.58-.55,1.17-.7,1.78-.39,1.54-.21,3.44.65,4.78.22.34.51.42.56.83.11.84-.76,1.79-.97,2.59-.16.61-.18,1.28-.23,1.9-.15,1.72-.18,3.46-.2,5.18-.03,2.58.05,5.16.08,7.75.04,3.7-.02,7.34.06,11.02.02.75,0,1.66.29,2.36.18.46.71.8.84,1.24.37,1.24-.83,2.32-1.1,3.44-.09.38-.11.77-.09,1.17.04,1.11,1.08,2.72,1.61,3.67.71,1.29,1.17,2.27,2.77,2.33.21,0,.43,0,.64,0h141.32c.81,0,1.71-.98,2.09-1.63.68-1.17,1.12-2.51,1.48-3.81-.03-.12-.06-.23-.09-.31-.13-.29-.52-.52-.68-.79-.79-1.32.34-1.73.95-2.91.23-.44.31-.98.35-1.43.06-.59-.19-.87-.27-1.22-.28-1.32-.07-2.48.03-3.81Z"/>
          <path class="cls-56" d="M146.82,100.56H4.47c-2.12,0-3.84-1.72-3.84-3.84,0-2.74-.82-3.4,1.83-4.48-.53-.08-1.05-.36-1.64-.41-.44-.04-.33-15.16-.34-16.49-.01-1.12-.53-16.66,1.07-16.21-2.17-.6-1.27-5.94-.72-7.73.83-.05.7-.14,1.1-.58-2.62-.14-.88-1.51.35-1.96-2.54-.61-2.19-1.65-2.03-3.91.19-2.68.02-5.42.05-8.11.03-2.9-.14-5.81-.15-8.72,0-3-1.03-7.73,2.33-8.59-.64-.05-1.26-.18-1.85-.41-1.14-3.83,0-8.27,0-12.17,0-2.12,1.72-3.84,3.84-3.84h142.35c2.12,0,3.84,1.72,3.84,3.84v6.18c0,1.99.42,4.47.02,6.41-.44,2.14-.95,1.49-2.86,2.26.84.49,1.8.23,2.26,1.01.59,1.02.05,2.62.15,3.73.11,1.26.42,2.41.44,3.72.03,2.75,0,5.5,0,8.26v11.03c0,2.92.87,5.8-1.73,7.56.66.03,1.31.25,1.87.61-.6.43-1.3.71-2.01.96,1.91.5,1.88,2.56,1.81,4.16-.1,2.14.02,4.04.06,6.17.04,2.12.56,3.63-1.54,4.88.73.11,1.47.45,1.95,1.01-.36.62-.8,1.21-1.31,1.73,1.99.6.89,8.77.89,10.45,0,2.25,1.29,7.44-2.06,7.48.56.24,1.21.45,1.84.62.07.02-.11,3.01-.26,3.34-.58,1.27-1.99,2.05-3.36,2.05Z"/>
          <g class="cls-16">
            <path class="cls-60" d="M125.61,95.74c-8.55,1.58-17.1,3.33-25.68,4.82h17.52c8.36-1.59,16.69-3.31,25.01-5.06,2.58-.54,5.15-1.08,7.73-1.62.49-.59.67-1.49.7-2.49-8.45,1.32-16.89,2.8-25.28,4.35Z"/>
            <path class="cls-48" d="M74.7,100.56c20.31-2.18,40.67-3.89,60.87-6.98,5.1-.78,10.2-1.89,15.33-2.53,0-.45-.02-.9-.05-1.35-3.98.11-7.95.25-11.93.28-4.06.04-8.13.41-12.18.7-4.11.3-8.21.58-12.31,1-11.63,1.21-23.22,2.67-34.74,4.64,3.1-1.03,6.18-2.1,9.3-3.06,6.29-1.93,12.66-3.71,19.09-5.1,9.92-2.15,19.99-3.36,30.07-4.42.51,0,1.03-.02,1.54-.02,3.73-.06,7.46-.16,11.19-.27.11-2.07.15-4.44-.3-5.78-1.47-.05-2.94-.13-4.41-.22-7.31-.45-14.61-1.2-21.91-1.74-7.35-.54-14.72-1.05-22.09-.99-7.5.06-14.99.34-22.49.28-3.18-.02-6.36-.08-9.54-.16,3.49-.26,6.98-.53,10.47-.81,6.14-.49,12.35-.66,18.46-1.34,5.26-.58,11.81-.38,16.68-2.63,5.82-2.69,12.21-3.83,18.52-4.71,2.96-.41,6.28-1.23,9.26-1.05,2.39.14,4.47.86,6.93.54.04-.16.23-1.75.12-1.75-.46,0-.92-.02-1.38-.03-.84-.02-1.68-.06-2.51-.09-5.83-.37-11.64-.89-17.46-1.33-10.25-.78-20.5-1.54-30.72-2.62-9.98-1.06-20.26-1.7-29.96-4.39-.48-.13-.96-.27-1.44-.4,9.64.35,19.29.72,28.92,1.21,16.26.82,32.48,2.65,48.75,3.18,1.37.04,2.74.08,4.11.1-.03-.01-.06-.02-.1-.03.71-.25,1.42-.53,2.01-.96-.56-.37-1.21-.58-1.87-.61.43-.29.76-.61,1.02-.96-.85-.01-1.7-.03-2.56-.05-8.12-.19-16.22-.84-24.32-1.48-16.27-1.3-32.58-2.28-48.91-2.38-1.02,0-2.03,0-3.04,0,6.93-.22,13.87-.49,20.79-.85.55,0,1.11,0,1.66,0,7.75.06,15.51.19,23.25.45,7.44.25,14.88.62,22.33.46,3.86-.08,7.74-.28,11.58-.76-.03-.55-.07-1.1-.08-1.66-3.38.3-6.77.49-10.18.53-7.23.09-14.46-.29-21.69-.55-1.27-.04-2.55-.08-3.82-.12.87-.09,1.73-.18,2.6-.28.06,0,.13,0,.2,0,4.89-.1,9.94.14,14.8-.46,5.99-.75,12.04-.69,18.09-.79v-2.77c-2.89-.02-5.79,0-8.67,0,2.89-.18,5.78-.36,8.67-.48v-1.85c-1.94.01-3.87,0-5.81-.02-10.89-.17-21.85-1.03-32.66-2.47,4.25.45,8.52.77,12.83.86,7.34.14,14.67-.74,21.94-1.68,1.23-.16,2.46-.31,3.7-.47v-.8c0-1.73.01-3.46.01-5.19-4.64-.27-9.27-.6-13.9-1.01-11.1-.99-22.03-3.08-33.11-4.24-5.45-.57-11.08-1.06-16.55-.57-5.35.49-10.6,1.76-15.85,2.86-11.23,2.35-21.64-.21-32.96-.73-12.57-.57-25.17-.31-37.72.49-.25.02-.24.45.02.45,11.23-.38,22.5-.32,33.72.22,5.61.27,11.2.73,16.75,1.57,4.91.75,9.79,1.4,14.77,1.27,2.43.37,4.85.76,7.28,1.16-.09,0-.19-.02-.28-.03-12.1-1.22-24.24-1.83-36.4-2.24-6.86-.23-13.72-.4-20.57-.79-5.23-.3-10.42.06-15.62.44.02.58.03,1.16.04,1.74,1.48.14,2.95.28,4.43.35,3.03.14,6.08.18,9.12.19,3.15.01,6.31-.23,9.46-.26,2.95-.03,5.9.02,8.84.07,12.25.21,24.51.81,36.72,1.91,12.05,1.09,24.01,2.79,35.97,4.55,12.11,1.79,24.21,2.82,36.44,3.11,2.27.05,4.53.08,6.8.09-3.67.3-7.33.68-10.96,1.25-.14.02-.21.11-.22.2-.5-.01-1.01-.03-1.51-.04-2.38-.08-4.71-.33-7.09-.3-2.38.03-4.75.07-7.13.13-3.72.1-7.44.17-11.15.4-14.01-2.14-28.24-2.67-42.38-2.93-8-.15-16.05,0-24.02-.67-7.81-.65-15.63-.51-23.46-.52-4.51,0-9.01-.04-13.52-.14-2.06-.04-4.17-.11-6.27-.11,0,.71,0,1.41-.02,2.11,1.53.19,3.06.34,4.57.48,3.98.38,8,.54,12,.73,3.91.19,7.82.3,11.73.34,3.86.04,7.74.17,11.6-.13,15.89-1.27,31.87-1.04,47.79-.29,6.38.3,12.72.74,19.06,1.33-.24.02-.47.04-.71.06-9.64.88-19.34,1.18-28.99,1.94-4.79.38-9.57.76-14.36,1.16-19.58.41-39.21.84-58.73,2.41-1.18.09-2.35.19-3.53.29-.21.77-.45,1.96-.54,3.18.27-.02.53-.03.8-.04,4.73-.26,9.47-.5,14.2-.71.05.03.12.06.2.05,1.21-.08,2.42-.15,3.63-.22,1.04-.04,2.08-.09,3.12-.13,5.97-.25,11.97,1.21,17.83.97,3.67-.15,10.32-1.74,13.28,1.28,2.48,2.53-2.16,2.98-4.05,3.7,2.51,1.9,9.22,2.19,12.45,2.94,2.56.6,6.71.21,8.41,2.48-2.28,1.91-7.33,1.99-10.25,2.54-19.37,3.69-39.79,1.63-59.43,3.08.02,2.34.08,4.19.08,4.56,0,.05,0,.12,0,.2.44-.01.87-.02,1.31-.03,4.46-.1,8.93-.14,13.39.16,4.45.29,8.88.84,13.32,1.16,8.71.62,17.47-.23,26.16-.85,2.8-.2,5.6-.4,8.4-.6,12.11.73,24.2.62,36.35.43,7.5-.12,14.97.09,22.4,1.23,6.7,1.03,13.38,2.25,20.11,3.08-1.05.11-2.1.21-3.14.32-4.08-.18-8.16-.31-12.24-.4-11.31-.24-22.6-.65-33.92-.6-11.22.05-22.47.38-33.69.16-11.2-.22-22.38-.85-33.56-1.66-6.27-.46-12.5-1.08-18.78-1.25-2.03-.05-4.07-.1-6.11-.07,0,.67,0,1.54,0,2.52,1.57.19,3.13.42,4.68.67,5.55.89,11.03,1.28,16.64,1.44,8.03.23,16.06.15,24.09,0-15.14,1.79-30.13,5.41-45.18,7.65-.05,0-.09.01-.14.02.01.47.03.91.05,1.29,5.12-.94,10.24-1.93,15.36-2.9,11.31-2.15,22.58-4.07,34-5.3,12.76-1.38,25.91-1.18,38.69-1.32,5.62-.06,11.23-.04,16.85-.13,5.61-.09,11.24-.25,16.85-.09,3.89.11,7.78.28,11.67.49-1.53.17-3.07.34-4.6.53-1.61.2-3.22.4-4.83.63-11.69.12-23.39.23-35.08.58-11.53.34-23.06.96-34.51,2.33-5.72.68-11.49,1.12-17.18,1.97-5.78.86-11.56,1.78-17.37,2.47-6.6.78-13.2,1.07-19.82,1.18.05.76.11,1.22.18,1.22.59.05,1.11.33,1.64.41-1.39.57-1.83,1.02-1.92,1.72,4.99-.07,9.98-.3,14.95-.73,5.73-.49,11.45-1.26,17.11-2.26,5.76-1.01,11.46-2.35,17.23-3.33,11.55-1.96,23.42-2.53,35.11-2.96,8.57-.31,17.14-.44,25.71-.55-5,.83-9.98,1.86-14.86,3.23-6.11,1.71-12.09,3.82-18.07,5.95-6.18,2.2-12.67,3.45-19.09,4.75-3.68.75-7.37,1.42-11.06,2.1-.75.14-1.52.27-2.29.39h7.56c1.05-.13,2.1-.26,3.15-.39,2.68-.33,5.39-.56,8.08-.85-1.96.42-3.93.83-5.89,1.24h16.51ZM82.97,33.94c-2.39-.22-4.78-.44-7.17-.67,8.91-.14,17.84-.56,26.64.92,11.74,1.97,23.57,3.84,35.46,4.59-3.21.25-6.44.38-9.68.28-7.52-.25-14.98-1.5-22.43-2.44-7.6-.96-15.19-1.98-22.83-2.68ZM56.57,73.27c-8.68.64-17.36,1.37-26.08,1.29-8.02-.07-15.96-.88-23.98-.74,6-.35,12.01-.58,18.02-.83,16.63-.71,33.26-1.26,49.77-3.49,1.91-.26,4.13-.31,5.96-.95.76-.27,1.9-.89,1.83-1.85-.09-1.2-3.19-2.03-4.08-2.42-1.66-.71-3.33-1.4-5.01-2.04,3.26-1.15,6.6-1.81,10.01-2.17,3.81.24,7.65.3,11.46.47,9.72.42,19.42,1.04,29.13,1.76-1.45.04-2.9.09-4.35.15,0,0-.01,0-.02,0-2.5.05-4.99.14-7.49.23-1.95.07-4.21.05-6.05.76-1.33.51-2.33,1.57-2.25,3.05.02.39.12.76.28,1.09,0,.14.01.29,0,.42-6.41,3.06-14.3,2.78-21.19,3.28-8.65.62-17.3,1.36-25.95,2Z"/>
            <path class="cls-63" d="M117.57,20.61c5.44.59,10.89,1.13,16.35,1.64,5.39.5,10.8,1.1,16.22,1.26.06,0,.12,0,.17,0-.04-.25-.11-.49-.24-.7-.46-.79-1.42-.52-2.26-1.01,1.82-.74,2.37-.18,2.8-1.99-5.33-.68-10.66-1.43-15.97-2.25,1.32-.25,2.64-.47,3.91-.68,3.22-.53,6.47-.8,9.72-1.07.84-.07,1.67-.15,2.5-.23-.05-.85-.11-1.68-.11-2.45v-1.02c-1.34.09-2.69.18-4.03.29-4.98.41-9.72.85-14.33,2.77-4.53,1.88-9.73,2.82-14.72,2.26-3.95-.44-7.93-.44-11.89-.64,14.79-2.9,29.89-4.49,44.98-5v-1.56c-18.33.55-37.32,2.43-54.45,7.12,7.29.52,14.08,2.47,21.36,3.26Z"/>
            <path class="cls-65" d="M32.5,26.27c8.78.27,17.55,1.59,26.33,1.14,2.1-.11,4.08-.59,6.15-.9,3.56-.52,7.14-.39,10.63-.93,4.99-.77,9.71-1.89,14.81-2.06,14.12-.48,29.09,1.38,42.67,4.97,5.86,1.55,11.69,3.09,17.58,4.34,0-.8,0-1.61-.01-2.41-.15-.03-.3-.06-.44-.08-10.23-1.97-20.42-4.11-30.6-6.3-3.19-.69-6.39-1.31-9.61-1.83,3.5.2,6.99.5,10.5.92,7.56.91,15.08,2.21,22.71,2.44,2.35.07,4.69.05,7.03-.01.05-.53.12-1.09.11-1.61-2.14.17-4.29.23-6.46.18-7.31-.15-14.59-1.21-21.82-2.25-7.54-1.09-15.13-2-22.72-2.71-7.38-.69-14.93-.6-22.33-.32-2.66.1-5.32.23-7.97.39.91-.11,1.82-.22,2.73-.33,6.67-.77,13.36-1.46,20.01-2.44,6.71-.99,13.33-2.32,19.95-3.76,3.26-.71,6.5-1.34,9.83-1.67,3.38-.34,6.77-.5,10.16-.79,6.32-.54,12.62-1.17,18.93-1.84v-1.46c0-.11,0-.21-.02-.32-4.68.13-9.35.28-14.03.48,4.49-.51,8.94-1.27,13.27-2.48-.35-.47-.81-.85-1.34-1.12-13.83,1.84-28.01,2.11-41.88,2.68-4.26.17-8.87,1.16-13.09.76,3.54-1.52,7.22-2.7,10.92-3.85h-10.56c-5.42,1.24-10.85,2.44-16.33,3.37-5.98,1.02-12.01,1.71-18.06,2.17-.03,0-.05,0-.08,0,6.92-1.39,13.88-2.57,20.82-3.79,3.27-.58,6.54-1.15,9.81-1.75h-6.02c-7.33,1.26-14.66,2.54-22.02,3.65-4.83.73-9.67,1.43-14.51,2.1h-.13c-5.07.12-10.14.25-15.2.39-2.96.08-5.91.17-8.87.28,1.02-.15,2.04-.29,3.05-.44,4.63-.68,8.54-2.34,13.01-3.34,4.63-1.04,9.41-1.22,14.05-2.15.78-.16,1.57-.32,2.35-.47h-26.88C19.51,4.47,10.07,5.88.63,7.09c-.01,1.43-.16,2.94-.3,4.46.98,0,1.95-.03,2.93,0,2.11.04,4.24-.15,6.35-.35,6.66.14,13.32.08,19.98-.04-3.12.36-6.24.71-9.36,1.03-3.92.41-7.84.81-11.77,1.11-1.96.15-3.92.3-5.88.44-.79.06-1.6.09-2.41.14-.03.62-.04,1.25-.02,1.86,2.12.14,4.27.08,6.35.14,3.47.11,6.99.07,10.46-.15,9.64-.62,19.23-1.91,28.83-2.99,7.81-.88,15.67-1.33,23.51-1.84,6.89-.45,15.09-.11,21.74-1.87-1.41.37-2.82.77-4.23,1.18-5.53,1.61-11.07,3.19-16.73,4.3-5.88,1.15-11.82,1.97-17.76,2.75-5.89.78-11.8,1.62-17.72,2.01-5.97.39-11.95.65-17.9,1.35-5.56.65-11.11,1.33-16.62,2.31-.14,1.31-.01,2.8.05,4.11,1.69-.11,3.38-.21,5.08-.29,9.09-.44,18.2-.76,27.31-.48ZM12.95,24.21c11.85-1.59,23.56-3.94,35.45-5.26,5.87-.66,11.75-1.29,17.59-2.17,5.82-.88,11.57-2.12,17.33-3.36,11.32-2.44,22.66-4.3,34.24-4.97.49-.03.97-.05,1.46-.08-1.67.23-3.33.5-4.99.85-6.63,1.39-13.07,3.49-19.75,4.69-6.7,1.2-13.45,2.09-20.17,3.15-3.79.6-7.57,1.23-11.33,1.96-6.77,1.31-14.05,1.35-20.68,2.95,10.61,1.02,21.58.32,32.29.07,5.13-.12,10.26-.09,15.39-.09-.53.06-1.05.12-1.57.18-8.8,1.03-17.78,2.94-26.66,2.47-4.35-.23-8.78.09-13.14.01-4.46-.08-8.91-.25-13.37-.29-8.87-.08-17.73.08-26.58.74-1.49.11-2.97.24-4.46.39,2.98-.43,5.97-.84,8.96-1.24Z"/>
          </g>
          <g class="cls-53">
            <path class="cls-5" d="M15.85,32.33c6.85.39,13.71.56,20.57.79,12.15.41,24.29,1.02,36.4,2.24.09,0,.19.02.28.03-2.42-.4-4.85-.79-7.28-1.16-4.32.11-8.58-.37-12.84-.98-5.52-.31-11.04-.54-16.56-.73-6.86-.23-13.72-.4-20.57-.79-5.23-.3-10.42.06-15.62.44,0,.2,0,.4.02.6,5.19-.38,10.38-.74,15.6-.44Z"/>
            <path class="cls-28" d="M150.59,63.09c-.46,0-.92-.02-1.38-.03-.84-.02-1.68-.06-2.51-.09-5.83-.37-11.64-.89-17.46-1.33-10.25-.78-20.5-1.54-30.72-2.62-9.59-1.02-19.46-1.65-28.83-4.09-.86-.03-1.72-.06-2.57-.1.48.13.96.26,1.44.4,9.71,2.69,19.98,3.33,29.96,4.39,10.22,1.08,20.47,1.84,30.72,2.62,5.82.44,11.64.96,17.46,1.33.84.04,1.67.07,2.51.09.46.01.92.02,1.38.03,0,0,0,0,.01.01.03-.33.03-.61-.01-.61Z"/>
            <path class="cls-29" d="M103.72,68.6c0-.14,0-.28,0-.42-.02-.05-.04-.1-.06-.15-6.39,3.03-14.25,2.75-21.13,3.24-8.65.62-17.3,1.36-25.95,2-8.68.64-17.36,1.37-26.08,1.29-5.04-.05-10.04-.38-15.05-.59-2.98.13-5.96.27-8.93.45,8.02-.14,15.96.67,23.98.74,8.71.08,17.39-.65,26.08-1.29,8.65-.64,17.3-1.37,25.95-2,6.9-.5,14.79-.21,21.19-3.28Z"/>
            <path class="cls-6" d="M53.93,57.61c-.41,1.19-3.32,1.58-4.71,2.11.19.14.4.27.62.39,1.76-.52,4.53-1.02,4.09-2.5Z"/>
            <path class="cls-38" d="M105.68,64.03c1.84-.71,4.11-.69,6.05-.76,2.5-.09,4.99-.17,7.49-.23,0,0,.01,0,.02,0,1.45-.06,2.9-.11,4.35-.15-1.94-.14-3.87-.28-5.81-.41-2.02.05-4.04.12-6.05.19-1.95.07-4.21.05-6.05.76-1.33.51-2.33,1.57-2.25,3.05,0,.04,0,.08.01.12.13-1.23,1.06-2.12,2.24-2.57Z"/>
            <path class="cls-21" d="M78.01,64.88c.85.37,3.65,1.12,4.04,2.22.04-.13.05-.26.04-.4-.09-1.2-3.19-2.03-4.08-2.42-1.38-.6-2.78-1.17-4.19-1.71-.28.09-.55.18-.83.27,1.69.64,3.36,1.32,5.01,2.04Z"/>
            <path class="cls-3" d="M74.09,17.07c-3.79.6-7.57,1.23-11.33,1.96-6.77,1.31-14.05,1.35-20.68,2.95.66.06,1.32.12,1.99.17,6.08-1.19,12.59-1.34,18.69-2.52,3.76-.73,7.54-1.36,11.33-1.96,6.72-1.06,13.47-1.95,20.17-3.15,6.68-1.2,13.12-3.29,19.75-4.69,1.65-.35,3.32-.62,4.99-.85-.49.03-.98.05-1.46.08-1.35.08-2.7.17-4.05.28-6.45,1.39-12.72,3.41-19.23,4.57-6.7,1.2-13.45,2.09-20.17,3.15Z"/>
            <path class="cls-41" d="M.33,42.3c0,.34,0,.68-.02,1.02,0,0,0,0,0,0,0-.34,0-.68,0-1.02Z"/>
            <path class="cls-13" d="M121.14,45.78c2.38-.06,4.75-.1,7.13-.13,2.39-.03,4.71.21,7.09.3.5.02,1.01.03,1.51.04.02-.1.09-.18.22-.2,3.63-.57,7.29-.95,10.96-1.25-1.85,0-3.71-.03-5.56-.06-1.8.2-3.61.44-5.4.72-.14.02-.21.11-.22.2-.5-.01-1.01-.03-1.51-.04-2.38-.08-4.71-.33-7.09-.3-2.38.03-4.75.07-7.13.13-3.72.1-7.44.17-11.15.4-14.01-2.14-28.24-2.67-42.38-2.93-8-.15-16.05,0-24.02-.67-7.81-.65-15.63-.51-23.46-.52-4.51,0-9.01-.04-13.52-.14-2.06-.04-4.17-.11-6.27-.11,0,.2,0,.4,0,.6,2.1,0,4.2.06,6.27.11,4.51.1,9.01.14,13.52.14,7.83,0,15.66-.13,23.46.52,7.97.67,16.03.52,24.02.67,14.15.27,28.38.79,42.38,2.93,3.71-.22,7.43-.3,11.15-.4Z"/>
            <path class="cls-43" d="M150.44,20.38c.06-.16.12-.35.17-.58-4.73-.6-9.45-1.26-14.16-1.98-.6.1-1.2.21-1.81.33,5.26.81,10.52,1.55,15.8,2.23Z"/>
            <path class="cls-22" d="M6.59,77.26c6.28.16,12.51.79,18.78,1.25,11.17.81,22.35,1.45,33.56,1.66,11.22.22,22.46-.11,33.69-.16,7.76-.03,15.52.15,23.27.34,2.16-.01,4.32,0,6.48.06,2.38.07,4.77.16,7.15.27,3.09.08,6.18.19,9.26.33,1.05-.11,2.09-.21,3.14-.32-.86-.11-1.72-.22-2.58-.34-.19.02-.37.04-.56.06-4.08-.18-8.16-.31-12.24-.4-11.31-.24-22.6-.65-33.92-.6-11.22.05-22.47.38-33.69.16-11.2-.22-22.38-.85-33.56-1.66-6.27-.46-12.5-1.08-18.78-1.25-2.03-.05-4.07-.1-6.11-.07,0,.67,0,1.54,0,2.52h0c0-.74,0-1.4,0-1.92,2.04-.03,4.08.02,6.11.07Z"/>
            <path class="cls-26" d="M110.65,84.73c-1.22.01-2.44.03-3.66.05-3.77.71-7.51,1.55-11.2,2.58-6.11,1.71-12.09,3.82-18.07,5.95-6.18,2.2-12.67,3.45-19.09,4.75-3.68.75-7.37,1.42-11.06,2.1-.75.14-1.52.27-2.29.39h3.39c3.32-.62,6.65-1.22,9.96-1.9,6.41-1.31,12.91-2.55,19.09-4.75,5.97-2.13,11.95-4.24,18.07-5.95,4.88-1.37,9.86-2.4,14.86-3.23Z"/>
            <path class="cls-27" d="M82.97,34.54c7.63.7,15.22,1.72,22.83,2.68,7.45.94,14.91,2.19,22.43,2.44,3.24.11,6.47-.02,9.68-.28-1.51-.1-3.03-.21-4.54-.34-1.71.06-3.42.07-5.14.01-7.52-.25-14.98-1.5-22.43-2.44-7.6-.96-15.19-1.98-22.83-2.68-.61-.06-1.23-.12-1.84-.17-1.78.03-3.55.07-5.33.1,2.39.23,4.78.45,7.17.67Z"/>
            <path class="cls-2" d="M2.46,92.83c-.27-.04-.54-.13-.81-.22-.76.41-1.04.81-1.11,1.34.07,0,.14,0,.22,0,.26-.4.76-.73,1.71-1.12Z"/>
            <path class="cls-19" d="M99.93,100.56h3.38c7.45-1.34,14.87-2.84,22.29-4.22,8.38-1.55,16.8-3.03,25.24-4.35.01-.11.02-.23.03-.35-5.12.64-10.21,1.75-15.31,2.53-2.29.35-4.59.68-6.88,1-1.03.19-2.05.37-3.08.56-8.55,1.58-17.1,3.33-25.68,4.82Z"/>
            <path class="cls-37" d="M58.56,100.48c-.12.03-.25.05-.37.08h2.85c1.01-.21,2.03-.43,3.04-.64-1.84.2-3.68.37-5.52.56Z"/>
            <path class="cls-45" d="M4.28,51.95c19.52-1.57,39.15-2,58.73-2.41,4.79-.4,9.57-.79,14.36-1.16,9.65-.76,19.35-1.06,28.99-1.94.24-.02.47-.04.71-.06-1.17-.11-2.34-.21-3.51-.31-8.72.7-17.47,1.02-26.19,1.7-4.79.38-9.57.76-14.36,1.16-19.58.41-39.21.84-58.73,2.41-1.18.09-2.35.19-3.53.29-.21.77-.45,1.96-.54,3.18.02,0,.04,0,.06,0,.11-1,.31-1.93.48-2.57,1.18-.1,2.35-.2,3.53-.29Z"/>
            <path class="cls-31" d="M147.39,56.1c-8.12-.19-16.22-.84-24.32-1.48-13.21-1.06-26.45-1.9-39.7-2.23-4.08.17-8.16.32-12.24.45,1.01,0,2.03,0,3.04,0,16.33.1,32.64,1.08,48.91,2.38,8.1.65,16.19,1.29,24.32,1.48.67.02,1.34.03,2,.04.21-.19.4-.38.55-.59-.85-.01-1.7-.03-2.56-.05Z"/>
            <path class="cls-14" d="M45.88,81.83c-1.73.03-3.46.06-5.19.08-13.38,1.92-26.66,4.98-39.99,6.97-.05,0-.09.01-.14.02,0,.21.01.41.02.6.04,0,.08-.01.12-.02,15.05-2.24,30.04-5.86,45.18-7.65Z"/>
            <path class="cls-10" d="M70.08,65.74c-.1-.13-.21-.25-.32-.37-2.4,1.68-7.14,1.78-9.93,2.31-19.37,3.69-39.79,1.63-59.43,3.08,0,.2,0,.4,0,.6,19.64-1.45,40.06.61,59.43-3.08,2.92-.56,7.97-.64,10.25-2.55Z"/>
            <path class="cls-23" d="M37.82,87.55c5.7-.85,11.46-1.28,17.18-1.97,11.46-1.37,22.99-1.99,34.51-2.33,11.69-.34,23.39-.45,35.08-.58,1.61-.22,3.22-.43,4.83-.63,1.53-.19,3.06-.36,4.6-.53-1.21-.07-2.42-.13-3.64-.19-.32.04-.64.07-.96.11-1.61.2-3.22.4-4.83.63-11.69.12-23.39.23-35.08.58-11.53.34-23.06.96-34.51,2.33-5.72.68-11.49,1.12-17.18,1.97-5.78.86-11.56,1.78-17.37,2.47-6.23.74-12.48,1.03-18.72,1.16-.36.07-.72.13-1.08.2.01.16.02.3.04.42,6.6-.12,13.19-.4,19.77-1.18,5.8-.69,11.59-1.61,17.37-2.47Z"/>
            <path class="cls-1" d="M144.85,43.09c-6.45-.1-12.93-.45-19.39-1.01-.15,0-.29,0-.44,0-4.31-.08-8.58-.4-12.83-.86,10.81,1.45,21.77,2.3,32.66,2.47,1.94.03,3.87.04,5.81.02v-.6c-1.94.01-3.87,0-5.81-.02Z"/>
            <path class="cls-39" d="M94.83,7.03c-.42.17-.84.34-1.26.52,4.22.4,8.83-.58,13.09-.76,13.87-.57,28.05-.83,41.88-2.68.33.17.63.39.9.64.15-.04.3-.08.44-.12-.35-.47-.81-.85-1.34-1.12-13.83,1.84-28.01,2.11-41.88,2.68-3.84.16-7.96.97-11.83.84Z"/>
            <path class="cls-7" d="M148.93,57.71c.47.02.93.14,1.36.33.18-.1.35-.2.51-.32-.38-.25-.8-.43-1.24-.53-.18.18-.39.35-.63.51Z"/>
            <path class="cls-35" d="M136.61,7.71c4.68-.21,9.35-.36,14.03-.49,0,.1.02.21.02.32v-.6c0-.11,0-.21-.02-.32-2.73.07-5.47.16-8.2.25-1.93.33-3.88.61-5.83.83Z"/>
            <path class="cls-36" d="M66.55,6.66c1.27-.41,2.54-.82,3.81-1.22-2.76.46-5.53.9-8.3,1.32-4.83.73-9.67,1.43-14.51,2.1h-.13c-5.07.12-10.14.25-15.2.39-1.35.04-2.69.08-4.04.12-.58.12-1.17.23-1.78.31-1.02.15-2.03.3-3.05.44,2.96-.11,5.91-.19,8.87-.28,5.07-.14,10.13-.28,15.2-.39h.13c4.84-.67,9.68-1.37,14.51-2.1,1.5-.23,3-.46,4.49-.7Z"/>
            <path class="cls-30" d="M150.66,13.73c0,.58.04,1.21.08,1.85.01,0,.03,0,.04,0-.05-.85-.11-1.68-.11-2.45v.6Z"/>
            <path class="cls-8" d="M.07,23.52c5.51-.99,11.06-1.66,16.62-2.31,5.95-.7,11.93-.95,17.9-1.35,5.93-.39,11.84-1.23,17.72-2.01,5.94-.79,11.88-1.6,17.76-2.75,5.66-1.11,11.2-2.69,16.73-4.3,1.41-.41,2.82-.8,4.23-1.18-1.83.49-3.79.81-5.8,1.03-5.01,1.45-10.03,2.84-15.15,3.84-5.88,1.15-11.82,1.97-17.76,2.75-5.89.78-11.8,1.62-17.72,2.01-5.97.39-11.95.65-17.9,1.35-5.56.65-11.11,1.33-16.62,2.31-.06.52-.07,1.08-.06,1.63,0-.35.03-.7.06-1.03Z"/>
            <path class="cls-18" d="M138.92,89.97c-4.06.04-8.13.41-12.18.7-4.11.3-8.21.58-12.31,1-10.44,1.09-20.85,2.38-31.2,4.05-1.18.4-2.36.79-3.54,1.18,11.51-1.96,23.1-3.42,34.74-4.63,4.1-.43,8.2-.71,12.31-1.01,4.05-.29,8.12-.66,12.18-.7,3.98-.04,7.95-.17,11.93-.28.02.25.03.5.04.75,0,0,0,0,.01,0,0-.45-.02-.9-.05-1.35-3.98.11-7.95.25-11.93.28Z"/>
            <path class="cls-4" d="M.16,14.47c.81-.05,1.62-.09,2.41-.14,1.96-.14,3.92-.29,5.88-.44,3.93-.3,7.85-.7,11.77-1.11,3.12-.32,6.24-.67,9.36-1.03-2.04.04-4.08.07-6.13.09-1.08.12-2.16.24-3.24.35-3.92.41-7.84.81-11.77,1.11-1.96.15-3.92.3-5.88.44-.79.06-1.6.09-2.41.14-.02.46-.03.92-.02,1.38,0-.26,0-.52.02-.78Z"/>
            <path class="cls-47" d="M25.09,3.67C16.94,4.85,8.79,6.05.63,7.09c-.01,1.43-.16,2.94-.3,4.46.02,0,.04,0,.05,0,.12-1.32.24-2.62.25-3.86,7.1-.91,14.2-1.93,21.3-2.96,1.05-.37,2.11-.72,3.16-1.06Z"/>
            <path class="cls-42" d="M77.03,19.44c7.4-.28,14.96-.37,22.33.32,7.59.71,15.18,1.62,22.72,2.71,7.22,1.05,14.51,2.1,21.82,2.25,2.16.05,4.31-.01,6.44-.18.01-.2.02-.41.02-.6-.02,0-.05,0-.07,0,.01.05.02.11.03.16-.06,0-.12,0-.17,0-.49-.01-.97-.04-1.45-.06-1.59.08-3.18.11-4.79.07-7.31-.15-14.59-1.21-21.82-2.25-7.54-1.09-15.13-2-22.72-2.71-7.08-.66-14.32-.61-21.43-.35-2.05.23-4.1.46-6.14.7-.91.11-1.82.21-2.73.33,2.65-.16,5.31-.29,7.97-.39Z"/>
            <path class="cls-9" d="M150.31,23.51c-.04-.25-.11-.49-.24-.7-.3-.52-.83-.58-1.4-.71-.25.07-.54.16-.87.29.84.49,1.8.22,2.26,1.01.02.03.03.06.05.1,0,0,0,0,.01,0,.06,0,.12,0,.17,0Z"/>
            <path class="cls-17" d="M.58,30.58c1.68-.06,3.37-.1,5.05-.14,10.87-.56,21.77-.69,32.65-.2,11.32.51,21.73,3.08,32.96.73,5.25-1.1,10.5-2.37,15.85-2.86,5.48-.5,11.1,0,16.55.57,11.08,1.16,22.01,3.25,33.11,4.24,4.63.41,9.26.75,13.9,1.01,0-.16,0-.33,0-.49-.23-.05-.46-.1-.69-.15-4.41-.26-8.81-.58-13.21-.97-11.1-.99-22.03-3.08-33.11-4.24-5.45-.57-11.08-1.06-16.55-.57-5.35.49-10.6,1.76-15.85,2.86-11.23,2.35-21.64-.21-32.96-.73-12.57-.57-25.17-.31-37.72.49-.25.02-.24.45.02.45Z"/>
            <path class="cls-44" d="M141.98,46.04c2.89,0,5.78-.03,8.67,0v-.47c-2.89.12-5.78.3-8.67.48Z"/>
            <path class="cls-34" d="M150.66,30.42c-.15-.03-.3-.06-.44-.08-10.23-1.97-20.42-4.11-30.6-6.3-1.33-.29-2.67-.56-4.01-.82-1.87-.17-3.73-.3-5.6-.41,3.22.52,6.42,1.15,9.61,1.83,10.19,2.19,20.37,4.32,30.6,6.3.15.03.3.06.44.08,0,.6,0,1.21,0,1.81h0c0-.8,0-1.61-.01-2.41Z"/>
            <path class="cls-20" d="M150.58,77.66c-1.47-.05-2.94-.13-4.41-.22-7.31-.45-14.61-1.2-21.91-1.74-7.35-.54-14.72-1.05-22.09-.99-7.5.06-14.99.34-22.49.28-1.09,0-2.18-.03-3.27-.04-2.09.16-4.18.32-6.26.48,3.18.08,6.36.14,9.54.16,7.5.06,14.99-.22,22.49-.28,7.38-.06,14.74.45,22.09.99,7.31.54,14.6,1.29,21.91,1.74,1.47.09,2.94.17,4.41.22.26.79.36,1.94.37,3.17.02-1.45-.07-2.85-.37-3.77Z"/>
            <path class="cls-33" d="M150.66,49.88c-3.38.3-6.77.49-10.18.53-5.78.07-11.57-.16-17.35-.38-1.8,0-3.59,0-5.37.03-.07,0-.13,0-.2,0-.87.1-1.73.19-2.6.28,1.27.04,2.55.07,3.82.12,7.23.26,14.46.64,21.69.55,3.4-.04,6.8-.23,10.18-.53,0,.36.03.71.05,1.06.01,0,.02,0,.04,0-.03-.55-.07-1.1-.08-1.66Z"/>
            <path class="cls-32" d="M96.21,17.35c.58.04,1.15.09,1.72.15,16.67-4.36,35-6.14,52.73-6.67v-.6c-18.33.55-37.32,2.43-54.45,7.12Z"/>
            <path class="cls-25" d="M8.45,25.67c8.85-.66,17.71-.81,26.58-.74,4.46.04,8.91.21,13.37.29,4.37.08,8.79-.24,13.14-.01,8.88.47,17.86-1.44,26.66-2.47.52-.06,1.05-.12,1.57-.18-1.6,0-3.2,0-4.8,0-7.76,1.05-15.63,2.47-23.43,2.05-4.35-.23-8.78.09-13.14.01-4.46-.08-8.91-.25-13.37-.29-7.25-.06-14.48.03-21.71.43-.12.02-.25.04-.37.05-2.99.4-5.97.81-8.96,1.24,1.49-.14,2.97-.27,4.46-.39Z"/>
            <path class="cls-12" d="M150.66,12.38c-2.62.09-5.25.21-7.87.37-3.6.39-7.08,1-10.49,2.41-4.53,1.88-9.73,2.82-14.72,2.26-3.09-.35-6.2-.42-9.31-.53-.86.16-1.73.32-2.59.49,3.96.2,7.95.2,11.89.64,4.99.56,10.19-.38,14.72-2.26,4.6-1.91,9.35-2.36,14.33-2.76,1.34-.11,2.69-.2,4.03-.29v-.33Z"/>
          </g>
          <g class="cls-46">
            <path class="cls-57" d="M.4,15.53c-.1-.09-.19-.17-.26-.24.01,1.28.14,2.53.48,3.72.82-1.82,1.38-2.09-.21-3.48Z"/>
            <path class="cls-59" d="M146.82,100.56c1.37,0,2.78-.78,3.36-2.05.15-.33.33-3.32.26-3.34-.63-.17-1.28-.38-1.84-.62,3.35-.04,2.06-5.22,2.06-7.48,0-1.67,1.1-9.85-.89-10.45.5-.52.95-1.11,1.31-1.73-.49-.56-1.22-.9-1.95-1.01,2.1-1.26,1.57-2.77,1.54-4.88-.04-2.13-.16-4.03-.06-6.17.07-1.6.1-3.66-1.81-4.16.71-.25,1.42-.53,2.01-.96-.56-.37-1.21-.58-1.87-.61,2.6-1.76,1.73-4.64,1.73-7.56v-11.03c0-2.75.03-5.5,0-8.26-.01-1.31-.32-2.46-.44-3.72-.1-1.11.45-2.72-.15-3.73-.46-.79-1.42-.52-2.26-1.01,1.91-.77,2.42-.12,2.86-2.26.16-.76.19-1.61.17-2.47-1.06.9-2.17,1.75-3.22,2.77-1,.98-1.62,1.9-2.85,2.6-1.19.68-2.63.8-3.7,1.67,1.08,2,9.07,3.33,8.82,6.12-.34,3.82-14.59,3.27-17.09,2.65,2.25.56,8.68,1.22,9.91,3.43,1.56,2.82-6.01,2.47-7.46,2.51-5.96.17-11.96.07-17.89-.58-5.02-.55-10.19-1.55-15.25-1.56,6.22,1.77,12.95,3.48,19.34,4.4,1.77.25,9.72.6,10.52,2.94.63,1.85-2.17,1.38-3.09,2.08,1.41.26,7.17,1.19,6.09,3.21-1.05,1.95-6.21,1.18-7.96,1.85,1.61.74,4.31.11,5.52,1.3-3.95,2.12-8.72,2.19-13.01,2.36,2.14.41,4.26.9,6.39,1.36,3.41.73,8.81.58,11.41,3.28-1.37,1.23-4.32.79-6.02.78-4.6-.03-9.21-.39-13.8-.6-6.13-.29-12.33.02-18.48.02,4.08.65,8.32,1.07,12.45,1.47,7.22.7,14.19,1.64,21.43,2.39,2.54.26,8,.05,6.36,3.89-1.29,3.02-4.95,5.05-8.06,5.56-7.06,1.15-14.1,1.22-21.17,1.92,1.46.47,3.28.32,4.81.49,2.3.25,7.43-.06,9.02,1.61-.79-.83-8.4.61-9.77.7-3.26.21-6.52.38-9.78.45-6.14.12-12.42-.61-18.64-.56,1.3-1.18,5.93-2.16,7.86-2.09-4.01-.1-7.94.76-11.92,1.12-3.58.32-7.59,1.32-11.16.96,3.07-2.11,7.33-2.93,10.89-3.76,4.32-1.01,8.89-1.39,13.26-2.27,1.64-.33,3.65-.52,5.1-1.28-2.83.98-6.81.56-9.82.78-6.07.44-12.17.5-18.25.31-5.7-.18-11.37.46-17.11.18-3.64-.18-9.18.97-12.45-.82,5.41-1.37,11.16-1.66,16.68-2.47,2.84-.42,5.86-1.25,8.74-1.25-10.23,0-20.41,1.03-30.66.41-4.67-.29-11.82.26-14.62-4.31-1.91-3.12-.5-4.84,2.08-6.72-3.39-1.94-8.54-.99-12.28-1.96,2-2.04,7.43-1.93,10.12-2.37,4.62-.77,9.22-1.29,13.89-1.64,2.7-.2,5.94.15,8.55-.54-2.22.6-5.14.27-7.45.36-2.99.12-6.03.02-9.03,0-2.99-.03-6.09.34-9.04-.27-1.82-.37-2.48-1.33-3.94-2.26-1.9-1.2-4.17-1.63-6.02-3.02-.95-.71-2.37-1.63-3.08-2.75-.24-.38-.4-.78-.44-1.21-.18-2.14,2.1-2.66,3.47-3.8-.44-1.71-2.97-2.88-4.18-4.07C2.81,30.8.91,28.21.05,25.42c0-.03-.01-.05-.02-.08.04.97.12,1.93.12,2.76,0,2.91.18,5.82.15,8.72-.03,2.68.13,5.43-.05,8.11-.16,2.26-.5,3.31,2.03,3.91-1.23.45-2.97,1.82-.35,1.96-.4.44-.27.52-1.1.57-.56,1.79-1.45,7.13.72,7.73-1.6-.45-1.09,15.09-1.07,16.21.02,1.33-.1,16.45.34,16.49.59.05,1.11.33,1.64.41-2.65,1.08-1.83,1.75-1.83,4.48,0,2.12,1.72,3.84,3.84,3.84h142.35Z"/>
          </g>
          <g class="cls-50">
            <path class="cls-54" d="M146.82,3.11H4.47c-2.12,0-3.84,1.72-3.84,3.84,0,.43-.02.87-.04,1.31.01,0,.02,0,.03,0,0-.14,0-.29,0-.43,0-2.12,1.72-3.84,3.84-3.84h142.35c2.12,0,3.84,1.72,3.84,3.84v-.88c0-2.12-1.72-3.84-3.84-3.84Z"/>
            <path class="cls-54" d="M150.66,14c0,1.21.15,2.6.18,3.94.04-1.59-.18-3.34-.18-4.81v.88Z"/>
          </g>
          <g>
            <g>
              <path class="cls-24" d="M12.07,28.7h33.51c1.92,0,3.47,1.56,3.47,3.47v58c0,1.92-1.56,3.47-3.47,3.47H12.07c-1.92,0-3.47-1.56-3.47-3.47v-58c0-1.92,1.56-3.47,3.47-3.47Z"/>
              <path class="cls-24" d="M45.58,28.7H12.07c-1.91,0-3.47,1.56-3.47,3.47v58c0,1.91,1.56,3.47,3.47,3.47h33.51c1.91,0,3.47-1.56,3.47-3.47v-58c0-1.91-1.56-3.47-3.47-3.47ZM46.25,86.42c0,1.68-1.38,3.06-3.07,3.06H14.47c-1.69,0-3.07-1.38-3.07-3.06v-52.68c0-1.68,1.38-3.06,3.07-3.06h28.7c1.69,0,3.07,1.38,3.07,3.06v52.68Z"/>
              <path class="cls-24" d="M45.58,28.7H12.07c-1.91,0-3.47,1.56-3.47,3.47v58c0,1.91,1.56,3.47,3.47,3.47h33.51c1.91,0,3.47-1.56,3.47-3.47v-58c0-1.91-1.56-3.47-3.47-3.47ZM48.23,89.67c0,1.85-1.52,3.37-3.37,3.37H12.79c-1.85,0-3.37-1.52-3.37-3.37v-57c0-1.85,1.52-3.37,3.37-3.37h32.07c1.85,0,3.37,1.52,3.37,3.37v57Z"/>
            </g>
            <g class="cls-49">
              <path class="cls-62" d="M45.58,93.64H12.07c-1.91,0-3.47-1.56-3.47-3.47v.6c0,1.91,1.56,3.47,3.47,3.47h33.51c1.91,0,3.47-1.56,3.47-3.47v-.6c0,1.91-1.56,3.47-3.47,3.47Z"/>
            </g>
          </g>
          <g>
            <g>
              <path class="cls-24" d="M59.24,28.7h33.51c1.92,0,3.47,1.56,3.47,3.47v58c0,1.92-1.56,3.47-3.47,3.47h-33.51c-1.92,0-3.47-1.56-3.47-3.47v-58c0-1.92,1.56-3.47,3.47-3.47Z"/>
              <path class="cls-24" d="M92.75,28.7h-33.51c-1.91,0-3.47,1.56-3.47,3.47v58c0,1.91,1.56,3.47,3.47,3.47h33.51c1.91,0,3.47-1.56,3.47-3.47v-58c0-1.91-1.56-3.47-3.47-3.47ZM93.42,86.42c0,1.68-1.38,3.06-3.07,3.06h-28.7c-1.69,0-3.07-1.38-3.07-3.06v-52.68c0-1.68,1.38-3.06,3.07-3.06h28.7c1.69,0,3.07,1.38,3.07,3.06v52.68Z"/>
              <path class="cls-24" d="M92.75,28.7h-33.51c-1.91,0-3.47,1.56-3.47,3.47v58c0,1.91,1.56,3.47,3.47,3.47h33.51c1.91,0,3.47-1.56,3.47-3.47v-58c0-1.91-1.56-3.47-3.47-3.47ZM95.4,89.67c0,1.85-1.52,3.37-3.37,3.37h-32.08c-1.85,0-3.37-1.52-3.37-3.37v-57c0-1.85,1.52-3.37,3.37-3.37h32.08c1.85,0,3.37,1.52,3.37,3.37v57Z"/>
            </g>
            <g class="cls-49">
              <path class="cls-58" d="M92.75,93.64h-33.51c-1.91,0-3.47-1.56-3.47-3.47v.6c0,1.91,1.56,3.47,3.47,3.47h33.51c1.91,0,3.47-1.56,3.47-3.47v-.6c0,1.91-1.56,3.47-3.47,3.47Z"/>
            </g>
          </g>
          <g>
            <g>
              <path class="cls-24" d="M106.38,28.7h33.51c1.92,0,3.47,1.56,3.47,3.47v58c0,1.92-1.56,3.47-3.47,3.47h-33.51c-1.92,0-3.47-1.56-3.47-3.47v-58c0-1.92,1.56-3.47,3.47-3.47Z"/>
              <path class="cls-24" d="M139.89,28.7h-33.51c-1.91,0-3.47,1.56-3.47,3.47v58c0,1.91,1.56,3.47,3.47,3.47h33.51c1.91,0,3.47-1.56,3.47-3.47v-58c0-1.91-1.56-3.47-3.47-3.47ZM140.56,86.42c0,1.68-1.38,3.06-3.07,3.06h-28.7c-1.69,0-3.07-1.38-3.07-3.06v-52.68c0-1.68,1.38-3.06,3.07-3.06h28.7c1.69,0,3.07,1.38,3.07,3.06v52.68Z"/>
              <path class="cls-24" d="M139.89,28.7h-33.51c-1.91,0-3.47,1.56-3.47,3.47v58c0,1.91,1.56,3.47,3.47,3.47h33.51c1.91,0,3.47-1.56,3.47-3.47v-58c0-1.91-1.56-3.47-3.47-3.47ZM142.54,89.67c0,1.85-1.52,3.37-3.37,3.37h-32.07c-1.85,0-3.37-1.52-3.37-3.37v-57c0-1.85,1.52-3.37,3.37-3.37h32.07c1.85,0,3.37,1.52,3.37,3.37v57Z"/>
            </g>
            <g class="cls-49">
              <path class="cls-51" d="M139.89,93.64h-33.51c-1.91,0-3.47-1.56-3.47-3.47v.6c0,1.91,1.56,3.47,3.47,3.47h33.51c1.91,0,3.47-1.56,3.47-3.47v-.6c0,1.91-1.56,3.47-3.47,3.47Z"/>
            </g>
          </g>
          <polygon class="cls-52" points="56.59 83.26 55.77 82.33 52.48 82.8 55.77 83.26 56.59 83.26"/>
          <polygon class="cls-52" points="142.54 70.87 143.36 70.21 146.32 70.87 143.36 71.37 142.54 70.87"/>
          <polygon class="cls-52" points="9.42 54.56 8.51 53.86 3.02 54.73 9.42 54.56"/>
          <path class="cls-11" d="M131.32,11.28c0-.08,0-.17-.02-.25,0-.02,0-.03,0-.05,0,0,0-.01,0-.02-.02-.1-.04-.21-.07-.31,0-.01,0-.03,0-.04,0-.01,0-.02-.01-.03-.03-.1-.07-.2-.12-.3,0-.02-.02-.03-.03-.05-.05-.1-.11-.21-.18-.3h0l-.65-.91-.24-.34h0l-1.12-1.58-1.5-2.11h0l-1.33-1.87h0l-.19-.26c-.47-.66-1.23-1.05-2.04-1.05H29.56c-.11,0-.21,0-.3.02-.75.08-1.23.46-1.57,1.12-.16.23-.35.51-.4.79-.2.35-.1.78,0,1.17-.02,0-.03,0-.05.01-.21.04-.41.1-.62.17-.23.08-.58.35-.89.7-.09.05-.16.1-.19.15-.07.11-.14.22-.2.33-.26.38-.43.78-.37,1.08,0,.08-.01.15-.01.23,0,.19.11.45.13.67-.43.04-.86.11-1.2.37-.43.33-.69.95-.97,1.4h0c-.09.14-.15.28-.21.43-.06.09-.12.18-.18.27-.52.78-.13,4.43.39,5.21l4.01,6.74c.46.68,1.77,1.1,2.62,1.1h45.05c2.03,0,19.54.28,21.51-.17.13-.03.25-.06.38-.08.76-.14,1.41-.23,2.17-.05,2.15.51,4.58.3,6.78.3h18.33c.81,0,2.13-.37,2.6-1l4.46-6.74c.52-.7.69-3.33.45-4.74Z"/>
          <g>
            <path class="cls-64" d="M122.58,21.96h-17.86c-2.14,0-4.51.21-6.61-.3-.75-.18-1.38-.1-2.12.05-.12.02-.25.06-.37.09-1.93.45-18.98.17-20.96.17H30.8c-.83,0-2.1-.41-2.55-1.1l-3.91-6.74c-.51-.78-.89-4.43-.38-5.21.54-.83.75-1.32,1.71-1.73.34-.15.66-.2.77-.54.07-.24-.12-.63-.12-.88,0-.62.26-1.14.57-1.65.2-.32,1.43-.47,1.81-.64-.11-.46-.4-1.12-.1-1.6.5-.81,2.24-.77,3-.77,3.82-.01,7.02,2.67,10.88,2.59,2.98-.07,6,.03,8.99.03h71.1c.79,0,3.78-.06,4.24.57l2.93,4.55c.44,1.03.31,4.54-.28,5.36l-4.35,6.74c-.45.63-1.74,1-2.53,1Z"/>
            <path class="cls-61" d="M122.58,19.1h-19.59c-2.18,0-4.33-.35-6.52-.36-.22,0-.43.03-.64.07-4.25.71-23.69.29-28.01.29H30.8c-.83,0-1.6-.43-2.05-1.15l-4.41-7.07c-.51-.81-.51-1.86,0-2.67.28-.45.53-1.07.95-1.4.5-.4,1.21-.35,1.82-.43,1.03-.14,2.12-.39,3.17-.32-.99-.38-2.24.08-3.3-.06-1.62-.21.24-2.45.98-2.73,1.45-.54,3.05-.17,4.55-.33-.99-.34-2.28-.07-3.32-.22-.96-.14-.53-.88-.26-1.47.37-.82.93-1.25,1.88-1.25h91.78c.79,0,1.53.39,1.99,1.05l4.89,7.07c.59.86.59,2.01,0,2.87-.81,1.17-1.2,1.77-2.69,1.98-1.59.23-3.28.25-4.84.66.99-.02,1.98.03,2.96,0,.87-.02,2.02-.29,2.83.13-.14.55-.97,1.14-1.44,1.39-1.08.59-2.79.54-4,.68.78-.01,2.93-.66,3.56-.04.36.35-.36.93-.64,1.34-.21.31-.42.61-.64.92-.46.66-1.2,1.05-1.99,1.05Z"/>
            <path class="cls-40" d="M27.2,4.2c.61-1.66,3.88-1.37,5.2-1.48-.32-.03-.97-.09-1.41-.11-.51-.02-1.76.24-2.21-.12-.52-.41.07-1.2.35-1.57.47-.61.88-.93,1.67-.93h22.01c-6.37,1.77-12.78,3.28-19.45,3.49-1.08.03-2.15.08-3.23.19-.92.09-2.03.56-2.93.52ZM26.67,6c1.2-.03,2.39-.03,3.59-.02,3.88.02,7.81.06,11.62-.85,3.12-.75,6.17-1.84,9.2-2.92-2.62.7-5.26,1.34-7.93,1.84-3.29.62-6.59.99-9.94,1.09-2.26.07-4.45.22-6.54.86ZM99.84,7.5c5.74.13,11.72-.43,17.35-1.41,3.14-.55,6.23-1.35,9.29-2.28l-1.72-2.49c-5.75.91-11.64.5-17.39,1.46-2.33.39-4.59,1.01-6.86,1.63-2.07.57-3.61,1.76-5.59,2.6.88.75,3.17.45,4.36.48.19,0,.39.01.58.02ZM128.59,6.87c-.43.08-.86.16-1.29.24-9.16,1.76-19.33,4.59-28.71,3.59-2.94-.31-20.71-1.08-23.65-1.35-4.01-.37-20.56.47-24.47.07.96-1.35,17.27-1.41,18.84-1.77,7.7-1.73,29.81-5.17,37.61-6.47,5.07-.84,10.27-.63,15.37-1.19h-23.28c-.23,0-.5.11-.72.16-5.98,1.33-39.06,3.44-44.87,5.38-5.71,1.91-11.47,3.97-17.56,3.86-3.96-.08-7.97-.68-11.91.11-.01.48.12.97.38,1.39l.49.79c1.59-.6,3.3-.77,5.07-.64,3.06.22,6.09.82,9.16,1.04,2.87.21,5.75.23,8.61-.05,2.98-.29,18.31-.53,21.31-.43,5.99.2,26.79,1.42,32.77,1.59,2.96.08,5.91-.05,8.85-.35,2.95-.29,5.87-.82,8.82-1.11,3.3-.33,6.62-.48,9.93-.58l.11-.16c.6-.86.6-2.01,0-2.87l-.86-1.25ZM120.33,15.92c-6.07.63-12.09-.15-18.14-.74-6.2-.61-27.33-1.42-33.56-1.58-5.61-.15-23.55,1.38-29.16,1.19-2.76-.1-5.37-.96-8.1-1.23-1.77-.17-3.5-.08-5.21.24l1.31,2.1c1.06-.37,2.13-.7,3.25-.81,2.09-.22,4.13.4,6.16.79,3.97.77,8.23-.2,12.21-.5,3.97-.3,20.29.04,24.21.75,4.47.8,23.76,2,28.2,2.96h21.07c.79,0,1.53-.39,1.99-1.05l2.1-3.03c-2.1.35-4.21.67-6.33.9Z"/>
            <g>
              <path class="cls-40" d="M100.49,4.4c-2.07.57-3.61,1.76-5.59,2.6.13.11.28.19.46.26.27.1,7.77-2.54,6.69-.5-.33.62-1.74,1.07-2.33,1.27-1,.35-2.19.15-3.13.51,2.32.52,5.14.41,7.54.39,4.21-.02,8.58-.58,12.66-1.65,2.11-.55,4.13-1.15,6.12-2.02.6-.26,1.45-.49,1.93-.94-2.44,1.31-5.92,1.23-8.61,1.2-.92-.01-3.21.15-3.97-.56-1.34-1.26,3.03-2.06,3.54-2.16,1.38-.28,2.69-.42,4.13-.51.52-.04,4.64-.75,4.8-.51l1.46,2.1c.09-.03.18-.05.27-.08l-1.72-2.49c-5.75.91-11.64.5-17.39,1.46-2.33.39-4.59,1.01-6.86,1.63Z"/>
              <path class="cls-40" d="M98.59,10.7c-2.94-.31-20.71-1.08-23.65-1.35-3.85-.36-20.24.41-24.02.11-.19.13-.34.27-.46.43.32-.45,19.3.21,19.99.51-.15.1-.38.51-.46.57,1.5.34,3.02.18,4.53.41,2.14.32,19.08,1.03,21.25,1.23,2.51.23,5.76.5,8.19-.07-1.78,0-3.53-.14-5.29-.41-1.38-.22-4.63-.21-5.64-1.35,1.74-.75,3.81.2,5.55.38,9.38,1,19.55-1.83,28.71-3.59.43-.08.86-.16,1.29-.24l.86,1.25c.25.36.4.78.43,1.2.05-.58-.09-1.17-.43-1.67l-.86-1.25c-.43.08-.86.16-1.29.24-9.16,1.76-19.33,4.59-28.71,3.59Z"/>
              <path class="cls-40" d="M120.33,16.38c2-.21,3.99-.51,5.97-.84l.36-.52c-2.1.35-4.21.67-6.33.9-6.07.63-12.09-.15-18.14-.74-6.2-.61-27.33-1.42-33.56-1.58-5.61-.15-23.55,1.38-29.16,1.19-2.76-.1-5.37-.96-8.1-1.23-1.77-.17-3.5-.08-5.21.24l.26.42c1.62-.28,3.27-.36,4.95-.2,2.73.27,5.35,1.13,8.1,1.23,2.91.1,5.81-.26,8.69-.61,2.29-.28,17.66-.81,19.85.26,1.25.61.27,1.31-.66,1.65-3.41,1.25-19.74.69-23.19,1.77,1.16.38,2.95.05,4.18.06,3.5,0,19.41-.08,22.91-.2,3.19-.11,21.28-.12,24.47-.15,1.47-.01,3,.19,4.45-.07-.58-.17-1.41-.19-2.07-.3-.74-.12-3.25-.13-3.61-.88-.58-1.18,3.86-1.07,4.38-1.1,3.56-.2,7.06.37,10.59.66,3.62.29,7.26.42,10.88.04Z"/>
              <path class="cls-40" d="M95.79.76c-5.1,1.31-37.36,3.1-42.36,4.77-5.71,1.91-11.47,3.97-17.56,3.86-3.96-.08-7.97-.68-11.91.11,0,.15,0,.31.03.46,2.33-.46,4.71-.43,7.07-.32.91.04,4.25-.17,4.86.69.36.51-.28.36-.54.74,1.45,1.35,4.67,1.21,6.5,1.21,2.54,0,5.06-.4,7.55-.88-1.68-.43-4.35.45-5.68-1.03.62-.75,2.25-.98,3.13-1.37,1.05-.46,2.12-.76,3.18-1.2.73-.3,1.76-.79,2.58-.66.94.15.73.61.01,1.07.42-.14.96-.05,1.42-.07,1.02-.05,14.43-.32,15.43-.53,2.02-.44,4.1-.93,6.08-1.57,2.36-.76,19.58-1.61,21.93-2.4,2.04-.69,4.65-1.91,6.8-2-.75-.05-1.55.25-2.29.39-1.65.32-3.26.78-4.88,1.2-2.52.64-20,1.26-22.44,2.14-.54.2-2.06.84-2.58.3-1.18-1.21,19.61-3.19,20.19-3.47,1.12-.55,2.28-1.02,3.46-1.43Z"/>
              <path class="cls-40" d="M28.78,5.97c1.44-.24,2.92-.32,4.43-.37.59-.02,3.62-.45,3.3.84-.2.8-2.42,1.39-3.05,1.7,1.43.36,3.38-.08,4.82-.27,2.5-.33,4.83-1.05,7.28-1.57-1.41.38-3.1.59-4.54.3-1.73-.35.08-1.2.81-1.48,1.48-.59,3.02-.78,4.51-1.27,1.59-.52,3.17-1.08,4.74-1.65-2.62.7-5.26,1.34-7.93,1.84-3.29.62-6.59.99-9.94,1.09-2.26.07-4.45.22-6.54.86.7-.02,1.41-.02,2.11-.03Z"/>
            </g>
            <path class="cls-15" d="M129.46,8.12l-3.42-4.94c-.24,1.38-.98,2.59-1.93,3.61-1.67,1.79-3.86,2.9-6.11,3.77,1.24.42,2.18,1.25,1.96,2.78-.4,2.77-3.76,3.95-6.08,4.25-1.97.25-5.04.25-6.53-1.35-.68-.73-.73-1.83-.39-2.78-4.02.67-8.11,1.04-12.13,1.37-7.33.6-41.96.55-49.29.06-3.38-.23-6.76-.54-10.11-1.06-2.57-.4-5.28-1.08-7.29-2.86-.73-.64-1.45-1.54-1.74-2.49-.09-.3-.52-1.98.09-1.94-1.14-.07-1.6.83-2.14,1.69-.51.81-.51,1.86,0,2.67l4.41,7.07c.45.72,1.22,1.15,2.05,1.15h44.21c1.14,0,17.17-.06,18.3,0,1.11.05,2.1-.39,3.18-.42.33,0,.71.1,1.04.14,3.54.41,7.2.21,10.76.24,3.79.03,7.57.05,11.36.05h2.93c.89,0,1.58-.47,2.03-1.21.3-.5,1.11-1.53.47-2.04-.33-.27-.99-.22-1.41-.22,1.08-.33,3.18-.54,3.89-1.52-.75-.41-1.95-.3-2.77-.37-1.02-.09-2.05-.06-3.06-.13,1.32-.34,2.92-.32,4.31-.55.75-.13,1.61-.14,2.29-.53.61-.35.74-.98,1.13-1.54.59-.86.59-2.01,0-2.87ZM126.19,10.87c-.35.52-.8,1.13-1.34,1.45-.5.3-1.16.41-1.72.47-.65.07-2.2-.2-2.38-1.03-.15-.67.76-1.33,1.21-1.68.7-.53,1.33-1.15,2.09-1.59.92-.53,2.42-1.22,2.75.31.15.72-.22,1.48-.61,2.06Z"/>
          </g>
        </g>
      </g>
    </g>
  </g>
</svg>