<?xml version="1.0" encoding="UTF-8"?>
<svg xmlns="http://www.w3.org/2000/svg" xmlns:xlink="http://www.w3.org/1999/xlink" viewBox="0 0 33.89 36.32">
  <defs>
    <style>
      .cls-1 {
        fill: url(#_Áåçûìÿííûé_ãðàäèåíò_27-7);
      }

      .cls-1, .cls-2, .cls-3, .cls-4, .cls-5, .cls-6, .cls-7, .cls-8, .cls-9, .cls-10 {
        mix-blend-mode: multiply;
      }

      .cls-1, .cls-4, .cls-5 {
        opacity: .23;
      }

      .cls-11 {
        fill: url(#_Áåçûìÿííûé_ãðàäèåíò_148-5);
      }

      .cls-12 {
        fill: url(#_Áåçûìÿííûé_ãðàäèåíò_148-3);
      }

      .cls-13 {
        opacity: .68;
      }

      .cls-13, .cls-14 {
        mix-blend-mode: screen;
      }

      .cls-2 {
        fill: url(#_Áåçûìÿííûé_ãðàäèåíò_27-3);
      }

      .cls-2, .cls-3, .cls-7, .cls-8, .cls-10 {
        opacity: .33;
      }

      .cls-3 {
        fill: url(#_Áåçûìÿííûé_ãðàäèåíò_27-2);
      }

      .cls-4 {
        fill: url(#_Áåçûìÿííûé_ãðàäèåíò_27-8);
      }

      .cls-5 {
        fill: url(#_Áåçûìÿííûé_ãðàäèåíò_27-6);
      }

      .cls-6 {
        opacity: .46;
      }

      .cls-15 {
        fill: url(#_Áåçûìÿííûé_ãðàäèåíò_148);
      }

      .cls-16 {
        isolation: isolate;
      }

      .cls-17 {
        fill: url(#_Áåçûìÿííûé_ãðàäèåíò_148-8);
      }

      .cls-14 {
        opacity: .71;
      }

      .cls-7 {
        fill: url(#_Áåçûìÿííûé_ãðàäèåíò_27);
      }

      .cls-18 {
        fill: url(#_Áåçûìÿííûé_ãðàäèåíò_148-4);
      }

      .cls-8 {
        fill: url(#_Áåçûìÿííûé_ãðàäèåíò_27-5);
      }

      .cls-19 {
        fill: url(#_Áåçûìÿííûé_ãðàäèåíò_148-7);
      }

      .cls-20 {
        fill: #7a2900;
      }

      .cls-21 {
        fill: url(#_Áåçûìÿííûé_ãðàäèåíò_148-10);
      }

      .cls-22 {
        fill: url(#_Áåçûìÿííûé_ãðàäèåíò_148-11);
      }

      .cls-9 {
        fill: #864300;
        opacity: .49;
      }

      .cls-23 {
        fill: url(#_Áåçûìÿííûé_ãðàäèåíò_148-6);
      }

      .cls-24 {
        fill: url(#_Áåçûìÿííûé_ãðàäèåíò_148-9);
      }

      .cls-10 {
        fill: url(#_Áåçûìÿííûé_ãðàäèåíò_27-4);
      }

      .cls-25 {
        fill: url(#_Áåçûìÿííûé_ãðàäèåíò_148-2);
      }
    </style>
    <linearGradient id="_Áåçûìÿííûé_ãðàäèåíò_148" data-name="Áåçûìÿííûé ãðàäèåíò 148" x1="19.43" y1="32.93" x2="14.8" y2="-4.39" gradientUnits="userSpaceOnUse">
      <stop offset="0" stop-color="#b44d2f"/>
      <stop offset=".18" stop-color="#c15b28"/>
      <stop offset=".72" stop-color="#e68219"/>
      <stop offset="1" stop-color="#f59113"/>
    </linearGradient>
    <linearGradient id="_Áåçûìÿííûé_ãðàäèåíò_27" data-name="Áåçûìÿííûé ãðàäèåíò 27" x1="25.01" y1="35.66" x2="16.87" y2="4.14" gradientUnits="userSpaceOnUse">
      <stop offset="0" stop-color="#b44320"/>
      <stop offset="1" stop-color="#ff9215"/>
    </linearGradient>
    <linearGradient id="_Áåçûìÿííûé_ãðàäèåíò_27-2" data-name="Áåçûìÿííûé ãðàäèåíò 27" x1="22.29" y1="36.66" x2="14.07" y2="4.82" xlink:href="#_Áåçûìÿííûé_ãðàäèåíò_27"/>
    <linearGradient id="_Áåçûìÿííûé_ãðàäèåíò_27-3" data-name="Áåçûìÿííûé ãðàäèåíò 27" x1="19.76" y1="37.02" x2="11.62" y2="5.49" xlink:href="#_Áåçûìÿííûé_ãðàäèåíò_27"/>
    <linearGradient id="_Áåçûìÿííûé_ãðàäèåíò_27-4" data-name="Áåçûìÿííûé ãðàäèåíò 27" x1="21.06" y1="38.11" x2="12.33" y2="4.34" xlink:href="#_Áåçûìÿííûé_ãðàäèåíò_27"/>
    <linearGradient id="_Áåçûìÿííûé_ãðàäèåíò_27-5" data-name="Áåçûìÿííûé ãðàäèåíò 27" x1="32.77" y1="33.66" x2="24.63" y2="2.13" xlink:href="#_Áåçûìÿííûé_ãðàäèåíò_27"/>
    <linearGradient id="_Áåçûìÿííûé_ãðàäèåíò_148-2" data-name="Áåçûìÿííûé ãðàäèåíò 148" x1="32.91" y1="40.19" x2="32.91" y2="7.13" xlink:href="#_Áåçûìÿííûé_ãðàäèåíò_148"/>
    <linearGradient id="_Áåçûìÿííûé_ãðàäèåíò_148-3" data-name="Áåçûìÿííûé ãðàäèåíò 148" x1="17.05" y1="40.19" x2="17.05" y2="7.13" xlink:href="#_Áåçûìÿííûé_ãðàäèåíò_148"/>
    <linearGradient id="_Áåçûìÿííûé_ãðàäèåíò_148-4" data-name="Áåçûìÿííûé ãðàäèåíò 148" x1="32.08" y1="40.18" x2="32.08" y2="7.13" xlink:href="#_Áåçûìÿííûé_ãðàäèåíò_148"/>
    <linearGradient id="_Áåçûìÿííûé_ãðàäèåíò_148-5" data-name="Áåçûìÿííûé ãðàäèåíò 148" x1="1.69" y1="40.19" x2="1.69" y2="7.13" xlink:href="#_Áåçûìÿííûé_ãðàäèåíò_148"/>
    <linearGradient id="_Áåçûìÿííûé_ãðàäèåíò_27-6" data-name="Áåçûìÿííûé ãðàäèåíò 27" x1="22.68" y1="36.26" x2="14.54" y2="4.74" xlink:href="#_Áåçûìÿííûé_ãðàäèåíò_27"/>
    <linearGradient id="_Áåçûìÿííûé_ãðàäèåíò_27-7" data-name="Áåçûìÿííûé ãðàäèåíò 27" x1="27.45" y1="11.13" x2="25.55" y2="3.76" xlink:href="#_Áåçûìÿííûé_ãðàäèåíò_27"/>
    <linearGradient id="_Áåçûìÿííûé_ãðàäèåíò_27-8" data-name="Áåçûìÿííûé ãðàäèåíò 27" x1="23.01" y1="14.22" x2="22.6" y2="12.64" xlink:href="#_Áåçûìÿííûé_ãðàäèåíò_27"/>
    <linearGradient id="_Áåçûìÿííûé_ãðàäèåíò_148-6" data-name="Áåçûìÿííûé ãðàäèåíò 148" x1="22.97" y1="44.35" x2="25.42" y2="16.79" xlink:href="#_Áåçûìÿííûé_ãðàäèåíò_148"/>
    <linearGradient id="_Áåçûìÿííûé_ãðàäèåíò_148-7" data-name="Áåçûìÿííûé ãðàäèåíò 148" x1="14.83" y1="43.62" x2="17.27" y2="16.07" xlink:href="#_Áåçûìÿííûé_ãðàäèåíò_148"/>
    <linearGradient id="_Áåçûìÿííûé_ãðàäèåíò_148-8" data-name="Áåçûìÿííûé ãðàäèåíò 148" x1="5.83" y1="42.82" x2="8.27" y2="15.27" xlink:href="#_Áåçûìÿííûé_ãðàäèåíò_148"/>
    <linearGradient id="_Áåçûìÿííûé_ãðàäèåíò_148-9" data-name="Áåçûìÿííûé ãðàäèåíò 148" x1="24.42" y1="44.48" x2="26.86" y2="16.92" xlink:href="#_Áåçûìÿííûé_ãðàäèåíò_148"/>
    <linearGradient id="_Áåçûìÿííûé_ãðàäèåíò_148-10" data-name="Áåçûìÿííûé ãðàäèåíò 148" x1="15.4" y1="43.68" x2="17.85" y2="16.12" xlink:href="#_Áåçûìÿííûé_ãðàäèåíò_148"/>
    <linearGradient id="_Áåçûìÿííûé_ãðàäèåíò_148-11" data-name="Áåçûìÿííûé ãðàäèåíò 148" x1="5.81" y1="42.83" x2="8.26" y2="15.27" xlink:href="#_Áåçûìÿííûé_ãðàäèåíò_148"/>
  </defs>
  <g class="cls-16">
    <g id="Layer_2" data-name="Layer 2">
      <g id="Layer_1-2" data-name="Layer 1">
        <g>
          <g>
            <path class="cls-20" d="M32.96,3.64c-.8-.34-1.99-.32-2.62-.41-5.04-.71-21.95-.17-23.24-.14-2.43.06-6.57-.39-6.74,2.91-.11,2.1-.22,3.84,1.58,5.23.66.51,1.4.91,2.12,1.31-1.54,1.17-3.47,1.79-3.79,3.81-.56,3.48-.09,6.88.07,10.37.08,1.67.26,3.38.69,5,.35,1.34.62,2.75,1.91,3.44,1.12.6,2.51.66,3.74.83,3.68.52,23.66.4,24.74-.27,1.99-1.24,2.04-4.64,2.04-6.71-.01-5.3.37-9.53.42-14.81.01-1.23.03-2.65-.89-3.58-.59-.59-2.94-1.23-1.71-2.41.66-.63,2.1-.5,2.37-1.55.13-.49.16-1.08.14-1.6,0-.25-.03-.6-.14-.83-.13-.27-.38-.46-.69-.59Z"/>
            <path class="cls-15" d="M32.91.88c-.46-.33-2.04-.44-2.58-.51C25.29-.35,8.38.2,7.1.23c-2.77.06-5.7.01-6.62,3.02-.46,1.51-.2,3.46-.03,5.04.24,2.19,1.62,2.19,3.56,2.04-.78.06-2.3.36-2.92.85-.74.57-.69,1.44-.83,2.3-.56,3.48-.09,6.88.07,10.37.08,1.67.26,3.38.69,5.01.35,1.34.62,2.75,1.91,3.44,1.12.6,2.51.66,3.74.83,3.68.52,23.66.4,24.74-.27.84-.52,2.16-2.66,1.26-3.55-.33-.33-1.11-.02-1.58-.24,1.91-.18,2.37-1.31,2.36-2.91-.01-5.3.37-9.53.42-14.81.02-2.04-.11-3.66-2.17-4.47.62-.08,1.42-.47,1.98-.65.35-1.18.26-4.58-.78-5.34Z"/>
            <g class="cls-6">
              <path class="cls-7" d="M32.91.88c-.46-.33-2.04-.44-2.58-.51C27.99.03,23.06-.03,18.34,0,12.39,1.44,6.47,3.05.36,3.72c-.2.96-.16,2.06-.06,3.1,2.73-.33,5.47-.17,8.24-.07,3.34.12,6.59-.31,9.89-.76,5.14-.71,10.28-1.44,15.45-1.4.01-1.43-.25-3.18-.97-3.7Z"/>
              <path class="cls-3" d="M20.48,18.66c-.19.09-.4.17-.64.24-1.75.55-2.97.48-4.68-.24-5.37-2.27,4.55-3.3,2.5-.77.53-.08.96-.56,1.23-1.07-1.22-1.93-5.94-1.9-7.36-.21-1.42,1.69,1.07,3.54,2.5,4.3,3.21,1.69,6.19-.53,8.94-2.05,1.63-.9,2.67-1.07,4.46-1.14.52-.02,6.28-.58,6.28-.6.05-1.17.09-2.35.13-3.58,0-.28-7.97.93-8.99.83-3.49-.33-6.77-2.24-10.01-3.42-2.34-.85-4.57.22-6.79.89-2.18.66-4.25.39-6.5.55-.43.03-.79-.07-1.06-.25-.12.42-.14.89-.22,1.35C0,15.08-.03,16.67.02,18.26c2.02.06,4.5.58,6.44-.09,1.89-.65,3.27-2.3,4.86-3.44,1.22-.87,2.21-1.47,3.44-1.33,1.84.2,3.99,1.48,5.49,2.5,1.65,1.13,1.65,2.1.23,2.74Z"/>
              <path class="cls-2" d="M1.07,29.01c2.43.56,4.83,1.26,7.28,1.74,3.08.6,6.23.56,9.35.68,4.69.19,9.38.49,14.02,1.2.81-.75,1.77-2.53.97-3.32-.33-.33-1.11-.02-1.58-.24,1.91-.18,2.37-1.31,2.36-2.91,0-.16,0-.32,0-.48-5.49,1.55-11.02,2.9-16.77,3.16-4.32.19-8.63-.09-12.9-.71-1.02-.15-2.03-.34-3.04-.54.08.43.17.86.28,1.29.01.05.03.1.04.16Z"/>
              <path class="cls-10" d="M3.34,24.32c3.64.61,7.29,1.06,10.93,1.69,3.17.55,6.88-.06,9.86-1.27,3.05-1.24,6.2-2.01,9.4-2.94.01-.38.02-.75.04-1.12-4.65.31-9.32,1.18-13.93,1.3-6.47.17-12.94.18-19.41,0,.04.59.08,1.18.1,1.77,1,.2,2,.4,3.01.57Z"/>
              <path class="cls-8" d="M20.72,9.76c4.35.51,8.74.39,13.11.05-.06-.57-.18-1.08-.42-1.53-4.73,0-9.44.65-14.15,1.29.48.07.97.13,1.46.19Z"/>
            </g>
            <g class="cls-14">
              <path class="cls-25" d="M32.87,7.61c-.27-.25-.59-.46-.94-.71.2.93.94,1.55,1.41,2.33.42.7.54,1.59.53,2.39,0-.1,0-.19,0-.28,0-.87.02-1.8-.28-2.63-.18-.49-.42-.82-.73-1.1Z"/>
              <path class="cls-12" d="M32.91.88c-.46-.33-2.04-.44-2.58-.51C25.29-.35,8.38.2,7.1.23c-2.77.06-5.7.01-6.62,3.02-.24.79-.28,1.7-.25,2.61.03-.54.1-1.06.25-1.54.6-1.97,2.07-2.63,3.79-2.87,1.04-.39,2.18-.58,3.2-.68,1.8-.17,3.85-.12,5.65.38,1.35-.03,2.83-.05,4.35-.06.08-.04.17-.07.26-.1,1.8-.53,3.62-.26,5.44-.07.24.03.48.08.69.17.82.01,1.61.03,2.36.06.13-.07.26-.13.41-.16.92-.21,1.89-.28,2.81,0,.3.09.55.24.76.43.04,0,.09.01.13.02.54.08,2.12.18,2.58.51.61.44.89,1.78.95,3.06.08-1.49-.17-3.56-.95-4.13Z"/>
              <path class="cls-18" d="M31.19,29.15c.46-.02.83.25,1.11.6.08.11.63.83.59.96.36-1.3-.52-1.83-1.7-1.56Z"/>
              <path class="cls-11" d="M.27,14.55c.16-.98.26-1.53.88-2.31.59-.75,1.35-1.43,2.23-1.83-.83.05-1.74.31-2.37.89-.63.57-.61,1.38-.74,2.18C.04,14.89-.02,16.29,0,17.68c.02-1.04.09-2.08.26-3.13Z"/>
            </g>
            <path class="cls-5" d="M31.72,6.87c.62-.08,1.42-.47,1.98-.65.35-1.18.26-4.58-.78-5.34-.46-.33-2.01-.43-2.56-.51,1.35,2.01,1.43,4.58.39,7.06-2.75,6.49-9.6,11.46-16.12,13.57-3.9,1.26-8.54,1.53-12.25-.49-.88-.48-1.66-1.09-2.33-1.81.07,1.71.22,3.42.31,5.14.08,1.67.26,3.38.69,5.01.35,1.34.62,2.75,1.91,3.44,1.12.6,2.51.66,3.74.83,3.68.52,23.66.4,24.74-.27.84-.52,2.16-2.66,1.26-3.55-.33-.33-1.11-.02-1.58-.24,1.91-.18,2.37-1.31,2.36-2.91-.01-5.3.37-9.53.42-14.81.02-2.04-.11-3.66-2.17-4.47ZM16.59,30.52c-.74,1.68-4.78,1.98-4.95-.24-.16-2.07,4.29-2.74,4.97-.87.15.42.13.79-.01,1.11ZM30.11,25.62c-.23.82-1.08,1.63-1.73,2.13,3.8,3.55-11.75,5.9-9.3,1.29.9-1.7,3.47-3.33,5.14-4.22,1.31-.7,5.12-2.41,5.9.01.08.26.07.52,0,.79Z"/>
            <path class="cls-1" d="M28.23,3.92c-1.17-.97-2.74-.3-3.4.9-.49.88-.64,1.92-.58,2.96-.22,1.19-.17,2.42.15,3.3.11.31.45.47.75.52,1.57.25,2.95-2.21,3.44-3.41.52-1.27.85-3.27-.35-4.27Z"/>
            <path class="cls-4" d="M23.57,12.76c-.15-.17-.35-.23-.57-.21-.33.03-.55.22-.76.47-.15.18-.28.41-.32.64-.01.08,0,.16.03.23,0,0,0,0,0,0-.04.21.17.44.37.45.58.03,1.21-.41,1.35-.98.05-.22.05-.43-.11-.61Z"/>
          </g>
          <g>
            <path class="cls-20" d="M27.39,14.56c-.46-.05-.98-.1-1.54-.14-.17-.58-.39-1.15-.68-1.68.42-.46.81-.9,1.19-1.33.16-.18.15-.53-.04-.76-.82-.99-1.77-1.95-2.76-2.76-.11-.09-.25-.15-.4-.15h0c-.15,0-.27.03-.36.11-.45.4-.92.82-1.41,1.26-.51-.24-1.04-.44-1.59-.59-.04-.63-.09-1.2-.15-1.7-.02-.2-.29-.36-.58-.36h-3.77c-.29,0-.56.16-.58.36-.06.5-.1,1.07-.15,1.7-.55.15-1.09.34-1.59.59-.49-.44-.96-.86-1.41-1.26-.09-.08-.22-.12-.36-.11h0c-.14,0-.29.06-.4.15-.99.82-1.95,1.77-2.76,2.76-.19.23-.2.58-.04.76.38.43.77.87,1.19,1.33-.28.53-.51,1.1-.68,1.68-.57.04-1.09.09-1.54.14-.2.02-.36.29-.36.58v3.77c0,.29.16.56.36.58.42.05.89.09,1.41.13.15.65.37,1.28.65,1.87-.36.4-.7.78-1.03,1.15-.16.18-.15.53.04.76.82.99,1.77,1.95,2.76,2.76.11.09.25.15.4.15.15,0,.27-.03.36-.11.35-.31.7-.63,1.07-.96.62.32,1.28.57,1.96.75.04.45.07.87.11,1.24.02.2.29.36.58.36h3.77c.29,0,.56-.16.58-.36.04-.38.08-.79.11-1.24.68-.17,1.34-.42,1.96-.75.37.33.72.65,1.07.96.09.08.22.12.36.11s.29-.06.4-.15c.99-.82,1.95-1.77,2.76-2.76.19-.23.2-.58.04-.77-.33-.37-.67-.75-1.03-1.15.28-.6.5-1.22.65-1.87.51-.04.99-.08,1.41-.13.2-.02.36-.29.36-.58v-3.77c0-.29-.16-.56-.36-.58ZM17.18,20.97c-2.16,0-3.9-1.75-3.9-3.9s1.75-3.9,3.9-3.9,3.9,1.75,3.9,3.9-1.75,3.9-3.9,3.9Z"/>
            <path class="cls-9" d="M26.49,14.77c-.42-.05-.89-.09-1.41-.12-.16-.53-.36-1.05-.62-1.53.38-.42.74-.82,1.09-1.21.15-.17.14-.49-.04-.7-.75-.91-1.61-1.77-2.52-2.52-.1-.08-.23-.13-.36-.14h0c-.13,0-.25.03-.33.1-.41.37-.83.75-1.28,1.15-.46-.22-.95-.4-1.45-.53-.04-.58-.08-1.1-.13-1.55-.02-.19-.26-.33-.53-.33h-3.43c-.27,0-.51.14-.53.33-.05.46-.1.98-.14,1.55-.5.13-.99.31-1.45.53-.45-.4-.87-.78-1.28-1.15-.08-.07-.2-.11-.33-.1h0c-.13,0-.26.06-.36.14-.91.74-1.77,1.61-2.52,2.52-.17.21-.19.53-.04.7.35.39.71.79,1.09,1.21-.26.49-.46,1-.62,1.53-.52.04-.99.08-1.41.12-.19.02-.33.26-.33.53v3.43c0,.27.14.51.33.53.38.04.81.08,1.28.12.14.59.34,1.17.59,1.71-.33.36-.64.71-.94,1.05-.15.17-.14.49.04.7.75.91,1.61,1.77,2.52,2.52.1.08.23.13.36.14.13,0,.25-.03.33-.1.31-.28.64-.57.98-.87.56.29,1.17.52,1.79.68.03.41.07.79.1,1.13.02.19.26.33.53.33h3.43c.26,0,.51-.14.53-.33.04-.34.07-.72.1-1.13.62-.16,1.22-.38,1.79-.68.34.3.66.59.98.87.08.07.2.11.33.1.13,0,.26-.06.36-.14.91-.75,1.77-1.61,2.52-2.52.17-.21.19-.53.04-.7-.3-.34-.61-.68-.94-1.05.26-.54.46-1.12.59-1.71.47-.03.9-.07,1.28-.12.19-.02.33-.26.33-.53v-3.43c0-.26-.14-.51-.33-.53ZM17.18,21.54c-2.47,0-4.47-2-4.47-4.47s2-4.47,4.47-4.47,4.47,2,4.47,4.47-2,4.47-4.47,4.47Z"/>
            <g class="cls-13">
              <path class="cls-23" d="M25.17,12.74c.07.13.14.27.2.41.34-.38.67-.75.99-1.1.14-.16.14-.44.02-.67,0,0,0,.02-.02.03-.38.43-.77.87-1.19,1.33Z"/>
              <path class="cls-19" d="M17.18,13.17c-2.16,0-3.9,1.75-3.9,3.9,0,.11,0,.21.02.32.16-2.01,1.84-3.59,3.89-3.59s3.73,1.58,3.89,3.59c0-.1.02-.21.02-.32,0-2.16-1.75-3.9-3.9-3.9Z"/>
              <path class="cls-17" d="M8.99,13.15c.06-.14.13-.27.2-.41-.42-.46-.81-.9-1.19-1.33,0,0,0-.02-.02-.03-.12.22-.12.5.02.67.32.35.65.72.99,1.1Z"/>
              <path class="cls-24" d="M27.39,19.48c-.42.05-.89.09-1.41.13-.15.65-.37,1.28-.65,1.87.06.07.12.14.19.21.19-.47.35-.95.46-1.45.51-.04.99-.08,1.41-.13.2-.02.36-.29.36-.58v-.63c0,.29-.16.56-.36.58Z"/>
              <path class="cls-21" d="M26.32,23.4c-.82.99-1.77,1.95-2.76,2.76-.11.09-.25.15-.4.15s-.27-.03-.36-.11c-.35-.31-.7-.63-1.07-.96-.62.32-1.28.57-1.96.75-.03.45-.07.87-.11,1.24-.02.2-.29.36-.58.36h-3.77c-.29,0-.56-.16-.58-.36-.04-.38-.08-.79-.11-1.24-.68-.17-1.34-.42-1.96-.75-.37.33-.72.65-1.07.96-.09.08-.22.12-.36.11-.15,0-.29-.06-.4-.15-.99-.82-1.95-1.77-2.76-2.76-.02-.03-.04-.07-.06-.1-.14.19-.12.51.06.73.82.99,1.77,1.95,2.76,2.76.11.09.25.15.4.15.15,0,.27-.03.36-.11.35-.31.7-.63,1.07-.96.62.32,1.28.57,1.96.75.04.45.07.87.11,1.24.02.2.29.36.58.36h3.77c.29,0,.56-.16.58-.36.04-.38.08-.79.11-1.24.68-.17,1.34-.42,1.96-.75.37.33.72.65,1.07.96.09.08.22.12.36.11.15,0,.29-.06.4-.15.99-.82,1.95-1.77,2.76-2.76.18-.22.2-.54.06-.73-.02.03-.03.07-.06.1Z"/>
              <path class="cls-22" d="M8.84,21.69c.06-.07.12-.14.19-.21-.28-.6-.5-1.22-.65-1.87-.51-.04-.99-.08-1.41-.13-.2-.02-.36-.29-.36-.58v.63c0,.29.16.56.36.58.42.05.89.09,1.41.13.12.5.27.98.46,1.45Z"/>
            </g>
          </g>
        </g>
      </g>
    </g>
  </g>
</svg>