<?xml version="1.0" encoding="UTF-8"?>
<svg xmlns="http://www.w3.org/2000/svg" xmlns:xlink="http://www.w3.org/1999/xlink" viewBox="0 0 220 60.92">
  <defs>
    <style>
      .cls-1 {
        fill: url(#_Áåçûìÿííûé_ãðàäèåíò_27-16);
      }

      .cls-1, .cls-2, .cls-3, .cls-4, .cls-5, .cls-6, .cls-7, .cls-8, .cls-9, .cls-10, .cls-11, .cls-12, .cls-13, .cls-14, .cls-15, .cls-16, .cls-17, .cls-18, .cls-19, .cls-20 {
        mix-blend-mode: multiply;
      }

      .cls-1, .cls-2, .cls-3, .cls-4, .cls-5, .cls-6, .cls-7, .cls-8, .cls-9, .cls-10, .cls-12, .cls-13, .cls-14, .cls-15, .cls-16, .cls-18, .cls-20 {
        opacity: .12;
      }

      .cls-2 {
        fill: url(#_Áåçûìÿííûé_ãðàäèåíò_27-14);
      }

      .cls-3 {
        fill: url(#_Áåçûìÿííûé_ãðàäèåíò_27-2);
      }

      .cls-4 {
        fill: url(#_Áåçûìÿííûé_ãðàäèåíò_27-10);
      }

      .cls-5 {
        fill: url(#_Áåçûìÿííûé_ãðàäèåíò_27-4);
      }

      .cls-21 {
        fill: url(#_Áåçûìÿííûé_ãðàäèåíò_17);
      }

      .cls-6 {
        fill: url(#_Áåçûìÿííûé_ãðàäèåíò_27-15);
      }

      .cls-7 {
        fill: url(#_Áåçûìÿííûé_ãðàäèåíò_27-8);
      }

      .cls-22 {
        isolation: isolate;
      }

      .cls-8, .cls-23 {
        fill: #7a2900;
      }

      .cls-9 {
        fill: url(#_Áåçûìÿííûé_ãðàäèåíò_27-7);
      }

      .cls-10 {
        fill: url(#_Áåçûìÿííûé_ãðàäèåíò_27-6);
      }

      .cls-11 {
        opacity: .58;
      }

      .cls-11, .cls-17 {
        fill: #864300;
      }

      .cls-12 {
        fill: url(#_Áåçûìÿííûé_ãðàäèåíò_27-11);
      }

      .cls-13 {
        fill: url(#_Áåçûìÿííûé_ãðàäèåíò_27-3);
      }

      .cls-14 {
        fill: url(#_Áåçûìÿííûé_ãðàäèåíò_27-5);
      }

      .cls-15 {
        fill: url(#_Áåçûìÿííûé_ãðàäèåíò_27-12);
      }

      .cls-16 {
        fill: url(#_Áåçûìÿííûé_ãðàäèåíò_27-13);
      }

      .cls-24 {
        mix-blend-mode: screen;
        opacity: .75;
      }

      .cls-17 {
        opacity: .61;
      }

      .cls-18 {
        fill: url(#_Áåçûìÿííûé_ãðàäèåíò_27-9);
      }

      .cls-19 {
        fill: url(#_Áåçûìÿííûé_ãðàäèåíò_27);
        opacity: .23;
      }

      .cls-25 {
        fill: url(#_Áåçûìÿííûé_ãðàäèåíò_323-2);
        opacity: .43;
      }

      .cls-26 {
        fill: url(#_Áåçûìÿííûé_ãðàäèåíò_323);
        opacity: .66;
      }

      .cls-20 {
        fill: url(#_Áåçûìÿííûé_ãðàäèåíò_27-17);
      }
    </style>
    <linearGradient id="_Áåçûìÿííûé_ãðàäèåíò_17" data-name="Áåçûìÿííûé ãðàäèåíò 17" x1="114.15" y1="66.4" x2="106.61" y2="-.53" gradientUnits="userSpaceOnUse">
      <stop offset="0" stop-color="#b43e23"/>
      <stop offset="1" stop-color="#f59113"/>
    </linearGradient>
    <linearGradient id="_Áåçûìÿííûé_ãðàäèåíò_323" data-name="Áåçûìÿííûé ãðàäèåíò 323" x1="117.21" y1="71.84" x2="109.12" y2="-.05" gradientUnits="userSpaceOnUse">
      <stop offset="0" stop-color="#e2ae2d"/>
      <stop offset=".36" stop-color="#e1ab2a"/>
      <stop offset=".61" stop-color="#e0a320"/>
      <stop offset=".84" stop-color="#de9611"/>
      <stop offset="1" stop-color="#d80"/>
    </linearGradient>
    <linearGradient id="_Áåçûìÿííûé_ãðàäèåíò_27" data-name="Áåçûìÿííûé ãðàäèåíò 27" x1="113.03" y1="66.5" x2="105.27" y2="-2.4" gradientUnits="userSpaceOnUse">
      <stop offset="0" stop-color="#b44320"/>
      <stop offset="1" stop-color="#ff9215"/>
    </linearGradient>
    <linearGradient id="_Áåçûìÿííûé_ãðàäèåíò_27-2" data-name="Áåçûìÿííûé ãðàäèåíò 27" x1="142.57" y1="61.35" x2="135.5" y2="-1.53" xlink:href="#_Áåçûìÿííûé_ãðàäèåíò_27"/>
    <linearGradient id="_Áåçûìÿííûé_ãðàäèåíò_27-3" data-name="Áåçûìÿííûé ãðàäèåíò 27" x1="89.23" y1="99.85" x2="78.3" y2="2.7" xlink:href="#_Áåçûìÿííûé_ãðàäèåíò_27"/>
    <linearGradient id="_Áåçûìÿííûé_ãðàäèåíò_27-4" data-name="Áåçûìÿííûé ãðàäèåíò 27" x1="125.91" y1="62.97" x2="118.8" y2="-.12" xlink:href="#_Áåçûìÿííûé_ãðàäèåíò_27"/>
    <linearGradient id="_Áåçûìÿííûé_ãðàäèåíò_27-5" data-name="Áåçûìÿííûé ãðàäèåíò 27" x1="70.36" y1="85.48" x2="61.01" y2="2.4" xlink:href="#_Áåçûìÿííûé_ãðàäèåíò_27"/>
    <linearGradient id="_Áåçûìÿííûé_ãðàäèåíò_27-6" data-name="Áåçûìÿííûé ãðàäèåíò 27" x1="131.82" y1="62.28" x2="124.76" y2="-.4" xlink:href="#_Áåçûìÿííûé_ãðàäèåíò_27"/>
    <linearGradient id="_Áåçûìÿííûé_ãðàäèåíò_27-7" data-name="Áåçûìÿííûé ãðàäèåíò 27" x1="45.73" y1="82.84" x2="37.35" y2="8.42" xlink:href="#_Áåçûìÿííûé_ãðàäèåíò_27"/>
    <linearGradient id="_Áåçûìÿííûé_ãðàäèåíò_27-8" data-name="Áåçûìÿííûé ãðàäèåíò 27" x1="134.21" y1="62.49" x2="127.07" y2="-1" xlink:href="#_Áåçûìÿííûé_ãðàäèåíò_27"/>
    <linearGradient id="_Áåçûìÿííûé_ãðàäèåíò_27-9" data-name="Áåçûìÿííûé ãðàäèåíò 27" x1="186.63" y1="65.05" x2="178.47" y2="-7.39" xlink:href="#_Áåçûìÿííûé_ãðàäèåíò_27"/>
    <linearGradient id="_Áåçûìÿííûé_ãðàäèåíò_27-10" data-name="Áåçûìÿííûé ãðàäèåíò 27" x1="59.51" y1="71.94" x2="51.38" y2="-.23" xlink:href="#_Áåçûìÿííûé_ãðàäèåíò_27"/>
    <linearGradient id="_Áåçûìÿííûé_ãðàäèåíò_27-11" data-name="Áåçûìÿííûé ãðàäèåíò 27" x1="175.26" y1="62.15" x2="167.49" y2="-6.91" xlink:href="#_Áåçûìÿííûé_ãðàäèåíò_27"/>
    <linearGradient id="_Áåçûìÿííûé_ãðàäèåíò_27-12" data-name="Áåçûìÿííûé ãðàäèåíò 27" x1="79.15" y1="72.67" x2="71.17" y2="1.78" xlink:href="#_Áåçûìÿííûé_ãðàäèåíò_27"/>
    <linearGradient id="_Áåçûìÿííûé_ãðàäèåíò_27-13" data-name="Áåçûìÿííûé ãðàäèåíò 27" x1="190.83" y1="62.18" x2="182.86" y2="-8.61" xlink:href="#_Áåçûìÿííûé_ãðàäèåíò_27"/>
    <linearGradient id="_Áåçûìÿííûé_ãðàäèåíò_27-14" data-name="Áåçûìÿííûé ãðàäèåíò 27" x1="173.67" y1="60.22" x2="165.63" y2="-11.15" xlink:href="#_Áåçûìÿííûé_ãðàäèåíò_27"/>
    <linearGradient id="_Áåçûìÿííûé_ãðàäèåíò_27-15" data-name="Áåçûìÿííûé ãðàäèåíò 27" x1="4.35" y1="74.55" x2="-2.78" y2="11.21" xlink:href="#_Áåçûìÿííûé_ãðàäèåíò_27"/>
    <linearGradient id="_Áåçûìÿííûé_ãðàäèåíò_27-16" data-name="Áåçûìÿííûé ãðàäèåíò 27" x1="112.66" y1="68.33" x2="104.62" y2="-3.1" xlink:href="#_Áåçûìÿííûé_ãðàäèåíò_27"/>
    <linearGradient id="_Áåçûìÿííûé_ãðàäèåíò_27-17" data-name="Áåçûìÿííûé ãðàäèåíò 27" x1="122.69" y1="67.06" x2="114.2" y2="-8.38" xlink:href="#_Áåçûìÿííûé_ãðàäèåíò_27"/>
    <linearGradient id="_Áåçûìÿííûé_ãðàäèåíò_323-2" data-name="Áåçûìÿííûé ãðàäèåíò 323" x1="11.84" y1="42.05" x2="206.51" y2="42.05" xlink:href="#_Áåçûìÿííûé_ãðàäèåíò_323"/>
  </defs>
  <g class="cls-22">
    <g id="Layer_2" data-name="Layer 2">
      <g id="Layer_1_copy" data-name="Layer 1 copy">
        <g>
          <path class="cls-23" d="M212.78,60.79c.15-.05.3-.1.45-.15,1.66-1.64,3.32-3.27,4.83-5,1-1.14-.73-5.99-.75-7.45,0-.57-.02-1.13-.04-1.7-.07-2.78-.18-5.58.18-8.35.62-4.78,1.38-9.49,1.7-14.28.07-.98.91-13.22-.56-13.33-.91-.07-1.44-.54-2.32-.68.49-.31.6-.6,1.28-.84,1.39-3.6-.77-4.12-4.57-4.23-10.76-.32-21.54.67-32.24.49-7.89-.13-15.76-.72-23.66-.43-5.58.2-14.78,1.66-20.05-.27-4.18-1.53-4.67-2.81-9.91-1.51-6.21,1.54-11.57,2.29-18.06,2.29-12.52,0-25.5-1.9-37.95-1.15-2.14.13-4.07.73-6.17,1.08-2.72.45-3.61-.22-5.96-.44-8.61-.8-17.53.51-26.16.51-7.56,0-15.55-.76-23.05-.29-3.47.22-8.16-.84-8.87,2.43-.65,3-.29,6.08-.5,9.1-.16,2.37-1.06,5.78.43,7.94.16.23,1.01.67,1.01,1,.01.63-.61.33-.87.83-1.29,2.5,1.07,3.89,1.95,5.99-.54.35-1.34.64-1.67,1.16-.93,1.49-.52,3.95-.72,5.61-.23,1.88.4,3.76.29,5.64-.15,2.56-.18,5.12-.13,7.69.02.83.16,1.83.29,2.86,1.95,1.79,3.87,3.59,5.7,5.46.78.06,1.55.1,2.26.13,3.07.11,5.7-.68,8.61-.89,9.31-.65,19.31-.12,28.69-.12h23.79c13.03,0,26.25.88,39.26.37,5.22-.2,10.1-1.13,15.46-1.12,22.08.01,44.23,1.37,66.18,1.33,5.13-.01,10.24.47,15.37.38,1.89-.03,4.26.12,6.45-.07Z"/>
          <path class="cls-21" d="M218.08,41.9c.02-1.51,0-3.02-.21-4.49,0-.06-12.59.23-13.71.12,1.23-.22,13.42-.95,13.48-1.32,1.12-6.67,1.51-13.14,1.84-19.88.15-2.96.57-6.36,0-9.28-.51-2.56-3.99-6.79-7.52-6.86-10.42-.23-20.86.68-31.22.51-7.89-.13-15.76-.72-23.66-.43-32.26,1.18-65.9,2.99-98.08,0-8.61-.8-17.53.51-26.16.51-7.56,0-15.55-.76-23.05-.29-1.21.08-2.57,0-3.86,0-1.88,1.07-3.67,2.24-5.21,3.59-.36,2.6-.13,5.34-.14,8,0,3.35-1.3,9.14,1.22,12.07,1.13,1.31,2.91,1.26,4.68,1.31.98.03,4.35.68,5.01.5-1.47.41-3.16.36-4.69.29-.94-.04-4.14-.94-4.87-.62-1.45.65-.2,3.04.82,3.92,1.63,1.41,3.48,1.24,5.68,1.59,2.28.37,5.33-.28,7.27.29-2.38.09-4.77.49-7.18.61-2.58.12-6.63-.42-7.84,1.85-.94,1.76.28,4.44.17,6.31-.24,4.12-1.31,9.41.08,13.42.59,1.71-.19,1.42,1.74,2.29,4.4,1.97,13.27-.57,18.04-.57,8.52,0,17.04,0,25.57,0h23.79c5.58,0,11.95.71,17.47-.06,4.71-.65,8.77-2.86,13.74-2.63-.43.25-.92.82-1.52,1.06,3.65,1.03,7.84,1.2,11.67,1.07,11.31-.39,22.58-.1,33.9-.01,5.22.04,10.91.77,16.02.06.99-.14,9.23-1.85,7.84.57,2.1,1.12,7.35.29,9.81.35,3.99.1,7.98.17,11.98.16,5.13,0,10.24.47,15.38.38.97-.02,11.37-1.48,11.55-.45,0,0,0,0,.01-.01,1.43-1.61.17-7.65.13-9.65-.02-1.41.03-2.84.05-4.27Z"/>
          <path class="cls-8" d="M72.99,1.46c-6.36.39-12.43,2.75-18.92,3.18-7.21.48-14.43-.03-21.64-.23-6.89-.19-13.6.54-20.46.78-3.25.11-6.54-.37-9.77-.12-.56.04-1.1.12-1.62.22.03-.4.07-.8.13-1.2C2.25,2.72,4.05,1.56,5.92.49c1.29,0,2.65.08,3.86,0,7.5-.48,15.49.29,23.05.29,8.63,0,17.55-1.31,26.16-.51,4.72.44,9.2,1.09,13.99,1.2ZM128.22,8.91s-.01.12-.03.26c6.27-.42,11.63-3.21,17.09-5.54,2.55-1.09,5.18-2.11,7.94-2.77,1.13-.27,2.27-.45,3.41-.58-18.53.33-37.04,2.86-55.63,2.47-10.27-.22-18.13.52-28.12,3.06-6.26,1.59-12.6,2.77-19.15,3.18-6.98.43-13.97-.04-20.94-.25-6.78-.2-13.38.45-20.13.74-3.02.13-5.97-.12-8.97-.14-1.17,0-2.18.17-3.13.5.01.7.03,1.4.03,2.09.31-.11.68-.17,1.1-.17,10.34.15,20.64-.49,30.94-1.11,7.19-.43,14.39-.91,21.6-.81,5.94.08,13.68-2.42,19.22-.5,2.61.9,3.49,1.78,6.75,1.74,5.66-.06,11.11-1.71,16.33-3.38,4.6-1.48,8.42-1.83,13.27-2.45,2.98-.38,5.98-.76,9-.85,2.34-.07,5.03-.02,7.05,1.09,1.43.79,2.5,1.95,2.4,3.43ZM219.54,5.56c-.31-.5-.77-1.03-1.33-1.59-.72-.74-5.11-4.04-6.14-3.73-3.49,1.04-7.09,1.85-10.75,2.42-13.54,2.1-27.34,1.37-41.03,1.68-3.88.09-7.42,1.24-10.79,2.75-2.66,1.19-5.89,3.34-9.09,2.08,4.33,2.99,11.73.9,16.21-.73,3.07-1.12,9.46-3.48,12.49-1.08-1.13.42-2.36,1.03-2.84,1.99,8.18,3.96,20.56,2.77,29.64,2.55,3.84-.1,7.68-.4,11.47-.9,2.83-.37,8.96-.56,11.21-2.07,1.61-1.08,1.71-2.15.95-3.36ZM216.02,13.94c-13.8,2.77-28.34,3.11-42.23.54-3.25-.6-6.49-1.74-9.81-1.98-3.19-.23-6.37.15-9.48.69-1.05.18-2.1.39-3.15.6,3.25.36,6.43,1.02,9.56,1.87,3.67,1,7.27,2.2,10.96,3.15,4.07,1.05,8.06,1.53,12.3,1.71,11.62.48,23.24.2,34.87.11.22-2.61.3-5.18.29-7.42-1.1.26-2.21.5-3.32.72ZM47.67,15.04c4.7-.45,9.77-.64,13.15.73,2.91,1.19,3.27,2.92,7.25,3.02,13.35.34,26.66-2.38,39.72-4.26,3.24-.47,9.95-1.67,12.88.22.52.33-.73,1.02-.18,1.43,1.17.87,1.76,1.03,3.28,1.44,3.96,1.07,8.65.15,12.49,1.42,6.23,2.08-.57,3.52,1.72,6.29,2.43,2.94,17.75.1,21.47-.01,4.76-.15,11.15-.6,15.27,1.69,13.23,7.35,28.98,2.42,43.04,4.12,0,0,0,0,.01,0,.6-1.93.15-3.95,1.02-5.84-3.41-.15-6.78-.28-10.24-.25-5.12.05-10.24.09-15.36.03-5.09-.06-10.31-.05-15.36-.67-7.88-.96-15.02-4.36-23.13-4.51-3.87-.07-10.81,1.62-14.13-.43-.73-.45.12-1.51-.89-2.13-1.66-1.02-5.17-1.15-7.14-1.44-2.47-.36-9.4-.45-10.43-2.85.24.56,2.12-1.77,1.99-2.52-14.75-4.55-31.61,3.32-46.2,4.53-2.96.24-6.56.69-9.39-.28-1.89-.65-2.89-1.79-4.9-2.27-3.84-.91-8.63.73-12.54.98-7.31.47-14.54,1.23-21.86,1.67-9.17.55-18.34,1.04-27.54.91-.46,0-.85-.1-1.19-.24-.04,2.03.02,4.2.52,6.1,13.07-2.3,26.03-4.89,39.31-6.1,2.06-.19,4.65-.54,7.37-.8ZM129.21,23.32c.1.19.17.41.18.66.13,1.96-3.68,3.5-3.05,5.72,1.91,6.75,16.59,2.57,20.73.08-3.51-.26-7.05.48-10.57.02-4.98-.65-4.4-1.9-5.56-5.2-2.03-5.81-14.56-4.99-20.65-4.61-4.65.29-9.26.84-13.86,1.4-4.66.56-9.34,1.16-14.05,1.43-4.55.26-9.12.08-13.66-.27-8.66-.67-17.17-1.79-25.9-1.54-13.99.39-27.7,2.86-41.37,5.25-.6,1.44.42,2.25,1.35,3.06,1.95,1.69,16.45-.44,19.42-.59,15.2-.76,30.48-8.65,45.98-4.81,3.18.79,4.31,2.42,6.73,3.86,2.48,1.47,5.87,2.24,8.87,2.5,8.8.76,16.36-1.63,24.39-4.16,2.75-.87,19.09-6.39,21.03-2.79ZM101.49,37.74c6.4-1.4,16.15-6.59,22.7-3.27,2.15,1.09,1.65,2.34,2.62,3.85,1.29,1.99,3.45,1.36,5.72,1.55,7.48.61,14.5.43,22.02.32,4.8-.07,8.33,3.24,12.96,3.81,6.22.77,12.77-.65,19.02-.83,9.25-.27,18.47-.72,27.72-.78,1.26,0,2.51-.02,3.77-.02,0-.15.01-.3.02-.45.09-1.87-.05-2.96-.73-3.62-2,.27-4.01.49-6.04.61-8.93.52-17.88-1.22-26.66-2.3-12.66-1.55-25.21.56-37.92.47-5.88-.04-12.54.29-18.1-1.58-2.53-.85-3.54-2.59-5.68-3.63-2.31-1.12-6.71-1.33-9.29-1.06-4.38.46-8.41,2.16-12.5,3.43-8.24,2.56-18.41,5.42-27.36,3.93-5.83-.97-9.41-4.61-14.65-6.39-4.59-1.56-9.75-.74-14.34.35-4.29,1.02-8.23,1.39-12.65,1.99-10.43,1.41-20.89,3.31-31.52,2.82.11,1.24.29,2.48.24,3.28-.07,1.12-.19,2.33-.31,3.57.23-.1.49-.18.79-.23,12.49-1.91,25.15-2.62,37.84-2.63,12.23,0,24.76,1.67,36.89,1.17,8.71-.35,17.04-2.51,25.45-4.35ZM128.75,43.43c-4.32-.33-8.64-.4-12.87-.02-7.18.65-14.43,3.54-21.86,2.06,4.54,1.01,8.59,3.02,13.3,3.46,4.51.42,9.06-.14,13.49-.84,8.38-1.31,17.13-3.7,25.72-2.24-5.75-.98-11.76-1.96-17.78-2.42ZM217.88,55.84s0,0,.01-.02c.15-1.73.18-3.45.17-5.16-5.31.18-10.62.27-15.94.25-.16,0-.32,0-.48,0-7.63-.04-15.16,1.21-22.77,1.48-3.3.12-8.23.58-11.31-.62-2.09-.82-3.23-2.51-5.37-3.39-11.25-4.62-24.2.97-34.94,3.49,11.45-2.69,20.52,2.84,31.56,3.2,10.71.35,21.41.86,32.14.84,5.13,0,10.24.47,15.38.38.97-.02,11.37-1.48,11.55-.45ZM105,52.16c-3.75-1-7.41-2.25-11.19-3.18-4.78-1.18-6.05,1.91-10.44,3-6.19,1.55-13.71-.31-19.83-1.36-6.32-1.09-12.05-3.49-18.57-3.84-5.46-.3-10.64-.54-16.14,0-9.51.94-19,2.39-28.6,2.44.01.57.05,1.14.11,1.7,12.31.14,24.8.92,36.33,4.42h33.39c5.58,0,11.95.71,17.47-.06,3.58-.5,6.75-2.35,10.5-2.37,2.6-.02,2.09.62,3.74,1.06,2.94.79,6.17.93,9.65.81.97-.03,1.95-.06,2.92-.09-2.7.07-6.66-1.82-9.33-2.53Z"/>
          <g class="cls-24">
            <path class="cls-26" d="M219.49,7.04c-.51-2.56-3.99-6.79-7.52-6.86-10.42-.23-20.86.68-31.22.51-7.89-.13-15.76-.72-23.66-.43-32.26,1.18-65.9,2.99-98.08,0-8.61-.8-17.53.51-26.16.51-7.56,0-15.55-.76-23.05-.29-1.21.08-2.57,0-3.86,0-1.88,1.07-3.67,2.24-5.21,3.59-.22,1.59-.22,3.23-.19,4.88.02-.87.07-1.74.19-2.59,1.54-1.35,3.34-2.52,5.21-3.59.84,0,1.7.03,2.54.03,1.79-.54,3.69-.86,5.73-.93,4.11-.15,8.2.53,12.32.43,5.61-.14,11.2-.85,16.82-.96,4.36-.09,8.7.06,13.03.44,1.56.14,4.27-.1,5.67.32,1.6.47,2.61,2.04,4.29,2.24,1.5.17,4.05-1.43,5.85-1.44,11.36-.06,22.42.8,33.7,1.25,2.73.11,4.62-.4,7.19-.78,6.35-.92,13.7.31,20.22.08,7.93-.28,15.83-1,23.77-1.28,8.67-.31,18.59-1.68,26.84.45.77.2.93.7,2.15.65,1.34-.06,1.46-1,1.76-1.06,1.65-.35,2.96-.1,4.96-.02,3.4.13,6.8-.53,10.23-.43,6.79.19,15.13.67,16.49,7.57.15.78.24,1.6.27,2.43.06-1.62.02-3.23-.27-4.72Z"/>
          </g>
          <path class="cls-19" d="M218.03,41.9c.07-2.73-.95-3.74-2.93-4.09-1.14-.2-2.6-.18-4.36-.15,2.35-1.46,5.41-1.75,6.63-4.1,1.27-2.46,1.73-5.55,1.9-8.67-16.74,16.1-45.37,18.87-69.01,20.22-14.56.83-29.5.4-43.88.48-29.73.16-60.6-.5-88.72-9.49-6.06-1.94-12.55-4.61-16.41-9.09-.08,1.98,3.24,2.63,2.69,4.56-.1.35-2.56.92-3.02,1.65-.96,1.52,0,5.24-.11,6.97-.24,4.12-1.31,9.41.08,13.42.59,1.71-.19,1.42,1.74,2.29,4.4,1.97,13.27-.57,18.04-.57,8.52,0,17.04,0,25.57,0h23.79c5.58,0,11.95.71,17.47-.06,3.58-.5,6.75-2.35,10.5-2.37,2.6-.02,2.09.62,3.74,1.06,2.94.79,6.17.93,9.65.81,11.31-.39,22.58-.1,33.9-.01,5.22.04,10.91.77,16.02.06.99-.14,9.23-1.85,7.84.57,2.1,1.12,7.35.29,9.81.35,3.99.1,7.98.17,11.98.16,5.13,0,10.24.47,15.38.38.97-.02,11.37-1.48,11.55-.45,0,0,0,0,.01-.01.4-4.63.02-9.29.14-13.92ZM179.14,49.33c-2.03,1.24-6.38.95-7.56-.46-1.64-1.97,1.79-3.14,3.73-3.38,2.36-.29,5.64.23,4.81,2.72-.15.46-.5.83-.98,1.12ZM203.5,48.43c-3.48,1.26-8.51,1.41-12.07,1.14-2.01-.15-6.85-.39-7.1-2.67-.13-1.19,2.58-2.76,3.43-3.33,3.47-2.33,8.01-3.96,12.6-3.83,6.01.17,10.17,5.49,4.05,8.32-.29.13-.59.26-.91.37Z"/>
          <g>
            <path class="cls-3" d="M137.52,24.37c.18-1.21,1.68-2.16,1.43-3.13-.23.94-1.62,1.9-1.43,3.13Z"/>
            <path class="cls-13" d="M3.67,9.8c3.01.02,5.96.27,8.97.14,6.75-.29,13.35-.94,20.13-.74,6.98.2,13.97.68,20.94.25,6.55-.4,12.89-1.58,19.15-3.18,9.99-2.54,17.85-3.28,28.12-3.06,17.5.37,34.92-1.85,52.36-2.39,1.08-.25,2.17-.43,3.27-.55-18.53.33-37.04,2.86-55.63,2.47-10.27-.22-18.13.52-28.12,3.06-6.26,1.59-12.6,2.77-19.15,3.18-6.98.43-13.97-.04-20.94-.25-6.78-.2-13.38.45-20.13.74-3.02.13-5.97-.12-8.97-.14-1.17,0-2.18.17-3.13.5,0,.16,0,.31,0,.47.95-.33,1.96-.51,3.12-.5Z"/>
            <path class="cls-5" d="M120.44,16.13c.18-.33.54-.67.26-.88-.18.3-.49.63-.26.88Z"/>
            <path class="cls-14" d="M.47,16.3c.33.14.73.23,1.19.24,9.2.14,18.37-.35,27.54-.91,7.32-.44,14.55-1.2,21.86-1.67,3.92-.25,8.7-1.89,12.54-.98,2.01.48,3.01,1.62,4.9,2.27,2.84.97,6.43.52,9.39.28,14.57-1.2,31.4-9.06,46.13-4.55.06-.18.09-.33.07-.45-14.75-4.55-31.61,3.32-46.2,4.53-2.96.24-6.56.69-9.39-.28-1.89-.65-2.89-1.79-4.9-2.27-3.84-.91-8.63.73-12.54.98-7.31.47-14.54,1.23-21.86,1.67-9.17.55-18.34,1.04-27.54.91-.46,0-.85-.1-1.19-.24,0,.36,0,.72,0,1.09,0-.21,0-.42,0-.62Z"/>
            <path class="cls-10" d="M129.39,24.45s-.01-.08-.02-.12c-.29,1.72-3.34,3.16-3.08,5.1.24-1.84,3.22-3.25,3.1-4.99Z"/>
            <path class="cls-9" d="M.71,4.55c1.54-1.35,3.34-2.52,5.21-3.59,1.29,0,2.65.08,3.86,0,7.5-.48,15.49.29,23.05.29,8.63,0,17.55-1.31,26.16-.51,3.7.34,7.26.82,10.94,1.06,1.01-.15,2.03-.27,3.05-.33-4.79-.11-9.28-.76-13.99-1.2-8.61-.8-17.53.51-26.16.51-7.56,0-15.55-.76-23.05-.29-1.21.08-2.57,0-3.86,0-1.88,1.07-3.67,2.24-5.21,3.59-.05.4-.1.8-.13,1.2.02,0,.03,0,.05,0,.02-.24.04-.48.08-.72Z"/>
            <path class="cls-7" d="M128.22,9.16c0-.07,0-.14,0-.2,0,.05-.01.12-.02.21.01,0,.02,0,.03,0Z"/>
            <path class="cls-18" d="M140.41,9.17c.5.34,1.04.62,1.61.83,2.66.2,5.27-1.45,7.49-2.44,3.37-1.51,6.91-2.67,10.79-2.75,13.69-.31,27.49.42,41.03-1.68,3.66-.57,7.26-1.38,10.75-2.42,1.04-.31,5.42,3,6.14,3.73.56.56,1.01,1.09,1.33,1.59.24.38.39.74.44,1.1.07-.5-.1-1.02-.44-1.57-.31-.5-.77-1.03-1.33-1.59-.72-.74-5.11-4.04-6.14-3.73-3.49,1.04-7.09,1.85-10.75,2.42-13.54,2.1-27.34,1.37-41.03,1.68-3.88.09-7.42,1.24-10.79,2.75-2.66,1.19-5.89,3.34-9.09,2.08Z"/>
            <path class="cls-4" d="M93.8,48.98c-4.78-1.18-6.05,1.91-10.44,3-6.19,1.55-13.71-.31-19.83-1.36-6.32-1.09-12.05-3.49-18.57-3.84-5.46-.3-10.64-.54-16.14,0-9.51.94-19,2.39-28.6,2.44,0,.16.01.31.02.47,9.59-.05,19.07-1.5,28.58-2.44,5.5-.54,10.67-.3,16.14,0,6.52.35,12.25,2.75,18.57,3.84,6.12,1.05,13.63,2.91,19.83,1.36,4.39-1.1,5.65-4.18,10.44-3,3.78.93,7.44,2.19,11.19,3.18,1.86.49,4.35,1.56,6.6,2.14.91-.03,1.82-.06,2.73-.08-2.7.07-6.66-1.82-9.33-2.53-3.75-1-7.41-2.25-11.19-3.18Z"/>
            <path class="cls-12" d="M193.19,25.07c-5.09-.06-10.31-.05-15.36-.67-7.88-.96-15.02-4.36-23.13-4.51-3.87-.07-10.81,1.62-14.13-.43-.73-.45.12-1.51-.89-2.13-1.66-1.02-5.17-1.15-7.14-1.44-2.29-.33-8.41-.43-10.11-2.36-.15.09-.27.09-.32-.02,1.02,2.41,7.95,2.5,10.43,2.86,1.97.28,5.48.42,7.14,1.44,1.01.62.16,1.68.89,2.13,3.33,2.05,10.27.36,14.13.43,8.11.15,15.24,3.55,23.13,4.51,5.05.61,10.26.6,15.36.67,5.12.06,10.24.03,15.36-.03,3.4-.03,6.71.09,10.06.24.05-.16.11-.31.18-.46-3.41-.15-6.78-.28-10.24-.25-5.12.05-10.24.09-15.36.03Z"/>
            <path class="cls-15" d="M136.5,29.8c-4.98-.65-4.4-1.9-5.56-5.2-2.03-5.81-14.56-4.99-20.65-4.61-4.65.29-9.26.84-13.86,1.4-4.66.56-9.34,1.16-14.05,1.43-4.55.26-9.12.08-13.66-.27-8.66-.67-17.17-1.79-25.9-1.54-13.99.39-27.7,2.86-41.37,5.25-.16.39-.2.74-.16,1.05.02-.18.07-.38.16-.58,13.67-2.4,27.38-4.86,41.37-5.25,8.72-.24,17.24.87,25.9,1.54,4.54.35,9.1.53,13.66.27,4.71-.27,9.39-.87,14.05-1.43,4.61-.55,9.22-1.11,13.86-1.4,6.09-.38,18.63-1.19,20.65,4.61,1.16,3.3.58,4.55,5.56,5.2,3.26.42,6.53-.17,9.78-.06.29-.15.56-.29.79-.43-3.51-.26-7.05.48-10.57.02Z"/>
            <path class="cls-16" d="M173.79,14.48c-3.25-.6-6.49-1.74-9.81-1.98-3.19-.23-6.37.15-9.48.69-1.05.18-2.1.39-3.15.6.49.05.98.12,1.46.18.56-.11,1.12-.21,1.68-.31,3.11-.55,6.29-.93,9.48-.69,3.32.24,6.56,1.38,9.81,1.98,13.89,2.57,28.42,2.23,42.23-.54,1.11-.22,2.22-.47,3.32-.72,0-.16,0-.32,0-.47-1.1.26-2.21.5-3.32.72-13.8,2.77-28.34,3.11-42.23.54Z"/>
            <path class="cls-2" d="M201.64,50.91c-7.63-.04-15.16,1.21-22.77,1.48-3.3.12-8.23.58-11.31-.62-2.09-.82-3.23-2.51-5.37-3.39-11.25-4.62-24.2.97-34.94,3.49,1.49-.35,2.94-.56,4.37-.66,9.77-2.69,20.82-6.37,30.58-2.36,2.14.88,3.28,2.57,5.37,3.39,3.07,1.2,8.01.74,11.31.62,7.61-.27,15.14-1.52,22.77-1.48.16,0,.32,0,.48,0,5.31.02,10.63-.07,15.94-.25,0-.16,0-.31,0-.47-5.31.18-10.62.27-15.94.25-.16,0-.32,0-.48,0Z"/>
            <path class="cls-6" d="M.52,43.77s.03-.01.05-.02c.11-1.07.21-2.11.27-3.09,0-.16,0-.34,0-.54,0,.02,0,.04,0,.07-.07,1.12-.19,2.33-.31,3.57Z"/>
            <path class="cls-1" d="M217.31,38.29c-2,.27-4.01.49-6.04.61-8.93.52-17.88-1.22-26.66-2.3-12.66-1.55-25.21.56-37.92.47-5.88-.04-12.54.29-18.1-1.58-2.53-.85-3.54-2.59-5.68-3.63-2.31-1.12-6.71-1.33-9.29-1.06-4.38.46-8.41,2.16-12.5,3.43-8.24,2.56-18.41,5.42-27.36,3.93-5.83-.97-9.41-4.61-14.65-6.39-4.59-1.56-9.75-.74-14.34.35-4.29,1.02-8.23,1.39-12.65,1.99-10.43,1.41-20.89,3.31-31.52,2.82.01.16.03.32.04.47,10.62.48,21.07-1.41,31.48-2.82,4.42-.6,8.37-.97,12.65-1.99,4.59-1.09,9.76-1.91,14.34-.35,5.24,1.78,8.82,5.42,14.65,6.39,8.94,1.49,19.12-1.38,27.36-3.93,4.09-1.27,8.12-2.96,12.5-3.42,2.58-.27,6.98-.06,9.29,1.06,2.14,1.04,3.15,2.77,5.68,3.63,5.56,1.87,12.22,1.54,18.1,1.58,12.71.09,25.26-2.02,37.92-.47,8.78,1.08,17.73,2.82,26.66,2.3,2.03-.12,4.04-.33,6.04-.61.53.51.73,1.3.75,2.52.03-1.49-.15-2.41-.75-2.99Z"/>
            <path class="cls-20" d="M128.75,43.43c-4.32-.33-8.64-.4-12.87-.02-7.18.65-14.43,3.54-21.86,2.06,1.08.24,2.14.54,3.18.86,6.33.32,12.53-1.88,18.68-2.44,4.23-.38,8.55-.32,12.87.02,4.08.32,8.15.87,12.14,1.49,1.89,0,3.77.14,5.64.46-5.75-.98-11.76-1.96-17.78-2.42Z"/>
          </g>
          <path class="cls-11" d="M204.98,37.47c2.26-1.27,1.44-7.79,1.71-9.8.04-.3.47-1.5.37-1.65-.89-1.26-3.45-.24-4.88-.95,1.42-.23,2.8-.58,4.19-.77.23-3.07-.13-6.21-.08-9.26,0-.64.85-3.77.46-4.26-1.25-1.52-7.63-.99-9.52-1.04-9.59-.27-19.45-.29-29.04.05-3.36.12-6.51.63-9.37,1.99.22-.25.34-.78.69-1.11-1.01-.18-1.85-.6-2.95-.46-2.2.28-5.48,2.43-7.39,3.46.65-1.61,3.5-2.15,3.75-3.75-3.35-.89-8.09-.07-11.65-.16-4.75-.12-9.19-.89-13.93-.77-5.62.15-11.24.28-16.87.36-15.25.21-30.54.04-45.74-1.1-7.64-.57-15.56.37-23.22.37-6.15,0-12.55.07-18.68-.31-2.71-.17-9.07-1.21-10.02,1.93-.77,2.54.24,5.49-.11,8.12-.33,2.5-1.03,5.64.04,8.08,1.92.17,3.9.27,5.6.85-1.47.35-3.33.45-4.65.38.05.78.53,2.3,1.02,3.12,1.63-.07,2.65.49,3.79.77-1.04-.26-5.53-.2-6.33.47-.76.63.04,4.55.08,5.31.18,3.36-.33,7.84,1.06,11.06.14.32,7.57.12,8.42.06,3-.23,5.99-.81,9.01-.81,7.56,0,15.13,0,22.69,0h21.11c4.95,0,10.61.51,15.51-.04,4.18-.47,7.78-2.04,12.2-1.88-.38.18-.81.58-1.35.76,3.24.74,6.96.86,10.36.77,10.04-.28,20.04-.07,30.08,0,4.63.03,9.68.55,14.22.04.88-.1,8.19-1.32,6.96.4,1.86.8,6.52.2,8.71.25,3.54.07,7.08.12,10.63.12,4.55,0,9.09.34,13.65.27,2.36-.03,4.65-.35,6.97-.31,1.76.03,2.85.4,3.48-1.29.77-2.06.63-5.65.43-7.8-1.09-.38-2.35-.49-3.51-.78.98-.2,1.66-.42,2.13-.68Z"/>
          <path class="cls-17" d="M207.05,26.02c-.89-1.26-3.45-.24-4.88-.95,1.42-.23,2.8-.58,4.19-.77.23-3.07-.13-6.21-.08-9.26,0-.64.85-3.77.46-4.26-1.25-1.52-7.63-.99-9.52-1.04-9.59-.27-19.45-.29-29.04.05-3.36.12-6.51.63-9.37,1.99.22-.25.34-.78.69-1.11-1.01-.18-1.85-.6-2.95-.46-2.2.28-5.48,2.43-7.39,3.46.65-1.61,3.5-2.15,3.75-3.75-3.35-.89-8.09-.07-11.65-.16-4.75-.12-9.19-.89-13.93-.77-5.62.15-11.24.28-16.87.36-15.25.21-30.54.04-45.74-1.1-7.64-.57-15.56.37-23.22.37-6.15,0-12.55.07-18.68-.31-2.71-.17-9.07-1.21-10.02,1.93-.77,2.54.24,5.49-.11,8.12-.33,2.5-1.03,5.64.04,8.08,1.92.17,3.9.27,5.6.85-1.47.35-3.33.45-4.65.38.05.78.53,2.3,1.02,3.12,1.63-.07,2.65.49,3.79.77-1.04-.26-5.53-.2-6.33.47-.76.63.04,4.55.08,5.31.18,3.36-.33,7.84,1.06,11.06.14.32,7.57.12,8.42.06,3-.23,5.99-.81,9.01-.81,7.56,0,15.13,0,22.69,0h21.11c4.95,0,10.61.51,15.51-.04,4.18-.47,7.78-2.04,12.2-1.88-.38.18-.81.58-1.35.76,3.24.74,6.96.86,10.36.77,10.04-.28,20.04-.07,30.08,0,4.63.03,9.68.55,14.22.04.88-.1,8.19-1.32,6.96.4,1.86.8,6.52.2,8.71.25,3.54.07,7.08.12,10.63.12,4.55,0,9.09.34,13.65.27,2.36-.03,4.65-.35,6.97-.31,1.76.03,2.85.4,3.48-1.29.77-2.06.63-5.65.43-7.8-1.09-.38-2.35-.49-3.51-.78.98-.2,1.66-.42,2.13-.68,2.26-1.27,1.44-7.79,1.71-9.8.04-.3.47-1.5.37-1.65ZM192.52,45.63c-4.4.06-8.78-.24-13.17-.24-3.42,0-6.84-.04-10.26-.1-3-.06-6.48.31-9.38-.01.27.03-7.93-1.29-4.6-2.13-7.2,1.82-10.83,1.6-18.51,1.51-8.47-.1-16.94-.18-25.41.03-3.28.08-6.87-.03-10-.66.52-.15.93-.51,1.3-.66-4.29-.14-8.63,1.12-12.87,1.33-1.36.07-4.11.58-5.38.11-.08-.03-3.01-1.49-2.13-1.69-2.38.53-4.66,1.59-7.2,1.5.52-1.15,1.57-2.45,2.78-3.45-4.31.7-7.65,3.33-12.2,3.83-3.28.36-6.82.04-10.13.04-7.3,0-14.6,0-21.9,0-5.06,0-17,3.51-18-2.72-.52-3.22-1.04-6.33-.82-9.58,1.93-.2,4.54-.57,6.3-1.22-1.8-.92-3.86-1.4-5.64-2.38.19-1.27,3.67-1.24,4.92-1.48-1.09-1.61-3.55-1.01-5.12-2.07-1.81-1.23-.72-5.78-.61-7.91.16-2.95-.02-4.84,3.09-6.27,3.35-1.55,10.54-1.29,14.1-.29-.75,1.48-2.33,2.7-3.31,4.19,2.51-1.09,4.62-3.23,7.35-3.98,5.1-1.4,11.6-.16,16.93-.44,1.41-.07,19.89.37,19.21,1.33-1.18,1.67-3.13,2.87-4.3,4.45,3.59.56,7.54-3.82,11.23-4.04-.17.44-.28.74-.4,1.16,11.32-1.06,21.78-1.76,33.22-1.8,6.41-.02,12.81-.08,19.22-.09,2.04,0,17.19,1.09,17.92.1-1.07,1.45-3.32,2.85-3.72,4.61,3.78-1.43,8.31-4.73,12.69-4.66-.37.44-.64,1.09-.9,1.44,6.12-.28,11.2-2.26,17.37-2.14,7.71.15,15.43-.45,23.15-.33,3.02.05,6.01,2.67,6.44,4.25.7,2.55.93,7.25-1.7,9.12-2.4,1.7-7.02.72-9.89,1.44,3.22.93,6.55-.44,9.7.77-3.54-1.35-1.58,7.49-1.53,7.86.17,1.15.3,1.86.26,2.33-.09,1.14-1.16.87-5,2.09,2.14.42,4.36.37,6.54.86,1.03,6.41-2.78,5.94-9.66,6.02Z"/>
          <path class="cls-25" d="M206.5,42.97c-.04,1.38-.2,2.75-.57,3.75-.63,1.69-1.72,1.32-3.48,1.29-2.32-.05-4.61.27-6.97.31-4.55.06-9.09-.28-13.65-.27-3.54,0-7.09-.04-10.63-.12-2.19-.05-6.84.55-8.71-.25,1.24-1.73-6.08-.5-6.96-.4-4.54.51-9.59-.01-14.22-.04-10.04-.06-20.04-.27-30.08,0-3.4.09-7.11-.03-10.36-.77.54-.18.97-.58,1.35-.76-4.41-.16-8.01,1.42-12.2,1.88-4.9.55-10.55.04-15.51.04h-21.11c-7.56,0-15.13,0-22.69,0-3.02,0-6.01.58-9.01.81-.86.06-8.28.27-8.42-.06-1.38-3.21-.87-7.69-1.06-11.06-.02-.41-.26-1.73-.36-2.96-.19,1.34.33,4,.36,4.62.17,3.2-.28,7.43.88,10.6,3.03-.26,6.08-.38,9.08-.82.64-.09,1.17.05,1.58.32,3.42-.74,6.9-.57,10.51-.38.24.01.45.06.64.13,4.74-.41,9.66.56,14.43.33,6.23-.3,12.43-.82,18.68-.85.17,0,.33.02.48.05.15-.03.31-.05.49-.05,2.91.02,5.8.21,8.7.2,2.6,0,5.22-.14,7.82-.2,3.31-.08,6.75-.29,9.99-.44,1.21-.06,2.46-.74,3.58-.74.78,0,1.59.68,2.42.84,2.62.5,5.91.29,8.59.35,9.24.2,18.49.12,27.72.5,7.05.28,14.23-.4,21.08-.31,1.78.03,4.04.46,5.99.65,1.68.17,7.94.69,8.98-.41,1.23-1.3,13.26.07,15.39.2,4.39.26,8.71.65,13.18.73,1.76.03,2.85.4,3.48-1.29.53-1.41.63-3.53.57-5.41Z"/>
        </g>
      </g>
    </g>
  </g>
</svg>