<?xml version="1.0" encoding="UTF-8"?>
<svg xmlns="http://www.w3.org/2000/svg" xmlns:xlink="http://www.w3.org/1999/xlink" viewBox="0 0 93.17 64.65">
  <defs>
    <style>
      .cls-1 {
        opacity: .57;
      }

      .cls-2 {
        fill: url(#_Áåçûìÿííûé_ãðàäèåíò_17);
      }

      .cls-3 {
        fill: url(#_Áåçûìÿííûé_ãðàäèåíò_27-2);
      }

      .cls-3, .cls-4, .cls-5, .cls-6, .cls-7, .cls-8 {
        mix-blend-mode: screen;
        opacity: .16;
      }

      .cls-9 {
        isolation: isolate;
      }

      .cls-10 {
        mix-blend-mode: multiply;
        opacity: .06;
      }

      .cls-10, .cls-11 {
        fill: #7a2900;
      }

      .cls-4 {
        fill: url(#_Áåçûìÿííûé_ãðàäèåíò_27-6);
      }

      .cls-5 {
        fill: url(#_Áåçûìÿííûé_ãðàäèåíò_27-4);
      }

      .cls-6 {
        fill: url(#_Áåçûìÿííûé_ãðàäèåíò_27-5);
      }

      .cls-7 {
        fill: url(#_Áåçûìÿííûé_ãðàäèåíò_27-3);
      }

      .cls-8 {
        fill: url(#_Áåçûìÿííûé_ãðàäèåíò_27);
      }
    </style>
    <linearGradient id="_Áåçûìÿííûé_ãðàäèåíò_17" data-name="Áåçûìÿííûé ãðàäèåíò 17" x1="46.58" y1="110.02" x2="46.58" y2="14.63" gradientUnits="userSpaceOnUse">
      <stop offset="0" stop-color="#b43e23"/>
      <stop offset="1" stop-color="#f59113"/>
    </linearGradient>
    <linearGradient id="_Áåçûìÿííûé_ãðàäèåíò_27" data-name="Áåçûìÿííûé ãðàäèåíò 27" x1="83.98" y1="111.13" x2="20.25" y2="-7.75" gradientUnits="userSpaceOnUse">
      <stop offset="0" stop-color="#b44320"/>
      <stop offset="1" stop-color="#ff9215"/>
    </linearGradient>
    <linearGradient id="_Áåçûìÿííûé_ãðàäèåíò_27-2" data-name="Áåçûìÿííûé ãðàäèåíò 27" x1="58.66" y1="72.92" x2="21.07" y2="2.79" xlink:href="#_Áåçûìÿííûé_ãðàäèåíò_27"/>
    <linearGradient id="_Áåçûìÿííûé_ãðàäèåíò_27-3" data-name="Áåçûìÿííûé ãðàäèåíò 27" x1="54.59" y1="75.1" x2="16.99" y2="4.98" xlink:href="#_Áåçûìÿííûé_ãðàäèåíò_27"/>
    <linearGradient id="_Áåçûìÿííûé_ãðàäèåíò_27-4" data-name="Áåçûìÿííûé ãðàäèåíò 27" x1="63.66" y1="70.24" x2="26.06" y2=".12" xlink:href="#_Áåçûìÿííûé_ãðàäèåíò_27"/>
    <linearGradient id="_Áåçûìÿííûé_ãðàäèåíò_27-5" data-name="Áåçûìÿííûé ãðàäèåíò 27" x1="40.07" y1="82.89" x2="2.48" y2="12.76" xlink:href="#_Áåçûìÿííûé_ãðàäèåíò_27"/>
    <linearGradient id="_Áåçûìÿííûé_ãðàäèåíò_27-6" data-name="Áåçûìÿííûé ãðàäèåíò 27" x1="59.14" y1="5.44" x2="90.37" y2="5.44" xlink:href="#_Áåçûìÿííûé_ãðàäèåíò_27"/>
  </defs>
  <g class="cls-9">
    <g id="Layer_2" data-name="Layer 2">
      <g id="Layer_1-2" data-name="Layer 1">
        <g>
          <path class="cls-11" d="M92.82,53.74c-.03-2.43.2-5.01-.3-7.4-.43-2.06-1.87-4.3-.97-6.42.46-1.09,1.4-2.11.94-3.28-.56,0-1.07.07-1.59.23-.03-.03-.05-.05-.08-.08.48-1.23,1.52-2.39,1.73-3.71.14-.92-.12-2.03-.14-2.98-.06-2.48-.12-4.96-.22-7.44-.04-.95.07-2.13-.19-3.05-.64-2.28-3.03-2.85-3.28-5.23-.26-2.5.76-4.72,1.09-7.14.26-1.88-.21-4.49.88-6.15-.72-.04-1.41.05-2.12.08-3.38.17-5.18,3.27-7.93,4.65-2.57,1.29-4.81.52-7.52,0-4.6-.89-9.3-1.3-13.98-1.59-8.92-.54-17.92-.51-26.83.14-3.81.28-7.87,1.27-11.6.86-5.37-.59-10.57,2.69-15.9,1.02-1.42-.44-2.74-1.33-4.16-1.85-.58,1.22,0,3.81.22,5.02.21,1.15.73,2.34,1.55,3.19.9.92,1.57.83,1.49,2.3-.11,2.11-1.83,3.51-2.31,5.49-.37,1.53-.2,3.14-.25,4.7-.05,1.52-.59,3.74.23,5.12.79,1.31,1.42,2.8,2.25,4.05-1.39,1.34-.99,3.5-1.7,5.12-.9,2.06-1.95,4.08-1.26,6.4.41,1.39,1.65,2.81,2.34,4.12-1.15-2.19-2.4,2.27-2.42,2.77-.16,2.83-.04,5.71-.07,8.54.55.83,1.06,1.67,1.53,2.54.3.56.88.91,1.52.91h85.79c.54,0,1.04-.25,1.37-.68.75-.97,1.6-1.9,2.26-2.91-.02-2.41-.31-4.92-.34-7.33Z"/>
          <path class="cls-2" d="M92.29,20.93c-.11-3.4-.69-6.9-.24-10.29.28-2.11.9-5.06-1.43-6.31-.85-.45-1.75-.37-1.46-1.5.02-.09,1.7-1.65,1.58-1.67-4.33-.7-8.47-.99-12.91-.99-4.57,0-9.1.24-13.67.04-7.43-.32-14.82-.18-22.27-.12-8.49.07-16.98.43-25.46.89-3.32.18-6.64.23-9.96.36-1.39.05-4.21-.37-5.52.25-1.66.79-.74,4.9-.26,6.26.72,1.99,2.75,1.66,4.12,2.77-.93,1.63-2.62,2.4-3.2,4.35-.92,3.1-.35,7.3-.43,10.48-.05,2.1-.49,3.84,1.69,4.71,1.56.62,3.35.31,4.92.87-1.56.97-3.78.3-5.48,1.16-1.72.87-1.28,3.98-1.4,5.59-.19,2.76-.69,5.6.04,8.3,1.52.05,2.97.22,4.49.19-3.22,1.27-4.75.43-5.14,4.38-.28,2.9.35,5.75.33,8.62,0,.61,0,1.21-.01,1.82h92.53c.05-2.56-.24-5.24-.27-7.71-.05-4.85-.46-9.62-.21-14.41-.87-.3-1.98-.09-2.74-.35,2.04-1.19,3.03-.63,2.22-3.39-2.69.06-5.64.17-8.33-.06,2.29-.73,5.43.13,7.7-.92,1.69-.78,1.01-3.61.97-5.08-.06-2.74-.13-5.47-.22-8.21Z"/>
          <path class="cls-10" d="M33.87,59.37c-2.19-.84-4.37-1.86-6.65-2.44-2.32-.59-4.59-.47-6.88.21-2.25.67-4.29,1.93-6.5,2.71-1.29.45-2.59.85-3.91,1.21h9.86c1.94-.53,3.89-1.08,5.91-.63.73.16,1.45.39,2.16.63h13.3c-2.49-.29-4.95-.8-7.29-1.7Z"/>
          <path class="cls-10" d="M10.45,49.26c1.48.38,2.82.68,4.33.23,1.38-.41,2.6-1.17,4.05-1.32,1.56-.16,3.23.19,4.73.57.9.23,1.79.44,2.68.64.07.05.15.08.24.09.24.03.47.07.71.11.53.11,1.07.21,1.6.3,1.81.38,3.58.9,5.33,1.51,2.42.85,4.71,2.01,7.12,2.88,2.43.86,4.73,1.41,7.29,1.65,2.61.24,5.21,1.06,7.82,1.43,5.28.75,10.6,1.03,15.91,1.5.48.04.95.09,1.42.15-.76.22-1.52.44-2.29.66-1.27.37-2.54.73-3.81,1.1-.4.11-.81.2-1.21.32h13.51c3.53-2.05,7.03-3.25,11.4-3.85.59-.08,1.18-.15,1.77-.21-.07-1.24-.14-2.48-.15-3.66,0-.14,0-.28,0-.42-.06,0-.12.02-.18.03-2.61.2-5.23.41-7.86.39-5-.04-10,.08-15-.02-4.9-.1-9.76-.29-14.66-.12-5.03.17-9.82-.62-14.62-2.12-.69-.22-1.38-.44-2.07-.66,1.7-.19,3.29-.69,4.98-.94,3.54-.52,7.12-.66,10.69-.82,7.03-.32,14.06-.87,21.1-1.08,1.93-.06,3.87-.09,5.8-.21.08,0,.16,0,.24-.01,3.82.65,7.5,2.13,11.33,2.78.07.01.15.02.22.04,0-.66-.02-1.33-.03-1.99-2.69-.14-5.18-.64-7.8-1.23-.32-.07-.64-.14-.96-.21.62-.37,1.2-.82,1.84-1.16,2.18-1.16,4.5-1.8,6.86-2.32-.04-2.43-.08-4.87-.12-7.3-1.53-.21-3.09-.33-4.63-.37-.84-.02-1.71-.02-2.58,0-.02-.03-.05-.07-.08-.1,1.72-1.31,3.33-2.8,5.36-3.68.6-.26,1.22-.49,1.84-.68-.06-2.94-.13-5.89-.22-8.83-.32-.13-.65-.25-.97-.38-3.26-1.23-6.79-2.29-10.3-2.29,1.22-.14,2.45-.26,3.68-.36,2.52-.2,5.04-.32,7.57-.39.03-1.35.03-2.76-.32-3.93-.43-1.46-1.67-2.54-5.7-5.95-.75-.07-1.53.02-2.28.09-1.59.14-3.17.38-4.75.55-3.17.35-6.35.62-9.54.81-6.3.37-12.74.5-19.04.03-.5-.04-1-.08-1.49-.13.58-.02,1.16-.05,1.74-.1,2.33-.19,4.59-.86,6.78-1.66,7.4-2.68,14.79-5.45,22.25-7.96-7.86-1.53-15.13,1.73-22.36,4.44-2.21.83-4.42,1.63-6.73,2.13-2.15.46-4.36.5-6.56.55-3.51.09-7.08.11-10.6.44-.54-.07-1.07-.13-1.61-.18-2.99-.31-6.01.38-8.97.78-3.06.41-6.15.64-9.2,1.09-3.22.47-6.28,1.44-9.16,2.95-.96.51-1.97,1.05-2.95,1.65-.07.15-.12.3-.17.46-.13.44-.23.9-.3,1.37,1.17-.76,2.34-1.54,3.55-2.18,2.64-1.39,5.4-2.37,8.35-2.85,3.15-.52,6.33-.44,9.52-.41,1.19.01,2.41-.08,3.62-.17-.74.3-1.49.56-2.31.71-1.68.3-3.4.35-5.1.43-3.74.18-7.23.85-10.72,2.21-1.94.76-3.85,1.57-5.78,2.36-.4.16-.8.32-1.21.48-.03.29-.06.58-.08.87,5.23-2.1,10.38-5.01,16.05-4.41,3.24.34,6.48,1.11,9.74.39,1.46-.33,2.85-1.01,4.32-1.23,1.69-.25,3.47.35,5.14.6,3.55.54,7.11.72,10.69.91,1.6.08,3.2.21,4.8.2,4.22.31,8.42.45,12.65.38,3.8.13,7.58.11,11.37-.27-3.51,1.28-7.02,2.59-10.56,3.79-1.5.51-3.1,1.07-4.7,1.08-1.8.02-2.61-1.04-3.95-2.03-1.58-1.17-3.34-1.32-5.24-1.21-1.96.12-3.92.34-5.88.51-8.07.68-16.17,1.62-24.27.75-2.19-.24-4.44-.93-6.64-.9-2.04.04-3.95,1.05-5.8,1.8-2.56,1.04-5.2,2.02-7.76,3.15.02.88.06,1.74.07,2.57.65-.02,1.29-.01,1.94.06,1.73.2,3.41.7,5.05,1.27,3.23,1.11,6.33,2.43,9.71,3.04,3.36.61,6.81.75,10.22.72,3.67-.03,7.24-1.02,10.93-1.1,1.76-.04,3.52.01,5.29.1.76.04,1.51.06,2.26.08.41.03.82.05,1.24.05.75.04,1.51.09,2.26.17.57.07,1.14.14,1.71.23,4.41,1.02,8.82,1.96,13.35,2.29,1.93.21,3.88.33,5.84.29,1.65-.03,3.3-.18,4.95-.21,1.82-.03,3.61,0,5.42-.23,2.81-.36,5.61-.79,8.43-1.06-.66.25-1.3.54-1.92.87-1.58.85-2.88,2.04-4.31,3.09-2.88,2.11-6.86,2.13-10.29,2.36-3.94.26-7.91.44-11.85.49-7.9.1-15.75-1.39-23.52-2.64-3.52-.56-7.18-.99-10.66.02-3.24.94-6.25,2.92-9.66,3.23-4.14.38-8.06-1.55-12.09-2.13-1.46-.21-2.95-.32-4.44-.33-.15,1.13-.06,2.4-.12,3.25-.02.31-.04.61-.05.92.16.06.33.11.49.17,1.26.45,2.52.91,3.78,1.39,1.35.52,2.66,1.22,4.04,1.64,2.54.77,5.49.91,8.1.49,3.03-.49,5.71-2.51,8.52-3.69,1.48-.62,2.98-1.19,4.55-1.54,1.96-.43,3.37.12,5.09,1,2.59,1.32,5.46,1.69,8.33,1.78,2.88.09,5.76-.12,8.61.41,1.53.29,3.03.76,4.56,1.04,1.72.31,3.45.14,5.17-.1,2.47-.35,4.95-.71,7.42-1.11,1.99-.05,3.99-.28,5.97-.29,2.99,0,5.97.14,8.93.59,1.65.25,3.29.58,4.9.98-.71.15-1.42.34-2.1.57-1.39.47-2.74,1.09-3.99,1.86-.25.15-.56.46-.84.54-.26.07-.84,0-1.14.04-.98.1-1.94.26-2.91.4-6.95,1.03-13.96,1.68-20.97,2.23-3.58.28-7.19.58-10.79.65-3.56.06-6.98-.88-10.52-1.02-3.44-.13-6.73-.65-10.09-1.39-3.18-.7-6.52-1.27-9.62.11-1.57.7-2.73,1.69-4.54,1.63-1.89-.06-3.78-.28-5.67-.41-.91-.06-1.84.07-2.72.35-.58.18-1.77,1.08-2.35.98,1.45.25,2.93.24,4.41.4,1.68.18,3.31.48,4.95.9ZM46.6,53.37c2.42.38,4.86.51,7.28.92,2.38.41,4.73.96,7.15,1.19,2.45.23,4.89.34,7.36.39,4.86.1,9.77.15,14.6-.37.12-.01.24-.03.36-.04-.35.13-.7.26-1.05.4-2.59,1.01-5.03,1.4-7.78,1.62-5.34.42-10.92-.12-16.22-.8-2.65-.34-5.35-.78-7.93-1.5-1.28-.36-2.37-1.04-3.59-1.55-.3-.13-.6-.26-.9-.38.24.04.49.08.73.12ZM51.47,24.18c-1.88.25-3.76.18-5.71.32-2.7.2-5.33.84-8,1.26-1.56.25-3.14.44-4.72.59-.85-.11-1.68-.3-2.54-.32-3.67-.06-7.32.06-10.97-.43-3.93-.53-7.53-1.97-11.32-3.04-.77-.22-1.63-.43-2.51-.59.72-.27,1.43-.54,2.15-.8,1.8-.66,3.6-1.5,5.46-1.98,1.97-.51,4.1.29,6.07.57,7.82,1.13,15.73.38,23.57-.1,1.97-.12,3.93-.23,5.9-.27,1.68-.03,3.87-.32,5.33.69.79.55,1.43,1.21,2.16,1.77-.31.12-.62.25-.92.38-1.34.58-2.65,1.25-3.94,1.94ZM67.72,23.04c-.2.07-.39.15-.58.22-.32.12-.65.26-.97.39-1.6.52-3.21.96-4.85,1.29-2.39.48-4.77.65-7.16.79,4.56-1.57,9.35-2.6,14.21-3.06-.22.11-.44.23-.65.36ZM59.21,38.81c-1.71.09-3.37-.05-5.07-.19-2.97-.24-5.98-.03-8.96.03-3.06.06-6.17-.03-9.02-1.27-1.22-.54-2.34-1.17-3.69-1.31-1.06-.11-2.09-.02-3.12.11,2.12-.55,4.29-.81,6.54-.74,3.78.11,7.52.76,11.26,1.25,3.88.51,7.79.78,11.67,1.23,1.26.15,2.53.3,3.79.44-1.13.2-2.27.39-3.41.45Z"/>
          <g class="cls-1">
            <path class="cls-10" d="M92.64,35.96c-1.54-.21-3.09-.33-4.63-.37-.39,0-.78-.01-1.18-.01-.26.21-.52.41-.78.61.03.03.06.06.08.1.87-.02,1.74-.02,2.58,0,1.31.03,2.63.13,3.94.29,0-.21,0-.41-.01-.61Z"/>
            <path class="cls-10" d="M92.84,48.83c0-.22,0-.43,0-.65h0c-2.56-.13-4.94-.59-7.43-1.15-.21.14-.42.28-.64.41.32.06.64.13.96.21,2.4.54,4.69,1,7.11,1.18Z"/>
            <path class="cls-10" d="M85.55,54.05c2.46.02,4.91-.16,7.35-.35,0-.12,0-.23,0-.35,0-.14,0-.28,0-.42-.06,0-.12.02-.18.03-2.61.2-5.23.41-7.86.39-5-.04-10,.08-15-.02-4.9-.1-9.76-.29-14.66-.12-5.03.17-9.82-.62-14.62-2.12-.12-.04-.23-.07-.35-.11-.34.06-.68.11-1.02.15.69.22,1.38.44,2.07.66,4.8,1.5,9.58,2.29,14.62,2.12,4.9-.17,9.76.03,14.66.12,5,.1,10-.02,14.99.02Z"/>
            <path class="cls-10" d="M92.34,22.73c0-.14,0-.29-.01-.43-.32-.13-.65-.25-.97-.38-2.06-.78-4.23-1.48-6.43-1.9-1.06.09-2.12.19-3.17.31,3.51,0,7.04,1.06,10.3,2.29.1.04.19.07.29.11Z"/>
            <path class="cls-10" d="M59.21,38.81c-1.71.09-3.37-.05-5.07-.19-2.97-.24-5.98-.03-8.96.03-3.06.06-6.17-.03-9.02-1.27-.92-.4-1.77-.86-2.71-1.12-1.15.12-2.28.33-3.39.62,1.03-.14,2.06-.22,3.12-.11,1.35.14,2.47.78,3.69,1.31,2.84,1.25,5.96,1.34,9.02,1.27,2.98-.06,5.99-.28,8.96-.03,1.7.14,3.36.28,5.07.19,1.14-.06,2.28-.25,3.41-.45-1-.11-2.01-.23-3.01-.35-.36.04-.73.08-1.1.1Z"/>
            <path class="cls-10" d="M55.41,22.24c-1.34.58-2.65,1.25-3.94,1.94-1.88.25-3.76.18-5.71.32-2.7.2-5.33.84-8,1.26-1.56.25-3.14.44-4.72.59-.85-.11-1.68-.3-2.54-.32-3.67-.06-7.32.06-10.97-.43-3.93-.53-7.53-1.97-11.32-3.04-.29-.08-.58-.16-.89-.24-.31.12-.62.23-.92.34.88.16,1.74.37,2.51.59,3.79,1.07,7.38,2.51,11.32,3.04,3.65.49,7.3.37,10.97.43.86.02,1.69.21,2.54.32,1.58-.15,3.15-.34,4.72-.59,2.67-.43,5.3-1.06,8-1.26,1.95-.15,3.83-.08,5.71-.32,1.3-.69,2.6-1.37,3.94-1.94.3-.13.61-.26.92-.38-.28-.21-.54-.43-.8-.66-.28.11-.55.23-.82.34Z"/>
            <path class="cls-10" d="M61.33,24.94c-1.07.22-2.15.37-3.22.48-1.09.31-2.18.64-3.24,1.01,2.39-.15,4.77-.31,7.16-.8,1.63-.33,3.25-.78,4.85-1.29.32-.13.65-.26.97-.39.19-.08.39-.15.58-.22.21-.13.43-.25.65-.36-1.12.11-2.24.25-3.35.41-1.45.46-2.91.85-4.39,1.15Z"/>
            <path class="cls-10" d="M69.6,61.06c.83-.24,1.66-.48,2.49-.72.76-.22,1.52-.44,2.29-.66-.47-.05-.94-.11-1.42-.15-.31-.03-.61-.05-.92-.08-.22.06-.43.12-.65.19-1.27.37-2.54.73-3.81,1.1-.4.11-.81.2-1.21.32h3.23Z"/>
            <path class="cls-10" d="M13,61.06c.52-.17,1.04-.34,1.55-.52,2.22-.78,4.25-2.03,6.5-2.71,2.28-.68,4.56-.8,6.88-.21,2.28.58,4.46,1.6,6.65,2.44,1.06.41,2.15.73,3.25,1h3.34c-2.49-.29-4.95-.8-7.29-1.7-2.19-.84-4.37-1.86-6.65-2.44-2.32-.59-4.59-.47-6.88.21-2.25.67-4.29,1.93-6.5,2.71-1.29.45-2.59.85-3.91,1.21h3.06Z"/>
            <path class="cls-10" d="M2.68,47.1c1.34.28,2.79.14,4.16.23,1.89.12,3.78.35,5.67.41,1.81.06,2.96-.94,4.54-1.63,3.09-1.38,6.43-.81,9.62-.11,3.35.74,6.65,1.26,10.09,1.39,3.54.14,6.96,1.08,10.52,1.02,3.6-.06,7.2-.36,10.79-.65,7.01-.55,14.01-1.2,20.97-2.23.97-.14,1.94-.31,2.91-.4.3-.03.88.04,1.14-.04.28-.08.59-.38.84-.54,1.26-.77,2.6-1.38,3.99-1.86.68-.23,1.39-.42,2.1-.57-.61-.15-1.22-.29-1.84-.42-.32.09-.64.19-.96.29-1.39.47-2.74,1.09-3.99,1.86-.25.15-.56.46-.84.54-.26.07-.84,0-1.14.04-.98.1-1.94.26-2.91.4-6.95,1.03-13.96,1.68-20.97,2.23-3.58.28-7.19.58-10.79.65-3.56.06-6.98-.88-10.52-1.02-3.44-.13-6.73-.65-10.09-1.39-3.18-.7-6.52-1.27-9.62.11-1.57.7-2.73,1.69-4.54,1.63-1.7-.06-3.4-.34-5.1-.37-1.24-.02-2.84.68-4.03.43Z"/>
            <path class="cls-10" d="M1.6,38.93c0-.16.02-.32.03-.47.06-.85-.03-2.11.12-3.25,1.5.02,2.99.12,4.44.33,4.03.58,7.95,2.52,12.09,2.13,3.41-.32,6.42-2.29,9.66-3.23,3.48-1.01,7.14-.58,10.66-.02,7.77,1.25,15.62,2.74,23.52,2.64,3.94-.05,7.91-.23,11.85-.49,3.43-.23,7.41-.25,10.29-2.36,1.44-1.05,2.73-2.24,4.31-3.09.62-.33,1.26-.62,1.92-.87-.96.09-1.92.2-2.87.32-1.46.84-2.7,1.95-4.05,2.94-2.88,2.11-6.86,2.13-10.29,2.36-3.94.26-7.91.44-11.85.49-7.9.1-15.75-1.39-23.52-2.64-3.52-.56-7.18-.99-10.66.02-3.24.94-6.25,2.92-9.66,3.23-4.14.38-8.06-1.55-12.09-2.13-1.46-.21-2.95-.32-4.44-.33-.15,1.13-.06,2.4-.12,3.25-.02.31-.04.61-.05.92.16.06.33.11.49.17.08.03.16.06.24.08Z"/>
            <path class="cls-10" d="M53.7,10.67c-.69.13-1.38.24-2.09.3-.58.05-1.16.08-1.74.1.5.05.99.09,1.49.13,6.3.47,12.74.34,19.04-.03,3.19-.19,6.37-.46,9.54-.81,1.59-.17,3.17-.41,4.75-.55.75-.07,1.53-.16,2.28-.09,1.69,1.43,2.89,2.45,3.74,3.26-.86-.92-2.23-2.09-4.44-3.96-.75-.07-1.53.02-2.28.09-1.59.14-3.17.38-4.75.55-3.17.35-6.35.62-9.54.81-5.29.31-10.69.45-16.01.21Z"/>
            <path class="cls-10" d="M83,56.57c.35-.14.7-.27,1.05-.4-.12.01-.24.03-.37.04-1.04.11-2.09.19-3.13.26-1.96.58-3.91.85-6.03,1.02-5.34.42-10.92-.12-16.22-.8-2.65-.34-5.35-.78-7.93-1.5-.87-.24-1.65-.63-2.44-1.02-.21-.03-.41-.06-.62-.09-.24-.04-.49-.08-.73-.12.3.13.6.26.9.38,1.21.51,2.31,1.19,3.59,1.55,2.58.72,5.28,1.16,7.93,1.5,5.3.68,10.88,1.22,16.22.8,2.75-.22,5.19-.61,7.78-1.62Z"/>
            <path class="cls-10" d="M1.86,23.85c-.02-.61-.04-1.23-.06-1.86,2.56-1.13,5.2-2.11,7.76-3.15,1.85-.75,3.76-1.77,5.8-1.8,2.2-.04,4.45.66,6.64.9,8.09.87,16.2-.07,24.27-.75,1.96-.17,3.92-.39,5.88-.51,1.9-.11,3.66.04,5.24,1.21,1.34.99,2.16,2.05,3.95,2.03,1.6-.02,3.2-.58,4.7-1.08,3.54-1.2,7.05-2.51,10.56-3.79-1.09.11-2.18.19-3.27.24-2.65.97-5.31,1.94-7.99,2.85-1.5.51-3.1,1.07-4.7,1.08-1.8.02-2.61-1.04-3.95-2.03-1.58-1.17-3.34-1.32-5.24-1.21-1.96.12-3.92.34-5.88.51-8.07.68-16.17,1.62-24.27.75-2.19-.24-4.44-.93-6.64-.9-2.04.04-3.95,1.05-5.8,1.8-2.56,1.04-5.2,2.02-7.76,3.15.02.88.06,1.74.07,2.57.23,0,.45,0,.68,0Z"/>
            <path class="cls-10" d="M2.32,15.66c.05-.16.1-.31.17-.46.99-.6,1.99-1.15,2.95-1.65,2.88-1.52,5.94-2.48,9.16-2.95,3.06-.45,6.14-.67,9.2-1.09,2.95-.4,5.98-1.09,8.97-.78.54.06,1.07.12,1.61.18,3.52-.33,7.09-.35,10.6-.44,2.19-.05,4.4-.09,6.56-.55,7.05-1.51,13.72-4.45,20.27-7.42-4.71.76-9.77,2.92-14.24,4.6-2.21.83-4.42,1.63-6.73,2.13-2.15.46-4.36.5-6.56.55-3.51.09-7.08.11-10.6.44-.54-.07-1.07-.13-1.61-.18-2.99-.31-6.01.38-8.97.78-3.06.41-6.15.64-9.2,1.09-3.22.47-6.28,1.44-9.16,2.95-.96.51-1.97,1.05-2.95,1.65-.07.15-.12.3-.17.46-.13.44-.23.9-.3,1.37.33-.21.66-.43,1-.65,0,0,0-.02,0-.02Z"/>
            <path class="cls-10" d="M19.63,12.54c1.7-.08,3.42-.13,5.1-.43.82-.15,1.58-.4,2.31-.71-1.21.09-2.43.18-3.62.17-.17,0-.33,0-.5,0-1.33.16-2.67.21-4,.27-3.74.18-7.23.85-10.72,2.21-1.46.57-2.9,1.17-4.35,1.77-.62.39-1.24.79-1.85,1.19.03-.16.06-.31.09-.47-.29.12-.58.23-.87.35-.03.29-.06.58-.08.87,3.74-1.5,7.45-3.42,11.33-4.17,2.32-.61,4.69-.94,7.15-1.06Z"/>
          </g>
          <path class="cls-8" d="M26.02,7.25c9.05-.86,17.79-2.07,26.31-5.42-1.08.42-4.46-.71-5.74-.78-1.82-.11-3.64-.06-5.47-.02-4.26.1-8.52.27-12.78.45-8.64.37-17.28.8-25.94.77-1.1,0-1.15-.39-1.63.53-.64,1.23.12,3.94.89,4.96,1.46,1.91,4.16.75,4.6,3.33,5.95-3.03,13.24-3.2,19.75-3.82Z"/>
          <path class="cls-3" d="M51.1,19.95c-1.61-.19-6,2.63-7.86,3.09-2.94.73-5.92,1.02-8.93,1.23-2.65.19-4.82.65-7.47.18-3.28-.58-6.53-1.3-9.82-1.86-2.12-.36-4.84.07-6.68-.93,3.74-2.09,6.93-1.12,10.96-.67,4.95.54,9.81.06,14.76-.15,4.84-.2,10.24-1.45,15.03-.89Z"/>
          <path class="cls-7" d="M17.57,28.81c-2.48.1-12.29-3.7-13.49-2.06-1.36,1.87,5.93,3.58,7.21,3.8-1.32.97-3,1.69-4.56,2.41,4.85,4.8,14.81,1.24,20.16-.46,4.91-1.56,10.52-1.05,15.61-1.05,3.9,0,9.73.85,13.3-1.22-3.07-.05-6.22-.77-9.3-1.02-8.45-.69-17.09.31-28.93-.42Z"/>
          <path class="cls-5" d="M23.11,42.07c-.35.03-.59.09-.7.19,2.72-2.58,7.18-4.19,10.81-3.02,4.55,1.47,8.7,2.11,13.46,2.11,1.5,0,3.5-.36,4.96-.02,1.59.38,2.96,1.42,4.73,1.71,6.4,1.05,12.03-1.46,18.28-1.23-2.57,1.42-6.22,1.8-9.04,2.4-5.06,1.08-10.19,2.07-15.39,2.15-5.15.07-10.5-.72-15.51-1.91-1.82-.43-3.44-1.32-5.23-1.75-.8-.19-4.7-.77-6.37-.63Z"/>
          <path class="cls-6" d="M31.13,51.93c-2.22-.5-4.47-.91-6.56-1.5-1.73-.49-3.51-1.29-5.34-1.23-1.67.06-3.1.92-4.74,1.15-.96.13-10.53-.8-10.57-.54-.33,2.55-.22,5.63.58,8.08,5.6-4.54,17.74-4.23,24.37-2.95,4.49.87,15.77,6.46,19.54,2.11-1.44,1.66-9.56-2.51-11.11-3.22-1.9-.87-4.02-1.42-6.16-1.9Z"/>
          <path class="cls-4" d="M64.4,9.17c-1.77.29-3.53.6-5.26.94,1.15-1.1,2.7-1.28,4.1-1.9,1.29-.56,2.2-1.44,3.5-2.02,3.12-1.38,6.36-2.48,9.48-3.86,3.55-1.57,8.35-2.16,12.09-.84-1.37-.48-1.66,1.42-1.27,2.07.68,1.15,2.74,1.19,3.33,2.52-4.05-1.12-10.4.49-14.5,1.22-3.78.68-7.66,1.23-11.47,1.85Z"/>
        </g>
      </g>
    </g>
  </g>
</svg>