<?xml version="1.0" encoding="UTF-8"?>
<svg id="Layer_1" xmlns="http://www.w3.org/2000/svg" version="1.1" xmlns:xlink="http://www.w3.org/1999/xlink" viewBox="0 0 399 177.9">
  <!-- Generator: Adobe Illustrator 29.0.0, SVG Export Plug-In . SVG Version: 2.1.0 Build 186)  -->
  <defs>
    <style>
      .st0 {
        fill: url(#linear-gradient22);
      }

      .st0, .st1, .st2, .st3, .st4, .st5, .st6, .st7, .st8, .st9, .st10, .st11, .st12, .st13, .st14, .st15, .st16, .st17, .st18, .st19, .st20, .st21, .st22, .st23, .st24, .st25, .st26, .st27, .st28, .st29, .st30, .st31, .st32, .st33, .st34, .st35, .st36, .st37, .st38, .st39, .st40, .st41, .st42, .st43, .st44, .st45, .st46, .st47, .st48, .st49, .st50, .st51, .st52, .st53, .st54, .st55, .st56, .st57, .st58, .st59, .st60, .st61 {
        isolation: isolate;
      }

      .st0, .st1, .st2, .st3, .st5, .st6, .st7, .st8, .st9, .st10, .st11, .st12, .st13, .st14, .st15, .st16, .st17, .st19, .st20, .st21, .st22, .st23, .st24, .st25, .st26, .st27, .st29, .st31, .st32, .st33, .st34, .st35, .st36, .st37, .st38, .st39, .st40, .st41, .st42, .st43, .st44, .st45, .st46, .st47, .st49, .st50, .st52, .st53, .st54, .st55, .st56, .st57, .st58, .st59, .st61 {
        mix-blend-mode: multiply;
      }

      .st0, .st1, .st2, .st3, .st5, .st6, .st7, .st8, .st9, .st10, .st11, .st12, .st13, .st15, .st16, .st22, .st23, .st24, .st25, .st26, .st29, .st31, .st32, .st33, .st34, .st35, .st39, .st40, .st41, .st42, .st43, .st44, .st45, .st46, .st47, .st49, .st50, .st52, .st53, .st54, .st55, .st56, .st57, .st58, .st59, .st61 {
        opacity: .3;
      }

      .st1 {
        fill: url(#linear-gradient35);
      }

      .st2 {
        fill: url(#linear-gradient6);
      }

      .st3 {
        fill: url(#linear-gradient18);
      }

      .st4 {
        fill: url(#linear-gradient59);
      }

      .st4, .st62, .st18, .st30, .st48, .st51 {
        mix-blend-mode: screen;
      }

      .st5 {
        fill: url(#linear-gradient25);
      }

      .st6 {
        fill: url(#linear-gradient46);
      }

      .st7 {
        fill: url(#linear-gradient16);
      }

      .st8 {
        fill: url(#linear-gradient38);
      }

      .st9 {
        fill: url(#linear-gradient45);
      }

      .st10 {
        fill: url(#linear-gradient7);
      }

      .st11 {
        fill: url(#linear-gradient24);
      }

      .st12 {
        fill: url(#linear-gradient32);
      }

      .st62 {
        opacity: .4;
      }

      .st13 {
        fill: url(#linear-gradient28);
      }

      .st14 {
        fill: url(#linear-gradient48);
      }

      .st14, .st17, .st19, .st20, .st21, .st36, .st37, .st38 {
        opacity: .1;
      }

      .st15 {
        fill: url(#linear-gradient10);
      }

      .st16 {
        fill: url(#linear-gradient1);
      }

      .st17 {
        fill: url(#linear-gradient51);
      }

      .st18 {
        fill: url(#linear-gradient58);
      }

      .st19 {
        fill: url(#linear-gradient47);
      }

      .st20 {
        fill: url(#linear-gradient54);
      }

      .st21 {
        fill: url(#linear-gradient53);
      }

      .st22 {
        fill: url(#linear-gradient41);
      }

      .st23 {
        fill: url(#linear-gradient39);
      }

      .st24 {
        fill: url(#linear-gradient36);
      }

      .st25 {
        fill: url(#linear-gradient34);
      }

      .st26 {
        fill: url(#linear-gradient11);
      }

      .st27 {
        opacity: 0;
      }

      .st27, .st63 {
        fill: #7a2900;
      }

      .st29 {
        fill: url(#linear-gradient30);
      }

      .st30 {
        fill: url(#linear-gradient56);
      }

      .st31 {
        fill: url(#linear-gradient12);
      }

      .st32 {
        fill: url(#linear-gradient26);
      }

      .st33 {
        fill: url(#linear-gradient40);
      }

      .st34 {
        fill: url(#linear-gradient33);
      }

      .st35 {
        fill: url(#linear-gradient4);
      }

      .st36 {
        fill: url(#linear-gradient50);
      }

      .st37 {
        fill: url(#linear-gradient49);
      }

      .st64 {
        opacity: .5;
      }

      .st38 {
        fill: url(#linear-gradient52);
      }

      .st39 {
        fill: url(#linear-gradient15);
      }

      .st40 {
        fill: url(#linear-gradient9);
      }

      .st41 {
        fill: url(#linear-gradient20);
      }

      .st42 {
        fill: url(#linear-gradient31);
      }

      .st43 {
        fill: url(#linear-gradient42);
      }

      .st44 {
        fill: url(#linear-gradient3);
      }

      .st45 {
        fill: url(#linear-gradient8);
      }

      .st46 {
        fill: url(#linear-gradient23);
      }

      .st47 {
        fill: url(#linear-gradient5);
      }

      .st48 {
        fill: url(#linear-gradient57);
      }

      .st49 {
        fill: url(#linear-gradient13);
      }

      .st50 {
        fill: url(#linear-gradient19);
      }

      .st51 {
        fill: url(#linear-gradient55);
      }

      .st52 {
        fill: url(#linear-gradient44);
      }

      .st53 {
        fill: url(#linear-gradient14);
      }

      .st54 {
        fill: url(#linear-gradient29);
      }

      .st65, .st60 {
        fill: #ffc779;
      }

      .st55 {
        fill: url(#linear-gradient17);
      }

      .st56 {
        fill: url(#linear-gradient37);
      }

      .st57 {
        fill: url(#linear-gradient43);
      }

      .st66 {
        fill: url(#linear-gradient);
      }

      .st58 {
        fill: url(#linear-gradient2);
      }

      .st59 {
        fill: url(#linear-gradient27);
      }

      .st60 {
        opacity: .5;
      }

      .st61 {
        fill: url(#linear-gradient21);
      }
    </style>
    <linearGradient id="linear-gradient" x1="216.8" y1="5.3" x2="184.1" y2="184.4" gradientTransform="translate(0 180) scale(1 -1)" gradientUnits="userSpaceOnUse">
      <stop offset="0" stop-color="#b43e23"/>
      <stop offset="1" stop-color="#f59113"/>
    </linearGradient>
    <linearGradient id="linear-gradient1" x1="392.9" y1="101" x2="392.7" y2="102.2" gradientTransform="translate(0 180) scale(1 -1)" gradientUnits="userSpaceOnUse">
      <stop offset="0" stop-color="#b44320"/>
      <stop offset="1" stop-color="#ff9215"/>
    </linearGradient>
    <linearGradient id="linear-gradient2" x1="75.3" y1="59.7" x2="71.2" y2="84.8" gradientTransform="translate(0 180) scale(1 -1)" gradientUnits="userSpaceOnUse">
      <stop offset="0" stop-color="#b44320"/>
      <stop offset="1" stop-color="#ff9215"/>
    </linearGradient>
    <linearGradient id="linear-gradient3" x1="283.7" y1="103" x2="280.4" y2="123" gradientTransform="translate(0 180) scale(1 -1)" gradientUnits="userSpaceOnUse">
      <stop offset="0" stop-color="#b44320"/>
      <stop offset="1" stop-color="#ff9215"/>
    </linearGradient>
    <linearGradient id="linear-gradient4" x1="85.1" y1="123.4" x2="82.4" y2="139.8" gradientTransform="translate(0 180) scale(1 -1)" gradientUnits="userSpaceOnUse">
      <stop offset="0" stop-color="#b44320"/>
      <stop offset="1" stop-color="#ff9215"/>
    </linearGradient>
    <linearGradient id="linear-gradient5" x1="93.2" y1="65.1" x2="88.2" y2="96" gradientTransform="translate(0 180) scale(1 -1)" gradientUnits="userSpaceOnUse">
      <stop offset="0" stop-color="#b44320"/>
      <stop offset="1" stop-color="#ff9215"/>
    </linearGradient>
    <linearGradient id="linear-gradient6" x1="292.9" y1="16.5" x2="290.8" y2="30" gradientTransform="translate(0 180) scale(1 -1)" gradientUnits="userSpaceOnUse">
      <stop offset="0" stop-color="#b44320"/>
      <stop offset="1" stop-color="#ff9215"/>
    </linearGradient>
    <linearGradient id="linear-gradient7" x1="3.5" y1="100.6" x2="3.4" y2="100.9" gradientTransform="translate(0 180) scale(1 -1)" gradientUnits="userSpaceOnUse">
      <stop offset="0" stop-color="#b44320"/>
      <stop offset="1" stop-color="#ff9215"/>
    </linearGradient>
    <linearGradient id="linear-gradient8" x1="371.2" y1="108.8" x2="370.2" y2="115.4" gradientTransform="translate(0 180) scale(1 -1)" gradientUnits="userSpaceOnUse">
      <stop offset="0" stop-color="#b44320"/>
      <stop offset="1" stop-color="#ff9215"/>
    </linearGradient>
    <linearGradient id="linear-gradient9" x1="150.9" y1="95.3" x2="150.8" y2="95.9" gradientTransform="translate(0 180) scale(1 -1)" gradientUnits="userSpaceOnUse">
      <stop offset="0" stop-color="#b44320"/>
      <stop offset="1" stop-color="#ff9215"/>
    </linearGradient>
    <linearGradient id="linear-gradient10" x1="163.7" y1="55" x2="158.2" y2="89.3" gradientTransform="translate(0 180) scale(1 -1)" gradientUnits="userSpaceOnUse">
      <stop offset="0" stop-color="#b44320"/>
      <stop offset="1" stop-color="#ff9215"/>
    </linearGradient>
    <linearGradient id="linear-gradient11" x1="242.2" y1="20.7" x2="239" y2="39.7" gradientTransform="translate(0 180) scale(1 -1)" gradientUnits="userSpaceOnUse">
      <stop offset="0" stop-color="#b44320"/>
      <stop offset="1" stop-color="#ff9215"/>
    </linearGradient>
    <linearGradient id="linear-gradient12" x1="193" y1="-5.7" x2="185.3" y2="41.9" gradientTransform="translate(0 180) scale(1 -1)" gradientUnits="userSpaceOnUse">
      <stop offset="0" stop-color="#b44320"/>
      <stop offset="1" stop-color="#ff9215"/>
    </linearGradient>
    <linearGradient id="linear-gradient13" x1="194.5" y1="6.3" x2="192.1" y2="20.8" gradientTransform="translate(0 180) scale(1 -1)" gradientUnits="userSpaceOnUse">
      <stop offset="0" stop-color="#b44320"/>
      <stop offset="1" stop-color="#ff9215"/>
    </linearGradient>
    <linearGradient id="linear-gradient14" x1="83.8" y1="10.8" x2="82.5" y2="18.7" gradientTransform="translate(0 180) scale(1 -1)" gradientUnits="userSpaceOnUse">
      <stop offset="0" stop-color="#b44320"/>
      <stop offset="1" stop-color="#ff9215"/>
    </linearGradient>
    <linearGradient id="linear-gradient15" x1="7.7" y1="13.5" x2="7.6" y2="14.2" gradientTransform="translate(0 180) scale(1 -1)" gradientUnits="userSpaceOnUse">
      <stop offset="0" stop-color="#b44320"/>
      <stop offset="1" stop-color="#ff9215"/>
    </linearGradient>
    <linearGradient id="linear-gradient16" x1="223.7" y1="103.4" x2="222.4" y2="111.2" gradientTransform="translate(0 180) scale(1 -1)" gradientUnits="userSpaceOnUse">
      <stop offset="0" stop-color="#b44320"/>
      <stop offset="1" stop-color="#ff9215"/>
    </linearGradient>
    <linearGradient id="linear-gradient17" x1="205.8" y1="9.9" x2="196.9" y2="64.3" gradientTransform="translate(0 180) scale(1 -1)" gradientUnits="userSpaceOnUse">
      <stop offset="0" stop-color="#b44320"/>
      <stop offset="1" stop-color="#ff9215"/>
    </linearGradient>
    <linearGradient id="linear-gradient18" x1="107.9" y1="38.6" x2="103.9" y2="63.4" gradientTransform="translate(0 180) scale(1 -1)" gradientUnits="userSpaceOnUse">
      <stop offset="0" stop-color="#b44320"/>
      <stop offset="1" stop-color="#ff9215"/>
    </linearGradient>
    <linearGradient id="linear-gradient19" x1="136.1" y1="107.4" x2="131.1" y2="138" gradientTransform="translate(0 180) scale(1 -1)" gradientUnits="userSpaceOnUse">
      <stop offset="0" stop-color="#b44320"/>
      <stop offset="1" stop-color="#ff9215"/>
    </linearGradient>
    <linearGradient id="linear-gradient20" x1="21.7" y1="144.8" x2="21" y2="149" gradientTransform="translate(0 180) scale(1 -1)" gradientUnits="userSpaceOnUse">
      <stop offset="0" stop-color="#b44320"/>
      <stop offset="1" stop-color="#ff9215"/>
    </linearGradient>
    <linearGradient id="linear-gradient21" x1="202.7" y1="77.4" x2="194.5" y2="127.7" gradientTransform="translate(0 180) scale(1 -1)" gradientUnits="userSpaceOnUse">
      <stop offset="0" stop-color="#b44320"/>
      <stop offset="1" stop-color="#ff9215"/>
    </linearGradient>
    <linearGradient id="linear-gradient22" x1="212.8" y1="130.8" x2="208.5" y2="157.3" gradientTransform="translate(0 180) scale(1 -1)" gradientUnits="userSpaceOnUse">
      <stop offset="0" stop-color="#b44320"/>
      <stop offset="1" stop-color="#ff9215"/>
    </linearGradient>
    <linearGradient id="linear-gradient23" x1="57.1" y1="150.4" x2="55.1" y2="162.8" gradientTransform="translate(0 180) scale(1 -1)" gradientUnits="userSpaceOnUse">
      <stop offset="0" stop-color="#b44320"/>
      <stop offset="1" stop-color="#ff9215"/>
    </linearGradient>
    <linearGradient id="linear-gradient24" x1="203.2" y1="143.3" x2="195.6" y2="189.8" gradientTransform="translate(0 180) scale(1 -1)" gradientUnits="userSpaceOnUse">
      <stop offset="0" stop-color="#b44320"/>
      <stop offset="1" stop-color="#ff9215"/>
    </linearGradient>
    <linearGradient id="linear-gradient25" x1="375.1" y1="163.1" x2="374.5" y2="166.6" gradientTransform="translate(0 180) scale(1 -1)" gradientUnits="userSpaceOnUse">
      <stop offset="0" stop-color="#b44320"/>
      <stop offset="1" stop-color="#ff9215"/>
    </linearGradient>
    <linearGradient id="linear-gradient26" x1="284.7" y1="154.1" x2="279.6" y2="185.6" gradientTransform="translate(0 180) scale(1 -1)" gradientUnits="userSpaceOnUse">
      <stop offset="0" stop-color="#b44320"/>
      <stop offset="1" stop-color="#ff9215"/>
    </linearGradient>
    <linearGradient id="linear-gradient27" x1="76.4" y1="165.8" x2="74.3" y2="178.6" gradientTransform="translate(0 180) scale(1 -1)" gradientUnits="userSpaceOnUse">
      <stop offset="0" stop-color="#b44320"/>
      <stop offset="1" stop-color="#ff9215"/>
    </linearGradient>
    <linearGradient id="linear-gradient28" x1="190" y1="114" x2="182.9" y2="157.6" gradientTransform="translate(0 180) scale(1 -1)" gradientUnits="userSpaceOnUse">
      <stop offset="0" stop-color="#b44320"/>
      <stop offset="1" stop-color="#ff9215"/>
    </linearGradient>
    <linearGradient id="linear-gradient29" x1="204" y1="116.6" x2="194.7" y2="174.3" gradientTransform="translate(0 180) scale(1 -1)" gradientUnits="userSpaceOnUse">
      <stop offset="0" stop-color="#b44320"/>
      <stop offset="1" stop-color="#ff9215"/>
    </linearGradient>
    <linearGradient id="linear-gradient30" x1="340" y1="49.4" x2="337.3" y2="66" gradientTransform="translate(0 180) scale(1 -1)" gradientUnits="userSpaceOnUse">
      <stop offset="0" stop-color="#b44320"/>
      <stop offset="1" stop-color="#ff9215"/>
    </linearGradient>
    <linearGradient id="linear-gradient31" x1="58" y1="24.1" x2="55.1" y2="41.8" gradientTransform="translate(0 180) scale(1 -1)" gradientUnits="userSpaceOnUse">
      <stop offset="0" stop-color="#b44320"/>
      <stop offset="1" stop-color="#ff9215"/>
    </linearGradient>
    <linearGradient id="linear-gradient32" x1="374.3" y1="19.2" x2="373.1" y2="26.4" gradientTransform="translate(0 180) scale(1 -1)" gradientUnits="userSpaceOnUse">
      <stop offset="0" stop-color="#b44320"/>
      <stop offset="1" stop-color="#ff9215"/>
    </linearGradient>
    <linearGradient id="linear-gradient33" x1="180.1" y1="9.8" x2="179.7" y2="12" gradientTransform="translate(0 180) scale(1 -1)" gradientUnits="userSpaceOnUse">
      <stop offset="0" stop-color="#b44320"/>
      <stop offset="1" stop-color="#ff9215"/>
    </linearGradient>
    <linearGradient id="linear-gradient34" x1="321.1" y1="4.5" x2="319.2" y2="16.3" gradientTransform="translate(0 180) scale(1 -1)" gradientUnits="userSpaceOnUse">
      <stop offset="0" stop-color="#b44320"/>
      <stop offset="1" stop-color="#ff9215"/>
    </linearGradient>
    <linearGradient id="linear-gradient35" x1="379" y1="28" x2="378.2" y2="33" gradientTransform="translate(0 180) scale(1 -1)" gradientUnits="userSpaceOnUse">
      <stop offset="0" stop-color="#b44320"/>
      <stop offset="1" stop-color="#ff9215"/>
    </linearGradient>
    <linearGradient id="linear-gradient36" x1="327.5" y1="86.6" x2="323.7" y2="109.6" gradientTransform="translate(0 180) scale(1 -1)" gradientUnits="userSpaceOnUse">
      <stop offset="0" stop-color="#b44320"/>
      <stop offset="1" stop-color="#ff9215"/>
    </linearGradient>
    <linearGradient id="linear-gradient37" x1="280.9" y1="72.6" x2="275" y2="109.1" gradientTransform="translate(0 180) scale(1 -1)" gradientUnits="userSpaceOnUse">
      <stop offset="0" stop-color="#b44320"/>
      <stop offset="1" stop-color="#ff9215"/>
    </linearGradient>
    <linearGradient id="linear-gradient38" x1="327.2" y1="64.9" x2="324" y2="84.6" gradientTransform="translate(0 180) scale(1 -1)" gradientUnits="userSpaceOnUse">
      <stop offset="0" stop-color="#b44320"/>
      <stop offset="1" stop-color="#ff9215"/>
    </linearGradient>
    <linearGradient id="linear-gradient39" x1="4.5" y1="36.3" x2="4.1" y2="38.7" gradientTransform="translate(0 180) scale(1 -1)" gradientUnits="userSpaceOnUse">
      <stop offset="0" stop-color="#b44320"/>
      <stop offset="1" stop-color="#ff9215"/>
    </linearGradient>
    <linearGradient id="linear-gradient40" x1="212.8" y1="48" x2="208.5" y2="74.3" gradientTransform="translate(0 180) scale(1 -1)" gradientUnits="userSpaceOnUse">
      <stop offset="0" stop-color="#b44320"/>
      <stop offset="1" stop-color="#ff9215"/>
    </linearGradient>
    <linearGradient id="linear-gradient41" x1="137.2" y1="152.1" x2="134.4" y2="169.3" gradientTransform="translate(0 180) scale(1 -1)" gradientUnits="userSpaceOnUse">
      <stop offset="0" stop-color="#b44320"/>
      <stop offset="1" stop-color="#ff9215"/>
    </linearGradient>
    <linearGradient id="linear-gradient42" x1="359.3" y1="156.5" x2="357.8" y2="165.6" gradientTransform="translate(0 180) scale(1 -1)" gradientUnits="userSpaceOnUse">
      <stop offset="0" stop-color="#b44320"/>
      <stop offset="1" stop-color="#ff9215"/>
    </linearGradient>
    <linearGradient id="linear-gradient43" x1="381.9" y1="157" x2="380.6" y2="165.4" gradientTransform="translate(0 180) scale(1 -1)" gradientUnits="userSpaceOnUse">
      <stop offset="0" stop-color="#b44320"/>
      <stop offset="1" stop-color="#ff9215"/>
    </linearGradient>
    <linearGradient id="linear-gradient44" x1="140.8" y1="153.1" x2="138.9" y2="164.6" gradientTransform="translate(0 180) scale(1 -1)" gradientUnits="userSpaceOnUse">
      <stop offset="0" stop-color="#b44320"/>
      <stop offset="1" stop-color="#ff9215"/>
    </linearGradient>
    <linearGradient id="linear-gradient45" x1="397.7" y1="138" x2="397.6" y2="138.4" gradientTransform="translate(0 180) scale(1 -1)" gradientUnits="userSpaceOnUse">
      <stop offset="0" stop-color="#b44320"/>
      <stop offset="1" stop-color="#ff9215"/>
    </linearGradient>
    <linearGradient id="linear-gradient46" x1="359.7" y1="122.7" x2="357.7" y2="135.1" gradientTransform="translate(0 180) scale(1 -1)" gradientUnits="userSpaceOnUse">
      <stop offset="0" stop-color="#b44320"/>
      <stop offset="1" stop-color="#ff9215"/>
    </linearGradient>
    <linearGradient id="linear-gradient47" x1="217.4" y1="2.3" x2="188.5" y2="160.8" gradientTransform="translate(0 180) scale(1 -1)" gradientUnits="userSpaceOnUse">
      <stop offset="0" stop-color="#b44320"/>
      <stop offset="1" stop-color="#ff9215"/>
    </linearGradient>
    <linearGradient id="linear-gradient48" x1="247.4" y1="-103.1" x2="194.9" y2="184.4" gradientTransform="translate(0 180) scale(1 -1)" gradientUnits="userSpaceOnUse">
      <stop offset="0" stop-color="#b44320"/>
      <stop offset="1" stop-color="#ff9215"/>
    </linearGradient>
    <linearGradient id="linear-gradient49" x1="295.4" y1="-3.8" x2="253.9" y2="223.4" gradientTransform="translate(0 180) scale(1 -1)" gradientUnits="userSpaceOnUse">
      <stop offset="0" stop-color="#b44320"/>
      <stop offset="1" stop-color="#ff9215"/>
    </linearGradient>
    <linearGradient id="linear-gradient50" x1="208.5" y1="-6.5" x2="166.6" y2="222.9" gradientTransform="translate(0 180) scale(1 -1)" gradientUnits="userSpaceOnUse">
      <stop offset="0" stop-color="#b44320"/>
      <stop offset="1" stop-color="#ff9215"/>
    </linearGradient>
    <linearGradient id="linear-gradient51" x1="241.2" y1="23.8" x2="191.7" y2="294.6" gradientTransform="translate(0 180) scale(1 -1)" gradientUnits="userSpaceOnUse">
      <stop offset="0" stop-color="#b44320"/>
      <stop offset="1" stop-color="#ff9215"/>
    </linearGradient>
    <linearGradient id="linear-gradient52" x1="233.5" y1="-63" x2="181.9" y2="219.3" gradientTransform="translate(0 180) scale(1 -1)" gradientUnits="userSpaceOnUse">
      <stop offset="0" stop-color="#b44320"/>
      <stop offset="1" stop-color="#ff9215"/>
    </linearGradient>
    <linearGradient id="linear-gradient53" x1="351.3" y1="151.6" x2="361.8" y2="76.6" gradientTransform="translate(0 180) scale(1 -1)" gradientUnits="userSpaceOnUse">
      <stop offset="0" stop-color="#b44320"/>
      <stop offset="1" stop-color="#ff9215"/>
    </linearGradient>
    <linearGradient id="linear-gradient54" x1="375.5" y1="153.9" x2="386.3" y2="77" gradientTransform="translate(0 180) scale(1 -1)" gradientUnits="userSpaceOnUse">
      <stop offset="0" stop-color="#b44320"/>
      <stop offset="1" stop-color="#ff9215"/>
    </linearGradient>
    <linearGradient id="linear-gradient55" x1="344.8" y1="128.4" x2="373.3" y2="128.4" gradientTransform="translate(0 180) scale(1 -1)" gradientUnits="userSpaceOnUse">
      <stop offset="0" stop-color="#b44320"/>
      <stop offset="1" stop-color="#ff9215"/>
    </linearGradient>
    <linearGradient id="linear-gradient56" x1="15" y1="82.9" x2="75.4" y2="82.9" gradientTransform="translate(0 180) scale(1 -1)" gradientUnits="userSpaceOnUse">
      <stop offset="0" stop-color="#b44320"/>
      <stop offset="1" stop-color="#ff9215"/>
    </linearGradient>
    <linearGradient id="linear-gradient57" x1="38.7" y1="86.6" x2="56.6" y2="86.6" gradientTransform="translate(0 180) scale(1 -1)" gradientUnits="userSpaceOnUse">
      <stop offset="0" stop-color="#b44320"/>
      <stop offset="1" stop-color="#ff9215"/>
    </linearGradient>
    <linearGradient id="linear-gradient58" x1="343.7" y1="26.4" x2="363.5" y2="26.4" gradientTransform="translate(0 180) scale(1 -1)" gradientUnits="userSpaceOnUse">
      <stop offset="0" stop-color="#b44320"/>
      <stop offset="1" stop-color="#ff9215"/>
    </linearGradient>
    <linearGradient id="linear-gradient59" x1="56.1" y1="21.4" x2="84.7" y2="21.4" gradientTransform="translate(0 180) scale(1 -1)" gradientUnits="userSpaceOnUse">
      <stop offset="0" stop-color="#b44320"/>
      <stop offset="1" stop-color="#ff9215"/>
    </linearGradient>
  </defs>
  <g class="st28">
    <g id="Layer_2">
      <g id="Layer_1-2">
        <g>
          <path class="st63" d="M394.4,171.1c-5,4.6-14.8,2.6-22.3,2.8-1.9,0-16.7,1.9-12.4-1.4-2.4.7-4.6,2.5-7.1,2.9-.9.1-2.9-.6-4.4-.6-4.5.2-8.5,1.4-13.2,1.6-3.2.1-5.4-.7-7.7-.7-3.7,0-6.6,2-10.1,2.1-4.5.2-9.9-1.1-14.3-1.5-6.3-.6-12.7-1.6-19.1-1.7-11.8-.2-23.5-.7-35.3-.7-17.7,0-36.9,1.4-54.4-.7-3.9-.5-5.6-1.1-10-.5-13,1.7-26.2,2.2-39,0,.7.2,1.1.7,1.6.9-4,1-10.3.5-14.5.5-5.8-.1-11.6-.2-17.4-.2-29,0-58,1.4-87.1.5-3.8-.1-7.7-.4-11.5-.6-1.1,0-8.8.2-9.4,0-2.4-.8-3.3-3.2-2.6-4.7h0c.3-.7,1.7-1,2.4-1.6-5.4-1.9-4-9-3.7-11.9.4-4.1,1.9-8.2,1.6-12.3-.3-4.8-2.8-12-.2-16.7,2.2-3.9,3.6-3.6,9.4-5.5,0,0,.5-.3.5-.3-13,.2-10-19.7-10.4-26-.3-3.6-6.1-28.7,4.7-28.7-2.1,0-3.9-.2-5.8-.5-1.6-2.6,1.2-4,5.3-4.3-11.1-1.4-8.3-14.2-3-17.8.9-.6,3.5-.5,4.7-1.5-1.8-1.3-5.8-1.5-7-2.7-3.2-3.2-1-9.6-.9-13.2,0-5.7.5-11.4,1.1-17.1.3-3.4,49.9-2,54.2-2s11.4,0,16.1-1.1c3.1-.7,5.4-2.2,9.1-2.5,11.2-.8,22.9,1.9,34.1,2.3,14,.5,28,1.3,42.1,1.3h101.9c5.6,0,11.7.4,17.2,0,4.4-.3,8.7-1.7,13.3-1.6,11.8.4,23,1.5,35,1.5h66.3c3.1,0,5.6,1.7,5.6,3.8v34c0,3.3.8,5.3-5.2,6.4,2,.8,4.3,1.2,5.2,2.3.8,1-.3,3.1-.3,4.1,0,1.7,1.5,25.2-6.2,23,10,2.8,6.9,12.5,6.4,19.2-1.4,0-3.4.5-4.4.5,7.8,1.7,5.4,8.7,5.7,13.2.4,5.5-.5,11.1-.5,16.5,0,4.1-.2,6.9-6.4,8.7,5.4,1.3,5.5,1.4,5.7,5.3.4,5.7,0,11.6,0,17.3s-1.1,8-3.2,10h0Z"/>
          <path class="st66" d="M394.4,168c-3.2,3-9.7,3.3-15.2,3.1-1.6,0-17.5-1.4-17.5-.6,0-1,1.2-1.8,2.7-2.4-4.6,0-8.2,2.5-12.4,3.4-5.1,1.1-11.6,1.5-17.1,1.7-3.2.1-5.4-.7-7.7-.7-3.7,0-6.6,2-10.1,2.1-4.5.2-9.9-1.1-14.3-1.5-6.3-.6-12.7-1.6-19.1-1.7-11.8-.2-23.5-.7-35.3-.7-17.7,0-36.9,1.4-54.4-.7-3.9-.5-5.6-1.1-10-.5-8,1-16.5,1.7-24.7,1.6-5.6,0-15.2.2-19.9-1.7,1,.4,1.4.9,1.6,1.5-8.1.9-18-.3-26.4-.3-29,0-58,1.4-87.1.5-3.8-.1-7.7-.4-11.5-.6-1.1,0-8.8.2-9.4,0-5.4-1.8.2-4.2,2.2-5.6-10.9-1.2-4.1-20-4.4-24.9-.3-4.8-2.8-12.1-.2-16.7,3.2-5.9,15.3-5.9,24.6-6.1-5.6-1-13,.9-18.2-.7-4.2-1.3-5-4.4-5.8-6.9-1.8-6-.6-12.1-1.1-18.1-.3-3.5-6.1-28.7,4.7-28.7-2.1,0-3.9-.2-5.8-.5-1.6-2.6,1.2-4,5.3-4.3C0,57.1-.3,51,.5,47.3c1.6-7,6.8-7.2,18.1-7.6,4.7-.2,8.9-1.1,13.3-1.8-5.7,0-11.4.1-17,0-1.1,0-3.7-.4-4.6-.5-2.8-.2-5.9.4-7.7-1.3-3.2-3.2-1-9.6-.9-13.2,0-5.7.5-11.4,1.1-17.1.3-3.4,49.9-2,54.2-2s11.4,0,16.1-1.1c3.1-.7,5.4-2.2,9.1-2.5,11.2-.8,22.9,1.9,34.1,2.3,14,.5,28,1.3,42.1,1.3h101.9c5.6,0,11.7.4,17.2,0,4.4-.3,8.7-1.7,13.3-1.6,11.8.4,23,1.5,35,1.5h66.3c3.1,0,5.6,1.7,5.6,3.8v34c0,6.8-6.5,5.1-16.1,6.8,2.9-.5,11.2.6,13.6,1.8,2.8,1.4,2.1,2.3,2.2,4.4.1,2.5.1,5.1,0,7.7,0,1.6-.2,16.8-6.3,15.1,10,2.8,6.9,12.5,6.4,19.2-1.4,0-3.4.5-4.4.5,7.8,1.7,5.4,8.7,5.7,13.2.4,5.5-.5,11.1-.5,16.5,0,4.1-.2,6.9-6.4,8.7,5.4,1.3,5.5,1.4,5.7,5.3.4,5.7,0,11.6,0,17.3s-1.1,8-3.2,10h0Z"/>
          <path class="st27" d="M342,171.5c-5-.3-9.9-.6-14.9-1-4.9-.4-10-.7-14.7-1.6-7.4-1.3-14.8-2-22.4-2.5,10.9,0,21.7-.2,32.6-.6,24.8-.8,49.5-1.5,74.3-2.3.4-1.5.6-3.3.6-5.5v-1c-6.9-.4-13.8-.6-20.8-.8-7.5-.2-15-.3-22.4-.4-1.6,0-3.2,0-4.8,0,2.6-.1,5.2-.3,7.8-.7,1.4-.2,2.8-.4,4.2-.7,9.1-.7,18.3-1.5,27.4-2.2,1.9,0,3.8,0,5.7,0,1,0,2,0,3,0,0-1.2,0-2.4,0-3.6-7.9-.4-15.8-.5-23.7-.4-4.9,0-9.9.3-14.8.5,2.1-.4,4.1-.8,6.2-1.1,9.8-1.6,19.9-2.7,29.9-3.6.8,0,1.6-.1,2.4-.2,0-.8,0-1.6,0-2.4-9.5.3-18.8,1.1-28,2.5-9.8,1.4-19.2,3.6-29.1,4.8-9.5,1.1-18.7.5-28-.8-7.7-1.1-15.6-2.5-23.6-2.7-1.2-.1-2.4-.2-3.7-.2-13.8-.7-27.7.6-41.6.3-1.7,0-2.8-.1-4.1-.8-.7-.4-1.3-.9-2.2-1.2-2.6-1-5.9-.8-8.8-.8-6.9,0-13.9.3-20.8.7-7.1.4-14.1,1-21.1,1.7-3.1.3-6.2.6-9.4.9-.1,0-.1.1,0,.1.7,0,1.4-.1,2.1-.2-2.5.3-5,.6-7.4,1-1.6,0-3.2.2-4.8.3-2.8.2-5.7.5-8.5.8-13.5.4-27,.8-40.5,1.1-13.4-.9-26.7-2.8-39.9-4.1-24.5-2.5-49.1-4.6-73.9-5h0c0,.9-.1,2.2-.4,3.8,5.4.5,10.9,1.1,16.2,1.8,6.8,1,13.4,2.2,19.8,3.8,6.5,1.6,12.9,3.2,20,3.8,6.9.5,14,0,21-.1,7.7-.2,15.4-.5,23-.7,8.5-.3,16.9-.5,25.4-.8,1.8,0,3.6,0,5.4,0,6.3,0,12.5-.4,18.8-.8,12.7-.5,25.9-1.2,38.4.2,6.7.8,12.7,2.7,19.1,4,6.9,1.4,14.1,2.2,21.3,2.9,14.5,1.4,29.3,2,44,1.9,14.9,0,29.7-.6,44.6-.9,16.8-.3,33.5.2,50.3.8,1,0,2.1,0,3.1.1-14.1.4-28.1.9-42.2,1.3-29.3.9-58.5,2.6-87.8,1.5-14.4-.6-28.7-1.9-43.1-2.2-7.1-.1-14.2-.3-21.3,0-7.2.3-14.3.9-21.4,1.5-14.3,1.2-28.5,1.8-42.9.6-13.7-1.1-27.3-3.2-41.2-3.2-7.8,0-15.3.7-22.9,1.6-7.8.9-15.5,1.5-23.5,1.4-7.9-.1-15.7-.7-23.6-1-.2,0-.4,0-.6,0,.9,1.9,2.5,3.2,5.1,3.5-.6.4-1.6.9-2.4,1.5,9.7.2,19.5,0,29.1,0,9.5,0,19,0,28.5,0,9.5,0,19,0,28.5.3,22.9.9,45.8,2.3,68.6,4.3,7.8-.2,15.5-.6,23-1.6.7,0,1.4-.1,2-.2-4.1-.4-8.1-.9-12.2-1.3,4.9-.4,9.8-.8,14.7-1.1,4.9-.2,9.7-.1,14.5.5,4.7.6,9.2,1.5,13.9,2.1,9.6,1.3,19.2.7,28.9.1,9.9-.6,19.8-.7,29.7-.3,9.9.3,19.8,1.3,29.7,1.6,4.9.1,9.7,0,14.5.4,5.1.4,10.2.8,15.3,1.1,2.2.2,4.4.3,6.6.4,2.9-.3,5.8-.6,8.6-1-2.7-.1-5.4-.3-8.2-.4h0ZM70.2,150.6c-8,0-15.4-.5-22.9-2.1-7.5-1.6-14.9-3.2-22.7-4.2-4.5-.6-9.1-1.1-13.7-1.6,19.2.6,38.4,1.9,57.4,3.7,11.4,1,22.8,2.4,34.1,3.5-10.7.3-21.4.7-32.1.8h0ZM229.5,151.9c-6.9-.3-13.6-1.3-20.2-2.3-6.7-1.1-13.4-2.1-20.3-2.6-2.8-.2-5.6-.3-8.4-.2,7.4-.7,14.8-1.3,22.3-1.8,7-.4,14-.6,21-.8,1.5,0,3.1,0,4.7,0,1.7,0,4-.2,5.6.2,1.6.4,2.1,1.5,3.4,2.1.2,0,.3.1.5.2.9.6,2.1.9,3.5,1.1,2.8.4,5.8.4,8.6.4,3.7,0,7.4,0,11.1,0,6.8-.1,13.6-.3,20.3,0,6.8.3,12.9,1.3,19,2.9-1.9-.2-3.9-.3-5.9-.5-7.3-.6-14.6-.9-21.9-.7-7.3.2-14.5.9-21.7,1.4-7.2.5-14.3.9-21.6.6h0ZM331.5,156.2c-29.7.3-59.2,2.1-88.8,0-.9,0-1.8-.1-2.7-.2h.2c7.3-.4,14.3-1.5,21.4-2.3,7.2-.8,14.7-1.1,22.1-.9,14.8.4,29.3,2.6,44.2,3,2.3,0,4.5,0,6.8,0,3,.1,6.1.2,9.1.2-4.1,0-8.1.2-12.2.2h0ZM101.6,164.6c-16,0-32-.1-48-.1,4-.5,7.9-.9,11.9-1.2,7-.4,13.9-.1,20.9,0,7,.1,14,.6,21,1,1.8.1,3.5.2,5.3.3-3.7,0-7.4,0-11.1,0h0ZM224.8,166.9c-9.4-.4-18.2-2.8-27.7-3-11-.3-21.5,1.5-32.3,2.2-5.4.3-10.7.3-16,0-1.8-.1-3.7-.2-5.5-.3-1.4-.1-2.7-.2-4.1-.3,3.2,0,6.4-.2,9.6-.4,14.3-.9,28.5-2.5,43-2.4,7.3,0,14.5.7,21.7,1.3s14.5,1.1,21.7,1.5c4,.2,8.1.4,12.1.6-7.5.5-15,1.2-22.5.9h0ZM2.2,11.6c1.1,0,2.3,0,3.5-.1,6.7-.2,13.5-.4,20.2-.7,12.2-.5,24.2-1.5,36.3-2.2,11.9-.7,23.6-1.9,35.3-3.3,7.9-.9,15.9-1.9,23.9-2.7,9,.4,18.1.8,27.2,1-7.3.4-14.5,1-21.7,1.7-11.9,1.1-23.6,2.5-35.4,3.9-12,1.4-24,1.9-36.3,2-12.5,0-24.9.1-37.3.6-5.2.2-10.5.4-15.7.6,0-.3,0-.6,0-.9h0ZM398.8,109c-4.3,0-8.6,0-13,0-23,0-46.1,0-69.1.6-14.1.3-30.2,0-43.7,2.8-6,1.3-3.7,3.6-10.9,4.5-15.9,2-33.3.3-49.3-.7-13.6-.8-27.5-1.6-40.9-3.3-2.7-.3-5.5-.8-7.8-1.7-2.3-.9-3.3-2-4.5-3.4-2.9-3.3-11.8-3.2-17.2-3.5-13.8-.9-27.6-1-41.5-.5-11.1.4-23.6,1.1-33.3-2.6-.1,0,0-.2.1-.2,13.1,3.2,27.1,2,40.9,1.7,13.6-.3,27.3,0,40.8,1.2,2.5.2,5,.4,7.3,1,2.2.5,3.8,1.4,5.6,2.3,2.4,1.2,4,2.3,7.3,2.7,2.9.4,5.9.4,8.9.6,13.6,1,27.3,1.9,41,2.7,5.7.3,33.2,3.6,34.7-2.3.5-1.7-2.1-3-1.7-4.6.7-2.9,7.2-2.9,11.1-3.3,30.7-2.7,61.9-2,92.9-2.4,13.9-.2,27.8-.5,41.8-.4,1.4,2.5.8,5.9.8,8.8h0ZM388.3,36.7c-7.3-.2-14.5-.3-21.8-.4-3.6,0-7.1-.1-10.7,0-3.7,0-7.5.2-11.2.2-29.4-.3-58.7-1-88-1.8-3.4,0-6.8-.1-10.2-.3-4-.2-8-.6-12-.8-7.1-.4-14.2-.6-21.3-.8-7.4-.2-14.8-.4-22.3-.4-7.5,0-14.9.2-22.3,0-14.5-.3-28.9-.6-43.4-.9-11.6-.2-23.2-.4-34.8-.6h0c-6.4-.2-12.7-.3-19.1-.4-12.7-.3-25.4-.5-38-.9-8.3-.2-16.6-.2-24.9,0-2.5,0-5,.1-7.5.2,0,.9,0,1.7,0,2.5,2,0,4.1,0,6.1,0,7.4,0,14.8,0,22.1-.3,4.1,0,8.2-.2,12.3-.3-13.4.5-26.9.8-40.3,1.9,0,.2.2.5.2.7,12.7,0,25.3-.8,37.9-1.2,3.4-.1,6.8-.3,10.2-.2,3.5,0,7,.2,10.5.1,7.1-.2,14.1-.4,21.2-.5,6.7,0,13.5.1,20.2.5,3.5.2,7,.2,10.5.5,3.5.3,6.9.6,10.3,1.1,3.3.4,6.7.8,9.9,1.4,3.6.7,6.4,2,9.7,3,5.3,1.7,11.3,2.7,17.2,3.3,13.2,1.4,26.5.9,39.8,0,6.9-.5,13.8-1,20.7-1.1,7.1-.2,14.3,0,21.5,0,7,0,14,0,20.9-.4,7.2-.4,14.3-.9,21.5-1.5,14.5-1.1,28.9-1.4,43.5-1.1,15.4.4,30.7,1,46.1,1.4-12.4.3-24.9.7-37.3,1-29,.8-58,1.7-87,2.7-14.5.5-28.9,1.1-43.3,1.7-14.3.6-28.2.9-42.5.1-28.4-1.7-56.9-2.5-85.5-2.1-25.6.4-51.2,1.8-76.7,3.2-.4,1.2-.6,2.5-.5,3.7,21.1.4,42.2.9,63.4,1,13.7,0,27.3,0,41,0,13.9,0,27.8-.6,41.7-.9,7.1-.1,14.1-.3,21.1-.5,9.4.5,18.9.4,28.5,0,14.3-.5,28.7-1.3,43-2.1,28.9-1.5,57.8-2.6,86.7-3.6,16.3-.5,32.6-1,49-1.5,7.7-.2,15.4-.4,23.1-.7v-5.1c-3.1,0-6.2-.1-9.3-.2h0ZM293.7,37.1c-14.3.8-28.4,2.5-42.8,2.1-7.3-.2-14.5-.8-21.8-.9-6.7,0-13.3.1-20,.5-13.6.8-27.3,2.3-41,2.3-6.7,0-13.6-.5-20-1.8-3-.6-5.8-1.4-8.5-2.4-2.9-1-6-1.8-9.3-2.3-3.5-.6-7-1.1-10.6-1.5,13.1.3,26.1.6,39.2.9,14.5.3,28.9,1.2,43.4,1.6,7.4.2,14.8.4,22.3.5,7.3,0,14.6-.3,21.9-.4,7.2,0,14.6.2,21.8.3,7.4.1,14.8.3,22.2.5,3.6,0,7.1.2,10.7.2-2.5,0-5.1.2-7.6.3h0ZM109.8,47.5c-13.7-.2-27.3,0-41-.2-13.6,0-27.3-.2-40.9,0-1.9,0-3.8,0-5.8,0,15.2-.8,30.5-1.5,45.8-1.8,14.3-.3,28.5-.4,42.8,0,11.5.3,23,1.2,34.5,2.3-11.8,0-23.6-.2-35.4-.3h0ZM1.8,19.9c5.6.3,11.3.5,17,.6,11.4.2,22.8,0,34.2-.1,11.3-.1,22.5-.3,33.8,0,8.1.1,16.2.6,24.3,1.2h-1.2c-12.9.1-25.8,1-38.6,1.5-13.2.6-26.4.9-39.6,1-7.3,0-14.7.1-22,.2-2.7,0-5.4,0-8,0,0,.5-.1,1.1-.2,1.7,8.8.3,17.6.2,26.3.4,13.3.2,26.5.4,39.8.2,13.1-.1,26.1-1.1,39.2-1.3,12.6-.2,25.3.2,37.9.1,13.5,0,27.4-.6,40.2-3.1,1.3-.3,1.2-1.6-.1-1.8-14.4-1.9-29-3.3-43.7-4.2-7.5-.5-14.9-1.1-22.4-.8-7.3.2-14.5.9-21.8.8-3.6,0-7.2-.2-10.9-.3,3.5-.1,7-.3,10.5-.4,5.4-.2,10.8-.4,16.1-1,5.2-.6,10.2-1.6,15.4-2.4,5.2-.7,10.3-1.3,15.7-1,5.1.3,10,.9,15,1.4,4.8.5,9.7.8,14.5.6,5.4-.2,10.8-1,15.9.3,4.4,1.1,8.2,2.6,12.9,3.2,4.5.7,9.1.9,13.8.9,10.3,0,20.6-1.1,30.9-1.3,6.2-.1,12.4,0,18.6.2,6.1.2,12.2.1,18.3.2,6.1,0,12.2.2,18.3.5,5.1.2,10.2.3,15.3.6,0,.1,0,.2.1.3.8,1.8,4.3,2.2,7,2.7,6.9,1.1,14.1,1.6,21.3,1.7,14.8.2,29.4-1.1,44.2-1.2,2.8,0,5.5,0,8.2.1v-5c-3.1-.1-6.2-.3-9.3-.4-6.1-.2-12.3-.4-18.4-.4-2,0-4,0-6,.2,2.1-.3,4.3-.6,6.5-.9,6.4-.7,12.9-1,19.4-1.1,2.6,0,5.2,0,7.9,0v-1.4c-3.2.2-6.4.3-9.5.5-11.3.6-23.9,1.1-34.2,4.2-.6.1-1.2.2-1.8.3-.6.1-.4.7.2.7,12.3-.1,24.7.1,37,.6.7,0,1.4,0,2.1,0-7.8-.1-15.6.1-23.5.4-7.9.3-15.8.7-23.8.5-4,0-7.9-.3-11.8-.7-1.9-.2-3.7-.4-5.5-.7-.4,0-.7-.1-1.1-.2.9-.2,1.8-.4,2.5-.5,2.9-.4,5.9-.6,8.9-.8,6.9-.5,13.5-1.1,20.1-2.3.4,0,.7-.1,1.1-.2,3.8-.3,7.5-.9,11.3-1.4.9-.1,1.7-.2,2.6-.3,1.9-.2,3.8-.3,5.8-.5,4-.3,7.9-.7,11.9-1.1,2.6-.1,5.2-.3,7.8-.3v-3c0-.9-.4-1.7-1.2-2.3-3.2,0-6.4,0-9.7,0-18,0-36.1.2-54.1.5-18.1.3-36.1.8-54.1,1.4-8.9.3-17.9.8-26.8,1-4.4,0-8.8,0-13.2,0-4.4-.1-8.8-.5-13.1-.6-9.7-.2-19.4-.4-29.1.1-10,.5-20,1.3-30.1,1.3-.3,0-.4.3,0,.3,17.4.6,34.7-1.8,52.1-.1,8.9.8,17.6,1.9,26.5,2.3,8.7.4,17.6.4,26.3.2,18-.4,35.9-1.1,53.9-1.4,18-.4,36.1-.5,54.1-.8,6.1,0,12.2-.2,18.3-.3-2,0-3.9.2-5.9.2-5.5.3-11,.7-16.4,1.3-5.5.6-10.9,1.4-16.4,1.9-2.7.2-5.5.5-8.3.4-3-.1-5.9-.6-8.9-.7-5-.2-9.9.7-14.8,1.1-5.7.6-11.6.2-17.3,0-5.8-.1-11.6-.1-17.5,0-.4,0-.8,0-1.2,0-.9,0-1.9,0-2.8,0-5.6-.1-11.3-.2-16.9,0-5.4.1-10.7.5-16.2.9-10.4.6-20.8,1.4-31.3,1.9-10.4.5-20.7.2-30.1-2.7-4.1-1.3-7.7-2.1-12.4-1.9-5.3.1-10.4.6-15.8.4-10.1-.5-19.9-2.3-30-2.5-5.3-.1-10.6.4-15.8.9-5.4.5-10.9.8-16.3,1.2-10.9.7-21.9,1.4-32.7,2.4-7.8.7-15.5,1.3-23.3,1.9-13.7.1-27.5.4-41.2.4H2c0,1.4-.1,2.7-.2,4.1h0,0ZM116.6,18.3c7.1-.6,14.1-.5,21.2-.2,13.2.6,26.4,1.9,39.4,3.5-7.9,1.1-15.8,1.4-23.9,1.3-.6,0-1.3-.1-1.9-.2-3-.3-6.1-.5-9.1-.7-5.8-.5-11.6-.8-17.4-1.2-7.5-.5-14.9-1-22.4-1.4,4.7-.2,9.4-.6,14.2-1h0ZM2.1,78.7c0-.5,0-.9,0-1.4,2,0,4.1-.2,6.1-.2,13.1-.5,26.1-1,39.2-1.5,9-.4,18.1-.8,27.1-.9,12.2-.4,24.4-.4,36.5.3,15.2.9,30.3,3,45.6,3.3,15.7.3,31.3-1.5,47-1.4,10.7,0,21.4.4,32.1.8,15.9-.8,31.7-1.7,47.7-2,9.4-.2,18.6,0,28,.5,9.2.5,18.2,1.1,27.5.9,9.2-.2,18.4-.8,27.6-1.1,9.2-.3,18.4-.4,27.6-.3h1c-.9,1.5-2.1,2.2-3.8,1.8,1.4.4,2.5.9,3.4,1.5-2.7,0-5.3,0-8,.2-9.2.3-18.4.6-27.6,1.1-9.2.4-18.4,1-27.7.9-9.4,0-18.5-1-27.8-1.9-9.1-.8-18.2-1.2-27.4-1.2-7.7,0-15.4.2-23.1.5,30.7,1.7,61.4,3.4,92.3,3.9,16,.2,32,.3,47.9.4,1.5,0,2.9,0,4.4,0,.2.4.3.9.4,1.3-21.3-.2-42.6-.4-63.8-.9-31.9-.7-63.5-3.4-95.4-3.9-2.6,0-5.3,0-7.9,0-3.7.2-7.5.3-11.2.4-4.5.2-9.1.3-13.6.4-4.9.4-9.8.8-14.7,1.1-8.6.5-17.2,1-25.8,1.2-1.1.2-2.3.4-3.4.6-1.4.3-3.3.6-4.2,1.3-.8.7-.3,1.5.5,2.2,3.4,1.1,8.1,1,11.7,1.2,10.4.5,20.8,1,31.3,1.4,18.9.8,37.8,1.4,56.7,1.9,9.5.2,19.1.5,28.6.6,9.4.2,18.8.2,28.2,0,18.9-.2,37.9,0,56.8,0,8.8,0,17.7-.1,26.5-.2-.2,1.7-.5,3.4-.6,5-4.3,0-8.7,0-13,.1-16.7.2-33.4.3-50.1.4-30,.2-59.9,0-89.9,0-14.8,0-29.6-.2-44.4-.4-14.8-.2-29.7-.1-44.4-.4-7.4-.2-14.8-.2-22.1-.2-7.6,0-15,.3-22.6.6-14.6.4-29.4.2-44.1.2H22.8c-6.3,0-12.6,0-19,0,0-1,0-2,0-2.9,7.7,0,15.4,0,23.1,0h49.8c7.4,0,14.8,0,22.2,0,4,0,8,0,12,0,3.5,0,7,.4,10.6.4,15,.3,29.9-.2,44.9-.3,14.9,0,29.7-.2,44.6-.5,10.7-.2,21.4-.3,32.1-.3-2.2,0-4.4-.1-6.6-.2-20.4-.7-40.8-1.5-61.2-2.4-4.7-.2-9.5-.3-14.1-.7-3.4-.3-7.1-1.1-9.1-2.8-1.2-1-1.5-2.3-1-3.6-10.8.1-21.5-1.2-32-2.8-5.8-.8-11.6-1.9-17.5-2.6-6.3-.8-12.8-1.2-19.2-1.3-9.1-.2-18.2,0-27.3.4-.2,0-.5,0-.7,0-15,.7-30.1,1.7-45.1,2.1-2.3,0-4.6.1-6.9.2,0-.3,0-.5,0-.8.9,0,1.8,0,2.8,0-.9,0-1.8,0-2.8,0h0ZM397.9,51.7c-.1.8-.5,1.8-.6,2.4-13.5-.2-27-.7-40.6-.8-9.1-.1-18.2-.5-27.3-.4-9,.2-17.9-.2-26.8-.4-.2,0-.2-.2,0-.2,10.2,0,20.3-.1,30.5.2,4.5.2,9-.1,13.4-.1,4.5,0,9,0,13.4,0,9,0,18-.3,26.9-.5,3.6,0,7.2-.1,10.8-.2h0ZM398.3,126.7c0,.6,0,1.2,0,1.8-6.7.3-13.3.5-20,.8-16.8.7-33.5,1.6-50.3,2-14.8.4-29.5,0-44.2-1.1-19.9-1.5-39.7-2.3-59.9-1.9-10,.2-19.9.8-30,1.1-14.7.5-29.5.6-44.1,1.7-8.4.6-16.7,1.6-25.1,2.2-6.9.4-13.3-.1-20,0-15.1.4-30.3.1-45.4.1-15.1,0-30.3,0-45.4,0-3.4,0-6.8,0-10.2,0-.2-1.2-.3-2.4-.4-3.6,5.3,0,10.6-.2,15.8-.3,17-.3,34-.3,51-.2,28.3,0,56.6.8,84.8,0,13.5-.4,26.9-1.4,40.4-1.9,4.2-.2,9.6.2,13.4-.6-14.2,0-28.9-1.4-43.1-2.2-13.4-.8-33.5-.4-43.4-6.3-1.7-1-.4-1-3.4-1.9-4.2-1.2-10.8-1.1-15.4-1.3-13.4-.6-26.8-.3-40.2-.7-8.5-.2-18.5.4-26.7-1-3.2-.6-5.7-1.5-1.7-2.8-2.8-2.8-23.8-.8-28.8-.8h-1.1c-.6-2.1-.9-4.5-1-6.8,6.1-.2,12.2-.6,18.4-.7,8.9,0,26.6-1.3,32.6,2.9,1.6,1.2-.9,1.2,3,2.3,4.9,1.3,12.8,1.1,18,1.2,19,.5,38.9-1.8,57.8-.2,5.1.4,7.5.6,8.9,2.9.3.5-1.1,1.2-.8,1.8.6,1.2,3.2,1.7,4.8,2.2,11.4,3.5,28.8,4.3,41.5,5.2,17.7,1.2,35.6,2.3,53.5,2.4,10.1,0,29.4,3.3,38.1-.3-.3-.3-.5-.9-1-1.2,14.8-2.8,26.5-1,41.2-.1,22.7,1.4,45.3.2,67.9.6,3.6,0,7.2.1,10.8.2-.1,1.6-.2,3.1-.2,4.6h0ZM3.4,59.3c.4-.3,1-.5,1.6-.7,8.4-.2,16.7-.5,25-1.1,10-.7,20-1.6,30-2.3,8.9-.7,17.7-1.2,26.7-1.3,9.1-.2,18.1.3,27.2.9,9.2.7,18.4,1.7,27.7,1.9,9.4.2,18.7-.5,28.1-.9,9.1-.4,18.2-.2,27.3,0,9.3.2,18.8.5,28,0,9.1-.6,18.3-.8,27.4-1.5,9.3-.7,18.6-1.3,27.8-2,.8,0,1.3.7.5.8-9.9,1.8-19.9,3.1-30.2,3.9-5.1.4-10.2.6-15.3.8-5.2.2-10.3.1-15.4.2-18.8.3-37.4-.8-56.2.2-9.2.5-18.4,1-27.7.9-9.2-.1-18.2-.9-27.3-1.5-18.4-1.3-36.5-.8-54.9.3-9.2.5-18.3,1.1-27.5,1.4-7.5.3-15.1.4-22.6,0h0ZM367.5,61.1c9.9-1,19.9-1.5,29.9-1.7,0,1.2,0,2.6,0,4-11.4.5-22.6,1.3-33.9,2.4-6.5.7-12.9,1.2-19.4,1.6h2.5c16.8,0,33.7-.3,50.5-.4-.1,1.5-.3,2.9-.6,4.2-1.7,0-3.4,0-5.1,0-17.1.1-34.3.4-51.4.3-8.4,0-16.7-.7-25-1.5-6.2-.7-12.4-.8-18.7-.5,0,0-.2,0-.3,0-2,0-4.1.2-6.1.3-8.4.6-16.7,1.6-25.1,2.3-8.4.7-16.8,1.1-25.3,1.3-16.7.5-33.4.4-50.1,0-.4,0-.3-.3,0-.3,19.3-.3,38.6-.2,57.8-1.2,3.1-.2,6.2-.3,9.3-.6-9.8,0-19.3-1.4-29-2-10.1-.6-20.2.5-30.2,1.4-10.2.9-20.5,1.7-30.7,2.6-.5,0-.6-.3-.1-.4,11.7-1.3,23.3-2.7,35-4,9.6-1,19.3-1.9,29.1-1.8,10,0,19.9.5,29.9.2,3.1-.1,6.1-.3,9.2-.4,6.5-.5,13-1.2,19.4-1.7,6.3-.6,12.6-1.2,18.9-1.4,6.7-.3,13.4,0,20.2,0,13.2.2,26.1-1.4,39.1-2.6h0Z"/>
          <g class="st64">
            <path class="st16" d="M392.9,78c-.5.1-1.1.1-1.7,0,.9.2,1.7.6,2.4.9.3,0,.6,0,1,0-.5-.3-1-.6-1.7-.9h0Z"/>
            <path class="st58" d="M142.5,111.3c-1.5-2.2-3.8-2.4-8.9-2.9-18.9-1.6-38.7.8-57.8.2-5.2-.2-13.2,0-18-1.2-3.9-1.1-1.4-1.1-3-2.3-6-4.2-23.7-3-32.6-2.9-6.2,0-12.3.4-18.4.7,0,.2,0,.4,0,.6,6.1-.2,12.2-.6,18.4-.7,8.9,0,26.6-1.3,32.6,2.9,1.6,1.2-.9,1.2,3,2.3,4.9,1.3,12.8,1.1,18,1.2,19,.5,38.9-1.8,57.8-.2,5,.4,7.4.6,8.8,2.8.1-.2.2-.3,0-.5h0Z"/>
            <path class="st44" d="M397.4,59.4c-10,.2-20,.7-29.9,1.7-13,1.3-25.9,2.8-39.1,2.6-6.7,0-13.4-.3-20.2,0-6.3.3-12.7.9-18.9,1.4-6.5.6-12.9,1.2-19.4,1.7-3,.2-6.1.3-9.2.4-10,.3-19.9,0-29.9-.2-9.8,0-19.4.8-29.1,1.8-11.7,1.2-23.3,2.7-35,4-.4,0-.3.4.1.4,1.8-.2,3.7-.3,5.5-.5,9.8-1.1,19.5-2.3,29.4-3.3,9.6-1,19.3-1.9,29.1-1.8,10,0,19.9.5,29.9.2,3.1-.1,6.1-.3,9.2-.4,6.5-.5,13-1.2,19.4-1.7,6.3-.6,12.6-1.2,18.9-1.4,6.7-.3,13.4,0,20.2,0,13.2.2,26.1-1.4,39.1-2.6,9.9-1,19.9-1.5,29.9-1.7v.4-1h0Z"/>
            <path class="st35" d="M27.9,47.8c13.6-.1,27.3,0,40.9,0,13.7,0,27.3,0,41,.2,11.8.1,23.6.4,35.4.3-2.1-.2-4.1-.4-6.2-.6-9.7,0-19.5-.2-29.2-.3-13.7-.2-27.3,0-41-.2-11.1,0-22.3-.2-33.4,0-4.4.2-8.9.4-13.3.7,1.9,0,3.8,0,5.8,0h0Z"/>
            <path class="st47" d="M176.4,93.9c-3.4,0-6.7,0-10.1,0-15,0-29.9.5-44.9.3-3.5,0-7-.3-10.6-.4-4,0-8,0-12,0-7.4,0-14.8,0-22.2,0H26.9c-7.7,0-15.4,0-23.1,0,0,.9,0,1.8,0,2.9h0c0-.8,0-1.6,0-2.3,7.7,0,15.4,0,23.1,0h49.8c7.4,0,14.8,0,22.2,0,4,0,8,0,12,0,3.5,0,7,.4,10.6.4,14.7.3,29.4-.2,44.2-.3,3.6-.2,7.2-.4,10.8-.7h0Z"/>
            <path class="st2" d="M343.7,156.6c-3,0-6.1,0-9.1-.2-2.3,0-4.5,0-6.8,0-.2,0-.3,0-.5,0-27.8.4-55.5,1.9-83.3,0-1.3.1-2.6.2-3.9.3h-.2c.9,0,1.8.1,2.7.2,29.6,2.1,59.1.3,88.8,0,4.1,0,8.1-.1,12.2-.2h0Z"/>
            <path class="st10" d="M4.8,79.2c-.9,0-1.8,0-2.7,0h0c.9,0,1.8,0,2.7,0Z"/>
            <path class="st45" d="M352.4,67.4c-2.8.2-5.5.4-8.3.6h2.5c16.8,0,33.6-.3,50.5-.4,0-.2,0-.4,0-.6-14.9.1-29.8.3-44.8.4h0Z"/>
            <path class="st40" d="M150.8,84c0,.3,0,.6,0,.8,0-.3,0-.6.2-.8h-.2Z"/>
            <path class="st15" d="M219.2,113.3c-13.7-.8-27.3-1.7-41-2.7-2.9-.2-6-.2-8.9-.6-3.3-.4-4.9-1.5-7.3-2.7-1.8-.9-3.4-1.8-5.6-2.3-2.3-.6-4.9-.8-7.3-1-13.5-1.1-27.2-1.4-40.8-1.2-13.8.3-27.7,1.5-40.9-1.7-.2,0-.3,0-.1.2,1.3.5,2.7.9,4.1,1.3,12,2.2,24.5,1.2,36.9.9,13.6-.3,27.3,0,40.8,1.2,2.5.2,5,.4,7.3,1,2.2.5,3.8,1.4,5.6,2.3,2.4,1.2,4,2.3,7.3,2.7,2.9.4,5.9.4,8.9.6,13.6,1,27.3,1.9,41,2.7,5.7.3,33.2,3.6,34.7-2.3,0-.2,0-.5,0-.7,0,0,0,0,0,.1-1.6,5.9-29,2.6-34.7,2.3h0Z"/>
            <path class="st26" d="M189,147.6c6.9.5,13.6,1.5,20.3,2.6,6.6,1,13.3,2,20.2,2.3,7.2.3,14.4-.1,21.6-.6,7.2-.5,14.5-1.2,21.7-1.4,7.3-.2,14.6.1,21.9.7,2,.1,3.9.3,5.9.5-1.3-.3-2.6-.6-3.8-.9-.7,0-1.4-.1-2-.2-7.3-.6-14.6-.9-21.9-.7-7.3.2-14.5.9-21.7,1.4-7.2.5-14.3.9-21.6.6-6.9-.3-13.6-1.3-20.2-2.3-6.7-1.1-13.4-2.1-20.3-2.6-1.1,0-2.1-.1-3.2-.2-1.7.1-3.4.3-5.2.5,2.8,0,5.6,0,8.4.2h0Z"/>
            <path class="st31" d="M374.3,160.8c-1,0-2.1,0-3.1-.1-1.7,0-3.5-.1-5.2-.2-11.3.4-22.6.7-33.8,1.1-29.3.9-58.5,2.6-87.8,1.5-14.4-.6-28.7-1.9-43.1-2.2-7.1-.1-14.2-.3-21.3,0-7.2.3-14.3.9-21.4,1.5-14.3,1.2-28.5,1.8-42.9.6-13.7-1.1-27.3-3.2-41.2-3.2-7.8,0-15.3.7-22.9,1.6-7.8.9-15.5,1.5-23.5,1.4-7.9-.1-15.7-.7-23.6-1-.2,0-.4,0-.6,0,.1.2.2.4.3.6h.3c7.9.3,15.7.9,23.6,1,8,.1,15.7-.5,23.5-1.4,7.6-.9,15.1-1.6,22.9-1.6,14,0,27.5,2.1,41.2,3.2,14.4,1.2,28.6.6,42.9-.6,7.1-.6,14.2-1.2,21.4-1.5,7.1-.3,14.2-.1,21.3,0,14.5.3,28.7,1.6,43.1,2.2,29.3,1.2,58.5-.5,87.8-1.5,14.1-.4,28.1-.9,42.2-1.3h0Z"/>
            <path class="st49" d="M197.1,164.4c9.5.3,18.3,2.7,27.7,3,7.5.3,15-.4,22.5-.9-1.8,0-3.5-.1-5.3-.2-5.7.4-11.5.8-17.2.5-9.4-.4-18.2-2.8-27.7-3-11-.3-21.5,1.5-32.3,2.2-5.4.3-10.7.3-16,0-1.5-.1-3-.2-4.6-.3-1.7,0-3.4.1-5.1.2,1.4.1,2.7.2,4.1.3,1.8.1,3.7.2,5.5.3,5.3.3,10.6.3,16,0,10.8-.7,21.4-2.5,32.3-2.2h0Z"/>
            <path class="st53" d="M101.6,165.2c3.7,0,7.4,0,11.1,0-1.8-.1-3.5-.2-5.3-.3-1.8-.1-3.5-.2-5.3-.3h-.6c-14.3,0-28.7,0-43-.1-1.7.2-3.3.4-5,.6,16,0,32,0,48,.1h0Z"/>
            <path class="st39" d="M8.1,165.6c-.5.3-1.1.7-1.7,1.1.3,0,.6,0,.9,0,.6-.4,1.1-.7,1.5-1-.2,0-.5,0-.7-.1h0Z"/>
            <path class="st7" d="M256.8,71.9c-2.2,0-4.3,0-6.5-.2-.9,0-1.9.1-2.8.2-19.2,1-38.5.9-57.8,1.2-.4,0-.4.3,0,.3,2.6,0,5.2,0,7.9.2,16.7-.2,33.4-.3,50-1.1,3.1-.2,6.2-.3,9.3-.6Z"/>
            <path class="st55" d="M397.7,141.7c-9.5.3-18.8,1.1-28,2.5-9.8,1.4-19.2,3.6-29.1,4.8-9.5,1.1-18.7.5-28-.8-7.7-1.1-15.6-2.5-23.6-2.7-1.2-.1-2.4-.2-3.7-.2-13.8-.7-27.7.6-41.6.3-1.7,0-2.8-.1-4.1-.8-.7-.4-1.3-.9-2.2-1.2-2.6-1-5.9-.8-8.8-.8-6.9,0-13.9.3-20.8.7-7.1.4-14.1,1-21.1,1.7-3.1.3-6.2.6-9.4.9-.1,0-.1.1,0,.1.7,0,1.4-.1,2.1-.2-2.5.3-5,.6-7.4,1-1.6,0-3.2.2-4.8.3-2.8.2-5.7.5-8.5.8-13.5.4-27,.8-40.5,1.1-13.4-.9-26.7-2.8-39.9-4.1-24.5-2.5-49.1-4.6-73.9-5h0v.6c24.8.5,49.4,2.5,73.9,5,13.3,1.4,26.5,3.2,39.9,4.1,13.5-.4,27-.7,40.5-1.1,2.8-.3,5.7-.6,8.5-.8,1.6-.1,3.2-.2,4.8-.3,2.5-.4,4.9-.7,7.4-1-.7,0-1.4.1-2.1.2-.2,0-.2-.1,0-.1,3.1-.3,6.2-.6,9.4-.9,7-.7,14-1.3,21.1-1.7,6.9-.4,13.9-.6,20.8-.7,2.9,0,6.3-.2,8.8.8.8.3,1.4.8,2.2,1.2,1.3.7,2.4.8,4.1.8,13.9.3,27.7-.9,41.6-.3,1.2,0,2.4.1,3.7.2,8,.1,15.9,1.6,23.6,2.7,9.3,1.3,18.5,2,28,.8,9.9-1.2,19.3-3.4,29.1-4.8,9.2-1.3,18.5-2.2,28-2.5,0,.6,0,1.2,0,1.8h0c0-.8,0-1.6,0-2.4h0Z"/>
            <path class="st3" d="M69.9,129.9c28.3,0,56.6.8,84.8,0,13.5-.4,26.9-1.4,40.4-1.9,4.2-.2,9.6.2,13.4-.6-1.7,0-3.4,0-5.1,0-2.8,0-5.8,0-8.3,0-13.5.5-26.9,1.5-40.4,1.9-28.3.9-56.6.1-84.8,0-17,0-34,0-51,.2-5.3,0-10.6.2-15.8.3,0,.2,0,.4,0,.6,5.3,0,10.5-.2,15.8-.3,17-.3,34-.3,51-.2h0Z"/>
            <path class="st50" d="M257.8,54.4c1.9-.3,3.8-.7,5.7-1-3.7.3-7.5.5-11.2.8-9.1.7-18.3.9-27.4,1.5-9.2.6-18.7.2-28,0-9.1-.2-18.2-.3-27.3,0-9.4.4-18.7,1.1-28.1.9-9.3-.2-18.5-1.2-27.7-1.9-9.1-.7-18.1-1.1-27.2-.9-8.9.2-17.8.7-26.7,1.3-10,.7-20,1.6-30,2.3-8.4.6-16.7.9-25,1.1-.6.2-1.1.4-1.6.7.4,0,.8,0,1.1,0,.1,0,.3,0,.4-.1,8.4-.2,16.7-.5,25-1.1,10-.7,20-1.6,30-2.3,8.9-.7,17.7-1.2,26.7-1.3,9.1-.2,18.1.3,27.2.9,9.2.7,18.4,1.7,27.7,1.9,9.4.2,18.7-.5,28.1-.9,9.1-.4,18.2-.2,27.3,0,9.3.2,18.8.5,28,0,9.1-.6,18.3-.8,27.4-1.5,1.8-.1,3.7-.3,5.5-.4Z"/>
            <path class="st41" d="M29.2,32.7c-5.1.1-10.3.2-15.4.2-4.2.2-8.4.5-12.6.8,0,.2.1.4.2.6,13.2-1.1,26.7-1.3,40.1-1.9-4.1,0-8.2.2-12.3.3Z"/>
            <path class="st61" d="M47.3,76.1c9-.4,18.1-.8,27.1-.9,12.2-.4,24.4-.4,36.5.3,15.2.9,30.3,3,45.6,3.3,15.7.3,31.3-1.5,47-1.4,10.7,0,21.4.4,32.1.8,15.9-.8,31.7-1.7,47.7-2,9.4-.2,18.6,0,28,.5,9.2.5,18.2,1.1,27.5.9,9.2-.2,18.4-.8,27.6-1.1,9.2-.3,18.4-.4,27.6-.3h.6c.1-.2.3-.4.4-.6h-1c-9.2,0-18.4,0-27.6.3-9.2.3-18.4.9-27.6,1.1-9.3.2-18.3-.5-27.5-.9-9.3-.5-18.6-.7-28-.5-15.9.3-31.8,1.2-47.7,2-10.7-.4-21.4-.7-32.1-.8-15.7-.1-31.2,1.7-47,1.4-15.3-.3-30.4-2.4-45.6-3.3-12.1-.7-24.4-.7-36.5-.3-9,.1-18.1.6-27.1.9-13.1.5-26.1,1-39.2,1.5-2,0-4.1.2-6.1.2,0,.2,0,.4,0,.6,2,0,4-.2,6.1-.2,13.1-.5,26.1-1,39.2-1.5Z"/>
            <path class="st0" d="M130.4,35.2c3.3.5,6.4,1.3,9.3,2.3,2.7,1,5.5,1.8,8.5,2.4,6.4,1.3,13.2,1.8,20,1.8,13.7,0,27.4-1.5,41-2.3,6.6-.4,13.3-.6,20-.5,7.3,0,14.5.7,21.8.9,14.4.4,28.5-1.3,42.8-2.1,2.5-.1,5.1-.2,7.6-.3-2.9,0-5.7-.1-8.6-.2-13.9.8-27.7,2.4-41.8,2-7.3-.2-14.5-.8-21.8-.9-6.7,0-13.3.1-20,.5-13.6.8-27.3,2.3-41,2.3-6.7,0-13.6-.5-20-1.8-3-.6-5.8-1.4-8.5-2.4-2.9-1-6-1.8-9.3-2.3-1.7-.3-3.5-.5-5.3-.8-1.8,0-3.5,0-5.3-.1,3.6.4,7.1.9,10.6,1.5h0Z"/>
            <path class="st46" d="M1.6,24.9c2.7,0,5.4,0,8,0,7.3,0,14.7-.1,22-.2,13.2-.1,26.4-.4,39.6-1,12.8-.6,25.7-1.4,38.6-1.5h1.2c-2.3-.2-4.6-.3-7-.5-11,.3-21.9,1-32.9,1.5-13.2.6-26.4.9-39.6,1-7.3,0-14.7.1-22,.2-2.7,0-5.4,0-8,0,0,.5-.1,1.1-.2,1.7h0c0-.4.1-.8.1-1.2Z"/>
            <path class="st11" d="M2,16.4h4c13.7,0,27.5-.3,41.2-.4,7.8-.5,15.5-1.1,23.3-1.9,10.8-1,21.8-1.7,32.7-2.4,5.4-.4,10.9-.7,16.3-1.2,5.2-.5,10.5-1,15.8-.9,10.2.3,19.9,2,30,2.5,5.3.3,10.4-.2,15.8-.4,4.7-.1,8.3.7,12.4,1.9,9.4,2.9,19.7,3.2,30.1,2.7,10.5-.5,20.9-1.3,31.3-1.9,5.4-.3,10.7-.8,16.2-.9,5.6-.1,11.3,0,16.9,0,.9,0,1.9,0,2.8,0,.4,0,.8,0,1.2,0,5.8,0,11.6,0,17.5,0,5.8.1,11.6.5,17.3,0,4.9-.5,9.8-1.4,14.8-1.1,3,.1,5.9.6,8.9.7,2.8.1,5.6,0,8.3-.4,5.5-.5,10.9-1.4,16.4-1.9,5.4-.6,10.9-1,16.4-1.3,1.9-.1,3.9-.2,5.9-.2-4.7,0-9.4.1-14.2.2-2.7.2-5.4.5-8.1.8-5.5.6-10.9,1.4-16.4,1.9-2.7.2-5.5.5-8.3.4-3-.1-5.9-.6-8.9-.7-5-.2-9.9.7-14.8,1.1-5.7.6-11.6.2-17.3,0-5.8-.1-11.6-.1-17.5,0-.4,0-.8,0-1.2,0-.9,0-1.9,0-2.8,0-5.6-.1-11.3-.2-16.9,0-5.4.1-10.7.5-16.2.9-10.4.6-20.8,1.4-31.3,1.9-10.4.5-20.7.2-30.1-2.7-4.1-1.3-7.7-2.1-12.4-1.9-5.3.1-10.4.6-15.8.4-10.1-.5-19.9-2.3-30-2.5-5.3-.1-10.6.4-15.8.9-5.4.5-10.9.8-16.3,1.2-10.9.7-21.9,1.4-32.7,2.4-7.8.7-15.5,1.3-23.3,1.9-13.7.1-27.5.4-41.2.4H1.9c0,1.4-.1,2.7-.2,4.1h0c0-1.2.1-2.4.2-3.5h0Z"/>
            <path class="st5" d="M353.9,16.9c-.6.1-1.2.2-1.8.3-.5,0-.4.5,0,.6,0,0,0,0,0,0,.6-.1,1.2-.2,1.8-.3,10.3-3.1,22.9-3.6,34.2-4.2,3.2-.2,6.4-.3,9.5-.5v.9h0v-1.4c-3.2.2-6.4.3-9.5.5-11.3.6-23.9,1.1-34.2,4.2h0Z"/>
            <path class="st32" d="M166.2,9.1c3.2.1,6.3.1,9.5,0,6.9-.3,13.7-.7,20.6-1.1,9.7-.5,19.4-.4,29.1-.1,4.4.1,8.8.4,13.1.6,4.4.1,8.8.1,13.2,0,9-.1,17.9-.7,26.8-1,18-.7,36.1-1.1,54.1-1.4,18-.3,36.1-.6,54.1-.5,3.2,0,6.4,0,9.7,0,.7.6,1.2,1.4,1.2,2.3v2.4h0v-3c0-.9-.4-1.7-1.2-2.3-3.2,0-6.4,0-9.7,0-18,0-36.1.2-54.1.5-18.1.3-36.1.8-54.1,1.4-8.9.3-17.9.8-26.8,1-4.4,0-8.8,0-13.2,0-4.4-.1-8.8-.5-13.1-.6-9.7-.2-19.4-.4-29.1.1-10,.5-20,1.3-30.1,1.3-.3,0-.4.3,0,.3h0Z"/>
            <path class="st59" d="M2.2,12.2c1.1,0,2.3,0,3.5-.1,6.7-.2,13.5-.4,20.2-.7,12.2-.5,24.2-1.5,36.3-2.2,11.9-.7,23.6-1.9,35.3-3.3,7.9-.9,15.9-1.9,23.9-2.7,7,.3,14,.6,21,.8,2-.2,4.1-.3,6.1-.4-9.1-.2-18.1-.6-27.2-1-8,.8-15.9,1.7-23.9,2.7-11.7,1.4-23.4,2.6-35.3,3.3-12.1.7-24.2,1.6-36.3,2.2-6.7.3-13.5.5-20.2.7-1.2,0-2.3,0-3.5.1,0,.3,0,.6,0,.9h0c0-.1,0-.2,0-.3h0Z"/>
            <path class="st13" d="M.8,47c25.5-1.4,51-2.8,76.7-3.2,28.6-.4,57.1.4,85.5,2.1,14.3.8,28.2.5,42.5-.1,14.4-.7,28.9-1.3,43.3-1.7,29-.9,58-1.8,87-2.7,12.4-.3,24.9-.7,37.3-1-3.5,0-7-.2-10.4-.3-9,.2-17.9.5-26.9.7-29,.8-58,1.7-87,2.7-14.5.5-28.9,1.1-43.3,1.7-14.3.6-28.2.9-42.5.1-28.4-1.7-56.9-2.5-85.5-2.1-25.6.4-51.2,1.8-76.7,3.2-.4,1.2-.6,2.5-.5,3.7H.2c0-1,.2-2.1.5-3.2h0Z"/>
            <path class="st54" d="M.9,30.4c2.5-.1,5-.2,7.5-.2,8.3-.1,16.6-.2,24.9,0,12.7.4,25.4.6,38,.9,6.4,0,12.7.2,19.1.4h0c11.6.2,23.2.3,34.8.6,14.5.3,28.9.6,43.4.9,7.5.2,14.9-.2,22.3,0,7.4,0,14.9.2,22.3.4,7.1.2,14.2.4,21.3.8,4,.2,8,.6,12,.8,3.4.2,6.8.2,10.2.3,29.3.7,58.7,1.5,88,1.8,3.7,0,7.5-.2,11.2-.2,3.6,0,7.1,0,10.7,0,7.3,0,14.5.3,21.8.4,3.1,0,6.2.1,9.3.2v-.6c-3.1,0-6.2-.1-9.3-.2-7.3-.2-14.5-.3-21.8-.4-3.6,0-7.1-.1-10.7,0-3.7,0-7.5.2-11.2.2-29.4-.3-58.7-1-88-1.8-3.4,0-6.8-.1-10.2-.3-4-.2-8-.6-12-.8-7.1-.4-14.2-.6-21.3-.8-7.4-.2-14.8-.4-22.3-.4-7.5,0-14.9.2-22.3,0-14.5-.3-28.9-.6-43.4-.9-11.6-.2-23.2-.4-34.8-.6h0c-6.4-.2-12.7-.3-19.1-.4-12.7-.3-25.4-.5-38-.9-8.3-.2-16.6-.2-24.9,0-2.5,0-5,.1-7.5.2,0,.5,0,.9,0,1.4,0-.3,0-.5,0-.8h0Z"/>
            <path class="st29" d="M319.7,121.3c-14.7-.9-26.4-2.7-41.2.1.2.1.3.3.4.5,14.6-2.7,26.2-.9,40.7,0,22.7,1.4,45.3.2,67.9.6,3.6,0,7.2.1,10.8.2,0-.2,0-.4,0-.6-3.6,0-7.2-.2-10.8-.2-22.7-.3-45.2.9-67.9-.6h0Z"/>
            <path class="st42" d="M24.5,144.7c7.8,1.1,15.2,2.6,22.7,4.2,7.5,1.6,14.9,2.2,22.9,2.1,10.7,0,21.4-.4,32.1-.8-1.4-.1-2.8-.3-4.2-.4-9.3.3-18.6.6-27.9.6-8,0-15.4-.5-22.9-2.1-7.5-1.6-14.9-3.2-22.7-4.2-1.8-.2-3.6-.5-5.5-.7-2.8-.1-5.5-.2-8.3-.3,4.6.4,9.2.9,13.7,1.6Z"/>
            <path class="st12" d="M356.5,155.9c-2.3.3-4.6.5-6.9.6,1.6,0,3.2,0,4.8,0,7.5,0,15,.1,22.4.4,6.9.2,13.9.5,20.8.8v-.6c-6.9-.4-13.8-.6-20.8-.8-6.8-.2-13.6-.3-20.4-.3h0Z"/>
            <path class="st34" d="M173.8,168.7c3.2.3,6.3.6,9.4,1,.3,0,.5,0,.8,0,.7,0,1.4-.1,2-.2-3-.3-6-.6-9-.9-1.1,0-2.1.2-3.2.2Z"/>
            <path class="st25" d="M327.2,170.4c-4.9-.4-10-.7-14.7-1.6-5.1-.9-10.3-1.5-15.6-1.9-2.3,0-4.5,0-6.8,0,7.6.5,15,1.2,22.4,2.5,4.8.8,9.8,1.2,14.7,1.6,4.9.4,9.9.7,14.9,1,1.6.1,3.3.2,4.9.3,1.1-.1,2.1-.3,3.2-.4-2.7-.1-5.4-.3-8.2-.4-5-.3-9.9-.6-14.9-1h0Z"/>
            <path class="st1" d="M374.1,148.5c-3.5,0-7,.2-10.6.3-1.4.2-2.8.5-4.2.8,4.9-.2,9.8-.4,14.8-.5,7.9-.1,15.8,0,23.7.4v-.6c-7.9-.4-15.8-.5-23.7-.4h0Z"/>
            <path class="st24" d="M393.2,82.7c-16-.1-32-.2-47.9-.4-28.6-.4-57-2-85.4-3.5-2.3,0-4.6.1-6.9.2,30.7,1.7,61.4,3.4,92.3,3.9,16,.2,32,.3,47.9.4,1.5,0,2.9,0,4.4,0,.1.2.2.5.3.8h.2c-.1-.5-.2-.9-.4-1.3-1.5,0-2.9,0-4.4,0h0Z"/>
            <path class="st56" d="M314.9,91.6c-9.4.1-18.8.2-28.2,0-9.5-.2-19.1-.4-28.6-.6-18.9-.5-37.8-1.1-56.7-1.9-10.4-.4-20.9-.9-31.3-1.4-3.6-.2-8.4-.1-11.7-1.2-.4-.4-.7-.8-.8-1.2-.2.6.2,1.2.8,1.7,3.4,1.1,8.1,1,11.7,1.2,10.4.5,20.8,1,31.3,1.4,18.9.8,37.8,1.4,56.7,1.9,9.5.2,19.1.5,28.6.6,9.4.2,18.8.2,28.2,0,18.9-.2,37.9,0,56.8,0,8.8,0,17.6-.1,26.4-.2,0-.2,0-.4,0-.6-8.8,0-17.7.2-26.5.2-18.9,0-37.9-.2-56.8,0h0Z"/>
            <path class="st8" d="M398,100.3c-13.9,0-27.9.2-41.8.4-30.9.4-62.2-.3-92.9,2.4-3.9.3-10.4.3-11.1,3.3,0,.2,0,.4,0,.6h0c.7-3,7.2-3,11.1-3.3,30.7-2.7,61.9-2,92.9-2.4,13.9-.2,27.8-.5,41.8-.4.7,1.3.9,2.9.9,4.5,0-1.8-.1-3.6-.9-5Z"/>
            <path class="st23" d="M4.1,144h0c.2-1.2.3-2.3.3-3.1,0,.8-.2,1.9-.4,3.1h0Z"/>
            <path class="st33" d="M241.4,122.9c-17.8,0-35.7-1.2-53.5-2.4-12.7-.9-30-1.7-41.5-5.2-1.5-.5-4.1-1-4.7-2.1,0,.2-.1.3,0,.5.6,1.2,3.2,1.7,4.8,2.2,11.4,3.5,28.8,4.3,41.5,5.2,17.7,1.2,35.6,2.3,53.5,2.4,10.1,0,29.4,3.3,38.1-.3-.1,0-.2-.3-.4-.4-8.8,3.3-27.7.2-37.7.2h0Z"/>
            <path class="st22" d="M184.6,20.4c-14.4-1.9-29-3.3-43.7-4.2-7.5-.5-14.9-1.1-22.4-.8-7.3.2-14.5.9-21.8.8-.9,0-1.9,0-2.8,0-2.7.1-5.4.2-8.1.3,3.6.1,7.2.2,10.9.3,7.3.1,14.5-.6,21.8-.8,7.5-.2,14.9.4,22.4.8,14.7.9,29.3,2.3,43.7,4.2.5,0,.9.3,1,.6.2-.5-.1-1.1-1-1.2h0Z"/>
            <path class="st43" d="M326.8,18.7c1.8.3,3.7.5,5.5.7,3.9.4,7.8.6,11.8.7,8,.2,15.8-.3,23.8-.5,7.8-.3,15.6-.5,23.5-.4-.7,0-1.4,0-2.1,0-3.9-.2-7.9-.3-11.8-.4-3.2,0-6.4.2-9.6.3-7.9.3-15.8.7-23.8.5-4,0-7.9-.3-11.8-.7-1.7-.2-3.4-.4-5.1-.6-.5.1-1,.2-1.5.3.4,0,.7.1,1.1.2h0Z"/>
            <path class="st57" d="M370,15.4h-.1c-2,.2-3.9.5-5.8.8,2-.1,4-.2,6-.2,6.2,0,12.3.2,18.4.4,3.1.1,6.2.3,9.3.4v4.5h0v-5c-3.1-.1-6.2-.3-9.3-.4-6.1-.2-12.3-.4-18.4-.4Z"/>
            <path class="st52" d="M124.9,21.3c5.8.4,11.6.7,17.4,1.2,3,.2,6.1.5,9.1.7.7,0,1.3.1,1.9.2,8.1,0,16.1-.2,23.9-1.3-.8,0-1.5-.2-2.3-.3-7.1.9-14.3,1.1-21.6,1-.6,0-1.3-.1-1.9-.2-3-.3-6.1-.5-9.1-.7-5.8-.5-11.6-.8-17.4-1.2s-11.6-.8-17.3-1.1c-1.7.1-3.4.2-5.1.3,7.5.4,15,.9,22.4,1.4h0Z"/>
            <path class="st9" d="M397.7,42h0v-.5.5Z"/>
            <path class="st6" d="M387.1,51.9c-9,.1-17.9.4-26.9.5-4.5,0-9,0-13.4,0s-9,.3-13.4.1c-4.5-.2-9.1-.2-13.6-.2,2.2.2,4.4.4,6.6.6,1.1,0,2.1,0,3.2,0,5.1,0,10.2,0,15.2.1.7,0,1.3,0,2,0,4.5,0,9,0,13.4,0,9,0,18-.3,26.9-.5,3.6,0,7.1-.1,10.7-.2,0-.2,0-.4.1-.6-3.6,0-7.2.1-10.8.2Z"/>
          </g>
          <g class="st62">
            <path class="st65" d="M4,60.4c0-.5.2-1.1.5-1.6-2,.7-2.9,1.9-1.9,3.7.6,0,1.2.2,1.9.2-.4-.7-.6-1.5-.5-2.3h0Z"/>
            <path class="st60" d="M8,42.6c-.5-.9-.5-1.8,1.6-1.7-11.1-.6-10.8,10.1-7.8,14.1-.9-1.2-.3-3.5-.2-4.7.1-1.4.5-2.7,2.4-3.6,3.4-1.7,9.2-1.3,13.3-1.9-2.1,0-6,.2-7.8-.7-.5-.2-1.2-.9-1.5-1.5h0Z"/>
            <path class="st65" d="M397.7,7.6c0-2.1-2.5-3.8-5.6-3.8h-66.3c-11.9,0-23.2-1.2-35-1.5-4.5-.2-8.9,1.3-13.3,1.6-5.6.4-11.6,0-17.2,0h-101.9c-14.1,0-28-.8-42.1-1.3-11.2-.4-22.9-3.1-34.1-2.3-3.7.3-6,1.8-9.1,2.5-4.7,1-11.1,1.1-16.1,1.1S3.1,2.4,2.8,5.8c-.6,5.7-1,11.4-1.1,17.1,0,4.1-4.2,17.7,11.1,14.6-1.2-.9-9.3-2.3-7.4-3.8.8-.7,5.3-.1,6.7-.1-4.6-1.3-7.3-.6-6.9-4.6,1.6,0,2.9.1,4.3.4-6.8-1.6-4.9-5.8-5.2-9.3-.2-2.6-.4-5.2,0-7.8.2-1.4-.2-4.5,1.9-5.5,2.4-1.2,10.4-.6,13.3-.7,6.8-.3,13.5-.5,20.4-.5,4.5,0,8.9.2,13.4.3,2.9,0,6.6-.5,9.3.3-2.1.6-5.1.9-7.5,1.4,3.2,0,7.5-.3,10.5-.9,5.6-1.1,9.8-4.3,16-4.9,3.1-.3,6.6.4,9.7.8,11.4,1.4,23.1,2,34.7,2,12.9,0,25.7.4,38.6.2,11-.2,22.1.2,33.1.4,10.3.2,20.5-.6,30.8-.4,9.1.2,18.1.9,27.2,1.1,3.1,0,6.2.2,9.3.3,4.5.2,9-.2,13.4-.2s8.7-1.3,13.2-1.1c11.8.4,23.1,1.5,35,1.5h66.3c2.1,0,4,.8,4.9,2v-.9h0Z"/>
            <path class="st65" d="M13,96.8c-2.1,0-4-.1-6.1-.2-3.2-2.6,1.9-2.8,4.8-3.1-9.3.9-7.6-7.9-6.8-10.8.3-1.1,1-1.9,2.1-2.6-.7-.2-1.4-.4-1.9-.7-2.1-1.1-1.5-2.6.1-3.8-.7-.4-1.3-1-1.6-1.6-.6-1.2-1.1-2.5-1.3-3.9-1.2,7.7,1.3,19.1,1.5,21.4.4,5.7-2,22.6,7.2,25.6-2.9-.9-5-4.9-5.7-9.1-.8-4.8-.5-9.1,7.7-11.3h0Z"/>
          </g>
          <path class="st19" d="M393.1,97.1c1.1,0,3-.5,4.4-.5.5-6.7,3.6-16.5-6.4-19.2,7.7,2.2,6.1-21.4,6.2-23,0-1,1.1-3.1.3-4.1-.9-1.2-3.2-1.6-5.2-2.3,6-1.1,5.2-3.1,5.2-6.4V7.5c0-2.1-2.5-3.8-5.6-3.8h-29.2c.1,0,.2.2.4.3,1.9,1.4,18.8,18.7,10.8,17.5,7.3,1.1,18.8,3.7,14.3,9.4-4.3,5.4-23.3,5.6-32.2,5.5,5.4.6,13.5-.5,18.2,1.5,6,2.6,3.4,7.9,2,11.6-2.1,5.7-4.7,11.4-7.9,17-8,14.1-19.8,27.6-35.8,39.1,3,.2,5.9.6,8.4,1.3,4.9,1.4,7.5,4.4,5.1,7.4-1.9,2.4-6.8,3.5-11,4-8,1-16.3.8-24.5.5-3.6,1.8-7.3,3.4-11.2,5-35.6,14.5-78.7,22.4-121.3,26.3-3,.3-6,.5-8.9.8,2.2,1.3,3.2,3,.9,5-2.9,2.5-8.4,3.9-13,5.1-5,1.2-9.9,2.1-15.4,2.4-7.5.4-15.8,0-21.3-3.4-3.3-2-4.2-4.6-2.7-6.8-1.2,0-2.4,0-3.6,0-2.2,0-4.5,0-6.8,0-1,1.3-2.5,2.3-4.4,3-.7.4-1.6.7-2.5,1-1.8.5-4,.7-6.2.6-1.1,0-2.3,0-3.4-.2-4.7-.6-8.2-2.6-8.1-5-11.2-.6-22.4-1.8-33-4-18.1-3.8-34.5-10.6-44.1-20.4-.8-.8-1.6-1.6-2.3-2.5-1,4.5.8,10.3,1.1,14.4.3,4.9-6.5,23.7,4.4,24.9-2,1.4-7.5,3.8-2.2,5.6.6.2,8.3,0,9.4,0,3.8.2,7.6.5,11.5.6,29.1,1,58.1-.5,87.1-.5s47,1.6,69.3-1.2c4.4-.6,6.1,0,10,.5,17.5,2.1,36.7.7,54.4.7s23.5.5,35.3.7c6.4.1,12.8,1.1,19.1,1.7,4.4.4,9.8,1.7,14.3,1.5,3.6-.1,6.4-2.1,10.1-2.1,2.4,0,4.6.8,7.7.7,5.7-.2,11.8-.8,17.2-1.7,3.9-.6,8-3.1,11.8-3.1-1.6.5-2.9,1.4-3.4,2.4,3.2.8,6.8-.2,10-.3,2.9,0,5.9.4,8.9.5,5.4,0,11.6-.2,14.8-3.1,2.1-1.9,3.2-5.1,3.2-10s.4-11.6,0-17.3c-.3-3.9-.3-4-5.7-5.3,6.2-1.8,6.3-4.6,6.4-8.7,0-5.4.9-11,.5-16.5-.3-4.6,2-11.5-5.7-13.2h0ZM40.9,155.6c-2.7,1.7-7,2.2-10.8,2.4-4.1.2-8.8,0-12.5-1-3.5-1-6.2-3.4-5.3-5.6.6-1.6,2.6-2.6,5-3.1,8.1-3.8,18.3,1.6,23.6,5.1,1,.7,1,1.6,0,2.2h0ZM341.2,141.7c-7.2,4.3-19.6,4.7-29.2,4.1-7.1-.4-21.7-.6-25.3-5.1-2.4-3,1.9-3.9,6.2-5.5,10.6-4.1,22.8-9.6,36.1-9.9,14.7-.3,22.8,10.1,12.2,16.5h0ZM372.1,135.4c-.5,2.1-5.8,3.9-9.6,3.9-8.8,0-15.5-4.1-5.4-6.5,3.2-.7,10.5-1.3,13.2.2,1.4.8,1.9,1.6,1.7,2.4h0ZM385.2,97.4c-.2,3.5-9.9,3.1-13.8,2.8-1.7-.1-3.1-1.1-2.7-1.9-.9-.6-.8-1.6.2-2.1,2.2-1.2,4.9-2.1,8-2.2,3.5-.2,8.5,1,8.3,3.4h0ZM382.7,90.9c-3.1,1.1-7.2,1-10.6.8-3.3-.2-6.9-.5-9.8-1.4-1-.3-1.6-1.1-1.2-1.8.9-1.7,2.9-2.7,5.4-3.7.4-.2.8-.2,1.1-.3,1.6-.6,3.4-1.1,5.2-1.4,4.4-.7,9,0,11.6,2.2,2.1,1.9,1.8,4.3-1.7,5.5h0Z"/>
          <g>
            <path class="st14" d="M397.7,7.6c0-2.1-2.5-3.8-5.6-3.8h-66.3c-11.9,0-23.2-1.2-35-1.5-4.5-.2-8.9,1.3-13.3,1.6-5.6.4-11.6,0-17.2,0h-1c-.7,0-1.5,0-2.2,0-18.3,1.4-36.5,3-54.8,4.5-36.7,3.1-73.5,6.2-110.4,8.6-17.4,1.1-34.7,2-52.2,2.6-12.7.4-25.4.5-38-.2,0,1.2,0,2.4-.1,3.5,0,3.6-2.3,10.1.9,13.2,1.8,1.8,4.9,1.1,7.7,1.3,1,0,3.6.5,4.6.5,5.6,0,11.3,0,17,0-4.4.7-8.6,1.6-13.3,1.8-5.9.2-10.2.4-13.1,1.5,27,1.6,53.9,5.1,81,3.4,13.4-1.3,26.3-3.9,38.9-6.7,12-2.7,23.9-5.6,36.2-7.8,13.5-2.4,27.5-4,41.4-5.2,30.7-2.7,61.7-3.7,92.5-6.1,0,0-.1,0-.2,0,12.1-.9,24.1-1.8,36.3-2.5,22-1.2,44.1-1.9,66.1-2.1v-6.7h0Z"/>
            <path class="st37" d="M393.1,97.1c1.1,0,3-.5,4.4-.5.5-6.7,3.6-16.5-6.4-19.2,2.9.8,4.4-2.2,5.3-5.7-10,.4-20,.9-29.9,1.7-23.8,2-47.2,5.2-69.5,10.6-19.8,4.8-40.3,8.6-61.3,11.1-22.6,2.6-45.4,3.7-68.4,3.8-3,0-5.9,0-8.9,0,1.2.2,2.5.3,3.7.5,12.5,1.7,25,3.8,37.6,5,17.2,1.1,34.5.3,51.7-.6,15.9-.9,31.6-1.5,47.6-1.8,16.2-.3,32.3-.5,48.5-.4,17.1,0,34.3.5,51.3,1.7-.3-2.7-1.6-5.1-5.7-6h0Z"/>
            <path class="st36" d="M4.2,162.4c.3-.1.7-.2,1-.3,46.5-13.9,98.4-17.9,149.6-21.8,18.4-1.4,36.7-3.1,55.1-4.3,33.5-2.1,67.3-2.6,100.9-2.8,16.4,0,32.8,0,49.2,0,12.3,0,24.7,0,36.9-.6,1.1-1.4,1.3-3.1,1.3-5.1-24.6-1.7-49.4-1.9-74.1-1.6-23,.2-45.9.6-68.8,1.9-24.5,1.4-49.1,2.4-73.4-.7-23.2-2.9-46.2-6.4-69.4-9.2-22.3-2.7-44.7-5.1-67.3-6.9-13.6-1-27.2-1.8-40.8-2.3,0,.4.2.8.3,1.1.7,2.5,1.6,5.7,5.8,6.9,5.3,1.6,12.6-.3,18.2.7-9.3.2-21.4.2-24.6,6.1-2.6,4.7-.1,11.9.2,16.7.3,3.9-4,16.5-.3,22.2h0Z"/>
            <path class="st17" d="M384.5,157.5c-15.2.4-30.5.1-45.8.1-16,0-31.9,0-47.9.2-31.7.3-63.5,1.3-95,3.6-14.6,1.1-29.1,2.4-43.6,3.5,1.9-.1,3.7-.3,5.6-.4-9.1.7-18.3,1.4-27.4,2.2-14.3,1.2-28.6,2.6-42.7,4.5,9-.2,18-.3,27-.3s9.5,0,14.2.2c2.8,0,10.3,1.3,12.5.1-.4-.7-1.1-1.3-1.9-1.7,13,3.7,30.8,2,44.5.3,4.4-.6,6.1,0,10,.5,17.5,2.1,36.7.7,54.4.7s23.5.5,35.3.7c6.4.1,12.8,1.1,19.1,1.7,4.4.4,9.8,1.7,14.3,1.5,3.6-.1,6.4-2.1,10.1-2.1,2.4,0,4.6.8,7.7.7,5.5-.2,11.9-.6,17.1-1.7,4.2-.9,7.8-3.4,12.4-3.4-1.5.5-2.7,1.4-2.7,2.4,0-.8,15.9.5,17.5.6,5.5.1,11.9-.1,15.2-3.1,2.1-1.9,3.2-5.1,3.2-10v-1c-4.4.2-8.8.4-13.2.4h0Z"/>
            <path class="st38" d="M27.7,76.8c31.1-2.8,62.4-3,93.8-2.8,29.2.2,58.5.9,87.5-1.2,13.8-1.2,27.5-2.9,40.9-5.2,13.2-2.2,26-5.1,38.7-8.1,13.1-3,26.6-5.4,40.4-7.2,18.9-2.4,38.2-3.9,57.5-4.8,6.9-.7,11.2-.6,11.2-6.2v-2.8c-32.1.3-64.2,1.6-96.1,4,1.9-.1,3.7-.3,5.6-.4-29.1,2.3-58.3,3.5-87.4,5.6-16.4,1.3-32.9,3.1-48.7,6-13.9,2.6-27.2,6-40.9,8.9-15.2,3.3-30.6,5.6-46.8,6.3-26.7,1.2-53.1-2.2-79.7-3.7-2,3.2-2.1,9-1.6,14.4,8.4-1.3,16.9-2.3,25.5-3.1h0Z"/>
          </g>
          <path class="st21" d="M359,24.1c-8.4-1.3-30.5,9.3-16.5,10.3,5.7.4,12.7.4,17.7-1.4,6.3-2.3,7.4-7.5-1.2-8.8h0Z"/>
          <path class="st20" d="M371.8,27.1c-2.8.8-4.2,2.4-1.3,4.2,5.6,3.5,18.6-.8,9.5-4.1-2.4-.9-5.8-.8-8.2,0Z"/>
          <polygon class="st51" points="344.8 53 354.3 50.2 373.3 50.2 355.4 51.7 344.8 53"/>
          <path class="st30" d="M15,96.7s12.2.7,21.2.8,39.2-.8,39.2-.8H15Z"/>
          <polygon class="st48" points="38.7 93.9 43.4 92.8 56.6 93.9 38.7 93.9"/>
          <path class="st18" d="M343.7,158.5s8.7-1.4,10.8-2c2.1-.6,9.1-7.7,9.1-7.7l-5,8.4,3.5.6s-10-.8-18.4.6h0Z"/>
          <path class="st4" d="M84.5,155.8c-5.1.3-10.2.2-15.4.4-1.1,0-2,.1-3,0,.3.2,1.6.8,1.7,1,.3,1-3.5,1.8-4.7,2.1-2.4.6-4.7,1.4-7,2.1,0,0,0,0,0,0,4.6-1.1,9.3-2.1,14-3,2.4-.5,4.7-.9,7.1-1.3,2.4-.4,4.9-.7,7.3-1.1.2,0,.1-.1,0-.1Z"/>
          <polygon class="st63" points="344.3 52.7 353.8 49.9 372.8 49.9 354.8 51.4 344.3 52.7"/>
          <path class="st63" d="M14.4,96.4s12.2.7,21.2.8c9,0,39.2-.8,39.2-.8H14.4Z"/>
          <polygon class="st63" points="38.2 93.6 42.8 92.5 56 93.6 38.2 93.6"/>
          <path class="st63" d="M343.2,158.2s8.7-1.4,10.8-2,9.1-7.7,9.1-7.7l-5,8.4,3.5.6s-10-.8-18.4.6h0Z"/>
          <path class="st63" d="M84,155.5c-5.1.3-10.2.2-15.4.4-1.1,0-2,.1-3,0,.3.2,1.6.8,1.7,1,.3,1-3.5,1.8-4.7,2.1-2.4.6-4.7,1.4-7,2.1,0,0,0,0,0,0,4.6-1.1,9.3-2.1,14-3,2.4-.4,4.7-.9,7.1-1.3,2.4-.4,4.9-.7,7.3-1.1.2,0,.1-.1,0-.1h0Z"/>
        </g>
      </g>
    </g>
  </g>
</svg>