<?xml version="1.0" encoding="UTF-8"?>
<svg xmlns="http://www.w3.org/2000/svg" xmlns:xlink="http://www.w3.org/1999/xlink" viewBox="0 0 600 600.01">
  <defs>
    <style>
      .cls-1 {
        fill: url(#_Áåçûìÿííûé_ãðàäèåíò_27-5);
      }

      .cls-1, .cls-2, .cls-3, .cls-4, .cls-5, .cls-6 {
        mix-blend-mode: screen;
      }

      .cls-1, .cls-2, .cls-3, .cls-5, .cls-6 {
        opacity: .25;
      }

      .cls-2 {
        fill: url(#_Áåçûìÿííûé_ãðàäèåíò_27-4);
      }

      .cls-7 {
        fill: url(#_Áåçûìÿííûé_ãðàäèåíò_27-8);
        mix-blend-mode: multiply;
        opacity: .39;
      }

      .cls-3 {
        fill: url(#_Áåçûìÿííûé_ãðàäèåíò_27-2);
      }

      .cls-8 {
        isolation: isolate;
      }

      .cls-4 {
        fill: url(#_Áåçûìÿííûé_ãðàäèåíò_27-7);
        opacity: .5;
      }

      .cls-9 {
        fill: url(#_Áåçûìÿííûé_ãðàäèåíò_27);
      }

      .cls-5 {
        fill: url(#_Áåçûìÿííûé_ãðàäèåíò_27-3);
      }

      .cls-6 {
        fill: url(#_Áåçûìÿííûé_ãðàäèåíò_27-6);
      }
    </style>
    <linearGradient id="_Áåçûìÿííûé_ãðàäèåíò_27" data-name="Áåçûìÿííûé ãðàäèåíò 27" x1="300" y1="608.01" x2="300" y2="97.5" gradientUnits="userSpaceOnUse">
      <stop offset="0" stop-color="#b44320"/>
      <stop offset="1" stop-color="#ff9215"/>
    </linearGradient>
    <linearGradient id="_Áåçûìÿííûé_ãðàäèåíò_27-2" data-name="Áåçûìÿííûé ãðàäèåíò 27" x1="301.8" y1="608.01" x2="301.8" y2="97.5" xlink:href="#_Áåçûìÿííûé_ãðàäèåíò_27"/>
    <linearGradient id="_Áåçûìÿííûé_ãðàäèåíò_27-3" data-name="Áåçûìÿííûé ãðàäèåíò 27" x1="443.55" y1="608" x2="443.55" y2="97.51" xlink:href="#_Áåçûìÿííûé_ãðàäèåíò_27"/>
    <linearGradient id="_Áåçûìÿííûé_ãðàäèåíò_27-4" data-name="Áåçûìÿííûé ãðàäèåíò 27" x1="245.99" y1="608" x2="245.99" y2="97.5" xlink:href="#_Áåçûìÿííûé_ãðàäèåíò_27"/>
    <linearGradient id="_Áåçûìÿííûé_ãðàäèåíò_27-5" data-name="Áåçûìÿííûé ãðàäèåíò 27" x1="208.59" y1="608" x2="208.59" y2="97.55" xlink:href="#_Áåçûìÿííûé_ãðàäèåíò_27"/>
    <linearGradient id="_Áåçûìÿííûé_ãðàäèåíò_27-6" data-name="Áåçûìÿííûé ãðàäèåíò 27" x1="220.05" y1="608" x2="220.05" y2="97.5" xlink:href="#_Áåçûìÿííûé_ãðàäèåíò_27"/>
    <linearGradient id="_Áåçûìÿííûé_ãðàäèåíò_27-7" data-name="Áåçûìÿííûé ãðàäèåíò 27" y1="317.56" x2="300" y2="50.93" xlink:href="#_Áåçûìÿííûé_ãðàäèåíò_27"/>
    <linearGradient id="_Áåçûìÿííûé_ãðàäèåíò_27-8" data-name="Áåçûìÿííûé ãðàäèåíò 27" x1="303.92" y1="595.4" x2="303.92" y2="115.71" xlink:href="#_Áåçûìÿííûé_ãðàäèåíò_27"/>
  </defs>
  <g class="cls-8">
    <g id="Layer_1" data-name="Layer 1">
      <g>
        <path class="cls-9" d="M600,300c0,165.69-134.31,300.01-300,300.01S0,465.69,0,300,134.31,0,300,0s300,134.32,300,300Z"/>
        <g>
          <path class="cls-3" d="M170.69,243.34c73.8-7.97,140.37-18.34,214.44-5.6,71.43,12.28,142.72,39.4,214.75,57.83-1.3-89.04-41.34-168.63-104.07-222.75-57.69,13.65-114.5,31.52-170.08,52-66.82,24.63-130.1,56.28-195.63,83.8-40.76,17.12-81.03,25.51-122.23,23.17-1.68,7.23-3.01,14.59-4.17,21.99,55.77-1.41,111.47-4.44,166.98-10.44Z"/>
          <path class="cls-5" d="M298.24,311.43c51.47,28.21,92.99,70.94,142.77,101.83,34.66,21.5,71.41,38.75,109.48,51.71,18.64-28.26,32.67-59.84,40.93-93.69-65.32-15.81-130.04-37.74-196.22-52.35-34.32-7.58-66.99-9.62-99.5-8.84.85.46,1.7.87,2.55,1.34Z"/>
          <path class="cls-2" d="M468.73,531.52c-56.49-24.21-107.46-56.26-158.62-89.94-51.25-33.72-105.5-65.92-167.53-73.31-44.35-5.29-89.31-1.66-133.75,3.87,4.69,18.96,11.14,37.23,19.24,54.58,83.68.28,167.59,25.67,243.99,57.29,55.7,23.07,111.61,50.37,163.16,83.75,16.98-8.6,33-18.77,47.93-30.29-4.81-1.97-9.64-3.91-14.43-5.95Z"/>
          <path class="cls-1" d="M251.1,559.05c-51.08-21.51-109.25-42.67-167.59-51.47,54.6,56.93,131.38,92.42,216.49,92.42,11.4,0,22.61-.7,33.67-1.94-27.14-14.41-54.91-27.35-82.57-39.01Z"/>
          <path class="cls-6" d="M149.88,114.42c61.61-28.68,124.68-54.61,188.94-76.76,20.63-7.11,41.48-13.8,62.48-20.08C369.65,6.23,335.55,0,300,0,187.96,0,90.33,61.47,38.81,152.47c37.4-4.21,72.39-20.06,111.06-38.05Z"/>
        </g>
        <path class="cls-4" d="M300,0C134.31,0,0,134.32,0,300c0,4.49.14,8.94.34,13.38C5.59,193.77,80.86,92.34,186.19,49.12c.27-.26.53-.54.81-.78,9.14-7.9,14-10.7,25.41-14.8.82-.29,1.63-.54,2.49-.74,3.35-.76,9.86-1.54,13.32-1.8.39-.03.76-.09,1.15-.09,4.2-.12,8.27.49,12.2,1.56,18.72-3.7,38.09-5.64,57.9-5.69,2.37-.11,4.73-.16,7.08-.16,2.21-.01,4.35.18,6.47.47,40.3,1.73,78.51,11.46,113.17,27.55,1-.09,1.9-.15,2.55-.15,2.53,0,11.13,1.16,13.59,1.81,2.23.6,4.74,1.93,6.49,2.66,2.72,1.16,4.55,1.7,6.72,2.97,3.28,2.54,6.56,5.07,9.82,7.6.16.12.32.24.47.36.4.38.78.77,1.14,1.19,2.57,2.94,5.82,7.23,8.05,10.42.68.98,1.27,2.01,1.82,3.05,71.25,52.1,118.69,134.82,122.83,228.84.2-4.44.34-8.89.34-13.38C600,134.32,465.69,0,300,0Z"/>
        <path class="cls-7" d="M564.96,210.5c12.66,78.78-44.54,195.4-107.28,243.25-106.51,81.23-390.62,86.47-431.57-80.4,30.21,123.15,141.27,214.53,273.72,214.53,155.69,0,281.89-126.21,281.89-281.9,0-33.55-5.99-65.66-16.77-95.5Z"/>
      </g>
    </g>
  </g>
</svg>