<?xml version="1.0" encoding="UTF-8"?>
<svg xmlns="http://www.w3.org/2000/svg" xmlns:xlink="http://www.w3.org/1999/xlink" viewBox="0 0 33.89 36.32">
  <defs>
    <style>
      .cls-1 {
        fill: url(#_Áåçûìÿííûé_ãðàäèåíò_27-7);
      }

      .cls-1, .cls-2, .cls-3, .cls-4, .cls-5, .cls-6, .cls-7, .cls-8, .cls-9, .cls-10 {
        mix-blend-mode: multiply;
      }

      .cls-1, .cls-4, .cls-5 {
        opacity: .23;
      }

      .cls-11 {
        fill: url(#_Áåçûìÿííûé_ãðàäèåíò_148-5);
      }

      .cls-12 {
        fill: url(#_Áåçûìÿííûé_ãðàäèåíò_148-3);
      }

      .cls-2 {
        fill: url(#_Áåçûìÿííûé_ãðàäèåíò_27-3);
      }

      .cls-2, .cls-3, .cls-7, .cls-8, .cls-10 {
        opacity: .33;
      }

      .cls-3 {
        fill: url(#_Áåçûìÿííûé_ãðàäèåíò_27-2);
      }

      .cls-4 {
        fill: url(#_Áåçûìÿííûé_ãðàäèåíò_27-8);
      }

      .cls-5 {
        fill: url(#_Áåçûìÿííûé_ãðàäèåíò_27-6);
      }

      .cls-6 {
        opacity: .46;
      }

      .cls-13 {
        fill: url(#_Áåçûìÿííûé_ãðàäèåíò_148);
      }

      .cls-14 {
        isolation: isolate;
      }

      .cls-15 {
        fill: url(#_Áåçûìÿííûé_ãðàäèåíò_148-8);
      }

      .cls-16 {
        opacity: .71;
      }

      .cls-16, .cls-17 {
        mix-blend-mode: screen;
      }

      .cls-7 {
        fill: url(#_Áåçûìÿííûé_ãðàäèåíò_27);
      }

      .cls-18 {
        fill: url(#_Áåçûìÿííûé_ãðàäèåíò_148-4);
      }

      .cls-8 {
        fill: url(#_Áåçûìÿííûé_ãðàäèåíò_27-5);
      }

      .cls-19 {
        fill: url(#_Áåçûìÿííûé_ãðàäèåíò_148-7);
      }

      .cls-20 {
        fill: #7a2900;
      }

      .cls-21 {
        fill: url(#_Áåçûìÿííûé_ãðàäèåíò_148-10);
      }

      .cls-22 {
        fill: url(#_Áåçûìÿííûé_ãðàäèåíò_148-11);
      }

      .cls-9 {
        fill: #864300;
        opacity: .49;
      }

      .cls-23 {
        fill: url(#_Áåçûìÿííûé_ãðàäèåíò_148-6);
      }

      .cls-24 {
        fill: url(#_Áåçûìÿííûé_ãðàäèåíò_148-9);
      }

      .cls-17 {
        opacity: .69;
      }

      .cls-10 {
        fill: url(#_Áåçûìÿííûé_ãðàäèåíò_27-4);
      }

      .cls-25 {
        fill: url(#_Áåçûìÿííûé_ãðàäèåíò_148-2);
      }
    </style>
    <linearGradient id="_Áåçûìÿííûé_ãðàäèåíò_148" data-name="Áåçûìÿííûé ãðàäèåíò 148" x1="19.43" y1="32.93" x2="14.8" y2="-4.39" gradientUnits="userSpaceOnUse">
      <stop offset="0" stop-color="#b44d2f"/>
      <stop offset=".18" stop-color="#c15b28"/>
      <stop offset=".72" stop-color="#e68219"/>
      <stop offset="1" stop-color="#f59113"/>
    </linearGradient>
    <linearGradient id="_Áåçûìÿííûé_ãðàäèåíò_27" data-name="Áåçûìÿííûé ãðàäèåíò 27" x1="25.01" y1="35.66" x2="16.87" y2="4.14" gradientUnits="userSpaceOnUse">
      <stop offset="0" stop-color="#b44320"/>
      <stop offset="1" stop-color="#ff9215"/>
    </linearGradient>
    <linearGradient id="_Áåçûìÿííûé_ãðàäèåíò_27-2" data-name="Áåçûìÿííûé ãðàäèåíò 27" x1="22.29" y1="36.66" x2="14.07" y2="4.82" xlink:href="#_Áåçûìÿííûé_ãðàäèåíò_27"/>
    <linearGradient id="_Áåçûìÿííûé_ãðàäèåíò_27-3" data-name="Áåçûìÿííûé ãðàäèåíò 27" x1="19.76" y1="37.02" x2="11.62" y2="5.49" xlink:href="#_Áåçûìÿííûé_ãðàäèåíò_27"/>
    <linearGradient id="_Áåçûìÿííûé_ãðàäèåíò_27-4" data-name="Áåçûìÿííûé ãðàäèåíò 27" x1="21.06" y1="38.11" x2="12.33" y2="4.34" xlink:href="#_Áåçûìÿííûé_ãðàäèåíò_27"/>
    <linearGradient id="_Áåçûìÿííûé_ãðàäèåíò_27-5" data-name="Áåçûìÿííûé ãðàäèåíò 27" x1="32.77" y1="33.66" x2="24.63" y2="2.13" xlink:href="#_Áåçûìÿííûé_ãðàäèåíò_27"/>
    <linearGradient id="_Áåçûìÿííûé_ãðàäèåíò_148-2" data-name="Áåçûìÿííûé ãðàäèåíò 148" x1="32.91" y1="40.19" x2="32.91" y2="7.13" xlink:href="#_Áåçûìÿííûé_ãðàäèåíò_148"/>
    <linearGradient id="_Áåçûìÿííûé_ãðàäèåíò_148-3" data-name="Áåçûìÿííûé ãðàäèåíò 148" x1="17.05" y1="40.19" x2="17.05" y2="7.13" xlink:href="#_Áåçûìÿííûé_ãðàäèåíò_148"/>
    <linearGradient id="_Áåçûìÿííûé_ãðàäèåíò_148-4" data-name="Áåçûìÿííûé ãðàäèåíò 148" x1="32.08" y1="40.18" x2="32.08" y2="7.13" xlink:href="#_Áåçûìÿííûé_ãðàäèåíò_148"/>
    <linearGradient id="_Áåçûìÿííûé_ãðàäèåíò_148-5" data-name="Áåçûìÿííûé ãðàäèåíò 148" x1="1.69" y1="40.19" x2="1.69" y2="7.13" xlink:href="#_Áåçûìÿííûé_ãðàäèåíò_148"/>
    <linearGradient id="_Áåçûìÿííûé_ãðàäèåíò_27-6" data-name="Áåçûìÿííûé ãðàäèåíò 27" x1="22.68" y1="36.26" x2="14.54" y2="4.74" xlink:href="#_Áåçûìÿííûé_ãðàäèåíò_27"/>
    <linearGradient id="_Áåçûìÿííûé_ãðàäèåíò_27-7" data-name="Áåçûìÿííûé ãðàäèåíò 27" x1="27.45" y1="11.13" x2="25.55" y2="3.76" xlink:href="#_Áåçûìÿííûé_ãðàäèåíò_27"/>
    <linearGradient id="_Áåçûìÿííûé_ãðàäèåíò_27-8" data-name="Áåçûìÿííûé ãðàäèåíò 27" x1="23.01" y1="14.22" x2="22.6" y2="12.64" xlink:href="#_Áåçûìÿííûé_ãðàäèåíò_27"/>
    <linearGradient id="_Áåçûìÿííûé_ãðàäèåíò_148-6" data-name="Áåçûìÿííûé ãðàäèåíò 148" x1="22" y1="37.8" x2="24.73" y2="17.54" xlink:href="#_Áåçûìÿííûé_ãðàäèåíò_148"/>
    <linearGradient id="_Áåçûìÿííûé_ãðàäèåíò_148-7" data-name="Áåçûìÿííûé ãðàäèåíò 148" x1="22.86" y1="37.92" x2="25.6" y2="17.66" xlink:href="#_Áåçûìÿííûé_ãðàäèåíò_148"/>
    <linearGradient id="_Áåçûìÿííûé_ãðàäèåíò_148-8" data-name="Áåçûìÿííûé ãðàäèåíò 148" x1="23.77" y1="38.04" x2="26.51" y2="17.78" xlink:href="#_Áåçûìÿííûé_ãðàäèåíò_148"/>
    <linearGradient id="_Áåçûìÿííûé_ãðàäèåíò_148-9" data-name="Áåçûìÿííûé ãðàäèåíò 148" x1="10.79" y1="36.28" x2="13.52" y2="16.03" xlink:href="#_Áåçûìÿííûé_ãðàäèåíò_148"/>
    <linearGradient id="_Áåçûìÿííûé_ãðàäèåíò_148-10" data-name="Áåçûìÿííûé ãðàäèåíò 148" x1="12.56" y1="36.52" x2="15.3" y2="16.27" xlink:href="#_Áåçûìÿííûé_ãðàäèåíò_148"/>
    <linearGradient id="_Áåçûìÿííûé_ãðàäèåíò_148-11" data-name="Áåçûìÿííûé ãðàäèåíò 148" x1="11.65" y1="36.4" x2="14.39" y2="16.14" xlink:href="#_Áåçûìÿííûé_ãðàäèåíò_148"/>
  </defs>
  <g class="cls-14">
    <g id="Layer_2" data-name="Layer 2">
      <g id="Layer_1-2" data-name="Layer 1">
        <g>
          <g>
            <path class="cls-20" d="M32.96,3.64c-.8-.34-1.99-.32-2.62-.41-5.04-.71-21.95-.17-23.24-.14-2.43.06-6.57-.39-6.74,2.91-.11,2.1-.22,3.84,1.58,5.23.66.51,1.4.91,2.12,1.31-1.54,1.17-3.47,1.79-3.79,3.81-.56,3.48-.09,6.88.07,10.37.08,1.67.26,3.38.69,5,.35,1.34.62,2.75,1.91,3.44,1.12.6,2.51.66,3.74.83,3.68.52,23.66.4,24.74-.27,1.99-1.24,2.04-4.64,2.04-6.71-.01-5.3.37-9.53.42-14.81.01-1.23.03-2.65-.89-3.58-.59-.59-2.94-1.23-1.71-2.41.66-.63,2.1-.5,2.37-1.55.13-.49.16-1.08.14-1.6,0-.25-.03-.6-.14-.83-.13-.27-.38-.46-.69-.59Z"/>
            <path class="cls-13" d="M32.91.88c-.46-.33-2.04-.44-2.58-.51C25.29-.35,8.38.2,7.1.23c-2.77.06-5.7.01-6.62,3.02-.46,1.51-.2,3.46-.03,5.04.24,2.19,1.62,2.19,3.56,2.04-.78.06-2.3.36-2.92.85-.74.57-.69,1.44-.83,2.3-.56,3.48-.09,6.88.07,10.37.08,1.67.26,3.38.69,5.01.35,1.34.62,2.75,1.91,3.44,1.12.6,2.51.66,3.74.83,3.68.52,23.66.4,24.74-.27.84-.52,2.16-2.66,1.26-3.55-.33-.33-1.11-.02-1.58-.24,1.91-.18,2.37-1.31,2.36-2.91-.01-5.3.37-9.53.42-14.81.02-2.04-.11-3.66-2.17-4.47.62-.08,1.42-.47,1.98-.65.35-1.18.26-4.58-.78-5.34Z"/>
            <g class="cls-6">
              <path class="cls-7" d="M32.91.88c-.46-.33-2.04-.44-2.58-.51C27.99.03,23.06-.03,18.34,0,12.39,1.44,6.47,3.05.36,3.72c-.2.96-.16,2.06-.06,3.1,2.73-.33,5.48-.17,8.24-.07,3.33.12,6.59-.31,9.89-.76,5.14-.71,10.28-1.44,15.45-1.4.01-1.43-.25-3.18-.97-3.7Z"/>
              <path class="cls-3" d="M20.48,18.66c-.19.09-.4.17-.64.24-1.75.55-2.97.48-4.68-.24-5.37-2.27,4.55-3.3,2.5-.77.53-.08.96-.56,1.23-1.07-1.22-1.93-5.94-1.9-7.36-.21-1.42,1.69,1.07,3.54,2.5,4.3,3.21,1.69,6.19-.53,8.94-2.05,1.63-.9,2.67-1.07,4.46-1.14.52-.02,6.28-.58,6.28-.6.05-1.17.09-2.35.13-3.58,0-.28-7.97.93-8.99.83-3.49-.33-6.77-2.24-10.01-3.42-2.34-.85-4.57.22-6.79.89-2.18.66-4.25.39-6.5.55-.43.03-.79-.07-1.06-.25-.12.42-.14.89-.22,1.35C0,15.08-.03,16.67.02,18.26c2.02.06,4.5.58,6.44-.09,1.89-.65,3.27-2.3,4.86-3.44,1.22-.87,2.21-1.47,3.44-1.33,1.84.2,3.99,1.48,5.49,2.5,1.65,1.13,1.65,2.1.23,2.74Z"/>
              <path class="cls-2" d="M1.07,29.01c2.43.56,4.83,1.26,7.28,1.74,3.08.6,6.23.56,9.35.68,4.69.19,9.38.49,14.02,1.2.81-.75,1.77-2.53.97-3.32-.33-.33-1.11-.02-1.58-.24,1.91-.18,2.37-1.31,2.36-2.91,0-.16,0-.32,0-.48-5.49,1.55-11.02,2.9-16.77,3.16-4.32.19-8.63-.09-12.9-.71-1.02-.15-2.03-.34-3.04-.54.08.43.17.86.28,1.29.01.05.03.1.04.16Z"/>
              <path class="cls-10" d="M3.34,24.32c3.65.61,7.29,1.06,10.93,1.69,3.17.55,6.88-.06,9.86-1.27,3.05-1.24,6.2-2.01,9.4-2.94.01-.38.02-.75.04-1.12-4.65.31-9.32,1.18-13.93,1.3-6.47.17-12.94.18-19.41,0,.04.59.08,1.18.11,1.77,1,.2,2,.4,3.01.57Z"/>
              <path class="cls-8" d="M20.72,9.76c4.35.51,8.74.39,13.11.05-.06-.57-.18-1.08-.42-1.53-4.73,0-9.44.65-14.15,1.29.48.07.97.13,1.46.19Z"/>
            </g>
            <g class="cls-16">
              <path class="cls-25" d="M32.87,7.61c-.27-.25-.59-.46-.94-.71.2.93.94,1.55,1.41,2.33.42.7.54,1.59.53,2.39,0-.1,0-.19,0-.28,0-.87.02-1.8-.28-2.63-.18-.49-.42-.82-.73-1.1Z"/>
              <path class="cls-12" d="M32.91.88c-.46-.33-2.04-.44-2.58-.51C25.29-.35,8.38.2,7.1.23c-2.77.06-5.7.01-6.62,3.02-.24.79-.28,1.7-.25,2.61.03-.54.1-1.06.25-1.54.6-1.97,2.07-2.63,3.79-2.87,1.04-.39,2.18-.58,3.2-.68,1.8-.17,3.85-.12,5.65.38,1.35-.03,2.83-.05,4.35-.06.08-.04.17-.07.26-.1,1.8-.53,3.62-.26,5.44-.07.24.03.48.08.69.17.82.01,1.61.03,2.36.06.13-.07.26-.13.41-.16.92-.21,1.89-.28,2.81,0,.3.09.55.24.76.43.04,0,.09.01.13.02.54.08,2.12.18,2.58.51.61.44.89,1.78.95,3.06.08-1.49-.17-3.56-.95-4.13Z"/>
              <path class="cls-18" d="M31.19,29.15c.46-.02.83.25,1.11.6.08.11.63.83.59.96.36-1.3-.52-1.83-1.7-1.56Z"/>
              <path class="cls-11" d="M.27,14.55c.16-.98.26-1.53.88-2.31.59-.75,1.35-1.43,2.23-1.83-.83.05-1.74.31-2.37.89-.63.57-.61,1.38-.74,2.18C.04,14.89-.02,16.29,0,17.68c.02-1.04.09-2.08.26-3.13Z"/>
            </g>
            <path class="cls-5" d="M31.72,6.87c.62-.08,1.42-.47,1.98-.65.35-1.18.26-4.58-.78-5.34-.46-.33-2.01-.43-2.57-.51,1.35,2.01,1.44,4.58.39,7.06-2.75,6.49-9.6,11.46-16.12,13.57-3.9,1.26-8.54,1.53-12.25-.49-.88-.48-1.66-1.09-2.33-1.81.07,1.71.22,3.42.31,5.14.08,1.67.26,3.38.69,5.01.35,1.34.62,2.75,1.91,3.44,1.12.6,2.51.66,3.74.83,3.68.52,23.66.4,24.74-.27.84-.52,2.16-2.66,1.26-3.55-.33-.33-1.11-.02-1.58-.24,1.91-.18,2.37-1.31,2.36-2.91-.01-5.3.37-9.53.42-14.81.02-2.04-.11-3.66-2.17-4.47ZM16.59,30.52c-.74,1.68-4.78,1.98-4.95-.24-.16-2.07,4.29-2.74,4.97-.87.15.42.13.79-.01,1.11ZM30.11,25.62c-.23.82-1.08,1.63-1.73,2.13,3.79,3.55-11.75,5.9-9.3,1.29.9-1.7,3.47-3.33,5.14-4.22,1.31-.7,5.12-2.41,5.9.01.08.26.07.52,0,.79Z"/>
            <path class="cls-1" d="M28.23,3.92c-1.17-.97-2.74-.3-3.4.9-.49.88-.64,1.92-.58,2.96-.22,1.19-.17,2.42.15,3.3.11.31.45.47.75.52,1.57.25,2.95-2.21,3.44-3.41.52-1.27.85-3.27-.35-4.27Z"/>
            <path class="cls-4" d="M23.57,12.76c-.15-.17-.35-.23-.57-.21-.33.03-.55.22-.76.47-.15.18-.28.41-.32.64-.01.08,0,.16.03.23,0,0,0,0,0,0-.04.21.17.44.37.45.58.03,1.21-.41,1.35-.98.05-.22.05-.43-.11-.61Z"/>
          </g>
          <g>
            <path class="cls-20" d="M19.69,13.17c-.43-.02-.87,0-1.3,0-2.16,0-4.29.12-6.45.02-1.04-.05-2.09-.03-3.13-.03-.58,0-1.27.07-1.84-.11-.03-.65-.04-1.39-.66-1.69-.34-.16-1.22-.26-1.58-.15.95-.29,2.25.09,2.29-1.32.01-.66-.23-.97.48-1.05,2.42-.27,4.77.2,7.18.21,1.41,0,2.8-.19,4.22-.1.62.04,1.43-.1,2.03.05.45.12.27.01.37.34.13.46-.01,1.11,0,1.58.02.47.22,1.99-.22,2.34-.21.16-.66-.03-.88-.06-.16-.02-.33-.03-.5-.04ZM23.88,9.4c-1,.99-.95,3.02.47,3.71.45.22,1.22.33,1.72.25.95-.16,1.77-1.26,1.78-2.16.01-1.94-2.49-3.25-3.97-1.8ZM20.19,19.74c.22.03.67.22.88.06.44-.35.24-1.87.22-2.34-.01-.47.13-1.12,0-1.58-.09-.33.09-.22-.37-.34-.59-.16-1.4-.02-2.03-.05-1.42-.09-2.81.11-4.22.1-2.4,0-4.76-.48-7.18-.21-.72.08-.29.52-.63.91-.32.36-.91.13-1.31.27.45.03.98-.04,1.34.27-.3.56-.96.21-1.34.56.1-.09.8,0,.9.08.31.23.29.72.33,1.1.04.35.16.67.18,1.02.56.19,1.25.11,1.84.11,1.04,0,2.09-.02,3.13.03,2.16.1,4.29-.03,6.45-.02.43,0,.87-.02,1.3,0,.17,0,.33.02.5.04ZM23.88,15.93c-1,.99-.95,3.02.47,3.71.45.22,1.22.33,1.72.25.95-.16,1.77-1.26,1.78-2.16.01-1.94-2.49-3.25-3.97-1.8ZM20.19,26.59c.22.03.67.22.88.05.44-.35.24-1.87.22-2.34-.01-.48.13-1.12,0-1.58-.09-.33.09-.22-.37-.34-.59-.16-1.4-.02-2.03-.05-1.42-.09-2.81.11-4.22.1-2.4,0-4.76-.48-7.18-.21-.7.08-.46.39-.48,1.05,0,.45-.24.74-.31,1.16-.05.3.06.67.09.98.04.35.16.67.18,1.02.56.19,1.25.11,1.84.11,1.04,0,2.09-.02,3.13.02,2.16.1,4.29-.03,6.45-.02.43,0,.87-.02,1.3,0,.17,0,.33.02.5.04ZM23.88,22.78c-1,.99-.95,3.02.47,3.71.45.22,1.22.33,1.72.25.95-.16,1.77-1.26,1.78-2.16.01-1.94-2.49-3.25-3.97-1.8Z"/>
            <path class="cls-9" d="M25.7,25.8c-.38,0-.84-.09-1.1-.21-.59-.27-.76-.8-.81-1.09-.1-.58.09-1.2.49-1.57.3-.28.68-.43,1.09-.43.49,0,1,.21,1.38.57.35.33.53.75.53,1.19,0,.59-.61,1.42-1.3,1.53-.08.01-.17.02-.27.02h0ZM20.72,25.74c-.06-.01-.13-.03-.19-.04-.11-.03-.2-.05-.28-.06-.17-.02-.35-.03-.55-.04-.14,0-.28,0-.41,0-.15,0-.3,0-.45,0-.15,0-.29,0-.43,0h-.11c-.77,0-1.54.01-2.29.03-.74.01-1.51.03-2.26.03-.66,0-1.24-.01-1.79-.04-.47-.02-.98-.03-1.65-.03-.26,0-.52,0-.79,0-.24,0-.48,0-.72,0-.13,0-.26,0-.4,0-.13,0-.27,0-.41,0-.16,0-.34,0-.51-.03-.02-.08-.03-.16-.05-.23-.03-.13-.06-.25-.07-.36-.01-.1-.03-.2-.05-.3-.03-.17-.07-.37-.05-.47.02-.12.07-.23.12-.36.09-.22.2-.49.2-.83,0-.17,0-.32-.02-.44,0-.01,0-.02,0-.03.48-.05.99-.08,1.54-.08.91,0,1.85.07,2.75.14.92.07,1.86.14,2.81.14h.03c.59,0,1.17-.03,1.74-.06.55-.03,1.12-.06,1.68-.06.26,0,.5,0,.74.02.09,0,.18,0,.28,0,.17,0,.35,0,.53-.01.17,0,.34-.01.51-.01.25,0,.43.02.58.05.04.19.02.48,0,.73-.02.2-.03.4-.03.59,0,.08.01.19.02.32.05.71.05,1.18-.01,1.4ZM25.7,19.27c-.38,0-.84-.09-1.1-.21-.59-.27-.76-.8-.81-1.09-.1-.58.09-1.2.49-1.57.3-.28.68-.43,1.09-.43.49,0,1,.21,1.38.57.35.33.53.75.53,1.19,0,.59-.61,1.42-1.3,1.53-.08.01-.17.02-.27.02h0ZM20.72,19.21c-.06-.01-.13-.03-.19-.04-.11-.03-.2-.05-.28-.06-.17-.02-.35-.03-.55-.04-.14,0-.27,0-.41,0-.15,0-.3,0-.45,0-.14,0-.29,0-.43,0h-.12c-.77,0-1.54.02-2.29.03-.74.01-1.51.03-2.26.03-.66,0-1.24-.01-1.79-.04-.47-.02-.98-.03-1.65-.03-.26,0-.53,0-.79,0-.24,0-.48,0-.71,0-.13,0-.26,0-.4,0-.13,0-.27,0-.41,0-.16,0-.34,0-.52-.03-.02-.08-.03-.16-.05-.23-.03-.13-.06-.25-.07-.36-.01-.09-.03-.2-.05-.3-.03-.17-.07-.36-.05-.47.02-.12.07-.23.12-.36.09-.22.2-.49.2-.83,0-.17,0-.32-.02-.44,0-.01,0-.02,0-.03.48-.05.99-.08,1.54-.08.91,0,1.85.07,2.75.14.92.07,1.86.14,2.81.14h.03c.59,0,1.17-.03,1.74-.06.55-.03,1.12-.06,1.67-.06.26,0,.5,0,.74.02.09,0,.18,0,.28,0,.17,0,.35,0,.53-.01.17,0,.34-.01.51-.01.25,0,.43.02.58.05.04.19.02.48,0,.73-.02.2-.03.4-.03.59,0,.08.01.19.02.32.05.71.05,1.18-.01,1.4ZM25.7,13.05c-.38,0-.84-.09-1.1-.21-.59-.27-.76-.8-.81-1.09-.1-.58.09-1.2.49-1.57.3-.28.68-.43,1.09-.43.49,0,1,.21,1.38.57.35.33.53.75.53,1.19,0,.59-.61,1.41-1.3,1.53-.08.01-.17.02-.27.02ZM20.72,12.99c-.06-.01-.13-.03-.19-.04-.11-.03-.2-.05-.28-.06-.17-.02-.35-.03-.55-.04-.14,0-.27,0-.41,0-.15,0-.3,0-.45,0-.14,0-.29,0-.43,0h-.12c-.77,0-1.54.02-2.29.03-.74.01-1.51.03-2.26.03-.66,0-1.24-.01-1.79-.04-.47-.02-.98-.03-1.65-.03-.26,0-.53,0-.79,0-.24,0-.48,0-.71,0-.13,0-.26,0-.4,0-.13,0-.27,0-.41,0-.16,0-.34,0-.52-.03-.02-.08-.03-.16-.05-.23-.03-.13-.06-.25-.07-.36-.01-.09-.03-.2-.05-.3-.03-.17-.07-.36-.05-.47.02-.12.07-.23.12-.36.09-.22.2-.49.2-.83,0-.17,0-.32-.02-.44,0-.01,0-.02,0-.03.48-.05.99-.08,1.54-.08.91,0,1.85.07,2.75.14.92.07,1.86.14,2.81.14h.03c.59,0,1.17-.03,1.74-.06.55-.03,1.12-.06,1.67-.06.26,0,.5,0,.74.02.09,0,.18,0,.28,0,.17,0,.35,0,.53-.01.17,0,.34-.01.51-.01.25,0,.43.02.58.05.04.19.02.48,0,.73-.02.2-.03.4-.03.59,0,.08.01.19.02.32.05.71.05,1.18-.01,1.4Z"/>
            <g class="cls-17">
              <path class="cls-23" d="M26.07,13.35c-.5.09-1.27-.03-1.72-.25-.7-.34-1.07-1-1.14-1.7-.1.89.26,1.84,1.14,2.27.45.22,1.22.33,1.72.25.95-.16,1.77-1.26,1.78-2.16,0-.11,0-.22-.02-.32-.13.85-.88,1.77-1.75,1.92Z"/>
              <path class="cls-19" d="M26.07,19.89c-.5.08-1.27-.03-1.72-.25-.7-.34-1.07-1-1.14-1.7-.1.89.26,1.84,1.14,2.27.45.22,1.22.33,1.72.25.95-.16,1.77-1.26,1.78-2.16,0-.11,0-.22-.02-.32-.13.85-.88,1.77-1.75,1.92Z"/>
              <path class="cls-15" d="M26.07,26.74c-.5.09-1.27-.03-1.72-.25-.7-.34-1.07-1-1.14-1.7-.1.89.26,1.84,1.14,2.27.45.22,1.22.33,1.72.25.95-.16,1.77-1.26,1.78-2.16,0-.11,0-.22-.02-.32-.13.85-.88,1.77-1.75,1.92Z"/>
              <path class="cls-24" d="M21.06,13.26c-.21.16-.66-.03-.88-.06-.16-.02-.33-.03-.5-.04-.43-.02-.87,0-1.3,0-2.16,0-4.29.12-6.45.02-1.04-.05-2.09-.03-3.13-.03-.58,0-1.27.07-1.84-.11-.01-.35-.14-.67-.18-1.02-.02-.15-.05-.31-.08-.48,0,.02-.01.04-.02.07-.05.3.06.67.09.98.04.35.16.67.18,1.02.56.19,1.25.11,1.84.11,1.04,0,2.09-.02,3.13.03,2.16.1,4.29-.03,6.45-.02.43,0,.87-.02,1.3,0,.17,0,.33.02.5.04.22.03.67.22.88.06.27-.22.3-.87.27-1.46-.02.39-.09.75-.27.89Z"/>
              <path class="cls-21" d="M21.06,26.65c-.21.16-.66-.03-.88-.05-.16-.02-.33-.03-.5-.04-.43-.02-.87,0-1.3,0-2.16,0-4.29.12-6.45.02-1.04-.05-2.09-.03-3.13-.02-.58,0-1.27.07-1.84-.11-.01-.35-.14-.67-.18-1.02-.02-.15-.05-.31-.08-.48,0,.02-.01.04-.02.07-.05.3.06.67.09.98.04.35.16.67.18,1.02.56.19,1.25.11,1.84.11,1.04,0,2.09-.02,3.13.03,2.16.1,4.29-.03,6.45-.03.43,0,.87-.02,1.3,0,.17,0,.33.02.5.04.22.03.67.22.88.06.27-.21.3-.88.27-1.46-.02.39-.09.75-.27.89Z"/>
              <path class="cls-22" d="M21.06,19.8c-.21.16-.66-.03-.88-.06-.16-.02-.33-.03-.5-.04-.43-.02-.87,0-1.3,0-2.16,0-4.29.12-6.45.02-1.04-.05-2.09-.03-3.13-.03-.58,0-1.27.07-1.84-.11-.01-.35-.14-.67-.18-1.02-.02-.15-.05-.31-.08-.48,0,.02-.01.04-.02.07-.05.3.06.67.09.98.04.35.16.67.18,1.02.56.19,1.25.11,1.84.11,1.04,0,2.09-.02,3.13.03,2.16.1,4.29-.03,6.45-.03.43,0,.87-.02,1.3,0,.17,0,.33.02.5.04.22.03.67.22.88.06.27-.21.3-.87.27-1.46-.02.39-.09.75-.27.89Z"/>
            </g>
          </g>
        </g>
      </g>
    </g>
  </g>
</svg>