<?xml version="1.0" encoding="UTF-8"?>
<svg id="Layer_1" data-name="Layer 1" xmlns="http://www.w3.org/2000/svg" viewBox="0 0 140.31 164.75">
  <defs>
    <style>
      .cls-1 {
        fill: #efcf6f;
      }

      .cls-2 {
        fill: #82c822;
      }

      .cls-3 {
        fill: #94dd2f;
      }

      .cls-4 {
        fill: #fff;
      }

      .cls-5 {
        fill: #a5e24d;
      }

      .cls-6 {
        fill: #c0eb85;
      }

      .cls-7 {
        fill: #f1d583;
      }

      .cls-8 {
        fill: #e6e6e6;
      }
    </style>
  </defs>
  <g id="g5742">
    <path d="M133.22,16.87h-.03c-2.28-2.43-5-4.4-8-5.74h-.03c-2.99-1.33-6.23-2.07-9.57-2.07H24.71c-3.33,0-6.57.74-9.57,2.07h-.02c-3.01,1.34-5.73,3.31-8,5.74h-.03c-2.21,2.37-4.01,5.23-5.25,8.4C.68,28.27.02,31.52,0,34.87v104.07c.02,3.35.68,6.6,1.84,9.6,1.22,3.14,3.03,6,5.28,8.4,2.26,2.42,4.98,4.38,8,5.73h0c2.99,1.34,6.24,2.08,9.59,2.08h90.88c3.34,0,6.58-.74,9.57-2.07h.03c3.04-1.35,5.76-3.32,8.03-5.74,2.21-2.37,4.01-5.23,5.25-8.4,1.16-3,1.82-6.25,1.84-9.6V34.87c-.02-3.35-.68-6.6-1.84-9.6-1.24-3.17-3.04-6.03-5.25-8.4ZM117.78,34.94v109.07c0,.46-.07.87-.2,1.2v.03c-.14.37-.35.69-.58.94h-.03c-.21.23-.46.42-.71.53-.18.07-.4.12-.67.12H24.71c-.26,0-.49-.05-.66-.12-.25-.11-.5-.29-.72-.53l-.02-.03c-.25-.26-.45-.57-.58-.91v-.03c-.13-.33-.21-.74-.21-1.2V29.8c0-.46.08-.86.21-1.2v-.03c.13-.34.33-.65.58-.91l.02-.03c.22-.23.47-.42.72-.53h-.01c.17-.08.4-.12.67-.12h90.88c.27,0,.49.05.67.12l.02.03c.26.11.49.28.69.5.27.28.48.61.61.94v.03c.13.34.2.74.2,1.2v5.14Z"/>
    <path class="cls-8" d="M133.22,7.8h-.03c-2.28-2.43-5-4.4-8-5.73h-.03c-2.99-1.33-6.23-2.07-9.57-2.07H24.71c-3.33,0-6.57.74-9.57,2.07h-.02c-3.01,1.33-5.73,3.3-8,5.73h-.03c-2.21,2.38-4.01,5.24-5.25,8.41-1.18,3.05-1.84,6.35-1.84,9.75v108.99c0,3.4.66,6.71,1.84,9.76,1.22,3.14,3.03,5.99,5.28,8.4,2.26,2.41,4.98,4.38,8,5.72h0c2.99,1.35,6.24,2.09,9.59,2.09h90.88c3.34,0,6.58-.74,9.57-2.08h.03c3.04-1.34,5.76-3.31,8.03-5.73,2.21-2.37,4.01-5.23,5.25-8.4,1.18-3.05,1.84-6.36,1.84-9.76V25.96c0-3.4-.66-6.7-1.84-9.75-1.24-3.17-3.04-6.03-5.25-8.41ZM117.78,134.95c0,.46-.07.86-.2,1.2v.03c-.14.36-.35.69-.58.94h-.03c-.21.23-.46.41-.71.53-.18.07-.4.12-.67.12H24.71c-.26,0-.49-.05-.66-.12-.25-.12-.5-.3-.72-.53l-.02-.03c-.25-.26-.45-.58-.58-.91v-.03c-.13-.34-.21-.74-.21-1.2V25.96c0-.45.08-.86.21-1.19v-.03c.13-.34.33-.66.58-.92l.02-.03c.22-.23.47-.41.72-.53h-.01c.17-.07.4-.11.67-.11h90.88c.27,0,.49.04.67.12l.02.02c.26.11.49.29.69.5.27.29.48.61.61.95v.03c.13.33.2.74.2,1.19v108.99Z"/>
    <path class="cls-4" d="M133.22,7.8h-.03c-2.28-2.43-5-4.4-8-5.73h-.03c-2.99-1.33-6.23-2.07-9.57-2.07H24.71c-3.33,0-6.57.74-9.57,2.07h-.02c-3.01,1.33-5.73,3.3-8,5.73h-.03c-2.21,2.38-4.01,5.24-5.25,8.41C.68,19.21.02,22.46,0,25.81v104.07c.02,3.35.68,6.59,1.84,9.59,1.22,3.15,3.03,6,5.28,8.41,2.26,2.41,4.98,4.38,8,5.73h0c2.99,1.34,6.24,2.07,9.59,2.07h90.88c3.34,0,6.58-.73,9.57-2.06h.03c3.04-1.35,5.76-3.32,8.03-5.74,2.21-2.37,4.01-5.23,5.25-8.41,1.16-3,1.82-6.24,1.84-9.59V25.8c-.02-3.34-.68-6.59-1.84-9.59-1.24-3.17-3.04-6.03-5.25-8.41ZM117.78,25.88v109.07c0,.46-.07.86-.2,1.2v.03c-.14.36-.35.69-.58.94h-.03c-.21.23-.46.41-.71.53-.18.07-.4.12-.67.12H24.71c-.26,0-.49-.05-.66-.12-.25-.12-.5-.3-.72-.53l-.02-.03c-.25-.26-.45-.58-.58-.91v-.03c-.13-.34-.21-.74-.21-1.2V20.74c0-.46.08-.87.21-1.2v-.03c.13-.34.33-.66.58-.92l.02-.02c.22-.24.47-.42.72-.53h-.01c.17-.08.4-.12.67-.12h90.88c.27,0,.49.04.67.12l.02.02c.26.11.49.29.69.51.27.28.48.6.61.94v.03c.13.33.2.74.2,1.2v5.14Z"/>
    <path class="cls-2" d="M115.59,4.14H24.71c-4.93,0-9.41,2.16-12.66,5.63-3.24,3.47-5.26,8.27-5.26,13.54v108.99c0,5.27,2.02,10.07,5.26,13.54,3.25,3.47,7.73,5.63,12.66,5.63h90.88c4.93,0,9.42-2.16,12.66-5.63,3.25-3.47,5.27-8.27,5.27-13.54V23.31c0-5.27-2.02-10.07-5.27-13.54-3.24-3.47-7.73-5.63-12.66-5.63ZM124.58,132.3c0,2.64-1.02,5.04-2.65,6.78-1.62,1.74-3.87,2.82-6.34,2.82H24.71c-2.47,0-4.71-1.08-6.34-2.82s-2.63-4.14-2.63-6.78V23.31c0-2.64,1-5.04,2.63-6.78s3.87-2.83,6.34-2.83h90.88c2.47,0,4.72,1.09,6.34,2.83,1.63,1.74,2.65,4.14,2.65,6.78v108.99Z"/>
    <path class="cls-6" d="M115.59,4.91H24.71c-4.93,0-9.41,2.02-12.66,5.27s-5.26,7.72-5.26,12.65v104.21c0,4.94,2.02,9.42,5.26,12.66s7.73,5.27,12.66,5.27h90.88c4.93,0,9.42-2.02,12.66-5.27,3.25-3.24,5.27-7.72,5.27-12.66V22.83c0-4.93-2.02-9.41-5.27-12.65-3.24-3.25-7.73-5.27-12.66-5.27ZM124.58,127.04c0,2.47-1.02,4.72-2.65,6.34-1.62,1.63-3.87,2.64-6.34,2.64H24.71c-2.47,0-4.71-1.01-6.34-2.64-1.63-1.62-2.63-3.87-2.63-6.34V22.83c0-2.46,1-4.71,2.63-6.34,1.63-1.62,3.87-2.63,6.34-2.63h90.88c2.47,0,4.72,1,6.34,2.63,1.63,1.63,2.65,3.88,2.65,6.34v104.21Z"/>
    <path class="cls-5" d="M115.59,4.14H24.71c-4.93,0-9.41,2.02-12.65,5.26s-5.27,7.73-5.27,12.66v104.21c0,4.93,2.02,9.42,5.27,12.66,3.24,3.24,7.72,5.26,12.65,5.26h90.88c4.93,0,9.42-2.02,12.66-5.26,3.25-3.24,5.27-7.73,5.27-12.66V22.06c0-4.93-2.02-9.42-5.27-12.66-3.24-3.24-7.73-5.26-12.66-5.26ZM124.57,83.31H15.73V22.06c0-2.47,1.01-4.71,2.64-6.34s3.88-2.64,6.34-2.64h90.88c2.47,0,4.72,1.01,6.34,2.64,1.63,1.63,2.64,3.87,2.64,6.34v61.25Z"/>
    <path class="cls-3" d="M6.79,108.04v18.23c0,4.93,2.02,9.42,5.27,12.66,3.24,3.24,7.72,5.26,12.65,5.26h90.88c4.93,0,9.42-2.02,12.66-5.26,3.25-3.24,5.27-7.73,5.27-12.66v-24.33c-28.3,21.19-84.56,22.69-126.73,6.1Z"/>
    <path class="cls-6" d="M115.59,4.14H24.71c-4.93,0-9.41,2.02-12.66,5.26-3.24,3.25-5.26,7.73-5.26,12.66v25.62c2.76-1.64,5.75-3.26,8.94-4.82v-20.8c0-2.47,1.01-4.71,2.64-6.34s3.88-2.64,6.34-2.64h90.88c2.47,0,4.72,1.01,6.35,2.64s2.63,3.87,2.63,6.34v1.21c3.19.41,6.18.93,8.95,1.57v-2.78c0-4.93-2.02-9.42-5.27-12.66-3.24-3.24-7.73-5.26-12.66-5.26Z"/>
    <path class="cls-2" d="M113.3,11.08H27c-7.02,0-12.77,5.75-12.77,12.77v63.49c0,7.03,5.76,12.77,12.77,12.77h86.3c7.02,0,12.78-5.75,12.78-12.77V23.85c0-7.01-5.75-12.77-12.78-12.77Z"/>
    <path class="cls-1" d="M114.15,17.08H26.16c-6.56,0-11.93,5.42-11.93,12.05v58.93c0,6.63,5.38,12.05,11.93,12.05h87.99c6.55,0,11.93-5.43,11.93-12.05V29.13c0-6.62-5.37-12.05-11.93-12.05Z"/>
    <path class="cls-7" d="M113.58,17.08H26.73c-6.87,0-12.5,5.29-12.5,11.75v38.12c0,6.47,5.63,11.76,12.5,11.76h86.85c6.87,0,12.49-5.29,12.49-11.76V28.83c0-6.45-5.62-11.75-12.49-11.75Z"/>
    <path class="cls-1" d="M119.2,106.21H21.13c-6.56,0-6.9,2.06-6.9,4.58v22.4c0,2.52.35,4.58,6.9,4.58h98.07c6.55,0,6.88-2.07,6.88-4.58v-22.4c0-2.51-.32-4.58-6.88-4.58Z"/>
    <path class="cls-2" d="M118.64,106.21H21.69c-6.87,0-7.46,2.01-7.46,4.47v14.48c0,2.46.61,4.47,7.46,4.47h96.95c6.85,0,7.43-2.01,7.43-4.47v-14.48c0-2.45-.56-4.47-7.43-4.47Z"/>
    <path class="cls-7" d="M118.64,110.92H21.69c-6.87,0-7.46,2.01-7.46,4.46v14.49c0,2.46.61,4.47,7.46,4.47h96.95c6.85,0,7.43-2.01,7.43-4.47v-14.49c0-2.45-.56-4.46-7.43-4.46Z"/>
  </g>
</svg>