<svg id="Icons" height="512" viewBox="0 0 60 60" width="512" xmlns="http://www.w3.org/2000/svg"><path d="m53 9v26.25l-14.12 17.75h-32.88a5 5 0 0 1 -5-5v-39l2-1h48z" fill="#2a2a49"/><path d="m53 6v3h-52v-3a5 5 0 0 1 5-5h42a5 5 0 0 1 5 5z" fill="#447"/><path d="m58.5 41.56-4.85-5.78c-.03-.03-.05-.06-.08-.09v-.01a2.17 2.17 0 0 0 -1.59-.68h-13.96a2.17 2.17 0 0 0 -1.59.68v.01c-.03.03-.05.06-.08.09l-4.85 5.78a2.163 2.163 0 0 0 .01 2.78l11.83 13.9a2.193 2.193 0 0 0 3.32 0l11.83-13.9a2.163 2.163 0 0 0 .01-2.78z" fill="#2074ef"/><path d="m45 35-5 8-3.57-7.31v-.01a2.17 2.17 0 0 1 1.59-.68z" fill="#7bbdff"/><path d="m40 43h-9a2.164 2.164 0 0 1 .5-1.44l4.85-5.78c.03-.03.05-.06.08-.09z" fill="#50a0ff"/><path d="m53.57 35.68v.01l-3.57 7.31-5-8h6.98a2.17 2.17 0 0 1 1.59.68z" fill="#7bbdff"/><path d="m59 43h-9l3.57-7.31c.03.03.05.06.08.09l4.85 5.78a2.164 2.164 0 0 1 .5 1.44z" fill="#50a0ff"/><path d="m50 43-5 16-5-16z" fill="#1663bf"/><path d="m50 43h-10l5-8z" fill="#50a0ff"/><path d="m7 6h-1a1 1 0 0 1 0-2h1a1 1 0 0 1 0 2z" fill="#ff4d4d"/><path d="m12 6h-1a1 1 0 0 1 0-2h1a1 1 0 0 1 0 2z" fill="#f7bb26"/><path d="m17 6h-1a1 1 0 0 1 0-2h1a1 1 0 0 1 0 2z" fill="#25e572"/><path d="m43 6h-16a1 1 0 0 1 0-2h16a1 1 0 0 1 0 2z" fill="#2a2a49"/><g fill="#25e572"><path d="m21 22a.994.994 0 0 1 -.6-.2l-4-3a1 1 0 0 1 0-1.6l4-3a1 1 0 1 1 1.2 1.6l-2.933 2.2 2.933 2.2a1 1 0 0 1 -.6 1.8z"/><path d="m33 22a1 1 0 0 1 -.6-1.8l2.933-2.2-2.933-2.2a1 1 0 0 1 1.2-1.6l4 3a1 1 0 0 1 0 1.6l-4 3a.994.994 0 0 1 -.6.2z"/><path d="m26 23a1.017 1.017 0 0 1 -.243-.03 1 1 0 0 1 -.728-1.212l2-8a1 1 0 0 1 1.94.484l-2 8a1 1 0 0 1 -.969.758z"/></g><path d="m7 29h-1a1 1 0 0 1 0-2h1a1 1 0 0 1 0 2z" fill="#ff4d4d"/><path d="m35 29h-24a1 1 0 0 1 0-2h24a1 1 0 0 1 0 2z" fill="#f7bb26"/><path d="m7 41h-1a1 1 0 0 1 0-2h1a1 1 0 0 1 0 2z" fill="#ff4d4d"/><path d="m28 41h-17a1 1 0 0 1 0-2h17a1 1 0 0 1 0 2z" fill="#f7bb26"/><path d="m9 33h-1a1 1 0 0 1 0-2h1a1 1 0 0 1 0 2z" fill="#ff4d4d"/><path d="m31 33h-9a1 1 0 0 1 0-2h9a1 1 0 0 1 0 2z" fill="#fff"/><path d="m18 33h-5a1 1 0 0 1 0-2h5a1 1 0 0 1 0 2z" fill="#2074ef"/><path d="m9 37h-1a1 1 0 0 1 0-2h1a1 1 0 0 1 0 2z" fill="#ff4d4d"/><path d="m31 37h-9a1 1 0 0 1 0-2h9a1 1 0 0 1 0 2z" fill="#fff"/><path d="m18 37h-5a1 1 0 0 1 0-2h5a1 1 0 0 1 0 2z" fill="#2074ef"/><path d="m9 45h-1a1 1 0 0 1 0-2h1a1 1 0 0 1 0 2z" fill="#ff4d4d"/><path d="m27 44.986h-.006l-5.043-.031a1 1 0 0 1 .006-2h.006l5.043.031a1 1 0 0 1 -.006 2z" fill="#fff"/><path d="m18 45h-5a1 1 0 0 1 0-2h5a1 1 0 0 1 0 2z" fill="#2074ef"/><path d="m9 49h-1a1 1 0 0 1 0-2h1a1 1 0 0 1 0 2z" fill="#ff4d4d"/><path d="m30 49.031-8-.031a1 1 0 0 1 0-2l8 .031a1 1 0 0 1 0 2z" fill="#fff"/><path d="m18 49h-5a1 1 0 0 1 0-2h5a1 1 0 0 1 0 2z" fill="#2074ef"/><path d="m48 29h-9a1 1 0 0 1 0-2h9a1 1 0 0 1 0 2z" fill="#fff"/><path d="m37 33h-2a1 1 0 0 1 0-2h2a1 1 0 0 1 0 2z" fill="#ff4d4d"/></svg>