<?xml version="1.0" encoding="UTF-8"?>
<svg id="Layer_2" xmlns="http://www.w3.org/2000/svg" version="1.1" viewBox="0 0 850 857.8">
  <!-- Generator: Adobe Illustrator 29.1.0, SVG Export Plug-In . SVG Version: 2.1.0 Build 142)  -->
  <defs>
    <style>
      .st0 {
        fill: #fff;
      }

      .st1 {
        fill: #e44d26;
      }

      .st2 {
        fill: #f16529;
      }

      .st3 {
        fill: #ebebeb;
      }
    </style>
  </defs>
  <g id="logo_set">
    <g id="html">
      <path class="st1" d="M728.9,168.6l-55.4,620.2-248.9,69-248.2-68.9L121.1,168.6h607.8Z"/>
      <path class="st2" d="M425,805.1l201.1-55.8,47.3-530h-248.4v585.8Z"/>
      <path class="st3" d="M317.4,371.5h107.6v-76.1h-190.8l1.8,20.4,18.7,209.7h170.3v-76.1h-100.7l-6.9-77.9h0ZM334.5,563.5h-76.4l10.7,119.5,155.9,43.3h.4v-79.3h-.3c0,0-84.7-22.8-84.7-22.8l-5.4-60.7h0Z"/>
      <path d="M177.7,0h38.7v38.2h35.4V0h38.7v115.7h-38.7v-38.7h-35.4v38.7h-38.7V0h0ZM341.2,38.4h-34V0h106.8v38.4h-34v77.3h-38.7V38.4h0ZM430.9,0h40.3l24.8,40.7L520.8,0h40.3v115.7h-38.5v-57.3l-26.6,41.1h-.7l-26.6-41.1v57.3h-37.8V0h0ZM580.3,0h38.7v77.4h54.4v38.2h-93V0h0Z"/>
      <path class="st0" d="M424.7,525.5h93.7l-8.8,98.7-84.9,22.9v79.2l156-43.2,1.1-12.8,17.9-200.3,1.9-20.4h-176.9v76.1h0ZM424.7,371.3v.2h183.8l1.5-17.1,3.5-38.6,1.8-20.4h-190.6v75.9h0Z"/>
    </g>
  </g>
</svg>