<?xml version="1.0" encoding="UTF-8"?>
<svg id="Layer_2" xmlns="http://www.w3.org/2000/svg" version="1.1" viewBox="0 0 950 949.3">
  <!-- Generator: Adobe Illustrator 29.1.0, SVG Export Plug-In . SVG Version: 2.1.0 Build 142)  -->
  <defs>
    <style>
      .st0 {
        fill: #ca3132;
      }

      .st1 {
        fill: #3174b9;
      }
    </style>
  </defs>
  <g id="logo_set">
    <g id="java">
      <path class="st1" d="M388.6,503.5s-24.9,14.5,17.7,19.4c51.6,5.9,78,5,134.8-5.7,0,0,15,9.4,35.9,17.5-127.5,54.6-288.5-3.2-188.4-31.1h0ZM373,432.2s-27.9,20.6,14.7,25.1c55.1,5.7,98.6,6.2,174-8.3,0,0,10.4,10.6,26.8,16.3-154.1,45.1-325.7,3.5-215.5-33h0Z"/>
      <path class="st0" d="M504.3,311.3c31.4,36.2-8.2,68.7-8.2,68.7,0,0,79.8-41.2,43.1-92.7-34.2-48.1-60.4-71.9,81.6-154.3,0,0-222.9,55.7-116.5,178.3h0Z"/>
      <path class="st1" d="M672.9,556.3s18.4,15.2-20.3,26.9c-73.6,22.3-306.2,29-370.8.9-23.2-10.1,20.3-24.1,34-27.1,14.3-3.1,22.5-2.5,22.5-2.5-25.8-18.2-167,35.7-71.7,51.2,259.9,42.1,473.7-19,406.3-49.4h0ZM400.5,358.4s-118.3,28.1-41.9,38.3c32.3,4.3,96.6,3.3,156.5-1.7,49-4.1,98.1-12.9,98.1-12.9,0,0-17.3,7.4-29.8,15.9-120.2,31.6-352.3,16.9-285.5-15.4,56.5-27.3,102.5-24.2,102.5-24.2h0ZM612.8,477c122.2-63.5,65.7-124.5,26.2-116.2-9.6,2-14,3.8-14,3.8,0,0,3.6-5.6,10.4-8,78-27.4,138,80.9-25.1,123.8,0,0,1.9-1.7,2.4-3.2h0Z"/>
      <path class="st0" d="M539.1,0s67.6,67.7-64.2,171.7c-105.7,83.5-24.1,131.1,0,185.5-61.7-55.7-107-104.7-76.6-150.3,44.6-66.9,168.1-99.4,140.8-206.9h0Z"/>
      <path class="st1" d="M412.5,649.1c117.2,7.5,297.3-4.2,301.6-59.7,0,0-8.2,21-96.9,37.7-100.1,18.8-223.5,16.7-296.7,4.6,0,0,15,12.4,92.1,17.4h0Z"/>
      <path class="st0" d="M708.7,748.6h-3.6v-2h9.6v2h-3.6v10h-2.5v-10h0ZM727.9,749.1h0l-3.5,9.5h-1.6l-3.5-9.5h0v9.5h-2.4v-12h3.5l3.3,8.5,3.3-8.5h3.4v12h-2.3v-9.5h0ZM393.3,861c-11.1,9.6-22.7,15-33.2,15-14.9,0-23.1-9-23.1-23.4s8.7-27,43.4-27h12.9v35.3h0ZM423.8,895.5v-106.6c0-27.2-15.5-45.2-53-45.2s-41,5.4-56.6,12.3l4.5,18.9c12.3-4.5,28.1-8.7,43.7-8.7s30.9,8.7,30.9,26.7v13.5h-10.8c-52.4,0-76.1,20.3-76.1,50.9s15.6,41.3,44.9,41.3,32.9-7.8,46.1-19.2l2.4,16.2h23.9ZM525.7,895.5h-38l-45.8-149.1h33.2l28.4,91.6,6.3,27.5c14.4-39.8,24.5-80.2,29.6-119.1h32.3c-8.6,49.1-24.2,103-46.1,149.1h0ZM671.7,861c-11.1,9.6-22.8,15-33.2,15-15,0-23-9-23-23.4s8.7-27,43.4-27h12.9v35.3h0ZM702.2,895.5v-106.6c0-27.2-15.6-45.2-53-45.2s-41,5.4-56.6,12.3l4.5,18.9c12.3-4.5,28.2-8.7,43.7-8.7s30.8,8.7,30.8,26.7v13.5h-10.8c-52.4,0-76,20.3-76,50.9s15.5,41.3,44.9,41.3,32.9-7.8,46.1-19.2l2.4,16.2h23.9,0ZM273,920.8c-8.7,12.7-22.8,22.8-38.1,28.5l-15.1-17.8c11.7-6,21.8-15.7,26.4-24.8,4-8,5.7-18.4,5.7-43.2v-170.2h32.4v167.9c0,33.1-2.7,46.5-11.3,59.6h0Z"/>
    </g>
  </g>
</svg>