<?xml version="1.0" encoding="UTF-8"?>
<svg id="Layer_2" xmlns="http://www.w3.org/2000/svg" version="1.1" viewBox="0 0 900 901.5">
  <!-- Generator: Adobe Illustrator 29.1.0, SVG Export Plug-In . SVG Version: 2.1.0 Build 142)  -->
  <defs>
    <style>
      .st0 {
        fill: #8cc84b;
      }
    </style>
  </defs>
  <g id="logo_set">
    <g id="nodejs">
      <path class="st0" d="M413.1,9.6c22.4-12.8,51.5-12.9,73.8,0,112.4,63.5,224.8,126.9,337.1,190.4,21.1,11.9,35.3,35.4,35,59.8v382c.2,25.3-15.4,49.4-37.7,61.1-112,63.1-223.9,126.3-335.9,189.5-22.8,13-52.5,12-74.6-2.1-33.6-19.5-67.2-38.8-100.8-58.3-6.9-4.1-14.6-7.3-19.4-14,4.3-5.8,11.9-6.5,18.2-9,14-4.5,26.9-11.6,39.8-18.5,3.3-2.2,7.2-1.4,10.4.6,28.7,16.5,57.2,33.4,86,49.7,6.1,3.5,12.4-1.2,17.6-4.1,109.9-62.1,219.9-124,329.8-186.1,4.1-2,6.3-6.3,6-10.7,0-126,0-252,0-378,.5-5.1-2.5-9.7-7-11.8-111.6-62.9-223.1-125.8-334.7-188.7-4-2.7-9.2-2.7-13.1,0-111.6,62.9-223.1,125.9-334.7,188.7-4.6,2.1-7.6,6.6-7.1,11.7,0,126,0,252,0,378-.4,4.5,2,8.7,6.1,10.6,29.8,16.9,59.6,33.7,89.4,50.5,16.8,9,37.4,14.4,55.9,7.5,16.3-5.8,27.8-22.5,27.4-39.8.1-125.3,0-250.5.1-375.8-.4-5.6,4.9-10.2,10.3-9.6,14.3-.1,28.6-.2,42.9,0,6-.1,10.1,5.9,9.3,11.5,0,126.1.1,252.1-.1,378.2,0,33.6-13.8,70.2-44.8,86.6-38.3,19.8-85.6,15.6-123.4-3.4-32.7-16.3-64-35.6-96.2-53.1-22.3-11.6-37.8-35.7-37.6-61.1v-382c-.2-24.9,14.5-48.8,36.2-60.5,112-63.2,223.9-126.4,335.9-189.6Z"/>
      <path class="st0" d="M510.8,274.2c48.8-3.1,101.1-1.9,145.1,22.2,34,18.4,52.9,57.1,53.5,94.9-1,5.1-6.3,7.9-11.2,7.6-14.2,0-28.3.2-42.5-.1-6,.2-9.5-5.3-10.3-10.6-4.1-18.1-13.9-36-31-44.7-26.1-13.1-56.4-12.4-84.9-12.1-20.8,1.1-43.2,2.9-60.8,15.1-13.5,9.3-17.6,28-12.8,43,4.5,10.8,17,14.3,27.2,17.5,58.9,15.4,121.2,13.9,178.9,34.1,23.9,8.3,47.3,24.3,55.5,49.3,10.7,33.5,6,73.6-17.8,100.5-19.3,22.2-47.5,34.2-75.6,40.8-37.4,8.3-76.2,8.5-114.2,4.8-35.7-4.1-72.9-13.5-100.4-37.8-23.6-20.5-35.1-52.4-33.9-83.1.3-5.2,5.5-8.8,10.4-8.4,14.3-.1,28.5-.1,42.8,0,5.7-.4,9.9,4.5,10.2,9.9,2.6,17.2,9.1,35.3,24.1,45.5,29,18.7,65.4,17.4,98.6,18,27.5-1.2,58.4-1.6,80.8-19.8,11.8-10.4,15.3-27.7,12.2-42.7-3.5-12.6-16.7-18.5-28-22.3-58.1-18.4-121.2-11.7-178.7-32.5-23.4-8.2-45.9-23.9-54.9-47.9-12.5-34-6.8-76,19.6-102,25.7-25.9,62.8-35.8,98.1-39.4h0Z"/>
    </g>
  </g>
</svg>