<?xml version="1.0" encoding="UTF-8"?>
<svg id="Layer_2" data-name="Layer 2" xmlns="http://www.w3.org/2000/svg" viewBox="0 0 100.68 45.83">
  <defs>
    <style>
      .cls-1 {
        fill: #82c822;
      }

      .cls-2 {
        fill: #e1f6c6;
      }

      .cls-3 {
        fill: #94dd2f;
      }

      .cls-4 {
        fill: #fff;
      }

      .cls-5 {
        fill: #a5e24d;
      }

      .cls-6 {
        fill: #c0eb85;
      }

      .cls-7 {
        fill: #e6e6e6;
      }
    </style>
  </defs>
  <g id="Layer_6" data-name="Layer 6">
    <g id="g5530">
      <path d="M4.68,6.45c-6.22,6.18-6.24,28.58-.03,34.78,6.14,6.13,85.25,6.13,91.39,0,6.21-6.2,6.19-28.59-.03-34.78C89.73.21,10.95.21,4.68,6.45Z"/>
      <path class="cls-4" d="M4.68,4.68c-6.22,6.19-6.24,28.58-.03,34.78,6.14,6.12,85.25,6.12,91.39,0,6.21-6.2,6.19-28.59-.03-34.78C89.73-1.56,10.95-1.56,4.68,4.68Z"/>
      <path class="cls-5" d="M6.28,5.22c-5.63,5.61-5.65,25.9-.03,31.51,5.56,5.55,82.61,5.55,88.17,0,5.63-5.61,5.61-25.9-.03-31.51C88.71-.44,11.97-.44,6.28,5.22Z"/>
      <path class="cls-1" d="M94.42,32.49c-5.56,5.55-82.61,5.55-88.17,0-2.5-2.49-3.88-7.89-4.16-13.6-.34,7.13,1.04,14.74,4.16,17.84,5.56,5.55,82.61,5.55,88.17,0,3.11-3.11,4.5-10.72,4.16-17.84-.28,5.72-1.66,11.11-4.16,13.6Z"/>
      <path class="cls-3" d="M4.48,29.89c.51,1.04,1.1,1.92,1.77,2.59,5.56,5.55,82.61,5.55,88.17,0,2.15-2.14,3.47-6.43,3.98-11.21-10.44,7.67-79.87,10.48-93.92,8.62Z"/>
      <path class="cls-6" d="M6.28,5.22c-1.69,1.68-2.87,4.68-3.55,8.21C12.48,3.29,89.17,1.67,97.45,11.26c-.71-2.58-1.73-4.73-3.06-6.05C88.71-.44,11.97-.44,6.28,5.22Z"/>
      <path class="cls-2" d="M10.72,3.86c-2.4.68-4.33,2.33-4.33,3.69s1.94,1.91,4.33,1.23c2.39-.68,4.33-2.33,4.33-3.69s-1.94-1.91-4.33-1.23Z"/>
      <path class="cls-2" d="M17.9,2.68c-1.35.08-2.57.74-2.72,1.46s.81,1.24,2.16,1.15c1.35-.08,2.57-.74,2.72-1.46.16-.72-.81-1.24-2.16-1.15Z"/>
      <path class="cls-2" d="M91.56,29.44c-1.51.73-2.6,2.06-2.44,2.96.16.9,1.51,1.04,3.03.31,1.51-.74,2.6-2.06,2.44-2.96-.16-.91-1.51-1.04-3.03-.31Z"/>
      <path class="cls-6" d="M98.4,21.28c-.51,4.78-1.83,9.07-3.98,11.21-5.56,5.55-82.61,5.55-88.17,0-.67-.67-1.26-1.55-1.77-2.59-1.39-2.83-2.18-6.83-2.38-11.01-.04.83-.06,1.67-.05,2.51,0-.58.02-1.16.05-1.73.27,5.72,1.66,11.11,4.16,13.6,5.56,5.55,82.61,5.55,88.17,0,2.5-2.49,3.88-7.89,4.16-13.6.03.57.04,1.15.05,1.73,0-.84,0-1.67-.05-2.51-.04.81-.1,1.61-.18,2.39Z"/>
      <path class="cls-7" d="M96.03,38.51c-6.14,6.13-85.25,6.13-91.39,0C1.62,35.49.07,28.61,0,21.63c-.07,7.29,1.48,14.67,4.64,17.83,6.14,6.12,85.25,6.12,91.39,0,3.17-3.16,4.71-10.54,4.64-17.83-.06,6.97-1.61,13.85-4.64,16.87Z"/>
    </g>
  </g>
</svg>