<?xml version="1.0" encoding="UTF-8"?>
<svg id="Layer_2" data-name="Layer 2" xmlns="http://www.w3.org/2000/svg" viewBox="0 0 414.25 92.83">
  <defs>
    <style>
      .cls-1 {
        fill: #ffb700;
      }

      .cls-2 {
        fill: #fff;
      }

      .cls-3 {
        fill: #fec230;
      }

      .cls-4 {
        fill: #d49800;
      }

      .cls-5 {
        fill: #ffe558;
      }

      .cls-6 {
        fill: #e6e6e6;
      }
    </style>
  </defs>
  <g id="Layer_6" data-name="Layer 6">
    <g id="g6356">
      <g>
        <path d="M385.81,4.38H27.54C4.96,4.38-.07,26.74,0,48.98c.08,21.99,3.08,43.85,27.54,43.85h358.27c24.46,0,27.46-21.87,27.53-43.85.08-22.24-4.95-44.6-27.53-44.6Z"/>
        <path class="cls-2" d="M385.81,0H27.54C4.96,0-.07,22.37,0,44.61c.08,21.98,3.08,43.84,27.54,43.84h358.27c24.46,0,27.46-21.86,27.53-43.84.08-22.24-4.95-44.61-27.53-44.61Z"/>
      </g>
      <g>
        <path class="cls-3" d="M378.91,6.31H36.26c-20.9,0-25.56,17.87-25.49,35.64.07,17.57,2.84,35.04,25.49,35.04h342.65c22.65,0,25.42-17.47,25.49-35.04.07-17.76-4.59-35.64-25.49-35.64Z"/>
        <path class="cls-6" d="M386.72,85.27H28.45C4.44,85.27,1.11,64.2.92,42.62v.02c-.01.66-.01,1.32-.01,1.97.08,21.98,3.08,43.84,27.54,43.84h358.27c24.46,0,27.46-21.86,27.53-43.84,0-.66,0-1.33,0-1.99-.19,21.58-3.52,42.65-27.53,42.65Z"/>
        <path class="cls-5" d="M378.9,69.77H36.26c-21.11,0-24.96-15.19-25.44-31.48-.04,1.22-.06,2.45-.05,3.66.06,17.58,2.84,35.04,25.49,35.04h342.64c22.66,0,25.44-17.46,25.5-35.04,0-1.21-.01-2.44-.06-3.66-.48,16.29-4.32,31.48-25.44,31.48Z"/>
        <path class="cls-4" d="M378.9,70.43H36.26c-21.11,0-24.96-15.19-25.44-31.48-.03.95-.05,1.91-.05,2.86v.14c0,17.57,2.84,35.04,25.49,35.04h342.64c22.66,0,25.43-17.46,25.5-35.04v-.14c0-.95-.02-1.91-.06-2.86-.48,16.29-4.32,31.48-25.44,31.48Z"/>
        <path class="cls-1" d="M12.78,53.16c2.76,9.6,9.14,16.61,23.48,16.61h342.64c14.9,0,21.2-7.56,23.79-17.72-102.49,10.35-332.22,11.25-389.91,1.11Z"/>
        <path class="cls-5" d="M382.92,6.55c-1.27-.16-2.61-.24-4.02-.24H36.26c-1.4,0-2.74.08-4.01.24-16.21,2.01-20.88,16.45-21.43,31.74.02.53.04,1.06.06,1.59.84-15.98,6.44-30.65,25.38-30.65h342.64c18.95,0,24.55,14.67,25.39,30.65.02-.53.04-1.06.05-1.59-.54-15.29-5.22-29.73-21.42-31.74Z"/>
      </g>
      <g>
        <path class="cls-4" d="M376.2,14.38H38.96c-14.84,0-18.14,12.73-18.08,25.38.05,12.51,2.01,24.95,18.08,24.95h337.24c16.06,0,18.04-12.44,18.08-24.95.05-12.65-3.26-25.38-18.08-25.38Z"/>
        <path class="cls-5" d="M376.2,17.24H38.96c-14.84,0-18.14,12-18.08,23.93.05,11.8,2.01,23.54,18.08,23.54h337.24c16.06,0,18.04-11.74,18.08-23.54.05-11.93-3.26-23.93-18.08-23.93Z"/>
        <path class="cls-1" d="M376.2,17.24H38.96c-14.84,0-18.14,11.34-18.08,22.62.05,11.15,2.01,22.24,18.08,22.24h337.24c16.06,0,18.04-11.09,18.08-22.24.05-11.28-3.26-22.62-18.08-22.62Z"/>
      </g>
    </g>
  </g>
</svg>