<?xml version="1.0" encoding="UTF-8"?>
<svg id="Layer_2" data-name="Layer 2" xmlns="http://www.w3.org/2000/svg" viewBox="0 0 35.69 51.83">
  <defs>
    <style>
      .cls-1 {
        opacity: .9;
      }

      .cls-2 {
        fill: #ca7b7b;
      }

      .cls-3 {
        fill: #fff;
      }

      .cls-4 {
        fill: #a66d5f;
      }

      .cls-5 {
        fill: #1d1f21;
      }

      .cls-6 {
        fill: #6c2c30;
      }

      .cls-7 {
        fill: #c0cece;
      }

      .cls-8 {
        fill: #c08367;
      }

      .cls-9 {
        fill: #8a4646;
      }
    </style>
  </defs>
  <g id="Layer_1-2" data-name="Layer 1">
    <g>
      <path class="cls-7" d="M12.86,51.49c2.73.11,5.03.44,8.19.32,3.16-.12.73,0,6.01-.56.69-.07,1.4-.15,1.98-.42.57-.27.96-.77.7-1.21-.3-.5-1.24-.6-2.04-.73-5.74-.96-10.8-1.1-17.61-.56-1.89.15-5.22.24-5.1,1.27.12,1.03,4.99,1.77,7.87,1.89Z"/>
      <g>
        <g>
          <g>
            <path class="cls-4" d="M28.27,6.9c-.92-2.15-3.63-6.47-10.64-6.58-7.01-.11-11.44,3.5-12.96,7.75-.78,2.17-.9,4.62-.06,6.77.7,1.78,3.81,6.8,12.76,6.53,7.24-.21,10.19-3.04,11.39-6.34.92-2.52.6-5.6-.49-8.13Z"/>
            <g>
              <path class="cls-4" d="M27.6,5.59c.57-.28,1.09-.66,1.48-1.17.7-.91,1.01-2.15.56-3.21-.26-.6-.9-1.09-1.68-1.15-1.67-.12-2.86,1.04-3.56,2.17,1.53,1.01,2.54,2.27,3.2,3.36Z"/>
              <path class="cls-9" d="M26.92,4.58c.58-.22,2.26-1.81,1.31-2.9-.95-1.08-2.67.54-2.96,1.19.66.55,1.2,1.13,1.64,1.71Z"/>
            </g>
            <g>
              <path class="cls-4" d="M6.16,5.29c.92-1.23,2.13-2.32,3.63-3.16C8.18-.62,6.08-.1,5.31.39c-.87.56-1.17,1.77-.87,2.76.27.9.94,1.62,1.73,2.14Z"/>
              <path class="cls-9" d="M6.79,4.25s.1.08.15.12c.51-.55,1.09-1.06,1.74-1.52-.14-.33-.33-.63-.57-.9-.26-.29-.58-.54-.95-.65-.37-.11-.81-.07-1.11.18-.43.35-.49,1-.28,1.51.2.51.62.9,1.04,1.26Z"/>
            </g>
          </g>
          <g>
            <g>
              <path class="cls-8" d="M20.71,15.13c.4,5.16-7.09,4.96-7.02.4.08-6.07,6.59-5.99,7.02-.4Z"/>
              <g>
                <path class="cls-5" d="M19.09,16.76c-.13.6-.88.77-1.34.38-.3-.26-.39-.7-.4-1.08.09-.67.05-1.39.03-2.08-.06,0-.12.02-.18.02-.04,0-.08,0-.13,0v1.1c0,.22,0,.44,0,.66,0,.08,0,.16,0,.24,0,0,0,0,0,0,0,0,0,.01,0,.02-.01.27-.05.55-.19.77-.35.56-1.43.85-1.63-.02-.04-.18-.31-.1-.27.08.13.55.71.84,1.24.75.48-.09.8-.42.97-.83.12.35.33.65.69.79.63.25,1.34-.02,1.48-.7.04-.18-.23-.25-.27-.08Z"/>
                <path class="cls-5" d="M18.42,12.66c-.31-.56-2.09-.64-2.42.02-.33.65.32,1.3,1.21,1.32.92.02,1.52-.77,1.21-1.33Z"/>
              </g>
            </g>
            <path class="cls-2" d="M28.06,14.98c0-1.58-3.06-1.59-3.26-.2-.25,1.77,3.27,1.96,3.26.2Z"/>
            <path class="cls-2" d="M6.6,14.98c0-1.58,3.06-1.59,3.26-.2.25,1.77-3.27,1.96-3.26.2Z"/>
            <g>
              <path class="cls-6" d="M12.05,4.42c.06.33.15.62.3.89.05.1.17,0,.12-.1-.14-.26-.23-.53-.29-.84-.02-.12-.15-.07-.13.05h0Z"/>
              <path class="cls-6" d="M12.95,3.86c.06.42.15.83.27,1.22.03.11.15.02.12-.09-.12-.38-.2-.77-.26-1.18-.02-.12-.15-.07-.13.05h0Z"/>
              <path class="cls-6" d="M14.14,3.79c.03.41.07.82.14,1.22.02.12.15.07.13-.05-.06-.39-.11-.77-.13-1.17,0-.12-.14-.12-.14,0h0Z"/>
              <path class="cls-6" d="M11.25,2.1c.09.4.2.79.33,1.18.04.11.16.04.12-.07-.12-.37-.23-.75-.32-1.13-.03-.12-.16-.1-.14.02h0Z"/>
              <path class="cls-6" d="M15.22,3.7c0,.45.02.89.08,1.34.02.12.15.07.13-.05-.05-.43-.08-.85-.07-1.29,0-.12-.14-.12-.14,0h0Z"/>
              <path class="cls-6" d="M16.3,3.6c.06.47.08.94.07,1.42,0,.12.13.12.14,0,0-.49-.02-.98-.08-1.47-.01-.12-.15-.07-.13.05h0Z"/>
              <path class="cls-6" d="M17.31,3.69c.03.41.03.81,0,1.22,0,.12.13.12.14,0,.02-.41.02-.81,0-1.22,0-.12-.14-.12-.14,0h0Z"/>
              <path class="cls-6" d="M18.5,3.7c0,.43,0,.85,0,1.28,0,.12.14.12.14,0,0-.43,0-.85,0-1.28,0-.12-.14-.12-.14,0h0Z"/>
              <path class="cls-6" d="M19.65,3.8c-.05.37-.11.74-.16,1.11-.02.12.11.17.13.05.05-.37.11-.74.16-1.12.02-.12-.11-.17-.13-.05h0Z"/>
              <path class="cls-6" d="M20.81,3.85c-.06.41-.12.82-.18,1.23-.02.12.11.17.13.05.06-.41.12-.82.18-1.23.02-.12-.11-.17-.13-.05h0Z"/>
              <path class="cls-6" d="M21.7,5.3c.08-.26.13-.52.17-.79.02-.12-.12-.17-.13-.05-.04.27-.09.53-.17.79-.03.11.1.16.13.05h0Z"/>
              <path class="cls-6" d="M12.18,1.91c.05.26.13.52.23.78.04.11.18.09.14-.02-.1-.26-.17-.51-.23-.78-.02-.11-.16-.09-.14.02h0Z"/>
              <path class="cls-6" d="M13.84,8.05c-.26-.41-.45-.87-.62-1.36-.04-.11-.16-.01-.12.1.18.5.38.97.64,1.4.06.09.15-.04.1-.13h0Z"/>
              <path class="cls-6" d="M14.14,6.62c.09.46.23.88.42,1.27.05.1.17,0,.12-.1-.18-.38-.32-.79-.41-1.23-.02-.12-.16-.07-.13.05h0Z"/>
              <path class="cls-6" d="M16.21,6.39c.09.4.13.8.11,1.22,0,.12.13.12.14,0,.01-.44-.03-.86-.12-1.27-.03-.12-.16-.07-.13.05h0Z"/>
              <path class="cls-6" d="M17.33,6.22c-.04.47-.05.94-.06,1.41,0,.12.14.12.14,0,0-.47.02-.94.06-1.41,0-.12-.13-.12-.14,0h0Z"/>
              <path class="cls-6" d="M18.39,6.25c-.04.39-.1.79-.16,1.17-.02.12.11.17.13.05.06-.39.12-.78.16-1.17.01-.12-.12-.17-.13-.05h0Z"/>
              <path class="cls-6" d="M19.32,6.45c-.09.37-.17.74-.26,1.11-.03.12.1.17.13.05.09-.37.17-.74.26-1.11.03-.12-.1-.17-.13-.05h0Z"/>
              <path class="cls-6" d="M20.21,6.53c-.11.46-.24.91-.42,1.34-.04.11.08.2.12.1.18-.44.31-.91.43-1.38.03-.11-.1-.16-.13-.05h0Z"/>
              <path class="cls-6" d="M20.99,6.85c-.14.32-.26.68-.44.96-.06.09.05.2.11.11.19-.3.31-.67.46-1,.05-.11-.08-.17-.13-.06h0Z"/>
              <path class="cls-6" d="M22.37,1.89c-.1.33-.18.7-.33,1-.05.1.07.2.12.09.15-.32.24-.7.34-1.05.03-.11-.1-.16-.13-.05h0Z"/>
              <path class="cls-6" d="M14.56,9.67c.12.27.24.52.39.77.05.09.17-.03.11-.12-.14-.24-.27-.5-.39-.77-.04-.1-.16.02-.11.12h0Z"/>
              <path class="cls-6" d="M16.34,8.91c.04.32.07.64.07.97,0,.12.14.12.14,0,0-.35-.03-.68-.08-1.02-.02-.12-.15-.07-.13.05h0Z"/>
              <path class="cls-6" d="M17.37,8.86c.02.35,0,.68-.07,1.02-.02.12.11.17.13.05.07-.35.09-.71.07-1.07,0-.12-.14-.12-.14,0h0Z"/>
              <path class="cls-6" d="M18.48,8.94c-.07.37-.16.71-.27,1.05-.04.11.08.21.12.09.12-.36.21-.72.28-1.1.02-.12-.11-.17-.13-.05h0Z"/>
              <path class="cls-6" d="M19.56,9.24c-.17.41-.36.79-.58,1.16-.05.09.04.23.1.13.22-.38.42-.78.6-1.2.04-.11-.07-.2-.12-.1h0Z"/>
              <path class="cls-6" d="M15.24,6.4c.03.46.13.91.2,1.36.02.12.15.07.13-.05-.07-.43-.17-.87-.2-1.31,0-.12-.15-.12-.14,0h0Z"/>
              <path class="cls-6" d="M21.04,2.84c.19-.45.3-.93.4-1.44.02-.11.15-.04.13.08-.1.52-.22,1.02-.41,1.48-.04.1-.16-.02-.12-.12h0Z"/>
              <path class="cls-6" d="M20.43,1.22c-.03.46-.12.9-.25,1.32-.03.11-.16.03-.13-.08.13-.4.21-.82.25-1.27,0-.12.15-.09.14.03h0Z"/>
              <path class="cls-6" d="M18.15,1.08c-.09.4-.13.8-.11,1.22,0,.12-.13.12-.14,0-.01-.44.03-.85.12-1.27.03-.12.16-.07.13.05h0Z"/>
              <path class="cls-6" d="M16.92.95c.03.47.05.94.06,1.41,0,.12-.14.12-.14,0,0-.47-.02-.94-.06-1.41,0-.12.13-.12.14,0h0Z"/>
              <path class="cls-6" d="M15.86.98c.04.39.1.79.16,1.17.02.12-.11.17-.13.05-.06-.39-.12-.78-.16-1.17-.01-.12.12-.17.13-.05h0Z"/>
              <path class="cls-6" d="M14.93,1.18c.09.37.17.74.26,1.11.03.12-.1.17-.13.05-.09-.37-.17-.74-.26-1.11-.03-.12.1-.17.13-.05h0Z"/>
              <path class="cls-6" d="M14.04,1.26c.11.46.24.91.42,1.34.04.11-.08.2-.12.1-.18-.44-.31-.91-.43-1.38-.03-.12.1-.16.13-.05h0Z"/>
              <path class="cls-6" d="M13.2,1.51c.1.33.18.7.33,1,.05.1-.07.2-.12.1-.15-.32-.24-.7-.34-1.05-.03-.11.1-.16.13-.05h0Z"/>
              <path class="cls-6" d="M19.33,1.06c-.03.46-.13.91-.2,1.36-.02.12-.15.07-.13-.05.07-.43.17-.87.2-1.31,0-.12.15-.12.14,0h0Z"/>
              <path class="cls-6" d="M15.38,9.06c.07.34.2.75.37,1.02.06.09.16-.04.1-.13-.15-.23-.27-.63-.33-.93-.02-.12-.16-.07-.13.05h0Z"/>
            </g>
            <g>
              <path class="cls-5" d="M9.05,10.94c1.12,0,1.12,1.86.14,1.98-1.25.15-1.39-1.99-.14-1.98Z"/>
              <path class="cls-3" d="M9.28,11.08c.41,0,.41.67.05.72-.45.06-.5-.72-.05-.72Z"/>
            </g>
            <g>
              <path class="cls-5" d="M24.44,10.94c1.12,0,1.12,1.86.14,1.98-1.25.15-1.39-1.99-.14-1.98Z"/>
              <path class="cls-3" d="M24.67,11.08c.41,0,.41.67.05.72-.45.06-.5-.72-.05-.72Z"/>
            </g>
          </g>
        </g>
        <g>
          <path class="cls-4" d="M17.37,21.37c-3.48.1-6.07-.59-7.99-1.59-1.68,2.99-2.69,7.67-2.69,12.51,0,6.54,3.85,11.07,10.93,11.07s10.59-5.2,10.59-11.56c0-4.93-1.78-9.83-3.2-12.26-1.77,1.04-4.23,1.72-7.64,1.82Z"/>
          <path class="cls-4" d="M25.44,43.28l.11-3.29c-1.43,1.68-3.43,2.85-6,3.23.13.99.3,2,.53,2.95.35,1.45.72,2.23,1.75,3.06.52.42,1.57.82,2.24.86,1.43.1,2.23-.87,1.71-2.29-.52-1.43-.38-3-.33-4.52Z"/>
          <path class="cls-4" d="M9.58,40.36c.09,2.08.36,4.15.17,6.24-.02.25-.05.5-.18.71-.27.41-1.36,2.31.71,2.77.9.2,3.08.19,4.17-1.35.94-1.34,1.26-3.57,1.45-5.47-2.66-.31-4.78-1.33-6.31-2.9Z"/>
          <g class="cls-1">
            <path class="cls-8" d="M17.31,23.32c-5.99-.06-8.43,6.14-6.52,12.11,1.05,3.28,4.21,5.04,8.1,4.71,2.52-.21,4.7-2.26,5.28-4.38,1.62-5.98-.88-12.37-6.87-12.43Z"/>
          </g>
          <path class="cls-4" d="M35.59,17.62c-.27-.2-.49.32-.69.57.27-.47.44-1.1.19-1.26-.26-.16-.58.35-.79.55.25-.24.5-.93.22-1.12-.28-.19-.78.55-1.01.79.12-.13.25-.74.01-.81-.96-.29-1.67,2.96-4.85,5.02-1.02.66-1.55.9-2.32,1.01.53,1.36,1.01,2.94,1.36,4.65,6.76-.82,8.44-8.98,7.88-9.41Z"/>
          <path class="cls-4" d="M8.12,22.71C2.18,26.96-.56,34.71.1,35.2c.26.19.57-.21.78-.41-.08.27-.54.86-.21,1.05.33.19.75-.35.97-.65-.13.31-.5.81-.19.99.26.16.69-.25.87-.58-.12.28-.07.75.19.76.93.02,1.89-3.29,4.24-5.67.13-2.9.62-5.67,1.39-7.99Z"/>
        </g>
      </g>
    </g>
  </g>
</svg>