<?xml version="1.0" encoding="UTF-8"?>
<svg id="Layer_2" xmlns="http://www.w3.org/2000/svg" version="1.1" viewBox="0 0 32.7 45.1">
  <!-- Generator: Adobe Illustrator 29.0.0, SVG Export Plug-In . SVG Version: 2.1.0 Build 186)  -->
  <defs>
    <style>
      .st0 {
        fill: #ca7b7b;
      }

      .st1 {
        fill: #fff;
      }

      .st2 {
        opacity: .3;
      }

      .st3 {
        fill: #a66d5f;
      }

      .st4 {
        fill: #1d1f21;
      }

      .st5 {
        opacity: .9;
      }

      .st6 {
        fill: #6c2c30;
      }

      .st7 {
        fill: #c08367;
      }

      .st8 {
        fill: #8a4646;
      }
    </style>
  </defs>
  <g id="Layer_1-2">
    <g>
      <path class="st2" d="M11.1,40.1c3.2-.2,10.4-.5,16.6.3.8.1,1.6.2,2.3.6s1.1,1.1.8,1.8c-.4.7-1.5.9-2.4,1.1-6.7,1.4-12.6,1.6-20.6.8-2.2-.2-5.5-.5-5.7-2.3-.2-1.8,5.6-2.1,9-2.3h0Z"/>
      <g>
        <g>
          <path class="st3" d="M27.6,6.9c-.9-2.2-3.6-6.5-10.6-6.6-7-.1-11.4,3.5-13,7.7-.8,2.2-.9,4.6,0,6.8.7,1.8,3.8,6.8,12.8,6.5,7.2-.2,10.2-3,11.4-6.3.9-2.5.6-5.6-.5-8.1Z"/>
          <g>
            <path class="st3" d="M26.9,5.6c.6-.3,1.1-.7,1.5-1.2.7-.9,1-2.2.6-3.2-.3-.6-.9-1.1-1.7-1.1-1.7-.1-2.9,1-3.6,2.2,1.5,1,2.5,2.3,3.2,3.3h0Z"/>
            <path class="st8" d="M26.2,4.6c.6-.2,2.3-1.8,1.3-2.9-1-1.1-2.7.5-3,1.2.7.5,1.2,1.1,1.6,1.7h0Z"/>
          </g>
          <g>
            <path class="st3" d="M5.5,5.3c.9-1.2,2.1-2.3,3.6-3.2C7.5-.6,5.4-.1,4.6.4c-.9.6-1.2,1.8-.9,2.8.3.9.9,1.6,1.7,2.1Z"/>
            <path class="st8" d="M6.1,4.2s0,0,.2.1c.5-.5,1.1-1.1,1.7-1.5-.1-.3-.3-.6-.6-.9-.3-.3-.6-.5-.9-.6-.4-.1-.8,0-1.1.2-.4.4-.5,1-.3,1.5.2.5.6.9,1,1.3h0Z"/>
          </g>
        </g>
        <g>
          <g>
            <path class="st7" d="M20,15.1c.4,5.2-7.1,5-7,.4,0-6.1,6.6-6,7-.4Z"/>
            <g>
              <path class="st4" d="M18.4,16.8c-.1.6-.9.8-1.3.4-.3-.3-.4-.7-.4-1.1,0-.7,0-1.4,0-2.1,0,0-.1,0-.2,0h-.1v2h0c0,.3,0,.6-.2.8-.4.6-1.4.9-1.6,0,0-.2-.3-.1-.3,0,.1.5.7.8,1.2.8.5,0,.8-.4,1-.8.1.4.3.6.7.8.6.2,1.3,0,1.5-.7,0-.2-.2-.2-.3,0h0Z"/>
              <path class="st4" d="M17.7,12.7c-.3-.6-2.1-.6-2.4,0-.3.6.3,1.3,1.2,1.3.9,0,1.5-.8,1.2-1.3h0Z"/>
            </g>
          </g>
          <path class="st0" d="M27.4,15c0-1.6-3.1-1.6-3.3-.2-.2,1.8,3.3,2,3.3.2Z"/>
          <path class="st0" d="M5.9,15c0-1.6,3.1-1.6,3.3-.2.2,1.8-3.3,2-3.3.2Z"/>
          <g>
            <path class="st6" d="M11.4,4.4c0,.3.1.6.3.9,0,0,.2,0,.1,0-.1-.3-.2-.5-.3-.8,0-.1-.1,0-.1,0h0Z"/>
            <path class="st6" d="M12.3,3.9c0,.4.1.8.3,1.2,0,.1.1,0,.1,0-.1-.4-.2-.8-.3-1.2,0-.1-.1,0-.1,0h0Z"/>
            <path class="st6" d="M13.5,3.8c0,.4,0,.8.1,1.2,0,.1.1,0,.1,0,0-.4-.1-.8-.1-1.2,0-.1-.1-.1-.1,0h0Z"/>
            <path class="st6" d="M10.6,2.1c0,.4.2.8.3,1.2,0,.1.2,0,.1,0-.1-.4-.2-.8-.3-1.1,0-.1-.2-.1-.1,0h0Z"/>
            <path class="st6" d="M14.6,3.7c0,.5,0,.9,0,1.3,0,.1.1,0,.1,0,0-.4,0-.8,0-1.3,0-.1-.1-.1-.1,0h0Z"/>
            <path class="st6" d="M15.6,3.6c0,.5,0,.9,0,1.4,0,.1.1.1.1,0,0-.5,0-1,0-1.5,0-.1-.1,0-.1,0h0Z"/>
            <path class="st6" d="M16.6,3.7c0,.4,0,.8,0,1.2,0,.1.1.1.1,0,0-.4,0-.8,0-1.2,0-.1-.1-.1-.1,0h0Z"/>
            <path class="st6" d="M17.8,3.7v1.3c0,.1.1.1.1,0v-1.3c0-.1-.1-.1-.1,0h0Z"/>
            <path class="st6" d="M19,3.8c0,.4-.1.7-.2,1.1,0,.1.1.2.1,0,0-.4.1-.7.2-1.1,0-.1-.1-.2-.1,0h0Z"/>
            <path class="st6" d="M20.1,3.8c0,.4-.1.8-.2,1.2,0,.1.1.2.1,0,0-.4.1-.8.2-1.2,0-.1-.1-.2-.1,0h0Z"/>
            <path class="st6" d="M21,5.3c0-.3.1-.5.2-.8,0-.1-.1-.2-.1,0,0,.3,0,.5-.2.8,0,.1.1.2.1,0h0Z"/>
            <path class="st6" d="M11.5,1.9c0,.3.1.5.2.8,0,.1.2,0,.1,0-.1-.3-.2-.5-.2-.8,0-.1-.2,0-.1,0h0Z"/>
            <path class="st6" d="M13.2,8.1c-.3-.4-.4-.9-.6-1.4,0-.1-.2,0-.1,0,.2.5.4,1,.6,1.4,0,0,.1,0,.1-.1h0Z"/>
            <path class="st6" d="M13.5,6.6c0,.5.2.9.4,1.3,0,0,.2,0,.1,0-.2-.4-.3-.8-.4-1.2,0-.1-.2,0-.1,0h0Z"/>
            <path class="st6" d="M15.5,6.4c0,.4.1.8.1,1.2,0,.1.1.1.1,0,0-.4,0-.9-.1-1.3,0-.1-.2,0-.1,0h0Z"/>
            <path class="st6" d="M16.6,6.2c0,.5,0,.9,0,1.4,0,.1.1.1.1,0,0-.5,0-.9,0-1.4,0-.1-.1-.1-.1,0h0Z"/>
            <path class="st6" d="M17.7,6.2c0,.4-.1.8-.2,1.2,0,.1.1.2.1,0,0-.4.1-.8.2-1.2,0-.1-.1-.2-.1,0h0Z"/>
            <path class="st6" d="M18.6,6.4c0,.4-.2.7-.3,1.1,0,.1.1.2.1,0,0-.4.2-.7.3-1.1,0-.1-.1-.2-.1,0h0Z"/>
            <path class="st6" d="M19.5,6.5c-.1.5-.2.9-.4,1.3,0,.1,0,.2.1,0,.2-.4.3-.9.4-1.4,0-.1-.1-.2-.1,0h0Z"/>
            <path class="st6" d="M20.3,6.8c-.1.3-.3.7-.4,1,0,0,0,.2.1.1.2-.3.3-.7.5-1,0-.1,0-.2-.1,0h0Z"/>
            <path class="st6" d="M21.7,1.9c-.1.3-.2.7-.3,1,0,0,0,.2.1,0,.1-.3.2-.7.3-1,0-.1-.1-.2-.1,0h0Z"/>
            <path class="st6" d="M13.9,9.7c.1.3.2.5.4.8,0,0,.2,0,.1-.1-.1-.2-.3-.5-.4-.8,0-.1-.2,0-.1.1h0Z"/>
            <path class="st6" d="M15.7,8.9c0,.3,0,.6,0,1s.1.1.1,0c0-.4,0-.7,0-1,0-.1-.1,0-.1,0h0Z"/>
            <path class="st6" d="M16.7,8.9c0,.4,0,.7,0,1,0,.1.1.2.1,0,0-.4,0-.7,0-1.1,0-.1-.1-.1-.1,0h0Z"/>
            <path class="st6" d="M17.8,8.9c0,.4-.2.7-.3,1.1,0,.1,0,.2.1,0,.1-.4.2-.7.3-1.1,0-.1-.1-.2-.1,0h0Z"/>
            <path class="st6" d="M18.9,9.2c-.2.4-.4.8-.6,1.2,0,0,0,.2.1.1.2-.4.4-.8.6-1.2,0-.1,0-.2-.1-.1h0Z"/>
            <path class="st6" d="M14.6,6.4c0,.5.1.9.2,1.4,0,.1.1,0,.1,0,0-.4-.2-.9-.2-1.3,0-.1-.1-.1-.1,0h0Z"/>
            <path class="st6" d="M20.4,2.8c.2-.5.3-.9.4-1.4,0-.1.1,0,.1,0-.1.5-.2,1-.4,1.5,0,0-.2,0-.1-.1h0Z"/>
            <path class="st6" d="M19.8,1.2c0,.5-.1.9-.2,1.3,0,.1-.2,0-.1,0,.1-.4.2-.8.2-1.3,0-.1.1,0,.1,0h0Z"/>
            <path class="st6" d="M17.5,1.1c0,.4-.1.8-.1,1.2,0,.1-.1.1-.1,0,0-.4,0-.9.1-1.3,0-.1.2,0,.1,0h0Z"/>
            <path class="st6" d="M16.2.9c0,.5,0,.9,0,1.4,0,.1-.1.1-.1,0,0-.5,0-.9,0-1.4,0-.1.1-.1.1,0h0Z"/>
            <path class="st6" d="M15.2,1c0,.4.1.8.2,1.2,0,.1-.1.2-.1,0,0-.4-.1-.8-.2-1.2,0-.1.1-.2.1,0h0Z"/>
            <path class="st6" d="M14.2,1.2c0,.4.2.7.3,1.1,0,.1-.1.2-.1,0,0-.4-.2-.7-.3-1.1,0-.1.1-.2.1,0h0Z"/>
            <path class="st6" d="M13.4,1.3c.1.5.2.9.4,1.3,0,.1,0,.2-.1,0-.2-.4-.3-.9-.4-1.4,0-.1.1-.2.1,0h0Z"/>
            <path class="st6" d="M12.5,1.5c.1.3.2.7.3,1,0,0,0,.2-.1,0-.1-.3-.2-.7-.3-1,0-.1.1-.2.1,0h0Z"/>
            <path class="st6" d="M18.6,1.1c0,.5-.1.9-.2,1.4,0,.1-.1,0-.1,0,0-.4.2-.9.2-1.3,0-.1.1-.1.1,0h0Z"/>
            <path class="st6" d="M14.7,9.1c0,.3.2.8.4,1,0,0,.2,0,.1-.1-.1-.2-.3-.6-.3-.9,0-.1-.2,0-.1,0h0Z"/>
          </g>
          <g>
            <path class="st4" d="M8.4,10.9c1.1,0,1.1,1.9.1,2-1.2.1-1.4-2-.1-2Z"/>
            <path class="st1" d="M8.6,11.1c.4,0,.4.7,0,.7-.4,0-.5-.7,0-.7Z"/>
          </g>
          <g>
            <path class="st4" d="M23.8,10.9c1.1,0,1.1,1.9.1,2-1.2.1-1.4-2-.1-2Z"/>
            <path class="st1" d="M24,11.1c.4,0,.4.7,0,.7-.5,0-.5-.7,0-.7Z"/>
          </g>
        </g>
      </g>
      <g>
        <g>
          <path class="st3" d="M16.7,21.4c-3.7.1-6.4-.7-8.3-1.8-2.4,4.3-4.2,10.8-1.4,17.3,1.2,2.7,4,4.5,6.9,5.2,2.9.7,6,0,8.5-1.5,2-1.2,3.6-3,4.2-5.3,1.6-6-.7-12-2.6-15.5-1.7.9-4.1,1.5-7.2,1.6h0Z"/>
          <g class="st5">
            <path class="st7" d="M16.2,23.8c-5.5,0-7.7,6.1-6,12,1,3.2,3.9,5,7.4,4.7,2.3-.2,4.3-2.2,4.8-4.3,1.5-5.9-.8-12.2-6.3-12.3Z"/>
          </g>
        </g>
        <path class="st3" d="M6.9,36.9c-.6-1.3-.9-2.6-1.2-3.9-1.7,1.2-3,3.6-2.8,5.6-.4-.4-.8-.8-1.4-1-.5-.2-1.2,0-1.5.4-.3.5,0,1.1.3,1.6,1.2,1.8,3.2,3,5.4,3.3,2,.2,4-.4,5.5-1.7-1.9-.9-3.6-2.4-4.4-4.3h0Z"/>
        <path class="st3" d="M32.5,38c-.3-.5-1-.6-1.5-.4-.5.2-.9.6-1.3,1,.3-2.2-.9-4.4-2.8-5.6,0,.8-.2,1.5-.4,2.3-.6,2.2-2.2,4.1-4.2,5.3-.3.2-.5.3-.8.5,1.5,1.3,3.5,2,5.5,1.8,2.1-.2,4.1-1.5,5.2-3.3.3-.5.5-1.1.3-1.6h0Z"/>
        <path class="st3" d="M22.9,23.2c-2.2.2-1.2,2.9-1.7,4.7-.5,1.8-.9,2.6-2.2,3.9-.6.6-1.4,1.3-1.2,2,.2.5.8.9,1.5.9.6,0,4.5,0,6.1-5,.9-2.9-.2-6.7-2.4-6.5h0Z"/>
        <path class="st3" d="M9.3,23.4c2.2.2,1.3,2.9,1.8,4.7s.9,2.6,2.3,3.8c.7.6,1.5,1.2,1.3,2-.1.5-.8.9-1.4,1s-4.5.1-6.2-4.9c-1-2.9,0-6.7,2.2-6.5Z"/>
      </g>
    </g>
  </g>
</svg>