<?xml version="1.0" encoding="UTF-8"?>
<svg id="Layer_2" xmlns="http://www.w3.org/2000/svg" version="1.1" viewBox="0 0 35.7 51.8">
  <!-- Generator: Adobe Illustrator 29.0.0, SVG Export Plug-In . SVG Version: 2.1.0 Build 186)  -->
  <defs>
    <style>
      .st0 {
        fill: #ca7b7b;
      }

      .st1 {
        fill: #fff;
      }

      .st2 {
        opacity: .3;
      }

      .st3 {
        fill: #a66d5f;
      }

      .st4 {
        fill: #1d1f21;
      }

      .st5 {
        opacity: .9;
      }

      .st6 {
        fill: #6c2c30;
      }

      .st7 {
        fill: #c08367;
      }

      .st8 {
        fill: #8a4646;
      }
    </style>
  </defs>
  <g id="Layer_1-2">
    <g>
      <path class="st2" d="M12.9,51.5c2.7.1,5,.4,8.2.3s.7,0,6-.6c.7,0,1.4-.2,2-.4.6-.3,1-.8.7-1.2-.3-.5-1.2-.6-2-.7-5.7-1-10.8-1.1-17.6-.6-1.9.2-5.2.2-5.1,1.3s5,1.8,7.9,1.9Z"/>
      <g>
        <g>
          <g>
            <path class="st3" d="M28.3,6.9c-.9-2.2-3.6-6.5-10.6-6.6-7-.1-11.4,3.5-13,7.7-.8,2.2-.9,4.6,0,6.8.7,1.8,3.8,6.8,12.8,6.5,7.2-.2,10.2-3,11.4-6.3.9-2.5.6-5.6-.5-8.1Z"/>
            <g>
              <path class="st3" d="M27.6,5.6c.6-.3,1.1-.7,1.5-1.2.7-.9,1-2.2.6-3.2-.3-.6-.9-1.1-1.7-1.1-1.7-.1-2.9,1-3.6,2.2,1.5,1,2.5,2.3,3.2,3.4Z"/>
              <path class="st8" d="M26.9,4.6c.6-.2,2.3-1.8,1.3-2.9-1-1.1-2.7.5-3,1.2.7.5,1.2,1.1,1.6,1.7h0Z"/>
            </g>
            <g>
              <path class="st3" d="M6.2,5.3c.9-1.2,2.1-2.3,3.6-3.2C8.2-.6,6.1-.1,5.3.4c-.9.6-1.2,1.8-.9,2.8.3.9.9,1.6,1.7,2.1h0Z"/>
              <path class="st8" d="M6.8,4.2s0,0,.2.1c.5-.5,1.1-1.1,1.7-1.5-.1-.3-.3-.6-.6-.9-.3-.3-.6-.5-.9-.6-.4-.1-.8,0-1.1.2-.4.4-.5,1-.3,1.5.2.5.6.9,1,1.3h0Z"/>
            </g>
          </g>
          <g>
            <g>
              <path class="st7" d="M20.7,15.1c.4,5.2-7.1,5-7,.4,0-6.1,6.6-6,7-.4Z"/>
              <g>
                <path class="st4" d="M19.1,16.8c-.1.6-.9.8-1.3.4-.3-.3-.4-.7-.4-1.1,0-.7,0-1.4,0-2.1,0,0-.1,0-.2,0h-.1v2h0c0,.3,0,.6-.2.8-.4.6-1.4.9-1.6,0,0-.2-.3-.1-.3,0,.1.5.7.8,1.2.8.5,0,.8-.4,1-.8.1.4.3.6.7.8.6.2,1.3,0,1.5-.7,0-.2-.2-.2-.3,0h0Z"/>
                <path class="st4" d="M18.4,12.7c-.3-.6-2.1-.6-2.4,0-.3.6.3,1.3,1.2,1.3.9,0,1.5-.8,1.2-1.3h0Z"/>
              </g>
            </g>
            <path class="st0" d="M28.1,15c0-1.6-3.1-1.6-3.3-.2-.2,1.8,3.3,2,3.3.2Z"/>
            <path class="st0" d="M6.6,15c0-1.6,3.1-1.6,3.3-.2.2,1.8-3.3,2-3.3.2Z"/>
            <g>
              <path class="st6" d="M12.1,4.4c0,.3.1.6.3.9,0,0,.2,0,.1,0-.1-.3-.2-.5-.3-.8,0-.1-.1,0-.1,0h0Z"/>
              <path class="st6" d="M12.9,3.9c0,.4.1.8.3,1.2,0,.1.1,0,.1,0-.1-.4-.2-.8-.3-1.2,0-.1-.1,0-.1,0h0Z"/>
              <path class="st6" d="M14.1,3.8c0,.4,0,.8.1,1.2,0,.1.1,0,.1,0,0-.4-.1-.8-.1-1.2,0-.1-.1-.1-.1,0h0Z"/>
              <path class="st6" d="M11.2,2.1c0,.4.2.8.3,1.2,0,.1.2,0,.1,0-.1-.4-.2-.8-.3-1.1,0-.1-.2-.1-.1,0h0Z"/>
              <path class="st6" d="M15.2,3.7c0,.5,0,.9,0,1.3,0,.1.1,0,.1,0,0-.4,0-.8,0-1.3,0-.1-.1-.1-.1,0h0Z"/>
              <path class="st6" d="M16.3,3.6c0,.5,0,.9,0,1.4,0,.1.1.1.1,0,0-.5,0-1,0-1.5,0-.1-.1,0-.1,0h0Z"/>
              <path class="st6" d="M17.3,3.7c0,.4,0,.8,0,1.2,0,.1.1.1.1,0,0-.4,0-.8,0-1.2,0-.1-.1-.1-.1,0h0Z"/>
              <path class="st6" d="M18.5,3.7v1.3c0,.1.1.1.1,0v-1.3c0-.1-.1-.1-.1,0h0Z"/>
              <path class="st6" d="M19.6,3.8c0,.4-.1.7-.2,1.1,0,.1.1.2.1,0,0-.4.1-.7.2-1.1,0-.1-.1-.2-.1,0h0Z"/>
              <path class="st6" d="M20.8,3.8c0,.4-.1.8-.2,1.2,0,.1.1.2.1,0,0-.4.1-.8.2-1.2,0-.1-.1-.2-.1,0h0Z"/>
              <path class="st6" d="M21.7,5.3c0-.3.1-.5.2-.8,0-.1-.1-.2-.1,0,0,.3,0,.5-.2.8,0,.1.1.2.1,0h0Z"/>
              <path class="st6" d="M12.2,1.9c0,.3.1.5.2.8,0,.1.2,0,.1,0-.1-.3-.2-.5-.2-.8,0-.1-.2,0-.1,0h0Z"/>
              <path class="st6" d="M13.8,8.1c-.3-.4-.4-.9-.6-1.4,0-.1-.2,0-.1,0,.2.5.4,1,.6,1.4,0,0,.1,0,.1-.1h0Z"/>
              <path class="st6" d="M14.1,6.6c0,.5.2.9.4,1.3,0,0,.2,0,.1,0-.2-.4-.3-.8-.4-1.2,0-.1-.2,0-.1,0h0Z"/>
              <path class="st6" d="M16.2,6.4c0,.4.1.8.1,1.2,0,.1.1.1.1,0,0-.4,0-.9-.1-1.3,0-.1-.2,0-.1,0h0Z"/>
              <path class="st6" d="M17.3,6.2c0,.5,0,.9,0,1.4,0,.1.1.1.1,0,0-.5,0-.9,0-1.4,0-.1-.1-.1-.1,0h0Z"/>
              <path class="st6" d="M18.4,6.2c0,.4-.1.8-.2,1.2,0,.1.1.2.1,0,0-.4.1-.8.2-1.2,0-.1-.1-.2-.1,0h0Z"/>
              <path class="st6" d="M19.3,6.4c0,.4-.2.7-.3,1.1,0,.1.1.2.1,0,0-.4.2-.7.3-1.1,0-.1-.1-.2-.1,0h0Z"/>
              <path class="st6" d="M20.2,6.5c-.1.5-.2.9-.4,1.3,0,.1,0,.2.1,0,.2-.4.3-.9.4-1.4,0-.1-.1-.2-.1,0h0Z"/>
              <path class="st6" d="M21,6.8c-.1.3-.3.7-.4,1,0,0,0,.2.1.1.2-.3.3-.7.5-1,0-.1,0-.2-.1,0h0Z"/>
              <path class="st6" d="M22.4,1.9c-.1.3-.2.7-.3,1,0,0,0,.2.1,0,.1-.3.2-.7.3-1,0-.1-.1-.2-.1,0h0Z"/>
              <path class="st6" d="M14.6,9.7c.1.3.2.5.4.8,0,0,.2,0,.1-.1-.1-.2-.3-.5-.4-.8,0-.1-.2,0-.1.1h0Z"/>
              <path class="st6" d="M16.3,8.9c0,.3,0,.6,0,1s.1.1.1,0c0-.4,0-.7,0-1,0-.1-.1,0-.1,0h0Z"/>
              <path class="st6" d="M17.4,8.9c0,.4,0,.7,0,1,0,.1.1.2.1,0,0-.4,0-.7,0-1.1,0-.1-.1-.1-.1,0h0Z"/>
              <path class="st6" d="M18.5,8.9c0,.4-.2.7-.3,1.1,0,.1,0,.2.1,0,.1-.4.2-.7.3-1.1,0-.1-.1-.2-.1,0h0Z"/>
              <path class="st6" d="M19.6,9.2c-.2.4-.4.8-.6,1.2,0,0,0,.2.1.1.2-.4.4-.8.6-1.2,0-.1,0-.2-.1-.1h0Z"/>
              <path class="st6" d="M15.2,6.4c0,.5.1.9.2,1.4,0,.1.1,0,.1,0,0-.4-.2-.9-.2-1.3,0-.1-.1-.1-.1,0h0Z"/>
              <path class="st6" d="M21,2.8c.2-.5.3-.9.4-1.4,0-.1.1,0,.1,0-.1.5-.2,1-.4,1.5,0,0-.2,0-.1-.1h0Z"/>
              <path class="st6" d="M20.4,1.2c0,.5-.1.9-.2,1.3,0,.1-.2,0-.1,0,.1-.4.2-.8.2-1.3,0-.1.1,0,.1,0h0Z"/>
              <path class="st6" d="M18.1,1.1c0,.4-.1.8-.1,1.2,0,.1-.1.1-.1,0,0-.4,0-.9.1-1.3,0-.1.2,0,.1,0h0Z"/>
              <path class="st6" d="M16.9.9c0,.5,0,.9,0,1.4,0,.1-.1.1-.1,0,0-.5,0-.9,0-1.4,0-.1.1-.1.1,0h0Z"/>
              <path class="st6" d="M15.9,1c0,.4.1.8.2,1.2,0,.1-.1.2-.1,0,0-.4-.1-.8-.2-1.2,0-.1.1-.2.1,0h0Z"/>
              <path class="st6" d="M14.9,1.2c0,.4.2.7.3,1.1,0,.1-.1.2-.1,0,0-.4-.2-.7-.3-1.1,0-.1.1-.2.1,0h0Z"/>
              <path class="st6" d="M14,1.3c.1.5.2.9.4,1.3,0,.1,0,.2-.1,0-.2-.4-.3-.9-.4-1.4,0-.1.1-.2.1,0h0Z"/>
              <path class="st6" d="M13.2,1.5c.1.3.2.7.3,1,0,0,0,.2-.1,0-.1-.3-.2-.7-.3-1,0-.1.1-.2.1,0h0Z"/>
              <path class="st6" d="M19.3,1.1c0,.5-.1.9-.2,1.4,0,.1-.1,0-.1,0,0-.4.2-.9.2-1.3,0-.1.1-.1.1,0h0Z"/>
              <path class="st6" d="M15.4,9.1c0,.3.2.8.4,1,0,0,.2,0,.1-.1-.1-.2-.3-.6-.3-.9,0-.1-.2,0-.1,0h0Z"/>
            </g>
            <g>
              <path class="st4" d="M9.1,10.9c1.1,0,1.1,1.9.1,2-1.2.1-1.4-2-.1-2Z"/>
              <path class="st1" d="M9.3,11.1c.4,0,.4.7,0,.7-.4,0-.5-.7,0-.7Z"/>
            </g>
            <g>
              <path class="st4" d="M24.4,10.9c1.1,0,1.1,1.9.1,2-1.2.1-1.4-2-.1-2Z"/>
              <path class="st1" d="M24.7,11.1c.4,0,.4.7,0,.7-.5,0-.5-.7,0-.7Z"/>
            </g>
          </g>
        </g>
        <g>
          <path class="st3" d="M17.4,21.4c-3.5.1-6.1-.6-8-1.6-1.7,3-2.7,7.7-2.7,12.5s3.8,11.1,10.9,11.1,10.6-5.2,10.6-11.6-1.8-9.8-3.2-12.3c-1.8,1-4.2,1.7-7.6,1.8h0Z"/>
          <path class="st3" d="M25.4,43.3v-3.3c-1.3,1.7-3.3,2.8-5.9,3.2.1,1,.3,2,.5,3,.4,1.5.7,2.2,1.8,3.1.5.4,1.6.8,2.2.9,1.4,0,2.2-.9,1.7-2.3-.5-1.4-.4-3-.3-4.5h0Z"/>
          <path class="st3" d="M9.6,40.4c0,2.1.4,4.2.2,6.2,0,.2,0,.5-.2.7-.3.4-1.4,2.3.7,2.8.9.2,3.1.2,4.2-1.3.9-1.3,1.3-3.6,1.4-5.5-2.7-.3-4.8-1.3-6.3-2.9h0Z"/>
          <g class="st5">
            <path class="st7" d="M17.3,23.3c-6,0-8.4,6.1-6.5,12.1,1.1,3.3,4.2,5,8.1,4.7,2.5-.2,4.7-2.3,5.3-4.4,1.6-6-.9-12.4-6.9-12.4h0Z"/>
          </g>
          <path class="st3" d="M35.6,17.6c-.3-.2-.5.3-.7.6.3-.5.4-1.1.2-1.3-.3-.2-.6.4-.8.5.2-.2.5-.9.2-1.1s-.8.5-1,.8c.1-.1.2-.7,0-.8-1-.3-1.7,3-4.9,5-1,.7-1.5.9-2.3,1,.5,1.4,1,2.9,1.4,4.6,6.8-.8,8.4-9,7.9-9.4h0Z"/>
          <path class="st3" d="M8.1,22.7C2.2,27-.6,34.7.1,35.2c.3.2.6-.2.8-.4,0,.3-.5.9-.2,1,.3.2.8-.3,1-.7-.1.3-.5.8-.2,1,.3.2.7-.2.9-.6-.1.3,0,.8.2.8.9,0,1.9-3.3,4.2-5.7.1-2.9.6-5.7,1.4-8h0Z"/>
        </g>
      </g>
    </g>
  </g>
</svg>