<?xml version="1.0" encoding="UTF-8"?>
<svg id="Layer_2" data-name="Layer 2" xmlns="http://www.w3.org/2000/svg" viewBox="0 0 32.67 45.1">
  <defs>
    <style>
      .cls-1 {
        opacity: .9;
      }

      .cls-2 {
        fill: #ca7b7b;
      }

      .cls-3 {
        fill: #fff;
      }

      .cls-4 {
        fill: #a66d5f;
      }

      .cls-5 {
        fill: #1d1f21;
      }

      .cls-6 {
        fill: #6c2c30;
      }

      .cls-7 {
        fill: #c0cece;
      }

      .cls-8 {
        fill: #c08367;
      }

      .cls-9 {
        fill: #8a4646;
      }
    </style>
  </defs>
  <g id="Layer_1-2" data-name="Layer 1">
    <g>
      <path class="cls-7" d="M11.07,40.06c3.2-.15,10.44-.47,16.62.35.81.11,1.64.22,2.31.61s1.12,1.12.82,1.75c-.35.73-1.46.87-2.38,1.06-6.72,1.39-12.64,1.6-20.62.81-2.22-.22-5.51-.47-5.72-2.29-.21-1.82,5.59-2.13,8.96-2.29Z"/>
      <g>
        <g>
          <path class="cls-4" d="M27.6,6.9c-.92-2.15-3.63-6.47-10.64-6.58-7.01-.11-11.44,3.5-12.96,7.75-.78,2.17-.9,4.62-.06,6.77.7,1.78,3.81,6.8,12.76,6.53,7.24-.21,10.19-3.04,11.39-6.34.92-2.52.6-5.6-.49-8.13Z"/>
          <g>
            <path class="cls-4" d="M26.92,5.59c.57-.28,1.09-.66,1.48-1.17.7-.91,1.01-2.15.56-3.21-.26-.6-.9-1.09-1.68-1.15-1.67-.12-2.86,1.04-3.56,2.17,1.53,1.01,2.54,2.27,3.2,3.35Z"/>
            <path class="cls-9" d="M26.24,4.58c.58-.22,2.26-1.81,1.31-2.9-.95-1.08-2.67.54-2.96,1.19.66.55,1.2,1.13,1.64,1.71Z"/>
          </g>
          <g>
            <path class="cls-4" d="M5.49,5.29c.92-1.23,2.13-2.32,3.63-3.16C7.51-.62,5.4-.1,4.63.39c-.87.56-1.17,1.77-.87,2.76.27.9.94,1.62,1.73,2.14Z"/>
            <path class="cls-9" d="M6.11,4.25s.1.08.15.12c.51-.55,1.09-1.06,1.74-1.52-.14-.33-.33-.63-.57-.9-.26-.29-.58-.54-.95-.65-.37-.11-.81-.07-1.11.18-.43.35-.49,1-.28,1.51.2.51.62.9,1.04,1.26Z"/>
          </g>
        </g>
        <g>
          <g>
            <path class="cls-8" d="M20.03,15.13c.4,5.16-7.09,4.96-7.02.4.08-6.07,6.59-5.99,7.02-.4Z"/>
            <g>
              <path class="cls-5" d="M18.42,16.76c-.13.6-.88.77-1.34.38-.3-.26-.39-.7-.4-1.08.09-.67.05-1.39.03-2.08-.06,0-.12.02-.18.02-.04,0-.08,0-.13,0v1.1c0,.22,0,.44,0,.66,0,.08,0,.16,0,.24,0,0,0,0,0,0,0,0,0,.01,0,.02-.01.27-.05.55-.19.77-.35.56-1.43.85-1.63-.02-.04-.18-.31-.1-.27.08.13.55.71.84,1.24.75.48-.09.8-.42.97-.83.12.35.33.65.69.79.63.25,1.34-.02,1.48-.7.04-.18-.23-.25-.27-.07Z"/>
              <path class="cls-5" d="M17.74,12.66c-.31-.56-2.09-.64-2.42.02-.33.65.32,1.3,1.21,1.32.92.02,1.52-.77,1.21-1.33Z"/>
            </g>
          </g>
          <path class="cls-2" d="M27.38,14.98c0-1.58-3.06-1.59-3.26-.2-.25,1.77,3.27,1.96,3.26.2Z"/>
          <path class="cls-2" d="M5.93,14.98c0-1.58,3.06-1.59,3.26-.2.25,1.77-3.27,1.96-3.26.2Z"/>
          <g>
            <path class="cls-6" d="M11.37,4.42c.05.33.15.62.3.89.05.1.17,0,.12-.1-.14-.26-.23-.53-.29-.84-.02-.12-.15-.07-.13.05h0Z"/>
            <path class="cls-6" d="M12.27,3.86c.06.42.15.83.27,1.22.03.11.15.02.12-.09-.12-.38-.2-.77-.26-1.18-.02-.12-.15-.07-.13.05h0Z"/>
            <path class="cls-6" d="M13.46,3.79c.03.41.07.82.14,1.22.02.12.15.07.13-.05-.06-.39-.11-.77-.13-1.17,0-.12-.14-.12-.14,0h0Z"/>
            <path class="cls-6" d="M10.58,2.1c.09.4.2.79.33,1.18.04.11.16.04.12-.07-.12-.37-.23-.75-.32-1.13-.03-.12-.16-.1-.14.02h0Z"/>
            <path class="cls-6" d="M14.55,3.7c0,.45.02.89.08,1.34.02.12.15.07.13-.05-.05-.43-.08-.85-.07-1.29,0-.12-.14-.12-.14,0h0Z"/>
            <path class="cls-6" d="M15.62,3.6c.06.47.08.94.07,1.42,0,.12.13.12.14,0,0-.49-.02-.98-.08-1.47-.01-.12-.15-.07-.13.05h0Z"/>
            <path class="cls-6" d="M16.63,3.69c.03.41.03.81,0,1.22,0,.12.13.12.14,0,.02-.41.02-.81,0-1.22,0-.12-.14-.12-.14,0h0Z"/>
            <path class="cls-6" d="M17.82,3.7c0,.43,0,.85,0,1.28,0,.12.14.12.14,0,0-.43,0-.85,0-1.28,0-.12-.14-.12-.14,0h0Z"/>
            <path class="cls-6" d="M18.98,3.8c-.05.37-.11.74-.16,1.12-.02.12.11.17.13.05.05-.37.11-.74.16-1.12.02-.12-.11-.17-.13-.05h0Z"/>
            <path class="cls-6" d="M20.13,3.85c-.06.41-.12.82-.18,1.23-.02.12.11.17.13.05.06-.41.12-.82.18-1.23.02-.12-.11-.17-.13-.05h0Z"/>
            <path class="cls-6" d="M21.03,5.3c.08-.26.13-.52.17-.79.02-.12-.12-.17-.13-.05-.04.27-.09.53-.17.79-.03.11.1.16.13.05h0Z"/>
            <path class="cls-6" d="M11.5,1.91c.05.26.13.52.23.78.04.11.18.09.14-.02-.1-.26-.17-.51-.23-.78-.02-.11-.16-.09-.14.02h0Z"/>
            <path class="cls-6" d="M13.17,8.05c-.26-.41-.45-.87-.62-1.36-.04-.11-.16-.01-.12.1.18.5.38.97.64,1.4.06.09.15-.04.1-.13h0Z"/>
            <path class="cls-6" d="M13.46,6.62c.09.46.23.88.42,1.27.05.1.17,0,.12-.1-.18-.38-.32-.79-.41-1.23-.02-.12-.16-.07-.13.05h0Z"/>
            <path class="cls-6" d="M15.53,6.39c.09.4.13.8.11,1.22,0,.12.13.12.14,0,.01-.44-.03-.86-.12-1.27-.03-.12-.16-.07-.13.05h0Z"/>
            <path class="cls-6" d="M16.65,6.22c-.04.47-.05.94-.06,1.41,0,.12.14.12.14,0,0-.47.02-.94.06-1.41,0-.12-.13-.12-.14,0h0Z"/>
            <path class="cls-6" d="M17.72,6.25c-.04.39-.1.79-.16,1.17-.02.12.11.17.13.05.06-.39.12-.78.16-1.17.01-.12-.12-.17-.13-.05h0Z"/>
            <path class="cls-6" d="M18.64,6.45c-.09.37-.17.74-.26,1.11-.03.12.1.17.13.05.09-.37.17-.74.26-1.11.03-.12-.1-.17-.13-.05h0Z"/>
            <path class="cls-6" d="M19.54,6.53c-.11.46-.24.91-.42,1.34-.04.11.07.2.12.1.18-.44.31-.91.43-1.38.03-.12-.1-.16-.13-.05h0Z"/>
            <path class="cls-6" d="M20.32,6.85c-.14.32-.26.68-.44.96-.06.09.05.2.11.11.19-.3.31-.67.46-1,.05-.11-.08-.17-.13-.06h0Z"/>
            <path class="cls-6" d="M21.69,1.89c-.1.33-.18.7-.33,1-.05.1.07.2.12.09.15-.32.24-.7.34-1.05.03-.11-.1-.16-.13-.05h0Z"/>
            <path class="cls-6" d="M13.89,9.67c.12.27.24.52.39.77.05.09.17-.03.11-.12-.14-.24-.27-.5-.39-.77-.04-.1-.16.02-.11.12h0Z"/>
            <path class="cls-6" d="M15.66,8.91c.04.32.07.64.07.97,0,.12.14.12.14,0,0-.35-.03-.68-.08-1.02-.02-.12-.15-.07-.13.05h0Z"/>
            <path class="cls-6" d="M16.7,8.86c.02.35,0,.68-.07,1.02-.02.12.11.17.13.05.07-.35.09-.71.07-1.07,0-.12-.14-.12-.14,0h0Z"/>
            <path class="cls-6" d="M17.8,8.94c-.07.37-.16.71-.27,1.05-.04.11.08.21.12.09.12-.36.21-.72.28-1.1.02-.12-.11-.17-.13-.05h0Z"/>
            <path class="cls-6" d="M18.88,9.24c-.17.41-.36.79-.58,1.16-.05.09.04.23.1.13.22-.38.42-.78.6-1.2.04-.11-.07-.2-.12-.1h0Z"/>
            <path class="cls-6" d="M14.57,6.4c.03.46.13.91.2,1.36.02.12.15.07.13-.05-.07-.43-.17-.87-.2-1.31,0-.12-.15-.12-.14,0h0Z"/>
            <path class="cls-6" d="M20.36,2.84c.19-.45.3-.93.4-1.44.02-.11.15-.04.13.08-.1.52-.22,1.02-.41,1.48-.04.1-.16-.02-.12-.12h0Z"/>
            <path class="cls-6" d="M19.75,1.22c-.03.46-.12.9-.25,1.32-.03.11-.16.03-.13-.08.13-.4.21-.82.25-1.27,0-.12.15-.09.14.03h0Z"/>
            <path class="cls-6" d="M17.48,1.08c-.09.4-.13.8-.11,1.22,0,.12-.13.12-.14,0-.01-.44.03-.85.12-1.27.03-.12.16-.07.13.05h0Z"/>
            <path class="cls-6" d="M16.24.95c.04.47.05.94.06,1.41,0,.12-.14.12-.14,0,0-.47-.02-.94-.06-1.41,0-.12.13-.12.14,0h0Z"/>
            <path class="cls-6" d="M15.18.98c.04.39.1.79.16,1.17.02.12-.11.17-.13.05-.06-.39-.12-.78-.16-1.17-.01-.12.12-.17.13-.05h0Z"/>
            <path class="cls-6" d="M14.25,1.18c.09.37.17.74.26,1.11.03.12-.1.17-.13.05-.09-.37-.17-.74-.26-1.11-.03-.12.1-.17.13-.05h0Z"/>
            <path class="cls-6" d="M13.36,1.26c.11.46.24.91.42,1.34.04.11-.08.2-.12.1-.18-.44-.31-.91-.43-1.38-.03-.11.1-.16.13-.05h0Z"/>
            <path class="cls-6" d="M12.53,1.51c.1.33.18.7.33,1,.05.1-.07.2-.12.09-.15-.32-.24-.7-.34-1.05-.03-.11.1-.16.13-.05h0Z"/>
            <path class="cls-6" d="M18.65,1.06c-.03.46-.13.91-.2,1.36-.02.12-.15.07-.13-.05.07-.43.17-.87.2-1.31,0-.12.15-.12.14,0h0Z"/>
            <path class="cls-6" d="M14.7,9.06c.07.34.2.75.37,1.02.06.09.16-.04.1-.13-.15-.24-.27-.63-.33-.93-.02-.12-.16-.07-.13.05h0Z"/>
          </g>
          <g>
            <path class="cls-5" d="M8.38,10.94c1.12,0,1.12,1.86.14,1.98-1.25.15-1.39-1.99-.14-1.98Z"/>
            <path class="cls-3" d="M8.61,11.08c.41,0,.41.67.05.72-.45.06-.5-.72-.05-.72Z"/>
          </g>
          <g>
            <path class="cls-5" d="M23.76,10.94c1.12,0,1.12,1.86.14,1.98-1.25.15-1.39-1.99-.14-1.98Z"/>
            <path class="cls-3" d="M23.99,11.08c.41,0,.41.67.05.72-.45.06-.5-.72-.05-.72Z"/>
          </g>
        </g>
      </g>
      <g>
        <g>
          <path class="cls-4" d="M16.69,21.37c-3.7.11-6.39-.69-8.33-1.78-2.44,4.29-4.22,10.84-1.43,17.3,1.17,2.72,3.97,4.55,6.86,5.2,2.89.65,6.02.05,8.54-1.5,1.96-1.21,3.62-3.05,4.2-5.29,1.58-6.02-.66-12.03-2.6-15.54-1.74.91-4.08,1.5-7.24,1.6Z"/>
          <g class="cls-1">
            <path class="cls-8" d="M16.21,23.84c-5.48-.06-7.72,6.07-5.96,11.97.96,3.24,3.86,4.98,7.42,4.65,2.31-.21,4.3-2.23,4.83-4.33,1.49-5.91-.8-12.23-6.29-12.29Z"/>
          </g>
        </g>
        <path class="cls-4" d="M6.94,36.89c-.56-1.3-.94-2.61-1.16-3.9-1.66,1.25-3.02,3.62-2.76,5.62-.39-.41-.8-.83-1.35-1.03-.54-.19-1.25-.08-1.54.4-.3.5-.05,1.13.27,1.62,1.17,1.8,3.22,3.05,5.41,3.27,1.97.2,4.01-.42,5.52-1.65-1.92-.93-3.57-2.41-4.4-4.34Z"/>
        <path class="cls-4" d="M32.54,37.99c-.28-.48-.96-.6-1.49-.4-.52.19-.92.62-1.3,1.03.27-2.19-.94-4.42-2.79-5.59-.09.76-.22,1.52-.42,2.28-.58,2.23-2.24,4.08-4.2,5.29-.27.17-.55.32-.83.46,1.48,1.35,3.54,2.04,5.53,1.82,2.12-.23,4.1-1.47,5.23-3.27.31-.49.55-1.12.26-1.62Z"/>
        <path class="cls-4" d="M22.88,23.23c-2.2.21-1.25,2.89-1.7,4.7-.45,1.81-.86,2.63-2.23,3.85-.64.57-1.44,1.26-1.22,2.04.16.55.81.9,1.45.93.64.03,4.55.04,6.08-5.05.88-2.92-.17-6.68-2.37-6.47Z"/>
        <path class="cls-4" d="M9.3,23.37c2.21.16,1.33,2.86,1.83,4.66.5,1.8.94,2.61,2.34,3.8.66.56,1.48,1.22,1.28,2.01-.14.55-.78.92-1.42.96-.64.04-4.54.14-6.22-4.91-.96-2.9-.02-6.68,2.19-6.52Z"/>
      </g>
    </g>
  </g>
</svg>