<?xml version="1.0" encoding="UTF-8"?>
<svg id="Layer_2" xmlns="http://www.w3.org/2000/svg" version="1.1" viewBox="0 0 22.6 42.9">
  <!-- Generator: Adobe Illustrator 29.0.0, SVG Export Plug-In . SVG Version: 2.1.0 Build 186)  -->
  <defs>
    <style>
      .st0 {
        fill: #fff;
      }

      .st1 {
        opacity: .3;
      }

      .st2 {
        fill: #edbec1;
      }

      .st3 {
        fill: #fbd3d4;
      }

      .st4 {
        fill: #1d1f21;
      }

      .st5 {
        fill: #ffdabb;
      }

      .st6 {
        fill: #ffe1e3;
      }
    </style>
  </defs>
  <g id="Layer_1-2">
    <g>
      <path class="st1" d="M7.3,42.6c2.4,0,4.4.4,7.2.3s.6,0,5.3-.5c.6,0,1.2-.1,1.7-.4.5-.2.8-.7.6-1.1-.3-.5-1.1-.5-1.8-.7-5.1-.8-9.5-1-15.5-.5-1.7.1-3.6.2-4.5,1.1,1.5,1.4,4.4,1.6,6.9,1.7h0Z"/>
      <g>
        <g>
          <path class="st0" d="M3.6,40c.4-.5,1.5-.2,1.5-.8,0-.8-.8-1.3-1.1-2.4-.2-.5-.2-1-.1-1.6,0-.5.4-1,.8-1.4.5,1.6,1.5,3.1,2.9,4,.6.4,1.2.6,1.9.8,0,.3-.1.6-.3.8-.6,1-2.3,2-4,2s-1.1,0-1.4-.4c-.3-.3-.4-.8-.1-1h0Z"/>
          <path class="st0" d="M15.1,37.5c1.2-1,2.1-2.4,2.5-4,.6.4.9.9,1.1,1.5.3,1,0,2-.6,2.7-.5.5-.9,1.3-.5,1.9.3.4,1,.5,1.1,1,.1.4-.3,1.2-1.8.9-1.2-.2-2.4-1-3-2-.2-.3-.3-.7-.4-1,.6-.2,1.1-.5,1.6-.9h0Z"/>
          <path class="st0" d="M20.7,25.7c-.8,1.3-2.1,2.2-3.7,1.9.4.9.6,1.9.7,2.8,3.9.2,4.7-3.2,4.8-3.5.5-1.4-1-2.4-1.8-1.2h0Z"/>
          <path class="st0" d="M4.4,30.9c.2-1.2.7-2.3,1.2-3.4-2.2,1.8-4,2-5,2.8-1.1.9-.7,2.2,1,2.2,1,0,1.9-.3,2.7-.7,0-.3,0-.6,0-.9Z"/>
          <g>
            <path class="st0" d="M6.6,26c1.2.4,2.6.6,4.7.6,2,0,3.6-.3,4.9-.8.8,1.5,1.4,3.1,1.5,4.8.2,2.5-.7,5.2-2.7,6.8-2.1,1.7-5.3,1.8-7.5.3-2.3-1.4-3.5-4.3-3.1-6.9.2-1.8,1.2-3.4,2.2-4.9h0Z"/>
            <path class="st6" d="M15,32c0,2.7-1.8,4.9-3.9,4.9s-3.9-2.2-3.9-4.9,1.8-4.9,3.9-4.9,3.9,2.2,3.9,4.9Z"/>
          </g>
        </g>
        <g>
          <path class="st0" d="M2,16c.4-1.1,1-2.2,1.8-3.1,1.2-1.3,2.7-2.2,4.3-2.7,2.6-.8,5.6-.6,8,.7s3.9,3.2,4.7,6.3c.6,2.3,0,4.9-1.7,6.6-1.2,1.4-3.8,2.7-7.9,2.7-4.1,0-5.8-.9-7.3-2.2-2.4-2-3-5.4-2-8.5h0Z"/>
          <g>
            <path class="st0" d="M20.3.1c-1.5-.7-2.8,1.1-3.7,3.5-.8,2.2-1.3,3.3-2,6.7.5.2,1.1.4,1.6.7.7.4,1.3.8,1.9,1.3,1.1-1.2,2.5-3.5,3-5.5.6-2.5.7-6-.8-6.7h0Z"/>
            <path class="st3" d="M16.1,11c.4.2.7.4,1,.6.6-.7,1.1-1.4,1.5-2.3.5-1.2.9-2.4,1.3-3.6.3-1.2.8-3.4.2-3.6s-1.6,1.8-2.1,2.9c-.9,1.9-1.7,3.8-2.2,5.8.1,0,.3.1.4.2h0Z"/>
          </g>
          <g>
            <path class="st0" d="M7.9,10.3C7,6.6,5,.4,2.7.1c-.5,0-.9.3-1.2.7-.3.4-.3.9-.4,1.4-.4,3.6.9,7.5,3.3,10.3,1-.9,2.2-1.7,3.6-2.1Z"/>
            <path class="st3" d="M5.2,11.7c.4-.3.9-.6,1.3-.8-.9-2.5-1.9-4.6-3.1-7-.1-.2-.9-1.9-1.4-1.6-.5.3.3,3,.4,3.5.5,1.9,1.5,4.3,2.7,5.9h0Z"/>
          </g>
          <g>
            <g>
              <path class="st5" d="M13.8,20.6c0,2.9-4.5,2.9-4.8.4-.4-3.3,4.8-3.6,4.8-.4Z"/>
              <path class="st4" d="M12.7,21c0,.4-.6.5-.9.2-.2-.1-.2-.4-.2-.6,0,0,0,0-.1,0s0,0,0,0c0,.2,0,.5-.2.6-.3.3-.9.2-.9-.2,0-.1-.2,0-.2,0,0,.5.6.6,1,.4.2-.1.4-.3.4-.5,0,.2.2.4.4.5.4.2.9,0,1-.5,0-.1-.2-.2-.2,0Z"/>
              <path class="st4" d="M12.2,19.8c-.2-.4-1.3-.4-1.5,0-.2.4.2.8.8.8.6,0,.9-.5.8-.8h0Z"/>
            </g>
            <g>
              <g>
                <path class="st3" d="M3.7,21.1c.3-1.2,2.5-.7,2.5.4-.1,1.4-2.8.9-2.5-.4Z"/>
                <g>
                  <path class="st4" d="M5.4,18.5c.9,0,.9,1.4.1,1.5-1,.1-1.1-1.5-.1-1.5Z"/>
                  <path class="st0" d="M5.6,18.6c.3,0,.3.5,0,.5-.3,0-.4-.6,0-.5Z"/>
                </g>
              </g>
              <g>
                <path class="st3" d="M19.2,21.1c-.3-1.2-2.5-.7-2.5.4.1,1.4,2.8.9,2.5-.4Z"/>
                <g>
                  <path class="st4" d="M17.4,18.5c.9,0,.9,1.4.1,1.5-1,.1-1.1-1.5-.1-1.5Z"/>
                  <path class="st0" d="M17.5,18.6c.3,0,.3.5,0,.5-.4,0-.4-.6,0-.5Z"/>
                </g>
              </g>
            </g>
            <g>
              <path class="st2" d="M9.7,12.1c0-.4-.1-.7-.2-1.1,0-.1.1-.2.2,0,.1.4.2.8.2,1.1,0,.1-.2.2-.2,0h0Z"/>
              <path class="st2" d="M13,12.5c-.1.4-.2.7-.2,1.1,0,.1-.2.1-.2,0,0-.4.1-.8.2-1.1,0-.1.2-.1.2,0h0Z"/>
              <path class="st2" d="M11.2,14.4c0-.4,0-.7,0-1.1,0-.1.2-.2.2,0,0,.4,0,.8,0,1.1s-.2.1-.2,0h0Z"/>
              <path class="st2" d="M10.5,13.7c0-.4,0-.7-.2-1,0-.1.1-.2.2,0,.1.4.2.7.2,1.1s-.2.1-.2,0h0Z"/>
              <path class="st2" d="M12.2,12.9c0,.2,0,.5,0,.7s-.2.1-.2,0c0-.3,0-.5,0-.8,0-.1.2,0,.2,0h0Z"/>
              <path class="st2" d="M10.9,12.1c0-.5,0-1-.1-1.5,0-.1.1-.2.2,0,.1.5.1,1,.1,1.6,0,.1-.2.1-.2,0h0Z"/>
              <path class="st2" d="M12,11.8c0-.5,0-1,.1-1.5,0-.1.2-.1.2,0,0,.5,0,1-.1,1.5,0,.1-.2.1-.2,0h0Z"/>
              <path class="st2" d="M11.4,12.6c0-.3,0-.6,0-.9,0-.1.2-.1.2,0,0,.3,0,.6,0,.9,0,.1-.2.1-.2,0h0Z"/>
              <path class="st2" d="M10.3,12.1c0-.2,0-.5-.1-.7,0-.1.1-.2.2,0,0,.2.1.5.1.8,0,.1-.2.1-.2,0h0Z"/>
              <path class="st2" d="M11.3,15.9c0-.2,0-.5,0-.7,0-.1.2-.2.2,0,0,.2,0,.5,0,.8,0,.1-.2.1-.2,0h0Z"/>
              <path class="st2" d="M12.5,14.1c0,.2,0,.5,0,.7s-.2.1-.2,0c0-.3,0-.5,0-.8,0-.1.2-.1.2,0h0Z"/>
              <path class="st2" d="M11.3,10.8c0-.2,0-.4,0-.6,0-.1.2-.1.2,0,0,.2,0,.4,0,.6,0,.1-.2.1-.2,0h0Z"/>
              <path class="st2" d="M9.8,13.3c0-.2,0-.4-.1-.5,0-.1.1-.2.2,0,0,.2,0,.4.1.5,0,.1-.1.2-.2,0h0Z"/>
              <path class="st2" d="M13.4,13c0-.2.1-.4.2-.5,0-.1.2,0,.2,0,0,.2-.1.4-.2.5,0,.1-.2,0-.2,0h0Z"/>
              <path class="st2" d="M13.6,11.8c0-.5.2-1,.4-1.4,0-.1-.1-.2-.2-.1-.2.5-.4,1-.4,1.5,0,.1.1.2.2,0h0Z"/>
              <path class="st2" d="M14.3,11.6c0-.2.2-.4.3-.6,0-.1,0-.2-.2-.1-.1.2-.2.4-.3.7,0,.1.1.2.2,0h0Z"/>
              <path class="st2" d="M10.6,14.4c0,.2.1.5.1.7,0,.1.2.1.2,0,0-.2,0-.5-.1-.8,0-.1-.2,0-.2,0h0Z"/>
              <path class="st2" d="M12.8,12c0-.4,0-.8.2-1.1,0-.1,0-.2-.1-.1-.2.4-.2.8-.2,1.2,0,.1.2.1.2,0h0Z"/>
              <path class="st2" d="M8.9,11.8c0,.2.1.5.2.7,0,.1.2.1.2,0,0-.3-.1-.5-.2-.8,0-.1-.2,0-.2,0h0Z"/>
              <path class="st2" d="M8.5,11.4c-.1-.5-.2-.5-.4-.9,0-.1-.2,0-.2,0,.2.5.2.4.4.9,0,.1.2,0,.2,0h0Z"/>
              <path class="st2" d="M9.1,10.9c0-.2,0-.4-.1-.6,0-.1-.2,0-.2,0,0,.2,0,.4.1.6,0,.1.2,0,.2,0h0Z"/>
              <path class="st2" d="M12,15.3v-.6c0-.1-.2-.1-.2,0v.6c0,.1.2.1.2,0h0Z"/>
              <path class="st2" d="M10.2,10.6c0-.2,0-.3,0-.5,0-.1-.2,0-.2,0s0,.3,0,.4c0,.1.2.1.2,0h0Z"/>
            </g>
          </g>
        </g>
      </g>
    </g>
  </g>
</svg>