<?xml version="1.0" encoding="UTF-8"?>
<svg id="Layer_2" xmlns="http://www.w3.org/2000/svg" version="1.1" viewBox="0 0 27 35.9">
  <!-- Generator: Adobe Illustrator 29.0.0, SVG Export Plug-In . SVG Version: 2.1.0 Build 186)  -->
  <defs>
    <style>
      .st0 {
        fill: #fff;
      }

      .st1 {
        opacity: .3;
      }

      .st2 {
        fill: #edbec1;
      }

      .st3 {
        fill: #fbd3d4;
      }

      .st4 {
        fill: #1d1f21;
      }

      .st5 {
        fill: #ffdabb;
      }

      .st6 {
        fill: #e5d7d5;
      }

      .st7 {
        fill: #fef8f7;
      }
    </style>
  </defs>
  <g id="Layer_1-2">
    <g>
      <path class="st1" d="M16,31.9c-2.4-.1-7.8-.4-12.4.3-.6,0-1.2.2-1.7.5-.5.3-.9.9-.6,1.4,1.3,2,11.2,2.1,17.1,1.5,1.6-.2,4.1-.4,4.3-1.8.1-1.5-4.2-1.7-6.7-1.8Z"/>
      <g>
        <g>
          <path class="st0" d="M26,16c-.4-1.1-1-2.2-1.8-3.1-1.1-1.3-2.7-2.2-4.3-2.7-2.6-.8-5.6-.6-8,.7-2.4,1.3-3.9,3.2-4.7,6.3-.6,2.3,0,4.9,1.7,6.6,1.2,1.4,3.8,2.7,7.9,2.7,4.1,0,5.8-.9,7.3-2.2,2.4-2,3-5.4,2-8.5h0Z"/>
          <g>
            <path class="st0" d="M7.8.1c1.5-.7,2.8,1.1,3.7,3.5.8,2.2,1.3,3.3,2,6.7-.5.2-1.1.4-1.6.7-.7.4-1.3.8-1.9,1.3-1.1-1.2-2.5-3.5-3-5.5-.6-2.5-.7-6,.8-6.7h0Z"/>
            <path class="st3" d="M11.9,11c-.4.2-.7.4-1,.6-.6-.7-1.1-1.4-1.5-2.3-.6-1.2-.9-2.4-1.3-3.6-.3-1.2-.8-3.4-.2-3.6s1.6,1.8,2.2,2.9c.9,1.9,1.7,3.8,2.2,5.8-.1,0-.3.1-.4.2h0Z"/>
          </g>
          <g>
            <path class="st0" d="M20.1,10.3C21,6.6,23.1.4,25.4.1c.5,0,.9.3,1.2.7.2.4.3.9.4,1.4.4,3.6-.9,7.5-3.3,10.3-1-.9-2.2-1.7-3.6-2.1h0Z"/>
            <path class="st3" d="M22.8,11.7c-.4-.3-.9-.6-1.3-.8.9-2.5,1.9-4.6,3.1-7,.1-.2.9-1.9,1.4-1.6.5.3-.3,3-.4,3.5-.5,1.9-1.5,4.3-2.7,5.9h0Z"/>
          </g>
          <g>
            <g>
              <path class="st5" d="M14.2,20.6c0,2.9,4.5,2.9,4.8.4.4-3.3-4.8-3.6-4.8-.4Z"/>
              <path class="st4" d="M15.4,21c0,.4.6.5.9.2.2-.1.2-.4.2-.6,0,0,0,0,.1,0s0,0,0,0c0,.2,0,.5.2.6.3.3.9.2.9-.2,0-.1.2,0,.2,0,0,.5-.6.6-1,.4-.2-.1-.4-.3-.5-.5,0,.2-.2.4-.4.5-.4.2-.9,0-1-.5,0-.1.2-.2.2,0Z"/>
              <path class="st4" d="M15.9,19.8c.2-.4,1.3-.4,1.5,0s-.2.8-.8.8c-.6,0-.9-.5-.8-.8h0Z"/>
            </g>
            <g>
              <g>
                <path class="st3" d="M24.4,21.1c-.3-1.2-2.5-.7-2.5.4.1,1.4,2.8.9,2.5-.4Z"/>
                <g>
                  <path class="st4" d="M22.6,18.5c-.9,0-.9,1.4-.1,1.5,1,.1,1.1-1.5.1-1.5Z"/>
                  <path class="st0" d="M22.4,18.6c-.3,0-.3.5,0,.5.4,0,.4-.6,0-.5Z"/>
                </g>
              </g>
              <g>
                <path class="st3" d="M8.9,21.1c.3-1.2,2.5-.7,2.4.4-.1,1.4-2.8.9-2.4-.4Z"/>
                <g>
                  <path class="st4" d="M10.7,18.5c-.9,0-.9,1.4-.1,1.5,1,.1,1.1-1.5.1-1.5Z"/>
                  <path class="st0" d="M10.5,18.6c-.3,0-.3.5,0,.5.4,0,.4-.6,0-.5Z"/>
                </g>
              </g>
            </g>
            <g>
              <path class="st2" d="M18.3,12.1c0-.4.1-.7.2-1.1,0-.1-.1-.2-.2,0-.1.4-.2.8-.2,1.1,0,.1.2.2.2,0h0Z"/>
              <path class="st2" d="M15.1,12.5c.1.4.2.7.2,1.1,0,.1.2.1.2,0,0-.4-.1-.8-.2-1.1,0-.1-.2-.1-.2,0h0Z"/>
              <path class="st2" d="M16.8,14.4c0-.4,0-.7,0-1.1,0-.1-.2-.2-.2,0,0,.4,0,.8,0,1.1s.2.1.2,0h0Z"/>
              <path class="st2" d="M17.5,13.7c0-.4,0-.7.2-1,0-.1-.1-.2-.2,0-.1.4-.2.7-.2,1.1s.2.1.2,0h0Z"/>
              <path class="st2" d="M15.8,12.9c0,.2,0,.5,0,.7s.2.1.2,0c0-.3,0-.5,0-.8,0-.1-.2,0-.2,0h0Z"/>
              <path class="st2" d="M17.2,12.1c0-.5,0-1,.1-1.5,0-.1-.1-.2-.2,0-.1.5-.1,1-.1,1.6,0,.1.2.1.2,0h0Z"/>
              <path class="st2" d="M16,11.8c0-.5,0-1-.1-1.5,0-.1-.2-.1-.2,0,0,.5,0,1,.1,1.5,0,.1.2.1.2,0h0Z"/>
              <path class="st2" d="M16.6,12.6c0-.3,0-.6,0-.9,0-.1-.2-.1-.2,0,0,.3,0,.6,0,.9,0,.1.2.1.2,0h0Z"/>
              <path class="st2" d="M17.8,12.1c0-.2,0-.5.1-.7,0-.1-.1-.2-.2,0,0,.2-.1.5-.1.8,0,.1.2.1.2,0h0Z"/>
              <path class="st2" d="M16.7,15.9c0-.2,0-.5,0-.7,0-.1-.2-.2-.2,0,0,.2,0,.5,0,.8,0,.1.2.1.2,0h0Z"/>
              <path class="st2" d="M15.5,14.1c0,.2,0,.5,0,.7s.2.1.2,0c0-.3,0-.5,0-.8,0-.1-.2-.1-.2,0h0Z"/>
              <path class="st2" d="M16.7,10.8c0-.2,0-.4,0-.6,0-.1-.2-.1-.2,0,0,.2,0,.4,0,.6,0,.1.2.1.2,0h0Z"/>
              <path class="st2" d="M18.2,13.3c0-.2,0-.4.1-.5,0-.1-.1-.2-.2,0,0,.2,0,.4-.1.5,0,.1.1.2.2,0h0Z"/>
              <path class="st2" d="M14.7,13c0-.2-.1-.4-.2-.5,0-.1-.2,0-.2,0,0,.2.1.4.2.5,0,.1.2,0,.2,0h0Z"/>
              <path class="st2" d="M14.5,11.8c0-.5-.2-1-.4-1.4,0-.1.1-.2.2-.1.2.5.4,1,.4,1.5,0,.1-.1.2-.2,0h0Z"/>
              <path class="st2" d="M13.7,11.6c0-.2-.2-.4-.3-.6,0-.1,0-.2.2-.1.1.2.2.4.3.7,0,.1-.1.2-.2,0h0Z"/>
              <path class="st2" d="M17.4,14.4c0,.2-.1.5-.1.7,0,.1-.2.1-.2,0,0-.2,0-.5.1-.8,0-.1.2,0,.2,0h0Z"/>
              <path class="st2" d="M15.3,12c0-.4,0-.8-.2-1.1,0-.1,0-.2.1-.1.2.4.2.8.2,1.2,0,.1-.2.1-.2,0h0Z"/>
              <path class="st2" d="M19.1,11.8c0,.2-.1.5-.2.7,0,.1-.2.1-.2,0,0-.3.1-.5.2-.8,0-.1.2,0,.2,0h0Z"/>
              <path class="st2" d="M19.5,11.4c.1-.5.2-.5.4-.9,0-.1.2,0,.2,0-.2.5-.2.4-.4.9,0,.1-.2,0-.2,0h0Z"/>
              <path class="st2" d="M19,10.9c0-.2,0-.4.1-.6,0-.1.2,0,.2,0,0,.2,0,.4-.1.6,0,.1-.2,0-.2,0h0Z"/>
              <path class="st2" d="M16.1,15.3v-.6c0-.1.2-.1.2,0v.6c0,.1-.2.1-.2,0h0Z"/>
              <path class="st2" d="M17.8,10.6c0-.2,0-.3,0-.5,0-.1.2,0,.2,0s0,.3,0,.4-.2.1-.2,0h0Z"/>
            </g>
          </g>
        </g>
        <g>
          <path class="st6" d="M11.9,33.2c-.4-.4-1.4-.2-1.4-.8,0-.7.8-1.1,1-2.1,1-3.6-2.9-4.7-4.2-2.9-1.1,1.4-1.1,4-.5,5.4.4.9,2.1,1.8,3.6,1.8.4,0,1,0,1.3-.3s.3-.7.1-1h0Z"/>
          <path class="st7" d="M2.9,23.4c.8-1.3,2.7-2.2,4.3-2.5.3,1.1.9,2.2,1.7,3.1,1.2,1.4,3.8,2.7,7.9,2.7,1.5,0,2.7-.1,3.6-.3-.5,6.2-5.5,6.3-10.3,6.4-2.3,0-5.3-.7-6.8-2.5-1.5-1.9-1.7-4.7-.5-6.8h0Z"/>
          <path class="st7" d="M7.6,28.9c.3,1.2,0,2.2-.5,2.8-.4.5-.8,1.2-.5,1.7.3.4.9.5,1,.9.1.3-.2,1.1-1.6.8-1.1-.2-2.2-.9-2.7-1.8-1.3-2.6-1-6.2,1.9-6.3,1.4,0,2.2,1,2.4,1.9h0Z"/>
          <path class="st7" d="M15.6,29.3c.6,2.1,1.8,3.1,2.2,4.1.5,1-.4,1.9-1.7,1.4-1.8-.8-2.9-3.1-3.2-4.2-.6-2.1,2.2-2.7,2.7-1.2h0Z"/>
          <path class="st7" d="M18.2,28c1,1.9,2.2,3.1,2.6,4.1.5,1-.5,2-1.7,1.4-1.8-1-2.9-2.8-3.5-4.1-.7-1.6,1.9-2.6,2.6-1.4Z"/>
          <path class="st0" d="M13.7,27.9c.1-.1.3-1.1.7-1.5.7.1,1.5.2,2.4.2,1.6,0,2.9-.1,3.9-.4.1.4.1.7,0,1.1,0,0-.1-.2-.2-.3,0,.7,0,1.1,0,1.7-.2,0-.3-.2-.3-.3,0,.6-.5,1.2-.6,1.7,0,0-.1-.1-.2-.3-.4.8-.7,1.1-1.2,1.6,0,0-.1-.2-.1-.3-.4.5-1.1.9-1.6,1,0,0-.1-.1,0-.3-.2.2-.9.5-1.3.5-.2-.6-.7-.8-.7-1.5,0,.1-.2.4-.3.3-.1-.4-.3-1.5-.1-1.8-.1.1-.3.2-.4.1.1-.7.2-1.2.6-1.8-.1.2-.3.3-.5.2h0Z"/>
          <path class="st7" d="M.1,22.1c.5-1.5,3-1.9,4,0-.5.4-.9.8-1.2,1.2-.3.5-.5,1-.7,1.6-1.7-.2-2.6-1.5-2.2-2.9Z"/>
        </g>
      </g>
    </g>
  </g>
</svg>