<?xml version="1.0" encoding="UTF-8"?>
<svg id="Layer_2" data-name="Layer 2" xmlns="http://www.w3.org/2000/svg" viewBox="0 0 22.6 42.89">
  <defs>
    <style>
      .cls-1 {
        fill: #fff;
      }

      .cls-2 {
        fill: #edbec1;
      }

      .cls-3 {
        fill: #fbd3d4;
      }

      .cls-4 {
        fill: #1d1f21;
      }

      .cls-5 {
        fill: #ffdabb;
      }

      .cls-6 {
        fill: #c0cece;
      }

      .cls-7 {
        fill: #ffe1e3;
      }
    </style>
  </defs>
  <g id="Layer_1-2" data-name="Layer 1">
    <g>
      <path class="cls-6" d="M7.26,42.58c2.4.09,4.42.39,7.21.28s.64,0,5.29-.5c.61-.07,1.23-.14,1.74-.37.5-.24.84-.69.62-1.07-.26-.45-1.09-.53-1.79-.65-5.05-.85-9.5-.98-15.5-.49-1.67.13-3.64.16-4.49,1.13,1.53,1.36,4.4,1.57,6.93,1.67Z"/>
      <g>
        <g>
          <path class="cls-1" d="M3.62,39.97c.39-.45,1.51-.25,1.49-.84-.03-.8-.77-1.28-1.14-2.36-.17-.5-.23-1.05-.14-1.58.09-.55.42-1.03.79-1.4.47,1.63,1.49,3.1,2.93,4.01.58.37,1.22.63,1.89.79-.06.31-.14.6-.29.85-.55.97-2.33,1.95-4.02,1.95-.39,0-1.13-.1-1.4-.38-.27-.27-.36-.76-.11-1.05Z"/>
          <path class="cls-1" d="M15.07,37.45c1.25-.99,2.07-2.42,2.45-3.98.6.36.9.94,1.11,1.54.33.95.05,2-.58,2.67-.47.5-.94,1.32-.53,1.87.29.39.96.5,1.13.95.14.37-.26,1.17-1.79.88-1.18-.22-2.4-1-2.99-1.97-.2-.32-.33-.68-.44-1.04.59-.22,1.15-.52,1.64-.91Z"/>
          <path class="cls-1" d="M20.7,25.69c-.8,1.27-2.14,2.21-3.68,1.9.35.91.59,1.86.69,2.84,3.9.2,4.68-3.19,4.8-3.55.48-1.38-1.04-2.41-1.81-1.18Z"/>
          <path class="cls-1" d="M4.39,30.88c.17-1.21.65-2.34,1.25-3.41-2.18,1.8-4.03,2.02-5.03,2.8-1.09.85-.72,2.24,1,2.18.95-.04,1.93-.29,2.72-.71,0-.29.02-.57.06-.86Z"/>
          <g>
            <path class="cls-1" d="M6.56,25.99c1.15.41,2.63.65,4.73.64,2,0,3.63-.33,4.93-.82.81,1.5,1.39,3.12,1.53,4.81.21,2.54-.67,5.25-2.67,6.82-2.1,1.66-5.26,1.77-7.53.35-2.27-1.43-3.52-4.27-3.14-6.92.25-1.78,1.16-3.38,2.16-4.89Z"/>
            <path class="cls-7" d="M15.01,32.03c0,2.69-1.76,4.87-3.93,4.87s-3.93-2.18-3.93-4.87,1.76-4.87,3.93-4.87,3.93,2.18,3.93,4.87Z"/>
          </g>
        </g>
        <g>
          <path class="cls-1" d="M2.02,16.02c.4-1.14,1.03-2.19,1.84-3.08,1.15-1.26,2.66-2.18,4.29-2.68,2.58-.78,5.65-.59,8.01.71,2.36,1.3,3.9,3.15,4.71,6.29.6,2.33-.07,4.87-1.68,6.65-1.25,1.38-3.81,2.69-7.89,2.71-4.08.02-5.83-.91-7.32-2.16-2.43-2.05-3-5.44-1.95-8.45Z"/>
          <g>
            <path class="cls-1" d="M20.27.14c-1.55-.67-2.82,1.13-3.67,3.49-.8,2.2-1.29,3.28-2.01,6.68.54.18,1.07.4,1.56.67.71.39,1.34.83,1.9,1.34,1.1-1.25,2.54-3.49,3.04-5.46.63-2.51.72-6.03-.83-6.71Z"/>
            <path class="cls-3" d="M16.15,10.98c.35.2.69.4,1.01.63.61-.68,1.11-1.45,1.5-2.28.55-1.16.92-2.4,1.28-3.64.34-1.19.76-3.36.18-3.62-.58-.26-1.62,1.78-2.15,2.87-.91,1.87-1.7,3.81-2.24,5.82.14.07.29.14.43.22Z"/>
          </g>
          <g>
            <path class="cls-1" d="M7.92,10.34C7.02,6.55,4.98.42,2.69.1c-.48-.07-.94.26-1.19.67-.26.41-.34.9-.4,1.37-.42,3.58.89,7.52,3.26,10.29,1.01-.95,2.24-1.66,3.56-2.09Z"/>
            <path class="cls-3" d="M5.22,11.72c.42-.31.87-.58,1.34-.82-.88-2.46-1.94-4.55-3.14-7.01-.12-.25-.89-1.94-1.36-1.64-.48.3.27,2.99.42,3.51.54,1.86,1.51,4.28,2.74,5.95Z"/>
          </g>
          <g>
            <g>
              <path class="cls-5" d="M13.83,20.57c-.01,2.92-4.47,2.93-4.76.36-.37-3.26,4.77-3.62,4.76-.36Z"/>
              <path class="cls-4" d="M12.7,21c-.09.41-.6.5-.89.22-.16-.15-.24-.4-.24-.63-.04,0-.09.01-.13.01-.03,0-.06,0-.09-.01-.03.23-.08.46-.25.63-.26.26-.85.25-.92-.18-.02-.13-.22-.07-.2.05.07.46.65.61,1.02.44.23-.11.37-.3.45-.52.08.21.22.4.42.49.42.2.93.02,1.03-.45.03-.13-.17-.18-.2-.05Z"/>
              <path class="cls-4" d="M12.2,19.76c-.19-.35-1.31-.4-1.52,0-.21.41.2.82.76.83.58.01.95-.49.76-.84Z"/>
            </g>
            <g>
              <g>
                <path class="cls-3" d="M3.7,21.15c.27-1.17,2.53-.66,2.45.4-.11,1.35-2.75.9-2.45-.4Z"/>
                <g>
                  <path class="cls-4" d="M5.43,18.46c.87,0,.87,1.44.11,1.54-.97.12-1.08-1.54-.11-1.54Z"/>
                  <path class="cls-1" d="M5.61,18.57c.31,0,.31.52.04.55-.35.04-.39-.56-.04-.55Z"/>
                </g>
              </g>
              <g>
                <path class="cls-3" d="M19.17,21.15c-.27-1.17-2.53-.66-2.45.4.11,1.35,2.75.9,2.45-.4Z"/>
                <g>
                  <path class="cls-4" d="M17.36,18.46c.87,0,.87,1.44.11,1.54-.97.12-1.08-1.54-.11-1.54Z"/>
                  <path class="cls-1" d="M17.54,18.57c.31,0,.31.52.04.55-.35.04-.39-.56-.04-.55Z"/>
                </g>
              </g>
            </g>
            <g>
              <path class="cls-2" d="M9.72,12.05c-.04-.38-.11-.74-.22-1.09-.04-.13.13-.22.17-.09.12.37.19.75.24,1.14.02.14-.16.17-.18.03h0Z"/>
              <path class="cls-2" d="M13,12.53c-.11.36-.19.72-.22,1.09-.01.14-.2.15-.19.02.04-.39.12-.77.23-1.15.04-.14.22-.1.18.04h0Z"/>
              <path class="cls-2" d="M11.22,14.38c0-.37-.02-.73-.08-1.09-.02-.14.16-.18.18-.04.06.38.08.76.08,1.15,0,.14-.18.13-.18-.02h0Z"/>
              <path class="cls-2" d="M10.52,13.67c0-.35-.06-.67-.17-.99-.04-.13.12-.23.17-.09.12.35.18.71.18,1.1,0,.14-.18.12-.18-.02h0Z"/>
              <path class="cls-2" d="M12.24,12.89c-.04.24-.07.47-.07.72,0,.14-.18.15-.18.01,0-.26.03-.51.07-.77.03-.14.2-.09.18.05h0Z"/>
              <path class="cls-2" d="M10.86,12.15c.02-.51-.01-1.01-.11-1.51-.03-.14.15-.2.17-.06.1.51.14,1.03.12,1.56,0,.14-.19.15-.18,0h0Z"/>
              <path class="cls-2" d="M12.03,11.78c.02-.51.05-1.02.1-1.53.01-.14.19-.11.18.03-.05.51-.09,1.02-.1,1.52,0,.14-.18.11-.18-.03h0Z"/>
              <path class="cls-2" d="M11.45,12.65c.01-.31.02-.63.03-.94,0-.14.19-.15.18-.01-.01.31-.02.63-.03.94,0,.14-.19.15-.18.01h0Z"/>
              <path class="cls-2" d="M10.29,12.05c-.02-.24-.07-.46-.14-.69-.04-.13.13-.2.17-.07.07.24.12.49.15.75.01.14-.17.15-.18.01h0Z"/>
              <path class="cls-2" d="M11.32,15.93c.02-.24,0-.47-.02-.7-.02-.14.16-.18.18-.04.03.25.04.5.02.76-.01.14-.19.12-.18-.02h0Z"/>
              <path class="cls-2" d="M12.54,14.15c-.05.24-.07.47-.07.7,0,.14-.18.15-.19.01,0-.26.02-.5.07-.76.03-.14.2-.1.18.04h0Z"/>
              <path class="cls-2" d="M11.31,10.78c0-.19.02-.37.03-.56,0-.14.19-.13.18.02,0,.19-.02.37-.03.56,0,.14-.19.13-.18-.02h0Z"/>
              <path class="cls-2" d="M9.83,13.32c-.04-.18-.08-.36-.12-.54-.03-.14.15-.19.18-.05.04.18.08.36.12.54.03.14-.15.19-.18.05h0Z"/>
              <path class="cls-2" d="M13.36,13c.05-.18.1-.36.16-.54.04-.14.21-.08.17.06-.05.18-.1.36-.16.54-.04.14-.21.08-.17-.06h0Z"/>
              <path class="cls-2" d="M13.55,11.84c.08-.51.22-.99.42-1.45.06-.13-.1-.23-.16-.1-.21.48-.35.98-.44,1.5-.02.14.15.19.18.05h0Z"/>
              <path class="cls-2" d="M14.31,11.56c.07-.23.16-.44.28-.65.07-.12-.09-.22-.16-.1-.12.22-.22.45-.3.7-.04.14.13.18.18.05h0Z"/>
              <path class="cls-2" d="M10.64,14.37c.07.23.11.46.12.69.01.14.2.14.19,0-.02-.25-.06-.5-.14-.75-.04-.14-.21-.08-.17.06h0Z"/>
              <path class="cls-2" d="M12.79,11.99c.05-.36.08-.78.22-1.11.06-.13-.09-.24-.15-.11-.16.36-.2.82-.25,1.22-.02.14.16.15.18,0h0Z"/>
              <path class="cls-2" d="M8.94,11.83c.08.23.14.46.18.7.02.14.2.12.18-.02-.04-.26-.11-.5-.19-.75-.05-.13-.21-.06-.17.07h0Z"/>
              <path class="cls-2" d="M8.54,11.39c-.15-.49-.18-.46-.36-.94-.05-.13-.22-.06-.17.07.18.48.21.45.36.94.04.14.21.06.17-.07h0Z"/>
              <path class="cls-2" d="M9.11,10.9c-.04-.18-.08-.36-.12-.55-.03-.14-.21-.09-.18.04.04.18.08.36.12.55.03.14.21.09.18-.04h0Z"/>
              <path class="cls-2" d="M11.98,15.26c0-.19,0-.37,0-.56,0-.14-.18-.13-.18,0,0,.19,0,.37,0,.56,0,.14.18.13.18,0h0Z"/>
              <path class="cls-2" d="M10.22,10.64c-.03-.16-.06-.32-.09-.49-.03-.14-.2-.08-.17.06.03.14.06.29.08.43.02.14.21.14.18,0h0Z"/>
            </g>
          </g>
        </g>
      </g>
    </g>
  </g>
</svg>