<?xml version="1.0" encoding="UTF-8"?>
<svg id="Layer_2" data-name="Layer 2" xmlns="http://www.w3.org/2000/svg" viewBox="0 0 27.03 35.91">
  <defs>
    <style>
      .cls-1 {
        fill: #fff;
      }

      .cls-2 {
        fill: #edbec1;
      }

      .cls-3 {
        fill: #fbd3d4;
      }

      .cls-4 {
        fill: #1d1f21;
      }

      .cls-5 {
        fill: #ffdabb;
      }

      .cls-6 {
        fill: #e5d7d5;
      }

      .cls-7 {
        fill: #fef8f7;
      }

      .cls-8 {
        fill: #c0cece;
      }
    </style>
  </defs>
  <g id="Layer_1-2" data-name="Layer 1">
    <g>
      <path class="cls-8" d="M15.97,31.91c-2.38-.12-7.77-.37-12.38.28-.6.08-1.22.18-1.72.48-.5.31-.9.93-.61,1.4,1.27,2.04,11.19,2.12,17.12,1.49,1.65-.18,4.11-.37,4.26-1.83.15-1.45-4.16-1.69-6.67-1.82Z"/>
      <g>
        <g>
          <path class="cls-1" d="M26.04,16.02c-.4-1.14-1.03-2.19-1.84-3.08-1.15-1.26-2.66-2.18-4.29-2.68-2.58-.78-5.65-.59-8.01.71-2.36,1.3-3.9,3.15-4.71,6.29-.6,2.33.07,4.87,1.68,6.65,1.25,1.38,3.81,2.69,7.89,2.71,4.08.02,5.83-.91,7.32-2.16,2.43-2.05,3-5.44,1.95-8.45Z"/>
          <g>
            <path class="cls-1" d="M7.78.14c1.55-.67,2.82,1.13,3.67,3.49.8,2.2,1.29,3.28,2.01,6.68-.54.18-1.07.4-1.56.67-.71.39-1.34.83-1.9,1.34-1.1-1.25-2.54-3.49-3.04-5.46-.63-2.51-.72-6.03.83-6.71Z"/>
            <path class="cls-3" d="M11.9,10.98c-.35.2-.69.4-1.01.63-.61-.68-1.11-1.45-1.5-2.28-.55-1.16-.92-2.4-1.28-3.64-.34-1.19-.76-3.36-.18-3.62.58-.26,1.62,1.78,2.15,2.87.91,1.87,1.7,3.81,2.24,5.82-.14.07-.29.14-.43.22Z"/>
          </g>
          <g>
            <path class="cls-1" d="M20.14,10.34C21.04,6.55,23.07.42,25.36.1c.48-.07.94.26,1.19.67s.34.9.4,1.37c.42,3.58-.89,7.52-3.26,10.29-1.01-.95-2.24-1.66-3.56-2.09Z"/>
            <path class="cls-3" d="M22.83,11.72c-.42-.31-.87-.58-1.34-.82.88-2.46,1.94-4.55,3.14-7.01.12-.25.88-1.94,1.36-1.64.48.3-.27,2.99-.42,3.51-.54,1.86-1.51,4.28-2.74,5.95Z"/>
          </g>
          <g>
            <g>
              <path class="cls-5" d="M14.23,20.57c.01,2.92,4.47,2.93,4.76.36.37-3.26-4.77-3.62-4.76-.36Z"/>
              <path class="cls-4" d="M15.35,21c.09.41.6.5.89.22.16-.15.24-.4.24-.63.04,0,.09.01.13.01.03,0,.06,0,.09-.01.03.23.08.46.25.63.26.26.85.25.92-.18.02-.13.22-.07.2.05-.07.46-.65.61-1.02.44-.23-.11-.37-.3-.45-.52-.08.21-.22.4-.42.49-.42.2-.93.02-1.03-.45-.03-.13.17-.18.2-.05Z"/>
              <path class="cls-4" d="M15.86,19.76c.19-.35,1.31-.4,1.52,0s-.2.82-.76.83c-.58.01-.95-.49-.76-.84Z"/>
            </g>
            <g>
              <g>
                <path class="cls-3" d="M24.36,21.15c-.27-1.17-2.53-.66-2.45.4.11,1.35,2.75.9,2.45-.4Z"/>
                <g>
                  <path class="cls-4" d="M22.62,18.46c-.87,0-.87,1.44-.11,1.54.97.12,1.08-1.54.11-1.54Z"/>
                  <path class="cls-1" d="M22.44,18.57c-.31,0-.31.52-.04.55.35.04.39-.56.04-.55Z"/>
                </g>
              </g>
              <g>
                <path class="cls-3" d="M8.88,21.15c.27-1.17,2.53-.66,2.45.4-.11,1.35-2.75.9-2.45-.4Z"/>
                <g>
                  <path class="cls-4" d="M10.7,18.46c-.87,0-.87,1.44-.11,1.54.97.12,1.08-1.54.11-1.54Z"/>
                  <path class="cls-1" d="M10.52,18.57c-.31,0-.31.52-.04.55.35.04.39-.56.04-.55Z"/>
                </g>
              </g>
            </g>
            <g>
              <path class="cls-2" d="M18.34,12.05c.04-.38.11-.74.22-1.09.04-.13-.13-.22-.17-.09-.12.37-.19.75-.24,1.14-.02.14.16.17.18.03h0Z"/>
              <path class="cls-2" d="M15.06,12.53c.11.36.19.72.22,1.09.01.14.2.15.19.02-.04-.39-.12-.77-.23-1.15-.04-.14-.22-.1-.18.04h0Z"/>
              <path class="cls-2" d="M16.84,14.38c0-.37.02-.73.08-1.09.02-.14-.16-.18-.18-.04-.06.38-.08.76-.08,1.15,0,.14.18.13.18-.02h0Z"/>
              <path class="cls-2" d="M17.54,13.67c0-.35.06-.67.17-.99.04-.13-.12-.22-.17-.09-.12.35-.18.71-.18,1.1,0,.14.18.12.18-.02h0Z"/>
              <path class="cls-2" d="M15.82,12.89c.04.24.07.47.07.72,0,.14.18.15.18.01,0-.26-.03-.51-.07-.77-.03-.14-.2-.09-.18.05h0Z"/>
              <path class="cls-2" d="M17.19,12.15c-.02-.51.01-1.01.11-1.51.03-.14-.15-.2-.17-.06-.1.51-.14,1.03-.12,1.56,0,.14.19.15.18,0h0Z"/>
              <path class="cls-2" d="M16.03,11.78c-.02-.51-.05-1.02-.1-1.53-.01-.14-.19-.11-.18.03.05.51.09,1.02.1,1.52,0,.14.18.11.18-.03h0Z"/>
              <path class="cls-2" d="M16.6,12.65c-.01-.31-.02-.63-.03-.94,0-.14-.19-.15-.18-.01.01.31.02.63.03.94,0,.14.19.15.18.01h0Z"/>
              <path class="cls-2" d="M17.76,12.05c.02-.24.07-.46.14-.69.04-.13-.13-.2-.17-.07-.07.24-.12.49-.15.75-.01.14.17.15.18.01h0Z"/>
              <path class="cls-2" d="M16.73,15.93c-.02-.24,0-.47.02-.7.02-.14-.16-.18-.18-.04-.03.25-.04.5-.02.76.01.14.19.12.18-.02h0Z"/>
              <path class="cls-2" d="M15.52,14.15c.05.24.07.47.07.7,0,.14.18.15.19.01,0-.26-.02-.5-.07-.76-.03-.14-.2-.1-.18.04h0Z"/>
              <path class="cls-2" d="M16.74,10.78c0-.19-.02-.37-.03-.56,0-.14-.19-.13-.18.02,0,.19.02.37.03.56,0,.14.19.13.18-.02h0Z"/>
              <path class="cls-2" d="M18.22,13.32c.04-.18.08-.36.12-.54.03-.14-.15-.19-.18-.05-.04.18-.08.36-.12.54-.03.14.15.19.18.05h0Z"/>
              <path class="cls-2" d="M14.69,13c-.05-.18-.1-.36-.16-.54-.04-.14-.21-.08-.17.06.05.18.1.36.16.54.04.14.21.08.17-.06h0Z"/>
              <path class="cls-2" d="M14.51,11.84c-.08-.51-.22-.99-.42-1.45-.06-.13.1-.23.16-.1.21.48.35.98.44,1.5.02.14-.15.19-.18.05h0Z"/>
              <path class="cls-2" d="M13.74,11.56c-.07-.23-.16-.44-.28-.65-.07-.12.09-.22.16-.1.12.22.22.45.3.7.04.14-.13.18-.18.05h0Z"/>
              <path class="cls-2" d="M17.41,14.37c-.07.23-.11.46-.12.69-.01.14-.2.14-.19,0,.02-.25.06-.5.14-.75.04-.14.21-.08.17.06h0Z"/>
              <path class="cls-2" d="M15.26,11.99c-.05-.36-.08-.78-.22-1.11-.06-.13.09-.24.15-.11.16.36.2.82.25,1.22.02.14-.16.15-.18,0h0Z"/>
              <path class="cls-2" d="M19.12,11.83c-.08.23-.14.46-.18.7-.02.14-.2.12-.18-.02.04-.26.11-.5.19-.75.05-.13.21-.06.17.07h0Z"/>
              <path class="cls-2" d="M19.51,11.39c.15-.49.18-.46.36-.94.05-.13.22-.06.17.07-.18.48-.21.45-.36.94-.04.14-.21.06-.17-.07h0Z"/>
              <path class="cls-2" d="M18.95,10.9c.04-.18.08-.36.12-.55.03-.14.21-.09.18.04-.04.18-.08.36-.12.55-.03.14-.21.09-.18-.04h0Z"/>
              <path class="cls-2" d="M16.07,15.26c0-.19,0-.37,0-.56,0-.14.18-.13.18,0,0,.19,0,.37,0,.56,0,.14-.18.13-.18,0h0Z"/>
              <path class="cls-2" d="M17.84,10.64c.03-.16.06-.32.09-.49.03-.14.2-.08.17.06-.03.14-.06.29-.08.43-.02.14-.21.14-.18,0h0Z"/>
            </g>
          </g>
        </g>
        <g>
          <path class="cls-6" d="M11.85,33.25c-.36-.4-1.36-.23-1.35-.76.02-.73.77-1.14,1.03-2.13.96-3.61-2.91-4.66-4.22-2.94-1.06,1.4-1.11,3.97-.47,5.36.42.92,2.11,1.76,3.64,1.77.35,0,1.02-.09,1.27-.34.25-.25.33-.69.1-.95Z"/>
          <path class="cls-7" d="M2.93,23.35c.79-1.32,2.72-2.18,4.29-2.53.3,1.14.86,2.21,1.66,3.1,1.25,1.38,3.81,2.69,7.89,2.71,1.49,0,2.67-.11,3.64-.33-.52,6.16-5.47,6.34-10.29,6.36-2.3,0-5.28-.71-6.75-2.49-1.54-1.87-1.7-4.73-.45-6.81Z"/>
          <path class="cls-7" d="M7.59,28.91c.29,1.19.08,2.23-.5,2.84-.43.45-.85,1.19-.48,1.69.27.36.87.45,1.02.86.13.33-.24,1.06-1.62.8-1.07-.2-2.25-.86-2.71-1.79-1.32-2.64-1.04-6.23,1.9-6.26,1.42-.02,2.18,1,2.38,1.87Z"/>
          <path class="cls-7" d="M15.57,29.3c.65,2.07,1.78,3.12,2.23,4.08.45.95-.42,1.93-1.68,1.36-1.78-.81-2.94-3.14-3.22-4.24-.55-2.15,2.21-2.69,2.68-1.2Z"/>
          <path class="cls-7" d="M18.21,27.97c.98,1.87,2.19,3.14,2.64,4.09.45.95-.53,1.99-1.68,1.36-1.83-1-2.94-2.76-3.52-4.09-.69-1.6,1.89-2.63,2.56-1.36Z"/>
          <path class="cls-1" d="M13.69,27.93c.13-.11.3-1.06.73-1.49.72.11,1.5.18,2.35.18,1.64,0,2.9-.14,3.92-.4.12.39.14.74,0,1.13-.08-.08-.13-.2-.16-.26.08.69-.02,1.12-.09,1.66-.19-.03-.28-.18-.31-.34,0,.61-.48,1.16-.63,1.67-.07-.03-.15-.13-.17-.28-.38.78-.67,1.12-1.24,1.62-.06-.06-.15-.19-.14-.33-.37.52-1.07.94-1.59,1.04-.01-.04-.1-.14.05-.31-.19.19-.91.49-1.34.51-.17-.63-.71-.75-.73-1.51-.08.14-.25.39-.28.3-.11-.39-.33-1.45-.13-1.77-.14.13-.29.2-.37.15.14-.67.24-1.21.63-1.76-.14.16-.33.28-.49.16Z"/>
          <path class="cls-7" d="M.11,22.07c.47-1.5,3-1.89,4.01.07-.49.35-.91.75-1.19,1.21-.3.5-.51,1.04-.65,1.6-1.69-.2-2.61-1.47-2.17-2.88Z"/>
        </g>
      </g>
    </g>
  </g>
</svg>