<?xml version="1.0" encoding="UTF-8"?>
<svg id="Layer_2" data-name="Layer 2" xmlns="http://www.w3.org/2000/svg" viewBox="0 0 25.94 46.42">
  <defs>
    <style>
      .cls-1 {
        fill: #c67f2b;
      }

      .cls-2 {
        fill: #d0d6c7;
      }

      .cls-3 {
        fill: #f1a953;
      }

      .cls-4 {
        fill: #febf77;
      }

      .cls-5 {
        fill: #1d1f21;
      }

      .cls-6 {
        fill: #db7240;
      }

      .cls-7 {
        fill: #db9840;
      }

      .cls-8 {
        fill: #a2907d;
      }

      .cls-9 {
        fill: #93511a;
      }

      .cls-10 {
        fill: #fffff8;
      }
    </style>
  </defs>
  <g id="Layer_1-2" data-name="Layer 1">
    <g>
      <path class="cls-2" d="M17.14,42.86c-2.42-.11-4.46-.45-7.27-.33-2.81.12-.65,0-5.34.58-.61.08-1.25.16-1.76.43s-.85.79-.63,1.24c.26.52,1.1.62,1.81.75,5.1.98,9.59,1.13,15.64.57,1.68-.16,3.67-.18,4.53-1.31-1.55-1.58-4.44-1.82-6.99-1.94Z"/>
      <g>
        <path class="cls-1" d="M10.82,33c-2.09,1.57-5.52-.39-6.38-1.08-.41,1.09-.46,3.23,1.93,4.28,2.39,1.05,4.06-1.22,4.45-3.2Z"/>
        <g>
          <path class="cls-7" d="M17.82,20.95c-1.15.78-2.62,1.29-4.47,1.29-2.02,0-3.63-.51-4.88-1.33-1.42,2.21-2.82,5.23-2.86,8.9-.05,3.95,2.02,7.55,7.7,7.55s7.66-4.39,7.38-8.01c-.19-2.55-1.42-6.05-2.88-8.4Z"/>
          <path class="cls-3" d="M18.25,29.83c0,3.27-2.26,5.53-5.05,5.53s-5.05-2.26-5.05-5.53,2.26-6.32,5.05-6.32,5.05,3.04,5.05,6.32Z"/>
        </g>
        <g>
          <path class="cls-7" d="M7.03,23.55c-3.83-1.61-5.38-5.92-5.47-5.92-.16.12-.47.89-.48,1.11-.34-.13-.83-.32-1.07-.38.19,1.84,1.96,6.42,6,8.2.25-1.09.61-2.09,1.03-3.02Z"/>
          <path class="cls-5" d="M2.22,18.91c-.42-.76-.63-1.29-.66-1.29-.16.12-.47.89-.48,1.11-.34-.13-.83-.32-1.07-.38.04.36.13.82.29,1.35.5-.06,1.32-.3,1.93-.79Z"/>
        </g>
        <g>
          <path class="cls-7" d="M24.87,18.74c-.01-.23-.33-.99-.48-1.11-.09,0-1.58,4.17-5.28,5.84.42.97.78,2,1.05,3,3.89-1.85,5.6-6.3,5.79-8.11-.24.06-.74.25-1.08.38Z"/>
          <path class="cls-5" d="M23.72,18.91c.42-.76.63-1.29.66-1.29.16.12.47.89.48,1.11.34-.13.83-.32,1.08-.38-.04.36-.13.82-.3,1.35-.5-.06-1.32-.3-1.93-.79Z"/>
        </g>
        <g>
          <path class="cls-7" d="M15.18,37.18c.4,3.09,1.54,7.6,1.91,7.66.39.07.54-.52.61-.81.09.24.48.71.78.54.28-.16.12-1.49.03-9.04-.84.78-1.93,1.37-3.32,1.65Z"/>
          <path class="cls-5" d="M16.52,43.51c.24.8.45,1.31.57,1.34.39.07.54-.52.61-.81.09.24.48.71.78.54.13-.07.16-.39.16-1.43-.69.25-1.35.36-2.11.36Z"/>
        </g>
        <g>
          <path class="cls-7" d="M7.7,35.47c-.09,7.6-.25,8.94.03,9.1.29.17.69-.31.78-.54.07.29.21.88.61.81.36-.06,1.52-4.61,1.91-7.71-1.41-.3-2.5-.89-3.33-1.67Z"/>
          <path class="cls-5" d="M9.68,43.51c-.24.8-.45,1.31-.57,1.34-.39.07-.54-.52-.61-.81-.09.24-.48.71-.78.54-.13-.07-.16-.39-.16-1.43.69.25,1.35.36,2.11.36Z"/>
        </g>
      </g>
      <g>
        <path class="cls-8" d="M7.87,8c.3-.22.61-.42.94-.6-.46-.12-.89-.34-1.25-.64-.07-.06-.14-.12-.18-.2-.09-.17-.03-.38.08-.53.11-.15.26-.27.39-.41.35-.36.56-.85.58-1.35,0-.26-.04-.54-.22-.73-.18-.19-.51-.25-.7-.07-.11.1-.15.26-.19.41-.09.37-.19.73-.28,1.1-.04.16-.1.34-.25.41-.15.07-.33,0-.44-.11-.11-.12-.16-.28-.2-.44-.32-1.25-.16-2.39-.23-3.67-.05-.99-.51-1.23-.78-1.13-.55.19-.58.91-.58,1.49,0,.71.45,1.7.01,1.99-.43.29-1.13-.46-1.37-.82-.14-.22-.26-.47-.47-.62s-.58-.14-.68.1c-.04.09-.04.2-.02.3.08.52.42.97.82,1.31.27.24.58.43.91.58.55.25.91.41,1.35.82.37.33.56.81.8,1.23.4.7,1.16,1.3,1.96,1.6Z"/>
        <path class="cls-8" d="M23.99,1.5c-.22-.07-.47.02-.65.17-.18.15-.68,1.03-1.55,1.41-.14.06-.32.14-.43.03-.29-.29.55-2.79-.48-3.02-.15-.03-.74.24-.68,1.47.03.64.16,1.75,0,2.51-.13.59-.31,1.39-.78,1.35-.46-.04-.22-.88-.27-1.23-.02-.17-.05-.35-.13-.51-.08-.16-.23-.29-.41-.3-.13,0-.27.06-.36.15-.26.25-.27.65-.25,1.01.04.51.13,1.02.29,1.51.05.16.1.32.1.48-.01.26-.17.48-.35.67-.12.12-.26.21-.4.3.24.15.47.31.68.48,1.2-.66,1.89-1.34,2.5-2.6.41-.85.92-1.05,1.24-1.18,1.45-.58,2-1.36,2.11-1.68.18-.5.15-.92-.18-1.02Z"/>
        <path class="cls-7" d="M21.28,13.89c-.25-4.34-3.44-7.58-8.06-7.58s-8.32,3.14-8.3,7.58c0,3.8,2.37,8.35,8.42,8.35s8.11-5.45,7.94-8.35Z"/>
        <path class="cls-1" d="M20.36,10.45c-1.3-2.51-3.85-4.14-7.13-4.14s-6.11,1.6-7.46,4.12c3.48-.78,6.31,1.76,7.33,7.23.63-5.6,4.27-8.01,7.26-7.21Z"/>
        <path class="cls-1" d="M1.26,6.2c-.15-.01-.32-.02-.43.08-.13.11-.15.3-.14.47.04,1.25,1.03,4.62,5.08,3.68.28-.52.63-1.01,1.02-1.44-1.4-1.48-3.51-2.62-5.52-2.78Z"/>
        <path class="cls-3" d="M6.28,9.6c-1.42-1-3.1-1.91-4.77-2.23-.02,1.06,1.29,3.33,4.41,2.78.11-.19.23-.37.36-.55Z"/>
        <path class="cls-1" d="M24.86,6.23c.15-.01.32-.02.43.08.13.11.15.3.14.47-.04,1.25-1.03,4.62-5.08,3.68-.28-.52-.63-1.01-1.02-1.44,1.4-1.48,3.51-2.62,5.52-2.78Z"/>
        <path class="cls-3" d="M19.84,9.59c.12.18.24.37.35.56,3.11.54,4.42-1.72,4.4-2.78-1.66.32-3.34,1.23-4.75,2.22Z"/>
        <path class="cls-6" d="M20.58,17.25c0-1.34-2.32-1.35-2.47-.17-.19,1.5,2.48,1.66,2.47.17Z"/>
        <path class="cls-6" d="M5.65,17.25c0-1.34,2.32-1.35,2.47-.17.19,1.5-2.48,1.66-2.47.17Z"/>
        <g>
          <path class="cls-5" d="M7.7,15.26c.88,0,.88,1.46.11,1.56-.98.12-1.09-1.56-.11-1.56Z"/>
          <path class="cls-10" d="M7.88,15.37c.32,0,.32.53.04.56-.35.04-.39-.56-.04-.56Z"/>
        </g>
        <g>
          <path class="cls-5" d="M18.65,15.26c.88,0,.88,1.46.11,1.56-.98.12-1.09-1.56-.11-1.56Z"/>
          <path class="cls-10" d="M18.83,15.37c.32,0,.32.53.04.56-.35.04-.39-.56-.04-.56Z"/>
        </g>
        <g>
          <path class="cls-4" d="M15.74,17.44c-.01,2.41-4.93,2.42-5.25.3-.4-2.69,5.26-2.98,5.25-.3Z"/>
          <path class="cls-5" d="M14.1,16.25c0,.88-1.87.88-1.99.11-.15-.98,1.99-1.09,1.99-.11Z"/>
          <path class="cls-5" d="M14.67,17.68c-.21.44-.71.7-1.12.32-.31-.28-.31-.69-.31-1.08-.09,0-.17,0-.26,0,0,.39,0,.8-.31,1.08-.41.37-.91.11-1.12-.32-.07-.15-.3-.02-.22.13.24.49.78.81,1.31.53.25-.13.39-.33.48-.55.09.22.23.42.48.55.52.27,1.07-.05,1.31-.53.07-.15-.15-.28-.22-.13Z"/>
        </g>
        <g>
          <path class="cls-9" d="M12.64,15.35c0-.22,0-.44-.03-.65-.01-.12.14-.13.15,0,.02.22.03.43.03.65,0,.12-.16.13-.15,0h0Z"/>
          <path class="cls-9" d="M12.14,12.72c-.03-.28-.07-.55-.12-.82-.02-.12.13-.16.15-.05.05.27.09.54.12.82.01.12-.13.16-.15.05h0Z"/>
          <path class="cls-9" d="M12.85,11.21c0-.23-.01-.45-.04-.68-.01-.12.14-.15.15-.03.03.24.04.48.04.73,0,.12-.15.1-.15-.02h0Z"/>
          <path class="cls-9" d="M11.75,8.28c-.04-.32-.1-.62-.19-.92-.04-.11.11-.19.14-.07.1.31.16.63.2.97.01.12-.14.15-.15.03h0Z"/>
          <path class="cls-9" d="M13.54,9.94c-.04.32-.06.64-.06.97,0,.12-.15.1-.15-.02,0-.32.03-.65.06-.97.01-.12.16-.1.15.02h0Z"/>
          <path class="cls-9" d="M12.99,10.03c.02-.31,0-.61-.03-.92-.01-.12.14-.15.15-.03.04.32.04.64.03.97,0,.12-.16.1-.15-.02h0Z"/>
          <path class="cls-9" d="M12.51,9.76c0-.3-.05-.56-.14-.83-.04-.11.1-.19.14-.08.1.3.15.6.15.93,0,.12-.15.11-.15-.01h0Z"/>
          <path class="cls-9" d="M12.69,13.2c-.01-.31-.05-.61-.11-.92-.02-.12.12-.16.15-.05.06.32.1.64.11.97,0,.12-.15.12-.15,0h0Z"/>
          <path class="cls-9" d="M13.77,8.49c-.04.2-.06.4-.06.6,0,.12-.15.13-.15.01,0-.22.02-.43.06-.65.02-.12.17-.08.15.04h0Z"/>
          <path class="cls-9" d="M12.61,7.94c.02-.43-.01-.85-.09-1.27-.02-.12.12-.17.15-.05.09.43.12.87.1,1.32,0,.12-.16.13-.15,0h0Z"/>
          <path class="cls-9" d="M13.68,7.9c.02-.43.05-.86.09-1.29.01-.12.16-.1.15.02-.04.43-.07.86-.09,1.29,0,.12-.16.1-.15-.02h0Z"/>
          <path class="cls-9" d="M13.05,8.67c0-.26.02-.53.03-.79,0-.12.16-.13.15-.01,0,.26-.02.53-.03.79,0,.12-.16.13-.15.01h0Z"/>
          <path class="cls-9" d="M12.24,8.35c-.02-.2-.06-.39-.12-.58-.03-.11.11-.17.15-.06.06.21.1.41.12.63.01.12-.14.13-.15,0h0Z"/>
          <path class="cls-9" d="M13.15,7.28c0-.16.02-.31.02-.47,0-.12.16-.11.15.01,0,.16-.02.31-.02.47,0,.12-.16.11-.15-.01h0Z"/>
          <path class="cls-9" d="M11.89,9.36c-.03-.15-.07-.3-.1-.45-.03-.12.12-.16.15-.05.03.15.07.3.1.45.03.12-.12.16-.15.05h0Z"/>
          <path class="cls-9" d="M14.05,9.29c.03-.15.06-.31.09-.46.02-.12.17-.08.15.03-.03.15-.06.31-.09.46-.02.12-.17.08-.15-.03h0Z"/>
          <path class="cls-9" d="M13.36,15.19c.01-.16.02-.31.03-.47,0-.12.16-.11.15.01-.01.16-.02.31-.03.47,0,.12-.16.11-.15-.01h0Z"/>
          <path class="cls-9" d="M14.08,9.99c-.09.28-.13.56-.13.87,0,.12-.15.11-.15-.01,0-.32.05-.62.14-.91.04-.11.18-.05.14.06h0Z"/>
          <path class="cls-9" d="M14.02,11.53c-.12.36-.18.74-.2,1.12,0,.12-.16.13-.15,0,.02-.39.08-.8.2-1.17.04-.11.18-.07.15.04h0Z"/>
          <path class="cls-9" d="M12.36,10.89c-.05-.38-.13-.71-.2-.96-.03-.11.11-.16.15-.05.08.25.16.58.2,1.01.01.12-.15.11-.15,0h0Z"/>
          <path class="cls-9" d="M13.31,13.17c-.01-.22-.01-.44,0-.65,0-.12-.15-.12-.15,0-.01.22-.01.43,0,.65,0,.12.16.12.15,0h0Z"/>
          <path class="cls-9" d="M13.64,14.16c0-.28.03-.55.06-.82.01-.12-.14-.15-.15-.03-.03.27-.05.55-.06.82,0,.12.15.15.15.03h0Z"/>
          <path class="cls-9" d="M14.35,11.13c.04-.22.09-.44.16-.66.03-.12-.11-.17-.14-.06-.07.23-.12.47-.16.71-.02.12.13.12.15,0h0Z"/>
          <path class="cls-9" d="M15.94,8.11c.18-.27.37-.51.58-.74.08-.08-.01-.21-.09-.13-.23.24-.43.49-.61.77-.07.1.06.19.12.09h0Z"/>
          <path class="cls-9" d="M14.77,8.93c.08-.28.2-.53.37-.76.07-.09-.05-.21-.11-.12-.18.26-.31.54-.4.85-.03.12.12.14.15.03h0Z"/>
          <path class="cls-9" d="M14.77,7.93c.11-.42.22-.68.42-1.05.06-.11-.07-.2-.13-.09-.21.39-.33.66-.44,1.1-.03.12.11.17.14.05h0Z"/>
          <path class="cls-9" d="M15.43,7.71c.1-.18.21-.34.34-.49.08-.09-.04-.2-.11-.11-.14.16-.26.34-.37.53-.06.1.08.17.14.07h0Z"/>
          <path class="cls-9" d="M14.67,9.95c.05-.15.09-.29.14-.44.04-.11-.11-.17-.14-.06-.05.15-.09.29-.14.44-.04.11.11.17.14.06h0Z"/>
          <path class="cls-9" d="M13,14.77c0-.43,0-.45.02-.88,0-.12.16-.11.15.01-.03.43-.02.45-.02.88,0,.12-.15.11-.15-.01h0Z"/>
          <path class="cls-9" d="M13.21,11.92c0-.14,0-.28.01-.42,0-.12.16-.09.15.03,0,.12-.01.25-.01.37,0,.12-.15.14-.15.02h0Z"/>
          <path class="cls-9" d="M14.29,8.12c.04-.3.05-.66.17-.94.05-.11-.08-.2-.13-.09-.13.31-.16.69-.2,1.03-.02.12.14.12.15,0h0Z"/>
          <path class="cls-9" d="M11.63,9.69c.11.3.13.35.21.66.03.12.17.05.14-.06-.08-.31-.1-.36-.21-.66-.04-.11-.18-.05-.14.06h0Z"/>
          <path class="cls-9" d="M11.25,8.2c.07.19.12.39.15.59.02.12.17.1.15-.01-.04-.22-.09-.43-.16-.64-.04-.11-.18-.05-.14.06h0Z"/>
          <path class="cls-9" d="M10.94,8.21c-.17-.4-.35-.79-.54-1.17-.05-.11-.19-.03-.13.08.19.39.37.78.54,1.17.05.11.18.03.13-.08h0Z"/>
          <path class="cls-9" d="M11.24,7.5c-.03-.15-.07-.31-.1-.46-.03-.12-.17-.08-.15.04.03.15.07.31.1.46.02.12.17.08.15-.04h0Z"/>
          <path class="cls-9" d="M12.66,13.99c-.02-.16-.04-.31-.06-.47-.01-.12-.17-.1-.15.02.02.16.04.31.06.47.01.12.17.1.15-.02h0Z"/>
          <path class="cls-9" d="M10.96,9.33c.17.24.3.5.39.79.04.12.18.06.14-.06-.09-.3-.23-.57-.41-.83-.07-.1-.19,0-.12.1h0Z"/>
          <path class="cls-9" d="M11.9,11.23c-.02-.14-.05-.27-.08-.41-.03-.12-.17-.07-.14.05.03.12.05.24.07.36.02.12.17.11.15,0h0Z"/>
          <path class="cls-9" d="M15.23,9.07c.08-.12.15-.23.22-.35.06-.1-.08-.17-.14-.06-.06.11-.13.21-.2.31-.07.1.05.2.11.1h0Z"/>
          <path class="cls-9" d="M12.67,11.77c-.01-.14-.03-.28-.05-.41-.02-.12-.17-.08-.15.04.02.12.04.24.05.37.01.12.17.13.15,0h0Z"/>
          <path class="cls-9" d="M12.14,7.02c-.02-.14-.05-.27-.08-.41-.03-.12-.17-.07-.14.05.03.12.05.24.07.36.02.12.17.12.15,0h0Z"/>
          <path class="cls-9" d="M10.81,8.84c-.07-.12-.14-.24-.22-.35-.07-.1-.18,0-.12.1.07.1.13.21.2.31.06.1.2.05.14-.06h0Z"/>
          <path class="cls-9" d="M10.1,8.12c-.18-.25-.37-.55-.61-.73-.09-.07-.03-.22.07-.15.27.21.47.53.67.8.07.1-.06.17-.13.08h0Z"/>
        </g>
      </g>
    </g>
  </g>
</svg>