<?xml version="1.0" encoding="UTF-8"?>
<svg id="Layer_2" xmlns="http://www.w3.org/2000/svg" version="1.1" viewBox="0 0 37.1 39.9">
  <!-- Generator: Adobe Illustrator 29.0.0, SVG Export Plug-In . SVG Version: 2.1.0 Build 186)  -->
  <defs>
    <style>
      .st0 {
        fill: #c67f2b;
      }

      .st1 {
        opacity: .3;
      }

      .st2 {
        fill: #d38e3c;
      }

      .st3 {
        fill: #f1a953;
      }

      .st4 {
        fill: #febf77;
      }

      .st5 {
        fill: #1d1f21;
      }

      .st6 {
        fill: #db7240;
      }

      .st7 {
        fill: #db9840;
      }

      .st8 {
        fill: #a2907d;
      }

      .st9 {
        fill: #93511a;
      }

      .st10 {
        fill: #fffff8;
      }
    </style>
  </defs>
  <g id="Layer_1-2">
    <g>
      <path class="st1" d="M18.4,36.2c-2.7-.1-8.8-.3-13.9.2-.7,0-1.4.2-1.9.4s-.9.8-.7,1.3c.3.5,1.2.6,2,.8,5.6,1,10.6,1.2,17.3.6,1.9-.2,4.5-.5,4.6-1.5.1-1.2-4.4-1.7-7.3-1.8Z"/>
      <g>
        <g>
          <path class="st2" d="M7.4,19.1c-2.2,0-4.1-1.4-5.3-2.4-.2-.2-.4-.4-.7-.4-.3,0-.5.2-.7.4-.8,1-.9,2.5-.3,3.5s1.9,1.8,3.2,1.7,3.1-1.4,3.8-2.9h0Z"/>
          <g>
            <path class="st7" d="M23.2,27.4c-.8.8-1.8,1.6-3,2.2-.1,0-.2.1-.3.2.4,3,1.5,7.6,1.9,7.7.4,0,.5-.5.6-.8,0,.2.5.7.8.5.3-.2.1-1.3,0-7.9v-1.9h0Z"/>
            <path class="st5" d="M21.3,36.1c.2.8.4,1.3.6,1.3.4,0,.5-.5.6-.8,0,.2.5.7.8.5.1,0,.2-.4.1-1.4-.7.2-1.3.3-2.1.4Z"/>
          </g>
          <g>
            <path class="st7" d="M4.8,28.2c0,8.3-.3,9.7,0,9.9.3.2.7-.3.8-.5,0,.3.2.9.6.8.3,0,1-2.6,1.5-5.1.2-.8.3-2,.4-3-1.3-.4-2.4-1.1-3.3-2.1h0Z"/>
            <path class="st5" d="M6.7,37.1c-.2.8-.4,1.3-.6,1.3-.4,0-.5-.5-.6-.8,0,.2-.5.7-.8.5-.1,0-.2-.4-.2-1.4.7.2,1.3.3,2.1.4Z"/>
          </g>
          <g>
            <path class="st7" d="M11.2,31c-.8-.1-1.5-.3-2.3-.5.4,6.1.4,7.2.7,7.4.3.1.6-.4.7-.6,0,.3.3.8.7.7.3,0,1-3.9,1.1-6.9-.3,0-.6,0-.9-.1h0Z"/>
            <path class="st5" d="M11.4,36.7c-.2.8-.3,1.3-.4,1.3-.4,0-.6-.5-.7-.7,0,.2-.4.7-.7.6-.1,0-.2-.4-.3-1.4.7.2,1.4.2,2.1.2h0Z"/>
          </g>
          <g>
            <path class="st7" d="M24.9,22.4c-3.7,0-6.1-1.7-7.3-4-1.8-.5-4.1-1-6.5-.9-3.8.2-7.4,1.6-7.5,6.7,0,5.1,4.2,6.2,7.7,6.8,2.2.3,5.3.6,9.1-1.5,3.4-1.9,5-4.6,5.2-7.2-.2,0-.4,0-.6,0Z"/>
            <path class="st3" d="M24.9,22.4c-.4,0-.7,0-1,0h0c-.7,2.2-1.6,3.6-4.2,4.9-2.9,1.4-5.1-.4-8.1-.3-2.1.1-3.1,1-3.5,3.4,1,.4,2.1.6,3.2.7,2.2.3,5.3.6,9.1-1.5,3.4-1.9,5-4.5,5.2-7.2,0,0,0,0,0,0-.2,0-.4,0-.5,0h0Z"/>
          </g>
          <g>
            <path class="st7" d="M15.5,27.5c0,1.4.2,4,1,8,.3,1.6.6,2.8.8,2.8.4,0,.5-.5.6-.8,0,.2.4.7.7.6.3-.1.2-1.4.4-8.1,0-.4,0-1.6,0-2.6-1.3.5-2.5.3-3.7,0h0Z"/>
            <path class="st5" d="M16.8,37.1c.2.8.4,1.3.5,1.3.4,0,.5-.5.6-.8,0,.2.4.7.7.6.1,0,.2-.4.2-1.4-.7.2-1.3.3-2.1.2h0Z"/>
          </g>
        </g>
        <g>
          <path class="st8" d="M19.4,8.1c.3-.2.6-.4,1-.6-.5-.1-.9-.3-1.3-.7,0,0-.1-.1-.2-.2,0-.2,0-.4,0-.5s.3-.3.4-.4c.4-.4.6-.9.6-1.4,0-.3,0-.5-.2-.7-.2-.2-.5-.2-.7,0-.1,0-.2.3-.2.4-.1.4-.2.7-.3,1.1,0,.2-.1.3-.2.4-.1,0-.3,0-.4-.1-.1-.1-.2-.3-.2-.4-.3-1.3-.2-2.4-.2-3.7,0-1-.5-1.2-.8-1.1-.6.2-.6.9-.6,1.5s.5,1.7,0,2c-.4.3-1.1-.5-1.4-.8-.1-.2-.3-.5-.5-.6-.2-.1-.6-.1-.7,0,0,0,0,.2,0,.3,0,.5.4,1,.8,1.3.3.2.6.4.9.6.6.2.9.4,1.4.8.4.3.6.8.8,1.2.4.7,1.2,1.3,2,1.6h0Z"/>
          <path class="st8" d="M35.7,1.5c-.2,0-.5,0-.7.2-.2.1-.7,1-1.6,1.4-.1,0-.3.1-.4,0-.3-.3.5-2.8-.5-3-.2,0-.7.2-.7,1.5,0,.6.2,1.8,0,2.5-.1.6-.3,1.4-.8,1.4-.5,0-.2-.9-.3-1.2,0-.2,0-.3-.1-.5s-.2-.3-.4-.3c-.1,0-.3,0-.4.2-.3.2-.3.7-.2,1,0,.5.1,1,.3,1.5,0,.2.1.3.1.5,0,.3-.2.5-.4.7-.1.1-.3.2-.4.3.2.2.5.3.7.5,1.2-.7,1.9-1.3,2.5-2.6.4-.9.9-1.1,1.2-1.2,1.5-.6,2-1.4,2.1-1.7.2-.5.2-.9-.2-1h0Z"/>
          <path class="st7" d="M32.9,14c-.2-4.4-3.5-7.6-8.1-7.6s-8.4,3.2-8.4,7.6c0,3.8,2.4,8.4,8.5,8.4s8.2-5.5,8-8.4Z"/>
          <path class="st0" d="M32,10.5c-1.3-2.5-3.9-4.2-7.2-4.2s-6.2,1.6-7.5,4.2c3.5-.8,6.4,1.8,7.4,7.3.6-5.6,4.3-8.1,7.3-7.3Z"/>
          <path class="st0" d="M12.8,6.2c-.1,0-.3,0-.4,0-.1.1-.1.3-.1.5,0,1.3,1,4.7,5.1,3.7.3-.5.6-1,1-1.4-1.4-1.5-3.5-2.6-5.6-2.8h0Z"/>
          <path class="st3" d="M17.8,9.7c-1.4-1-3.1-1.9-4.8-2.2,0,1.1,1.3,3.4,4.4,2.8.1-.2.2-.4.4-.6Z"/>
          <path class="st0" d="M36.5,6.3c.2,0,.3,0,.4,0,.1.1.2.3.1.5,0,1.3-1,4.7-5.1,3.7-.3-.5-.6-1-1-1.5,1.4-1.5,3.5-2.6,5.6-2.8h0Z"/>
          <path class="st3" d="M31.5,9.7c.1.2.2.4.4.6,3.1.6,4.5-1.7,4.4-2.8-1.7.3-3.4,1.2-4.8,2.2h0Z"/>
          <path class="st6" d="M32.2,17.4c0-1.4-2.3-1.4-2.5-.2-.2,1.5,2.5,1.7,2.5.2Z"/>
          <path class="st6" d="M17.2,17.4c0-1.4,2.3-1.4,2.5-.2.2,1.5-2.5,1.7-2.5.2Z"/>
          <g>
            <path class="st5" d="M19.2,15.4c.9,0,.9,1.5.1,1.6-1,.1-1.1-1.6-.1-1.6Z"/>
            <path class="st10" d="M19.4,15.5c.3,0,.3.5,0,.6-.4,0-.4-.6,0-.6Z"/>
          </g>
          <g>
            <path class="st5" d="M30.3,15.4c.9,0,.9,1.5.1,1.6-1,.1-1.1-1.6-.1-1.6Z"/>
            <path class="st10" d="M30.5,15.5c.3,0,.3.5,0,.6-.4,0-.4-.6,0-.6Z"/>
          </g>
          <g>
            <path class="st4" d="M27.3,17.6c0,2.4-5,2.4-5.3.3-.4-2.7,5.3-3,5.3-.3Z"/>
            <path class="st5" d="M25.7,16.4c0,.9-1.9.9-2,.1-.1-1,2-1.1,2-.1Z"/>
            <path class="st5" d="M26.3,17.8c-.2.4-.7.7-1.1.3-.3-.3-.3-.7-.3-1.1h-.3c0,.4,0,.8-.3,1.1-.4.4-.9.1-1.1-.3,0-.1-.3,0-.2.1.2.5.8.8,1.3.5.2-.1.4-.3.5-.5,0,.2.2.4.5.5.5.3,1.1,0,1.3-.5,0-.1-.1-.3-.2-.1h0Z"/>
          </g>
          <g>
            <path class="st9" d="M24.2,15.5c0-.2,0-.4,0-.7,0-.1.1-.1.1,0,0,.2,0,.4,0,.7s-.2.1-.1,0h0Z"/>
            <path class="st9" d="M23.7,12.8c0-.3,0-.6-.1-.8,0-.1.1-.2.1,0,0,.3,0,.6.1.8,0,.1-.1.2-.1,0h0Z"/>
            <path class="st9" d="M24.4,11.3c0-.2,0-.5,0-.7,0-.1.1-.1.1,0,0,.2,0,.5,0,.7s-.1.1-.1,0h0Z"/>
            <path class="st9" d="M23.3,8.3c0-.3-.1-.6-.2-.9,0-.1.1-.2.1,0,.1.3.2.6.2,1,0,.1-.1.1-.1,0h0Z"/>
            <path class="st9" d="M25.1,10c0,.3,0,.6,0,1s-.1.1-.1,0c0-.3,0-.6,0-1,0-.1.2-.1.1,0h0Z"/>
            <path class="st9" d="M24.6,10.1c0-.3,0-.6,0-.9,0-.1.1-.1.1,0,0,.3,0,.6,0,1,0,.1-.2.1-.1,0h0Z"/>
            <path class="st9" d="M24.1,9.8c0-.3,0-.6-.1-.8,0-.1.1-.2.1,0,.1.3.1.6.1.9s-.1.1-.1,0h0Z"/>
            <path class="st9" d="M24.3,13.3c0-.3,0-.6-.1-.9,0-.1.1-.2.1,0,0,.3.1.6.1,1,0,.1-.1.1-.1,0h0Z"/>
            <path class="st9" d="M25.4,8.6c0,.2,0,.4,0,.6s-.2.1-.1,0c0-.2,0-.4,0-.7,0-.1.2,0,.1,0h0Z"/>
            <path class="st9" d="M24.2,8c0-.4,0-.9,0-1.3,0-.1.1-.2.1,0,0,.4.1.9.1,1.3,0,.1-.2.1-.1,0h0Z"/>
            <path class="st9" d="M25.3,8c0-.4,0-.9,0-1.3,0-.1.2,0,.1,0,0,.4,0,.9,0,1.3,0,.1-.2.1-.1,0h0Z"/>
            <path class="st9" d="M24.6,8.7c0-.3,0-.5,0-.8,0-.1.2-.1.1,0,0,.3,0,.5,0,.8,0,.1-.2.1-.1,0h0Z"/>
            <path class="st9" d="M23.8,8.4c0-.2,0-.4-.1-.6,0-.1.1-.2.1,0,0,.2.1.4.1.6,0,.1-.1.1-.1,0h0Z"/>
            <path class="st9" d="M24.7,7.3c0-.2,0-.3,0-.5s.2-.1.1,0c0,.2,0,.3,0,.5s-.2.1-.1,0h0Z"/>
            <path class="st9" d="M23.5,9.4c0-.1,0-.3-.1-.5,0-.1.1-.2.1,0,0,.1,0,.3.1.5,0,.1-.1.2-.1,0h0Z"/>
            <path class="st9" d="M25.6,9.4c0-.2,0-.3,0-.5,0-.1.2,0,.1,0,0,.2,0,.3,0,.5,0,.1-.2,0-.1,0h0Z"/>
            <path class="st9" d="M24.9,15.3c0-.2,0-.3,0-.5,0-.1.2-.1.1,0,0,.2,0,.3,0,.5,0,.1-.2.1-.1,0h0Z"/>
            <path class="st9" d="M25.7,10.1c0,.3-.1.6-.1.9s-.1.1-.1,0c0-.3,0-.6.1-.9,0-.1.2,0,.1,0h0Z"/>
            <path class="st9" d="M25.6,11.6c-.1.4-.2.8-.2,1.1,0,.1-.2.1-.2,0,0-.4,0-.8.2-1.2,0-.1.2,0,.1,0h0Z"/>
            <path class="st9" d="M23.9,11c0-.4-.1-.7-.2-1,0-.1.1-.2.1,0,0,.2.2.6.2,1,0,.1-.1.1-.1,0h0Z"/>
            <path class="st9" d="M24.9,13.3c0-.2,0-.4,0-.7,0-.1-.1-.1-.1,0,0,.2,0,.4,0,.7,0,.1.2.1.1,0h0Z"/>
            <path class="st9" d="M25.2,14.3c0-.3,0-.6,0-.8,0-.1-.1-.1-.1,0,0,.3,0,.6,0,.8,0,.1.1.1.1,0h0Z"/>
            <path class="st9" d="M25.9,11.2c0-.2,0-.4.2-.7,0-.1-.1-.2-.1,0,0,.2-.1.5-.2.7,0,.1.1.1.1,0h0Z"/>
            <path class="st9" d="M27.5,8.2c.2-.3.4-.5.6-.7,0,0,0-.2,0-.1-.2.2-.4.5-.6.8,0,.1,0,.2.1,0h0Z"/>
            <path class="st9" d="M26.4,9c0-.3.2-.5.4-.8,0-.1,0-.2-.1-.1-.2.3-.3.5-.4.9,0,.1.1.1.1,0h0Z"/>
            <path class="st9" d="M26.4,8c.1-.4.2-.7.4-1.1,0-.1,0-.2-.1,0-.2.4-.3.7-.4,1.1,0,.1.1.2.1,0h0Z"/>
            <path class="st9" d="M27,7.8c.1-.2.2-.3.3-.5,0,0,0-.2-.1-.1-.1.2-.3.3-.4.5,0,.1,0,.2.1,0h0Z"/>
            <path class="st9" d="M26.3,10c0-.1.1-.3.1-.4,0-.1-.1-.2-.1,0,0,.1-.1.3-.1.4,0,.1.1.2.1,0h0Z"/>
            <path class="st9" d="M24.6,14.9c0-.4,0-.4,0-.9,0-.1.2-.1.1,0,0,.4,0,.4,0,.9s-.1.1-.1,0h0Z"/>
            <path class="st9" d="M24.8,12c0-.1,0-.3,0-.4,0-.1.2,0,.1,0,0,.1,0,.2,0,.4s-.1.1-.1,0h0Z"/>
            <path class="st9" d="M25.9,8.2c0-.3,0-.7.2-.9,0-.1,0-.2-.1,0-.1.3-.2.7-.2,1,0,.1.1.1.1,0h0Z"/>
            <path class="st9" d="M23.2,9.8c.1.3.1.4.2.7,0,.1.2,0,.1,0,0-.3-.1-.4-.2-.7,0-.1-.2,0-.1,0h0Z"/>
            <path class="st9" d="M22.8,8.3c0,.2.1.4.1.6,0,.1.2.1.1,0,0-.2,0-.4-.2-.6,0-.1-.2,0-.1,0h0Z"/>
            <path class="st9" d="M22.5,8.3c-.2-.4-.4-.8-.5-1.2,0-.1-.2,0-.1,0,.2.4.4.8.5,1.2,0,.1.2,0,.1,0h0Z"/>
            <path class="st9" d="M22.8,7.6c0-.2,0-.3-.1-.5,0-.1-.2,0-.1,0,0,.2,0,.3.1.5,0,.1.2,0,.1,0h0Z"/>
            <path class="st9" d="M24.2,14.1c0-.2,0-.3,0-.5,0-.1-.2-.1-.1,0,0,.2,0,.3,0,.5,0,.1.2.1.1,0h0Z"/>
            <path class="st9" d="M22.5,9.4c.2.2.3.5.4.8,0,.1.2,0,.1,0,0-.3-.2-.6-.4-.8,0-.1-.2,0-.1.1h0Z"/>
            <path class="st9" d="M23.5,11.3c0-.1,0-.3,0-.4,0-.1-.2,0-.1,0,0,.1,0,.2,0,.4s.2.1.2,0h0Z"/>
            <path class="st9" d="M26.8,9.1c0-.1.1-.2.2-.4,0-.1,0-.2-.1,0s-.1.2-.2.3c0,.1,0,.2.1.1h0Z"/>
            <path class="st9" d="M24.2,11.9c0-.1,0-.3,0-.4,0-.1-.2,0-.1,0s0,.2,0,.4c0,.1.2.1.2,0h0Z"/>
            <path class="st9" d="M23.7,7.1c0-.1,0-.3,0-.4,0-.1-.2,0-.1,0,0,.1,0,.2,0,.4,0,.1.2.1.2,0h0Z"/>
            <path class="st9" d="M22.4,8.9c0-.1-.1-.2-.2-.4,0-.1-.2,0-.1.1,0,.1.1.2.2.3,0,.1.2,0,.1,0h0Z"/>
            <path class="st9" d="M21.6,8.2c-.2-.2-.4-.6-.6-.7,0,0,0-.2,0-.2.3.2.5.5.7.8,0,.1,0,.2-.1,0h0Z"/>
          </g>
        </g>
      </g>
    </g>
  </g>
</svg>