<?xml version="1.0" encoding="UTF-8"?>
<svg id="Layer_2" data-name="Layer 2" xmlns="http://www.w3.org/2000/svg" viewBox="0 0 37.11 39.88">
  <defs>
    <style>
      .cls-1 {
        fill: #c67f2b;
      }

      .cls-2 {
        fill: #d38e3c;
      }

      .cls-3 {
        fill: #d0d6c7;
      }

      .cls-4 {
        fill: #f1a953;
      }

      .cls-5 {
        fill: #febf77;
      }

      .cls-6 {
        fill: #1d1f21;
      }

      .cls-7 {
        fill: #db7240;
      }

      .cls-8 {
        fill: #db9840;
      }

      .cls-9 {
        fill: #a2907d;
      }

      .cls-10 {
        fill: #93511a;
      }

      .cls-11 {
        fill: #fffff8;
      }
    </style>
  </defs>
  <g id="Layer_1-2" data-name="Layer 1">
    <g>
      <path class="cls-3" d="M18.44,36.25c-2.68-.11-8.75-.34-13.94.25-.68.08-1.38.16-1.94.44-.56.28-.94.81-.69,1.26.29.53,1.22.63,2,.77,5.63,1,10.6,1.15,17.28.58,1.86-.16,4.48-.54,4.56-1.45.11-1.23-4.45-1.74-7.27-1.85Z"/>
      <g>
        <g>
          <path class="cls-2" d="M7.41,19.11c-2.19.05-4.11-1.4-5.3-2.41-.21-.18-.43-.37-.7-.38-.27,0-.51.19-.69.39-.83.95-.94,2.45-.31,3.55s1.91,1.77,3.18,1.73c1.27-.04,3.06-1.41,3.83-2.89Z"/>
          <g>
            <path class="cls-8" d="M23.23,27.35c-.77.83-1.75,1.59-2.96,2.25-.1.06-.21.1-.31.16.36,3.02,1.52,7.6,1.88,7.67.38.07.52-.51.59-.79.09.23.47.69.76.53.26-.15.13-1.34.04-7.92,0-.42,0-1.17,0-1.88Z"/>
            <path class="cls-6" d="M21.29,36.12c.23.78.44,1.28.56,1.3.38.07.52-.51.59-.79.09.23.47.69.76.53.12-.07.16-.38.15-1.39-.67.24-1.32.35-2.06.35Z"/>
          </g>
          <g>
            <path class="cls-8" d="M4.78,28.25c-.09,8.31-.27,9.73.01,9.89.29.16.67-.3.76-.53.07.28.21.86.59.79.27-.05.97-2.57,1.47-5.1.16-.8.33-2.03.45-2.98-1.28-.43-2.45-1.07-3.28-2.08Z"/>
            <path class="cls-6" d="M6.7,37.1c-.23.78-.44,1.28-.56,1.3-.38.07-.52-.51-.59-.79-.09.23-.47.69-.76.53-.12-.07-.16-.38-.15-1.39.67.24,1.32.35,2.06.35Z"/>
          </g>
          <g>
            <path class="cls-8" d="M11.22,31.05c-.75-.11-1.53-.26-2.3-.46.45,6.09.44,7.24.7,7.36.3.14.64-.36.71-.59.09.27.28.84.66.74.32-.09.97-3.93,1.15-6.92-.32-.04-.63-.08-.93-.12Z"/>
            <path class="cls-6" d="M11.44,36.74c-.16.79-.32,1.32-.44,1.35-.38.1-.57-.46-.66-.74-.07.24-.41.73-.71.59-.13-.06-.19-.36-.28-1.37.69.18,1.35.23,2.08.17Z"/>
          </g>
          <g>
            <path class="cls-8" d="M24.92,22.4c-3.74,0-6.08-1.73-7.33-3.95-1.81-.5-4.1-.98-6.53-.87-3.84.17-7.4,1.65-7.51,6.72-.1,5.07,4.18,6.21,7.67,6.75,2.19.33,5.27.6,9.05-1.45,3.43-1.85,5-4.55,5.21-7.23-.19.01-.37.03-.56.03Z"/>
            <path class="cls-4" d="M24.92,22.4c-.36,0-.7-.02-1.04-.05,0,0-.01,0-.02,0-.66,2.17-1.62,3.63-4.24,4.9-2.86,1.4-5.05-.42-8.05-.29-2.14.1-3.1,1.05-3.52,3.36,1.03.35,2.13.56,3.16.71,2.19.33,5.27.6,9.05-1.45,3.42-1.85,5-4.54,5.21-7.21,0,0-.02-.01-.02-.02-.18,0-.35.03-.54.03Z"/>
          </g>
          <g>
            <path class="cls-8" d="M15.46,27.54c.04,1.41.2,4.03.96,8.01.31,1.59.64,2.81.82,2.85.38.09.55-.49.63-.76.08.23.44.71.73.57.27-.14.2-1.36.43-8.09.02-.43.05-1.65.09-2.64-1.3.48-2.47.33-3.66.07Z"/>
            <path class="cls-6" d="M16.75,37.08c.2.79.37,1.3.49,1.33.38.09.55-.49.63-.76.08.23.44.71.73.57.13-.06.18-.37.22-1.38-.69.21-1.33.28-2.07.25Z"/>
          </g>
        </g>
        <g>
          <path class="cls-9" d="M19.41,8.06c.3-.22.62-.43.95-.61-.46-.12-.9-.34-1.26-.65-.07-.06-.14-.12-.18-.2-.09-.17-.03-.38.08-.54.11-.16.26-.27.39-.41.36-.36.57-.86.58-1.36,0-.26-.04-.55-.22-.74-.18-.19-.52-.25-.71-.07-.11.1-.16.26-.19.41-.1.37-.19.74-.29,1.1-.04.16-.1.34-.25.42-.15.07-.33,0-.44-.11-.11-.12-.16-.28-.21-.44-.32-1.26-.16-2.41-.23-3.7-.05-.99-.52-1.24-.78-1.14-.56.2-.59.91-.59,1.5,0,.72.45,1.71.01,2-.44.29-1.14-.46-1.38-.83-.14-.22-.26-.48-.48-.63-.22-.15-.58-.14-.69.1-.04.09-.04.2-.02.31.08.52.42.98.82,1.32.28.24.59.44.92.59.55.25.91.41,1.36.82.37.33.56.81.81,1.24.4.7,1.17,1.31,1.98,1.61Z"/>
          <path class="cls-9" d="M35.65,1.51c-.22-.07-.47.02-.66.17-.18.15-.69,1.04-1.56,1.42-.14.06-.32.14-.43.03-.29-.29.55-2.81-.49-3.04-.15-.03-.74.24-.69,1.48.03.64.17,1.76,0,2.53-.13.59-.32,1.4-.78,1.36-.46-.04-.22-.88-.27-1.24-.02-.17-.05-.35-.13-.51-.08-.16-.23-.29-.41-.3-.14,0-.27.06-.36.15-.26.25-.28.66-.25,1.02.04.52.13,1.03.29,1.52.05.16.11.32.1.49-.01.26-.18.49-.36.67-.12.12-.26.21-.4.3.24.15.47.31.69.48,1.2-.66,1.9-1.35,2.52-2.62.42-.86.93-1.06,1.25-1.18,1.46-.59,2.01-1.37,2.13-1.7.18-.5.15-.92-.18-1.03Z"/>
          <path class="cls-8" d="M32.92,13.99c-.25-4.38-3.46-7.63-8.12-7.63s-8.38,3.17-8.37,7.63c0,3.82,2.39,8.41,8.49,8.41s8.17-5.49,8-8.41Z"/>
          <path class="cls-1" d="M31.99,10.53c-1.31-2.52-3.88-4.18-7.19-4.18s-6.16,1.61-7.52,4.15c3.51-.79,6.36,1.77,7.39,7.29.63-5.64,4.3-8.07,7.32-7.26Z"/>
          <path class="cls-1" d="M12.75,6.25c-.15-.01-.32-.02-.44.08-.13.11-.15.3-.14.47.04,1.26,1.03,4.66,5.11,3.71.28-.53.63-1.01,1.03-1.45-1.41-1.49-3.54-2.63-5.57-2.8Z"/>
          <path class="cls-4" d="M17.81,9.68c-1.43-1.01-3.12-1.92-4.8-2.25-.02,1.07,1.3,3.35,4.44,2.8.11-.19.23-.37.36-.55Z"/>
          <path class="cls-1" d="M36.53,6.28c.15-.01.32-.02.44.08.13.11.15.3.14.47-.04,1.26-1.03,4.66-5.11,3.71-.28-.53-.63-1.01-1.03-1.46,1.41-1.49,3.54-2.63,5.57-2.8Z"/>
          <path class="cls-4" d="M31.47,9.67c.13.18.24.37.35.56,3.13.55,4.45-1.74,4.43-2.8-1.68.33-3.36,1.24-4.79,2.24Z"/>
          <path class="cls-7" d="M32.22,17.38c0-1.35-2.34-1.36-2.49-.17-.19,1.51,2.5,1.67,2.49.17Z"/>
          <path class="cls-7" d="M17.18,17.38c0-1.35,2.34-1.36,2.49-.17.19,1.51-2.5,1.67-2.49.17Z"/>
          <g>
            <path class="cls-6" d="M19.24,15.37c.89,0,.89,1.47.11,1.57-.99.12-1.1-1.57-.11-1.57Z"/>
            <path class="cls-11" d="M19.42,15.48c.32,0,.32.53.04.57-.36.04-.4-.57-.04-.57Z"/>
          </g>
          <g>
            <path class="cls-6" d="M30.27,15.37c.89,0,.89,1.47.11,1.57-.99.12-1.1-1.57-.11-1.57Z"/>
            <path class="cls-11" d="M30.45,15.48c.32,0,.32.53.04.57-.36.04-.4-.57-.04-.57Z"/>
          </g>
          <g>
            <path class="cls-5" d="M27.34,17.57c-.01,2.43-4.97,2.44-5.29.3-.41-2.71,5.3-3.01,5.29-.3Z"/>
            <path class="cls-6" d="M25.69,16.37c0,.89-1.88.89-2,.11-.15-.99,2.01-1.1,2-.11Z"/>
            <path class="cls-6" d="M26.26,17.81c-.22.44-.72.7-1.13.33-.31-.28-.31-.7-.31-1.09-.09,0-.18,0-.27,0,0,.39,0,.8-.31,1.09-.41.37-.91.12-1.13-.33-.07-.15-.3-.02-.23.13.24.49.79.82,1.32.54.25-.13.4-.33.48-.55.09.23.23.42.48.55.53.28,1.08-.05,1.32-.54.07-.15-.15-.29-.23-.13Z"/>
          </g>
          <g>
            <path class="cls-10" d="M24.22,15.46c0-.22,0-.44-.03-.66-.01-.12.14-.13.15,0,.02.22.03.44.03.66,0,.12-.16.13-.15,0h0Z"/>
            <path class="cls-10" d="M23.71,12.82c-.03-.28-.07-.55-.13-.82-.02-.12.13-.16.15-.05.05.27.09.55.13.82.01.12-.14.17-.15.05h0Z"/>
            <path class="cls-10" d="M24.42,11.29c0-.23-.01-.46-.04-.68-.01-.12.14-.15.15-.03.03.24.04.49.04.73,0,.12-.15.1-.15-.02h0Z"/>
            <path class="cls-10" d="M23.32,8.34c-.04-.32-.1-.63-.19-.93-.04-.11.11-.19.14-.08.1.32.16.64.2.97.01.12-.14.15-.15.03h0Z"/>
            <path class="cls-10" d="M25.12,10.01c-.04.32-.06.65-.06.98,0,.12-.15.1-.15-.02,0-.33.03-.65.06-.98.01-.12.17-.1.15.02h0Z"/>
            <path class="cls-10" d="M24.57,10.1c.02-.31,0-.62-.03-.93-.01-.12.14-.15.15-.03.04.32.04.65.03.98,0,.12-.16.1-.15-.02h0Z"/>
            <path class="cls-10" d="M24.08,9.83c0-.3-.05-.57-.14-.84-.04-.11.1-.19.14-.08.1.3.15.61.15.94,0,.12-.15.11-.15-.01h0Z"/>
            <path class="cls-10" d="M24.27,13.3c-.01-.31-.05-.62-.11-.92-.02-.12.12-.16.15-.05.06.32.1.64.11.97,0,.12-.15.12-.15,0h0Z"/>
            <path class="cls-10" d="M25.36,8.55c-.04.2-.06.4-.06.61,0,.12-.16.13-.15.01,0-.22.02-.44.06-.66.02-.12.17-.08.15.04h0Z"/>
            <path class="cls-10" d="M24.18,8c.02-.44-.01-.86-.09-1.28-.02-.12.12-.17.15-.06.09.44.12.88.1,1.33,0,.12-.16.13-.15,0h0Z"/>
            <path class="cls-10" d="M25.26,7.96c.02-.43.05-.87.09-1.3.01-.12.16-.1.15.02-.04.43-.07.86-.09,1.3,0,.12-.16.1-.15-.02h0Z"/>
            <path class="cls-10" d="M24.62,8.74c0-.27.02-.53.03-.8,0-.12.16-.13.15-.01,0,.27-.02.53-.03.8,0,.12-.16.13-.15.01h0Z"/>
            <path class="cls-10" d="M23.82,8.41c-.02-.2-.06-.4-.12-.59-.03-.11.11-.17.15-.06.06.21.1.41.12.63.01.12-.14.13-.15,0h0Z"/>
            <path class="cls-10" d="M24.73,7.33c0-.16.02-.32.02-.47,0-.12.16-.11.15.01,0,.16-.02.32-.02.47,0,.12-.16.11-.15-.01h0Z"/>
            <path class="cls-10" d="M23.46,9.43c-.03-.15-.07-.3-.1-.46-.03-.12.12-.16.15-.05.03.15.07.3.1.46.03.12-.12.16-.15.05h0Z"/>
            <path class="cls-10" d="M25.64,9.36c.03-.16.06-.31.09-.47.02-.12.17-.08.15.03-.03.16-.06.31-.09.47-.02.12-.17.08-.15-.03h0Z"/>
            <path class="cls-10" d="M24.94,15.31c.01-.16.02-.32.03-.47,0-.12.16-.11.15.01-.01.16-.02.32-.03.47,0,.12-.16.11-.15-.01h0Z"/>
            <path class="cls-10" d="M25.67,10.06c-.09.29-.14.57-.14.87,0,.12-.15.11-.15-.01,0-.32.05-.62.14-.92.04-.11.18-.05.15.06h0Z"/>
            <path class="cls-10" d="M25.6,11.62c-.12.36-.18.75-.2,1.13,0,.12-.16.13-.16,0,.02-.39.08-.8.2-1.18.04-.11.19-.07.15.04h0Z"/>
            <path class="cls-10" d="M23.93,10.98c-.05-.39-.14-.72-.2-.97-.03-.11.11-.16.15-.05.08.25.16.58.2,1.02.01.12-.15.12-.15,0h0Z"/>
            <path class="cls-10" d="M24.89,13.27c-.02-.22-.02-.44,0-.66,0-.12-.15-.12-.15,0-.01.22-.01.44,0,.66,0,.12.16.12.15,0h0Z"/>
            <path class="cls-10" d="M25.23,14.26c0-.28.03-.55.06-.83.01-.12-.14-.15-.15-.03-.03.28-.05.55-.06.83,0,.12.15.15.15.03h0Z"/>
            <path class="cls-10" d="M25.94,11.22c.04-.23.09-.45.16-.67.03-.12-.11-.17-.15-.06-.07.24-.12.47-.17.71-.02.12.13.13.15,0h0Z"/>
            <path class="cls-10" d="M27.55,8.17c.18-.27.37-.52.59-.74.08-.08-.01-.22-.09-.13-.23.24-.43.5-.62.78-.07.1.06.2.12.09h0Z"/>
            <path class="cls-10" d="M26.36,9c.08-.29.2-.53.37-.77.07-.1-.05-.21-.11-.12-.18.26-.31.54-.41.86-.03.12.12.14.15.03h0Z"/>
            <path class="cls-10" d="M26.36,7.99c.11-.42.22-.68.42-1.06.06-.11-.07-.2-.13-.1-.21.39-.33.67-.44,1.11-.03.12.12.17.15.05h0Z"/>
            <path class="cls-10" d="M27.02,7.77c.1-.18.21-.34.34-.49.08-.09-.04-.2-.11-.11-.14.16-.26.34-.37.53-.06.11.08.18.14.07h0Z"/>
            <path class="cls-10" d="M26.26,10.02c.05-.15.1-.3.14-.44.04-.11-.11-.17-.15-.06-.05.15-.1.3-.14.44-.04.11.11.17.15.06h0Z"/>
            <path class="cls-10" d="M24.57,14.88c0-.43,0-.45.02-.88,0-.12.16-.11.15.01-.03.43-.02.45-.02.88,0,.12-.15.11-.15-.01h0Z"/>
            <path class="cls-10" d="M24.79,12.01c0-.14,0-.28.01-.42,0-.12.16-.09.15.03,0,.12-.01.25-.01.37,0,.12-.15.14-.15.02h0Z"/>
            <path class="cls-10" d="M25.88,8.18c.04-.31.05-.67.18-.94.05-.11-.08-.2-.13-.1-.13.31-.16.7-.2,1.04-.02.12.14.12.15,0h0Z"/>
            <path class="cls-10" d="M23.2,9.76c.11.31.13.35.21.67.03.12.17.06.14-.06-.09-.32-.1-.36-.21-.67-.04-.11-.18-.05-.14.06h0Z"/>
            <path class="cls-10" d="M22.81,8.26c.07.19.12.39.15.59.02.12.17.11.15-.01-.04-.22-.09-.43-.16-.64-.04-.11-.18-.05-.14.06h0Z"/>
            <path class="cls-10" d="M22.5,8.28c-.17-.4-.35-.79-.55-1.18-.05-.11-.19-.03-.13.08.19.39.38.78.55,1.18.05.11.18.03.13-.08h0Z"/>
            <path class="cls-10" d="M22.81,7.55c-.03-.16-.07-.31-.1-.47-.03-.12-.17-.08-.15.04.03.16.07.31.1.47.03.12.17.08.15-.04h0Z"/>
            <path class="cls-10" d="M24.24,14.1c-.02-.16-.04-.31-.06-.47-.01-.12-.17-.1-.15.02.02.16.04.31.06.47.01.12.17.1.15-.02h0Z"/>
            <path class="cls-10" d="M22.52,9.4c.17.24.3.5.39.79.04.12.18.06.14-.06-.09-.31-.23-.58-.41-.84-.07-.1-.19,0-.12.1h0Z"/>
            <path class="cls-10" d="M23.47,11.31c-.02-.14-.05-.28-.08-.41-.03-.12-.17-.07-.15.05.03.12.05.24.07.36.02.12.18.12.16,0h0Z"/>
            <path class="cls-10" d="M26.82,9.14c.08-.12.15-.23.23-.35.06-.1-.08-.17-.14-.06-.06.11-.13.21-.2.31-.07.1.05.2.11.1h0Z"/>
            <path class="cls-10" d="M24.25,11.86c-.01-.14-.03-.28-.06-.42-.02-.12-.17-.08-.15.04.02.12.04.25.05.37.01.12.17.13.16,0h0Z"/>
            <path class="cls-10" d="M23.71,7.07c-.02-.14-.05-.28-.08-.41-.03-.12-.17-.07-.15.05.03.12.05.24.07.36.02.12.17.12.16,0h0Z"/>
            <path class="cls-10" d="M22.37,8.9c-.07-.12-.15-.24-.22-.36-.07-.1-.18,0-.12.1.07.1.13.21.2.31.06.1.2.05.14-.06h0Z"/>
            <path class="cls-10" d="M21.65,8.18c-.18-.25-.37-.55-.61-.74-.09-.07-.03-.22.07-.15.27.21.48.53.68.81.07.1-.06.17-.13.08h0Z"/>
          </g>
        </g>
      </g>
    </g>
  </g>
</svg>