<?xml version="1.0" encoding="UTF-8"?>
<svg id="Layer_2" xmlns="http://www.w3.org/2000/svg" version="1.1" viewBox="0 0 25.9 46.4">
  <!-- Generator: Adobe Illustrator 29.0.0, SVG Export Plug-In . SVG Version: 2.1.0 Build 186)  -->
  <defs>
    <style>
      .st0 {
        fill: #c67f2b;
      }

      .st1 {
        opacity: .3;
      }

      .st2 {
        fill: #f1a953;
      }

      .st3 {
        fill: #febf77;
      }

      .st4 {
        fill: #1d1f21;
      }

      .st5 {
        fill: #db7240;
      }

      .st6 {
        fill: #db9840;
      }

      .st7 {
        fill: #a2907d;
      }

      .st8 {
        fill: #93511a;
      }

      .st9 {
        fill: #fffff8;
      }
    </style>
  </defs>
  <g id="Layer_1-2">
    <g>
      <path class="st1" d="M17.1,42.9c-2.4-.1-4.5-.5-7.3-.3-2.8.1-.6,0-5.3.6-.6,0-1.2.2-1.8.4s-.9.8-.6,1.2c.3.5,1.1.6,1.8.8,5.1,1,9.6,1.1,15.6.6,1.7-.2,3.7-.2,4.5-1.3-1.5-1.6-4.4-1.8-7-1.9h0Z"/>
      <g>
        <path class="st0" d="M10.8,33c-2.1,1.6-5.5-.4-6.4-1.1-.4,1.1-.5,3.2,1.9,4.3s4.1-1.2,4.5-3.2Z"/>
        <g>
          <path class="st6" d="M17.8,21c-1.1.8-2.6,1.3-4.5,1.3s-3.6-.5-4.9-1.3c-1.4,2.2-2.8,5.2-2.9,8.9,0,4,2,7.5,7.7,7.5s7.7-4.4,7.4-8c-.2-2.5-1.4-6.1-2.9-8.4h0Z"/>
          <path class="st2" d="M18.2,29.8c0,3.3-2.3,5.5-5.1,5.5s-5.1-2.3-5.1-5.5,2.3-6.3,5.1-6.3,5.1,3,5.1,6.3Z"/>
        </g>
        <g>
          <path class="st6" d="M7,23.5c-3.8-1.6-5.4-5.9-5.5-5.9-.2.1-.5.9-.5,1.1-.3-.1-.8-.3-1.1-.4.2,1.8,2,6.4,6,8.2.2-1.1.6-2.1,1-3h0Z"/>
          <path class="st4" d="M2.2,18.9c-.4-.8-.6-1.3-.7-1.3-.2.1-.5.9-.5,1.1-.3-.1-.8-.3-1.1-.4,0,.4.1.8.3,1.4.5,0,1.3-.3,1.9-.8h0Z"/>
        </g>
        <g>
          <path class="st6" d="M24.9,18.7c0-.2-.3-1-.5-1.1,0,0-1.6,4.2-5.3,5.8.4,1,.8,2,1,3,3.9-1.9,5.6-6.3,5.8-8.1-.2,0-.7.2-1.1.4Z"/>
          <path class="st4" d="M23.7,18.9c.4-.8.6-1.3.7-1.3.2.1.5.9.5,1.1.3-.1.8-.3,1.1-.4,0,.4-.1.8-.3,1.4-.5,0-1.3-.3-1.9-.8h0Z"/>
        </g>
        <g>
          <path class="st6" d="M15.2,37.2c.4,3.1,1.5,7.6,1.9,7.7.4,0,.5-.5.6-.8,0,.2.5.7.8.5.3-.2.1-1.5,0-9-.8.8-1.9,1.4-3.3,1.7h0Z"/>
          <path class="st4" d="M16.5,43.5c.2.8.5,1.3.6,1.3.4,0,.5-.5.6-.8,0,.2.5.7.8.5.1,0,.2-.4.2-1.4-.7.2-1.4.4-2.1.4h0Z"/>
        </g>
        <g>
          <path class="st6" d="M7.7,35.5c0,7.6-.2,8.9,0,9.1.3.2.7-.3.8-.5,0,.3.2.9.6.8.4,0,1.5-4.6,1.9-7.7-1.4-.3-2.5-.9-3.3-1.7h0Z"/>
          <path class="st4" d="M9.7,43.5c-.2.8-.4,1.3-.6,1.3-.4,0-.5-.5-.6-.8,0,.2-.5.7-.8.5-.1,0-.2-.4-.2-1.4.7.2,1.4.4,2.1.4h0Z"/>
        </g>
      </g>
      <g>
        <path class="st7" d="M7.9,8c.3-.2.6-.4.9-.6-.5-.1-.9-.3-1.2-.6,0,0-.1-.1-.2-.2,0-.2,0-.4,0-.5.1-.2.3-.3.4-.4.4-.4.6-.8.6-1.3,0-.3,0-.5-.2-.7s-.5-.2-.7,0c-.1,0-.2.3-.2.4,0,.4-.2.7-.3,1.1,0,.2,0,.3-.2.4-.2,0-.3,0-.4-.1-.1-.1-.2-.3-.2-.4-.3-1.2-.2-2.4-.2-3.7,0-1-.5-1.2-.8-1.1-.6.2-.6.9-.6,1.5s.4,1.7,0,2c-.4.3-1.1-.5-1.4-.8-.1-.2-.3-.5-.5-.6s-.6-.1-.7,0c0,0,0,.2,0,.3,0,.5.4,1,.8,1.3.3.2.6.4.9.6.6.2.9.4,1.3.8.4.3.6.8.8,1.2.4.7,1.2,1.3,2,1.6h0Z"/>
        <path class="st7" d="M24,1.5c-.2,0-.5,0-.6.2s-.7,1-1.5,1.4c-.1,0-.3.1-.4,0-.3-.3.5-2.8-.5-3-.1,0-.7.2-.7,1.5,0,.6.2,1.8,0,2.5-.1.6-.3,1.4-.8,1.3-.5,0-.2-.9-.3-1.2,0-.2,0-.3-.1-.5s-.2-.3-.4-.3c-.1,0-.3,0-.4.2-.3.2-.3.7-.2,1,0,.5.1,1,.3,1.5,0,.2.1.3.1.5,0,.3-.2.5-.4.7-.1.1-.3.2-.4.3.2.2.5.3.7.5,1.2-.7,1.9-1.3,2.5-2.6.4-.8.9-1,1.2-1.2,1.5-.6,2-1.4,2.1-1.7.2-.5.1-.9-.2-1Z"/>
        <path class="st6" d="M21.3,13.9c-.2-4.3-3.4-7.6-8.1-7.6s-8.3,3.1-8.3,7.6c0,3.8,2.4,8.4,8.4,8.4s8.1-5.5,7.9-8.4Z"/>
        <path class="st0" d="M20.4,10.4c-1.3-2.5-3.9-4.1-7.1-4.1s-6.1,1.6-7.5,4.1c3.5-.8,6.3,1.8,7.3,7.2.6-5.6,4.3-8,7.3-7.2Z"/>
        <path class="st0" d="M1.3,6.2c-.1,0-.3,0-.4,0-.1.1-.2.3-.1.5,0,1.2,1,4.6,5.1,3.7.3-.5.6-1,1-1.4-1.4-1.5-3.5-2.6-5.5-2.8h0Z"/>
        <path class="st2" d="M6.3,9.6c-1.4-1-3.1-1.9-4.8-2.2,0,1.1,1.3,3.3,4.4,2.8.1-.2.2-.4.4-.6Z"/>
        <path class="st0" d="M24.9,6.2c.1,0,.3,0,.4,0,.1.1.1.3.1.5,0,1.2-1,4.6-5.1,3.7-.3-.5-.6-1-1-1.4,1.4-1.5,3.5-2.6,5.5-2.8h0Z"/>
        <path class="st2" d="M19.8,9.6c.1.2.2.4.4.6,3.1.5,4.4-1.7,4.4-2.8-1.7.3-3.3,1.2-4.8,2.2Z"/>
        <path class="st5" d="M20.6,17.2c0-1.3-2.3-1.4-2.5-.2-.2,1.5,2.5,1.7,2.5.2Z"/>
        <path class="st5" d="M5.7,17.2c0-1.3,2.3-1.4,2.5-.2.2,1.5-2.5,1.7-2.5.2Z"/>
        <g>
          <path class="st4" d="M7.7,15.3c.9,0,.9,1.5.1,1.6-1,.1-1.1-1.6-.1-1.6Z"/>
          <path class="st9" d="M7.9,15.4c.3,0,.3.5,0,.6-.3,0-.4-.6,0-.6Z"/>
        </g>
        <g>
          <path class="st4" d="M18.6,15.3c.9,0,.9,1.5.1,1.6-1,.1-1.1-1.6-.1-1.6Z"/>
          <path class="st9" d="M18.8,15.4c.3,0,.3.5,0,.6-.4,0-.4-.6,0-.6Z"/>
        </g>
        <g>
          <path class="st3" d="M15.7,17.4c0,2.4-4.9,2.4-5.2.3-.4-2.7,5.3-3,5.2-.3Z"/>
          <path class="st4" d="M14.1,16.2c0,.9-1.9.9-2,.1-.1-1,2-1.1,2-.1Z"/>
          <path class="st4" d="M14.7,17.7c-.2.4-.7.7-1.1.3-.3-.3-.3-.7-.3-1.1h-.3c0,.4,0,.8-.3,1.1-.4.4-.9.1-1.1-.3,0-.1-.3,0-.2.1.2.5.8.8,1.3.5.2-.1.4-.3.5-.5,0,.2.2.4.5.5.5.3,1.1,0,1.3-.5,0-.1-.1-.3-.2-.1h0Z"/>
        </g>
        <g>
          <path class="st8" d="M12.6,15.4c0-.2,0-.4,0-.6,0-.1.1-.1.1,0,0,.2,0,.4,0,.6s-.2.1-.1,0h0Z"/>
          <path class="st8" d="M12.1,12.7c0-.3,0-.6-.1-.8,0-.1.1-.2.1,0,0,.3,0,.5.1.8,0,.1-.1.2-.1,0h0Z"/>
          <path class="st8" d="M12.9,11.2c0-.2,0-.4,0-.7,0-.1.1-.1.1,0,0,.2,0,.5,0,.7s-.1.1-.1,0h0Z"/>
          <path class="st8" d="M11.8,8.3c0-.3-.1-.6-.2-.9,0-.1.1-.2.1,0,.1.3.2.6.2,1,0,.1-.1.1-.1,0h0Z"/>
          <path class="st8" d="M13.5,9.9c0,.3,0,.6,0,1s-.1.1-.1,0c0-.3,0-.6,0-1,0-.1.2-.1.1,0h0Z"/>
          <path class="st8" d="M13,10c0-.3,0-.6,0-.9,0-.1.1-.1.1,0,0,.3,0,.6,0,1,0,.1-.2.1-.1,0h0Z"/>
          <path class="st8" d="M12.5,9.8c0-.3,0-.6-.1-.8,0-.1.1-.2.1,0,.1.3.1.6.1.9s-.1.1-.1,0h0Z"/>
          <path class="st8" d="M12.7,13.2c0-.3,0-.6-.1-.9,0-.1.1-.2.1,0,0,.3.1.6.1,1,0,.1-.1.1-.1,0h0Z"/>
          <path class="st8" d="M13.8,8.5c0,.2,0,.4,0,.6s-.1.1-.1,0c0-.2,0-.4,0-.6,0-.1.2,0,.1,0h0Z"/>
          <path class="st8" d="M12.6,7.9c0-.4,0-.8,0-1.3,0-.1.1-.2.1,0,0,.4.1.9.1,1.3,0,.1-.2.1-.1,0h0Z"/>
          <path class="st8" d="M13.7,7.9c0-.4,0-.9,0-1.3,0-.1.2,0,.1,0,0,.4,0,.9,0,1.3,0,.1-.2.1-.1,0h0Z"/>
          <path class="st8" d="M13.1,8.7c0-.3,0-.5,0-.8,0-.1.2-.1.1,0,0,.3,0,.5,0,.8,0,.1-.2.1-.1,0h0Z"/>
          <path class="st8" d="M12.2,8.4c0-.2,0-.4-.1-.6,0-.1.1-.2.1,0,0,.2.1.4.1.6,0,.1-.1.1-.1,0h0Z"/>
          <path class="st8" d="M13.1,7.3c0-.2,0-.3,0-.5s.2-.1.1,0c0,.2,0,.3,0,.5s-.2.1-.1,0h0Z"/>
          <path class="st8" d="M11.9,9.4c0-.1,0-.3-.1-.4,0-.1.1-.2.1,0,0,.1,0,.3.1.4,0,.1-.1.2-.1,0h0Z"/>
          <path class="st8" d="M14.1,9.3c0-.1,0-.3,0-.5,0-.1.2,0,.1,0,0,.1,0,.3,0,.5,0,.1-.2,0-.1,0h0Z"/>
          <path class="st8" d="M13.4,15.2c0-.2,0-.3,0-.5,0-.1.2-.1.1,0,0,.2,0,.3,0,.5,0,.1-.2.1-.1,0h0Z"/>
          <path class="st8" d="M14.1,10c0,.3-.1.6-.1.9s-.1.1-.1,0c0-.3,0-.6.1-.9,0-.1.2,0,.1,0h0Z"/>
          <path class="st8" d="M14,11.5c-.1.4-.2.7-.2,1.1,0,.1-.2.1-.1,0,0-.4,0-.8.2-1.2,0-.1.2,0,.1,0h0Z"/>
          <path class="st8" d="M12.4,10.9c0-.4-.1-.7-.2-1,0-.1.1-.2.1,0,0,.2.2.6.2,1,0,.1-.1.1-.1,0h0Z"/>
          <path class="st8" d="M13.3,13.2c0-.2,0-.4,0-.6,0-.1-.1-.1-.1,0,0,.2,0,.4,0,.6,0,.1.2.1.1,0h0Z"/>
          <path class="st8" d="M13.6,14.2c0-.3,0-.6,0-.8,0-.1-.1-.1-.1,0,0,.3,0,.6,0,.8,0,.1.1.1.1,0h0Z"/>
          <path class="st8" d="M14.4,11.1c0-.2,0-.4.2-.7,0-.1-.1-.2-.1,0,0,.2-.1.5-.2.7,0,.1.1.1.1,0h0Z"/>
          <path class="st8" d="M15.9,8.1c.2-.3.4-.5.6-.7,0,0,0-.2,0-.1-.2.2-.4.5-.6.8,0,.1,0,.2.1,0h0Z"/>
          <path class="st8" d="M14.8,8.9c0-.3.2-.5.4-.8,0,0,0-.2-.1-.1-.2.3-.3.5-.4.9,0,.1.1.1.1,0h0Z"/>
          <path class="st8" d="M14.8,7.9c.1-.4.2-.7.4-1,0-.1,0-.2-.1,0-.2.4-.3.7-.4,1.1,0,.1.1.2.1,0h0Z"/>
          <path class="st8" d="M15.4,7.7c.1-.2.2-.3.3-.5,0,0,0-.2-.1-.1-.1.2-.3.3-.4.5,0,0,0,.2.1,0h0Z"/>
          <path class="st8" d="M14.7,9.9c0-.1,0-.3.1-.4,0-.1-.1-.2-.1,0,0,.1,0,.3-.1.4,0,.1.1.2.1,0h0Z"/>
          <path class="st8" d="M13,14.8c0-.4,0-.4,0-.9,0-.1.2-.1.1,0,0,.4,0,.4,0,.9s-.1.1-.1,0h0Z"/>
          <path class="st8" d="M13.2,11.9c0-.1,0-.3,0-.4,0-.1.2,0,.1,0,0,.1,0,.2,0,.4s-.1.1-.1,0h0Z"/>
          <path class="st8" d="M14.3,8.1c0-.3,0-.7.2-.9,0-.1,0-.2-.1,0-.1.3-.2.7-.2,1,0,.1.1.1.1,0h0Z"/>
          <path class="st8" d="M11.6,9.7c.1.3.1.4.2.7,0,.1.2,0,.1,0,0-.3-.1-.4-.2-.7,0-.1-.2,0-.1,0h0Z"/>
          <path class="st8" d="M11.2,8.2c0,.2.1.4.1.6,0,.1.2.1.1,0,0-.2,0-.4-.2-.6,0-.1-.2,0-.1,0h0Z"/>
          <path class="st8" d="M10.9,8.2c-.2-.4-.4-.8-.5-1.2,0-.1-.2,0-.1,0,.2.4.4.8.5,1.2,0,.1.2,0,.1,0h0Z"/>
          <path class="st8" d="M11.2,7.5c0-.2,0-.3-.1-.5,0-.1-.2,0-.1,0,0,.2,0,.3.1.5,0,.1.2,0,.1,0h0Z"/>
          <path class="st8" d="M12.7,14c0-.2,0-.3,0-.5,0-.1-.2-.1-.1,0,0,.2,0,.3,0,.5,0,.1.2.1.1,0h0Z"/>
          <path class="st8" d="M11,9.3c.2.2.3.5.4.8,0,.1.2,0,.1,0,0-.3-.2-.6-.4-.8,0-.1-.2,0-.1.1h0Z"/>
          <path class="st8" d="M11.9,11.2c0-.1,0-.3,0-.4,0-.1-.2,0-.1,0s0,.2,0,.4c0,.1.2.1.1,0h0Z"/>
          <path class="st8" d="M15.2,9.1c0-.1.1-.2.2-.4,0-.1,0-.2-.1,0s-.1.2-.2.3,0,.2.1.1h0Z"/>
          <path class="st8" d="M12.7,11.8c0-.1,0-.3,0-.4,0-.1-.2,0-.1,0s0,.2,0,.4c0,.1.2.1.1,0h0Z"/>
          <path class="st8" d="M12.1,7c0-.1,0-.3,0-.4,0-.1-.2,0-.1,0,0,.1,0,.2,0,.4,0,.1.2.1.1,0h0Z"/>
          <path class="st8" d="M10.8,8.8c0-.1-.1-.2-.2-.4,0-.1-.2,0-.1.1,0,.1.1.2.2.3,0,.1.2,0,.1,0h0Z"/>
          <path class="st8" d="M10.1,8.1c-.2-.2-.4-.6-.6-.7,0,0,0-.2,0-.2.3.2.5.5.7.8,0,.1,0,.2-.1,0h0Z"/>
        </g>
      </g>
    </g>
  </g>
</svg>