<?xml version="1.0" encoding="UTF-8"?>
<svg id="Layer_2" data-name="Layer 2" xmlns="http://www.w3.org/2000/svg" viewBox="0 0 22.47 34.76">
  <defs>
    <style>
      .cls-1 {
        fill: #f19446;
      }

      .cls-2 {
        fill: #fff;
      }

      .cls-3 {
        fill: #1d1f21;
      }

      .cls-4 {
        fill: #f9c7c7;
      }

      .cls-5 {
        fill: #bc2828;
      }

      .cls-6 {
        fill: #c0cece;
      }

      .cls-7 {
        fill: #faeada;
      }
    </style>
  </defs>
  <g id="Layer_1-2" data-name="Layer 1">
    <g>
      <path class="cls-6" d="M7.55,34.4c2.22.11,4.09.45,6.66.33,2.57-.12.59,0,4.89-.58.56-.08,1.14-.16,1.61-.43.47-.27.78-.8.57-1.24-.24-.52-1.01-.62-1.66-.76-4.67-.98-8.78-1.14-14.32-.57-1.54.16-4.15.58-4.18,1.43-.03.85,4.09,1.71,6.43,1.82Z"/>
      <g>
        <g>
          <path class="cls-5" d="M14.72,31.61c-.06.88,4.87,1.92,5.07,1.05.4-1.7-5.01-1.93-5.07-1.05Z"/>
          <path class="cls-1" d="M16.31,32c3.27.15,4.9-3.8,2.72-5.69-1.81-1.57-4.57-.76-5.3,1.36-.65,1.89.14,4.22,2.58,4.33Z"/>
        </g>
        <g>
          <path class="cls-5" d="M8.09,31.61c.06.88-4.87,1.92-5.07,1.05-.4-1.7,5.01-1.93,5.07-1.05Z"/>
          <path class="cls-1" d="M6.49,32c-3.27.15-4.9-3.8-2.72-5.69,1.81-1.57,4.57-.76,5.3,1.36.65,1.89-.14,4.22-2.58,4.33Z"/>
        </g>
        <path class="cls-1" d="M16.18,17.99c-1.36.69-3.03,1.2-5.04,1.25-2.12.05-3.76-.35-5.06-.9-.62,2.02-1.01,4.06-1.11,6.29-.16,3.32.06,7.2,6.6,7.2s6.57-4.8,6.31-7.3c-.22-2.16-.8-4.45-1.7-6.54Z"/>
        <g>
          <path class="cls-5" d="M10.33,31.45c-.44-1.55-.23-3.51-.26-5.56-.02-1.25-2.08-1.33-2.07.08.03,2.26-.06,4.91.66,6.12.43.73,1.08,1.11,1.55.79.44-.3.25-.99.13-1.43Z"/>
          <path class="cls-5" d="M14.81,25.79c-.17-1.21-1.99-1.14-1.92.07.03.54.12,3.49-.03,4.77-.1.8-.64,2.12.09,2.33.64.19,1.36-.68,1.59-1.56.39-1.45.36-4.97.27-5.61Z"/>
        </g>
        <path class="cls-7" d="M16.37,19.55c.06-.27-.16-.85-.45-1.45-1.31.63-2.9,1.09-4.78,1.13-1.93.04-3.46-.28-4.7-.76-.19.47-.28.95-.24,1.22.06.03.17-.02.41-.07-.39.56-.53,1.31-.53,1.99.21.02.45-.14.47-.19-.26.68-.29,1.45-.31,1.84.13.05.45-.11.54-.29.03.15-.23,1.22.19,2.11.14,0,.34-.3.39-.44.18.81.47,1.07,1.03,1.69.12-.14.2-.42.17-.63.31.43.55,1.29,1.13,1.82.11-.08.29-.38.24-.6.35.8,1.06.89,1.42,1.38.12-.23.7-.5.82-.73.04.25.13.33.33.46.19-.73.69-.71.88-1.44.1.23.11.35.23.51.23-.1.84-1.08.81-1.62.04.4.19.53.46.66.12-.54.45-1.21.23-1.94.06.2.17.38.4.47.36-.82.56-1.31.08-2.06.1.17.28.24.59.29-.01-.71.05-1.46-.33-2.06.09.12.32.26.56.2-.09-.58-.34-1.35-.58-1.74.07.13.31.25.54.24Z"/>
      </g>
      <g>
        <g>
          <path class="cls-1" d="M19.78,6.84c1.59-2.59,1.02-6.53.46-6.81-.54-.27-3.88,1.43-5.13,3.63,2.74.7,4.06,2.04,4.67,3.18Z"/>
          <path class="cls-5" d="M18.86,5.61c.61-1.11,1.13-3.05.73-4.09-1.15.39-2.21,1.51-2.98,2.63.99.42,1.72.93,2.25,1.46Z"/>
        </g>
        <g>
          <path class="cls-1" d="M2.55,7.17c.04-.09.09-.19.13-.28.55-1.06,1.93-2.42,4.36-3.16C5.48,1.34,2.13.16,1.67.51c-.5.38-.62,4.58.81,6.7l.07-.04Z"/>
          <path class="cls-5" d="M5.7,4.24c-.75-.98-1.79-1.64-2.9-2.03-.21,1.42.05,2.44.56,3.72.53-.6,1.31-1.2,2.34-1.69Z"/>
        </g>
        <g>
          <path class="cls-1" d="M20.48,10.07c0-.98-.13-1.97-.52-2.87-.68-1.58-2.69-3.77-8.19-4.01S3.52,5.27,2.68,6.89c-.92,1.77-.91,4.01-.4,6.04.23.89,1.84,6.34,8.8,6.24,7.29-.1,9.39-6,9.39-9.11Z"/>
          <path class="cls-2" d="M22.37,10c-2.94-2.1-6.34-1.55-8.61.97-.51.57-1.34,2.36-1.48,3.31-.41-.16-1.02-.17-1.42,0-1.13-3.05-2.98-4.57-4.59-4.85-3.31-.59-5.66,1.33-6.08,1.63.66.65,1.12.77,1.8,1.29-.78.31-1.28.82-2,.99.55.47,1.61,1.1,2.8,1.33-.41.14-1.01.54-1.11.76,1.39.77,3.62,3.95,9.44,3.82,6.38-.14,9.38-5.02,9.76-5.32-.25-.22-.4-.39-.82-.53.83-.2,2.28-.76,2.4-1.3-.85-.3-1.18-.84-1.87-.92.57-.53,1.78-1.01,1.77-1.18Z"/>
          <g>
            <path class="cls-2" d="M12.05,13.49c.14-.43.27-.86.48-1.27.04-.07.15,0,.11.07-.2.39-.33.81-.46,1.23-.02.08-.15.05-.13-.03h0Z"/>
            <path class="cls-2" d="M12.89,11.1c.2-.43.45-.82.75-1.19.05-.07.16.01.11.08-.29.35-.54.74-.73,1.16-.04.07-.16.03-.12-.05h0Z"/>
            <path class="cls-2" d="M14.49,9.07c.37-.27.72-.56,1.06-.87.06-.06.14.04.08.1-.34.31-.69.6-1.06.87-.07.05-.15-.05-.08-.1h0Z"/>
            <path class="cls-2" d="M12.64,3.53c-.09.45-.14.9-.17,1.36,0,.08-.13.07-.13-.02.03-.46.09-.91.17-1.36.02-.08.15-.06.13.02h0Z"/>
            <path class="cls-2" d="M16.58,7.74c.33-.19.66-.36,1-.52.08-.04.13.08.05.12-.34.16-.67.33-1,.52-.07.04-.13-.08-.05-.12h0Z"/>
            <path class="cls-2" d="M18.51,7.3c.22-.05.43-.09.65-.14.08-.02.12.11.04.12-.22.05-.43.1-.65.14-.08.02-.12-.11-.04-.12h0Z"/>
            <path class="cls-2" d="M10.82,13.29c-.15-.43-.36-.84-.63-1.22-.05-.07.07-.13.11-.06.27.39.49.8.64,1.25.03.08-.1.11-.13.03h0Z"/>
            <path class="cls-2" d="M8.76,9.89c.36.36.71.73,1.07,1.09.06.06-.03.16-.09.1-.36-.36-.71-.73-1.07-1.09-.06-.06.03-.16.09-.1h0Z"/>
            <path class="cls-2" d="M7.7,9.51c-.32-.13-.63-.28-.96-.39-.08-.03-.03-.15.05-.12.33.1.64.26.96.39.08.03.02.15-.05.12h0Z"/>
            <path class="cls-2" d="M5.49,8.79c-.4-.11-.84-.23-1.27-.24-.08,0-.07-.13.01-.13.44.01.88.13,1.3.25.08.02.03.15-.05.12h0Z"/>
            <path class="cls-2" d="M19.11,8.19c-.42.02-.87.05-1.28.17-.08.02-.11-.1-.03-.13.42-.13.88-.16,1.31-.18.08,0,.08.13,0,.13h0Z"/>
            <path class="cls-2" d="M3.11,8.37c-.12-.02-.25-.03-.38-.05-.08-.01-.07-.14.02-.13.12.02.25.03.38.05.09.01.07.14-.02.13h0Z"/>
            <path class="cls-2" d="M4.74,5.72c-.12-.05-.23-.1-.35-.15-.08-.03-.03-.16.05-.12.12.05.23.1.35.15.08.03.03.16-.05.12h0Z"/>
            <path class="cls-2" d="M11.4,13.65c-.04-.3-.09-.6-.14-.9-.01-.08.11-.1.13-.02.05.3.1.6.14.9.01.08-.12.1-.13.02h0Z"/>
            <path class="cls-2" d="M10.84,11.82c-.2-.4-.37-.87-.67-1.21-.06-.06.05-.15.1-.08.31.35.49.82.69,1.24.04.08-.08.13-.12.05h0Z"/>
            <path class="cls-2" d="M11.7,12.58c-.05-.37,0-.72.04-1.09,0-.08.14-.07.13.01-.03.35-.09.7-.04,1.05.01.08-.12.1-.13.02h0Z"/>
            <path class="cls-2" d="M12.14,11.32c.06-.41.18-.79.35-1.16.04-.08.16-.03.12.05-.17.36-.28.74-.34,1.13-.01.08-.14.07-.13-.01h0Z"/>
            <path class="cls-2" d="M7,4.29c.3.28.54.6.75.96.04.07-.07.15-.11.07-.2-.35-.44-.66-.72-.93-.06-.06.03-.16.09-.1h0Z"/>
            <path class="cls-2" d="M11.49,10.26c-.03-.29-.06-.57-.09-.86,0-.08.12-.08.13,0,.03.29.06.57.09.86,0,.08-.13.09-.13,0h0Z"/>
            <path class="cls-2" d="M8.29,4.62c-.14-.25-.28-.5-.41-.76-.04-.07.08-.13.12-.05.14.25.28.5.42.76.04.08-.08.13-.12.05h0Z"/>
            <path class="cls-2" d="M14.16,10c.21-.19.42-.39.63-.59.06-.06.14.05.08.1-.21.2-.42.39-.63.59-.06.06-.14-.05-.08-.11h0Z"/>
            <path class="cls-2" d="M11.25,8.28c-.04-.5-.13-.99-.28-1.47-.03-.08.09-.13.12-.05.15.49.24.99.29,1.5,0,.08-.12.11-.13.02h0Z"/>
            <path class="cls-2" d="M10.91,5.92c-.07-.32-.14-.63-.21-.94-.02-.08.11-.1.13-.02.07.31.14.63.21.94.02.08-.11.1-.13.02h0Z"/>
            <path class="cls-2" d="M10.48,10.12c-.15-.44-.38-.89-.64-1.28-.05-.07.05-.15.1-.08.27.4.51.85.66,1.31.03.08-.09.13-.12.06h0Z"/>
            <path class="cls-2" d="M14.87,3.95c-.3.36-.56.8-.75,1.22-.03.08-.16.04-.12-.04.19-.44.46-.88.76-1.25.05-.07.16,0,.11.07h0Z"/>
            <path class="cls-2" d="M8.87,6.92c-.23-.3-.44-.61-.66-.92-.05-.07.06-.15.1-.08.21.31.43.62.66.92.05.07-.05.15-.1.08h0Z"/>
            <path class="cls-2" d="M8.69,9.33c-.34-.4-.77-.75-1.19-1.06-.07-.05,0-.16.08-.11.43.32.87.68,1.22,1.08.06.06-.05.15-.1.08h0Z"/>
            <path class="cls-2" d="M6.26,7.48c-.43-.27-.87-.49-1.34-.67-.08-.03-.03-.15.05-.12.48.18.94.41,1.37.68.07.04,0,.15-.08.1h0Z"/>
            <path class="cls-2" d="M13.22,8.81c.2-.36.51-.67.79-.96.06-.06.17.02.11.08-.27.3-.59.61-.79.96-.04.07-.15,0-.11-.08h0Z"/>
            <path class="cls-2" d="M16.28,5.39c.28-.3.66-.52.99-.75.07-.05.16.05.08.1-.34.22-.72.45-.99.75-.06.06-.14-.04-.09-.1h0Z"/>
            <path class="cls-2" d="M14.71,7.09c.16-.13.32-.25.49-.38.07-.05.15.05.08.1-.16.13-.33.25-.49.38-.07.05-.15-.05-.08-.1h0Z"/>
            <path class="cls-2" d="M12.19,8.43c.11-.47.22-.94.33-1.41.02-.08.15-.07.13.01-.11.47-.22.94-.33,1.41-.02.08-.15.07-.13-.01h0Z"/>
            <path class="cls-2" d="M13.02,5.65c.09-.22.17-.44.26-.65.03-.08.15-.03.12.05-.09.22-.17.44-.26.65-.03.08-.15.03-.12-.05h0Z"/>
            <path class="cls-2" d="M14.79,8.02c.27-.26.55-.5.84-.73.07-.05.15.05.08.1-.3.23-.57.47-.84.73-.06.06-.14-.04-.08-.1h0Z"/>
            <path class="cls-2" d="M16.74,6.75c.16-.11.31-.22.47-.33.07-.05.15.05.08.1-.16.11-.31.22-.47.33-.07.05-.15-.05-.08-.1h0Z"/>
            <path class="cls-2" d="M14.61,6.3c.28-.4.58-.76.94-1.09.06-.06.14.05.08.1-.35.32-.64.68-.91,1.07-.05.07-.15,0-.11-.08h0Z"/>
            <path class="cls-2" d="M12.98,6.83c.11-.32.25-.64.4-.94.04-.07.16-.03.12.05-.16.3-.29.62-.4.94-.03.08-.15.03-.12-.05h0Z"/>
            <path class="cls-2" d="M13.3,9.58c.12-.16.23-.33.35-.49.05-.07.16,0,.11.08-.11.16-.23.33-.35.49-.05.07-.15,0-.11-.08h0Z"/>
            <path class="cls-2" d="M11.16,4.15c0-.2,0-.4,0-.6,0-.08.13-.08.13,0,0,.2,0,.4,0,.6,0,.08-.13.08-.13,0h0Z"/>
            <path class="cls-2" d="M6.07,5.06c-.16-.12-.32-.24-.49-.35-.07-.05.01-.16.08-.11.16.11.32.23.49.35.07.05,0,.15-.08.11h0Z"/>
            <path class="cls-2" d="M17.84,5.54c.19-.07.37-.15.56-.23.08-.03.13.09.05.12-.18.08-.37.15-.56.22-.08.03-.12-.09-.05-.12h0Z"/>
            <path class="cls-2" d="M3.44,6.34c.2.03.4.05.6.08.08.01.06.14-.02.13-.2-.02-.4-.05-.59-.08-.08-.01-.06-.14.02-.13h0Z"/>
            <path class="cls-2" d="M12.22,9.54c.11-.32.22-.65.31-.98.02-.08.14-.03.12.05-.09.33-.2.66-.31.98-.03.08-.15.03-.12-.05h0Z"/>
            <path class="cls-2" d="M9.87,4.69c-.07-.33-.15-.67-.25-1-.02-.08.11-.1.13-.02.1.33.18.66.25,1,.02.08-.11.1-.13.02h0Z"/>
            <path class="cls-2" d="M11.75,8.73c0-.27,0-.54.01-.81,0-.09.13-.07.13.01,0,.27,0,.54-.01.81,0,.08-.13.07-.13-.01h0Z"/>
            <path class="cls-2" d="M11.82,6.57c.06-.32.11-.63.16-.95.01-.08.14-.07.13.01-.05.32-.11.63-.16.95-.01.08-.14.07-.13-.01h0Z"/>
            <path class="cls-2" d="M10.64,9.05c-.08-.31-.17-.62-.25-.93-.02-.08.11-.1.13-.02.09.31.17.62.25.93.02.08-.11.1-.13.02h0Z"/>
            <path class="cls-2" d="M10.03,7.26c-.13-.3-.28-.59-.45-.86-.04-.07.06-.15.1-.08.17.29.33.58.47.89.03.08-.09.13-.12.05h0Z"/>
            <path class="cls-2" d="M9.18,5.45c-.14-.2-.24-.42-.3-.65-.02-.08.11-.1.13-.02.05.22.15.41.27.59.05.07-.05.15-.1.08h0Z"/>
            <path class="cls-2" d="M7.31,6.53c-.34-.29-.67-.58-1-.88-.06-.05.01-.16.08-.11.33.29.67.58,1,.88.06.06-.02.16-.08.11h0Z"/>
            <path class="cls-2" d="M8.58,7.89c-.18-.26-.38-.5-.6-.74-.06-.06.03-.16.09-.1.22.24.43.49.62.76.05.07-.06.14-.11.07h0Z"/>
            <path class="cls-2" d="M3.94,9.17c-.32,0-.63.03-.94.08-.08.01-.11-.11-.03-.13.32-.05.65-.07.98-.08.08,0,.08.13,0,.13h0Z"/>
            <path class="cls-2" d="M19.09,6.31c-.31.07-.61.15-.91.26-.08.03-.13-.09-.05-.12.31-.11.62-.2.94-.27.08-.02.1.11.02.13h0Z"/>
            <path class="cls-2" d="M9.67,9.59c-.11-.11-.21-.23-.31-.34-.06-.06.05-.15.1-.08.1.12.21.23.31.35.06.06-.05.14-.1.08h0Z"/>
            <path class="cls-2" d="M16.63,8.58c-.14.07-.28.13-.42.19-.08.04-.12-.09-.05-.12.14-.06.28-.13.42-.19.08-.03.12.09.05.12h0Z"/>
            <path class="cls-2" d="M6.75,8.53c-.37-.29-.81-.46-1.21-.69-.07-.04-.03-.16.05-.12.41.23.87.41,1.24.7.07.05-.01.16-.08.11h0Z"/>
            <path class="cls-2" d="M7.42,7.52c-.16-.13-.33-.27-.49-.4-.07-.05.01-.16.08-.11.16.13.33.27.49.4.07.05-.01.16-.08.1h0Z"/>
            <path class="cls-2" d="M4.45,7.74c-.44-.09-.87-.18-1.31-.26-.08-.02-.06-.15.02-.13.44.09.87.18,1.31.26.08.02.06.15-.02.13h0Z"/>
            <path class="cls-2" d="M9.58,8.07c-.07-.16-.16-.3-.28-.43-.06-.06.04-.14.1-.08.13.14.22.29.3.46.03.08-.09.13-.12.05h0Z"/>
            <path class="cls-2" d="M11.2,11c-.01-.17-.05-.32-.13-.47-.04-.07.08-.13.12-.05.09.16.13.32.14.5,0,.08-.13.1-.13.02h0Z"/>
            <path class="cls-2" d="M16.31,4.34c-.14.09-.26.2-.35.34-.05.07-.15,0-.1-.08.1-.15.22-.27.38-.36.07-.04.15.06.08.1h0Z"/>
            <path class="cls-2" d="M5.94,6.43c-.15-.06-.28-.14-.41-.24-.07-.05,0-.16.08-.11.12.09.24.16.38.22.08.03.03.16-.05.12h0Z"/>
            <path class="cls-2" d="M10.24,6.17c-.04-.2-.1-.38-.19-.55-.04-.08.08-.13.12-.05.1.19.16.38.2.59.02.08-.11.1-.13.02h0Z"/>
            <path class="cls-2" d="M15.05,4.88c-.13.15-.23.31-.31.5-.04.08-.15.02-.12-.06.08-.19.19-.36.33-.52.05-.07.15.02.1.09h0Z"/>
            <path class="cls-2" d="M11.53,5.19c0-.11,0-.22,0-.33,0-.08.14-.07.13.01-.01.1-.01.19-.01.29,0,.08-.13.1-.13.02h0Z"/>
            <path class="cls-2" d="M13.67,4.02c.04-.1.08-.2.13-.3.04-.07.16-.01.12.06-.05.09-.08.17-.12.27-.03.08-.16.05-.13-.03h0Z"/>
            <path class="cls-2" d="M15.79,6.46c.32-.3.68-.55,1.07-.75.08-.04.13.08.05.12-.38.2-.73.44-1.04.73-.06.06-.14-.04-.08-.1h0Z"/>
            <path class="cls-2" d="M13.24,7.69c.16-.41.39-.78.66-1.13.05-.07.15.02.1.09-.26.34-.48.7-.64,1.1-.03.08-.15.02-.12-.06h0Z"/>
          </g>
        </g>
        <g>
          <path class="cls-4" d="M18.82,14.12c-.04-.25-.21-.45-.4-.59-.57-.41-1.69-.02-1.77.75-.07.77.77,1.13,1.04,1.12.27-.02,1.28-.29,1.13-1.28Z"/>
          <path class="cls-4" d="M6.62,14.43c-.08-.83-1.41-.76-1.79-.56-.38.2-.63.67-.48,1.07.45,1.19,2.41.84,2.28-.51Z"/>
          <path class="cls-3" d="M10.5,14.58c-.24.63.62,1.22,1.12,1.24.5.02,1.3-.58,1.1-1.19-.2-.61-1.98-.68-2.22-.05Z"/>
          <path class="cls-3" d="M12.72,16.62c-.21.33-.58.39-.78.02-.13-.24-.17-.54-.18-.82-.04,0-.09.01-.13,0-.05,0-.1-.01-.16-.03,0,.27-.05.57-.17.81-.17.36-.64.46-.82.05-.07-.15-.29-.02-.22.13.19.44.78.54,1.11.19.11-.12.19-.27.25-.44.06.18.16.35.3.46.38.31.81.1,1.04-.26.09-.14-.14-.27-.22-.13Z"/>
          <path class="cls-3" d="M17.21,14.04c-.07,0-.15-.04-.17-.12-.18-.46-.52-.74-.88-.74s-.69.28-.88.74c-.04.1-.15.14-.24.1-.1-.04-.14-.15-.1-.24.24-.6.71-.98,1.22-.98s.98.37,1.23.98c.04.1,0,.21-.1.24-.02,0-.05.01-.07.01Z"/>
          <path class="cls-3" d="M7.75,14.04c-.07,0-.15-.04-.17-.12-.18-.46-.52-.74-.88-.74s-.69.28-.88.74c-.04.1-.15.14-.24.1-.1-.04-.14-.15-.1-.24.24-.6.71-.98,1.23-.98s.98.37,1.22.98c.04.1,0,.21-.1.24-.02,0-.05.01-.07.01Z"/>
        </g>
      </g>
    </g>
  </g>
</svg>