<?xml version="1.0" encoding="UTF-8"?>
<svg id="Layer_2" data-name="Layer 2" xmlns="http://www.w3.org/2000/svg" viewBox="0 0 32.21 43.01">
  <defs>
    <style>
      .cls-1 {
        fill: #f19446;
      }

      .cls-2 {
        fill: #ea7f36;
      }

      .cls-3 {
        fill: #fff;
      }

      .cls-4 {
        fill: #1d1f21;
      }

      .cls-5 {
        fill: #f9c7c7;
      }

      .cls-6 {
        fill: #ffa766;
      }

      .cls-7 {
        fill: #bc2828;
      }

      .cls-8 {
        fill: #c0cece;
      }

      .cls-9 {
        fill: #faeada;
      }
    </style>
  </defs>
  <g id="Layer_1-2" data-name="Layer 1">
    <g>
      <path class="cls-8" d="M14.91,42.64c-2.24.11-4.13.47-6.73.34-2.6-.12-.6,0-4.94-.6-.57-.08-1.15-.16-1.62-.45s-.79-.83-.58-1.29c.24-.54,1.02-.64,1.67-.79,4.72-1.02,8.87-1.18,14.47-.6,1.56.16,3.4.19,4.19,1.36-1.43,1.64-4.1,1.9-6.47,2.02Z"/>
      <g>
        <path class="cls-2" d="M17.14,19.62c.73-13.73,11.48-12.1,15.07-10.17-4.35,3.08-4.02,7.83-4.24,14.95-.2,6.35-4.38,12.57-16.68,9.46,6.23-1.97,5.67-10.93,5.85-14.23Z"/>
        <path class="cls-9" d="M32.21,9.44c-2.47,1.75-3.43,4.03-3.84,6.98-.21.2-.88.64-1.06.72-.07-.3-.24-1.43-.28-1.77-.32.03-1.28.76-1.59.83-.17-.32-.08-1.35-.16-1.75-.38.25-1.52.66-1.7.71.05-.46.09-1.28.14-1.68-.37-.05-1.28.47-1.52.48-.03-.33.15-1.1.16-1.59-.48.12-.97.16-1.66.37.07-.56.35-1.27.62-1.64-.55.08-.94.07-1.42.05,3.62-4.3,9.76-3.09,12.31-1.72Z"/>
      </g>
      <g>
        <g>
          <path class="cls-1" d="M3.03,6.84C1.44,4.25,2.01.3,2.57.03c.54-.27,3.88,1.43,5.13,3.63-2.74.7-4.06,2.04-4.67,3.19Z"/>
          <path class="cls-7" d="M3.95,5.61c-.61-1.11-1.13-3.05-.73-4.09,1.15.39,2.21,1.51,2.98,2.63-.99.42-1.72.93-2.25,1.46Z"/>
        </g>
        <g>
          <path class="cls-1" d="M20.26,7.17c-.04-.09-.09-.19-.13-.28-.55-1.06-1.93-2.42-4.36-3.16,1.57-2.38,4.91-3.57,5.38-3.22.5.38.63,4.58-.81,6.7l-.07-.04Z"/>
          <path class="cls-7" d="M17.11,4.24c.75-.98,1.79-1.64,2.9-2.03.21,1.42-.05,2.44-.56,3.72-.53-.6-1.31-1.2-2.34-1.69Z"/>
        </g>
        <g>
          <path class="cls-1" d="M2.34,10.07c0-.98.13-1.97.52-2.87.68-1.58,2.69-3.77,8.19-4.01,5.5-.23,8.25,2.08,9.09,3.7.92,1.77.91,4.01.4,6.04-.23.89-1.84,6.34-8.8,6.24-7.29-.1-9.39-6-9.39-9.11Z"/>
          <path class="cls-3" d="M.44,10c2.94-2.1,6.34-1.55,8.61.97.51.57,1.34,2.36,1.48,3.31.41-.16,1.02-.17,1.42,0,1.13-3.05,2.98-4.57,4.59-4.85,3.31-.59,5.66,1.33,6.08,1.63-.66.65-1.12.77-1.8,1.29.78.31,1.28.82,2,.99-.55.47-1.61,1.1-2.8,1.33.41.14,1.01.54,1.11.76-1.39.77-3.62,3.95-9.44,3.82-6.38-.14-9.38-5.02-9.76-5.32.25-.22.4-.39.82-.53-.83-.2-2.28-.76-2.4-1.3.85-.3,1.18-.84,1.87-.92-.57-.53-1.78-1.01-1.77-1.18Z"/>
          <g>
            <path class="cls-3" d="M10.76,13.49c-.14-.43-.27-.86-.48-1.27-.04-.07-.15,0-.11.07.2.39.33.81.46,1.23.02.08.15.05.13-.03h0Z"/>
            <path class="cls-3" d="M9.92,11.1c-.2-.43-.45-.82-.75-1.19-.05-.07-.16.01-.11.08.29.35.54.74.73,1.16.04.07.16.03.12-.05h0Z"/>
            <path class="cls-3" d="M8.33,9.07c-.37-.27-.72-.56-1.06-.87-.06-.06-.14.04-.08.1.34.31.69.6,1.06.87.07.05.15-.05.08-.1h0Z"/>
            <path class="cls-3" d="M10.17,3.53c.09.45.14.9.17,1.36,0,.09.13.07.13-.02-.03-.46-.09-.91-.17-1.36-.02-.08-.15-.06-.13.02h0Z"/>
            <path class="cls-3" d="M6.23,7.74c-.33-.19-.66-.36-1-.52-.08-.04-.13.08-.05.12.34.16.67.33,1,.52.07.04.13-.08.05-.12h0Z"/>
            <path class="cls-3" d="M4.3,7.3c-.22-.05-.43-.09-.65-.14-.08-.02-.12.11-.04.12.22.05.43.1.65.14.08.02.12-.11.04-.12h0Z"/>
            <path class="cls-3" d="M12,13.29c.15-.43.36-.84.63-1.21.05-.07-.07-.13-.11-.06-.27.39-.49.8-.64,1.25-.03.08.1.11.13.03h0Z"/>
            <path class="cls-3" d="M14.06,9.89c-.36.36-.71.73-1.07,1.09-.06.06.03.16.09.1.36-.36.71-.73,1.07-1.09.06-.06-.03-.16-.09-.1h0Z"/>
            <path class="cls-3" d="M15.11,9.51c.32-.13.63-.28.96-.39.08-.03.03-.15-.05-.12-.33.11-.64.26-.96.39-.08.03-.02.15.05.12h0Z"/>
            <path class="cls-3" d="M17.32,8.79c.4-.11.84-.23,1.27-.24.08,0,.07-.13-.01-.13-.44.01-.88.13-1.3.25-.08.02-.03.15.05.12h0Z"/>
            <path class="cls-3" d="M3.7,8.19c.42.02.87.05,1.28.18.08.02.11-.1.03-.13-.42-.13-.88-.16-1.31-.18-.08,0-.08.13,0,.13h0Z"/>
            <path class="cls-3" d="M19.71,8.37c.12-.02.25-.03.38-.05.08-.01.07-.14-.02-.13-.13.02-.25.03-.38.05-.09.01-.07.14.02.13h0Z"/>
            <path class="cls-3" d="M18.07,5.72c.12-.05.23-.1.35-.15.08-.03.03-.16-.05-.12-.12.05-.23.1-.35.15-.08.03-.03.16.05.12h0Z"/>
            <path class="cls-3" d="M11.41,13.65c.04-.3.09-.6.14-.9.01-.08-.11-.1-.13-.02-.05.3-.1.6-.14.9-.01.08.12.1.13.02h0Z"/>
            <path class="cls-3" d="M11.98,11.82c.2-.4.37-.87.67-1.21.06-.06-.05-.15-.1-.08-.31.35-.49.82-.69,1.24-.04.08.08.13.12.05h0Z"/>
            <path class="cls-3" d="M11.11,12.58c.05-.37,0-.72-.04-1.09,0-.08-.14-.07-.13.01.03.35.09.7.04,1.05-.01.08.12.1.13.02h0Z"/>
            <path class="cls-3" d="M10.68,11.32c-.06-.41-.18-.79-.35-1.16-.04-.08-.16-.03-.12.05.17.36.28.74.34,1.13.01.08.14.07.13-.01h0Z"/>
            <path class="cls-3" d="M15.82,4.29c-.3.28-.54.6-.75.96-.04.07.07.15.11.07.2-.35.44-.66.72-.93.06-.06-.03-.16-.09-.1h0Z"/>
            <path class="cls-3" d="M11.32,10.26c.03-.29.06-.57.09-.86,0-.08-.12-.08-.13,0-.03.29-.06.57-.09.86,0,.08.13.09.13,0h0Z"/>
            <path class="cls-3" d="M14.52,4.62c.14-.25.28-.5.41-.76.04-.07-.08-.13-.12-.05-.14.25-.28.5-.42.76-.04.08.08.13.12.05h0Z"/>
            <path class="cls-3" d="M8.66,10c-.21-.19-.42-.39-.63-.59-.06-.06-.14.05-.08.1.21.2.42.39.63.59.06.06.14-.05.08-.11h0Z"/>
            <path class="cls-3" d="M11.56,8.28c.04-.5.13-.99.28-1.47.03-.08-.09-.13-.12-.05-.15.49-.24.99-.29,1.5,0,.08.12.1.13.02h0Z"/>
            <path class="cls-3" d="M11.91,5.92c.07-.32.14-.63.21-.94.02-.08-.11-.1-.13-.02-.07.31-.14.63-.21.94-.02.08.11.1.13.02h0Z"/>
            <path class="cls-3" d="M12.33,10.12c.15-.44.38-.89.64-1.28.05-.07-.05-.15-.1-.08-.27.39-.51.85-.66,1.31-.03.08.09.13.12.06h0Z"/>
            <path class="cls-3" d="M7.94,3.95c.3.36.56.8.75,1.22.03.08.16.04.12-.04-.19-.44-.46-.88-.76-1.25-.05-.07-.16,0-.11.07h0Z"/>
            <path class="cls-3" d="M13.94,6.92c.23-.3.44-.61.66-.92.05-.07-.06-.15-.1-.08-.21.31-.43.62-.66.92-.05.07.05.15.1.08h0Z"/>
            <path class="cls-3" d="M14.12,9.33c.34-.4.77-.75,1.19-1.06.07-.05,0-.16-.08-.11-.43.32-.87.68-1.22,1.08-.06.06.05.15.1.08h0Z"/>
            <path class="cls-3" d="M16.56,7.48c.43-.27.87-.49,1.34-.67.08-.03.03-.15-.05-.12-.48.18-.94.41-1.37.68-.07.04,0,.15.08.1h0Z"/>
            <path class="cls-3" d="M9.6,8.81c-.2-.36-.51-.67-.79-.96-.06-.06-.17.02-.11.08.27.3.59.61.79.96.04.07.15,0,.11-.08h0Z"/>
            <path class="cls-3" d="M6.54,5.39c-.28-.3-.66-.52-.99-.75-.07-.05-.16.05-.08.1.34.22.72.45.99.75.06.06.14-.04.09-.1h0Z"/>
            <path class="cls-3" d="M8.11,7.09c-.16-.13-.32-.25-.49-.38-.07-.05-.15.05-.08.1.16.13.33.25.49.38.07.05.15-.05.08-.1h0Z"/>
            <path class="cls-3" d="M10.62,8.43c-.11-.47-.22-.94-.33-1.41-.02-.08-.15-.07-.13.01.11.47.22.94.33,1.41.02.08.15.07.13-.01h0Z"/>
            <path class="cls-3" d="M9.79,5.65c-.09-.22-.17-.44-.26-.65-.03-.08-.15-.03-.12.05.09.22.17.44.26.65.03.08.15.03.12-.05h0Z"/>
            <path class="cls-3" d="M8.03,8.02c-.27-.26-.55-.5-.84-.73-.07-.05-.15.05-.08.1.3.23.57.47.84.73.06.06.14-.04.08-.1h0Z"/>
            <path class="cls-3" d="M6.07,6.75c-.16-.11-.31-.22-.47-.33-.07-.05-.15.05-.08.1.16.11.31.22.47.33.07.05.15-.05.08-.1h0Z"/>
            <path class="cls-3" d="M8.21,6.3c-.28-.4-.58-.76-.94-1.09-.06-.06-.14.05-.08.1.35.32.64.68.91,1.07.05.07.15,0,.11-.08h0Z"/>
            <path class="cls-3" d="M9.84,6.83c-.11-.32-.25-.64-.4-.94-.04-.07-.16-.03-.12.05.16.31.29.62.4.94.03.08.15.03.12-.05h0Z"/>
            <path class="cls-3" d="M9.51,9.58c-.12-.16-.23-.33-.35-.49-.05-.07-.16,0-.11.08.11.16.23.33.35.49.05.07.15,0,.11-.08h0Z"/>
            <path class="cls-3" d="M11.66,4.15c0-.2,0-.4,0-.6,0-.09-.13-.08-.13,0,0,.2,0,.4,0,.6,0,.08.13.08.13,0h0Z"/>
            <path class="cls-3" d="M16.75,5.06c.16-.12.32-.24.49-.35.07-.05-.01-.16-.08-.11-.16.11-.32.23-.49.35-.07.05,0,.15.08.11h0Z"/>
            <path class="cls-3" d="M4.98,5.54c-.19-.07-.37-.15-.56-.23-.08-.03-.13.09-.05.12.18.08.37.15.56.22.08.03.12-.09.05-.12h0Z"/>
            <path class="cls-3" d="M19.38,6.34c-.2.03-.4.05-.6.08-.08.01-.06.14.02.13.2-.02.4-.05.59-.08.08-.01.06-.14-.02-.13h0Z"/>
            <path class="cls-3" d="M10.6,9.54c-.11-.32-.22-.65-.31-.98-.02-.08-.14-.03-.12.05.09.33.2.66.31.98.03.08.15.03.12-.05h0Z"/>
            <path class="cls-3" d="M12.95,4.69c.07-.33.15-.67.25-1,.02-.08-.11-.1-.13-.02-.1.33-.18.66-.25,1-.02.08.11.11.13.02h0Z"/>
            <path class="cls-3" d="M11.06,8.73c0-.27,0-.54-.01-.81,0-.09-.13-.07-.13.01,0,.27,0,.54.01.81,0,.08.13.07.13-.01h0Z"/>
            <path class="cls-3" d="M11,6.57c-.06-.32-.11-.63-.16-.95-.01-.08-.14-.07-.13.01.05.32.11.63.16.95.01.08.14.07.13-.01h0Z"/>
            <path class="cls-3" d="M12.18,9.05c.08-.31.17-.62.25-.93.02-.08-.11-.1-.13-.02-.09.31-.17.62-.25.93-.02.08.11.1.13.02h0Z"/>
            <path class="cls-3" d="M12.79,7.26c.13-.3.28-.59.45-.86.04-.07-.06-.15-.1-.08-.17.29-.33.58-.47.89-.03.08.09.13.12.05h0Z"/>
            <path class="cls-3" d="M13.63,5.45c.14-.2.24-.41.3-.65.02-.08-.11-.1-.13-.02-.05.22-.15.41-.27.59-.05.07.05.15.1.08h0Z"/>
            <path class="cls-3" d="M15.5,6.53c.34-.29.67-.58,1-.88.06-.05-.01-.16-.08-.11-.33.29-.67.58-1,.88-.06.06.02.16.08.11h0Z"/>
            <path class="cls-3" d="M14.24,7.89c.18-.26.38-.5.6-.74.06-.06-.03-.16-.09-.1-.22.24-.43.49-.62.76-.05.07.06.14.11.07h0Z"/>
            <path class="cls-3" d="M18.87,9.17c.32,0,.63.03.94.08.08.01.11-.11.03-.13-.32-.05-.65-.07-.98-.08-.08,0-.08.13,0,.13h0Z"/>
            <path class="cls-3" d="M3.73,6.31c.31.07.61.15.91.26.08.03.13-.09.05-.12-.31-.11-.62-.2-.94-.27-.08-.02-.1.11-.02.13h0Z"/>
            <path class="cls-3" d="M13.15,9.59c.11-.11.21-.23.31-.34.06-.06-.05-.15-.1-.08-.1.12-.21.23-.31.35-.06.06.05.14.1.08h0Z"/>
            <path class="cls-3" d="M6.18,8.58c.14.07.28.13.42.19.08.04.12-.09.05-.12-.14-.06-.28-.13-.42-.19-.08-.03-.12.09-.05.12h0Z"/>
            <path class="cls-3" d="M16.07,8.53c.37-.29.81-.46,1.21-.69.07-.04.03-.16-.05-.12-.41.23-.87.41-1.24.7-.07.05.01.16.08.11h0Z"/>
            <path class="cls-3" d="M15.39,7.52c.16-.13.33-.27.49-.4.07-.05-.01-.16-.08-.11-.16.13-.33.27-.49.4-.07.05.01.16.08.11h0Z"/>
            <path class="cls-3" d="M18.36,7.74c.44-.09.87-.18,1.31-.26.08-.02.06-.15-.02-.13-.44.09-.87.18-1.31.26-.08.02-.06.15.02.13h0Z"/>
            <path class="cls-3" d="M13.24,8.07c.07-.16.16-.3.28-.43.06-.06-.04-.14-.1-.08-.13.14-.22.29-.3.46-.03.08.09.13.12.05h0Z"/>
            <path class="cls-3" d="M11.62,11c.01-.17.05-.32.13-.47.04-.07-.08-.13-.12-.05-.09.16-.13.32-.14.5,0,.08.13.1.13.02h0Z"/>
            <path class="cls-3" d="M6.5,4.34c.14.09.26.2.35.34.05.07.15,0,.1-.08-.1-.15-.22-.27-.38-.36-.07-.04-.15.06-.08.1h0Z"/>
            <path class="cls-3" d="M16.88,6.43c.15-.06.28-.14.41-.24.07-.05,0-.16-.08-.11-.12.09-.24.16-.38.22-.08.03-.03.16.05.12h0Z"/>
            <path class="cls-3" d="M12.57,6.17c.04-.2.1-.38.19-.55.04-.08-.08-.13-.12-.05-.1.19-.16.38-.2.59-.02.08.11.11.13.02h0Z"/>
            <path class="cls-3" d="M7.77,4.88c.13.15.23.31.31.5.04.08.15.02.12-.06-.08-.19-.19-.36-.33-.52-.05-.07-.15.02-.1.09h0Z"/>
            <path class="cls-3" d="M11.28,5.19c0-.11,0-.22,0-.33,0-.08-.14-.07-.13.01.01.1.01.19.01.29,0,.08.13.1.13.02h0Z"/>
            <path class="cls-3" d="M9.15,4.02c-.04-.1-.08-.2-.13-.3-.04-.07-.16-.01-.12.06.05.09.08.17.12.27.03.08.16.05.13-.03h0Z"/>
            <path class="cls-3" d="M7.03,6.46c-.32-.3-.68-.55-1.07-.75-.08-.04-.13.08-.05.12.38.2.73.44,1.04.73.06.06.14-.04.08-.1h0Z"/>
            <path class="cls-3" d="M9.58,7.69c-.16-.41-.39-.78-.66-1.13-.05-.07-.15.02-.1.09.26.34.48.7.64,1.1.03.08.15.02.12-.06h0Z"/>
          </g>
        </g>
        <g>
          <path class="cls-5" d="M3.99,14.12c.04-.25.21-.45.4-.59.57-.41,1.69-.02,1.77.75.07.77-.77,1.13-1.04,1.12-.27-.02-1.28-.29-1.13-1.28Z"/>
          <path class="cls-5" d="M16.2,14.43c.08-.83,1.41-.76,1.79-.56.38.2.63.67.48,1.07-.45,1.19-2.41.84-2.28-.51Z"/>
          <path class="cls-4" d="M12.32,14.58c.24.63-.62,1.22-1.12,1.24-.5.02-1.3-.58-1.1-1.19.2-.61,1.98-.68,2.22-.05Z"/>
          <path class="cls-4" d="M10.09,16.62c.21.33.58.39.78.02.13-.25.17-.54.18-.82.04,0,.09.01.13,0,.05,0,.1-.01.16-.03,0,.27.05.57.17.81.17.36.64.46.82.05.07-.15.29-.02.22.13-.19.44-.78.54-1.11.19-.11-.12-.19-.27-.25-.44-.06.18-.15.35-.3.46-.38.31-.81.1-1.04-.26-.09-.14.14-.27.22-.13Z"/>
          <path class="cls-4" d="M5.6,14.04c.07,0,.15-.04.17-.12.18-.46.52-.74.88-.74s.69.28.88.74c.04.1.15.14.24.1.1-.04.14-.15.1-.24-.24-.6-.71-.98-1.22-.98s-.98.37-1.23.98c-.04.1,0,.21.1.24.02,0,.05.01.07.01Z"/>
          <path class="cls-4" d="M15.07,14.04c.07,0,.15-.04.17-.12.18-.46.52-.74.88-.74s.69.28.88.74c.04.1.15.14.24.1.1-.04.14-.15.1-.24-.24-.6-.71-.98-1.23-.98s-.98.37-1.22.98c-.04.1,0,.21.1.24.02,0,.05.01.07.01Z"/>
        </g>
      </g>
      <g>
        <g>
          <path class="cls-1" d="M11.68,19.24c1.92.04,3.44-.28,4.68-.75,1.12,3.29,1.93,6.95,1.72,10.37-.14,2.26-1.51,7.5-7.04,7.19-5.8-.33-6.37-5.31-6.35-7.83.02-3.09,1.24-6.98,2.77-9.86,1.2.49,2.6.84,4.22.87Z"/>
          <path class="cls-6" d="M11.25,21.31c2.72.1,3.55,1.94,3.96,2.92.43,1.03.6,2.25.59,3.37-.03,2.95-1.44,5.02-4.38,4.96-3.17-.06-4.6-2.27-4.6-4.67,0-4.15,1.72-6.68,4.44-6.58Z"/>
          <path class="cls-9" d="M6.77,19.78c-.06-.28.17-.89.48-1.5,1.24.54,2.71.92,4.42.96,1.98.04,3.54-.3,4.79-.79.27.55.41,1.16.36,1.48-.06.03-.17-.02-.4-.07.38.55.52,1.29.52,1.96-.2.02-.45-.13-.47-.19.26.67.28,1.43.31,1.82-.13.05-.44-.11-.54-.29-.03.15.23,1.2-.19,2.08-.14,0-.33-.3-.39-.43-.18.8-.47,1.06-1.01,1.67-.12-.14-.2-.41-.17-.62-.31.42-.55,1.27-1.12,1.8-.11-.08-.29-.38-.23-.59-.34.79-1.04.88-1.4,1.36-.12-.23-.69-.5-.81-.72-.04.24-.13.33-.33.45-.19-.72-.68-.71-.87-1.43-.1.23-.11.34-.23.51-.23-.1-.83-1.07-.8-1.6-.04.4-.19.52-.45.66-.12-.53-.45-1.19-.23-1.92-.05.2-.17.37-.39.47-.35-.81-.56-1.29-.08-2.03-.1.17-.27.24-.58.28.01-.71-.05-1.44.32-2.04-.09.12-.32.25-.56.2.09-.57.34-1.33.58-1.72-.07.13-.31.25-.53.24Z"/>
        </g>
        <g>
          <path class="cls-1" d="M9.21,35.75c-.06.38-.12.75-.19,1.13-.14.87-.29,1.78-.05,2.63.13.45.35.94.14,1.36-.15.29-.48.45-.81.45-.33,0-.64-.14-.9-.33-1.18-.84-1.68-2.3-1.78-4.04-.07-1.31-.04-2.77.04-4.03.66,1.23,1.76,2.31,3.54,2.81Z"/>
          <path class="cls-7" d="M6.37,37.2c.89.18,1.84.05,2.66-.33,0,0,0,0,0,0-.14.87-.29,1.78-.05,2.63.13.45.35.94.14,1.36-.15.29-.48.45-.81.45-.33,0-.64-.14-.9-.33-1.18-.84-1.68-2.29-1.78-4.03.24.09.48.17.73.22Z"/>
        </g>
        <g>
          <path class="cls-1" d="M12.36,36.01c1.79-.21,3.04-1.07,3.91-2.17.02,1.84-.29,3.69-.91,5.42-.2.55-.9,2.25-2.75,2-.39-.05-.61-.5-.64-.89-.03-.39.09-.77.18-1.16.25-1.05.28-2.13.2-3.21Z"/>
          <path class="cls-7" d="M15.36,39.26c-.2.55-.9,2.25-2.75,2-.39-.05-.61-.5-.64-.89-.03-.39.09-.77.18-1.16.19-.77.25-1.55.24-2.34.55.41,1.25.58,1.94.61.53.02,1.06-.03,1.57-.14-.14.65-.32,1.29-.54,1.91Z"/>
        </g>
        <g>
          <path class="cls-1" d="M.41,16.05c.95-.44,1.97.88,2.78,1.68,1.19,1.19,1.99,2.2,3.43,2.4-.45,1.03-.84,2.13-1.15,3.24-4.14-.93-6.45-6.68-5.05-7.32Z"/>
          <path class="cls-7" d="M1.85,21.03C.16,19.02-.5,16.46.41,16.05c.95-.44,1.97.88,2.78,1.68.42.42.8.82,1.17,1.17-.61.92-1.49,1.67-2.5,2.13Z"/>
        </g>
        <g>
          <path class="cls-1" d="M17.73,23.72c-.21-1.16-.48-2.32-.81-3.45,1.48-.15,2.89-.95,4.05-1.92,1.25-1.04,2.41-2.04,3.1-1.41.74.67-.21,2.72-.83,3.56-1.15,1.55-3.2,3.18-5.5,3.23Z"/>
          <path class="cls-7" d="M20.97,18.34c1.25-1.04,2.41-2.04,3.1-1.41.74.67-.21,2.72-.83,3.56-.46.62-1.06,1.25-1.77,1.79-1.01-.66-1.83-1.61-2.34-2.7.66-.34,1.28-.76,1.85-1.23Z"/>
        </g>
      </g>
    </g>
  </g>
</svg>