<?xml version="1.0" encoding="UTF-8"?>
<svg id="Layer_2" xmlns="http://www.w3.org/2000/svg" version="1.1" viewBox="0 0 32.2 43">
  <!-- Generator: Adobe Illustrator 29.0.0, SVG Export Plug-In . SVG Version: 2.1.0 Build 186)  -->
  <defs>
    <style>
      .st0 {
        fill: #f19446;
      }

      .st1 {
        fill: #ea7f36;
      }

      .st2 {
        fill: #fff;
      }

      .st3 {
        opacity: .3;
      }

      .st4 {
        fill: #1d1f21;
      }

      .st5 {
        fill: #f9c7c7;
      }

      .st6 {
        fill: #ffa766;
      }

      .st7 {
        fill: #bc2828;
      }

      .st8 {
        fill: #faeada;
      }
    </style>
  </defs>
  <g id="Layer_1-2">
    <g>
      <path class="st3" d="M14.9,42.6c-2.2.1-4.1.5-6.7.3-2.6-.1-.6,0-4.9-.6-.6,0-1.2-.2-1.6-.5s-.8-.8-.6-1.3c.2-.5,1-.6,1.7-.8,4.7-1,8.9-1.2,14.5-.6,1.6.2,3.4.2,4.2,1.4-1.4,1.6-4.1,1.9-6.5,2h0Z"/>
      <g>
        <path class="st1" d="M17.1,19.6c.7-13.7,11.5-12.1,15.1-10.2-4.4,3.1-4,7.8-4.2,15-.2,6.4-4.4,12.6-16.7,9.5,6.2-2,5.7-10.9,5.9-14.2h0Z"/>
        <path class="st8" d="M32.2,9.4c-2.5,1.8-3.4,4-3.8,7-.2.2-.9.6-1.1.7,0-.3-.2-1.4-.3-1.8-.3,0-1.3.8-1.6.8-.2-.3,0-1.4-.2-1.8-.4.2-1.5.7-1.7.7,0-.5,0-1.3.1-1.7-.4,0-1.3.5-1.5.5,0-.3.1-1.1.2-1.6-.5.1-1,.2-1.7.4,0-.6.4-1.3.6-1.6-.5,0-.9,0-1.4,0,3.6-4.3,9.8-3.1,12.3-1.7h0Z"/>
      </g>
      <g>
        <g>
          <path class="st0" d="M3,6.8C1.4,4.2,2,.3,2.6,0c.5-.3,3.9,1.4,5.1,3.6-2.7.7-4.1,2-4.7,3.2h0Z"/>
          <path class="st7" d="M4,5.6c-.6-1.1-1.1-3-.7-4.1,1.1.4,2.2,1.5,3,2.6-1,.4-1.7.9-2.2,1.5Z"/>
        </g>
        <g>
          <path class="st0" d="M20.3,7.2c0,0,0-.2-.1-.3-.5-1.1-1.9-2.4-4.4-3.2,1.6-2.4,4.9-3.6,5.4-3.2.5.4.6,4.6-.8,6.7h0s0,0,0,0Z"/>
          <path class="st7" d="M17.1,4.2c.8-1,1.8-1.6,2.9-2,.2,1.4,0,2.4-.6,3.7-.5-.6-1.3-1.2-2.3-1.7Z"/>
        </g>
        <g>
          <path class="st0" d="M2.3,10.1c0-1,.1-2,.5-2.9.7-1.6,2.7-3.8,8.2-4,5.5-.2,8.2,2.1,9.1,3.7.9,1.8.9,4,.4,6-.2.9-1.8,6.3-8.8,6.2-7.3-.1-9.4-6-9.4-9.1h0Z"/>
          <path class="st2" d="M.4,10c2.9-2.1,6.3-1.6,8.6,1,.5.6,1.3,2.4,1.5,3.3.4-.2,1-.2,1.4,0,1.1-3.1,3-4.6,4.6-4.9,3.3-.6,5.7,1.3,6.1,1.6-.7.6-1.1.8-1.8,1.3.8.3,1.3.8,2,1-.5.5-1.6,1.1-2.8,1.3.4.1,1,.5,1.1.8-1.4.8-3.6,4-9.4,3.8-6.4-.1-9.4-5-9.8-5.3.2-.2.4-.4.8-.5-.8-.2-2.3-.8-2.4-1.3.9-.3,1.2-.8,1.9-.9-.6-.5-1.8-1-1.8-1.2h0Z"/>
          <g>
            <path class="st2" d="M10.8,13.5c-.1-.4-.3-.9-.5-1.3,0,0-.1,0-.1,0,.2.4.3.8.5,1.2,0,0,.1,0,.1,0h0Z"/>
            <path class="st2" d="M9.9,11.1c-.2-.4-.4-.8-.8-1.2,0,0-.2,0-.1,0,.3.4.5.7.7,1.2,0,0,.2,0,.1,0h0Z"/>
            <path class="st2" d="M8.3,9.1c-.4-.3-.7-.6-1.1-.9,0,0-.1,0,0,.1.3.3.7.6,1.1.9,0,0,.1,0,0-.1h0Z"/>
            <path class="st2" d="M10.2,3.5c0,.5.1.9.2,1.4,0,0,.1,0,.1,0,0-.5,0-.9-.2-1.4,0,0-.1,0-.1,0h0Z"/>
            <path class="st2" d="M6.2,7.7c-.3-.2-.7-.4-1-.5,0,0-.1,0,0,.1.3.2.7.3,1,.5,0,0,.1,0,0-.1h0Z"/>
            <path class="st2" d="M4.3,7.3c-.2,0-.4,0-.7-.1,0,0-.1.1,0,.1.2,0,.4,0,.7.1,0,0,.1-.1,0-.1h0Z"/>
            <path class="st2" d="M12,13.3c.1-.4.4-.8.6-1.2,0,0,0-.1-.1,0-.3.4-.5.8-.6,1.2,0,0,.1.1.1,0h0Z"/>
            <path class="st2" d="M14.1,9.9c-.4.4-.7.7-1.1,1.1s0,.2,0,.1c.4-.4.7-.7,1.1-1.1s0-.2,0-.1h0Z"/>
            <path class="st2" d="M15.1,9.5c.3-.1.6-.3,1-.4,0,0,0-.1,0-.1-.3.1-.6.3-1,.4,0,0,0,.1,0,.1h0Z"/>
            <path class="st2" d="M17.3,8.8c.4-.1.8-.2,1.3-.2,0,0,0-.1,0-.1-.4,0-.9.1-1.3.2,0,0,0,.1,0,.1h0Z"/>
            <path class="st2" d="M3.7,8.2c.4,0,.9,0,1.3.2,0,0,.1-.1,0-.1-.4-.1-.9-.2-1.3-.2,0,0,0,.1,0,.1h0Z"/>
            <path class="st2" d="M19.7,8.4c.1,0,.2,0,.4,0,0,0,0-.1,0-.1-.1,0-.2,0-.4,0,0,0,0,.1,0,.1h0Z"/>
            <path class="st2" d="M18.1,5.7c.1,0,.2,0,.4-.2,0,0,0-.2,0-.1-.1,0-.2,0-.4.2,0,0,0,.2,0,.1h0Z"/>
            <path class="st2" d="M11.4,13.6c0-.3,0-.6.1-.9,0,0-.1-.1-.1,0,0,.3-.1.6-.1.9,0,0,.1.1.1,0h0Z"/>
            <path class="st2" d="M12,11.8c.2-.4.4-.9.7-1.2,0,0,0-.1-.1,0-.3.4-.5.8-.7,1.2,0,0,0,.1.1,0h0Z"/>
            <path class="st2" d="M11.1,12.6c0-.4,0-.7,0-1.1,0,0-.1,0-.1,0,0,.4,0,.7,0,1.1,0,0,.1.1.1,0h0Z"/>
            <path class="st2" d="M10.7,11.3c0-.4-.2-.8-.4-1.2,0,0-.2,0-.1,0,.2.4.3.7.3,1.1,0,0,.1,0,.1,0h0Z"/>
            <path class="st2" d="M15.8,4.3c-.3.3-.5.6-.8,1,0,0,0,.2.1,0,.2-.3.4-.7.7-.9,0,0,0-.2,0,0h0Z"/>
            <path class="st2" d="M11.3,10.3c0-.3,0-.6,0-.9,0,0-.1,0-.1,0,0,.3,0,.6,0,.9,0,0,.1,0,.1,0h0Z"/>
            <path class="st2" d="M14.5,4.6c.1-.2.3-.5.4-.8,0,0,0-.1-.1,0-.1.2-.3.5-.4.8,0,0,0,.1.1,0h0Z"/>
            <path class="st2" d="M8.7,10c-.2-.2-.4-.4-.6-.6,0,0-.1,0,0,.1.2.2.4.4.6.6,0,0,.1,0,0-.1h0Z"/>
            <path class="st2" d="M11.6,8.3c0-.5.1-1,.3-1.5,0,0,0-.1-.1,0-.1.5-.2,1-.3,1.5,0,0,.1.1.1,0h0Z"/>
            <path class="st2" d="M11.9,5.9c0-.3.1-.6.2-.9,0,0-.1,0-.1,0,0,.3-.1.6-.2.9,0,0,.1,0,.1,0h0Z"/>
            <path class="st2" d="M12.3,10.1c.1-.4.4-.9.6-1.3,0,0,0-.1-.1,0-.3.4-.5.9-.7,1.3,0,0,0,.1.1,0h0Z"/>
            <path class="st2" d="M7.9,4c.3.4.6.8.8,1.2,0,0,.2,0,.1,0-.2-.4-.5-.9-.8-1.2,0,0-.2,0-.1,0h0Z"/>
            <path class="st2" d="M13.9,6.9c.2-.3.4-.6.7-.9,0,0,0-.2-.1,0-.2.3-.4.6-.7.9,0,0,0,.2.1,0h0Z"/>
            <path class="st2" d="M14.1,9.3c.3-.4.8-.8,1.2-1.1,0,0,0-.2,0-.1-.4.3-.9.7-1.2,1.1,0,0,0,.1.1,0h0Z"/>
            <path class="st2" d="M16.6,7.5c.4-.3.9-.5,1.3-.7,0,0,0-.2,0-.1-.5.2-.9.4-1.4.7,0,0,0,.2,0,0h0Z"/>
            <path class="st2" d="M9.6,8.8c-.2-.4-.5-.7-.8-1,0,0-.2,0-.1,0,.3.3.6.6.8,1,0,0,.1,0,.1,0h0Z"/>
            <path class="st2" d="M6.5,5.4c-.3-.3-.7-.5-1-.8,0,0-.2,0,0,0,.3.2.7.4,1,.8,0,0,.1,0,0,0h0Z"/>
            <path class="st2" d="M8.1,7.1c-.2-.1-.3-.2-.5-.4,0,0-.2,0,0,0,.2.1.3.2.5.4,0,0,.1,0,0,0h0Z"/>
            <path class="st2" d="M10.6,8.4c-.1-.5-.2-.9-.3-1.4,0,0-.1,0-.1,0,.1.5.2.9.3,1.4,0,0,.1,0,.1,0h0Z"/>
            <path class="st2" d="M9.8,5.7c0-.2-.2-.4-.3-.7,0,0-.1,0-.1,0,0,.2.2.4.3.7,0,0,.1,0,.1,0h0Z"/>
            <path class="st2" d="M8,8c-.3-.3-.6-.5-.8-.7,0,0-.2,0,0,0,.3.2.6.5.8.7,0,0,.1,0,0-.1h0Z"/>
            <path class="st2" d="M6.1,6.8c-.2-.1-.3-.2-.5-.3,0,0-.2,0,0,0,.2.1.3.2.5.3,0,0,.2,0,0,0h0Z"/>
            <path class="st2" d="M8.2,6.3c-.3-.4-.6-.8-.9-1.1,0,0-.1,0,0,0,.3.3.6.7.9,1.1,0,0,.1,0,.1,0h0Z"/>
            <path class="st2" d="M9.8,6.8c-.1-.3-.2-.6-.4-.9,0,0-.2,0-.1,0,.2.3.3.6.4.9,0,0,.1,0,.1,0h0Z"/>
            <path class="st2" d="M9.5,9.6c-.1-.2-.2-.3-.4-.5,0,0-.2,0-.1,0,.1.2.2.3.4.5,0,0,.1,0,.1,0h0Z"/>
            <path class="st2" d="M11.7,4.2v-.6c0,0-.1,0-.1,0v.6c0,0,.1,0,.1,0h0Z"/>
            <path class="st2" d="M16.8,5.1c.2-.1.3-.2.5-.3,0,0,0-.2,0-.1-.2.1-.3.2-.5.3,0,0,0,.2,0,.1h0Z"/>
            <path class="st2" d="M5,5.5c-.2,0-.4-.2-.6-.2,0,0-.1,0,0,.1.2,0,.4.2.6.2,0,0,.1,0,0-.1h0Z"/>
            <path class="st2" d="M19.4,6.3c-.2,0-.4,0-.6,0,0,0,0,.1,0,.1.2,0,.4,0,.6,0,0,0,0-.1,0-.1h0Z"/>
            <path class="st2" d="M10.6,9.5c-.1-.3-.2-.6-.3-1,0,0-.1,0-.1,0,0,.3.2.7.3,1,0,0,.1,0,.1,0h0Z"/>
            <path class="st2" d="M12.9,4.7c0-.3.1-.7.2-1,0,0-.1,0-.1,0-.1.3-.2.7-.2,1,0,0,.1.1.1,0h0Z"/>
            <path class="st2" d="M11.1,8.7c0-.3,0-.5,0-.8,0,0-.1,0-.1,0,0,.3,0,.5,0,.8,0,0,.1,0,.1,0h0Z"/>
            <path class="st2" d="M11,6.6c0-.3-.1-.6-.2-.9,0,0-.1,0-.1,0,0,.3.1.6.2.9,0,0,.1,0,.1,0h0Z"/>
            <path class="st2" d="M12.2,9.1c0-.3.2-.6.2-.9,0,0-.1-.1-.1,0,0,.3-.2.6-.2.9,0,0,.1.1.1,0h0Z"/>
            <path class="st2" d="M12.8,7.3c.1-.3.3-.6.4-.9,0,0,0-.2-.1,0-.2.3-.3.6-.5.9,0,0,0,.1.1,0h0Z"/>
            <path class="st2" d="M13.6,5.4c.1-.2.2-.4.3-.7,0,0-.1,0-.1,0,0,.2-.1.4-.3.6,0,0,0,.2.1,0h0Z"/>
            <path class="st2" d="M15.5,6.5c.3-.3.7-.6,1-.9,0,0,0-.2,0-.1-.3.3-.7.6-1,.9,0,0,0,.2,0,.1h0Z"/>
            <path class="st2" d="M14.2,7.9c.2-.3.4-.5.6-.7,0,0,0-.2,0,0-.2.2-.4.5-.6.8,0,0,0,.1.1,0h0Z"/>
            <path class="st2" d="M18.9,9.2c.3,0,.6,0,.9,0,0,0,.1-.1,0-.1-.3,0-.6,0-1,0,0,0,0,.1,0,.1h0Z"/>
            <path class="st2" d="M3.7,6.3c.3,0,.6.2.9.3,0,0,.1,0,0-.1-.3-.1-.6-.2-.9-.3,0,0,0,.1,0,.1h0Z"/>
            <path class="st2" d="M13.1,9.6c.1-.1.2-.2.3-.3,0,0,0-.1-.1,0-.1.1-.2.2-.3.4,0,0,0,.1.1,0h0Z"/>
            <path class="st2" d="M6.2,8.6c.1,0,.3.1.4.2,0,0,.1,0,0-.1-.1,0-.3-.1-.4-.2,0,0-.1,0,0,.1h0Z"/>
            <path class="st2" d="M16.1,8.5c.4-.3.8-.5,1.2-.7,0,0,0-.2,0-.1-.4.2-.9.4-1.2.7,0,0,0,.2,0,.1h0Z"/>
            <path class="st2" d="M15.4,7.5c.2-.1.3-.3.5-.4,0,0,0-.2,0-.1-.2.1-.3.3-.5.4,0,0,0,.2,0,.1h0Z"/>
            <path class="st2" d="M18.4,7.7c.4,0,.9-.2,1.3-.3,0,0,0-.2,0-.1-.4,0-.9.2-1.3.3,0,0,0,.2,0,.1h0Z"/>
            <path class="st2" d="M13.2,8.1c0-.2.2-.3.3-.4,0,0,0-.1-.1,0-.1.1-.2.3-.3.5,0,0,0,.1.1,0h0Z"/>
            <path class="st2" d="M11.6,11c0-.2,0-.3.1-.5,0,0,0-.1-.1,0,0,.2-.1.3-.1.5,0,0,.1.1.1,0h0Z"/>
            <path class="st2" d="M6.5,4.3c.1,0,.3.2.3.3,0,0,.2,0,0,0,0-.2-.2-.3-.4-.4,0,0-.2,0,0,0h0Z"/>
            <path class="st2" d="M16.9,6.4c.1,0,.3-.1.4-.2,0,0,0-.2,0-.1-.1,0-.2.2-.4.2,0,0,0,.2,0,.1h0Z"/>
            <path class="st2" d="M12.6,6.2c0-.2.1-.4.2-.6,0,0,0-.1-.1,0-.1.2-.2.4-.2.6,0,0,.1.1.1,0h0Z"/>
            <path class="st2" d="M7.8,4.9c.1.2.2.3.3.5,0,0,.1,0,.1,0,0-.2-.2-.4-.3-.5,0,0-.2,0,0,0h0Z"/>
            <path class="st2" d="M11.3,5.2v-.3c0,0-.1,0-.1,0,0,0,0,.2,0,.3s.1,0,.1,0h0Z"/>
            <path class="st2" d="M9.1,4c0,0,0-.2-.1-.3,0,0-.2,0-.1,0,0,0,0,.2.1.3,0,0,.2,0,.1,0h0Z"/>
            <path class="st2" d="M7,6.5c-.3-.3-.7-.6-1.1-.8,0,0-.1,0,0,.1.4.2.7.4,1,.7,0,0,.1,0,0,0h0Z"/>
            <path class="st2" d="M9.6,7.7c-.2-.4-.4-.8-.7-1.1,0,0-.1,0-.1,0,.3.3.5.7.6,1.1,0,0,.1,0,.1,0h0Z"/>
          </g>
        </g>
        <g>
          <path class="st5" d="M4,14.1c0-.2.2-.4.4-.6.6-.4,1.7,0,1.8.8,0,.8-.8,1.1-1,1.1-.3,0-1.3-.3-1.1-1.3Z"/>
          <path class="st5" d="M16.2,14.4c0-.8,1.4-.8,1.8-.6.4.2.6.7.5,1.1-.5,1.2-2.4.8-2.3-.5h0Z"/>
          <path class="st4" d="M12.3,14.6c.2.6-.6,1.2-1.1,1.2-.5,0-1.3-.6-1.1-1.2.2-.6,2-.7,2.2,0Z"/>
          <path class="st4" d="M10.1,16.6c.2.3.6.4.8,0,.1-.2.2-.5.2-.8,0,0,0,0,.1,0,0,0,.1,0,.2,0,0,.3,0,.6.2.8.2.4.6.5.8,0,0-.1.3,0,.2.1-.2.4-.8.5-1.1.2-.1-.1-.2-.3-.2-.4,0,.2-.1.4-.3.5-.4.3-.8.1-1-.3,0-.1.1-.3.2-.1h0Z"/>
          <path class="st4" d="M5.6,14c0,0,.2,0,.2-.1.2-.5.5-.7.9-.7s.7.3.9.7c0,.1.2.1.2.1,0,0,.1-.1,0-.2-.2-.6-.7-1-1.2-1s-1,.4-1.2,1c0,.1,0,.2,0,.2,0,0,0,0,0,0h0Z"/>
          <path class="st4" d="M15.1,14c0,0,.1,0,.2-.1.2-.5.5-.7.9-.7s.7.3.9.7c0,.1.1.1.2.1.1,0,.1-.1.1-.2-.2-.6-.7-1-1.2-1s-1,.4-1.2,1c0,.1,0,.2.1.2,0,0,0,0,0,0h0Z"/>
        </g>
      </g>
      <g>
        <g>
          <path class="st0" d="M11.7,19.2c1.9,0,3.4-.3,4.7-.8,1.1,3.3,1.9,6.9,1.7,10.4-.1,2.3-1.5,7.5-7,7.2-5.8-.3-6.4-5.3-6.3-7.8,0-3.1,1.2-7,2.8-9.9,1.2.5,2.6.8,4.2.9h0Z"/>
          <path class="st6" d="M11.2,21.3c2.7.1,3.6,1.9,4,2.9.4,1,.6,2.2.6,3.4,0,3-1.4,5-4.4,5-3.2,0-4.6-2.3-4.6-4.7,0-4.1,1.7-6.7,4.4-6.6h0Z"/>
          <path class="st8" d="M6.8,19.8c0-.3.2-.9.5-1.5,1.2.5,2.7.9,4.4,1,2,0,3.5-.3,4.8-.8.3.5.4,1.2.4,1.5,0,0-.2,0-.4,0,.4.5.5,1.3.5,2-.2,0-.5-.1-.5-.2.3.7.3,1.4.3,1.8-.1,0-.4-.1-.5-.3,0,.1.2,1.2-.2,2.1-.1,0-.3-.3-.4-.4-.2.8-.5,1.1-1,1.7-.1-.1-.2-.4-.2-.6-.3.4-.6,1.3-1.1,1.8-.1,0-.3-.4-.2-.6-.3.8-1,.9-1.4,1.4-.1-.2-.7-.5-.8-.7,0,.2-.1.3-.3.5-.2-.7-.7-.7-.9-1.4-.1.2-.1.3-.2.5-.2-.1-.8-1.1-.8-1.6,0,.4-.2.5-.4.7-.1-.5-.4-1.2-.2-1.9,0,.2-.2.4-.4.5-.3-.8-.6-1.3,0-2,0,.2-.3.2-.6.3,0-.7,0-1.4.3-2,0,.1-.3.2-.6.2,0-.6.3-1.3.6-1.7,0,.1-.3.2-.5.2Z"/>
        </g>
        <g>
          <path class="st0" d="M9.2,35.8c0,.4-.1.8-.2,1.1-.1.9-.3,1.8,0,2.6.1.5.4.9.1,1.4-.1.3-.5.5-.8.5s-.6-.1-.9-.3c-1.2-.8-1.7-2.3-1.8-4,0-1.3,0-2.8,0-4,.7,1.2,1.8,2.3,3.5,2.8h0Z"/>
          <path class="st7" d="M6.4,37.2c.9.2,1.8,0,2.7-.3h0c-.1.9-.3,1.8,0,2.6.1.5.4.9.1,1.4-.1.3-.5.5-.8.5s-.6-.1-.9-.3c-1.2-.8-1.7-2.3-1.8-4,.2,0,.5.2.7.2h0Z"/>
        </g>
        <g>
          <path class="st0" d="M12.4,36c1.8-.2,3-1.1,3.9-2.2,0,1.8-.3,3.7-.9,5.4-.2.5-.9,2.2-2.8,2-.4,0-.6-.5-.6-.9,0-.4,0-.8.2-1.2.2-1,.3-2.1.2-3.2h0Z"/>
          <path class="st7" d="M15.4,39.3c-.2.5-.9,2.2-2.8,2-.4,0-.6-.5-.6-.9,0-.4,0-.8.2-1.2.2-.8.2-1.5.2-2.3.6.4,1.2.6,1.9.6.5,0,1.1,0,1.6-.1-.1.7-.3,1.3-.5,1.9h0Z"/>
        </g>
        <g>
          <path class="st0" d="M.4,16c1-.4,2,.9,2.8,1.7,1.2,1.2,2,2.2,3.4,2.4-.4,1-.8,2.1-1.2,3.2-4.1-.9-6.4-6.7-5.1-7.3h0Z"/>
          <path class="st7" d="M1.9,21c-1.7-2-2.4-4.6-1.4-5,1-.4,2,.9,2.8,1.7.4.4.8.8,1.2,1.2-.6.9-1.5,1.7-2.5,2.1h0Z"/>
        </g>
        <g>
          <path class="st0" d="M17.7,23.7c-.2-1.2-.5-2.3-.8-3.5,1.5-.1,2.9-1,4.1-1.9,1.2-1,2.4-2,3.1-1.4.7.7-.2,2.7-.8,3.6-1.1,1.5-3.2,3.2-5.5,3.2h0Z"/>
          <path class="st7" d="M21,18.3c1.2-1,2.4-2,3.1-1.4.7.7-.2,2.7-.8,3.6-.5.6-1.1,1.2-1.8,1.8-1-.7-1.8-1.6-2.3-2.7.7-.3,1.3-.8,1.9-1.2h0Z"/>
        </g>
      </g>
    </g>
  </g>
</svg>