<?xml version="1.0" encoding="UTF-8"?>
<svg id="Layer_2" xmlns="http://www.w3.org/2000/svg" version="1.1" viewBox="0 0 22.5 34.8">
  <!-- Generator: Adobe Illustrator 29.0.0, SVG Export Plug-In . SVG Version: 2.1.0 Build 186)  -->
  <defs>
    <style>
      .st0 {
        fill: #f19446;
      }

      .st1 {
        fill: #fff;
      }

      .st2 {
        opacity: .3;
      }

      .st3 {
        fill: #1d1f21;
      }

      .st4 {
        fill: #f9c7c7;
      }

      .st5 {
        fill: #bc2828;
      }

      .st6 {
        fill: #faeada;
      }
    </style>
  </defs>
  <g id="Layer_1-2">
    <g>
      <path class="st2" d="M7.6,34.4c2.2.1,4.1.5,6.7.3,2.6-.1.6,0,4.9-.6.6,0,1.1-.2,1.6-.4.5-.3.8-.8.6-1.2-.2-.5-1-.6-1.7-.8-4.7-1-8.8-1.1-14.3-.6-1.5.2-4.2.6-4.2,1.4,0,.8,4.1,1.7,6.4,1.8Z"/>
      <g>
        <g>
          <path class="st5" d="M14.7,31.6c0,.9,4.9,1.9,5.1,1,.4-1.7-5-1.9-5.1-1Z"/>
          <path class="st0" d="M16.3,32c3.3.2,4.9-3.8,2.7-5.7-1.8-1.6-4.6-.8-5.3,1.4-.6,1.9.1,4.2,2.6,4.3Z"/>
        </g>
        <g>
          <path class="st5" d="M8.1,31.6c0,.9-4.9,1.9-5.1,1-.4-1.7,5-1.9,5.1-1Z"/>
          <path class="st0" d="M6.5,32c-3.3.2-4.9-3.8-2.7-5.7,1.8-1.6,4.6-.8,5.3,1.4.6,1.9-.1,4.2-2.6,4.3Z"/>
        </g>
        <path class="st0" d="M16.2,18c-1.4.7-3,1.2-5,1.2-2.1,0-3.8-.4-5.1-.9-.6,2-1,4.1-1.1,6.3-.2,3.3,0,7.2,6.6,7.2s6.6-4.8,6.3-7.3c-.2-2.2-.8-4.5-1.7-6.5Z"/>
        <g>
          <path class="st5" d="M10.3,31.5c-.4-1.5-.2-3.5-.3-5.6,0-1.2-2.1-1.3-2.1,0,0,2.3,0,4.9.7,6.1.4.7,1.1,1.1,1.6.8.4-.3.2-1,.1-1.4h0Z"/>
          <path class="st5" d="M14.8,25.8c-.2-1.2-2-1.1-1.9,0,0,.5.1,3.5,0,4.8-.1.8-.6,2.1,0,2.3.6.2,1.4-.7,1.6-1.6.4-1.5.4-5,.3-5.6Z"/>
        </g>
        <path class="st6" d="M16.4,19.5c0-.3-.2-.9-.4-1.5-1.3.6-2.9,1.1-4.8,1.1-1.9,0-3.5-.3-4.7-.8-.2.5-.3,1-.2,1.2,0,0,.2,0,.4,0-.4.6-.5,1.3-.5,2,.2,0,.4-.1.5-.2-.3.7-.3,1.5-.3,1.8.1,0,.4-.1.5-.3,0,.1-.2,1.2.2,2.1.1,0,.3-.3.4-.4.2.8.5,1.1,1,1.7.1-.1.2-.4.2-.6.3.4.6,1.3,1.1,1.8.1,0,.3-.4.2-.6.4.8,1.1.9,1.4,1.4.1-.2.7-.5.8-.7,0,.2.1.3.3.5.2-.7.7-.7.9-1.4.1.2.1.4.2.5.2-.1.8-1.1.8-1.6,0,.4.2.5.5.7.1-.5.4-1.2.2-1.9,0,.2.2.4.4.5.4-.8.6-1.3,0-2.1.1.2.3.2.6.3,0-.7,0-1.5-.3-2.1,0,.1.3.3.6.2,0-.6-.3-1.4-.6-1.7,0,.1.3.2.5.2h0Z"/>
      </g>
      <g>
        <g>
          <path class="st0" d="M19.8,6.8c1.6-2.6,1-6.5.5-6.8-.5-.3-3.9,1.4-5.1,3.6,2.7.7,4.1,2,4.7,3.2Z"/>
          <path class="st5" d="M18.9,5.6c.6-1.1,1.1-3,.7-4.1-1.1.4-2.2,1.5-3,2.6,1,.4,1.7.9,2.2,1.5Z"/>
        </g>
        <g>
          <path class="st0" d="M2.5,7.2c0,0,0-.2.1-.3.5-1.1,1.9-2.4,4.4-3.2C5.5,1.3,2.1.2,1.7.5c-.5.4-.6,4.6.8,6.7h0Z"/>
          <path class="st5" d="M5.7,4.2c-.8-1-1.8-1.6-2.9-2-.2,1.4,0,2.4.6,3.7.5-.6,1.3-1.2,2.3-1.7Z"/>
        </g>
        <g>
          <path class="st0" d="M20.5,10.1c0-1-.1-2-.5-2.9-.7-1.6-2.7-3.8-8.2-4S3.5,5.3,2.7,6.9c-.9,1.8-.9,4-.4,6,.2.9,1.8,6.3,8.8,6.2,7.3-.1,9.4-6,9.4-9.1h0Z"/>
          <path class="st1" d="M22.4,10c-2.9-2.1-6.3-1.6-8.6,1-.5.6-1.3,2.4-1.5,3.3-.4-.2-1-.2-1.4,0-1.1-3.1-3-4.6-4.6-4.9-3.3-.6-5.7,1.3-6.1,1.6.7.6,1.1.8,1.8,1.3-.8.3-1.3.8-2,1,.6.5,1.6,1.1,2.8,1.3-.4.1-1,.5-1.1.8,1.4.8,3.6,4,9.4,3.8,6.4-.1,9.4-5,9.8-5.3-.2-.2-.4-.4-.8-.5.8-.2,2.3-.8,2.4-1.3-.9-.3-1.2-.8-1.9-.9.6-.5,1.8-1,1.8-1.2h0Z"/>
          <g>
            <path class="st1" d="M12.1,13.5c.1-.4.3-.9.5-1.3,0,0,.1,0,.1,0-.2.4-.3.8-.5,1.2,0,0-.1,0-.1,0h0Z"/>
            <path class="st1" d="M12.9,11.1c.2-.4.4-.8.8-1.2,0,0,.2,0,.1,0-.3.4-.5.7-.7,1.2,0,0-.2,0-.1,0h0Z"/>
            <path class="st1" d="M14.5,9.1c.4-.3.7-.6,1.1-.9,0,0,.1,0,0,.1-.3.3-.7.6-1.1.9,0,0-.1,0,0-.1h0Z"/>
            <path class="st1" d="M12.6,3.5c0,.5-.1.9-.2,1.4,0,0-.1,0-.1,0,0-.5,0-.9.2-1.4,0,0,.1,0,.1,0h0Z"/>
            <path class="st1" d="M16.6,7.7c.3-.2.7-.4,1-.5,0,0,.1,0,0,.1-.3.2-.7.3-1,.5,0,0-.1,0,0-.1h0Z"/>
            <path class="st1" d="M18.5,7.3c.2,0,.4,0,.6-.1,0,0,.1.1,0,.1-.2,0-.4,0-.6.1,0,0-.1-.1,0-.1h0Z"/>
            <path class="st1" d="M10.8,13.3c-.1-.4-.4-.8-.6-1.2,0,0,0-.1.1,0,.3.4.5.8.6,1.2,0,0-.1.1-.1,0h0Z"/>
            <path class="st1" d="M8.8,9.9c.4.4.7.7,1.1,1.1s0,.2,0,.1c-.4-.4-.7-.7-1.1-1.1s0-.2,0-.1h0Z"/>
            <path class="st1" d="M7.7,9.5c-.3-.1-.6-.3-1-.4,0,0,0-.1,0-.1.3.1.6.3,1,.4,0,0,0,.1,0,.1h0Z"/>
            <path class="st1" d="M5.5,8.8c-.4-.1-.8-.2-1.3-.2,0,0,0-.1,0-.1.4,0,.9.1,1.3.2,0,0,0,.1,0,.1h0Z"/>
            <path class="st1" d="M19.1,8.2c-.4,0-.9,0-1.3.2,0,0-.1-.1,0-.1.4-.1.9-.2,1.3-.2,0,0,0,.1,0,.1h0Z"/>
            <path class="st1" d="M3.1,8.4c-.1,0-.2,0-.4,0,0,0,0-.1,0-.1.1,0,.2,0,.4,0,0,0,0,.1,0,.1h0Z"/>
            <path class="st1" d="M4.7,5.7c-.1,0-.2,0-.3-.2,0,0,0-.2,0-.1.1,0,.2,0,.3.2,0,0,0,.2,0,.1h0Z"/>
            <path class="st1" d="M11.4,13.6c0-.3,0-.6-.1-.9,0,0,.1-.1.1,0,0,.3.1.6.1.9,0,0-.1.1-.1,0h0Z"/>
            <path class="st1" d="M10.8,11.8c-.2-.4-.4-.9-.7-1.2,0,0,0-.1.1,0,.3.4.5.8.7,1.2,0,0,0,.1-.1,0h0Z"/>
            <path class="st1" d="M11.7,12.6c0-.4,0-.7,0-1.1,0,0,.1,0,.1,0,0,.4,0,.7,0,1.1,0,0-.1.1-.1,0h0Z"/>
            <path class="st1" d="M12.1,11.3c0-.4.2-.8.4-1.2,0,0,.2,0,.1,0-.2.4-.3.7-.3,1.1,0,0-.1,0-.1,0h0Z"/>
            <path class="st1" d="M7,4.3c.3.3.5.6.8,1,0,0,0,.2-.1,0-.2-.3-.4-.7-.7-.9,0,0,0-.2,0,0h0Z"/>
            <path class="st1" d="M11.5,10.3c0-.3,0-.6,0-.9,0,0,.1,0,.1,0,0,.3,0,.6,0,.9,0,0-.1,0-.1,0h0Z"/>
            <path class="st1" d="M8.3,4.6c-.1-.2-.3-.5-.4-.8,0,0,0-.1.1,0,.1.2.3.5.4.8,0,0,0,.1-.1,0h0Z"/>
            <path class="st1" d="M14.2,10c.2-.2.4-.4.6-.6,0,0,.1,0,0,.1-.2.2-.4.4-.6.6,0,0-.1,0,0-.1h0Z"/>
            <path class="st1" d="M11.2,8.3c0-.5-.1-1-.3-1.5,0,0,0-.1.1,0,.1.5.2,1,.3,1.5,0,0-.1.1-.1,0h0Z"/>
            <path class="st1" d="M10.9,5.9c0-.3-.1-.6-.2-.9,0,0,.1,0,.1,0,0,.3.1.6.2.9,0,0-.1,0-.1,0h0Z"/>
            <path class="st1" d="M10.5,10.1c-.1-.4-.4-.9-.6-1.3,0,0,0-.1.1,0,.3.4.5.9.7,1.3,0,0,0,.1-.1,0h0Z"/>
            <path class="st1" d="M14.9,4c-.3.4-.6.8-.8,1.2,0,0-.2,0-.1,0,.2-.4.5-.9.8-1.2,0,0,.2,0,.1,0h0Z"/>
            <path class="st1" d="M8.9,6.9c-.2-.3-.4-.6-.7-.9,0,0,0-.2.1,0,.2.3.4.6.7.9,0,0,0,.2-.1,0h0Z"/>
            <path class="st1" d="M8.7,9.3c-.3-.4-.8-.8-1.2-1.1,0,0,0-.2,0-.1.4.3.9.7,1.2,1.1,0,0,0,.1-.1,0h0Z"/>
            <path class="st1" d="M6.3,7.5c-.4-.3-.9-.5-1.3-.7,0,0,0-.2,0-.1.5.2.9.4,1.4.7,0,0,0,.2,0,0h0Z"/>
            <path class="st1" d="M13.2,8.8c.2-.4.5-.7.8-1,0,0,.2,0,.1,0-.3.3-.6.6-.8,1,0,0-.1,0-.1,0h0Z"/>
            <path class="st1" d="M16.3,5.4c.3-.3.7-.5,1-.8,0,0,.2,0,0,0-.3.2-.7.4-1,.8,0,0-.1,0,0,0h0Z"/>
            <path class="st1" d="M14.7,7.1c.2-.1.3-.2.5-.4,0,0,.1,0,0,0-.2.1-.3.2-.5.4,0,0-.1,0,0,0h0Z"/>
            <path class="st1" d="M12.2,8.4c.1-.5.2-.9.3-1.4,0,0,.1,0,.1,0-.1.5-.2.9-.3,1.4,0,0-.1,0-.1,0h0Z"/>
            <path class="st1" d="M13,5.7c0-.2.2-.4.3-.7,0,0,.1,0,.1,0,0,.2-.2.4-.3.7,0,0-.1,0-.1,0h0Z"/>
            <path class="st1" d="M14.8,8c.3-.3.6-.5.8-.7,0,0,.1,0,0,0-.3.2-.6.5-.8.7,0,0-.1,0,0-.1h0Z"/>
            <path class="st1" d="M16.7,6.8c.2-.1.3-.2.5-.3,0,0,.1,0,0,0-.2.1-.3.2-.5.3,0,0-.1,0,0,0h0Z"/>
            <path class="st1" d="M14.6,6.3c.3-.4.6-.8.9-1.1,0,0,.1,0,0,0-.4.3-.6.7-.9,1.1,0,0-.1,0-.1,0h0Z"/>
            <path class="st1" d="M13,6.8c.1-.3.2-.6.4-.9,0,0,.2,0,.1,0-.2.3-.3.6-.4.9,0,0-.1,0-.1,0h0Z"/>
            <path class="st1" d="M13.3,9.6c.1-.2.2-.3.4-.5,0,0,.2,0,.1,0-.1.2-.2.3-.4.5,0,0-.1,0-.1,0h0Z"/>
            <path class="st1" d="M11.2,4.2v-.6c0,0,.1,0,.1,0v.6c0,0-.1,0-.1,0h0Z"/>
            <path class="st1" d="M6.1,5.1c-.2-.1-.3-.2-.5-.3,0,0,0-.2,0-.1.2.1.3.2.5.3,0,0,0,.2,0,.1h0Z"/>
            <path class="st1" d="M17.8,5.5c.2,0,.4-.2.6-.2,0,0,.1,0,0,.1-.2,0-.4.2-.6.2,0,0-.1,0,0-.1h0Z"/>
            <path class="st1" d="M3.4,6.3c.2,0,.4,0,.6,0,0,0,0,.1,0,.1-.2,0-.4,0-.6,0,0,0,0-.1,0-.1h0Z"/>
            <path class="st1" d="M12.2,9.5c.1-.3.2-.6.3-1,0,0,.1,0,.1,0,0,.3-.2.7-.3,1,0,0-.1,0-.1,0h0Z"/>
            <path class="st1" d="M9.9,4.7c0-.3-.1-.7-.2-1,0,0,.1,0,.1,0,.1.3.2.7.2,1,0,0-.1,0-.1,0h0Z"/>
            <path class="st1" d="M11.8,8.7c0-.3,0-.5,0-.8,0,0,.1,0,.1,0,0,.3,0,.5,0,.8,0,0-.1,0-.1,0h0Z"/>
            <path class="st1" d="M11.8,6.6c0-.3.1-.6.2-.9,0,0,.1,0,.1,0,0,.3-.1.6-.2.9,0,0-.1,0-.1,0h0Z"/>
            <path class="st1" d="M10.6,9.1c0-.3-.2-.6-.2-.9,0,0,.1-.1.1,0,0,.3.2.6.2.9,0,0-.1.1-.1,0h0Z"/>
            <path class="st1" d="M10,7.3c-.1-.3-.3-.6-.4-.9,0,0,0-.2.1,0,.2.3.3.6.5.9,0,0,0,.1-.1,0h0Z"/>
            <path class="st1" d="M9.2,5.4c-.1-.2-.2-.4-.3-.7,0,0,.1,0,.1,0,0,.2.1.4.3.6,0,0,0,.2-.1,0h0Z"/>
            <path class="st1" d="M7.3,6.5c-.3-.3-.7-.6-1-.9,0,0,0-.2,0-.1.3.3.7.6,1,.9,0,0,0,.2,0,.1h0Z"/>
            <path class="st1" d="M8.6,7.9c-.2-.3-.4-.5-.6-.7,0,0,0-.2,0,0,.2.2.4.5.6.8,0,0,0,.1-.1,0h0Z"/>
            <path class="st1" d="M3.9,9.2c-.3,0-.6,0-.9,0,0,0-.1-.1,0-.1.3,0,.6,0,1,0,0,0,0,.1,0,.1h0Z"/>
            <path class="st1" d="M19.1,6.3c-.3,0-.6.2-.9.3,0,0-.1,0,0-.1.3-.1.6-.2.9-.3,0,0,.1.1,0,.1h0Z"/>
            <path class="st1" d="M9.7,9.6c-.1-.1-.2-.2-.3-.3,0,0,0-.1.1,0,.1.1.2.2.3.4,0,0,0,.1-.1,0h0Z"/>
            <path class="st1" d="M16.6,8.6c-.1,0-.3.1-.4.2,0,0-.1,0,0-.1.1,0,.3-.1.4-.2,0,0,.1,0,0,.1h0Z"/>
            <path class="st1" d="M6.8,8.5c-.4-.3-.8-.5-1.2-.7,0,0,0-.2,0-.1.4.2.9.4,1.2.7,0,0,0,.2,0,.1h0Z"/>
            <path class="st1" d="M7.4,7.5c-.2-.1-.3-.3-.5-.4,0,0,0-.2,0-.1.2.1.3.3.5.4,0,0,0,.2,0,0h0Z"/>
            <path class="st1" d="M4.4,7.7c-.4,0-.9-.2-1.3-.3,0,0,0-.2,0-.1.4,0,.9.2,1.3.3,0,0,0,.2,0,.1h0Z"/>
            <path class="st1" d="M9.6,8.1c0-.2-.2-.3-.3-.4,0,0,0-.1.1,0,.1.1.2.3.3.5,0,0,0,.1-.1,0h0Z"/>
            <path class="st1" d="M11.2,11c0-.2,0-.3-.1-.5,0,0,0-.1.1,0,0,.2.1.3.1.5,0,0-.1.1-.1,0h0Z"/>
            <path class="st1" d="M16.3,4.3c-.1,0-.3.2-.4.3,0,0-.1,0-.1,0,.1-.2.2-.3.4-.4,0,0,.1,0,0,0h0Z"/>
            <path class="st1" d="M5.9,6.4c-.2,0-.3-.1-.4-.2,0,0,0-.2,0-.1.1,0,.2.2.4.2,0,0,0,.2,0,.1h0Z"/>
            <path class="st1" d="M10.2,6.2c0-.2-.1-.4-.2-.6,0,0,0-.1.1,0,.1.2.2.4.2.6,0,0-.1,0-.1,0h0Z"/>
            <path class="st1" d="M15.1,4.9c-.1.2-.2.3-.3.5,0,0-.1,0-.1,0,0-.2.2-.4.3-.5,0,0,.1,0,.1,0h0Z"/>
            <path class="st1" d="M11.5,5.2v-.3c0,0,.1,0,.1,0,0,0,0,.2,0,.3s-.1,0-.1,0h0Z"/>
            <path class="st1" d="M13.7,4c0,0,0-.2.1-.3,0,0,.2,0,.1,0,0,0,0,.2-.1.3,0,0-.2,0-.1,0h0Z"/>
            <path class="st1" d="M15.8,6.5c.3-.3.7-.6,1.1-.8,0,0,.1,0,0,.1-.4.2-.7.4-1,.7,0,0-.1,0,0,0h0Z"/>
            <path class="st1" d="M13.2,7.7c.2-.4.4-.8.7-1.1,0,0,.1,0,.1,0-.3.3-.5.7-.6,1.1,0,0-.1,0-.1,0h0Z"/>
          </g>
        </g>
        <g>
          <path class="st4" d="M18.8,14.1c0-.2-.2-.4-.4-.6-.6-.4-1.7,0-1.8.8,0,.8.8,1.1,1,1.1.3,0,1.3-.3,1.1-1.3Z"/>
          <path class="st4" d="M6.6,14.4c0-.8-1.4-.8-1.8-.6s-.6.7-.5,1.1c.4,1.2,2.4.8,2.3-.5h0Z"/>
          <path class="st3" d="M10.5,14.6c-.2.6.6,1.2,1.1,1.2.5,0,1.3-.6,1.1-1.2-.2-.6-2-.7-2.2,0Z"/>
          <path class="st3" d="M12.7,16.6c-.2.3-.6.4-.8,0-.1-.2-.2-.5-.2-.8,0,0,0,0-.1,0,0,0-.1,0-.2,0,0,.3,0,.6-.2.8-.2.4-.6.5-.8,0,0-.1-.3,0-.2.1.2.4.8.5,1.1.2.1-.1.2-.3.2-.4,0,.2.2.4.3.5.4.3.8.1,1-.3,0-.1-.1-.3-.2-.1h0Z"/>
          <path class="st3" d="M17.2,14c0,0-.1,0-.2-.1-.2-.5-.5-.7-.9-.7s-.7.3-.9.7c0,.1-.1.1-.2.1-.1,0-.1-.1-.1-.2.2-.6.7-1,1.2-1s1,.4,1.2,1c0,.1,0,.2-.1.2,0,0,0,0,0,0h0Z"/>
          <path class="st3" d="M7.8,14c0,0-.2,0-.2-.1-.2-.5-.5-.7-.9-.7s-.7.3-.9.7c0,.1-.2.1-.2.1,0,0-.1-.1,0-.2.2-.6.7-1,1.2-1s1,.4,1.2,1c0,.1,0,.2,0,.2,0,0,0,0,0,0h0Z"/>
        </g>
      </g>
    </g>
  </g>
</svg>