<?xml version="1.0" encoding="UTF-8"?>
<svg id="Layer_2" xmlns="http://www.w3.org/2000/svg" version="1.1" viewBox="0 0 35 33.4">
  <!-- Generator: Adobe Illustrator 29.0.0, SVG Export Plug-In . SVG Version: 2.1.0 Build 186)  -->
  <defs>
    <style>
      .st0 {
        fill: #89837d;
      }

      .st1, .st2 {
        fill: #e8b7b1;
      }

      .st3 {
        fill: #9b948d;
      }

      .st4 {
        fill: #fff;
      }

      .st5 {
        opacity: .3;
      }

      .st2 {
        isolation: isolate;
        opacity: .7;
      }

      .st6 {
        fill: #514a43;
      }

      .st7 {
        fill: #1d1f21;
      }

      .st8 {
        fill: #756f69;
      }

      .st9 {
        fill: #7f7b78;
      }

      .st10 {
        fill: #e8e8e8;
      }
    </style>
  </defs>
  <g id="Layer_1-2">
    <g>
      <path class="st5" d="M8.3,29.8c2.3-.1,4.2-.5,6.9-.3s.6,0,5.1.6c.6,0,1.2.2,1.7.4.5.3.8.8.6,1.2-.2.5-1,.6-1.7.8-4.9,1-9.1,1.1-14.9.6-1.6-.2-4.2-.4-4.3-1.3,0-.9,4.2-1.8,6.7-1.9h0Z"/>
      <g>
        <path class="st9" d="M7.9,17.5c-1.3-.3-1.3,2.1-2.7,3.5-1.2,1.2-2.8,1.4-2.8,2.2,0,1.4,4,1.6,5.7-1,1.1-1.8,1.2-4.4-.1-4.7Z"/>
        <g>
          <path class="st0" d="M23.7,11.8c3.1-5.8,8.9-5.1,11.2-3.9-4.8,2-1.4,9.5-4.5,15.9-3.5,7.2-10.5,5.1-14.6,4.4,7.5-4.2,3.8-8.9,7.9-16.4Z"/>
          <path class="st8" d="M18.6,26.2c.8,1,2,2,3.4,2.8,2,0,4-.4,5.8-1.8-2.4-.3-5.3-1.2-7.5-3.4-.4.8-.9,1.6-1.7,2.4h0ZM21.2,20.8c1.7,1.5,5,3.7,9,3.6.1-.2.2-.4.3-.6.4-.8.7-1.6.9-2.4-3-.2-6.9-1.2-9.4-4.9-.4,1.6-.5,3.1-.8,4.4h0ZM31.9,17.8c0-1,.1-1.9.1-2.8-2.3-1-4.9-3-6-6.1-.9.7-1.6,1.6-2.3,2.9,0,0,0,0,0,0,1.1,2.1,3.6,5.3,8.2,6ZM32.3,11.5c.3-1.7,1-3,2.6-3.7-1.2-.6-3.4-1.1-5.6-.6.7,2.3,1.9,3.5,3,4.2h0Z"/>
        </g>
        <g>
          <path class="st7" d="M10.2,30.4c0,1-5.3,2.1-5.6,1.1-.4-1.9,5.5-2.1,5.6-1.1Z"/>
          <path class="st8" d="M8.5,30.8c-3.6.2-5.4-4.2-3-6.2,2-1.7,5-.8,5.8,1.5.7,2.1-.1,4.6-2.8,4.7Z"/>
        </g>
        <g>
          <path class="st3" d="M7.8,15.6c1.1.3,2.3.4,3.7.4,2,0,3.8-.4,5.2-.9.9,3.2,3.6,6.1,2.9,10.7-.4,2.6-1.2,5.2-6.6,5.1-5.7-.1-7.5-4.4-7.2-8.1.2-3.1,1-5.4,2-7.3h0Z"/>
          <path class="st2" d="M7.8,15.6c1,.2,2.1.4,3.3.4.2,2.4,1.3,6.5,1.3,9.6,0,3.2-2.5,4.9-4.2,3.8-1.9-1.6-2.5-4.2-2.4-6.5.2-3.1,1-5.4,2-7.3Z"/>
        </g>
        <g>
          <g>
            <g>
              <path class="st8" d="M5.3,2.8c-1.1.8-2,1.9-2.7,3.1C.6,3.5.8.4,1,.1c.3-.2,3-.1,5.3,2-.4.2-.8.4-1.1.7Z"/>
              <path class="st6" d="M3.3,4.8c-.9-1.2-1.1-2.9-1-3.1.1-.1,1.6,0,2.9,1.1-.7.5-1.4,1.2-1.9,1.9Z"/>
            </g>
            <g>
              <path class="st8" d="M19.1,4.3c-.8-.8-1.7-1.6-2.7-2.1,0,0-.2,0-.2-.1C18.3,0,21.5-.2,21.8,0c.4.4.2,3.6-1.5,5.7-.3-.5-.7-1-1.1-1.4h0Z"/>
              <path class="st6" d="M19.1,4.3c-.5-.6-1.1-1.1-1.8-1.5,1.3-1.2,2.8-1.4,3-1.2s.2,1.9-.9,3.2c-.1-.1-.2-.3-.4-.4h0Z"/>
            </g>
            <path class="st10" d="M0,10.3c.6-.1,1.2-.4,1.8-.9-.7,0-1-.3-1.3-.7.6-.4.8-.7,1.5-.9,0,0,0-.2,0-.3.5-1.9,1.7-3.5,3.3-4.7C8.5.5,13.1.2,16.5,2.2c1,.6,1.9,1.3,2.7,2.1,1,1,1.7,2.3,2.1,3.6.8.3,1.2.6,1.5.8,0,.1-.3.6-1.3.9,0,0,1.2.6,2.1.7-.5.5-1.3,1-2.2,1,.2.3,1,.3,1.1.5-.8.4-4.2,4.2-10.9,4.2S1.7,12.4.8,11.8c.4-.4.9-.4,1.1-.5-.6,0-1.7-.6-2-1h0Z"/>
            <path class="st3" d="M5,9.4c1.6-.8,2.7-.3,3.3.5.6.8.2,1.9-.5,2.5-.4.3-1.7.9-2.7,2.2-1.1-.5-2-1.1-2.7-1.5.3-1.3,1.4-3.1,2.6-3.7Z"/>
            <path class="st3" d="M17.3,14.9c-.8-1.3-1.7-2.1-2.1-2.5-.7-.6-1.1-1.7-.5-2.5.6-.8,1.8-1.5,3.3-.5,1.3.8,2.1,2.7,2.3,4-.8.5-1.8,1.1-2.9,1.5Z"/>
            <path class="st3" d="M2,7.6h0c.5-2,1.7-3.6,3.3-4.8C8.5.5,13.1.2,16.5,2.2c1,.6,1.9,1.3,2.7,2.1,1,1,1.8,2.3,2.3,3.6,0,0-2.5-1.9-6.2.1-2.6,1.4-3.1,3.9-3.5,4.9-.7-2.1-1.2-3.7-3.7-5.2-1.8-1.1-4.2-1.2-5.9,0,0,0,0,0,0,0h0Z"/>
          </g>
          <g>
            <g>
              <path class="st7" d="M16.4,9.9c-.8,0-.8,1.3-.1,1.4.9.1,1-1.4.1-1.4Z"/>
              <path class="st4" d="M16.3,10c-.3,0-.3.5,0,.5.3,0,.3-.5,0-.5Z"/>
            </g>
            <g>
              <path class="st7" d="M6.6,9.9c-.8,0-.8,1.3,0,1.4.9.1.9-1.4,0-1.4Z"/>
              <path class="st4" d="M6.5,10c-.3,0-.3.5,0,.5.3,0,.3-.5,0-.5Z"/>
            </g>
            <path class="st1" d="M3.6,11.4c0-1.2,2.3-1.2,2.4-.1.2,1.3-2.4,1.4-2.4.1Z"/>
            <path class="st1" d="M19.3,11.5c0-1.2-2.3-1.2-2.4-.1-.2,1.3,2.4,1.4,2.4.1Z"/>
            <g>
              <path class="st7" d="M10.3,12.4c0-.4.5-1,1.4-.9s1.3.5,1.2,1-.6.9-1.3.9-1.3-.5-1.3-.9Z"/>
              <path class="st7" d="M9.8,14.2c.1.6.9.7,1.3.3.3-.2.3-.6.3-1.2,0,0,.1,0,.2,0h0c0,.4,0,.9.4,1.2.4.4,1.2.4,1.4-.3,0-.2.3,0,.2,0-.1.6-.9.9-1.4.6-.3-.1-.5-.4-.6-.8-.1.3-.3.6-.6.7-.6.3-1.3,0-1.5-.6,0-.2.2-.2.2,0h0Z"/>
            </g>
          </g>
        </g>
        <g>
          <path class="st7" d="M17.7,31.2c0,1-5.3,2.1-5.6,1.2-.4-1.9,5.5-2.1,5.6-1.2Z"/>
          <path class="st9" d="M15.9,31.6c-3.6.2-5.4-4.2-3-6.2,2-1.7,5-.8,5.8,1.5.7,2.1-.1,4.6-2.8,4.7Z"/>
        </g>
        <path class="st9" d="M14.8,17.5c-1.3-.3-1.3,2.1-2.7,3.5-1.2,1.2-2.8,1.4-2.8,2.2-.1,1.4,4,1.6,5.7-1,1.1-1.8,1.2-4.4-.1-4.7Z"/>
      </g>
    </g>
  </g>
</svg>