<?xml version="1.0" encoding="UTF-8"?>
<svg id="Layer_2" data-name="Layer 2" xmlns="http://www.w3.org/2000/svg" viewBox="0 0 34.96 33.41">
  <defs>
    <style>
      .cls-1 {
        fill: #89837d;
      }

      .cls-2, .cls-3 {
        fill: #e8b7b1;
      }

      .cls-4 {
        fill: #9b948d;
      }

      .cls-5 {
        fill: #fff;
      }

      .cls-6 {
        fill: #514a43;
      }

      .cls-7 {
        fill: #1d1f21;
      }

      .cls-8 {
        fill: #756f69;
      }

      .cls-9 {
        fill: #c0cece;
      }

      .cls-3 {
        opacity: .7;
      }

      .cls-10 {
        fill: #7f7b78;
      }

      .cls-11 {
        fill: #e8e8e8;
      }
    </style>
  </defs>
  <g id="Layer_1-2" data-name="Layer 1">
    <g>
      <path class="cls-9" d="M8.26,29.84c2.31-.11,4.25-.45,6.93-.33,2.68.12.62,0,5.09.58.58.08,1.19.16,1.67.43.49.27.81.8.6,1.24-.25.52-1.05.62-1.72.75-4.86.98-9.14,1.13-14.9.57-1.6-.16-4.24-.37-4.32-1.31-.08-.93,4.23-1.82,6.66-1.94Z"/>
      <g>
        <path class="cls-10" d="M7.94,17.53c-1.32-.34-1.31,2.09-2.7,3.5-1.19,1.21-2.77,1.39-2.83,2.22-.1,1.4,3.98,1.59,5.66-1,1.13-1.75,1.19-4.38-.13-4.72Z"/>
        <g>
          <path class="cls-1" d="M23.74,11.78c3.12-5.8,8.92-5.11,11.22-3.95-4.78,2.01-1.41,9.5-4.51,15.95-3.47,7.22-10.52,5.15-14.57,4.4,7.54-4.18,3.81-8.85,7.86-16.4Z"/>
          <path class="cls-8" d="M18.61,26.23c.83,1,1.96,2.05,3.43,2.81,1.99,0,4.02-.41,5.75-1.78-2.37-.29-5.28-1.25-7.46-3.4-.38.82-.92,1.61-1.71,2.37ZM21.2,20.81c1.74,1.52,4.95,3.69,8.95,3.56.11-.19.21-.39.31-.6.38-.8.67-1.62.88-2.44-2.99-.23-6.92-1.23-9.35-4.93-.39,1.6-.55,3.06-.79,4.4ZM31.9,17.78c.08-.96.11-1.9.14-2.8-2.34-1.02-4.92-2.97-5.98-6.09-.85.71-1.65,1.65-2.32,2.9,0,0,0,.02-.01.02,1.13,2.07,3.61,5.33,8.17,5.97ZM32.35,11.51c.32-1.68,1-2.99,2.62-3.67-1.21-.61-3.4-1.1-5.65-.56.74,2.33,1.85,3.54,3.03,4.24Z"/>
        </g>
        <g>
          <path class="cls-7" d="M10.23,30.37c.07.96-5.33,2.1-5.56,1.15-.44-1.86,5.49-2.11,5.56-1.15Z"/>
          <path class="cls-8" d="M8.49,30.8c-3.58.16-5.36-4.16-2.98-6.22,1.99-1.72,5-.83,5.8,1.48.71,2.06-.15,4.62-2.82,4.74Z"/>
        </g>
        <g>
          <path class="cls-4" d="M7.85,15.55c1.09.26,2.31.42,3.68.42,2.03,0,3.76-.35,5.21-.85.91,3.18,3.62,6.07,2.92,10.71-.39,2.56-1.22,5.23-6.56,5.13-5.71-.1-7.47-4.44-7.23-8.14.2-3.11,1.04-5.42,1.99-7.27Z"/>
          <path class="cls-3" d="M7.85,15.55c.98.23,2.07.38,3.28.41.22,2.4,1.26,6.52,1.27,9.55.01,3.23-2.49,4.86-4.16,3.81-1.9-1.62-2.53-4.19-2.38-6.5.2-3.11,1.04-5.42,1.99-7.27Z"/>
        </g>
        <g>
          <g>
            <g>
              <path class="cls-8" d="M5.29,2.83c-1.1.82-2.03,1.88-2.66,3.09C.55,3.54.79.38,1.05.14,1.33-.11,4.05,0,6.39,2.13c-.38.21-.75.44-1.1.7Z"/>
              <path class="cls-6" d="M3.32,4.81c-.93-1.15-1.12-2.93-1.01-3.07.11-.14,1.63-.04,2.9,1.15-.72.54-1.36,1.19-1.89,1.92Z"/>
            </g>
            <g>
              <path class="cls-8" d="M19.15,4.35c-.78-.83-1.67-1.57-2.66-2.14-.08-.05-.17-.09-.25-.13C18.27.04,21.55-.16,21.79.08c.37.36.22,3.61-1.51,5.68-.34-.51-.72-.98-1.13-1.42Z"/>
              <path class="cls-6" d="M19.15,4.35c-.53-.57-1.12-1.08-1.75-1.54,1.28-1.18,2.75-1.37,2.95-1.24.2.13.19,1.87-.85,3.17-.11-.13-.23-.26-.35-.38Z"/>
            </g>
            <path class="cls-11" d="M0,10.26c.58-.12,1.21-.44,1.8-.85-.71-.08-1-.33-1.3-.7.63-.44.83-.66,1.46-.93.02-.09.04-.18.06-.28.48-1.88,1.71-3.52,3.27-4.67C8.47.47,13.07.21,16.49,2.2c.99.57,1.87,1.31,2.66,2.14.95,1.01,1.7,2.27,2.12,3.59.78.26,1.19.65,1.54.79,0,.11-.3.63-1.32.85,0,0,1.21.65,2.1.68-.48.51-1.29.98-2.24,1.04.19.28,1,.32,1.09.51-.79.41-4.24,4.17-10.89,4.17S1.71,12.39.84,11.8c.38-.38.85-.4,1.11-.51-.64-.06-1.67-.59-1.95-1.04Z"/>
            <path class="cls-4" d="M5.04,9.37c1.58-.82,2.72-.26,3.27.53.55.8.22,1.88-.49,2.5-.38.33-1.71.9-2.7,2.22-1.09-.49-1.97-1.05-2.65-1.54.29-1.31,1.37-3.08,2.57-3.71Z"/>
            <path class="cls-4" d="M17.3,14.92c-.77-1.26-1.7-2.15-2.11-2.52-.71-.62-1.05-1.7-.49-2.5.55-.8,1.77-1.48,3.27-.53,1.34.84,2.13,2.65,2.27,4.03-.78.51-1.75,1.06-2.94,1.52Z"/>
            <path class="cls-4" d="M1.99,7.62s.02-.08.03-.12c.48-1.88,1.71-3.52,3.27-4.67C8.47.47,13.07.21,16.49,2.2c.99.57,1.87,1.31,2.66,2.14.97,1.02,1.78,2.27,2.27,3.6,0,0-2.51-1.94-6.24.12-2.63,1.44-3.05,3.89-3.52,4.91-.71-2.13-1.18-3.65-3.71-5.25-1.77-1.12-4.2-1.25-5.93-.07,0-.01-.01-.03-.02-.04Z"/>
          </g>
          <g>
            <g>
              <path class="cls-7" d="M16.41,9.88c-.77,0-.77,1.28-.1,1.36.86.1.95-1.36.1-1.36Z"/>
              <path class="cls-5" d="M16.26,9.98c-.28,0-.28.46-.03.49.31.04.34-.49.03-.49Z"/>
            </g>
            <g>
              <path class="cls-7" d="M6.63,9.88c-.77,0-.77,1.28-.1,1.36.86.1.95-1.36.1-1.36Z"/>
              <path class="cls-5" d="M6.47,9.98c-.28,0-.28.46-.03.49.31.04.34-.49.03-.49Z"/>
            </g>
            <path class="cls-2" d="M3.61,11.41c0-1.17,2.27-1.18,2.42-.15.19,1.31-2.42,1.45-2.42.15Z"/>
            <path class="cls-2" d="M19.32,11.5c0-1.17-2.27-1.18-2.42-.15-.19,1.31,2.42,1.45,2.42.15Z"/>
            <g>
              <path class="cls-7" d="M10.31,12.42c-.02-.44.52-.99,1.36-.94.84.05,1.31.46,1.25,1s-.65.86-1.33.86c-.84,0-1.26-.48-1.28-.92Z"/>
              <path class="cls-7" d="M9.77,14.23c.13.6.88.73,1.3.32.26-.25.34-.64.34-1.22.06,0,.12.01.18.01.03,0,.05,0,.08,0,.03.41.07.91.39,1.21.38.38,1.25.36,1.35-.27.03-.16.28-.09.25.07-.1.65-.92.86-1.44.62-.34-.15-.53-.43-.64-.75-.12.31-.32.58-.6.71-.59.29-1.32.02-1.46-.64-.03-.16.22-.23.25-.07Z"/>
            </g>
          </g>
        </g>
        <g>
          <path class="cls-7" d="M17.68,31.2c.07.96-5.33,2.1-5.56,1.15-.44-1.86,5.49-2.11,5.56-1.15Z"/>
          <path class="cls-10" d="M15.94,31.63c-3.58.16-5.36-4.16-2.98-6.22,1.99-1.72,5-.83,5.8,1.48.71,2.06-.15,4.62-2.82,4.74Z"/>
        </g>
        <path class="cls-10" d="M14.79,17.53c-1.32-.34-1.31,2.09-2.7,3.5-1.19,1.21-2.77,1.39-2.83,2.22-.1,1.4,3.98,1.59,5.66-1,1.13-1.75,1.19-4.38-.13-4.72Z"/>
      </g>
    </g>
  </g>
</svg>