<?xml version="1.0" encoding="UTF-8"?>
<svg id="Layer_2" data-name="Layer 2" xmlns="http://www.w3.org/2000/svg" viewBox="0 0 32.18 35.52">
  <defs>
    <style>
      .cls-1 {
        fill: #89837d;
      }

      .cls-2 {
        fill: #e8b7b1;
      }

      .cls-3 {
        fill: #9b948d;
      }

      .cls-4 {
        fill: #fff;
      }

      .cls-5 {
        fill: #514a43;
      }

      .cls-6 {
        fill: #1d1f21;
      }

      .cls-7 {
        fill: #756f69;
      }

      .cls-8 {
        fill: #c0cece;
      }

      .cls-9 {
        opacity: .7;
      }

      .cls-10 {
        fill: #e8e8e8;
      }
    </style>
  </defs>
  <g id="Layer_1-2" data-name="Layer 1">
    <g>
      <path class="cls-8" d="M25.05,32.22c-2.45-.1-4.51-.41-7.35-.3-2.84.11-.65,0-5.4.53-.62.07-1.26.15-1.77.4-.51.25-.86.73-.63,1.15.27.48,1.12.57,1.83.7,5.15.91,9.69,1.05,15.81.53,1.7-.14,3.71-.17,4.58-1.21-1.56-1.46-4.48-1.69-7.06-1.79Z"/>
      <g>
        <path class="cls-1" d="M10.95,14.33C7.91,8.66,2.24,9.34,0,10.48c4.67,1.96,1.38,9.28,4.4,15.57,3.39,7.05,10.27,5.03,14.23,4.3-7.36-4.08-3.72-8.64-7.67-16.01Z"/>
        <path class="cls-7" d="M14.3,26.12c-2.13,2.1-4.98,3.04-7.29,3.32,1.69,1.33,3.67,1.74,5.61,1.74,1.44-.74,2.54-1.76,3.35-2.74-.77-.74-1.29-1.51-1.67-2.32ZM12.67,18.85c-2.37,3.61-6.22,4.59-9.13,4.81.21.8.49,1.6.86,2.38.1.2.2.4.3.58,3.9.12,7.04-2,8.74-3.48-.23-1.31-.39-2.73-.77-4.3ZM10.97,14.35s0-.02-.01-.02c-.65-1.22-1.43-2.14-2.26-2.83-1.04,3.05-3.56,4.95-5.84,5.95.03.88.07,1.79.14,2.73,4.45-.62,6.87-3.81,7.97-5.83ZM5.52,9.93c-2.2-.52-4.33-.05-5.52.55,1.58.66,2.25,1.94,2.56,3.59,1.15-.68,2.24-1.86,2.96-4.14Z"/>
      </g>
      <g>
        <g>
          <g>
            <path class="cls-7" d="M26.89,2.83c1.1.82,2.03,1.88,2.66,3.09,2.09-2.38,1.85-5.54,1.58-5.78-.27-.25-3-.14-5.34,1.99.38.21.75.44,1.1.7Z"/>
            <path class="cls-5" d="M28.86,4.81c.93-1.15,1.12-2.93,1.01-3.07-.11-.14-1.63-.04-2.9,1.15.72.54,1.36,1.19,1.89,1.92Z"/>
          </g>
          <g>
            <path class="cls-7" d="M13.03,4.35c.78-.83,1.67-1.57,2.66-2.14.08-.05.17-.09.25-.13C13.91.04,10.63-.16,10.38.08c-.37.36-.22,3.61,1.51,5.68.34-.51.72-.98,1.13-1.42Z"/>
            <path class="cls-5" d="M13.03,4.35c.53-.57,1.12-1.08,1.75-1.54-1.28-1.17-2.75-1.37-2.95-1.24-.2.13-.19,1.87.85,3.17.11-.13.23-.26.35-.38Z"/>
          </g>
          <path class="cls-10" d="M32.18,10.26c-.58-.12-1.21-.43-1.8-.85.71-.08,1-.33,1.3-.7-.63-.44-.83-.66-1.46-.93-.02-.09-.04-.18-.06-.28-.48-1.88-1.71-3.52-3.27-4.67-3.18-2.36-7.78-2.61-11.2-.62-.99.57-1.87,1.31-2.66,2.14-.95,1.01-1.7,2.27-2.12,3.59-.78.26-1.19.65-1.54.79,0,.11.3.63,1.32.85,0,0-1.21.65-2.1.68.48.51,1.29.98,2.24,1.04-.19.28-1,.32-1.09.51.79.41,4.24,4.17,10.89,4.17s9.82-3.58,10.69-4.17c-.38-.38-.85-.4-1.11-.51.64-.06,1.67-.59,1.95-1.04Z"/>
          <path class="cls-3" d="M27.14,9.37c-1.58-.82-2.72-.26-3.27.53-.55.8-.22,1.88.49,2.5.38.33,1.71.9,2.7,2.22,1.09-.49,1.97-1.05,2.65-1.54-.29-1.31-1.37-3.08-2.57-3.71Z"/>
          <path class="cls-3" d="M14.88,14.92c.77-1.26,1.7-2.15,2.11-2.51.71-.62,1.05-1.7.49-2.5-.55-.8-1.77-1.48-3.27-.53-1.34.84-2.13,2.65-2.27,4.03.78.51,1.75,1.06,2.94,1.52Z"/>
          <path class="cls-3" d="M30.18,7.62s-.02-.08-.03-.12c-.48-1.88-1.71-3.52-3.27-4.67-3.18-2.36-7.78-2.61-11.2-.62-.99.57-1.87,1.31-2.66,2.14-.97,1.02-1.78,2.27-2.27,3.6,0,0,2.51-1.94,6.24.12,2.63,1.44,3.05,3.89,3.52,4.91.71-2.13,1.18-3.65,3.71-5.25,1.77-1.12,4.2-1.25,5.93-.07,0-.01.01-.03.02-.04Z"/>
        </g>
        <g>
          <g>
            <path class="cls-6" d="M15.76,9.88c.77,0,.77,1.28.1,1.36-.86.1-.95-1.36-.1-1.36Z"/>
            <path class="cls-4" d="M15.92,9.98c.28,0,.28.46.03.49-.31.04-.34-.49-.03-.49Z"/>
          </g>
          <g>
            <path class="cls-6" d="M25.54,9.88c.77,0,.77,1.28.1,1.36-.86.1-.95-1.36-.1-1.36Z"/>
            <path class="cls-4" d="M25.7,9.98c.28,0,.28.46.03.49-.31.04-.34-.49-.03-.49Z"/>
          </g>
          <path class="cls-2" d="M28.57,11.41c0-1.17-2.27-1.18-2.42-.15-.19,1.31,2.42,1.45,2.42.15Z"/>
          <path class="cls-2" d="M12.85,11.5c0-1.17,2.27-1.18,2.42-.15.19,1.31-2.42,1.45-2.42.15Z"/>
          <g>
            <path class="cls-6" d="M21.86,12.42c.02-.44-.52-.99-1.36-.94-.84.05-1.31.46-1.25,1,.06.54.65.86,1.33.86.84,0,1.26-.48,1.28-.92Z"/>
            <path class="cls-6" d="M22.41,14.23c-.13.6-.88.73-1.3.32-.26-.25-.34-.64-.34-1.22-.06,0-.12.01-.18.01-.03,0-.05,0-.08,0-.03.41-.07.91-.39,1.21-.38.38-1.25.36-1.35-.27-.03-.16-.28-.09-.25.07.1.65.92.86,1.44.62.34-.15.53-.43.64-.75.12.31.32.58.6.71.59.29,1.31.02,1.46-.64.03-.16-.22-.23-.25-.07Z"/>
          </g>
        </g>
      </g>
      <g>
        <g>
          <path class="cls-6" d="M22.78,32.39c-.07.95,5.27,2.08,5.49,1.14.43-1.84-5.42-2.09-5.49-1.14Z"/>
          <path class="cls-3" d="M24.5,32.81c3.53.16,5.3-4.11,2.94-6.15-1.96-1.69-4.94-.82-5.73,1.47-.7,2.04.15,4.56,2.79,4.68Z"/>
        </g>
        <g>
          <path class="cls-6" d="M18.41,32.39c.07.95-5.27,2.08-5.49,1.14-.43-1.84,5.42-2.09,5.49-1.14Z"/>
          <path class="cls-3" d="M16.68,32.81c-3.53.16-5.3-4.11-2.94-6.15,1.96-1.69,4.94-.82,5.73,1.47.7,2.04-.15,4.56-2.79,4.68Z"/>
        </g>
        <g>
          <path class="cls-3" d="M20.65,15.97c-2.03,0-3.76-.35-5.21-.85-1.03,1.61-2.71,3.75-3,8.1-.17,2.52,1.48,8.35,7.96,8.35s7.84-4.47,7.9-8.08c.07-3.97-1.17-5.96-2.32-8.44-1.47.53-3.24.91-5.35.91Z"/>
          <g class="cls-9">
            <path class="cls-2" d="M20.65,15.97c-1.48,0-2.79-.19-3.96-.48-.72,1.36-1.71,3.2-1.9,6.63-.12,2.19,1.04,7.25,5.6,7.25s5.52-3.88,5.56-7.02c.04-3.19-.7-4.91-1.45-6.85-1.14.28-2.42.47-3.86.47Z"/>
          </g>
        </g>
        <g>
          <path class="cls-3" d="M26.64,17.86c-1.32-.09-1.31,1.83-1.78,2.98-.99,2.43-2.54,2.35-2.52,3.49,0,.38.37.68.74.77.37.08,2.92.09,4.19-2.7.83-1.83.7-4.44-.63-4.54Z"/>
          <path class="cls-6" d="M24.92,20.69c-.02.05-.04.11-.06.15-.99,2.43-2.54,2.35-2.52,3.49,0,.38.37.68.74.77.37.08,2.92.09,4.19-2.7.09-.19.16-.39.23-.59-.03-.62-1.75-1.63-2.58-1.12Z"/>
        </g>
        <g>
          <path class="cls-3" d="M14.5,17.86c1.32-.09.74,1.6,1.58,3.37.86,1.83,2.58,2.55,2.54,3.1-.03.38-.37.68-.74.77-.37.08-2.78.66-4.29-2.55-.87-1.84-.41-4.6.91-4.69Z"/>
          <path class="cls-6" d="M16.08,21.23c-.14-.3-.24-.59-.31-.87,0,0-.02,0-.03,0-.76-.3-2.46.73-2.33,1.7.05.17.12.33.19.48,1.51,3.21,3.92,2.64,4.29,2.55.37-.08.72-.39.74-.77.04-.54-1.68-1.27-2.54-3.1Z"/>
        </g>
      </g>
    </g>
  </g>
</svg>