<?xml version="1.0" encoding="UTF-8"?>
<svg id="Layer_2" xmlns="http://www.w3.org/2000/svg" version="1.1" viewBox="0 0 32.2 35.5">
  <!-- Generator: Adobe Illustrator 29.0.0, SVG Export Plug-In . SVG Version: 2.1.0 Build 186)  -->
  <defs>
    <style>
      .st0 {
        fill: #89837d;
      }

      .st1 {
        fill: #e8b7b1;
      }

      .st2 {
        fill: #9b948d;
      }

      .st3 {
        fill: #fff;
      }

      .st4 {
        opacity: .3;
      }

      .st5 {
        fill: #514a43;
      }

      .st6 {
        fill: #1d1f21;
      }

      .st7 {
        fill: #756f69;
      }

      .st8 {
        opacity: .7;
      }

      .st9 {
        fill: #e8e8e8;
      }
    </style>
  </defs>
  <g id="Layer_1-2">
    <g>
      <path class="st4" d="M25,32.2c-2.5,0-4.5-.4-7.4-.3s-.6,0-5.4.5c-.6,0-1.3.2-1.8.4s-.9.7-.6,1.2c.3.5,1.1.6,1.8.7,5.2.9,9.7,1,15.8.5,1.7-.1,3.7-.2,4.6-1.2-1.6-1.5-4.5-1.7-7.1-1.8h0Z"/>
      <g>
        <path class="st0" d="M10.9,14.3C7.9,8.7,2.2,9.3,0,10.5c4.7,2,1.4,9.3,4.4,15.6,3.4,7,10.3,5,14.2,4.3-7.4-4.1-3.7-8.6-7.7-16h0Z"/>
        <path class="st7" d="M14.3,26.1c-2.1,2.1-5,3-7.3,3.3,1.7,1.3,3.7,1.7,5.6,1.7,1.4-.7,2.5-1.8,3.4-2.7-.8-.7-1.3-1.5-1.7-2.3ZM12.7,18.9c-2.4,3.6-6.2,4.6-9.1,4.8.2.8.5,1.6.9,2.4,0,.2.2.4.3.6,3.9.1,7-2,8.7-3.5-.2-1.3-.4-2.7-.8-4.3h0ZM11,14.4s0,0,0,0c-.6-1.2-1.4-2.1-2.3-2.8-1,3.1-3.6,5-5.8,6,0,.9,0,1.8.1,2.7,4.5-.6,6.9-3.8,8-5.8ZM5.5,9.9c-2.2-.5-4.3,0-5.5.6,1.6.7,2.2,1.9,2.6,3.6,1.2-.7,2.2-1.9,3-4.1Z"/>
      </g>
      <g>
        <g>
          <g>
            <path class="st7" d="M26.9,2.8c1.1.8,2,1.9,2.7,3.1,2.1-2.4,1.9-5.5,1.6-5.8C30.9-.1,28.1,0,25.8,2.1c.4.2.8.4,1.1.7Z"/>
            <path class="st5" d="M28.9,4.8c.9-1.2,1.1-2.9,1-3.1-.1-.1-1.6,0-2.9,1.1.7.5,1.4,1.2,1.9,1.9Z"/>
          </g>
          <g>
            <path class="st7" d="M13,4.3c.8-.8,1.7-1.6,2.7-2.1,0,0,.2,0,.2-.1C13.9,0,10.6-.2,10.4,0c-.4.4-.2,3.6,1.5,5.7.3-.5.7-1,1.1-1.4h0Z"/>
            <path class="st5" d="M13,4.3c.5-.6,1.1-1.1,1.8-1.5-1.3-1.2-2.8-1.4-2.9-1.2s-.2,1.9.9,3.2c.1-.1.2-.3.4-.4h0Z"/>
          </g>
          <path class="st9" d="M32.2,10.3c-.6-.1-1.2-.4-1.8-.9.7,0,1-.3,1.3-.7-.6-.4-.8-.7-1.5-.9,0,0,0-.2,0-.3-.5-1.9-1.7-3.5-3.3-4.7-3.2-2.4-7.8-2.6-11.2-.6-1,.6-1.9,1.3-2.7,2.1-.9,1-1.7,2.3-2.1,3.6-.8.3-1.2.6-1.5.8,0,.1.3.6,1.3.9,0,0-1.2.6-2.1.7.5.5,1.3,1,2.2,1-.2.3-1,.3-1.1.5.8.4,4.2,4.2,10.9,4.2s9.8-3.6,10.7-4.2c-.4-.4-.9-.4-1.1-.5.6,0,1.7-.6,2-1h0Z"/>
          <path class="st2" d="M27.1,9.4c-1.6-.8-2.7-.3-3.3.5-.5.8-.2,1.9.5,2.5.4.3,1.7.9,2.7,2.2,1.1-.5,2-1.1,2.6-1.5-.3-1.3-1.4-3.1-2.6-3.7Z"/>
          <path class="st2" d="M14.9,14.9c.8-1.3,1.7-2.1,2.1-2.5.7-.6,1-1.7.5-2.5-.5-.8-1.8-1.5-3.3-.5-1.3.8-2.1,2.7-2.3,4,.8.5,1.8,1.1,2.9,1.5h0Z"/>
          <path class="st2" d="M30.2,7.6h0c-.5-2-1.7-3.6-3.3-4.8-3.2-2.4-7.8-2.6-11.2-.6-1,.6-1.9,1.3-2.7,2.1-1,1-1.8,2.3-2.3,3.6,0,0,2.5-1.9,6.2.1,2.6,1.4,3,3.9,3.5,4.9.7-2.1,1.2-3.7,3.7-5.2,1.8-1.1,4.2-1.2,5.9,0,0,0,0,0,0,0h0Z"/>
        </g>
        <g>
          <g>
            <path class="st6" d="M15.8,9.9c.8,0,.8,1.3.1,1.4-.9.1-.9-1.4-.1-1.4Z"/>
            <path class="st3" d="M15.9,10c.3,0,.3.5,0,.5-.3,0-.3-.5,0-.5Z"/>
          </g>
          <g>
            <path class="st6" d="M25.5,9.9c.8,0,.8,1.3.1,1.4-.9.1-1-1.4-.1-1.4Z"/>
            <path class="st3" d="M25.7,10c.3,0,.3.5,0,.5-.3,0-.3-.5,0-.5Z"/>
          </g>
          <path class="st1" d="M28.6,11.4c0-1.2-2.3-1.2-2.4-.1-.2,1.3,2.4,1.4,2.4.1Z"/>
          <path class="st1" d="M12.9,11.5c0-1.2,2.3-1.2,2.4-.1.2,1.3-2.4,1.4-2.4.1Z"/>
          <g>
            <path class="st6" d="M21.9,12.4c0-.4-.5-1-1.4-.9s-1.3.5-1.2,1,.6.9,1.3.9,1.3-.5,1.3-.9Z"/>
            <path class="st6" d="M22.4,14.2c-.1.6-.9.7-1.3.3-.3-.2-.3-.6-.3-1.2,0,0-.1,0-.2,0h0c0,.4,0,.9-.4,1.2-.4.4-1.2.4-1.4-.3,0-.2-.3,0-.2,0,.1.6.9.9,1.4.6.3-.1.5-.4.6-.8.1.3.3.6.6.7.6.3,1.3,0,1.5-.6,0-.2-.2-.2-.2,0h0Z"/>
          </g>
        </g>
      </g>
      <g>
        <g>
          <path class="st6" d="M22.8,32.4c0,1,5.3,2.1,5.5,1.1.4-1.8-5.4-2.1-5.5-1.1Z"/>
          <path class="st2" d="M24.5,32.8c3.5.2,5.3-4.1,2.9-6.1-2-1.7-4.9-.8-5.7,1.5-.7,2,.1,4.6,2.8,4.7Z"/>
        </g>
        <g>
          <path class="st6" d="M18.4,32.4c0,1-5.3,2.1-5.5,1.1-.4-1.8,5.4-2.1,5.5-1.1Z"/>
          <path class="st2" d="M16.7,32.8c-3.5.2-5.3-4.1-2.9-6.1,2-1.7,4.9-.8,5.7,1.5.7,2-.1,4.6-2.8,4.7Z"/>
        </g>
        <g>
          <path class="st2" d="M20.6,16c-2,0-3.8-.4-5.2-.9-1,1.6-2.7,3.7-3,8.1-.2,2.5,1.5,8.4,8,8.4s7.8-4.5,7.9-8.1c0-4-1.2-6-2.3-8.4-1.5.5-3.2.9-5.4.9h0Z"/>
          <g class="st8">
            <path class="st1" d="M20.6,16c-1.5,0-2.8-.2-4-.5-.7,1.4-1.7,3.2-1.9,6.6-.1,2.2,1,7.2,5.6,7.2s5.5-3.9,5.6-7c0-3.2-.7-4.9-1.5-6.9-1.1.3-2.4.5-3.9.5h0Z"/>
          </g>
        </g>
        <g>
          <path class="st2" d="M26.6,17.9c-1.3,0-1.3,1.8-1.8,3-1,2.4-2.5,2.4-2.5,3.5,0,.4.4.7.7.8.4,0,2.9,0,4.2-2.7.8-1.8.7-4.4-.6-4.5Z"/>
          <path class="st6" d="M24.9,20.7s0,.1,0,.1c-1,2.4-2.5,2.4-2.5,3.5,0,.4.4.7.7.8.4,0,2.9,0,4.2-2.7,0-.2.2-.4.2-.6,0-.6-1.8-1.6-2.6-1.1Z"/>
        </g>
        <g>
          <path class="st2" d="M14.5,17.9c1.3,0,.7,1.6,1.6,3.4.9,1.8,2.6,2.5,2.5,3.1,0,.4-.4.7-.7.8-.4,0-2.8.7-4.3-2.5-.9-1.8-.4-4.6.9-4.7Z"/>
          <path class="st6" d="M16.1,21.2c-.1-.3-.2-.6-.3-.9h0c-.8-.3-2.5.7-2.3,1.7,0,.2.1.3.2.5,1.5,3.2,3.9,2.6,4.3,2.5.4,0,.7-.4.7-.8,0-.5-1.7-1.3-2.5-3.1h0Z"/>
        </g>
      </g>
    </g>
  </g>
</svg>