<?xml version="1.0" encoding="UTF-8"?>
<svg id="Layer_2" data-name="Layer 2" xmlns="http://www.w3.org/2000/svg" viewBox="0 0 30.71 40.06">
  <defs>
    <style>
      .cls-1 {
        fill: #f19446;
      }

      .cls-2 {
        fill: #e58033;
      }

      .cls-3 {
        fill: #fff;
      }

      .cls-4 {
        fill: #fff3e6;
      }

      .cls-5 {
        fill: #1d1f21;
      }

      .cls-6 {
        fill: #f9c7c7;
      }

      .cls-7 {
        fill: #ffe9cf;
      }

      .cls-8 {
        fill: #f7b5b5;
      }

      .cls-9 {
        fill: #ffa766;
      }

      .cls-10 {
        fill: #c0cece;
      }

      .cls-11 {
        fill: #f46800;
      }

      .cls-12 {
        fill: #ffd9b6;
      }
    </style>
  </defs>
  <g id="Layer_1-2" data-name="Layer 1">
    <g>
      <path class="cls-10" d="M4.42,38.45c.17.65,1.92,1.08,2.49,1.19.79.15,1.47.35,2.1.32.57-.02,3.64.44,7.5-.46.52-.12,2.15-.38,2.62-.84.27-.26.34-1.08-.12-1.38-.46-.3-2.6-.66-3.2-.69-2.6-.11-5.2-.08-7.8.06-.67.04-2.64.07-3.17.55-.32.29-.55.79-.43,1.24Z"/>
      <g>
        <g>
          <path class="cls-2" d="M30.71,10.64c-8.3-4.55-13.66,2.02-14.4,11.79-.58,7.74-1.14,8.38-3.81,10.14,4.33,2.83,11.1,1.73,14.06-2.21,3.73-4.96-1.19-16.68,4.14-19.72Z"/>
          <path class="cls-4" d="M30.71,10.64c-4.93-2.7-8.82-1.49-11.32,1.99.05.18.59.38,2.35-.51-.15.32-.88,1.81-.29,1.98s1.87-1.07,2.16-1.24c-.22.55-.83,1.9-.2,2.27.63.37,1.63-1.01,2.15-1.44-.28.85-.63,2.02.04,2.33.44.2,1.19-.85,1.53-1.18-.33,1.45.24,2.11.95,1.56.16-2.55.76-4.7,2.64-5.77Z"/>
        </g>
        <g>
          <path class="cls-1" d="M12.62,33.8c0,.91-.14,1.82-.42,2.68-.14.41-.22.84-.12,1.27.13.58.74.81,1.55.52,1.1-.39,3.19-2.71,2.61-6.37-.96,1-2.21,1.65-3.61,1.9Z"/>
          <path class="cls-1" d="M10.09,33.84c-1.37-.2-2.61-.75-3.59-1.65-.07,1.16-.09,2.34.24,3.45.39,1.31,1.37,2.53,2.71,2.8.69.14,1.57-.12,1.73-.8.15-.63-.37-1.19-.7-1.74-.36-.61-.49-1.35-.39-2.05Z"/>
          <path class="cls-1" d="M21.2,24.65c-1.31-.52-2.71-1.31-3.57-2.36.39,1.29.61,2.66.61,3.97,0,.1,0,.19-.01.28,1.61.73,3.83,1.03,4.24.12.24-.52.06-1.49-1.27-2.01Z"/>
          <path class="cls-1" d="M4.18,26.26c0-1.4.25-2.87.69-4.25-.93,1.06-1.98,2.17-3.57,2.79-1.02.4-1.67,1.34-1.08,1.95.89.92,2.62.45,3.97-.23,0-.09-.01-.18-.01-.27Z"/>
          <g>
            <path class="cls-1" d="M11.43,21.42c-2.48,0-4.28-.68-5.55-1.73-1.05,1.89-1.69,4.34-1.69,6.57,0,4.97,3.15,7.67,7.03,7.67s7.03-2.7,7.03-7.67c0-2.22-.63-4.65-1.68-6.54-1.19,1.01-2.86,1.7-5.13,1.7Z"/>
            <path class="cls-9" d="M11.51,20.64c-2.9.1-3.77,2.06-4.2,3.1-.46,1.1-.64,2.4-.62,3.59.04,3.14,1.53,5.33,4.66,5.27,3.37-.07,4.89-2.41,4.89-4.96,0-4.41-1.83-7.1-4.72-7Z"/>
            <path class="cls-12" d="M15.77,21.7c.05-.22-.12-.7-.36-1.19-1.05.57-2.36.91-3.98.91-1.7,0-3.08-.32-4.2-.86-.23.48-.34.99-.3,1.27.05.03.15-.02.36-.06-.34.48-.46,1.13-.46,1.73.18.01.4-.12.41-.17-.23.59-.25,1.26-.27,1.6.12.05.39-.09.47-.25.03.13-.2,1.06.17,1.83.13,0,.29-.26.34-.38.16.7.41.93.89,1.47.1-.13.17-.36.15-.55.27.37.48,1.12.98,1.58.1-.07.25-.33.21-.52.3.7.92.77,1.23,1.19.11-.2.61-.44.71-.64.03.22.11.29.29.4.16-.63.6-.62.76-1.25.09.2.09.3.2.45.2-.09.73-.94.71-1.41.03.35.17.46.4.58.11-.47.39-1.05.2-1.69.05.17.15.33.35.41.31-.71.49-1.13.07-1.79.08.15.24.21.51.25-.01-.62.04-1.27-.28-1.79.08.1.28.22.49.18-.08-.5-.3-1.17-.51-1.51.07.11.27.22.47.21Z"/>
          </g>
        </g>
        <g>
          <g>
            <path class="cls-7" d="M19.21,13.23c-.25-4.26-3.37-7.43-7.9-7.43S3.15,8.88,3.16,13.23c0,3.72,1.9,8.19,8.26,8.19s7.95-5.35,7.79-8.19Z"/>
            <path class="cls-1" d="M18.31,9.86c-1.27-2.46-3.78-4.07-7-4.07s-6,1.57-7.32,4.04c3.42-.77,6.19,1.72,7.19,7.09.62-5.49,4.19-7.86,7.12-7.07Z"/>
            <g>
              <path class="cls-11" d="M4.69,2.75c.09-.13.21-.25.36-.28.18-.04.35.03.51.12.21-.62.48-2.35.17-2.46-.31-.1-.47.65-.56.95C5.15.55,4.98,0,4.73,0c-.25,0-.29.75-.27,1.16-.09-.27-.47-.88-.68-.78-.33.16.24,1.75.92,2.37Z"/>
              <path class="cls-1" d="M8.57,6.2c-.58-1.44-1.59-2.7-2.89-3.55-.19-.12-.41-.24-.63-.19-.23.05-.37.27-.49.48-1.13,2.08-1.35,4.65-.57,6.89.93-1.74,2.57-3.02,4.58-3.64Z"/>
              <path class="cls-6" d="M7.25,7.26c-.25-1.12-.9-2.08-1.68-2.91-.56,1.22-.61,2.48-.21,3.76.58-.37,1.21-.65,1.89-.85Z"/>
            </g>
            <g>
              <path class="cls-11" d="M17.61,2.77c-.09-.13-.21-.25-.36-.28-.17-.04-.35.03-.51.12-.21-.62-.48-2.35-.17-2.46.31-.1.47.65.56.95.03-.52.2-1.06.44-1.07.25,0,.29.75.27,1.16.09-.27.47-.88.68-.78.34.16-.24,1.75-.92,2.37Z"/>
              <path class="cls-1" d="M17.73,2.97c-.11-.21-.26-.43-.49-.48-.22-.05-.44.07-.63.19-1.28.83-2.27,2.06-2.85,3.46,2.04.6,3.62,1.93,4.54,3.72.77-2.24.56-4.81-.57-6.89Z"/>
              <path class="cls-6" d="M15.05,7.28c.25-1.12.9-2.08,1.68-2.91.56,1.22.61,2.48.21,3.76-.58-.37-1.21-.65-1.89-.85Z"/>
            </g>
          </g>
          <g>
            <path class="cls-8" d="M18.24,17.22c0-1.32-2.28-1.32-2.42-.16-.19,1.47,2.43,1.63,2.42.16Z"/>
            <path class="cls-8" d="M4.23,17.22c0-1.32,2.28-1.32,2.42-.16.19,1.47-2.43,1.63-2.42.16Z"/>
            <g>
              <path class="cls-5" d="M6.08,15.26c.86,0,.87,1.43.11,1.53-.96.12-1.07-1.53-.11-1.53Z"/>
              <path class="cls-3" d="M6.26,15.37c.31,0,.31.52.04.55-.35.04-.39-.55-.04-.55Z"/>
            </g>
            <g>
              <path class="cls-5" d="M16.37,15.26c.86,0,.87,1.43.11,1.53-.96.12-1.07-1.53-.11-1.53Z"/>
              <path class="cls-3" d="M16.54,15.37c.31,0,.31.52.04.55-.35.04-.39-.55-.04-.55Z"/>
            </g>
            <g>
              <path class="cls-3" d="M13.78,17.4c-.01,2.37-4.83,2.37-5.15.29-.4-2.64,5.16-2.93,5.15-.29Z"/>
              <path class="cls-5" d="M12.17,16.24c0,.86-1.83.87-1.95.11-.15-.96,1.96-1.07,1.95-.11Z"/>
              <path class="cls-5" d="M12.72,17.63c-.21.42-.69.68-1.08.32-.3-.27-.3-.68-.3-1.05-.09,0-.18.01-.28,0,0,.38,0,.78-.3,1.05-.39.36-.88.11-1.08-.32-.08-.16-.32-.02-.24.14.24.48.78.8,1.3.53.24-.13.38-.31.47-.52.09.21.23.4.47.52.52.27,1.06-.04,1.3-.53.08-.16-.16-.3-.24-.14Z"/>
            </g>
          </g>
        </g>
      </g>
    </g>
  </g>
</svg>