<?xml version="1.0" encoding="UTF-8"?>
<svg id="Layer_2" data-name="Layer 2" xmlns="http://www.w3.org/2000/svg" viewBox="0 0 29.37 41.79">
  <defs>
    <style>
      .cls-1 {
        fill: #e8b7b1;
      }

      .cls-2 {
        fill: #dd9a97;
      }

      .cls-3 {
        fill: #9b948d;
      }

      .cls-4 {
        fill: #fff;
      }

      .cls-5 {
        fill: #514a43;
      }

      .cls-6 {
        fill: #1d1f21;
      }

      .cls-7 {
        fill: #756f69;
      }

      .cls-8 {
        fill: #c9c7c7;
      }

      .cls-9 {
        fill: #c0cece;
      }

      .cls-10 {
        fill: #bcbcbc;
      }

      .cls-11 {
        opacity: .7;
      }
    </style>
  </defs>
  <g id="Layer_1-2" data-name="Layer 1">
    <g>
      <path class="cls-9" d="M13.13,41.43c2.07.11,3.82.45,6.22.33,2.4-.12.55,0,4.57-.57.52-.08,1.07-.16,1.5-.43.44-.27.73-.79.54-1.24-.23-.52-.95-.62-1.55-.75-4.36-.98-8.21-1.13-13.38-.57-1.44.16-3.74.22-3.88,1.3-.14,1.08,3.8,1.82,5.98,1.93Z"/>
      <path class="cls-3" d="M21.52,22.85c-.31-1.46,1.82-1.48,3.02-2.2,1.2-.72,1.71-1.18,2.3-2.34.28-.55.6-1.22,1.21-1.27.43-.03.82.3.97.71.15.4.99,2.9-2.35,5.09-1.91,1.26-4.84,1.48-5.15.02Z"/>
      <g>
        <g>
          <path class="cls-7" d="M10.02,24.62c-1.17-8.6-7.85-7.02-10.02-5.62,2.9,1.71,2.94,4.72,3.45,9.19.45,3.99,3.41,7.69,10.99,5.08-4.02-.92-4.14-6.59-4.42-8.65Z"/>
          <path class="cls-10" d="M0,19c1.65.97,2.37,2.36,2.78,4.2.14.12.59.36.71.4.03-.19.07-.91.08-1.13.2,0,.85.41,1.04.44.09-.21-.02-.85.01-1.11.25.13.99.34,1.11.36-.05-.29-.12-.8-.17-1.05.23-.05.83.23.98.23,0-.21-.15-.68-.18-.99.31.05.62.05,1.06.15-.08-.35-.28-.78-.48-1,.35.02.6,0,.9-.04-2.5-2.52-6.31-1.43-7.84-.44Z"/>
        </g>
        <g>
          <path class="cls-3" d="M22.79,32.32c-.7,1.14-1.81,2.13-3.54,2.62.05.32.11.64.16.96.14.87.18,1.79-.05,2.65-.13.45-.37.94-.14,1.35.41.72,1.55.32,1.81.13,1.18-.84,1.68-2.3,1.78-4.04.07-1.19.05-2.49-.02-3.67Z"/>
          <path class="cls-3" d="M14.6,35.02c-1.92-.49-3.16-1.64-3.95-2.94.08,2.35.43,4.62.95,6.21.55,1.66,2.38,2.39,3.14,1.75.39-.33.21-1.19-.05-2.05-.28-.93-.18-1.98-.1-2.96Z"/>
          <path class="cls-3" d="M16.88,19.41c-2.16,0-4.01-.37-5.56-.9-1.15,2.95-1.97,6.16-1.91,9.22.05,2.27,1.3,7.58,7.34,7.54,6.33-.04,7.17-5,7.26-7.52.11-2.78-.81-6.25-2.12-9.07-1.43.44-3.09.73-5.01.73Z"/>
          <g class="cls-11">
            <path class="cls-1" d="M20.15,19.12c-.98.18-2.05.29-3.22.29-1.24,0-2.38-.12-3.42-.33-.64,1.4-1.5,3.42-1.96,6.74-.31,2.25,1.09,7.48,5.31,7.39s5.34-4.14,5.02-7.37c-.31-3.08-1.04-4.88-1.72-6.73Z"/>
          </g>
        </g>
        <g>
          <g>
            <g>
              <path class="cls-7" d="M11.58,4.56c.66-.39,1.37-.69,2.09-.92C11.77.94,8.37.04,8.11.21c-.48.31-1.35,3.43.61,6.66.85-.89,1.8-1.69,2.86-2.31Z"/>
              <path class="cls-7" d="M8.72,6.87c.08.12.15.25.23.37.04-.08.08-.15.13-.21-.12-.05-.24-.11-.36-.16Z"/>
            </g>
            <path class="cls-5" d="M11.58,4.56c.25-.14.5-.28.76-.4-1.34-1.68-3.08-2.24-3.28-2.16-.24.09-.17,2.28.65,3.92.58-.51,1.2-.98,1.87-1.36Z"/>
          </g>
          <g>
            <g>
              <path class="cls-7" d="M23.66,5.23c.56.41,1.08.89,1.54,1.41,1.85-3.25.93-6.32.44-6.62-.28-.17-3.4.7-5.38,3.55,1.22.35,2.38.9,3.4,1.66Z"/>
              <path class="cls-7" d="M24.8,6.86c.06.07.11.14.14.21.09-.14.17-.29.25-.43-.13.07-.26.14-.39.22Z"/>
            </g>
            <path class="cls-5" d="M23.66,5.23c.19.14.38.3.56.45.87-1.67.75-3.76.5-3.85-.21-.08-1.85.36-3.19,2.19.75.32,1.47.72,2.13,1.21Z"/>
          </g>
          <path class="cls-8" d="M29.37,13.25c-.11-.33-1.29-.75-1.94-.92.69-.21,1.03-.36,1.41-.75-.67-.47-.89-.72-1.58-1.01-.02-.1-.04-.2-.07-.3-.52-2.02-1.85-3.79-3.53-5.04-3.43-2.54-8.38-2.82-12.07-.67-1.06.62-2.02,1.42-2.87,2.31-1.03,1.09-1.83,2.44-2.29,3.87-.84.28-.96.8-1.66.86.24.31.62.68,1.43.92-.8,0-1.35.6-2.02.62.64.68,1.65.98,2.18,1.23-.21.3-1.08.34-1.17.55.85.44,4.57,4.49,11.75,4.49s10.59-3.86,11.53-4.49c-.41-.41-.91-.43-1.2-.55.92-.13,1.45-.85,2.1-1.12Z"/>
          <g>
            <path class="cls-3" d="M25.2,6.64c-.46-.52-.98-.99-1.54-1.41-3.43-2.54-8.38-2.82-12.07-.67-1.06.62-2.02,1.42-2.87,2.31,2.88,1.15,6.93,4.86,8.08,9.3,1.06-4.51,5.46-7.97,8.41-9.53Z"/>
            <g>
              <path class="cls-5" d="M17.25,13.95c.04-.45.07-.9.17-1.34.02-.08.14-.04.12.04-.1.43-.13.87-.17,1.31,0,.08-.14.08-.13,0h0Z"/>
              <path class="cls-5" d="M18.49,3.41c-.09.45-.14.9-.17,1.36,0,.08-.13.07-.13-.02.03-.46.09-.91.17-1.36.02-.08.15-.06.13.02h0Z"/>
              <path class="cls-5" d="M16.22,12.48c-.1-.45-.27-.88-.49-1.28-.04-.08.08-.12.12-.05.23.41.39.85.5,1.31.02.08-.11.1-.13.02h0Z"/>
              <path class="cls-5" d="M16.74,13.17c-.02-.3-.05-.6-.08-.91,0-.09.12-.1.13-.01.03.3.06.6.08.91,0,.08-.13.1-.13.01h0Z"/>
              <path class="cls-5" d="M15.68,10.58c-.2-.4-.37-.87-.68-1.21-.06-.06.05-.15.1-.08.31.35.49.83.69,1.24.04.08-.08.13-.12.05h0Z"/>
              <path class="cls-5" d="M17.09,12.34c-.02-.37.06-.72.11-1.08.01-.08.14-.06.13.02-.05.35-.13.69-.11,1.05,0,.08-.13.1-.13.01h0Z"/>
              <path class="cls-5" d="M17.82,11.47c.1-.4.25-.77.46-1.13.04-.07.16-.01.12.06-.2.34-.35.71-.45,1.09-.02.08-.15.06-.13-.03h0Z"/>
              <path class="cls-5" d="M12.3,4.55c.3.28.55.6.75.96.04.07-.07.15-.11.07-.2-.35-.44-.66-.73-.93-.06-.06.03-.16.09-.1h0Z"/>
              <path class="cls-5" d="M16.57,10.03c-.05-.28-.11-.56-.17-.85-.02-.08.11-.1.13-.01.05.28.11.56.17.85.02.08-.12.1-.13.01h0Z"/>
              <path class="cls-5" d="M13.59,4.89c-.14-.25-.28-.51-.41-.76-.04-.07.08-.13.12-.05.14.25.28.51.42.76.04.08-.08.13-.12.05h0Z"/>
              <path class="cls-5" d="M16.31,8.47c-.04-.5-.13-.99-.28-1.47-.03-.08.09-.13.12-.05.15.49.24.99.29,1.5,0,.08-.12.11-.13.02h0Z"/>
              <path class="cls-5" d="M16.44,4.93c-.03-.5-.11-.99-.24-1.47-.02-.08.1-.13.12-.05.14.49.22.99.25,1.51,0,.08-.13.1-.13.02h0Z"/>
              <path class="cls-5" d="M16.31,6.35c-.07-.32-.14-.63-.21-.94-.02-.08.11-.1.13-.02.07.32.14.63.21.94.02.08-.11.1-.13.02h0Z"/>
              <path class="cls-5" d="M17.32,9.22c-.08.46-.1.97-.05,1.43.01.09-.12.11-.13.03-.05-.48-.04-.99.05-1.47.01-.08.15-.07.13,0h0Z"/>
              <path class="cls-5" d="M20.14,3.93c-.27.38-.5.83-.67,1.27-.03.08-.16.05-.13-.03.16-.45.4-.91.68-1.3.05-.07.16,0,.12.07h0Z"/>
              <path class="cls-5" d="M14.25,6.97c-.23-.3-.44-.61-.66-.92-.05-.07.06-.15.1-.08.21.31.43.62.66.92.05.07-.05.15-.1.08h0Z"/>
              <path class="cls-5" d="M19.2,8.75c.15-.38.42-.73.66-1.06.05-.07.17,0,.12.06-.23.33-.51.68-.66,1.06-.03.08-.15.01-.12-.06h0Z"/>
              <path class="cls-5" d="M21.48,5.83c.24-.33.59-.61.89-.87.07-.05.16.03.1.09-.31.26-.65.54-.89.87-.05.07-.15-.02-.1-.09h0Z"/>
              <path class="cls-5" d="M20.27,7.36c.13-.16.26-.32.39-.48.05-.07.16.02.1.08-.13.16-.26.32-.39.48-.05.06-.16-.02-.1-.08h0Z"/>
              <path class="cls-5" d="M17.71,8.68c.11-.47.22-.94.33-1.42.02-.08.15-.07.13.01-.11.47-.22.94-.33,1.41-.02.08-.15.07-.13-.01h0Z"/>
              <path class="cls-5" d="M18.43,5.87c.09-.22.17-.44.26-.65.03-.08.15-.03.12.05-.09.22-.17.44-.26.65-.03.08-.15.03-.12-.05h0Z"/>
              <path class="cls-5" d="M20.23,6.43c.28-.4.58-.77.94-1.09.06-.06.14.05.08.1-.35.32-.65.68-.91,1.07-.05.07-.15,0-.11-.08h0Z"/>
              <path class="cls-5" d="M18.5,7.09c.11-.32.25-.64.4-.94.04-.07.16-.03.12.05-.16.31-.29.62-.4.94-.03.08-.15.03-.12-.05h0Z"/>
              <path class="cls-5" d="M17.01,4.49c-.02-.34-.02-.68,0-1.02,0-.08.14-.09.13,0-.03.34-.03.68,0,1.02,0,.08-.12.09-.13,0h0Z"/>
              <path class="cls-5" d="M18.53,9.77c.09-.18.18-.36.26-.54.04-.08.16-.02.12.06-.09.18-.18.36-.26.54-.04.08-.15.02-.12-.06h0Z"/>
              <path class="cls-5" d="M15.54,4.11c-.05-.2-.1-.39-.16-.58-.02-.08.11-.11.13-.03.05.19.1.39.16.58.02.08-.1.11-.13.03h0Z"/>
              <path class="cls-5" d="M17.76,6.58c.04-.2.08-.39.11-.59.02-.08.15-.06.13.03-.04.19-.08.39-.11.59-.02.08-.14.06-.13-.03h0Z"/>
              <path class="cls-5" d="M14.32,4.47c-.08-.19-.16-.37-.24-.55-.03-.08.09-.13.12-.05.08.18.16.37.23.55.03.08-.09.13-.12.05h0Z"/>
              <path class="cls-5" d="M11.58,5.51c-.16-.12-.32-.24-.49-.35-.07-.05.01-.16.08-.11.16.11.32.23.49.35.07.05,0,.15-.08.11h0Z"/>
              <path class="cls-5" d="M17.76,10.04c.11-.32.22-.65.31-.98.02-.08.14-.03.12.05-.09.33-.2.66-.31.98-.03.08-.15.03-.12-.05h0Z"/>
              <path class="cls-5" d="M15.35,5.1c-.11-.32-.24-.64-.37-.96-.03-.08.09-.12.13-.04.14.32.26.64.37.96.03.08-.1.12-.13.04h0Z"/>
              <path class="cls-5" d="M16.88,8.29c0-.27,0-.54.01-.81,0-.09.13-.07.13.01,0,.27,0,.54-.01.81,0,.08-.13.07-.13-.01h0Z"/>
              <path class="cls-5" d="M17.19,6.87c.01-.32.02-.64.03-.96,0-.08.13-.09.13,0,0,.32-.02.64-.03.96,0,.08-.13.09-.13,0h0Z"/>
              <path class="cls-5" d="M15.94,9.31c-.08-.31-.17-.62-.25-.93-.02-.08.11-.1.13-.02.09.31.17.62.25.93.02.08-.11.1-.13.02h0Z"/>
              <path class="cls-5" d="M15.33,7.53c-.13-.3-.28-.59-.45-.87-.04-.07.06-.15.1-.08.17.29.33.58.47.89.03.08-.09.13-.12.05h0Z"/>
              <path class="cls-5" d="M20.73,4.45c-.21.25-.39.52-.56.8-.04.07-.16.02-.12-.06.18-.29.37-.56.58-.83.05-.07.16.02.1.08h0Z"/>
              <path class="cls-5" d="M17.48,5.11c.04-.32.06-.65.06-.98,0-.08.13-.1.13-.02,0,.34-.02.67-.06,1.01-.01.08-.14.07-.13-.02h0Z"/>
              <path class="cls-5" d="M14.27,5.16c.15.19.26.4.34.64.02.08-.1.11-.13.03-.07-.21-.17-.4-.31-.58-.05-.07.04-.15.1-.09h0Z"/>
              <path class="cls-5" d="M13,6.8c-.34-.29-.67-.58-1.01-.88-.06-.05.01-.16.08-.11.33.29.67.58,1.01.88.06.06-.02.16-.08.11h0Z"/>
              <path class="cls-5" d="M14.15,7.77c-.18-.26-.38-.5-.6-.74-.06-.06.03-.16.09-.1.22.24.43.49.62.76.05.07-.06.14-.11.07h0Z"/>
              <path class="cls-5" d="M14.55,8.91c-.08-.13-.16-.27-.24-.4-.04-.07.08-.13.12-.06.08.13.16.27.23.4.04.07-.07.13-.12.06h0Z"/>
              <path class="cls-5" d="M14.97,8.3c-.07-.16-.15-.3-.27-.44-.06-.06.05-.14.1-.08.12.14.22.3.29.47.03.08-.09.13-.12.05h0Z"/>
              <path class="cls-5" d="M16.52,11.56c-.01-.17-.05-.32-.13-.47-.04-.07.08-.13.12-.05.09.16.13.32.14.51,0,.08-.13.1-.13.02h0Z"/>
              <path class="cls-5" d="M21.55,4.42c-.14.09-.26.2-.36.34-.05.07-.15,0-.1-.08.1-.15.22-.27.38-.36.07-.04.15.06.08.1h0Z"/>
              <path class="cls-5" d="M15.55,6.43c-.04-.2-.1-.38-.19-.55-.04-.08.08-.13.12-.05.1.19.16.38.2.59.02.08-.11.11-.13.02h0Z"/>
              <path class="cls-5" d="M16.56,13.86c-.01-.2-.06-.38-.13-.57-.03-.08.1-.12.13-.04.07.2.12.4.13.6,0,.09-.12.09-.13,0h0Z"/>
              <path class="cls-5" d="M19.95,5.91c-.13.15-.23.31-.31.5-.04.08-.15.02-.12-.06.08-.19.19-.36.33-.52.05-.07.15.02.1.09h0Z"/>
              <path class="cls-5" d="M18.86,4.17c.04-.1.08-.2.13-.3.04-.07.16-.01.12.06-.05.09-.08.17-.12.27-.03.08-.16.05-.13-.03h0Z"/>
              <path class="cls-5" d="M18.68,8.3c.13-.42.33-.81.57-1.18.05-.07.15,0,.11.08-.24.36-.43.74-.56,1.15-.03.08-.15.03-.12-.05h0Z"/>
            </g>
          </g>
          <g>
            <g>
              <g>
                <path class="cls-6" d="M11.35,13.16c.83,0,.83,1.38.1,1.47-.93.11-1.03-1.47-.1-1.47Z"/>
                <path class="cls-4" d="M11.52,13.26c.3,0,.3.5.04.53-.33.04-.37-.53-.04-.53Z"/>
              </g>
              <g>
                <path class="cls-6" d="M22.53,13.16c.83,0,.83,1.38.1,1.47-.93.11-1.03-1.47-.1-1.47Z"/>
                <path class="cls-4" d="M22.7,13.26c.3,0,.3.5.04.53-.33.04-.37-.53-.04-.53Z"/>
              </g>
              <path class="cls-2" d="M25.79,14.8c0-1.27-2.45-1.27-2.61-.16-.2,1.41,2.61,1.57,2.61.16Z"/>
              <path class="cls-2" d="M8.01,14.8c0-1.27,2.45-1.27,2.61-.16.2,1.41-2.61,1.57-2.61.16Z"/>
            </g>
            <path class="cls-4" d="M16.77,18.3c-1.61,0-2.91-.67-2.91-1.83s1.3-2.36,2.91-2.36,2.91,1.21,2.91,2.36-1.3,1.83-2.91,1.83Z"/>
            <g>
              <path class="cls-6" d="M17.96,15.42c.02-.4-.47-.9-1.23-.86-.76.04-1.19.41-1.14.9.06.49.59.78,1.21.78.76,0,1.14-.44,1.16-.83Z"/>
              <path class="cls-6" d="M18.47,17.1c-.09.55-.85.57-1.19.24-.28-.28-.32-.72-.34-1.09-.05,0-.1.01-.15.01-.05,0-.09,0-.13,0-.03.37-.07.81-.34,1.09-.33.33-1.1.32-1.19-.24-.03-.18-.3-.1-.27.08.1.6.85.8,1.34.58.32-.15.5-.41.6-.72.1.3.28.57.6.72.49.22,1.25.03,1.34-.58.03-.18-.24-.25-.27-.08Z"/>
            </g>
          </g>
        </g>
      </g>
      <path class="cls-3" d="M11.24,21.18c1.49-.11,1.22,2.01,1.76,3.3.54,1.29.93,1.86,2,2.6.5.35,1.13.76,1.08,1.38-.03.43-.42.77-.83.86-.42.09-3.01.57-4.71-3.04-.98-2.07-.79-5,.7-5.11Z"/>
    </g>
  </g>
</svg>