<?xml version="1.0" encoding="UTF-8"?>
<svg id="Layer_2" xmlns="http://www.w3.org/2000/svg" version="1.1" viewBox="0 0 29.4 41.8">
  <!-- Generator: Adobe Illustrator 29.0.0, SVG Export Plug-In . SVG Version: 2.1.0 Build 186)  -->
  <defs>
    <style>
      .st0 {
        fill: #e8b7b1;
      }

      .st1 {
        fill: #dd9a97;
      }

      .st2 {
        fill: #9b948d;
      }

      .st3 {
        fill: #fff;
      }

      .st4 {
        opacity: .3;
      }

      .st5 {
        fill: #514a43;
      }

      .st6 {
        fill: #1d1f21;
      }

      .st7 {
        fill: #756f69;
      }

      .st8 {
        fill: #c9c7c7;
      }

      .st9 {
        opacity: .7;
      }

      .st10 {
        fill: #bcbcbc;
      }
    </style>
  </defs>
  <g id="Layer_1-2">
    <g>
      <path class="st4" d="M13.1,41.4c2.1.1,3.8.5,6.2.3s.5,0,4.6-.6c.5,0,1.1-.2,1.5-.4.4-.3.7-.8.5-1.2-.2-.5-1-.6-1.5-.8-4.4-1-8.2-1.1-13.4-.6-1.4.2-3.7.2-3.9,1.3-.1,1.1,3.8,1.8,6,1.9Z"/>
      <path class="st2" d="M21.5,22.9c-.3-1.5,1.8-1.5,3-2.2,1.2-.7,1.7-1.2,2.3-2.3.3-.5.6-1.2,1.2-1.3.4,0,.8.3,1,.7.1.4,1,2.9-2.4,5.1-1.9,1.3-4.8,1.5-5.1,0h0Z"/>
      <g>
        <g>
          <path class="st7" d="M10,24.6c-1.2-8.6-7.8-7-10-5.6,2.9,1.7,2.9,4.7,3.5,9.2.5,4,3.4,7.7,11,5.1-4-.9-4.1-6.6-4.4-8.6Z"/>
          <path class="st10" d="M0,19c1.6,1,2.4,2.4,2.8,4.2.1.1.6.4.7.4,0-.2,0-.9,0-1.1.2,0,.9.4,1,.4,0-.2,0-.9,0-1.1.2.1,1,.3,1.1.4,0-.3-.1-.8-.2-1,.2,0,.8.2,1,.2,0-.2-.2-.7-.2-1,.3,0,.6,0,1.1.1,0-.4-.3-.8-.5-1,.3,0,.6,0,.9,0-2.5-2.5-6.3-1.4-7.8-.4h0Z"/>
        </g>
        <g>
          <path class="st2" d="M22.8,32.3c-.7,1.1-1.8,2.1-3.5,2.6,0,.3.1.6.2,1,.1.9.2,1.8,0,2.7-.1.5-.4.9-.1,1.3.4.7,1.5.3,1.8.1,1.2-.8,1.7-2.3,1.8-4,0-1.2,0-2.5,0-3.7Z"/>
          <path class="st2" d="M14.6,35c-1.9-.5-3.2-1.6-3.9-2.9,0,2.3.4,4.6.9,6.2.6,1.7,2.4,2.4,3.1,1.8.4-.3.2-1.2,0-2-.3-.9-.2-2-.1-3h0Z"/>
          <path class="st2" d="M16.9,19.4c-2.2,0-4-.4-5.6-.9-1.1,3-2,6.2-1.9,9.2,0,2.3,1.3,7.6,7.3,7.5,6.3,0,7.2-5,7.3-7.5.1-2.8-.8-6.2-2.1-9.1-1.4.4-3.1.7-5,.7Z"/>
          <g class="st9">
            <path class="st0" d="M20.1,19.1c-1,.2-2,.3-3.2.3s-2.4-.1-3.4-.3c-.6,1.4-1.5,3.4-2,6.7-.3,2.2,1.1,7.5,5.3,7.4,4.2,0,5.3-4.1,5-7.4-.3-3.1-1-4.9-1.7-6.7h0Z"/>
          </g>
        </g>
        <g>
          <g>
            <g>
              <path class="st7" d="M11.6,4.6c.7-.4,1.4-.7,2.1-.9C11.8.9,8.4,0,8.1.2c-.5.3-1.3,3.4.6,6.7.9-.9,1.8-1.7,2.9-2.3Z"/>
              <path class="st7" d="M8.7,6.9c0,.1.1.2.2.4,0,0,0-.2.1-.2-.1,0-.2-.1-.4-.2Z"/>
            </g>
            <path class="st5" d="M11.6,4.6c.2-.1.5-.3.8-.4-1.3-1.7-3.1-2.2-3.3-2.2-.2,0-.2,2.3.6,3.9.6-.5,1.2-1,1.9-1.4Z"/>
          </g>
          <g>
            <g>
              <path class="st7" d="M23.7,5.2c.6.4,1.1.9,1.5,1.4,1.9-3.2.9-6.3.4-6.6-.3-.2-3.4.7-5.4,3.5,1.2.3,2.4.9,3.4,1.7Z"/>
              <path class="st7" d="M24.8,6.9c0,0,.1.1.1.2,0-.1.2-.3.2-.4-.1,0-.3.1-.4.2Z"/>
            </g>
            <path class="st5" d="M23.7,5.2c.2.1.4.3.6.4.9-1.7.8-3.8.5-3.8-.2,0-1.9.4-3.2,2.2.8.3,1.5.7,2.1,1.2Z"/>
          </g>
          <path class="st8" d="M29.4,13.2c-.1-.3-1.3-.8-1.9-.9.7-.2,1-.4,1.4-.8-.7-.5-.9-.7-1.6-1,0-.1,0-.2,0-.3-.5-2-1.9-3.8-3.5-5-3.4-2.5-8.4-2.8-12.1-.7-1.1.6-2,1.4-2.9,2.3-1,1.1-1.8,2.4-2.3,3.9-.8.3-1,.8-1.7.9.2.3.6.7,1.4.9-.8,0-1.3.6-2,.6.6.7,1.7,1,2.2,1.2-.2.3-1.1.3-1.2.6.8.4,4.6,4.5,11.8,4.5s10.6-3.9,11.5-4.5c-.4-.4-.9-.4-1.2-.6.9-.1,1.5-.9,2.1-1.1Z"/>
          <g>
            <path class="st2" d="M25.2,6.6c-.5-.5-1-1-1.5-1.4-3.4-2.5-8.4-2.8-12.1-.7-1.1.6-2,1.4-2.9,2.3,2.9,1.1,6.9,4.9,8.1,9.3,1.1-4.5,5.5-8,8.4-9.5h0Z"/>
            <g>
              <path class="st5" d="M17.2,13.9c0-.4,0-.9.2-1.3,0,0,.1,0,.1,0-.1.4-.1.9-.2,1.3,0,0-.1,0-.1,0h0Z"/>
              <path class="st5" d="M18.5,3.4c0,.5-.1.9-.2,1.4,0,0-.1,0-.1,0,0-.5,0-.9.2-1.4,0,0,.1,0,.1,0h0Z"/>
              <path class="st5" d="M16.2,12.5c-.1-.4-.3-.9-.5-1.3,0,0,0-.1.1,0,.2.4.4.9.5,1.3,0,0-.1.1-.1,0h0Z"/>
              <path class="st5" d="M16.7,13.2c0-.3,0-.6,0-.9,0,0,.1-.1.1,0,0,.3,0,.6,0,.9,0,0-.1.1-.1,0h0Z"/>
              <path class="st5" d="M15.7,10.6c-.2-.4-.4-.9-.7-1.2,0,0,0-.1.1,0,.3.4.5.8.7,1.2,0,0,0,.1-.1,0h0Z"/>
              <path class="st5" d="M17.1,12.3c0-.4,0-.7.1-1.1,0,0,.1,0,.1,0,0,.4-.1.7-.1,1.1,0,0-.1.1-.1,0h0Z"/>
              <path class="st5" d="M17.8,11.5c.1-.4.2-.8.5-1.1,0,0,.2,0,.1,0-.2.3-.4.7-.5,1.1,0,0-.1,0-.1,0h0Z"/>
              <path class="st5" d="M12.3,4.6c.3.3.6.6.8,1,0,0,0,.2-.1,0-.2-.3-.4-.7-.7-.9,0,0,0-.2,0,0h0Z"/>
              <path class="st5" d="M16.6,10c0-.3-.1-.6-.2-.9,0,0,.1-.1.1,0,0,.3.1.6.2.9,0,0-.1.1-.1,0h0Z"/>
              <path class="st5" d="M13.6,4.9c-.1-.2-.3-.5-.4-.8,0,0,0-.1.1,0,.1.2.3.5.4.8,0,0,0,.1-.1,0h0Z"/>
              <path class="st5" d="M16.3,8.5c0-.5-.1-1-.3-1.5,0,0,0-.1.1,0,.1.5.2,1,.3,1.5,0,0-.1.1-.1,0h0Z"/>
              <path class="st5" d="M16.4,4.9c0-.5-.1-1-.2-1.5,0,0,.1-.1.1,0,.1.5.2,1,.2,1.5,0,0-.1,0-.1,0h0Z"/>
              <path class="st5" d="M16.3,6.3c0-.3-.1-.6-.2-.9,0,0,.1,0,.1,0,0,.3.1.6.2.9,0,0-.1,0-.1,0h0Z"/>
              <path class="st5" d="M17.3,9.2c0,.5-.1,1,0,1.4,0,0-.1.1-.1,0,0-.5,0-1,0-1.5,0,0,.1,0,.1,0h0Z"/>
              <path class="st5" d="M20.1,3.9c-.3.4-.5.8-.7,1.3,0,0-.2,0-.1,0,.2-.4.4-.9.7-1.3,0,0,.2,0,.1,0h0Z"/>
              <path class="st5" d="M14.2,7c-.2-.3-.4-.6-.7-.9,0,0,0-.2.1,0,.2.3.4.6.7.9,0,0,0,.2-.1,0h0Z"/>
              <path class="st5" d="M19.2,8.8c.1-.4.4-.7.7-1.1,0,0,.2,0,.1,0-.2.3-.5.7-.7,1.1,0,0-.1,0-.1,0h0Z"/>
              <path class="st5" d="M21.5,5.8c.2-.3.6-.6.9-.9,0,0,.2,0,.1,0-.3.3-.6.5-.9.9,0,0-.1,0-.1,0h0Z"/>
              <path class="st5" d="M20.3,7.4c.1-.2.3-.3.4-.5,0,0,.2,0,.1,0-.1.2-.3.3-.4.5,0,0-.2,0-.1,0h0Z"/>
              <path class="st5" d="M17.7,8.7c.1-.5.2-.9.3-1.4,0,0,.1,0,.1,0-.1.5-.2.9-.3,1.4,0,0-.1,0-.1,0h0Z"/>
              <path class="st5" d="M18.4,5.9c0-.2.2-.4.3-.7,0,0,.1,0,.1,0,0,.2-.2.4-.3.7,0,0-.1,0-.1,0h0Z"/>
              <path class="st5" d="M20.2,6.4c.3-.4.6-.8.9-1.1,0,0,.1,0,0,0-.4.3-.6.7-.9,1.1,0,0-.1,0-.1,0h0Z"/>
              <path class="st5" d="M18.5,7.1c.1-.3.2-.6.4-.9,0,0,.2,0,.1,0-.2.3-.3.6-.4.9,0,0-.1,0-.1,0h0Z"/>
              <path class="st5" d="M17,4.5c0-.3,0-.7,0-1,0,0,.1,0,.1,0,0,.3,0,.7,0,1,0,0-.1,0-.1,0h0Z"/>
              <path class="st5" d="M18.5,9.8c0-.2.2-.4.3-.5,0,0,.2,0,.1,0,0,.2-.2.4-.3.5,0,0-.1,0-.1,0h0Z"/>
              <path class="st5" d="M15.5,4.1c0-.2-.1-.4-.2-.6,0,0,.1-.1.1,0,0,.2.1.4.2.6,0,0-.1.1-.1,0h0Z"/>
              <path class="st5" d="M17.8,6.6c0-.2,0-.4.1-.6,0,0,.1,0,.1,0,0,.2,0,.4-.1.6,0,0-.1,0-.1,0h0Z"/>
              <path class="st5" d="M14.3,4.5c0-.2-.2-.4-.2-.5,0,0,0-.1.1,0,0,.2.2.4.2.6,0,0,0,.1-.1,0h0Z"/>
              <path class="st5" d="M11.6,5.5c-.2-.1-.3-.2-.5-.3,0,0,0-.2,0-.1.2.1.3.2.5.3,0,0,0,.2,0,.1h0Z"/>
              <path class="st5" d="M17.8,10c.1-.3.2-.6.3-1,0,0,.1,0,.1,0,0,.3-.2.7-.3,1,0,0-.1,0-.1,0h0Z"/>
              <path class="st5" d="M15.4,5.1c-.1-.3-.2-.6-.4-1,0,0,0-.1.1,0,.1.3.3.6.4,1,0,0-.1.1-.1,0h0Z"/>
              <path class="st5" d="M16.9,8.3c0-.3,0-.5,0-.8,0,0,.1,0,.1,0,0,.3,0,.5,0,.8,0,0-.1,0-.1,0h0Z"/>
              <path class="st5" d="M17.2,6.9c0-.3,0-.6,0-1,0,0,.1,0,.1,0,0,.3,0,.6,0,1,0,0-.1,0-.1,0h0Z"/>
              <path class="st5" d="M15.9,9.3c0-.3-.2-.6-.2-.9,0,0,.1-.1.1,0,0,.3.2.6.2.9,0,0-.1.1-.1,0h0Z"/>
              <path class="st5" d="M15.3,7.5c-.1-.3-.3-.6-.4-.9,0,0,0-.2.1,0,.2.3.3.6.5.9,0,0,0,.1-.1,0h0Z"/>
              <path class="st5" d="M20.7,4.4c-.2.2-.4.5-.6.8,0,0-.2,0-.1,0,.2-.3.4-.6.6-.8,0,0,.2,0,.1,0h0Z"/>
              <path class="st5" d="M17.5,5.1c0-.3,0-.7,0-1s.1,0,.1,0c0,.3,0,.7,0,1,0,0-.1,0-.1,0h0Z"/>
              <path class="st5" d="M14.3,5.2c.1.2.3.4.3.6,0,0-.1.1-.1,0,0-.2-.2-.4-.3-.6,0,0,0-.2.1,0h0Z"/>
              <path class="st5" d="M13,6.8c-.3-.3-.7-.6-1-.9,0,0,0-.2,0-.1.3.3.7.6,1,.9,0,0,0,.2,0,.1h0Z"/>
              <path class="st5" d="M14.1,7.8c-.2-.3-.4-.5-.6-.7,0,0,0-.2,0,0,.2.2.4.5.6.8,0,0,0,.1-.1,0h0Z"/>
              <path class="st5" d="M14.6,8.9c0-.1-.2-.3-.2-.4,0,0,0-.1.1,0,0,.1.2.3.2.4,0,0,0,.1-.1,0h0Z"/>
              <path class="st5" d="M15,8.3c0-.2-.1-.3-.3-.4,0,0,0-.1.1,0,.1.1.2.3.3.5,0,0,0,.1-.1,0h0Z"/>
              <path class="st5" d="M16.5,11.6c0-.2,0-.3-.1-.5,0,0,0-.1.1,0,0,.2.1.3.1.5,0,0-.1.1-.1,0h0Z"/>
              <path class="st5" d="M21.5,4.4c-.1,0-.3.2-.4.3,0,0-.1,0-.1,0,.1-.2.2-.3.4-.4,0,0,.1,0,0,0h0Z"/>
              <path class="st5" d="M15.6,6.4c0-.2-.1-.4-.2-.6,0,0,0-.1.1,0,.1.2.2.4.2.6,0,0-.1.1-.1,0h0Z"/>
              <path class="st5" d="M16.6,13.9c0-.2,0-.4-.1-.6,0,0,.1-.1.1,0,0,.2.1.4.1.6,0,0-.1,0-.1,0h0Z"/>
              <path class="st5" d="M20,5.9c-.1.2-.2.3-.3.5,0,0-.1,0-.1,0,0-.2.2-.4.3-.5,0,0,.1,0,.1,0h0Z"/>
              <path class="st5" d="M18.9,4.2c0,0,0-.2.1-.3,0,0,.2,0,.1,0,0,0,0,.2-.1.3,0,0-.2,0-.1,0h0Z"/>
              <path class="st5" d="M18.7,8.3c.1-.4.3-.8.6-1.2,0,0,.1,0,.1,0-.2.4-.4.7-.6,1.2,0,0-.1,0-.1,0h0Z"/>
            </g>
          </g>
          <g>
            <g>
              <g>
                <path class="st6" d="M11.4,13.2c.8,0,.8,1.4.1,1.5-.9.1-1-1.5-.1-1.5Z"/>
                <path class="st3" d="M11.5,13.3c.3,0,.3.5,0,.5-.3,0-.4-.5,0-.5Z"/>
              </g>
              <g>
                <path class="st6" d="M22.5,13.2c.8,0,.8,1.4.1,1.5-.9.1-1-1.5-.1-1.5Z"/>
                <path class="st3" d="M22.7,13.3c.3,0,.3.5,0,.5-.3,0-.4-.5,0-.5Z"/>
              </g>
              <path class="st1" d="M25.8,14.8c0-1.3-2.5-1.3-2.6-.2-.2,1.4,2.6,1.6,2.6.2Z"/>
              <path class="st1" d="M8,14.8c0-1.3,2.4-1.3,2.6-.2.2,1.4-2.6,1.6-2.6.2Z"/>
            </g>
            <path class="st3" d="M16.8,18.3c-1.6,0-2.9-.7-2.9-1.8s1.3-2.4,2.9-2.4,2.9,1.2,2.9,2.4-1.3,1.8-2.9,1.8Z"/>
            <g>
              <path class="st6" d="M18,15.4c0-.4-.5-.9-1.2-.9s-1.2.4-1.1.9c0,.5.6.8,1.2.8s1.1-.4,1.2-.8h0Z"/>
              <path class="st6" d="M18.5,17.1c0,.5-.9.6-1.2.2-.3-.3-.3-.7-.3-1.1,0,0-.1,0-.1,0h-.1c0,.4,0,.8-.3,1.1-.3.3-1.1.3-1.2-.2,0-.2-.3-.1-.3,0,.1.6.9.8,1.3.6.3-.1.5-.4.6-.7.1.3.3.6.6.7.5.2,1.2,0,1.3-.6,0-.2-.2-.2-.3,0h0Z"/>
            </g>
          </g>
        </g>
      </g>
      <path class="st2" d="M11.2,21.2c1.5-.1,1.2,2,1.8,3.3.5,1.3.9,1.9,2,2.6.5.4,1.1.8,1.1,1.4,0,.4-.4.8-.8.9-.4,0-3,.6-4.7-3-1-2.1-.8-5,.7-5.1h0Z"/>
    </g>
  </g>
</svg>